<?xml version="1.0" encoding="utf-8"?>
<!-- Generator: Adobe Illustrator 19.2.1, SVG Export Plug-In . SVG Version: 6.00 Build 0)  -->
<svg version="1.1" id="图层_1" xmlns="http://www.w3.org/2000/svg" xmlns:xlink="http://www.w3.org/1999/xlink" x="0px" y="0px"
	 viewBox="0 0 1024 243.5" style="enable-background:new 0 0 1024 243.5;" xml:space="preserve">
<style type="text/css">
	.st0{fill:#FFFFFF;stroke:#000000;stroke-width:5.2007;stroke-miterlimit:10;}
	.st1{fill:#FF5F2E;stroke:#000000;stroke-width:8.6679;stroke-linejoin:round;stroke-miterlimit:10;}
	.st2{fill:#5CC2F2;}
	.st3{opacity:0.9;fill:#B2E7FB;}
	.st4{fill:none;stroke:#000000;stroke-width:8.6679;stroke-linecap:round;stroke-linejoin:round;stroke-miterlimit:10;}
	.st5{fill:#FFFFFF;stroke:#000000;stroke-width:8.6679;stroke-linecap:round;stroke-linejoin:round;stroke-miterlimit:10;}
	.st6{fill:#FFC7C7;stroke:#231815;stroke-width:5.2007;stroke-linejoin:round;stroke-miterlimit:10;}
	.st7{fill:#FFE2E2;stroke:#231815;stroke-width:5.2007;stroke-linejoin:round;stroke-miterlimit:10;}
	.st8{fill:#F6F6F6;stroke:#231815;stroke-width:5.2007;stroke-linejoin:round;stroke-miterlimit:10;}
	.st9{fill:#FFFFFF;}
	.st10{fill:#FFFFFF;stroke:#000000;stroke-width:4.7036;stroke-miterlimit:10;}
	.st11{fill:#FF5F2E;stroke:#000000;stroke-width:7.8393;stroke-linejoin:round;stroke-miterlimit:10;}
	.st12{fill:none;stroke:#000000;stroke-width:7.8393;stroke-linecap:round;stroke-linejoin:round;stroke-miterlimit:10;}
	.st13{fill:#FFFFFF;stroke:#000000;stroke-width:7.8393;stroke-linecap:round;stroke-linejoin:round;stroke-miterlimit:10;}
	.st14{fill:#FFC7C7;stroke:#231815;stroke-width:4.7036;stroke-linejoin:round;stroke-miterlimit:10;}
	.st15{fill:#FFE2E2;stroke:#231815;stroke-width:4.7036;stroke-linejoin:round;stroke-miterlimit:10;}
	.st16{fill:#F6F6F6;stroke:#231815;stroke-width:4.7036;stroke-linejoin:round;stroke-miterlimit:10;}
	.st17{fill:#FFFFFF;stroke:#000000;stroke-width:2.1425;stroke-miterlimit:10;}
	.st18{fill:#FF5F2E;stroke:#000000;stroke-width:3.5708;stroke-linejoin:round;stroke-miterlimit:10;}
	.st19{fill:none;stroke:#000000;stroke-width:3.5708;stroke-linecap:round;stroke-linejoin:round;stroke-miterlimit:10;}
	.st20{fill:#FFFFFF;stroke:#000000;stroke-width:3.5708;stroke-linecap:round;stroke-linejoin:round;stroke-miterlimit:10;}
	.st21{fill:#FFC7C7;stroke:#231815;stroke-width:2.1425;stroke-linejoin:round;stroke-miterlimit:10;}
	.st22{fill:#FFE2E2;stroke:#231815;stroke-width:2.1425;stroke-linejoin:round;stroke-miterlimit:10;}
	.st23{fill:#F6F6F6;stroke:#231815;stroke-width:2.1425;stroke-linejoin:round;stroke-miterlimit:10;}
	.st24{fill:#282828;stroke:#282828;stroke-width:5;stroke-miterlimit:10;}
	.st25{fill:#FFFFFF;stroke:#000000;stroke-width:0.9507;stroke-miterlimit:10;}
	.st26{fill:#FF5F2E;stroke:#000000;stroke-width:1.5845;stroke-linejoin:round;stroke-miterlimit:10;}
	.st27{fill:none;stroke:#000000;stroke-width:1.5845;stroke-linecap:round;stroke-linejoin:round;stroke-miterlimit:10;}
	.st28{fill:#FFFFFF;stroke:#000000;stroke-width:1.5845;stroke-linecap:round;stroke-linejoin:round;stroke-miterlimit:10;}
	.st29{fill:#FFC7C7;stroke:#231815;stroke-width:0.9507;stroke-linejoin:round;stroke-miterlimit:10;}
	.st30{fill:#FFE2E2;stroke:#231815;stroke-width:0.9507;stroke-linejoin:round;stroke-miterlimit:10;}
	.st31{fill:#F6F6F6;stroke:#231815;stroke-width:0.9507;stroke-linejoin:round;stroke-miterlimit:10;}
	.st32{fill:#282828;stroke:#282828;stroke-width:2.2187;stroke-miterlimit:10;}
	.st33{fill:#282828;stroke:#282828;stroke-width:6.8026;stroke-miterlimit:10;}
	.st34{fill:#FFFFFF;stroke:#FFFFFF;stroke-width:6.8026;stroke-miterlimit:10;}
	.st35{fill:#FFFFFF;stroke:#FFFFFF;stroke-width:5;stroke-miterlimit:10;}
	.st36{fill:#282828;}
</style>
<a xlink:href="http://www.ibm.com//developerworks/">
<g>
	<path class="st17" d="M191.4,182.5c7.9,1.8,29.1-13.2,31.3-11.2c1.5,1.3-6,11.2-6,11.2l-7,6.2C209.6,188.6,189.1,182,191.4,182.5z"
		/>
	<path class="st17" d="M225.3,105.2c7.2,3.6,13,23.2,15.9,23c2-0.1,2.3-12.5,2.3-12.5l-1.6-9.2C242,106.5,223.1,104.2,225.3,105.2z"
		/>
	<path class="st18" d="M161.7,45.2l-34.1-8c0,0-45.6,16.7-72.5,43.2c18.7,3.8,24.1,2.8,24.1,2.8L161.7,45.2z"/>
	<g>
		<path class="st2" d="M27,127.6c0,0,74.4-81.1,134.7-82.4s78.4,57,83.1,69c-22.7,6.2-45.2,8.5-71.4,1.1
			c-3.5,39.5,16.6,65,48.8,66.2c-29.8,22.6-47.7,26-69.8,24.5c-36.1-2.5-92.4-32.2-117.9-107.9C27.5,111.9,27,127.6,27,127.6z"/>
		<path class="st3" d="M139.8,177.7c-44.4-4.9-72.3-30-99.3-63.7c27.5,64,78.4,89.6,111.8,91.9c22.1,1.6,40-1.8,69.8-24.5
			c-9,0-22.4-3.5-31.8-12.2C182.2,173.8,170,181.1,139.8,177.7z"/>
		<path class="st19" d="M27,127.6c0,0,74.4-81.1,134.7-82.4s80.1,55.4,83.1,69c-20.6,6-42.1,9.5-71.4,1.1
			c-3.5,39.5,16.6,65,48.8,66.2c-29.8,22.6-47.7,26-69.8,24.5c-36.1-2.5-92.4-32.2-117.9-107.9C27.5,111.9,27,127.6,27,127.6z"/>
	</g>
	<path class="st18" d="M154.4,125.7l-39.9-19c0,0-16.2,16.6-20.1,43.4C122.6,145.2,154.4,125.7,154.4,125.7z"/>
	<circle class="st20" cx="193.6" cy="93" r="12.6"/>
	<ellipse cx="195.2" cy="93" rx="6.5" ry="6.2"/>
	<path class="st19" d="M110.5,114.5c0,0,8.9,7,17.6,8.3"/>
	<path class="st19" d="M102.2,125.3c0,0,9.5,2.9,19,3.9"/>
	<path class="st19" d="M97.4,138.1c0,0,11.9,0.2,21.1-2.3"/>
	<g>
		<g>
			<path class="st21" d="M228.7,135.3c10.5-1.8,20.7,0.8,28.8,6.5c0.1-0.7,0.2-1.5,0.2-2.3c-0.3-14-19.1-17.1-30.8-15.8
				c-11.7,1.3-24.7,8.8-26,23.9c-0.2,2.2,0.2,4.4,0.9,6.6C207.3,144.5,216.9,137.4,228.7,135.3z"/>
			<path class="st22" d="M231.1,149.2c6.6-1.1,13,0.5,18.1,4c3.3-3.9,7.3-6.7,8.2-11.4c-8.1-5.7-18.3-8.3-28.8-6.5
				c-11.8,2-21.4,9.2-26.9,18.9c1.7,4.7,5.3,9.3,9.8,13.1C213.9,158.2,221.3,150.9,231.1,149.2z"/>
			<path class="st23" d="M211.6,167.2c10.4,8.9,25.2,13.9,29.3,8.4c5-6.7,2.2-12.6,5.9-19.1c0.7-1.2,1.5-2.3,2.4-3.4
				c-5.1-3.5-11.5-5.2-18.1-4C221.3,150.9,213.9,158.2,211.6,167.2z"/>
		</g>
		<path class="st19" d="M226.9,124c-11.7,1.3-24.7,8.8-26,23.9c-0.2,2.2,0.2,4.4,0.9,6.6c1.7,4.7,5.3,9.3,9.8,13.1
			c10.4,8.9,25.2,13.9,29.3,8.4c5-6.7,2.2-12.6,5.9-19.1c0.7-1.2,1.5-2.3,2.4-3.4c3.3-3.9,7.3-6.7,8.2-11.4c0.1-0.7,0.2-1.5,0.2-2.3
			C257.3,125.8,238.6,122.6,226.9,124z"/>
	</g>
	<circle class="st9" cx="197" cy="90.7" r="2.3"/>
</g>
</a>
<g>
	<path class="st9" d="M490.7,101.6c16.2,0,29.4,13.2,29.4,29.4c0,16.2-13.2,29.4-29.4,29.4c-16.2,0-29.4-13.2-29.4-29.4
		C461.3,114.8,474.5,101.6,490.7,101.6 M490.7,92.8c-21.1,0-38.3,17.1-38.3,38.3c0,21.1,17.1,38.3,38.3,38.3
		c21.1,0,38.3-17.1,38.3-38.3C529,109.9,511.8,92.8,490.7,92.8L490.7,92.8z"/>
	<path class="st9" d="M886.4,101.6c16.2,0,29.4,13.2,29.4,29.4c0,16.2-13.2,29.4-29.4,29.4c-16.2,0-29.4-13.2-29.4-29.4
		C857,114.8,870.2,101.6,886.4,101.6 M886.4,92.8c-21.1,0-38.3,17.1-38.3,38.3c0,21.1,17.1,38.3,38.3,38.3
		c21.1,0,38.3-17.1,38.3-38.3C924.7,109.9,907.6,92.8,886.4,92.8L886.4,92.8z"/>
	<path class="st9" d="M706.6,101.6c16.2,0,29.4,13.2,29.4,29.4c0,16.2-13.2,29.4-29.4,29.4c-16.2,0-29.4-13.2-29.4-29.4
		C677.2,114.8,690.4,101.6,706.6,101.6 M706.6,92.8c-21.1,0-38.3,17.1-38.3,38.3c0,21.1,17.1,38.3,38.3,38.3
		c21.1,0,38.3-17.1,38.3-38.3C744.9,109.9,727.8,92.8,706.6,92.8L706.6,92.8z"/>
	<rect x="380.1" y="61.7" class="st9" width="8.8" height="107.6"/>
	<g>
		<path class="st9" d="M796.5,101.6c16.2,0,29.4,13.2,29.4,29.4c0,16.2-13.2,29.4-29.4,29.4s-29.4-13.2-29.4-29.4
			C767.1,114.8,780.3,101.6,796.5,101.6 M796.5,92.8c-21.1,0-38.3,17.1-38.3,38.3c0,21.1,17.1,38.3,38.3,38.3
			c21.1,0,38.3-17.1,38.3-38.3C834.8,109.9,817.7,92.8,796.5,92.8L796.5,92.8z"/>
		<rect x="826" y="61.6" class="st9" width="8.8" height="107.6"/>
	</g>
	<rect x="430.3" y="122.2" class="st9" width="8.8" height="47"/>
	<path class="st9" d="M409.6,92.8c-16.3,0-29.5,13.2-29.5,29.5h8.8c0-11.4,9.3-20.7,20.7-20.7s20.7,9.3,20.7,20.7h8.8
		C439.1,106,425.9,92.8,409.6,92.8z"/>
	<g>
		<rect x="547.9" y="122.2" class="st9" width="66.9" height="8.8"/>
		<path class="st9" d="M580.6,92.8c-21.1,0-38.3,17.1-38.3,38.3h8.8c0-16.2,13.2-29.4,29.4-29.4c16.2,0,29.4,13.2,29.4,29.4h8.8
			C618.9,109.9,601.7,92.8,580.6,92.8z"/>
		<path class="st9" d="M580.6,160.5c-16.2,0-29.4-13.2-29.4-29.4h-8.8c0,21.1,17.1,38.3,38.3,38.3c14.2,0,26.5-7.7,33.1-19.1
			l-7.6-4.4C601,154.5,591.5,160.5,580.6,160.5z"/>
	</g>
	<g>
		<rect x="632.2" y="92.8" class="st9" width="8.8" height="76.5"/>
		<path class="st9" d="M661.7,101.6v-8.8c-16.3,0-29.5,13.2-29.5,29.4h8.8C641.1,110.8,650.3,101.6,661.7,101.6z"/>
	</g>
	<g>
		<rect x="938.1" y="93.3" class="st9" width="8.8" height="76"/>
		<rect x="988.2" y="122.2" class="st9" width="8.8" height="47"/>
		<path class="st9" d="M988.2,122.2h8.8c0-16.3-13.2-29.4-29.5-29.4v8.8C978.9,101.6,988.2,110.8,988.2,122.2z"/>
		<path class="st9" d="M967.5,101.6v-8.8c-16.3,0-29.5,13.2-29.5,29.4h8.8C946.9,110.8,956.1,101.6,967.5,101.6z"/>
	</g>
	<path class="st9" d="M331.8,161c-16.2,0-29.4-13.2-29.4-29.4c0-16.2,13.2-29.4,29.4-29.4c10.9,0,20.4,5.9,25.5,14.7l7.6-4.4
		c-6.6-11.4-19-19.1-33.1-19.1c-21.1,0-38.3,17.1-38.3,38.3c0,21.1,17.1,38.3,38.3,38.3c14.2,0,26.5-7.7,33.1-19.1l-7.6-4.4
		C352.2,155.1,342.7,161,331.8,161z"/>
</g>

</svg>
