<svg id="图层_1" data-name="图层 1" xmlns="http://www.w3.org/2000/svg" viewBox="0 0 1024 243.46"><defs><style>.cls-1,.cls-10,.cls-6{fill:#fff;}.cls-1,.cls-2,.cls-5,.cls-6{stroke:#000;}.cls-1,.cls-11{stroke-miterlimit:10;}.cls-1,.cls-7,.cls-8,.cls-9{stroke-width:2.14px;}.cls-2{fill:#ff5f2e;}.cls-2,.cls-5,.cls-6,.cls-7,.cls-8,.cls-9{stroke-linejoin:round;}.cls-2,.cls-5,.cls-6{stroke-width:3.57px;}.cls-3{fill:#5cc2f2;}.cls-4{fill:#b2e7fb;opacity:0.9;}.cls-5{fill:none;}.cls-5,.cls-6{stroke-linecap:round;}.cls-7{fill:#ffc7c7;}.cls-7,.cls-8,.cls-9{stroke:#231815;}.cls-8{fill:#ffe2e2;}.cls-9{fill:#f6f6f6;}.cls-11{fill:#282828;stroke:#282828;stroke-width:5px;}</style></defs><title>choerodon_logo_</title><path class="cls-1" d="M191.45,182.51c7.87,1.78,29.06-13.19,31.26-11.21,1.49,1.34-6,11.18-6,11.18l-7,6.17S189.09,182,191.45,182.51Z"/><path class="cls-1" d="M225.3,105.24c7.24,3.57,13,23.17,15.92,23,2-.1,2.34-12.5,2.34-12.5L242,106.53S223.14,104.17,225.3,105.24Z"/><path class="cls-2" d="M161.67,45.19l-34.07-8S82,53.81,55.07,80.38c18.67,3.81,24.11,2.8,24.11,2.8Z"/><path class="cls-3" d="M27,127.6s74.38-81.08,134.67-82.41,78.38,57,83.07,69c-22.7,6.19-45.22,8.51-71.44,1.11-3.47,39.47,16.64,65,48.76,66.2-29.76,22.63-47.68,26-69.77,24.46-36.11-2.55-92.45-32.16-117.91-107.86C27.53,111.86,27,127.6,27,127.6Z"/><path class="cls-4" d="M139.78,177.75c-44.4-4.88-72.31-30-99.33-63.71C68,178,118.81,203.62,152.27,206c22.09,1.56,40-1.83,69.77-24.46-9,0-22.38-3.48-31.77-12.23C182.22,173.76,170,181.07,139.78,177.75Z"/><path class="cls-5" d="M27,127.6s74.38-81.08,134.67-82.41,80.06,55.35,83.07,69c-20.61,6-42.09,9.52-71.44,1.11-3.47,39.47,16.64,65,48.76,66.2-29.76,22.63-47.68,26-69.77,24.46-36.11-2.55-92.45-32.16-117.91-107.86C27.53,111.86,27,127.6,27,127.6Z"/><path class="cls-2" d="M154.44,125.7l-39.93-19a84.67,84.67,0,0,0-20.11,43.37C122.56,145.2,154.44,125.7,154.44,125.7Z"/><circle class="cls-6" cx="193.65" cy="93.01" r="12.63"/><ellipse cx="195.21" cy="93.01" rx="6.49" ry="6.21"/><path class="cls-5" d="M110.48,114.46s8.94,7,17.56,8.25"/><path class="cls-5" d="M102.21,125.31a119.36,119.36,0,0,0,19,3.85"/><path class="cls-5" d="M97.37,138.06s11.9,0.24,21.09-2.28"/><path class="cls-7" d="M228.73,135.31a38.4,38.4,0,0,1,28.77,6.47,11.11,11.11,0,0,0,.19-2.35c-0.34-14-19.07-17.13-30.78-15.79s-24.67,8.85-26,23.89a15.71,15.71,0,0,0,.93,6.63A38.45,38.45,0,0,1,228.73,135.31Z"/><path class="cls-8" d="M231.13,149.2a24.35,24.35,0,0,1,18.13,4c3.33-3.91,7.34-6.65,8.24-11.44a38.53,38.53,0,0,0-55.65,12.39c1.67,4.72,5.32,9.26,9.78,13.08A24.43,24.43,0,0,1,231.13,149.2Z"/><path class="cls-9" d="M211.62,167.25c10.4,8.91,25.16,13.94,29.29,8.4,5-6.73,2.22-12.6,5.93-19.07a22.35,22.35,0,0,1,2.41-3.36A24.43,24.43,0,0,0,211.62,167.25Z"/><path class="cls-5" d="M226.9,124c-11.72,1.34-24.67,8.85-26,23.89a15.71,15.71,0,0,0,.93,6.63c1.67,4.72,5.32,9.26,9.78,13.08,10.4,8.91,25.16,13.94,29.29,8.4,5-6.73,2.22-12.6,5.93-19.07a22.34,22.34,0,0,1,2.41-3.36c3.33-3.91,7.34-6.65,8.24-11.44a11.12,11.12,0,0,0,.19-2.35C257.35,125.8,238.62,122.64,226.9,124Z"/><circle class="cls-10" cx="197.03" cy="90.7" r="2.31"/><path class="cls-11" d="M490.71,101.58A29.45,29.45,0,1,1,461.26,131a29.48,29.48,0,0,1,29.45-29.45m0-8.81A38.26,38.26,0,1,0,529,131a38.26,38.26,0,0,0-38.26-38.26h0Z"/><path class="cls-11" d="M886.42,101.58A29.45,29.45,0,1,1,857,131a29.48,29.48,0,0,1,29.45-29.45m0-8.81A38.26,38.26,0,1,0,924.68,131a38.26,38.26,0,0,0-38.26-38.26h0Z"/><path class="cls-11" d="M706.64,101.58A29.45,29.45,0,1,1,677.2,131a29.48,29.48,0,0,1,29.45-29.45m0-8.81A38.26,38.26,0,1,0,744.9,131a38.26,38.26,0,0,0-38.26-38.26h0Z"/><rect class="cls-11" x="380.13" y="61.65" width="8.81" height="107.63"/><path class="cls-11" d="M796.53,101.58A29.45,29.45,0,1,1,767.09,131a29.48,29.48,0,0,1,29.45-29.45m0-8.81A38.26,38.26,0,1,0,834.79,131a38.26,38.26,0,0,0-38.26-38.26h0Z"/><rect class="cls-11" x="825.98" y="61.65" width="8.81" height="107.63"/><rect class="cls-11" x="430.26" y="122.24" width="8.81" height="47.04"/><path class="cls-11" d="M409.6,92.77a29.47,29.47,0,0,0-29.47,29.47h8.81a20.66,20.66,0,1,1,41.32,0h8.81A29.47,29.47,0,0,0,409.6,92.77Z"/><rect class="cls-11" x="547.87" y="122.21" width="66.85" height="8.81"/><path class="cls-11" d="M580.6,92.77A38.26,38.26,0,0,0,542.34,131h8.81A29.45,29.45,0,0,1,610,131h8.81A38.26,38.26,0,0,0,580.6,92.77Z"/><path class="cls-11" d="M580.6,160.47A29.48,29.48,0,0,1,551.15,131h-8.81a38.25,38.25,0,0,0,71.38,19.12l-7.64-4.41A29.46,29.46,0,0,1,580.6,160.47Z"/><rect class="cls-11" x="632.23" y="92.77" width="8.81" height="76.51"/><path class="cls-11" d="M661.7,101.58V92.77a29.47,29.47,0,0,0-29.47,29.44H641A20.68,20.68,0,0,1,661.7,101.58Z"/><rect class="cls-11" x="938.06" y="93.3" width="8.81" height="75.98"/><rect class="cls-11" x="988.19" y="122.24" width="8.81" height="47.04"/><path class="cls-11" d="M988.19,122.21H997a29.47,29.47,0,0,0-29.47-29.44v8.81A20.68,20.68,0,0,1,988.19,122.21Z"/><path class="cls-11" d="M967.53,101.58V92.77a29.47,29.47,0,0,0-29.47,29.44h8.81A20.68,20.68,0,0,1,967.53,101.58Z"/><path class="cls-11" d="M331.83,161a29.45,29.45,0,1,1,25.49-44.16l7.64-4.41a38.26,38.26,0,1,0,0,38.25l-7.64-4.41A29.46,29.46,0,0,1,331.83,161Z"/></svg>