<?xml version="1.0" encoding="UTF-8"?>
<svg width="170px" height="46px" viewBox="0 0 170 46" version="1.1" xmlns="http://www.w3.org/2000/svg" xmlns:xlink="http://www.w3.org/1999/xlink">
    <title>logo</title>
    <defs>
        <polygon id="path-1" points="0 0.391974704 58.5425522 0.391974704 58.5425522 43.9999 0 43.9999"></polygon>
        <polygon id="path-3" points="0 45.7218 170 45.7218 170 -0.0002 0 -0.0002"></polygon>
    </defs>
    <g id="控件" stroke="none" stroke-width="1" fill="none" fill-rule="evenodd">
        <g id="menu" transform="translate(-99.000000, -12.000000)">
            <g id="logo" transform="translate(99.000000, 12.000000)">
                <path d="M43.9358,38.8967 C46.0128,39.3667 51.6048,35.4167 52.1858,35.9387 C52.5788,36.2917 50.5888,38.8897 50.5888,38.8897 L48.7308,40.5167 C48.7308,40.5167 43.3138,38.7557 43.9358,38.8967" id="Fill-1" fill="#FFFFFF"></path>
                <path d="M45.4338,39.0891 C46.3958,39.4101 47.6708,39.8281 48.6558,40.1491 L50.3498,38.6661 C51.0278,37.7771 51.7338,36.6881 51.8818,36.2331 C51.4468,36.3331 50.4088,36.8601 49.5538,37.2931 C48.1738,37.9921 46.6698,38.7551 45.4338,39.0891 L45.4338,39.0891 Z M48.8068,40.8841 L48.6298,40.8261 C48.6298,40.8261 47.4148,40.4321 46.2018,40.0301 C44.8658,39.5891 44.1858,39.3641 43.8498,39.2111 L43.8498,39.2121 L43.8498,39.2111 C43.5028,39.0531 43.5258,38.9711 43.5718,38.8031 C43.5798,38.7731 43.6648,38.5021 44.0068,38.5781 C45.0918,38.8231 47.4998,37.6031 49.2588,36.7121 C51.2028,35.7261 52.0078,35.3401 52.4038,35.6961 C52.5728,35.8481 53.0208,36.2511 50.8478,39.0881 L50.8038,39.1351 L48.8068,40.8841 Z" id="Fill-3" fill="#000000"></path>
                <path d="M52.8694,18.507 C54.7784,19.449 56.2904,24.619 57.0694,24.579 C57.5984,24.552 57.6874,21.281 57.6874,21.281 L57.2674,18.848 C57.2674,18.848 52.2974,18.225 52.8694,18.507" id="Fill-5" fill="#FFFFFF"></path>
                <path d="M53.0129,18.2141 L52.8689,18.5071 L53.0139,18.2141 L53.0129,18.2141 Z M53.7839,18.7991 C54.6379,19.6691 55.3709,21.1361 55.9879,22.3681 C56.3189,23.0311 56.7579,23.9101 57.0099,24.1841 C57.1849,23.7611 57.3269,22.4431 57.3609,21.3051 L56.9879,19.1421 C55.8129,18.9961 54.5839,18.8631 53.7839,18.7991 L53.7839,18.7991 Z M57.0579,24.9051 C56.5489,24.9051 56.1769,24.2071 55.4049,22.6591 C54.6939,21.2371 53.7199,19.2901 52.7249,18.7991 C52.5049,18.6911 52.4729,18.5011 52.5119,18.3721 C52.6059,18.0571 52.6399,17.9391 57.3089,18.5251 L57.5479,18.5551 L58.0149,21.2581 L58.0139,21.2901 C57.9149,24.8621 57.3129,24.8941 57.0869,24.9051 L57.0579,24.9051 Z" id="Fill-7" fill="#000000"></path>
                <path d="M36.0784,2.6623 L27.0884,0.5433 C27.0884,0.5433 15.0514,4.9373 7.9504,11.9473 C12.8784,12.9533 14.3134,12.6853 14.3134,12.6853 L36.0784,2.6623 Z" id="Fill-9" fill="#FF5F2E"></path>
                <path d="M9.0871,11.6164 C12.5031,12.2534 13.8791,12.1824 14.1621,12.1574 L34.4171,2.8294 L27.1241,1.1094 C25.7721,1.6234 15.6481,5.5934 9.0871,11.6164 M13.7011,13.2624 C12.8321,13.2624 11.0711,13.1384 7.8421,12.4794 C7.6461,12.4394 7.4871,12.2944 7.4301,12.1024 C7.3721,11.9104 7.4261,11.7014 7.5691,11.5604 C14.6721,4.5484 26.4051,0.2144 26.9011,0.0324 C27.0011,-0.0036 27.1091,-0.0096 27.2121,0.0144 L36.2031,2.1344 C36.4291,2.1864 36.5961,2.3774 36.6191,2.6074 C36.6421,2.8394 36.5171,3.0584 36.3061,3.1564 L14.5411,13.1794 C14.5001,13.1984 14.4571,13.2124 14.4121,13.2204 C14.3591,13.2304 14.1491,13.2624 13.7011,13.2624" id="Fill-11" fill="#000000"></path>
                <path d="M0.5432,24.4084 C0.5432,24.4084 20.1692,3.0124 36.0782,2.6624 C51.9882,2.3114 56.7612,17.6904 57.9982,20.8724 C52.0082,22.5074 46.0652,23.1194 39.1482,21.1664 C38.2312,31.5814 43.5382,38.3214 52.0142,38.6354 C44.1602,44.6064 39.4342,45.5024 33.6042,45.0914 C24.0752,44.4184 9.2092,36.6054 2.4912,16.6304 C0.6822,20.2544 0.5432,24.4084 0.5432,24.4084" id="Fill-13" fill="#5CC2F2"></path>
                <path d="M30.302,37.6408 C18.586,36.3538 11.222,29.7298 4.091,20.8298 C11.357,37.7108 24.769,44.4678 33.597,45.0908 C39.427,45.5018 44.155,44.6068 52.008,38.6348 C49.631,38.6428 46.103,37.7168 43.624,35.4088 C41.501,36.5868 38.266,38.5158 30.302,37.6408" id="Fill-15" fill="#B2E7FB"></path>
                <g id="编组" transform="translate(0.000000, 1.721800)">
                    <mask id="mask-2" fill="white">
                        <use xlink:href="#path-1"></use>
                    </mask>
                    <g id="Clip-18"></g>
                    <path d="M2.4319,16.3849 C1.7359,18.1679 1.3959,19.9609 1.2329,21.1789 C1.7859,20.6139 2.5349,19.8629 3.4489,18.9819 C3.0949,18.1429 2.7559,17.2779 2.4319,16.3849 M4.7459,19.2529 C12.3649,36.6599 26.1909,42.3009 33.6419,42.8259 C39.1039,43.2139 43.5079,42.4289 50.5329,37.3369 C47.1989,36.9119 44.3649,35.4599 42.2729,33.0889 C39.3749,29.8059 38.1079,25.0719 38.6069,19.3979 C38.6209,19.2359 38.7069,19.0889 38.8409,18.9969 C38.9749,18.9059 39.1429,18.8779 39.2979,18.9229 C46.8439,21.0839 52.4449,20.1689 57.3469,18.7739 C56.9529,17.2779 55.5979,12.9539 52.2859,8.9059 C48.1369,3.8359 42.7029,1.3409 36.0899,1.4839 C24.7159,1.7349 11.2039,13.1289 4.7459,19.2529 M35.9109,43.9999 C35.1449,43.9999 34.3669,43.9669 33.5659,43.9109 C25.9149,43.3709 11.7719,37.6469 3.9119,20.0529 C2.0759,21.8299 0.9899,23.0039 0.9439,23.0539 C0.7889,23.2209 0.5479,23.2759 0.3379,23.1899 C0.1269,23.1039 -0.0071,22.8959 -0.000361625538,22.6679 C0.0059,22.4929 0.1629,18.3529 2.0049,14.6649 C2.1039,14.4689 2.3109,14.3529 2.5299,14.3659 C2.7479,14.3819 2.9369,14.5279 3.0069,14.7359 C3.4089,15.9289 3.8369,17.0759 4.2899,18.1779 C6.3209,16.2609 8.9819,13.8859 12.0099,11.5169 C21.2549,4.2869 29.3489,0.5459 36.0669,0.3979 C43.0229,0.2499 48.7559,2.8749 53.1269,8.2189 C57.1419,13.1259 58.3999,18.4439 58.5299,19.0329 C58.5909,19.3129 58.4259,19.5919 58.1519,19.6719 C53.1109,21.1519 47.3829,22.2209 39.6399,20.1459 C39.3159,25.2239 40.5019,29.4409 43.0869,32.3699 C45.2769,34.8519 48.3699,36.2359 52.0349,36.3699 C52.2639,36.3789 52.4629,36.5309 52.5329,36.7489 C52.6019,36.9689 52.5259,37.2069 52.3429,37.3459 C45.4219,42.6089 40.9109,43.9999 35.9109,43.9999" id="Fill-17" fill="#000000" mask="url(#mask-2)"></path>
                </g>
                <path d="M34.1711,23.9084 L23.6361,18.8944 C23.6361,18.8944 19.3631,23.2834 18.3301,30.3404 C25.7581,29.0514 34.1711,23.9084 34.1711,23.9084" id="Fill-19" fill="#FF5F2E"></path>
                <path d="M23.7688,19.5598 C22.8878,20.5818 19.9898,24.2758 18.9938,29.6608 C24.6548,28.4918 30.7738,25.2248 33.0078,23.9558 L23.7688,19.5598 Z M18.3308,30.8828 C18.1898,30.8828 18.0528,30.8288 17.9508,30.7288 C17.8258,30.6078 17.7668,30.4338 17.7918,30.2608 C18.8388,23.1128 23.0668,18.7008 23.2468,18.5158 C23.4088,18.3498 23.6588,18.3048 23.8698,18.4048 L34.4048,23.4168 C34.5838,23.5028 34.7038,23.6808 34.7128,23.8788 C34.7238,24.0788 34.6238,24.2678 34.4548,24.3718 C34.1078,24.5838 25.8678,29.5838 18.4228,30.8748 C18.3918,30.8798 18.3608,30.8828 18.3308,30.8828 L18.3308,30.8828 Z" id="Fill-21" fill="#000000"></path>
                <path d="M47.8508,15.2815 C47.8508,17.1225 46.3578,18.6145 44.5168,18.6145 C42.6748,18.6145 41.1828,17.1225 41.1828,15.2815 C41.1828,13.4395 42.6748,11.9475 44.5168,11.9475 C46.3578,11.9475 47.8508,13.4395 47.8508,15.2815" id="Fill-23" fill="#FFFFFF"></path>
                <path d="M44.5168,12.4904 C42.9778,12.4904 41.7268,13.7424 41.7268,15.2814 C41.7268,16.8194 42.9778,18.0714 44.5168,18.0714 C46.0548,18.0714 47.3068,16.8194 47.3068,15.2814 C47.3068,13.7424 46.0548,12.4904 44.5168,12.4904 M44.5168,19.1584 C42.3788,19.1584 40.6398,17.4194 40.6398,15.2814 C40.6398,13.1424 42.3788,11.4044 44.5168,11.4044 C46.6548,11.4044 48.3938,13.1424 48.3938,15.2814 C48.3938,17.4194 46.6548,19.1584 44.5168,19.1584" id="Fill-25" fill="#000000"></path>
                <path d="M46.6409,15.2815 C46.6409,16.1865 45.8739,16.9205 44.9289,16.9205 C43.9839,16.9205 43.2169,16.1865 43.2169,15.2815 C43.2169,14.3765 43.9839,13.6415 44.9289,13.6415 C45.8739,13.6415 46.6409,14.3765 46.6409,15.2815" id="Fill-27" fill="#000000"></path>
                <path d="M27.2053,23.6623 C27.1803,23.6623 27.1533,23.6603 27.1283,23.6573 C24.7363,23.3153 22.3373,21.4483 22.2363,21.3693 C22.0003,21.1833 21.9593,20.8433 22.1443,20.6063 C22.3303,20.3703 22.6713,20.3283 22.9073,20.5153 C22.9303,20.5313 25.1823,22.2813 27.2813,22.5813 C27.5783,22.6243 27.7853,22.8983 27.7423,23.1953 C27.7043,23.4673 27.4713,23.6623 27.2053,23.6623" id="Fill-29" fill="#000000"></path>
                <path d="M25.4094,25.3625 C25.3904,25.3625 25.3714,25.3615 25.3514,25.3595 C22.8204,25.0935 20.3384,24.3545 20.2334,24.3235 C19.9454,24.2375 19.7834,23.9335 19.8694,23.6465 C19.9554,23.3595 20.2574,23.1955 20.5464,23.2825 C20.5704,23.2905 23.0384,24.0245 25.4654,24.2785 C25.7634,24.3095 25.9804,24.5775 25.9494,24.8755 C25.9204,25.1545 25.6834,25.3625 25.4094,25.3625" id="Fill-31" fill="#000000"></path>
                <path d="M19.3625,27.7131 C19.2135,27.7131 19.1215,27.7111 19.1015,27.7111 C18.8015,27.7051 18.5635,27.4561 18.5695,27.1561 C18.5755,26.8601 18.8175,26.6241 19.1125,26.6241 L19.1235,26.6241 C19.1535,26.6241 22.2145,26.6781 24.5345,26.0431 C24.8235,25.9621 25.1225,26.1341 25.2015,26.4241 C25.2815,26.7131 25.1105,27.0121 24.8215,27.0911 C22.7285,27.6631 20.1785,27.7131 19.3625,27.7131" id="Fill-33" fill="#000000"></path>
                <path d="M53.7727,26.4436 C56.5397,25.9646 59.2387,26.6526 61.3647,28.1516 C61.4007,27.9596 61.4187,27.7546 61.4147,27.5336 C61.3247,23.8476 56.3827,23.0126 53.2917,23.3656 C50.2007,23.7176 46.7817,25.7006 46.4337,29.6706 C46.3827,30.2556 46.4757,30.8426 46.6797,31.4206 C48.1317,28.8796 50.6647,26.9826 53.7727,26.4436" id="Fill-35" fill="#FFC7C7"></path>
                <path d="M54.6487,23.6164 C54.1917,23.6164 53.7477,23.6414 53.3287,23.6894 C48.8237,24.2034 46.9737,27.2474 46.7587,29.6984 C46.7327,29.9934 46.7477,30.2974 46.8007,30.6064 C48.3947,28.2334 50.8777,26.6144 53.7177,26.1224 C56.2947,25.6774 58.8917,26.1924 61.0887,27.5764 C61.0887,27.5644 61.0877,27.5534 61.0877,27.5414 C61.0657,26.5934 60.6867,25.7934 59.9617,25.1624 C58.6997,24.0624 56.5677,23.6164 54.6487,23.6164 M46.6797,31.7464 C46.6697,31.7464 46.6607,31.7454 46.6507,31.7444 C46.5237,31.7334 46.4147,31.6484 46.3727,31.5284 C46.1447,30.8854 46.0557,30.2504 46.1087,29.6414 C46.3447,26.9464 48.3587,23.5994 53.2547,23.0424 C55.5717,22.7764 58.6767,23.1794 60.3907,24.6714 C61.2577,25.4264 61.7117,26.3874 61.7407,27.5244 C61.7467,27.7614 61.7277,27.9864 61.6847,28.2124 C61.6647,28.3214 61.5897,28.4124 61.4877,28.4544 C61.3837,28.4954 61.2677,28.4814 61.1767,28.4184 C59.0287,26.9034 56.4197,26.3164 53.8287,26.7644 C50.9277,27.2674 48.4247,29.0224 46.9617,31.5814 C46.9047,31.6834 46.7957,31.7464 46.6797,31.7464" id="Fill-37" fill="#231815"></path>
                <path d="M54.4075,30.1076 C56.1485,29.8056 57.8465,30.2336 59.1905,31.1696 C60.0705,30.1386 61.1265,29.4146 61.3645,28.1516 C59.2385,26.6526 56.5395,25.9646 53.7725,26.4436 C50.6645,26.9826 48.1325,28.8786 46.6795,31.4196 C47.1205,32.6666 48.0845,33.8626 49.2605,34.8706 C49.8685,32.4836 51.8235,30.5546 54.4075,30.1076" id="Fill-39" fill="#FFE2E2"></path>
                <path d="M47.0383,31.4504 C47.4063,32.3984 48.1103,33.3694 49.0933,34.2854 C49.8863,31.9514 51.8993,30.2114 54.3513,29.7864 C56.0233,29.4974 57.7103,29.8354 59.1343,30.7404 C59.3103,30.5464 59.4893,30.3614 59.6643,30.1814 C60.2663,29.5644 60.7923,29.0244 60.9963,28.2944 C58.8833,26.8714 56.3483,26.3294 53.8283,26.7644 C50.9773,27.2594 48.5113,28.9634 47.0383,31.4504 M49.2603,35.1964 C49.1833,35.1964 49.1073,35.1704 49.0473,35.1184 C47.7263,33.9864 46.8023,32.7454 46.3723,31.5284 C46.3403,31.4394 46.3503,31.3404 46.3963,31.2584 C47.9563,28.5294 50.6243,26.6584 53.7183,26.1224 C56.4783,25.6444 59.2623,26.2694 61.5533,27.8854 C61.6563,27.9594 61.7093,28.0874 61.6843,28.2124 C61.4903,29.2414 60.8303,29.9194 60.1313,30.6374 C59.9003,30.8744 59.6613,31.1204 59.4383,31.3814 C59.3303,31.5084 59.1423,31.5334 59.0043,31.4364 C57.6733,30.5104 56.0593,30.1514 54.4633,30.4294 C52.0903,30.8404 50.1713,32.6144 49.5753,34.9514 C49.5473,35.0604 49.4653,35.1474 49.3573,35.1814 C49.3253,35.1914 49.2923,35.1964 49.2603,35.1964" id="Fill-41" fill="#231815"></path>
                <path d="M49.26,34.8703 C52.003,37.2233 55.899,38.5493 56.988,37.0883 C58.311,35.3123 57.573,33.7623 58.554,32.0573 C58.741,31.7293 58.96,31.4383 59.191,31.1693 C57.847,30.2333 56.149,29.8063 54.407,30.1073 C51.823,30.5553 49.868,32.4833 49.26,34.8703" id="Fill-43" fill="#F6F6F6"></path>
                <path d="M49.6291,34.7561 C51.6291,36.4141 54.2371,37.5261 55.7641,37.3561 C56.2101,37.3061 56.5341,37.1511 56.7261,36.8931 C57.3951,35.9961 57.4951,35.1661 57.6021,34.2871 C57.6941,33.5211 57.7911,32.7291 58.2711,31.8951 C58.3961,31.6781 58.5401,31.4631 58.7091,31.2441 C57.4391,30.4611 55.9431,30.1711 54.4631,30.4291 C52.1561,30.8281 50.2791,32.5161 49.6291,34.7561 M55.4481,38.0251 C53.6801,38.0251 51.0711,36.8541 49.0471,35.1181 C48.9531,35.0371 48.9131,34.9101 48.9431,34.7901 C49.6031,32.2051 51.7261,30.2401 54.3521,29.7861 C56.1191,29.4801 57.9031,29.8761 59.3771,30.9021 C59.4521,30.9541 59.5021,31.0361 59.5141,31.1281 C59.5251,31.2191 59.4981,31.3111 59.4391,31.3811 C59.1921,31.6701 58.9941,31.9441 58.8361,32.2201 C58.4221,32.9391 58.3381,33.6311 58.2491,34.3651 C58.1371,35.2901 58.0211,36.2461 57.2481,37.2831 C56.9441,37.6911 56.4691,37.9331 55.8361,38.0041 C55.7121,38.0181 55.5821,38.0251 55.4481,38.0251" id="Fill-45" fill="#231815"></path>
                <path d="M53.3532,23.9924 C50.6182,24.3044 47.3072,26.0134 46.9752,29.8044 C46.9332,30.2874 47.0062,30.7994 47.1912,31.3254 C47.5712,32.3984 48.4082,33.5124 49.6132,34.5454 C51.5922,36.2414 54.2262,37.3924 55.7392,37.2254 C56.1242,37.1834 56.3972,37.0564 56.5522,36.8494 C57.1862,35.9994 57.2832,35.1964 57.3862,34.3474 C57.4812,33.5594 57.5802,32.7454 58.0822,31.8724 C58.2672,31.5514 58.4942,31.2344 58.7762,30.9024 C59.0192,30.6204 59.2682,30.3644 59.5092,30.1164 C60.1402,29.4694 60.6852,28.9094 60.8312,28.1384 C60.8612,27.9724 60.8752,27.8064 60.8712,27.6334 C60.8492,26.7364 60.5052,26.0104 59.8192,25.4134 C58.3052,24.0954 55.4792,23.7494 53.3532,23.9924 L53.3532,23.9924 Z M55.4552,38.3274 C53.6362,38.3274 50.9672,37.1374 48.9052,35.3704 C47.5572,34.2134 46.6092,32.9394 46.1672,31.6874 C45.9292,31.0144 45.8372,30.3484 45.8932,29.7094 C46.2572,25.5514 49.8412,23.2994 53.2292,22.9124 C55.4222,22.6634 58.6492,22.9534 60.5332,24.5944 C61.4492,25.3904 61.9282,26.4044 61.9572,27.6064 C61.9632,27.8544 61.9432,28.1014 61.8982,28.3394 C61.6922,29.4324 60.9782,30.1664 60.2872,30.8754 C60.0582,31.1104 59.8212,31.3524 59.6032,31.6084 C59.3642,31.8884 59.1762,32.1514 59.0242,32.4144 C58.6332,33.0954 58.5512,33.7664 58.4652,34.4774 C58.3542,35.3874 58.2292,36.4164 57.4232,37.4994 C57.0862,37.9504 56.5462,38.2294 55.8592,38.3064 C55.7302,38.3204 55.5962,38.3274 55.4552,38.3274 L55.4552,38.3274 Z" id="Fill-47" fill="#000000"></path>
                <path d="M46.0178,14.6731 C46.0178,15.0091 45.7458,15.2811 45.4098,15.2811 C45.0738,15.2811 44.8008,15.0091 44.8008,14.6731 C44.8008,14.3371 45.0738,14.0651 45.4098,14.0651 C45.7458,14.0651 46.0178,14.3371 46.0178,14.6731" id="Fill-49" fill="#FFFFFF"></path>
                <path d="M101.428,31.0324 C98.591,31.0324 96.291,33.3324 96.291,36.1694 C96.291,39.0064 98.591,41.3054 101.428,41.3054 C104.265,41.3054 106.565,39.0064 106.565,36.1694 C106.565,33.3324 104.265,31.0324 101.428,31.0324 M101.428,32.2154 C103.608,32.2154 105.382,33.9894 105.382,36.1694 C105.382,38.3494 103.608,40.1234 101.428,40.1234 C99.247,40.1234 97.474,38.3494 97.474,36.1694 C97.474,33.9894 99.247,32.2154 101.428,32.2154" id="Fill-51" fill="#282828"></path>
                <path d="M101.428,32.8039 C99.573,32.8039 98.063,34.3139 98.063,36.1689 C98.063,38.0249 99.573,39.5339 101.428,39.5339 C103.283,39.5339 104.793,38.0249 104.793,36.1689 C104.793,34.3139 103.283,32.8039 101.428,32.8039 M101.428,40.7109 C98.923,40.7109 96.886,38.6739 96.886,36.1689 C96.886,33.6639 98.923,31.6269 101.428,31.6269 C103.933,31.6269 105.97,33.6639 105.97,36.1689 C105.97,38.6739 103.933,40.7109 101.428,40.7109 M101.428,31.6199 C98.92,31.6199 96.879,33.6609 96.879,36.1689 C96.879,38.6769 98.92,40.7179 101.428,40.7179 C103.936,40.7179 105.977,38.6769 105.977,36.1689 C105.977,33.6609 103.936,31.6199 101.428,31.6199 M101.428,41.8949 C98.271,41.8949 95.702,39.3259 95.702,36.1689 C95.702,33.0119 98.271,30.4449 101.428,30.4449 C104.585,30.4449 107.153,33.0119 107.153,36.1689 C107.153,39.3259 104.585,41.8949 101.428,41.8949" id="Fill-53" fill="#282828"></path>
                <path d="M154.5637,31.0324 C151.7267,31.0324 149.4267,33.3324 149.4267,36.1694 C149.4267,39.0064 151.7267,41.3054 154.5637,41.3054 C157.4007,41.3054 159.7007,39.0064 159.7007,36.1694 C159.7007,33.3324 157.4007,31.0324 154.5637,31.0324 M154.5637,32.2154 C156.7437,32.2154 158.5177,33.9894 158.5177,36.1694 C158.5177,38.3494 156.7437,40.1234 154.5637,40.1234 C152.3827,40.1234 150.6097,38.3494 150.6097,36.1694 C150.6097,33.9894 152.3827,32.2154 154.5637,32.2154" id="Fill-55" fill="#282828"></path>
                <path d="M154.5637,32.8039 C152.7087,32.8039 151.1987,34.3139 151.1987,36.1689 C151.1987,38.0249 152.7087,39.5349 154.5637,39.5349 C156.4187,39.5349 157.9287,38.0249 157.9287,36.1689 C157.9287,34.3139 156.4187,32.8039 154.5637,32.8039 M154.5637,40.7119 C152.0587,40.7119 150.0217,38.6739 150.0217,36.1689 C150.0217,33.6639 152.0587,31.6269 154.5637,31.6269 C157.0687,31.6269 159.1057,33.6639 159.1057,36.1689 C159.1057,38.6739 157.0687,40.7119 154.5637,40.7119 M154.5637,31.6199 C152.0557,31.6199 150.0147,33.6609 150.0147,36.1689 C150.0147,38.6779 152.0557,40.7179 154.5637,40.7179 C157.0717,40.7179 159.1127,38.6779 159.1127,36.1689 C159.1127,33.6609 157.0717,31.6199 154.5637,31.6199 M154.5637,41.8949 C151.4067,41.8949 148.8377,39.3259 148.8377,36.1689 C148.8377,33.0119 151.4067,30.4449 154.5637,30.4449 C157.7207,30.4449 160.2897,33.0119 160.2897,36.1689 C160.2897,39.3259 157.7207,41.8949 154.5637,41.8949" id="Fill-57" fill="#282828"></path>
                <path d="M130.4231,31.0324 C127.5861,31.0324 125.2861,33.3324 125.2861,36.1694 C125.2861,39.0064 127.5861,41.3054 130.4231,41.3054 C133.2611,41.3054 135.5611,39.0064 135.5611,36.1694 C135.5611,33.3324 133.2611,31.0324 130.4231,31.0324 M130.4231,32.2154 C132.6041,32.2154 134.3771,33.9894 134.3771,36.1694 C134.3771,38.3494 132.6041,40.1234 130.4231,40.1234 C128.2431,40.1234 126.4701,38.3494 126.4701,36.1694 C126.4701,33.9894 128.2431,32.2154 130.4231,32.2154" id="Fill-59" fill="#282828"></path>
                <path d="M130.4231,32.8039 C128.5681,32.8039 127.0581,34.3139 127.0581,36.1689 C127.0581,38.0249 128.5681,39.5339 130.4231,39.5339 C132.2791,39.5339 133.7891,38.0249 133.7891,36.1689 C133.7891,34.3139 132.2791,32.8039 130.4231,32.8039 M130.4231,40.7109 C127.9191,40.7109 125.8811,38.6739 125.8811,36.1689 C125.8811,33.6639 127.9191,31.6269 130.4231,31.6269 C132.9281,31.6269 134.9661,33.6639 134.9661,36.1689 C134.9661,38.6739 132.9281,40.7109 130.4231,40.7109 M130.4231,31.6199 C127.9151,31.6199 125.8751,33.6609 125.8751,36.1689 C125.8751,38.6769 127.9151,40.7179 130.4231,40.7179 C132.9321,40.7179 134.9721,38.6769 134.9721,36.1689 C134.9721,33.6609 132.9321,31.6199 130.4231,31.6199 M130.4231,41.8949 C127.2671,41.8949 124.6981,39.3259 124.6981,36.1689 C124.6981,33.0119 127.2671,30.4449 130.4231,30.4449 C133.5801,30.4449 136.1491,33.0119 136.1491,36.1689 C136.1491,39.3259 133.5801,41.8949 130.4231,41.8949" id="Fill-61" fill="#282828"></path>
                <mask id="mask-4" fill="white">
                    <use xlink:href="#path-3"></use>
                </mask>
                <g id="Clip-64"></g>
                <polygon id="Fill-63" fill="#282828" mask="url(#mask-4)" points="86.58 41.3058 87.763 41.3058 87.763 26.8538 86.58 26.8538"></polygon>
                <path d="M87.168,40.7178 L87.175,40.7178 L87.175,27.4428 L87.168,27.4428 L87.168,40.7178 Z M85.993,41.8948 L88.352,41.8948 L88.352,26.2658 L85.993,26.2658 L85.993,41.8948 Z" id="Fill-65" fill="#282828" mask="url(#mask-4)"></path>
                <path d="M142.4934,31.0324 C139.6564,31.0324 137.3564,33.3324 137.3564,36.1694 C137.3564,39.0064 139.6564,41.3054 142.4934,41.3054 C145.3304,41.3054 147.6304,39.0064 147.6304,36.1694 C147.6304,33.3324 145.3304,31.0324 142.4934,31.0324 M142.4934,32.2154 C144.6744,32.2154 146.4474,33.9894 146.4474,36.1694 C146.4474,38.3494 144.6744,40.1234 142.4934,40.1234 C140.3134,40.1234 138.5394,38.3494 138.5394,36.1694 C138.5394,33.9894 140.3134,32.2154 142.4934,32.2154" id="Fill-66" fill="#282828" mask="url(#mask-4)"></path>
                <path d="M142.4934,32.8039 C140.6384,32.8039 139.1284,34.3139 139.1284,36.1689 C139.1284,38.0249 140.6384,39.5349 142.4934,39.5349 C144.3494,39.5349 145.8594,38.0249 145.8594,36.1689 C145.8594,34.3139 144.3494,32.8039 142.4934,32.8039 M142.4934,40.7119 C139.9894,40.7119 137.9514,38.6739 137.9514,36.1689 C137.9514,33.6639 139.9894,31.6269 142.4934,31.6269 C144.9984,31.6269 147.0354,33.6639 147.0354,36.1689 C147.0354,38.6739 144.9984,40.7119 142.4934,40.7119 M142.4934,31.6199 C139.9854,31.6199 137.9444,33.6609 137.9444,36.1689 C137.9444,38.6769 139.9854,40.7179 142.4934,40.7179 C145.0014,40.7179 147.0424,38.6769 147.0424,36.1689 C147.0424,33.6609 145.0014,31.6199 142.4934,31.6199 M142.4934,41.8949 C139.3374,41.8949 136.7684,39.3259 136.7684,36.1689 C136.7684,33.0119 139.3374,30.4449 142.4934,30.4449 C145.6504,30.4449 148.2194,33.0119 148.2194,36.1689 C148.2194,39.3259 145.6504,41.8949 142.4934,41.8949" id="Fill-67" fill="#282828" mask="url(#mask-4)"></path>
                <polygon id="Fill-68" fill="#282828" mask="url(#mask-4)" points="146.447 41.3058 147.63 41.3058 147.63 26.8538 146.447 26.8538"></polygon>
                <path d="M147.035,40.7178 L147.042,40.7178 L147.042,27.4428 L147.035,27.4428 L147.035,40.7178 Z M145.86,41.8948 L148.219,41.8948 L148.219,26.2658 L145.86,26.2658 L145.86,41.8948 Z" id="Fill-69" fill="#282828" mask="url(#mask-4)"></path>
                <polygon id="Fill-70" fill="#282828" mask="url(#mask-4)" points="93.311 41.3058 94.494 41.3058 94.494 34.9898 93.311 34.9898"></polygon>
                <path d="M93.8996,40.718 L93.9066,40.718 L93.8996,35.578 L93.8996,40.718 Z M92.7246,41.895 L95.0836,41.895 L95.0836,34.402 L92.7246,34.402 L92.7246,41.895 Z" id="Fill-71" fill="#282828" mask="url(#mask-4)"></path>
                <path d="M90.5373,31.0324 C88.3513,31.0324 86.5803,32.8034 86.5803,34.9894 L87.7633,34.9894 C87.7633,33.4604 89.0083,32.2154 90.5373,32.2154 C92.0673,32.2154 93.3113,33.4604 93.3113,34.9894 L94.4943,34.9894 C94.4943,32.8034 92.7233,31.0324 90.5373,31.0324" id="Fill-72" fill="#282828" mask="url(#mask-4)"></path>
                <path d="M93.8489,34.4016 L93.8549,34.4016 C93.5769,32.8236 92.1949,31.6206 90.5369,31.6206 C88.8799,31.6206 87.4989,32.8236 87.2199,34.4016 L87.2269,34.4016 C87.5049,32.8276 88.8839,31.6276 90.5369,31.6276 C92.1909,31.6276 93.5699,32.8276 93.8489,34.4016 L93.8489,34.4016 Z M95.0829,35.5786 L92.7239,35.5786 L92.7239,34.9896 C92.7239,33.7846 91.7429,32.8036 90.5369,32.8036 C89.3319,32.8036 88.3519,33.7846 88.3519,34.9896 L88.3519,35.5786 L85.9929,35.5786 L85.9929,34.9896 C85.9929,32.4836 88.0309,30.4446 90.5369,30.4446 C93.0439,30.4446 95.0829,32.4836 95.0829,34.9896 L95.0829,35.5786 Z" id="Fill-73" fill="#282828" mask="url(#mask-4)"></path>
                <polygon id="Fill-74" fill="#282828" mask="url(#mask-4)" points="109.102 36.1688 118.08 36.1688 118.08 34.9858 109.102 34.9858"></polygon>
                <path d="M109.6916,35.5803 L117.4916,35.5743 L109.6916,35.5803 Z M108.5156,36.7573 L118.6686,36.7573 L118.6686,34.3983 L108.5156,34.3983 L108.5156,36.7573 Z" id="Fill-75" fill="#282828" mask="url(#mask-4)"></path>
                <path d="M113.4983,31.0324 C110.6613,31.0324 108.3613,33.3324 108.3613,36.1694 L109.5443,36.1694 C109.5443,33.9894 111.3173,32.2154 113.4983,32.2154 C115.6783,32.2154 117.4523,33.9894 117.4523,36.1694 L118.6353,36.1694 C118.6353,33.3324 116.3353,31.0324 113.4983,31.0324" id="Fill-76" fill="#282828" mask="url(#mask-4)"></path>
                <path d="M118.0022,35.5813 L118.0092,35.5813 C117.7192,33.3503 115.8072,31.6203 113.4982,31.6203 C111.1892,31.6203 109.2762,33.3503 108.9872,35.5813 L108.9932,35.5813 C109.2832,33.3533 111.1922,31.6273 113.4982,31.6273 C115.8032,31.6273 117.7132,33.3533 118.0022,35.5813 L118.0022,35.5813 Z M119.2232,36.7583 L116.8632,36.7583 L116.8632,36.1693 C116.8632,34.3133 115.3542,32.8043 113.4982,32.8043 C111.6422,32.8043 110.1322,34.3133 110.1322,36.1693 L110.1322,36.7583 L107.7732,36.7583 L107.7732,36.1693 C107.7732,33.0123 110.3412,30.4443 113.4982,30.4443 C116.6542,30.4443 119.2232,33.0123 119.2232,36.1693 L119.2232,36.7583 Z" id="Fill-77" fill="#282828" mask="url(#mask-4)"></path>
                <path d="M113.4983,40.1233 C111.3173,40.1233 109.5443,38.3503 109.5443,36.1693 L108.3613,36.1693 C108.3613,39.0063 110.6613,41.3063 113.4983,41.3063 C115.3993,41.3063 117.0583,40.2723 117.9463,38.7373 L116.9203,38.1443 C116.2353,39.3263 114.9583,40.1233 113.4983,40.1233" id="Fill-78" fill="#282828" mask="url(#mask-4)"></path>
                <path d="M108.9875,36.758 C109.2765,38.988 111.1885,40.718 113.4985,40.718 C114.9185,40.718 116.2545,40.046 117.1085,38.933 L117.1015,38.929 C116.2485,40.041 114.9145,40.711 113.4985,40.711 C111.1925,40.711 109.2835,38.986 108.9935,36.758 L108.9875,36.758 Z M113.4985,41.895 C110.3415,41.895 107.7725,39.326 107.7725,36.169 L107.7725,35.581 L110.1325,35.581 L110.1325,36.169 C110.1325,38.025 111.6415,39.534 113.4985,39.534 C114.6925,39.534 115.8085,38.889 116.4115,37.85 L116.7065,37.342 L118.7505,38.522 L118.4555,39.031 C117.4335,40.798 115.5345,41.895 113.4985,41.895 L113.4985,41.895 Z" id="Fill-79" fill="#282828" mask="url(#mask-4)"></path>
                <polygon id="Fill-80" fill="#282828" mask="url(#mask-4)" points="120.43 41.3058 121.614 41.3058 121.614 31.0328 120.43 31.0328"></polygon>
                <path d="M121.02,40.7178 L121.026,40.7178 L121.026,31.6208 L121.02,31.6208 L121.02,40.7178 Z M119.843,41.8948 L122.202,41.8948 L122.202,30.4448 L119.843,30.4448 L119.843,41.8948 Z" id="Fill-81" fill="#282828" mask="url(#mask-4)"></path>
                <path d="M124.3889,32.2151 L124.3889,31.0321 C122.2039,31.0321 120.4329,32.8021 120.4309,34.9861 L121.6149,34.9861 C121.6169,33.4581 122.8599,32.2151 124.3889,32.2151" id="Fill-82" fill="#282828" mask="url(#mask-4)"></path>
                <path d="M121.0715,34.3977 L121.0785,34.3977 C121.3255,33.0167 122.4185,31.9237 123.8005,31.6787 L123.8005,31.6717 C122.4145,31.9177 121.3185,33.0127 121.0715,34.3977 L121.0715,34.3977 Z M122.2025,35.5747 L119.8425,35.5747 L119.8425,34.9857 C119.8445,32.4817 121.8835,30.4447 124.3885,30.4447 L124.9765,30.4447 L124.9765,32.8037 L124.3885,32.8037 C123.1845,32.8037 122.2045,33.7837 122.2025,34.9867 L122.2025,35.5747 Z" id="Fill-83" fill="#282828" mask="url(#mask-4)"></path>
                <polygon id="Fill-84" fill="#282828" mask="url(#mask-4)" points="161.497 41.3058 162.68 41.3058 162.68 31.1038 161.497 31.1038"></polygon>
                <path d="M162.085,40.7178 L162.092,40.7178 L162.092,31.6928 L162.085,31.6928 L162.085,40.7178 Z M160.909,41.8948 L163.268,41.8948 L163.268,30.5158 L160.909,30.5158 L160.909,41.8948 Z" id="Fill-85" fill="#282828" mask="url(#mask-4)"></path>
                <polygon id="Fill-86" fill="#282828" mask="url(#mask-4)" points="168.228 41.3058 169.411 41.3058 169.411 34.9898 168.228 34.9898"></polygon>
                <path d="M168.8166,40.718 L168.8236,40.718 L168.8166,35.578 L168.8166,40.718 Z M167.6406,41.895 L170.0006,41.895 L170.0006,34.402 L167.6406,34.402 L167.6406,41.895 Z" id="Fill-87" fill="#282828" mask="url(#mask-4)"></path>
                <path d="M168.2278,34.9865 L169.4118,34.9865 C169.4098,32.8015 167.6388,31.0325 165.4548,31.0325 L165.4548,32.2155 C166.9828,32.2155 168.2268,33.4585 168.2278,34.9865" id="Fill-88" fill="#282828" mask="url(#mask-4)"></path>
                <path d="M168.7649,34.3977 L168.7709,34.3977 C168.5249,33.0127 167.4279,31.9177 166.0419,31.6717 L166.0419,31.6787 C167.4239,31.9237 168.5179,33.0167 168.7649,34.3977 L168.7649,34.3977 Z M169.9999,35.5747 L167.6409,35.5747 L167.6399,34.9867 C167.6389,33.7837 166.6589,32.8037 165.4539,32.8037 L164.8659,32.8037 L164.8659,30.4447 L165.4539,30.4447 C167.9579,30.4447 169.9969,32.4817 169.9989,34.9857 L169.9999,35.5747 Z" id="Fill-89" fill="#282828" mask="url(#mask-4)"></path>
                <path d="M165.4543,32.2151 L165.4543,31.0321 C163.2693,31.0321 161.4993,32.8021 161.4973,34.9861 L162.6803,34.9861 C162.6823,33.4581 163.9263,32.2151 165.4543,32.2151" id="Fill-90" fill="#282828" mask="url(#mask-4)"></path>
                <path d="M162.1369,34.3977 L162.1439,34.3977 C162.3909,33.0167 163.4849,31.9237 164.8659,31.6787 L164.8659,31.6717 C163.4809,31.9177 162.3839,33.0127 162.1369,34.3977 L162.1369,34.3977 Z M163.2679,35.5747 L160.9079,35.5747 L160.9079,34.9857 C160.9099,32.4817 162.9489,30.4447 165.4539,30.4447 L166.0419,30.4447 L166.0419,32.8037 L165.4539,32.8037 C164.2499,32.8037 163.2699,33.7837 163.2689,34.9867 L163.2679,35.5747 Z" id="Fill-91" fill="#282828" mask="url(#mask-4)"></path>
                <path d="M72.1321,34.0803 C72.1321,33.0103 72.4111,32.0043 72.9001,31.1303 L71.8681,30.5343 C71.2801,31.5833 70.9441,32.7923 70.9441,34.0803 C70.9441,35.4373 71.3171,36.7083 71.9661,37.7953 L72.9971,37.1993 C72.4481,36.2873 72.1321,35.2203 72.1321,34.0803" id="Fill-92" fill="#282828" mask="url(#mask-4)"></path>
                <path d="M72.1135,31.3557 C71.7315,32.2097 71.5315,33.1397 71.5315,34.0807 C71.5315,35.0887 71.7595,36.0827 72.1955,36.9837 L72.2085,36.9767 C71.7715,36.0767 71.5445,35.0857 71.5445,34.0807 C71.5445,33.1427 71.7435,32.2137 72.1255,31.3627 L72.1135,31.3557 Z M71.7575,38.5947 L71.4605,38.0967 C70.7375,36.8847 70.3545,35.4957 70.3545,34.0807 C70.3545,32.7397 70.7005,31.4137 71.3545,30.2467 L71.6465,29.7267 L73.6965,30.9107 L73.4135,31.4167 C72.9605,32.2277 72.7205,33.1487 72.7205,34.0807 C72.7205,35.0737 72.9905,36.0467 73.5015,36.8967 L73.8095,37.4107 L71.7575,38.5947 Z" id="Fill-93" fill="#282828" mask="url(#mask-4)"></path>
                <path d="M78.2053,28.007 C80.4833,28.007 82.4723,29.269 83.5113,31.13 L84.5423,30.534 C83.2993,28.318 80.9283,26.819 78.2053,26.819 C75.4823,26.819 73.1113,28.318 71.8683,30.534 L72.8993,31.13 C73.9383,29.269 75.9273,28.007 78.2053,28.007" id="Fill-94" fill="#282828" mask="url(#mask-4)"></path>
                <path d="M72.6877,30.3283 L72.7007,30.3353 C73.9357,28.5223 75.9947,27.4193 78.2057,27.4193 C80.4167,27.4193 82.4747,28.5223 83.7097,30.3353 L83.7227,30.3283 C82.4867,28.5133 80.4217,27.4063 78.2057,27.4063 C75.9887,27.4063 73.9237,28.5133 72.6877,30.3283 L72.6877,30.3283 Z M83.2887,31.9373 L82.9977,31.4163 C82.0257,29.6763 80.1897,28.5953 78.2057,28.5953 C76.2207,28.5953 74.3847,29.6763 73.4137,31.4163 L73.1227,31.9373 L71.0707,30.7533 L71.3547,30.2463 C72.7447,27.7693 75.3697,26.2293 78.2057,26.2293 C81.0417,26.2293 83.6667,27.7693 85.0547,30.2463 L85.3387,30.7533 L83.2887,31.9373 Z" id="Fill-95" fill="#282828" mask="url(#mask-4)"></path>
                <path d="M78.2053,40.1535 C75.9963,40.1535 74.0593,38.9675 72.9973,37.1995 L71.9663,37.7955 C73.2323,39.9195 75.5533,41.3415 78.2053,41.3415 C80.8573,41.3415 83.1783,39.9195 84.4443,37.7955 L83.4133,37.1995 C82.3513,38.9675 80.4143,40.1535 78.2053,40.1535" id="Fill-96" fill="#282828" mask="url(#mask-4)"></path>
                <path d="M72.8,37.9934 C74.048,39.7094 76.068,40.7544 78.205,40.7544 C80.342,40.7544 82.363,39.7094 83.611,37.9934 L83.598,37.9854 C82.352,39.6984 80.334,40.7414 78.205,40.7414 C76.076,40.7414 74.059,39.6984 72.813,37.9854 L72.8,37.9934 Z M78.205,41.9304 C75.456,41.9304 72.871,40.4614 71.46,38.0974 L71.154,37.5844 L73.203,36.4014 L73.501,36.8964 C74.49,38.5424 76.293,39.5644 78.205,39.5644 C80.117,39.5644 81.919,38.5424 82.909,36.8964 L83.207,36.4014 L85.256,37.5844 L84.949,38.0974 C83.539,40.4614 80.954,41.9304 78.205,41.9304 L78.205,41.9304 Z" id="Fill-97" fill="#282828" mask="url(#mask-4)"></path>
                <path d="M83.3967,8.3547 L83.3967,10.4057 L84.2017,10.4057 C84.8657,9.7157 85.4407,9.0327 85.9257,8.3547 L83.3967,8.3547 Z M81.4217,19.8167 L86.0787,19.8167 L86.0787,18.1297 L81.4217,18.1297 L81.4217,19.8167 Z M81.4217,16.6927 L86.0787,16.6927 L86.0787,15.1207 L81.4217,15.1207 L81.4217,16.6927 Z M89.2427,11.9397 L85.0637,11.9397 C84.4627,12.5007 83.7667,13.0707 82.9747,13.6447 L87.7277,13.6447 L87.7277,22.1547 L86.0797,22.1547 L86.0797,21.2537 L81.4217,21.2537 L81.4217,22.1737 L79.7357,22.1737 L79.7357,15.6767 L78.1447,16.5777 L77.4547,15.0057 C79.4737,13.9837 81.1407,12.9607 82.4577,11.9397 L77.9917,11.9397 L77.9917,10.4057 L81.7487,10.4057 L81.7487,8.3547 L79.0267,8.3547 L79.0267,6.8027 L81.7487,6.8027 L81.7487,4.6947 L83.3967,4.6947 L83.3967,6.8027 L86.0417,6.8027 L86.0417,8.2017 C86.6287,7.3587 87.1597,6.4897 87.6317,5.5947 L89.1657,6.3617 C88.2457,8.0367 87.3577,9.3837 86.5007,10.4057 L89.2427,10.4057 L89.2427,11.9397 Z M78.8157,6.5917 C77.9597,7.6147 77.0907,8.5407 76.2097,9.3717 C76.6177,10.4447 76.8987,11.6207 77.0517,12.8977 C77.2057,14.1747 77.2827,15.8427 77.2827,17.8997 C77.2827,19.0117 77.2027,19.8587 77.0427,20.4397 C76.8827,21.0207 76.6267,21.4227 76.2767,21.6467 C75.9237,21.8707 75.4227,21.9827 74.7717,21.9827 C73.9787,21.9827 73.3147,21.9507 72.7787,21.8867 L72.3947,20.1807 C73.1107,20.2707 73.7167,20.3147 74.2157,20.3147 C74.5857,20.3147 74.8677,20.2447 75.0587,20.1037 C75.2507,19.9637 75.3877,19.6887 75.4707,19.2807 C75.5537,18.8717 75.5957,18.2457 75.5957,17.4017 C75.5957,16.2007 75.5637,15.2357 75.5007,14.5077 C74.7197,15.6197 73.7167,16.6927 72.4907,17.7277 L71.6477,16.0977 C72.2867,15.5997 72.9157,15.0217 73.5357,14.3637 C74.1547,13.7067 74.7137,13.0127 75.2117,12.2847 C75.1357,11.8117 74.9957,11.2497 74.7907,10.5977 C73.9597,11.2617 73.2317,11.8177 72.6057,12.2647 L71.7057,10.6937 C72.6757,10.0297 73.4807,9.4287 74.1207,8.8917 C73.6717,7.9337 73.1167,6.9307 72.4527,5.8827 L73.8127,5.0007 C74.5537,6.0997 75.0967,6.9947 75.4427,7.6847 C76.2217,6.9437 76.9177,6.2027 77.5317,5.4607 L78.8157,6.5917 Z" id="Fill-98" fill="#282828" mask="url(#mask-4)"></path>
                <path d="M158.255,16.3858 L162.203,16.3858 L162.203,14.4108 L158.255,14.4108 L158.255,16.3858 Z M158.255,12.9358 L162.203,12.9358 L162.203,11.0768 L158.255,11.0768 L158.255,12.9358 Z M152.448,16.3868 L156.473,16.3868 L156.473,14.4118 L152.448,14.4118 L152.448,16.3868 Z M152.447,12.9358 L156.472,12.9358 L156.472,11.0768 L152.447,11.0768 L152.447,12.9358 Z M154.038,7.7988 C153.515,8.3618 152.92,8.9238 152.256,9.4858 L158.044,9.4858 L158.868,8.6428 L159.712,7.7988 L154.038,7.7988 Z M149.113,21.4648 L165.712,21.4648 L165.712,19.7588 L149.113,19.7588 L149.113,21.4648 Z M150.723,10.6938 L149.534,11.4978 L148.576,9.9848 C149.841,9.1668 150.93,8.3238 151.844,7.4548 C152.757,6.5848 153.585,5.6218 154.326,4.5598 L156.204,5.0198 C155.975,5.3908 155.706,5.7808 155.4,6.1898 L162.146,6.1898 L162.146,7.6458 C161.904,7.8368 161.316,8.4518 160.383,9.4858 L163.986,9.4858 L163.986,17.9958 L150.723,17.9958 L150.723,10.6938 Z" id="Fill-99" fill="#282828" mask="url(#mask-4)"></path>
                <path d="M119.9631,12.5334 C119.9251,12.9804 119.8601,13.3704 119.7721,13.7024 L120.7691,14.4694 C122.4551,15.7604 123.5791,16.6094 124.1421,17.0184 L122.9911,18.4564 C122.5311,18.0474 121.9341,17.5394 121.1991,16.9314 C120.4651,16.3254 119.7841,15.7794 119.1581,15.2934 C118.7751,15.9204 118.2381,16.5074 117.5481,17.0564 C116.8591,17.6064 115.9511,18.1494 114.8261,18.6854 L113.9061,17.1144 C114.9671,16.6544 115.7881,16.2074 116.3691,15.7724 C116.9511,15.3384 117.3761,14.8594 117.6441,14.3354 C117.9121,13.8114 118.0851,13.1664 118.1611,12.3994 L119.9631,12.5334 Z M113.8111,19.5874 L124.2571,19.5874 L124.2571,12.6674 L126.0011,12.6674 L126.0011,22.2694 L124.2571,22.2694 L124.2571,21.3694 L112.0671,21.3694 L112.0671,12.7064 L113.8111,12.7064 L113.8111,19.5874 Z M120.1551,8.1444 L120.1551,10.1374 L127.5721,10.1374 L127.5721,11.7864 L110.2461,11.7864 L110.2461,10.1374 L113.1211,10.1374 L113.1211,5.6904 L114.8651,5.6904 L114.8651,10.1374 L118.4111,10.1374 L118.4111,4.6754 L120.1551,4.6754 L120.1551,6.5344 L126.1731,6.5344 L126.1731,8.1444 L120.1551,8.1444 Z" id="Fill-100" fill="#282828" mask="url(#mask-4)"></path>
                <path d="M119.0159,18.6213 C118.3679,18.5083 117.8279,18.1433 117.4759,17.6453 C117.4539,17.6853 117.4329,17.7283 117.4159,17.7783 C117.1459,18.5983 118.1689,19.1713 118.8789,19.3373 C119.5879,19.5033 120.4979,19.3363 120.8879,18.4883 C120.9459,18.3633 120.9709,18.2263 120.9719,18.0833 C120.4519,18.5283 119.7439,18.7473 119.0159,18.6213" id="Fill-101" fill="#FFC7C7" mask="url(#mask-4)"></path>
                <path d="M118.5989,19.1858 C118.6989,19.2208 118.7979,19.2498 118.8939,19.2728 C119.9339,19.5168 120.5849,18.9878 120.8279,18.4598 C120.8609,18.3898 120.8829,18.3128 120.8949,18.2298 C120.3559,18.6368 119.6749,18.8028 119.0039,18.6858 C118.8659,18.6628 118.7279,18.6258 118.5959,18.5788 C118.1559,18.4208 117.7749,18.1438 117.4889,17.7738 C117.4859,17.7818 117.4829,17.7898 117.4799,17.7988 C117.2639,18.4498 117.9489,18.9528 118.5989,19.1858 M120.9949,18.0208 C120.9959,18.0218 120.9969,18.0228 120.9989,18.0228 C121.0229,18.0348 121.0379,18.0578 121.0379,18.0828 C121.0369,18.2428 121.0069,18.3878 120.9489,18.5158 C120.7629,18.9188 120.4439,19.2098 120.0249,19.3558 C119.6729,19.4788 119.2599,19.4948 118.8639,19.4018 C118.7629,19.3778 118.6589,19.3478 118.5549,19.3098 C117.8479,19.0568 117.1089,18.4988 117.3539,17.7568 C117.3699,17.7058 117.3919,17.6588 117.4189,17.6128 C117.4309,17.5928 117.4519,17.5808 117.4739,17.5798 C117.4959,17.5788 117.5179,17.5888 117.5309,17.6078 C117.8069,17.9998 118.1909,18.2928 118.6409,18.4548 C118.7649,18.4988 118.8949,18.5328 119.0269,18.5558 C119.7089,18.6738 120.4029,18.4838 120.9289,18.0328 C120.9469,18.0178 120.9719,18.0128 120.9949,18.0208" id="Fill-102" fill="#231815" mask="url(#mask-4)"></path>
                <path d="M119.1643,17.7629 C118.7573,17.6929 118.4163,17.4639 118.1933,17.1519 C117.9183,17.3099 117.6283,17.3859 117.4763,17.6459 C117.8273,18.1439 118.3673,18.5079 119.0163,18.6209 C119.7433,18.7469 120.4513,18.5289 120.972306,18.0829 C120.9733,17.7739 120.8543,17.4339 120.6753,17.1179 C120.3523,17.5969 119.7693,17.8679 119.1643,17.7629" id="Fill-103" fill="#FFE2E2" mask="url(#mask-4)"></path>
                <path d="M120.9055,18.0529 C120.8995,17.8079 120.8185,17.5309 120.6675,17.2419 C120.3115,17.6989 119.7285,17.9279 119.1535,17.8279 C119.0635,17.8129 118.9755,17.7889 118.8905,17.7589 C118.6055,17.6569 118.3595,17.4779 118.1755,17.2379 C118.1185,17.2689 118.0615,17.2959 118.0075,17.3229 C117.8215,17.4129 117.6605,17.4919 117.5555,17.6439 C117.8305,18.0179 118.2045,18.2979 118.6405,18.4539 C118.7645,18.4979 118.8945,18.5319 119.0265,18.5559 C119.6985,18.6719 120.3825,18.4899 120.9055,18.0529 M120.6975,17.0569 C120.7125,17.0619 120.7245,17.0729 120.7325,17.0859 C120.9335,17.4379 121.0395,17.7829 121.038507,18.0829 C121.038507,18.1029 121.0295,18.1209 121.0145,18.1329 C120.4585,18.6099 119.7245,18.8119 119.0045,18.6859 C118.8655,18.6619 118.7275,18.6259 118.5955,18.5779 C118.1205,18.4079 117.7145,18.0989 117.4225,17.6839 C117.4075,17.6619 117.4065,17.6349 117.4195,17.6129 C117.5415,17.4039 117.7395,17.3069 117.9485,17.2039 C118.0185,17.1699 118.0915,17.1349 118.1605,17.0939 C118.1895,17.0769 118.2275,17.0849 118.2475,17.1139 C118.4205,17.3549 118.6575,17.5349 118.9345,17.6349 C119.0125,17.6619 119.0935,17.6839 119.1765,17.6979 C119.7355,17.7949 120.3015,17.5529 120.6205,17.0819 C120.6335,17.0629 120.6545,17.0519 120.6775,17.0529 C120.6845,17.0529 120.6905,17.0539 120.6975,17.0569" id="Fill-104" fill="#231815" mask="url(#mask-4)"></path>
                <path d="M120.675,17.1184 C120.256,16.3844 119.501,15.7844 119.146,16.0204 C118.714,16.3074 118.755,16.7084 118.404,17.0064 C118.337,17.0634 118.266,17.1104 118.194,17.1514 C118.416,17.4644 118.757,17.6924 119.164,17.7634 C119.77,17.8684 120.353,17.5974 120.675,17.1184" id="Fill-105" fill="#F6F6F6" mask="url(#mask-4)"></path>
                <path d="M120.5969,17.1154 C120.3069,16.6234 119.8659,16.1964 119.5129,16.0704 C119.3739,16.0204 119.2629,16.0224 119.1829,16.0754 C118.9619,16.2214 118.8739,16.3984 118.7809,16.5854 C118.7009,16.7464 118.6179,16.9124 118.4469,17.0564 C118.3999,17.0964 118.3489,17.1344 118.2899,17.1714 C118.5099,17.4484 118.8249,17.6364 119.1759,17.6974 C119.7219,17.7934 120.2749,17.5644 120.5969,17.1154 M119.5579,15.9454 L119.5579,15.9454 C119.9459,16.0844 120.4289,16.5534 120.7329,17.0864 C120.7449,17.1074 120.7439,17.1354 120.7299,17.1554 C120.3829,17.6704 119.7639,17.9344 119.1539,17.8284 C119.0639,17.8124 118.9759,17.7894 118.8909,17.7594 C118.5869,17.6504 118.3269,17.4544 118.1399,17.1904 C118.1289,17.1754 118.1249,17.1554 118.1289,17.1374 C118.1329,17.1194 118.1449,17.1034 118.1599,17.0944 C118.2389,17.0504 118.3039,17.0044 118.3619,16.9564 C118.5109,16.8284 118.5839,16.6814 118.6619,16.5254 C118.7589,16.3324 118.8599,16.1314 119.1099,15.9654 C119.2249,15.8884 119.3799,15.8824 119.5579,15.9454" id="Fill-106" fill="#231815" mask="url(#mask-4)"></path>
                <path d="M118.6213,19.1252 C118.7193,19.1602 118.8163,19.1882 118.9103,19.2112 C119.9253,19.4482 120.5583,18.9352 120.7943,18.4232 C120.8433,18.3172 120.8673,18.1962 120.868308,18.0632 C120.8693,17.7942 120.7713,17.4792 120.5863,17.1542 C120.3013,16.6552 119.8563,16.2182 119.5053,16.0932 C119.4193,16.0622 119.2993,16.0372 119.2143,16.0932 C119.0033,16.2332 118.9173,16.4042 118.8273,16.5862 C118.7443,16.7502 118.6593,16.9212 118.4823,17.0712 C118.4173,17.1272 118.3433,17.1782 118.2553,17.2292 C118.1803,17.2712 118.1053,17.3082 118.0333,17.3442 C117.8403,17.4382 117.6743,17.5202 117.5783,17.6822 C117.5583,17.7172 117.5413,17.7542 117.5283,17.7932 C117.3233,18.4142 117.9883,18.8982 118.6213,19.1252 M119.5793,15.8852 L119.5793,15.8852 C119.9823,16.0292 120.4643,16.4952 120.7773,17.0452 C120.9823,17.4032 121.0903,17.7562 121.089307,18.0642 C121.0883,18.2292 121.0573,18.3812 120.9953,18.5152 C120.5913,19.3952 119.6323,19.6062 118.8603,19.4262 C118.7583,19.4012 118.6523,19.3702 118.5463,19.3322 C117.8203,19.0732 117.0633,18.4962 117.3183,17.7252 C117.3363,17.6702 117.3593,17.6182 117.3883,17.5702 C117.5173,17.3512 117.7293,17.2462 117.9353,17.1462 C118.0053,17.1112 118.0763,17.0762 118.1453,17.0372 C118.2213,16.9932 118.2843,16.9502 118.3393,16.9032 C118.4813,16.7812 118.5543,16.6392 118.6303,16.4862 C118.7253,16.2972 118.8323,16.0822 119.0923,15.9092 C119.1813,15.8512 119.3373,15.7982 119.5793,15.8852" id="Fill-107" fill="#000000" mask="url(#mask-4)"></path>
                <path d="M121.1819,16.7815 C121.3649,17.1815 120.9309,18.2075 121.0609,18.3025 C121.1489,18.3675 121.5909,17.8555 121.5909,17.8555 L121.8419,17.4115 C121.8419,17.4115 121.1269,16.6615 121.1819,16.7815" id="Fill-108" fill="#FFFFFF" mask="url(#mask-4)"></path>
                <path d="M121.2865,16.9401 C121.3115,17.1911 121.2365,17.5251 121.1745,17.8071 C121.1385,17.9601 121.0935,18.1631 121.0995,18.2371 C121.1815,18.1961 121.3815,18.0001 121.5385,17.8181 L121.7625,17.4211 C121.5905,17.2401 121.4065,17.0541 121.2865,16.9401 L121.2865,16.9401 Z M121.0185,18.3521 C120.9385,18.2861 120.9695,18.1261 121.0485,17.7781 C121.1205,17.4571 121.2195,17.0181 121.1235,16.8081 C121.1035,16.7641 121.1225,16.7311 121.1435,16.7151 C121.1975,16.6801 121.2195,16.6641 121.8885,17.3661 L121.9215,17.4001 L121.6435,17.8931 L121.6395,17.8981 C121.1585,18.4541 121.0595,18.3821 121.0225,18.3551 C121.0215,18.3541 121.0195,18.3531 121.0185,18.3521 L121.0185,18.3521 Z" id="Fill-109" fill="#282828" mask="url(#mask-4)"></path>
                <path d="M117.7239,16.885 C117.4399,17.221 117.5779,18.326 117.4259,18.383 C117.3249,18.421 117.0379,17.808 117.0379,17.808 L116.9169,17.312 C116.9169,17.312 117.8089,16.784 117.7239,16.885" id="Fill-110" fill="#FFFFFF" mask="url(#mask-4)"></path>
                <path d="M116.991,17.343 L117.099,17.786 C117.201,18.004 117.339,18.247 117.406,18.309 C117.433,18.24 117.445,18.031 117.453,17.874 C117.469,17.587 117.488,17.244 117.58,17.009 C117.434,17.087 117.206,17.216 116.991,17.343 L116.991,17.343 Z M117.449,18.443 C117.405,18.459 117.291,18.502 116.98,17.835 L116.977,17.829 L116.844,17.281 L116.885,17.256 C117.72,16.763 117.737,16.783 117.779,16.832 C117.795,16.853 117.804,16.89 117.773,16.927 C117.624,17.103 117.599,17.553 117.581,17.881 C117.562,18.238 117.549,18.4 117.454,18.441 C117.452,18.442 117.45,18.443 117.449,18.443 L117.449,18.443 Z" id="Fill-111" fill="#282828" mask="url(#mask-4)"></path>
            </g>
        </g>
    </g>
</svg>