<svg id="图层_1" data-name="图层 1" xmlns="http://www.w3.org/2000/svg" viewBox="0 0 442 86"><defs><style>.cls-1,.cls-11{fill:#fff}.cls-1,.cls-2,.cls-5{stroke:#000}.cls-1,.cls-11{stroke-miterlimit:10}.cls-1{stroke-width:.9377px}.cls-2,.cls-5{fill:#ff5f2e;stroke-linejoin:round;stroke-width:1.5628px}.cls-5{fill:none;stroke-linecap:round}.cls-11{stroke:#fff;stroke-width:2.1883px}</style></defs><path class="cls-1" d="M75.713 69.599c3.444.779 12.72-5.773 13.683-4.907.651.586-2.648 4.895-2.648 4.895l-3.082 2.699s-8.984-2.92-7.953-2.687zM90.53 35.78c3.166 1.563 5.674 10.139 6.967 10.072.875-.045 1.025-5.47 1.025-5.47l-.696-4.037s-8.244-1.033-7.297-.565z"/><path class="cls-2" d="M62.68 9.5L47.77 5.985s-19.965 7.289-31.741 18.916c8.172 1.667 10.553 1.225 10.553 1.225z"/><path d="M3.742 45.568S36.292 10.082 62.68 9.5s34.304 24.926 36.356 30.204c-9.936 2.71-19.792 3.726-31.265.488-1.52 17.274 7.282 28.453 21.34 28.973-13.026 9.904-20.867 11.39-30.536 10.707C42.773 78.757 18.115 65.8 6.973 32.667a35.42 35.42 0 0 0-3.231 12.901z" fill="#5cc2f2"/><path d="M53.1 67.516C33.668 65.381 21.453 54.395 9.626 39.634c12.05 28 34.296 39.205 48.94 40.238 9.669.682 17.51-.803 30.535-10.707a21.54 21.54 0 0 1-13.906-5.352c-3.52 1.955-8.886 5.155-22.095 3.703z" fill="#b2e7fb" opacity=".9"/><path class="cls-5" d="M3.742 45.568S36.292 10.082 62.68 9.5 97.72 33.726 99.037 39.704c-9.02 2.646-18.421 4.166-31.265.488-1.52 17.274 7.282 28.453 21.34 28.973-13.026 9.904-20.867 11.39-30.536 10.707C42.773 78.757 18.115 65.8 6.973 32.667a35.42 35.42 0 0 0-3.231 12.901z"/><path class="cls-2" d="M59.517 44.739l-17.474-8.315a37.056 37.056 0 0 0-8.8 18.982C45.563 53.27 59.517 44.74 59.517 44.74z"/><circle cx="76.676" cy="30.43" r="5.529" stroke-linecap="round" stroke-width="1.563" stroke-linejoin="round" stroke="#000" fill="#fff"/><ellipse cx="77.361" cy="30.43" rx="2.839" ry="2.719"/><path class="cls-5" d="M40.28 39.819s3.91 3.072 7.683 3.611M36.659 44.564a52.241 52.241 0 0 0 8.325 1.685M34.54 50.145a38.723 38.723 0 0 0 9.231-.996"/><path d="M92.03 48.944a16.808 16.808 0 0 1 12.59 2.833 4.864 4.864 0 0 0 .083-1.026c-.15-6.112-8.345-7.497-13.473-6.912s-10.797 3.872-11.374 10.457a6.877 6.877 0 0 0 .408 2.902 16.826 16.826 0 0 1 11.765-8.254z" stroke="#231815" fill="#ffc7c7" stroke-linejoin="round" stroke-width=".938"/><path d="M93.081 55.021a10.658 10.658 0 0 1 7.933 1.761c1.46-1.71 3.211-2.912 3.606-5.005a16.86 16.86 0 0 0-24.357 5.42 14.232 14.232 0 0 0 4.28 5.724 10.693 10.693 0 0 1 8.538-7.9z" fill="#ffe2e2" stroke="#231815" stroke-linejoin="round" stroke-width=".938"/><path d="M84.543 62.921c4.55 3.902 11.011 6.1 12.817 3.678 2.195-2.944.97-5.516 2.598-8.345a9.783 9.783 0 0 1 1.056-1.472 10.691 10.691 0 0 0-16.471 6.14z" fill="#f6f6f6" stroke="#231815" stroke-linejoin="round" stroke-width=".938"/><path class="cls-5" d="M91.23 43.983c-5.127.585-10.797 3.872-11.374 10.456a6.876 6.876 0 0 0 .407 2.902 14.233 14.233 0 0 0 4.28 5.724c4.55 3.901 11.01 6.1 12.817 3.677 2.195-2.944.97-5.516 2.598-8.344a9.777 9.777 0 0 1 1.056-1.472c1.46-1.71 3.21-2.912 3.606-5.005a4.866 4.866 0 0 0 .082-1.027c-.148-6.112-8.344-7.496-13.472-6.911z"/><circle cx="78.156" cy="29.421" r="1.009" fill="#fff"/><path class="cls-11" d="M216.675 34.179a12.887 12.887 0 1 1-12.887 12.887 12.902 12.902 0 0 1 12.887-12.887m0-3.856a16.743 16.743 0 1 0 16.743 16.743 16.743 16.743 0 0 0-16.743-16.743zM389.864 34.18a12.887 12.887 0 1 1-12.887 12.886 12.902 12.902 0 0 1 12.887-12.887m0-3.855a16.743 16.743 0 1 0 16.743 16.742 16.743 16.743 0 0 0-16.743-16.742zM311.182 34.179a12.887 12.887 0 1 1-12.887 12.887 12.902 12.902 0 0 1 12.887-12.887m0-3.856a16.743 16.743 0 1 0 16.743 16.743 16.743 16.743 0 0 0-16.743-16.743zM168.281 16.705h3.856V63.81h-3.856zM350.523 34.18a12.887 12.887 0 1 1-12.887 12.886 12.902 12.902 0 0 1 12.887-12.887m0-3.855a16.743 16.743 0 1 0 16.743 16.742 16.743 16.743 0 0 0-16.743-16.742z"/><path class="cls-11" d="M363.411 16.705h3.856V63.81h-3.856zM190.221 43.222h3.856V63.81h-3.856zM181.18 30.324a12.898 12.898 0 0 0-12.899 12.898h3.856a9.042 9.042 0 0 1 18.084 0h3.856a12.898 12.898 0 0 0-12.898-12.898zM241.691 43.21h29.259v3.856h-29.259z"/><path class="cls-11" d="M256.016 30.323a16.743 16.743 0 0 0-16.743 16.743h3.856a12.887 12.887 0 0 1 25.774 0h3.856a16.743 16.743 0 0 0-16.743-16.743zM256.016 59.953a12.902 12.902 0 0 1-12.887-12.887h-3.856a16.741 16.741 0 0 0 31.241 8.37l-3.343-1.93a12.891 12.891 0 0 1-11.155 6.447zM278.614 30.324h3.856V63.81h-3.856z"/><path class="cls-11" d="M291.512 34.18v-3.856a12.898 12.898 0 0 0-12.898 12.887h3.856a9.052 9.052 0 0 1 9.042-9.031zM412.462 30.557h3.856V63.81h-3.856zM434.403 43.222h3.856V63.81h-3.856zM434.402 43.21h3.856a12.898 12.898 0 0 0-12.898-12.886v3.856a9.052 9.052 0 0 1 9.042 9.03z"/><path class="cls-11" d="M425.36 34.18v-3.856a12.898 12.898 0 0 0-12.898 12.887h3.856a9.052 9.052 0 0 1 9.042-9.031zM121.19 40.257a19.666 19.666 0 0 1 2.502-9.616L120.33 28.7a23.663 23.663 0 0 0 .318 23.666l3.361-1.94a19.671 19.671 0 0 1-2.819-10.169zM140.984 20.463a19.806 19.806 0 0 1 17.293 10.178l3.361-1.941a23.667 23.667 0 0 0-41.308 0l3.361 1.94a19.806 19.806 0 0 1 17.293-10.177z"/><path class="cls-11" d="M140.984 60.051a19.801 19.801 0 0 1-16.975-9.626l-3.362 1.941a23.669 23.669 0 0 0 40.674 0l-3.362-1.94a19.8 19.8 0 0 1-16.975 9.625z"/></svg>