<?xml version="1.0" encoding="UTF-8"?>
<svg xmlns="http://www.w3.org/2000/svg" xmlns:xlink="http://www.w3.org/1999/xlink" width="28px" height="28px" viewBox="0 0 28 28" version="1.1">
  <title>协作</title>
  <g id="首页" stroke="none" stroke-width="1" fill="none" fill-rule="evenodd">
    <g id="首页-菜单下拉列表-上下" transform="translate(-391.000000, -132.000000)">
      <g id="编组-5" transform="translate(358.000000, 64.000000)">
        <g id="协作" transform="translate(33.000000, 68.000000)">
          <rect id="矩形" x="0" y="0" width="28" height="28"></rect>
          <g id="1" transform="translate(0.000000, 2.800000)" fill="#326DE6" fill-rule="nonzero">
            <path d="M10.4084492,20.0375191 C10.4100522,20.0365573 10.4105331,20.0354887 10.4120827,20.0345269 C5.57139212,20.0014516 1.65643492,16.0696629 1.65643492,11.2210107 C1.65643492,8.55509308 2.84014587,6.16692028 4.71052214,4.55144534 C5.66606523,5.45583693 6.5054823,6.08539973 7.20284665,6.68521489 C5.78731976,7.69821906 4.86243798,9.34906501 4.86243798,11.2210107 C4.86243798,14.3143228 7.37963128,16.8315161 10.4729433,16.8315161 L19.2374349,16.8314453 L19.2392778,16.8308749 L22.4954548,16.830768 L22.4954548,14.4270672 L27.3578928,18.434571 L22.4954548,22.4412734 L22.4954548,20.0375726 L10.4084492,20.0375191 Z" id="形状结合" opacity="0.3"></path>
            <path d="M10.533804,20.0345269 C15.3744946,20.0014516 19.2894518,16.0696629 19.2894518,11.2210107 C19.2894518,6.62248023 15.7674437,2.85035046 11.2744441,2.44489794 L11.2744441,0 L6.46543951,4.00750383 L11.2744441,8.01420616 L11.2744441,5.69151037 C13.9861884,6.08461978 16.0834487,8.40213253 16.0834487,11.2210107 C16.0834487,14.3143228 13.5662554,16.8315161 10.4729433,16.8315161 L4.88336644e-15,16.8315161 L4.88336644e-15,20.0375191 L10.5374374,20.0375191 C10.5358344,20.0365573 10.5353535,20.0354887 10.533804,20.0345269 Z" id="路径"></path>
          </g>
        </g>
      </g>
    </g>
  </g>
</svg>
