<?xml version="1.0" encoding="UTF-8"?>
<svg xmlns="http://www.w3.org/2000/svg" xmlns:xlink="http://www.w3.org/1999/xlink" width="28px" height="28px" viewBox="0 0 28 28" version="1.1">
  <title>部署</title>
  <g id="首页" stroke="none" stroke-width="1" fill="none" fill-rule="evenodd">
    <g id="首页-菜单下拉列表-上下" transform="translate(-751.000000, -132.000000)">
      <g id="编组-5" transform="translate(358.000000, 64.000000)">
        <g id="部署" transform="translate(393.000000, 68.000000)">
          <rect id="矩形" x="0" y="0" width="28" height="28"></rect>
          <g id="1" transform="translate(3.000000, 2.000000)" fill="#326DE6">
            <path d="M11.0097778,0 L0,6.11111111 L0,18.3333333 L11.0097778,24.4444444 L22,18.3333333 L22,6.11111111 L11.0097778,0 Z M11.0097778,21.4622222 L3.11911111,17.2406667 L2.44444444,16.8788889 L2.44444444,7.71222222 L10.4377778,3.43444444 L11.0097778,3.12888889 L11.5194444,3.40144444 L19.5555556,7.71222222 L19.5555556,16.8788889 L18.8588889,17.2516667 L11.0097778,21.4622222 L11.0097778,21.4622222 Z" id="形状"></path>
            <path d="M19.5555556,16.4303333 L16.4535556,14.6886667 L16.4535556,15.3951111 L16.0135556,15.6542222 L18.8613333,17.2516667 L19.5555556,16.8788889 L19.5555556,16.4303333 Z M5.54644444,15.3951111 L5.54644444,14.6666667 L2.44444444,16.4058889 L2.44444444,16.8776667 L3.11911111,17.2321111 L5.97055556,15.631 L5.54644444,15.3951111 Z M10.9792222,6.00477778 L11.5194444,6.30055556 L11.5194444,3.40144444 L11.0097778,3.12888889 L10.439,3.43444444 L10.439,6.303 L10.9792222,6.00477778 Z" id="形状" opacity="0.3"></path>
            <polygon id="路径" opacity="0.8" points="11.5194444 6.30055556 10.9792222 6.00477778 10.439 6.303 6.29566667 8.60077778 11.0378889 11.2004444 15.7312222 8.602"></polygon>
            <polygon id="路径" opacity="0.6" points="5.54644444 9.78388889 5.54644444 15.3938889 5.97055556 15.6383333 10.1041111 18.0192222 10.1041111 12.4092222"></polygon>
            <polygon id="路径" opacity="0.3" points="11.9826667 12.4055556 11.9826667 18.0192222 16.0135556 15.6542222 16.4535556 15.3951111 16.4535556 9.78511111"></polygon>
          </g>
        </g>
      </g>
    </g>
  </g>
</svg>
