<?xml version="1.0" encoding="UTF-8"?>
<svg xmlns="http://www.w3.org/2000/svg" xmlns:xlink="http://www.w3.org/1999/xlink" width="28px" height="28px" viewBox="0 0 28 28" version="1.1">
  <title>开发</title>
  <g id="首页" stroke="none" stroke-width="1" fill="none" fill-rule="evenodd">
    <g id="首页-菜单下拉列表-上下" transform="translate(-637.000000, -132.000000)">
      <g id="编组-5" transform="translate(358.000000, 64.000000)">
        <g id="开发" transform="translate(279.000000, 68.000000)">
          <rect id="矩形" x="0" y="0" width="28" height="28"></rect>
          <g id="1备份" transform="translate(2.800000, 3.733333)" fill="#326DE6">
            <path d="M22.2448029,12.1840852 L19.2184986,13.697743 L19.2184986,15.2114007 L22.2448029,12.1840852 Z M19.2184986,5.58749005 L19.2184986,7.10114778 L22.2448029,8.6148055 L19.2184986,5.58749005 Z" id="形状"></path>
            <path d="M15.8140326,18.6097999 L22.2377251,12.1840852 L22.2377251,16.4641876 L17.9525671,20.7513678 L15.8140326,18.6097999 Z M15.8140326,2.18201294 L22.2448029,8.6148055 L22.2448029,4.3276253 L17.9556005,0.0384228414 L15.8140326,2.18201294 Z" id="形状"></path>
            <polygon id="路径" opacity="0.3" points="22.2448029 8.6148055 19.2184986 7.10114778 19.2184986 13.697743 22.2448029 12.1840852"></polygon>
            <path d="M0,8.60469423 L3.02630433,7.0910365 L3.02630433,5.57737877 L0,8.60469423 Z M3.02630433,15.2012894 L3.02630433,13.6876317 L0,12.173974 L3.02630433,15.2012894 Z" id="形状"></path>
            <path d="M6.43077031,2.17897956 L0.00808901925,8.60469423 L0.00808901925,4.32459192 L4.29223584,0.037411714 L6.43077031,2.17897956 Z M6.43077031,18.6067665 L0,12.173974 L0,16.4611542 L4.28920246,20.7503566 L6.43077031,18.6067665 Z" id="形状"></path>
            <path d="M6.57333927,8.87163186 C7.41321836,8.87163186 8.09407489,9.55248839 8.09407489,10.3923675 C8.09407489,11.2322466 7.41321836,11.9131031 6.57333927,11.9131031 C5.73346018,11.9131031 5.05260365,11.2322466 5.05260365,10.3923675 C5.05260365,9.55248839 5.73346018,8.87163186 6.57333927,8.87163186 Z M11.1213903,8.87163186 C11.9612694,8.87163186 12.642126,9.55248839 12.642126,10.3923675 C12.642126,11.2322466 11.9612694,11.9131031 11.1213903,11.9131031 C10.2815113,11.9131031 9.60065472,11.2322466 9.60065472,10.3923675 C9.60065472,9.55248839 10.2815113,8.87163186 11.1213903,8.87163186 Z M15.6694414,8.87163186 C16.5093205,8.87163186 17.190177,9.55248839 17.190177,10.3923675 C17.190177,11.2322466 16.5093205,11.9131031 15.6694414,11.9131031 C14.8295623,11.9131031 14.1487058,11.2322466 14.1487058,10.3923675 C14.1487058,9.55248839 14.8295623,8.87163186 15.6694414,8.87163186 Z" id="形状结合" opacity="0.6"></path>
            <polygon id="路径" opacity="0.3" points="0 12.173974 3.02630433 13.6876317 3.02630433 7.0910365 0 8.60469423"></polygon>
          </g>
        </g>
      </g>
    </g>
  </g>
</svg>
