<?xml version="1.0" encoding="UTF-8"?>
<svg width="60px" height="60px" viewBox="0 0 60 60" version="1.1" xmlns="http://www.w3.org/2000/svg" xmlns:xlink="http://www.w3.org/1999/xlink">
    <!-- Generator: Sketch 47 (45396) - http://www.bohemiancoding.com/sketch -->
    <title>application-icon</title>
    <desc>Created with Sketch.</desc>
    <defs></defs>
    <g id="产品模块" stroke="none" stroke-width="1" fill="none" fill-rule="evenodd">
        <g transform="translate(-220.000000, -1396.000000)" id="application-icon">
            <g transform="translate(220.000000, 1396.000000)">
                <path d="M60,30 C60,46.5684545 46.5684545,60 30,60 C13.4315455,60 0,46.5684545 0,30 C0,13.4315455 13.4315455,0 30,0 C46.5684545,0 60,13.4315455 60,30 Z" id="Fill-1" fill="#4292E8"></path>
                <path d="M33.6849,25.6363091 L38.4606273,25.6363091 L40.8486273,21.5004 L38.4606273,17.3644909 L33.6849,17.3644909 L31.2971727,21.5004 L33.6849,25.6363091 Z M40.6650818,29.4544909 L31.4804455,29.4544909 L26.8882636,21.5004 L31.4804455,13.5463091 L40.6650818,13.5463091 L45.2575364,21.5004 L40.6650818,29.4544909 Z" id="Fill-5" fill="#FFFFFF"></path>
                <path d="M18.8117727,34.1359091 L23.5875,34.1359091 L25.9755,30 L23.5875,25.8640909 L18.8117727,25.8640909 L16.4240455,30 L18.8117727,34.1359091 Z M25.7919545,37.9540909 L16.6073182,37.9540909 L12.0151364,30 L16.6073182,22.0459091 L25.7919545,22.0459091 L30.3844091,30 L25.7919545,37.9540909 Z" id="Fill-7" fill="#FFFFFF"></path>
                <path d="M33.6849,42.6355364 L38.4606273,42.6355364 L40.8486273,38.4996273 L38.4606273,34.3637182 L33.6849,34.3637182 L31.2971727,38.4996273 L33.6849,42.6355364 Z M40.6650818,46.4537182 L31.4804455,46.4537182 L26.8882636,38.4996273 L31.4804455,30.5455364 L40.6650818,30.5455364 L45.2575364,38.4996273 L40.6650818,46.4537182 Z" id="Fill-9" fill="#FFFFFF"></path>
            </g>
        </g>
    </g>
</svg>