<?xml version="1.0" encoding="UTF-8"?>
<svg width="142px" height="140px" viewBox="0 0 142 140" version="1.1" xmlns="http://www.w3.org/2000/svg" xmlns:xlink="http://www.w3.org/1999/xlink">
    <!-- Generator: Sketch 47 (45396) - http://www.bohemiancoding.com/sketch -->
    <title>Group 25</title>
    <desc>Created with Sketch.</desc>
    <defs>
        <rect id="path-1" x="0" y="0" width="62" height="128" rx="5"></rect>
        <filter x="-16.1%" y="-6.2%" width="132.3%" height="115.6%" filterUnits="objectBoundingBox" id="filter-2">
            <feOffset dx="0" dy="2" in="SourceAlpha" result="shadowOffsetOuter1"></feOffset>
            <feGaussianBlur stdDeviation="3" in="shadowOffsetOuter1" result="shadowBlurOuter1"></feGaussianBlur>
            <feColorMatrix values="0 0 0 0 0   0 0 0 0 0   0 0 0 0 0  0 0 0 0.16 0" type="matrix" in="shadowBlurOuter1"></feColorMatrix>
        </filter>
    </defs>
    <g id="产品模块" stroke="none" stroke-width="1" fill="none" fill-rule="evenodd">
        <g id="产品模块-1" transform="translate(-772.000000, -2159.000000)">
            <g id="Group-25" transform="translate(778.000000, 2163.000000)">
                <g id="Rectangle-4-Copy-15">
                    <use fill="black" fill-opacity="1" filter="url(#filter-2)" xlink:href="#path-1"></use>
                    <use fill="#FFFFFF" fill-rule="evenodd" xlink:href="#path-1"></use>
                </g>
                <g id="Group-11-Copy-3" transform="translate(13.000000, 5.000000)">
                    <path d="M12.7979506,11.2960892 L29.1037919,5.20489984 L29.1037919,5.20489984 C29.621157,5.01163361 30.1972375,5.27436762 30.3905037,5.79173268 C30.4803526,6.03225409 30.4742447,6.29811996 30.3734452,6.53426152 L23.673137,22.2309839 L23.673137,22.2309839 C23.5719366,22.4680648 23.3830933,22.656908 23.1460125,22.7581084 L7.44929007,29.4584167 L7.44929007,29.4584167 C6.94134613,29.6752378 6.35380796,29.4392361 6.13698684,28.9312922 C6.03618737,28.6951506 6.03007952,28.4292848 6.11992839,28.1887634 L12.2111177,11.882922 L12.2111177,11.882922 C12.3124933,11.611544 12.5265726,11.3974648 12.7979506,11.2960892 Z" id="Rectangle-7" fill="#9BBBF8" transform="translate(18.256175, 17.341139) rotate(45.000000) translate(-18.256175, -17.341139) "></path>
                    <path d="M4.15320887,20.7452744 L21.0948778,20.7452744 L21.0948778,20.7452744 C21.6471625,20.7452744 22.0948778,21.1929896 22.0948778,21.7452744 C22.0948778,21.8721197 22.0707451,21.9978069 22.023767,22.1156321 L15.8505649,37.5985568 L15.8505649,37.5985568 C15.6989737,37.9787607 15.330986,38.2281991 14.9216757,38.2281991 L-1.85070877,38.2281991 L-1.85070877,38.2281991 C-2.40299352,38.2281991 -2.85070877,37.7804838 -2.85070877,37.2281991 C-2.85070877,37.104538 -2.82777237,36.9819496 -2.78306329,36.8666537 L3.22085435,21.383729 L3.22085435,21.383729 C3.37008822,20.9988842 3.74044222,20.7452744 4.15320887,20.7452744 Z" id="Rectangle-7-Copy" fill="#81A4E8" transform="translate(9.622258, 29.486737) rotate(90.000000) translate(-9.622258, -29.486737) "></path>
                    <path d="M20.9394288,20.9002217 L37.8763125,20.9002217 L37.8763125,20.9002217 C38.4285973,20.9002217 38.8763125,21.347937 38.8763125,21.9002217 C38.8763125,22.0288897 38.8514815,22.1563485 38.8031814,22.2756069 L32.6800878,37.3942263 L32.6800878,37.3942263 C32.5271803,37.7717722 32.1605537,38.0188411 31.7532188,38.0188411 L14.9851542,38.0188411 L14.9851542,38.0188411 C14.4328695,38.0188411 13.9851542,37.5711259 13.9851542,37.0188411 C13.9851542,36.8934123 14.008751,36.769103 14.0547134,36.6523989 L20.008988,21.5337795 L20.008988,21.5337795 C20.1595397,21.1515107 20.5285819,20.9002217 20.9394288,20.9002217 Z" id="Rectangle-7-Copy-2" fill="#6694EF" transform="translate(26.430911, 29.459531) scale(-1, 1) rotate(90.000000) translate(-26.430911, -29.459531) "></path>
                </g>
                <polygon id="Fill-45-Copy-5" fill="#9B9B9B" transform="translate(31.000000, 66.125308) rotate(90.000000) translate(-31.000000, -66.125308) " points="39.1251185 63.1253081 39.1251185 65.3751659 19.8746919 65.3751659 19.8746919 66.8754502 39.1251185 66.8754502 39.1251185 69.1253081 42.1253081 66.1254976"></polygon>
                <g id="Group-13" transform="translate(17.000000, 86.000000)">
                    <g id="Group-12" transform="translate(0.000000, 16.604651)">
                        <path d="M14.2325581,17.0923541 C22.092983,17.0923541 28.4651163,14.2602948 28.4651163,10.7667727 C28.4651163,9.50104043 28.4651163,8.02064333 28.4651163,6.3255814 L0,6.3255814 C0,6.95736083 0,8.43775793 0,10.7667727 C0,14.2602948 6.37213333,17.0923541 14.2325581,17.0923541 Z" id="Oval-4-Copy" fill="#B7B7B7"></path>
                        <ellipse id="Oval-4" fill="#ECECEC" cx="14.2325581" cy="6.3255814" rx="14.2325581" ry="6.3255814"></ellipse>
                    </g>
                    <g id="Group-12-Copy" transform="translate(0.000000, 8.697674)">
                        <path d="M14.2325581,17.0923541 C22.092983,17.0923541 28.4651163,14.2602948 28.4651163,10.7667727 C28.4651163,9.50104043 28.4651163,8.02064333 28.4651163,6.3255814 L0,6.3255814 C0,6.95736083 0,8.43775793 0,10.7667727 C0,14.2602948 6.37213333,17.0923541 14.2325581,17.0923541 Z" id="Oval-4-Copy" fill="#B7B7B7"></path>
                        <ellipse id="Oval-4" fill="#ECECEC" cx="14.2325581" cy="6.3255814" rx="14.2325581" ry="6.3255814"></ellipse>
                    </g>
                    <g id="Group-12-Copy-2">
                        <path d="M14.2325581,17.0923541 C22.092983,17.0923541 28.4651163,14.2602948 28.4651163,10.7667727 C28.4651163,9.50104043 28.4651163,8.02064333 28.4651163,6.3255814 L0,6.3255814 C0,6.95736083 0,8.43775793 0,10.7667727 C0,14.2602948 6.37213333,17.0923541 14.2325581,17.0923541 Z" id="Oval-4-Copy" fill="#B7B7B7"></path>
                        <ellipse id="Oval-4" fill="#ECECEC" cx="14.2325581" cy="6.3255814" rx="14.2325581" ry="6.3255814"></ellipse>
                    </g>
                </g>
                <rect id="Rectangle-4-Copy-17" fill="#FFFFFF" x="74" y="0" width="62" height="128" rx="5"></rect>
                <polygon id="Fill-45-Copy-5" fill="#9B9B9B" transform="translate(104.000000, 66.125308) rotate(90.000000) translate(-104.000000, -66.125308) " points="112.125118 63.1253081 112.125118 65.3751659 92.8746919 65.3751659 92.8746919 66.8754502 112.125118 66.8754502 112.125118 69.1253081 115.125308 66.1254976"></polygon>
                <g id="Group-13" transform="translate(90.000000, 86.000000)">
                    <g id="Group-12" transform="translate(0.000000, 16.604651)">
                        <path d="M14.2325581,17.0923541 C22.092983,17.0923541 28.4651163,14.2602948 28.4651163,10.7667727 C28.4651163,9.50104043 28.4651163,8.02064333 28.4651163,6.3255814 L0,6.3255814 C0,6.95736083 0,8.43775793 0,10.7667727 C0,14.2602948 6.37213333,17.0923541 14.2325581,17.0923541 Z" id="Oval-4-Copy" fill="#B7B7B7"></path>
                        <ellipse id="Oval-4" fill="#ECECEC" cx="14.2325581" cy="6.3255814" rx="14.2325581" ry="6.3255814"></ellipse>
                    </g>
                    <g id="Group-12-Copy" transform="translate(0.000000, 8.697674)">
                        <path d="M14.2325581,17.0923541 C22.092983,17.0923541 28.4651163,14.2602948 28.4651163,10.7667727 C28.4651163,9.50104043 28.4651163,8.02064333 28.4651163,6.3255814 L0,6.3255814 C0,6.95736083 0,8.43775793 0,10.7667727 C0,14.2602948 6.37213333,17.0923541 14.2325581,17.0923541 Z" id="Oval-4-Copy" fill="#B7B7B7"></path>
                        <ellipse id="Oval-4" fill="#ECECEC" cx="14.2325581" cy="6.3255814" rx="14.2325581" ry="6.3255814"></ellipse>
                    </g>
                    <g id="Group-12-Copy-2">
                        <path d="M14.2325581,17.0923541 C22.092983,17.0923541 28.4651163,14.2602948 28.4651163,10.7667727 C28.4651163,9.50104043 28.4651163,8.02064333 28.4651163,6.3255814 L0,6.3255814 C0,6.95736083 0,8.43775793 0,10.7667727 C0,14.2602948 6.37213333,17.0923541 14.2325581,17.0923541 Z" id="Oval-4-Copy" fill="#B7B7B7"></path>
                        <ellipse id="Oval-4" fill="#ECECEC" cx="14.2325581" cy="6.3255814" rx="14.2325581" ry="6.3255814"></ellipse>
                    </g>
                </g>
                <path d="M95.244875,21.2305625 C92.9539375,21.2305625 91.0901875,23.0943125 91.0901875,25.38525 C91.0901875,27.6761875 92.9539375,29.5399375 95.244875,29.5399375 C95.826,29.5399375 96.379375,29.4195625 96.8820625,29.2031875 C97.7511875,28.829 98.4678125,28.166625 98.91125,27.3369375 C99.2225,26.754625 99.3995625,26.0903125 99.3995625,25.38525 C99.3995625,23.094375 97.5358125,21.2305625 95.244875,21.2305625 Z" id="Shape" fill="#E2E2E2" fill-rule="nonzero"></path>
                <path d="M114.755125,21.2305625 C112.464188,21.2305625 110.600437,23.0943125 110.600437,25.38525 C110.600437,26.090375 110.7775,26.7546875 111.08875,27.3369375 C111.532187,28.1666875 112.248812,28.8290625 113.117937,29.2031875 C113.620625,29.4195625 114.174,29.5399375 114.755125,29.5399375 C117.046063,29.5399375 118.909812,27.6761875 118.909812,25.38525 C118.909813,23.0943125 117.046063,21.2305625 114.755125,21.2305625 Z" id="Shape" fill="#E2E2E2" fill-rule="nonzero"></path>
                <path d="M116.380625,30.7075 L113.905875,30.7075 C114.158125,31.398125 114.295938,32.1434375 114.295938,32.92025 L114.295938,42.273375 C114.295938,42.59725 114.239563,42.908125 114.137,43.19725 L118.228313,43.19725 C119.756625,43.19725 120.999938,41.953875 120.999938,40.425625 L120.999938,35.3268125 C121,32.77975 118.92775,30.7075 116.380625,30.7075 Z" id="Shape" fill="#E2E2E2" fill-rule="nonzero"></path>
                <path d="M95.7040625,32.9203125 C95.7040625,32.1434375 95.841875,31.3981875 96.094125,30.7075625 L93.619375,30.7075625 C91.07225,30.7075625 89,32.7798125 89,35.3269375 L89,40.42575 C89,41.954 90.2433125,43.197375 91.771625,43.197375 L95.863,43.197375 C95.7604375,42.908125 95.7040625,42.5973125 95.7040625,42.2734375 L95.7040625,32.9203125 Z" id="Shape" fill="#E2E2E2" fill-rule="nonzero"></path>
                <path d="M107.828812,28.3009375 L102.171187,28.3009375 C99.6240625,28.3009375 97.5518125,30.3731875 97.5518125,32.9203125 L97.5518125,42.2734375 C97.5518125,42.783625 97.9654375,43.1973125 98.4756875,43.1973125 L111.524312,43.1973125 C112.034562,43.1973125 112.448187,42.7836875 112.448187,42.2734375 L112.448187,32.9203125 C112.448187,30.3731875 110.375937,28.3009375 107.828812,28.3009375 Z" id="Shape" fill="#E2E2E2" fill-rule="nonzero"></path>
                <path d="M105,16.0525 C101.93675,16.0525 99.444625,18.544625 99.444625,21.6079375 C99.444625,23.68575 100.591437,25.5004375 102.285062,26.4531875 C103.088375,26.9050625 104.0145,27.1633125 105,27.1633125 C105.9855,27.1633125 106.911625,26.9050625 107.714937,26.4531875 C109.408625,25.5004375 110.555375,23.6856875 110.555375,21.6079375 C110.555375,18.5446875 108.06325,16.0525 105,16.0525 Z" id="Shape" fill="#E2E2E2" fill-rule="nonzero"></path>
            </g>
        </g>
    </g>
</svg>