<?xml version="1.0" encoding="UTF-8"?>
<svg width="146px" height="148px" viewBox="0 0 146 148" version="1.1" xmlns="http://www.w3.org/2000/svg" xmlns:xlink="http://www.w3.org/1999/xlink">
    <!-- Generator: Sketch 47 (45396) - http://www.bohemiancoding.com/sketch -->
    <title>application-4</title>
    <desc>Created with Sketch.</desc>
    <defs>
        <rect id="path-1" x="0" y="96" width="40" height="40" rx="5"></rect>
        <filter x="-25.0%" y="-20.0%" width="150.0%" height="150.0%" filterUnits="objectBoundingBox" id="filter-2">
            <feOffset dx="0" dy="2" in="SourceAlpha" result="shadowOffsetOuter1"></feOffset>
            <feGaussianBlur stdDeviation="3" in="shadowOffsetOuter1" result="shadowBlurOuter1"></feGaussianBlur>
            <feColorMatrix values="0 0 0 0 0   0 0 0 0 0   0 0 0 0 0  0 0 0 0.16 0" type="matrix" in="shadowBlurOuter1"></feColorMatrix>
        </filter>
        <rect id="path-3" x="0" y="48" width="40" height="40" rx="5"></rect>
        <filter x="-25.0%" y="-20.0%" width="150.0%" height="150.0%" filterUnits="objectBoundingBox" id="filter-4">
            <feOffset dx="0" dy="2" in="SourceAlpha" result="shadowOffsetOuter1"></feOffset>
            <feGaussianBlur stdDeviation="3" in="shadowOffsetOuter1" result="shadowBlurOuter1"></feGaussianBlur>
            <feColorMatrix values="0 0 0 0 0   0 0 0 0 0   0 0 0 0 0  0 0 0 0.16 0" type="matrix" in="shadowBlurOuter1"></feColorMatrix>
        </filter>
        <rect id="path-5" x="0" y="0" width="40" height="40" rx="5"></rect>
        <filter x="-25.0%" y="-20.0%" width="150.0%" height="150.0%" filterUnits="objectBoundingBox" id="filter-6">
            <feOffset dx="0" dy="2" in="SourceAlpha" result="shadowOffsetOuter1"></feOffset>
            <feGaussianBlur stdDeviation="3" in="shadowOffsetOuter1" result="shadowBlurOuter1"></feGaussianBlur>
            <feColorMatrix values="0 0 0 0 0   0 0 0 0 0   0 0 0 0 0  0 0 0 0.16 0" type="matrix" in="shadowBlurOuter1"></feColorMatrix>
        </filter>
    </defs>
    <g id="产品模块" stroke="none" stroke-width="1" fill="none" fill-rule="evenodd">
        <g transform="translate(-1026.000000, -1614.000000)" id="application-4">
            <g transform="translate(1032.000000, 1618.000000)">
                <rect id="Rectangle-4-Copy-15" fill-opacity="0.6" fill="#FFFFFF" x="100" y="48" width="40" height="40" rx="5"></rect>
                <rect id="Rectangle-4-Copy-32" fill="#FFFFFF" x="50" y="48" width="40" height="40" rx="5"></rect>
                <path d="M76.8570918,67.5716327 L75.5713469,67.5716327 L75.5713469,64.1429796 C75.5713469,63.2001 74.7999,62.4286531 73.8570204,62.4286531 L70.4283673,62.4286531 L70.4283673,61.1429082 C70.4283673,59.9600229 69.4683445,59 68.2854592,59 C67.1025739,59 66.142551,59.9600229 66.142551,61.1429082 L66.142551,62.4286531 L62.7143265,62.4286531 C61.7714469,62.4286531 61.0085716,63.2001 61.0085716,64.1429796 L61.0085716,67.3997714 L62.2857449,67.3997714 C63.5624896,67.3997714 64.5996571,68.4373676 64.5996571,69.7145408 C64.5996571,70.9917141 63.5624896,72.0284531 62.2857449,72.0284531 L61,72.0284531 L61,75.2856735 C61,76.2289816 61.7710184,77 62.7143265,77 L65.9711184,77 L65.9711184,75.7142551 C65.9711184,74.4370818 67.0082859,73.3999143 68.2854592,73.3999143 C69.5626324,73.3999143 70.5998,74.4370818 70.5998,75.7142551 L70.5998,77 L73.8570204,77 C74.7999,77 75.5713469,76.2289816 75.5713469,75.2856735 L75.5713469,71.857449 L76.8570918,71.857449 C78.0399771,71.857449 79,70.8974261 79,69.7145408 C79,68.5316555 78.0399771,67.5716327 76.8570918,67.5716327" id="Fill-152" fill="#E2E2E2"></path>
                <g id="Rectangle-4-Copy-35">
                    <use fill="black" fill-opacity="1" filter="url(#filter-2)" xlink:href="#path-1"></use>
                    <use fill="#FFFFFF" fill-rule="evenodd" xlink:href="#path-1"></use>
                </g>
                <g id="Group-11-Copy-2" transform="translate(8.000000, 99.000000)">
                    <path d="M8.75757396,7.51345251 L19.3509523,3.5562036 L19.3509523,3.5562036 C19.8683173,3.36293736 20.4443978,3.62567137 20.637664,4.14303644 C20.7275129,4.38355785 20.7214051,4.64942372 20.6206056,4.88556528 L16.2676318,15.0832187 L16.2676318,15.0832187 C16.1664314,15.3202995 15.9775882,15.5091428 15.7405073,15.6103432 L5.54285389,19.963317 L5.54285389,19.963317 C5.03490995,20.1801381 4.44737178,19.9441364 4.23055065,19.4361925 C4.12975119,19.2000509 4.12364333,18.9341851 4.2134922,18.6936637 L8.17074112,8.10028535 L8.17074112,8.10028535 C8.27211673,7.82890737 8.48619597,7.61482813 8.75757396,7.51345251 Z" id="Rectangle-7" fill="#BCF5FB" transform="translate(12.425578, 11.768282) rotate(45.000000) translate(-12.425578, -11.768282) "></path>
                    <path d="M2.79011671,14.1607214 L13.9640613,14.1607214 L13.9640613,14.1607214 C14.5163461,14.1607214 14.9640613,14.6084366 14.9640613,15.1607214 C14.9640613,15.2875667 14.9399287,15.4132539 14.8929505,15.5310791 L10.8245144,25.7350687 L10.8245144,25.7350687 C10.6729232,26.1152726 10.3049355,26.364711 9.89562522,26.364711 L-1.16675285,26.364711 L-1.16675285,26.364711 C-1.7190376,26.364711 -2.16675285,25.9169957 -2.16675285,25.364711 C-2.16675285,25.24105 -2.14381644,25.1184615 -2.09910737,25.0031656 L1.85776219,14.799176 L1.85776219,14.799176 C2.00699606,14.4143312 2.37735007,14.1607214 2.79011671,14.1607214 Z" id="Rectangle-7-Copy" fill="#A8DFE4" transform="translate(6.398654, 20.262716) rotate(90.000000) translate(-6.398654, -20.262716) "></path>
                    <path d="M14.5066658,14.2688233 L25.6758252,14.2688233 L25.6758252,14.2688233 C26.2281099,14.2688233 26.6758252,14.7165385 26.6758252,15.2688233 C26.6758252,15.3974912 26.6509941,15.5249501 26.6026941,15.6442084 L22.5730367,25.593894 L22.5730367,25.593894 C22.4201292,25.97144 22.0535025,26.2185089 21.6461677,26.2185089 L10.5881095,26.2185089 L10.5881095,26.2185089 C10.0358248,26.2185089 9.58810953,25.7707936 9.58810953,25.2185089 C9.58810953,25.0930801 9.6117063,24.9687708 9.65766872,24.8520667 L13.576225,14.9023811 L13.576225,14.9023811 C13.7267766,14.5201123 14.0958188,14.2688233 14.5066658,14.2688233 Z" id="Rectangle-7-Copy-2" fill="#9BE8EF" transform="translate(18.131967, 20.243666) scale(-1, 1) rotate(90.000000) translate(-18.131967, -20.243666) "></path>
                </g>
                <rect id="Rectangle-4-Copy-31" fill-opacity="0.6" fill="#FFFFFF" x="100" y="0" width="40" height="40" rx="5"></rect>
                <g id="Rectangle-4-Copy-33">
                    <use fill="black" fill-opacity="1" filter="url(#filter-4)" xlink:href="#path-3"></use>
                    <use fill="#FFFFFF" fill-rule="evenodd" xlink:href="#path-3"></use>
                </g>
                <g id="Group-11-Copy" transform="translate(8.000000, 51.000000)">
                    <path d="M8.36027862,7.71613242 L18.6315537,3.87920797 L18.6315537,3.87920797 C19.1489188,3.68594174 19.7249993,3.94867575 19.9182655,4.46604081 C20.0081144,4.70656222 20.0020065,4.97242809 19.901207,5.20856965 L15.6805902,15.0961523 L15.6805902,15.0961523 C15.5793897,15.3332332 15.3905465,15.5220764 15.1534657,15.6232768 L5.26588302,19.8438937 L5.26588302,19.8438937 C4.75793908,20.0607148 4.17040091,19.8247131 3.95357978,19.3167692 C3.85278032,19.0806276 3.84667246,18.8147618 3.93652133,18.5742404 L7.77344578,8.30296526 L7.77344578,8.30296526 C7.87482139,8.03158727 8.08890064,7.81750803 8.36027862,7.71613242 Z" id="Rectangle-7" fill="#F9F5C2" transform="translate(11.927393, 11.870073) rotate(45.000000) translate(-11.927393, -11.870073) "></path>
                    <path d="M2.54382713,14.2053997 L13.3925526,14.2053997 L13.3925526,14.2053997 C13.9448373,14.2053997 14.3925526,14.6531149 14.3925526,15.2053997 C14.3925526,15.332245 14.3684199,15.4579322 14.3214418,15.5757574 L10.3716851,25.4820888 L10.3716851,25.4820888 C10.2200939,25.8622926 9.85210616,26.111731 9.4427959,26.111731 L-1.29761747,26.111731 L-1.29761747,26.111731 C-1.84990222,26.111731 -2.29761747,25.6640158 -2.29761747,25.111731 C-2.29761747,24.98807 -2.27468106,24.8654816 -2.22997199,24.7501857 L1.61147262,14.8438543 L1.61147262,14.8438543 C1.76070649,14.4590095 2.13106049,14.2053997 2.54382713,14.2053997 Z" id="Rectangle-7-Copy" fill="#EDE9B2" transform="translate(6.047468, 20.158565) rotate(90.000000) translate(-6.047468, -20.158565) "></path>
                    <path d="M13.9745173,14.3108604 L24.8184575,14.3108604 L24.8184575,14.3108604 C25.3707422,14.3108604 25.8184575,14.7585757 25.8184575,15.3108604 C25.8184575,15.4395284 25.7936264,15.5669872 25.7453264,15.6862456 L21.8337095,25.3444754 L21.8337095,25.3444754 C21.6808021,25.7220214 21.3141754,25.9690903 20.9068406,25.9690903 L10.1707471,25.9690903 L10.1707471,25.9690903 C9.61846237,25.9690903 9.17074712,25.521375 9.17074712,24.9690903 C9.17074712,24.8436615 9.19434389,24.7193522 9.2403063,24.6026481 L13.0440764,14.9444182 L13.0440764,14.9444182 C13.1946281,14.5621494 13.5636703,14.3108604 13.9745173,14.3108604 Z" id="Rectangle-7-Copy-2" fill="#F8F1A1" transform="translate(17.494602, 20.139975) scale(-1, 1) rotate(90.000000) translate(-17.494602, -20.139975) "></path>
                </g>
                <rect id="Rectangle-4-Copy-36" fill="#FFFFFF" x="50" y="96" width="40" height="40" rx="5"></rect>
                <g id="Rectangle-4-Copy-17">
                    <use fill="black" fill-opacity="1" filter="url(#filter-6)" xlink:href="#path-5"></use>
                    <use fill="#FFFFFF" fill-rule="evenodd" xlink:href="#path-5"></use>
                </g>
                <g id="Group-11" transform="translate(8.000000, 3.000000)">
                    <path d="M8.36027862,7.71613242 L18.6315537,3.87920797 L18.6315537,3.87920797 C19.1489188,3.68594174 19.7249993,3.94867575 19.9182655,4.46604081 C20.0081144,4.70656222 20.0020065,4.97242809 19.901207,5.20856965 L15.6805902,15.0961523 L15.6805902,15.0961523 C15.5793897,15.3332332 15.3905465,15.5220764 15.1534657,15.6232768 L5.26588302,19.8438937 L5.26588302,19.8438937 C4.75793908,20.0607148 4.17040091,19.8247131 3.95357978,19.3167692 C3.85278032,19.0806276 3.84667246,18.8147618 3.93652133,18.5742404 L7.77344578,8.30296526 L7.77344578,8.30296526 C7.87482139,8.03158727 8.08890064,7.81750803 8.36027862,7.71613242 Z" id="Rectangle-7" fill="#9BBBF8" transform="translate(11.927393, 11.870073) rotate(45.000000) translate(-11.927393, -11.870073) "></path>
                    <path d="M2.54382713,14.2053997 L13.3925526,14.2053997 L13.3925526,14.2053997 C13.9448373,14.2053997 14.3925526,14.6531149 14.3925526,15.2053997 C14.3925526,15.332245 14.3684199,15.4579322 14.3214418,15.5757574 L10.3716851,25.4820888 L10.3716851,25.4820888 C10.2200939,25.8622926 9.85210616,26.111731 9.4427959,26.111731 L-1.29761747,26.111731 L-1.29761747,26.111731 C-1.84990222,26.111731 -2.29761747,25.6640158 -2.29761747,25.111731 C-2.29761747,24.98807 -2.27468106,24.8654816 -2.22997199,24.7501857 L1.61147262,14.8438543 L1.61147262,14.8438543 C1.76070649,14.4590095 2.13106049,14.2053997 2.54382713,14.2053997 Z" id="Rectangle-7-Copy" fill="#81A4E8" transform="translate(6.047468, 20.158565) rotate(90.000000) translate(-6.047468, -20.158565) "></path>
                    <path d="M13.9745173,14.3108604 L24.8184575,14.3108604 L24.8184575,14.3108604 C25.3707422,14.3108604 25.8184575,14.7585757 25.8184575,15.3108604 C25.8184575,15.4395284 25.7936264,15.5669872 25.7453264,15.6862456 L21.8337095,25.3444754 L21.8337095,25.3444754 C21.6808021,25.7220214 21.3141754,25.9690903 20.9068406,25.9690903 L10.1707471,25.9690903 L10.1707471,25.9690903 C9.61846237,25.9690903 9.17074712,25.521375 9.17074712,24.9690903 C9.17074712,24.8436615 9.19434389,24.7193522 9.2403063,24.6026481 L13.0440764,14.9444182 L13.0440764,14.9444182 C13.1946281,14.5621494 13.5636703,14.3108604 13.9745173,14.3108604 Z" id="Rectangle-7-Copy-2" fill="#6694EF" transform="translate(17.494602, 20.139975) scale(-1, 1) rotate(90.000000) translate(-17.494602, -20.139975) "></path>
                </g>
                <rect id="Rectangle-4-Copy-34" fill="#FFFFFF" x="50" y="0" width="40" height="40" rx="5"></rect>
                <polyline id="Fill-140" fill="#E2E2E2" points="70 25.27 76.18 29 74.54 21.97 80 17.24 72.81 16.63 70 10 67.19 16.63 60 17.24 65.46 21.97 63.82 29 70 25.27"></polyline>
                <rect id="Rectangle-4-Copy-37" fill-opacity="0.6" fill="#FFFFFF" x="100" y="96" width="40" height="40" rx="5"></rect>
                <path d="M61,117 L69,117 L69,107 L61,107 L61,117 Z M61,125 L69,125 L69,119 L61,119 L61,125 Z M71,125 L79,125 L79,115 L71,115 L71,125 Z M71,113 L79,113 L79,107 L71,107 L71,113 Z" id="Fill-161" fill="#E2E2E2"></path>
            </g>
        </g>
    </g>
</svg>