<?xml version="1.0" encoding="utf-8"?>
<!-- Generator: Adobe Illustrator 17.0.0, SVG Export Plug-In . SVG Version: 6.00 Build 0)  -->
<!DOCTYPE svg PUBLIC "-//W3C//DTD SVG 1.1//EN" "http://www.w3.org/Graphics/SVG/1.1/DTD/svg11.dtd">
<svg version="1.1" id="图层_1" xmlns="http://www.w3.org/2000/svg" xmlns:xlink="http://www.w3.org/1999/xlink" x="0px" y="0px"
	 width="220px" height="220px" viewBox="0 0 220 220" enable-background="new 0 0 220 220" xml:space="preserve">
<g>
	<circle fill="#4292E8" cx="110" cy="110" r="110"/>
	<g>
		<g>
			<path fill="#FFFFFF" d="M149.428,107.432h-33.677L98.912,78.267l16.838-29.165h33.677l16.838,29.165L149.428,107.432z
				 M123.834,93.432h17.511l8.755-15.165l-8.755-15.165h-17.511l-8.755,15.165L123.834,93.432z"/>
		</g>
		<g>
			<path fill="#FFFFFF" d="M92.893,138.598H59.216l-16.838-29.165l16.838-29.165h33.677l16.839,29.165L92.893,138.598z
				 M67.299,124.598H84.81l8.756-15.165L84.81,94.268H67.299l-8.755,15.165L67.299,124.598z"/>
		</g>
		<g>
			<path fill="#FFFFFF" d="M148.428,171.763h-33.677l-16.838-29.165l16.838-29.165h33.677l16.838,29.165L148.428,171.763z
				 M122.834,157.763h17.511l8.755-15.165l-8.755-15.165h-17.511l-8.755,15.165L122.834,157.763z"/>
		</g>
	</g>
</g>
<g>
</g>
<g>
</g>
<g>
</g>
<g>
</g>
<g>
</g>
<g>
</g>
</svg>
