<?xml version="1.0" encoding="UTF-8"?>
<svg width="142px" height="140px" viewBox="0 0 142 140" version="1.1" xmlns="http://www.w3.org/2000/svg" xmlns:xlink="http://www.w3.org/1999/xlink">
    <!-- Generator: Sketch 47 (45396) - http://www.bohemiancoding.com/sketch -->
    <title>Group 26</title>
    <desc>Created with Sketch.</desc>
    <defs>
        <rect id="path-1" x="74" y="0" width="62" height="62" rx="5"></rect>
        <filter x="-16.1%" y="-12.9%" width="132.3%" height="132.3%" filterUnits="objectBoundingBox" id="filter-2">
            <feOffset dx="0" dy="2" in="SourceAlpha" result="shadowOffsetOuter1"></feOffset>
            <feGaussianBlur stdDeviation="3" in="shadowOffsetOuter1" result="shadowBlurOuter1"></feGaussianBlur>
            <feColorMatrix values="0 0 0 0 0   0 0 0 0 0   0 0 0 0 0  0 0 0 0.16 0" type="matrix" in="shadowBlurOuter1"></feColorMatrix>
        </filter>
    </defs>
    <g id="产品模块" stroke="none" stroke-width="1" fill="none" fill-rule="evenodd">
        <g id="产品模块-1" transform="translate(-1035.000000, -2157.000000)">
            <g id="Group-26" transform="translate(1035.000000, 2161.000000)">
                <rect id="Rectangle-4-Copy-15" fill="#FFFFFF" x="0" y="0" width="62" height="62" rx="5"></rect>
                <path d="M15.8920145,29.9912281 L11.9537205,29.9912281 L11.9537205,26 L9,26 L9,37.9736842 L11.9537205,37.9736842 L11.9537205,32.9846491 L15.8920145,32.9846491 L15.8920145,37.9736842 L18.845735,37.9736842 L18.845735,26 L15.8920145,26 L15.8920145,29.9912281 L15.8920145,29.9912281 Z M20.814882,28.9934211 L23.7686025,28.9934211 L23.7686025,37.9736842 L26.722323,37.9736842 L26.722323,28.9934211 L29.6760436,28.9934211 L29.6760436,26 L20.814882,26 L20.814882,28.9934211 L20.814882,28.9934211 Z M31.6451906,28.9934211 L34.5989111,28.9934211 L34.5989111,37.9736842 L37.5526316,37.9736842 L37.5526316,28.9934211 L40.5063521,28.9934211 L40.5063521,26 L31.6451906,26 L31.6451906,28.9934211 L31.6451906,28.9934211 Z M49.3675136,26 L42.4754991,26 L42.4754991,37.9736842 L45.4292196,37.9736842 L45.4292196,33.9824561 L49.3675136,33.9824561 C50.9428312,33.9824561 52.3212341,32.5855263 52.3212341,30.9890351 L52.3212341,28.9934211 C52.3212341,27.3969298 50.9428312,26 49.3675136,26 L49.3675136,26 Z M49.3675136,30.9890351 L45.4292196,30.9890351 L45.4292196,28.9934211 L49.3675136,28.9934211 L49.3675136,30.9890351 L49.3675136,30.9890351 Z" id="Shape" fill="#F8F1A1"></path>
                <rect id="Rectangle-4-Copy-18" fill="#FFFFFF" x="0" y="74" width="62" height="62" rx="5"></rect>
                <g id="Rectangle-4-Copy-17">
                    <use fill="black" fill-opacity="1" filter="url(#filter-2)" xlink:href="#path-1"></use>
                    <use fill="#FFFFFF" fill-rule="evenodd" xlink:href="#path-1"></use>
                </g>
                <path d="M104.98,11 C93.94,11 85,19.96 85,31 C85,42.04 93.94,51 104.98,51 C116.04,51 125,42.04 125,31 C125,19.96 116.04,11 104.98,11 L104.98,11 Z M118.84,23 L112.94,23 C112.3,20.5 111.38,18.1 110.18,15.88 C113.86,17.14 116.92,19.7 118.84,23 L118.84,23 Z M105,15.08 C106.66,17.48 107.96,20.14 108.82,23 L101.18,23 C102.04,20.14 103.34,17.48 105,15.08 L105,15.08 Z M89.52,35 C89.2,33.72 89,32.38 89,31 C89,29.62 89.2,28.28 89.52,27 L96.28,27 C96.12,28.32 96,29.64 96,31 C96,32.36 96.12,33.68 96.28,35 L89.52,35 L89.52,35 Z M91.16,39 L97.06,39 C97.7,41.5 98.62,43.9 99.82,46.12 C96.14,44.86 93.08,42.32 91.16,39 L91.16,39 Z M97.06,23 L91.16,23 C93.08,19.68 96.14,17.14 99.82,15.88 C98.62,18.1 97.7,20.5 97.06,23 L97.06,23 Z M105,46.92 C103.34,44.52 102.04,41.86 101.18,39 L108.82,39 C107.96,41.86 106.66,44.52 105,46.92 L105,46.92 Z M109.68,35 L100.32,35 C100.14,33.68 100,32.36 100,31 C100,29.64 100.14,28.3 100.32,27 L109.68,27 C109.86,28.3 110,29.64 110,31 C110,32.36 109.86,33.68 109.68,35 L109.68,35 Z M110.18,46.12 C111.38,43.9 112.3,41.5 112.94,39 L118.84,39 C116.92,42.3 113.86,44.86 110.18,46.12 L110.18,46.12 Z M113.72,35 C113.88,33.68 114,32.36 114,31 C114,29.64 113.88,28.32 113.72,27 L120.48,27 C120.8,28.28 121,29.62 121,31 C121,32.38 120.8,33.72 120.48,35 L113.72,35 L113.72,35 Z" id="Fill-127" fill="#6694EF"></path>
                <rect id="Rectangle-4-Copy-19" fill-opacity="0.6" fill="#FFFFFF" x="74" y="74" width="62" height="62" rx="5"></rect>
                <path d="M88,106.029 L98.024,106.029 L98.024,94 L88,94 L88,106.029 Z M88,120.063 L98.024,120.063 L98.024,108.034 L88,108.034 L88,120.063 Z M100.029,120.063 L110.053,120.063 L110.053,108.034 L100.029,108.034 L100.029,120.063 Z M112.059,120.063 L122.083,120.063 L122.083,108.034 L112.059,108.034 L112.059,120.063 Z M100.029,106.029 L110.053,106.029 L110.053,94 L100.029,94 L100.029,106.029 Z M112.059,106.029 L122.083,106.029 L122.083,94 L112.059,94 L112.059,106.029 Z" id="Fill-33" fill="#ECECEC"></path>
                <path d="M20.8181818,90.4545455 C20.8181818,89.6545455 20.1636364,89 19.3636364,89 C18.5636364,89 17.9090909,89.6545455 17.9090909,90.4545455 L17.9090909,96.2727273 L15,96.2727273 L15,105 L23.7272727,105 L23.7272727,96.2727273 L20.8181818,96.2727273 L20.8181818,90.4545455 L20.8181818,90.4545455 Z M26.6363636,110.818182 C26.6363636,112.709091 27.8581818,114.308364 29.5454545,114.92 L29.5454545,121 L32.4545455,121 L32.4545455,114.92 C34.1418182,114.323636 35.3636364,112.722909 35.3636364,110.818182 L35.3636364,107.909091 L26.6363636,107.909091 L26.6363636,110.818182 L26.6363636,110.818182 Z M15,110.818182 C15,112.709091 16.2218182,114.308364 17.9090909,114.92 L17.9090909,121 L20.8181818,121 L20.8181818,114.92 C22.5054545,114.308364 23.7272727,112.709091 23.7272727,110.818182 L23.7272727,107.909091 L15,107.909091 L15,110.818182 L15,110.818182 Z M44.0909091,96.2727273 L44.0909091,90.4545455 C44.0909091,89.6545455 43.4363636,89 42.6363636,89 C41.8363636,89 41.1818182,89.6545455 41.1818182,90.4545455 L41.1818182,96.2727273 L38.2727273,96.2727273 L38.2727273,105 L47,105 L47,96.2727273 L44.0909091,96.2727273 L44.0909091,96.2727273 Z M32.4545455,90.4545455 C32.4545455,89.6545455 31.8,89 31,89 C30.2,89 29.5454545,89.6545455 29.5454545,90.4545455 L29.5454545,96.2727273 L26.6363636,96.2727273 L26.6363636,105 L35.3636364,105 L35.3636364,96.2727273 L32.4545455,96.2727273 L32.4545455,90.4545455 L32.4545455,90.4545455 Z M38.2727273,110.818182 C38.2727273,112.709091 39.4945455,114.308364 41.1818182,114.92 L41.1818182,121 L44.0909091,121 L44.0909091,114.92 C45.7781818,114.323636 47,112.722909 47,110.818182 L47,107.909091 L38.2727273,107.909091 L38.2727273,110.818182 L38.2727273,110.818182 Z" id="Fill-82" fill="#9BE8EF"></path>
            </g>
        </g>
    </g>
</svg>