<?xml version="1.0" encoding="UTF-8"?>
<svg width="160px" height="112px" viewBox="0 0 160 112" version="1.1" xmlns="http://www.w3.org/2000/svg" xmlns:xlink="http://www.w3.org/1999/xlink">
    <!-- Generator: Sketch 47 (45396) - http://www.bohemiancoding.com/sketch -->
    <title>Group 15</title>
    <desc>Created with Sketch.</desc>
    <defs>
        <rect id="path-1" x="0" y="0" width="148" height="49" rx="5"></rect>
        <filter x="-6.8%" y="-16.3%" width="113.5%" height="140.8%" filterUnits="objectBoundingBox" id="filter-2">
            <feOffset dx="0" dy="2" in="SourceAlpha" result="shadowOffsetOuter1"></feOffset>
            <feGaussianBlur stdDeviation="3" in="shadowOffsetOuter1" result="shadowBlurOuter1"></feGaussianBlur>
            <feColorMatrix values="0 0 0 0 0   0 0 0 0 0   0 0 0 0 0  0 0 0 0.16 0" type="matrix" in="shadowBlurOuter1"></feColorMatrix>
        </filter>
    </defs>
    <g id="产品模块" stroke="none" stroke-width="1" fill="none" fill-rule="evenodd">
        <g id="产品模块-1" transform="translate(-510.000000, -1046.000000)">
            <g id="Group-15" transform="translate(516.000000, 1050.000000)">
                <g id="Rectangle-4">
                    <use fill="black" fill-opacity="1" filter="url(#filter-2)" xlink:href="#path-1"></use>
                    <use fill="#FFFFFF" fill-rule="evenodd" xlink:href="#path-1"></use>
                </g>
                <path d="M27,9 C18.2,9 11,16.2 11,25 C11,33.8 18.2,41 27,41 C35.8,41 43,33.8 43,25 C43,16.2 35.8,9 27,9 L27,9 Z M24.28,31.406413 L19,26.126413 L21.24,23.886413 L24.28,26.926413 L32.76,18.446413 L35,20.686413 L24.28,31.406413 L24.28,31.406413 Z" id="Shape" fill="#6694EF"></path>
                <rect id="Rectangle-2" fill="#B7B7B7" x="53" y="15" width="26" height="6" rx="3"></rect>
                <rect id="Rectangle-2-Copy" fill="#B7B7B7" x="53" y="26" width="51" height="6" rx="3"></rect>
                <rect id="Rectangle-4-Copy-14" fill="#FFFFFF" x="0" y="59" width="148" height="49" rx="5"></rect>
                <path d="M27,68 C18.1688,68 11,75.168 11,84 C11,92.832 18.1688,100 27,100 C35.832,100 43,92.832 43,84 C43,75.168 35.832,68 27,68 L27,68 Z M25.4,88.8 L28.6,88.8 L28.6,92 L25.4,92 L25.4,88.8 Z M25.4,76 L28.6,76 L28.6,85.6 L25.4,85.6 L25.4,76 Z" id="Fill-51" fill="#F8F1A1"></path>
                <rect id="Rectangle-2" fill="#E2E2E2" x="53" y="74" width="26" height="6" rx="3"></rect>
                <rect id="Rectangle-2-Copy" fill="#E2E2E2" x="53" y="85" width="51" height="6" rx="3"></rect>
            </g>
        </g>
    </g>
</svg>