<?xml version="1.0" encoding="utf-8"?>
<!-- Generator: Adobe Illustrator 17.0.0, SVG Export Plug-In . SVG Version: 6.00 Build 0)  -->
<!DOCTYPE svg PUBLIC "-//W3C//DTD SVG 1.1//EN" "http://www.w3.org/Graphics/SVG/1.1/DTD/svg11.dtd">
<svg version="1.1" id="图层_1" xmlns="http://www.w3.org/2000/svg" xmlns:xlink="http://www.w3.org/1999/xlink" x="0px" y="0px"
	 width="220px" height="220px" viewBox="0 0 220 220" enable-background="new 0 0 220 220" xml:space="preserve">
<g>
	<circle fill="#7E60EA" cx="110" cy="110" r="110"/>
	<g>
		<g>
			<path fill="#FFFFFF" d="M110,102.96c-29.031,0-58.419-9.127-58.419-26.572S80.969,49.814,110,49.814s58.419,9.128,58.419,26.573
				S139.031,102.96,110,102.96z M110,63.814c-12.718,0-25.062,1.923-33.869,5.274c-7.894,3.005-10.551,6.271-10.551,7.299
				s2.657,4.293,10.55,7.298C84.938,87.037,97.282,88.96,110,88.96s25.062-1.923,33.869-5.274c7.894-3.005,10.55-6.27,10.55-7.298
				s-2.657-4.294-10.551-7.299C135.063,65.737,122.718,63.814,110,63.814z"/>
		</g>
		<g>
			<path fill="#FFFFFF" d="M110,131.713c-29.031,0-58.419-9.128-58.419-26.573V76.387h14v28.752c0,1.028,2.657,4.294,10.551,7.299
				c8.806,3.352,21.151,5.274,33.869,5.274s25.062-1.923,33.869-5.274c7.894-3.005,10.551-6.271,10.551-7.299V76.387h14v28.752
				C168.42,122.585,139.031,131.713,110,131.713z"/>
		</g>
		<g>
			<rect x="103" y="124.713" fill="#FFFFFF" width="14" height="50.589"/>
		</g>
		<g>
			<rect x="57.53" y="145.255" fill="#FFFFFF" width="104.94" height="14"/>
		</g>
		<g>
			<rect x="93.834" y="140.164" fill="#FFFFFF" width="32.333" height="24.18"/>
		</g>
	</g>
</g>
<g>
</g>
<g>
</g>
<g>
</g>
<g>
</g>
<g>
</g>
<g>
</g>
</svg>
