<?xml version="1.0" encoding="utf-8"?>
<!-- Generator: Adobe Illustrator 17.0.0, SVG Export Plug-In . SVG Version: 6.00 Build 0)  -->
<!DOCTYPE svg PUBLIC "-//W3C//DTD SVG 1.1//EN" "http://www.w3.org/Graphics/SVG/1.1/DTD/svg11.dtd">
<svg version="1.1" id="图层_1" xmlns="http://www.w3.org/2000/svg" xmlns:xlink="http://www.w3.org/1999/xlink" x="0px" y="0px"
	 width="620px" height="448px" viewBox="0 0 620 448" enable-background="new 0 0 620 448" xml:space="preserve">
<g>
	<polyline opacity="0.5" fill="none" stroke="#6694EF" stroke-width="3" stroke-miterlimit="10" points="44.888,154.01 
		44.888,212.003 291.644,212.003 	"/>
	<polyline opacity="0.5" fill="none" stroke="#6694EF" stroke-width="3" stroke-miterlimit="10" points="44.888,294.999 
		44.888,237.005 291.644,237.005 	"/>
	<polyline opacity="0.5" fill="none" stroke="#6694EF" stroke-width="3" stroke-miterlimit="10" points="138.198,321.989 
		138.198,263.996 274.494,263.996 	"/>
	<polyline opacity="0.5" fill="none" stroke="#6694EF" stroke-width="3" stroke-miterlimit="10" points="138.198,127.013 
		138.198,185.007 274.494,185.007 	"/>
	<circle fill="#B2C9F7" cx="556.457" cy="64" r="60"/>
	<circle fill="#B3DBF4" cx="556.457" cy="224.004" r="60"/>
	<circle fill="#B3EFF2" cx="556.457" cy="384.008" r="60"/>
	<circle fill="#FFFFFF" stroke="#B2C9F7" stroke-width="3" stroke-miterlimit="10" cx="44.888" cy="128.999" r="40"/>
	<circle fill="#FFFFFF" stroke="#B2C9F7" stroke-width="3" stroke-miterlimit="10" cx="44.888" cy="319.01" r="40"/>
	<circle fill="#FFFFFF" stroke="#B2C9F7" stroke-width="3" stroke-miterlimit="10" cx="140.243" cy="159.002" r="40"/>
	<g>
		<path fill="#4BD1FD" d="M534.342,377.291c0-8.504,6.894-15.398,15.398-15.398h13.434c1.629,0,3.197,0.257,4.671,0.726
			c-1.979-6.219-7.797-10.727-14.672-10.727h-13.434c-8.504,0-15.398,6.894-15.398,15.398v13.434
			c0,6.875,4.508,12.694,10.727,14.672c-0.469-1.474-0.726-3.042-0.726-4.671V377.291z"/>
		<path fill="#41E4F3" d="M577.846,372.62c0.469,1.474,0.726,3.042,0.726,4.671v13.434c0,8.504-6.894,15.398-15.398,15.398H549.74
			c-1.629,0-3.197-0.257-4.671-0.726c1.979,6.219,7.797,10.727,14.672,10.727h13.434c8.504,0,15.398-6.894,15.398-15.398v-13.434
			C588.573,380.417,584.066,374.599,577.846,372.62z"/>
		<path fill="#E1F9FA" d="M568.571,371.894h4.604c1.629,0,3.197,0.257,4.671,0.726c-1.51-4.746-5.255-8.491-10.001-10.001
			c0.469,1.474,0.726,3.042,0.726,4.671V371.894z"/>
		<path fill="#E1F9FA" d="M544.343,396.122h-4.604c-1.629,0-3.197-0.257-4.671-0.726c1.51,4.746,5.255,8.491,10.001,10.001
			c-0.469-1.474-0.726-3.042-0.726-4.671V396.122z"/>
		<path fill="#3670E3" d="M544.343,396.122v-8.83c0-8.504,6.894-15.398,15.398-15.398h8.83v-4.604c0-1.629-0.257-3.197-0.726-4.671
			c-1.474-0.469-3.042-0.726-4.671-0.726H549.74c-8.504,0-15.398,6.894-15.398,15.398v13.434c0,1.629,0.257,3.197,0.726,4.671
			c1.474,0.469,3.042,0.726,4.671,0.726H544.343z"/>
		<path fill="#B7EDFE" d="M544.343,396.122v-8.83c0-8.504,6.894-15.398,15.398-15.398h8.83v-4.604c0-1.629-0.257-3.197-0.726-4.671
			c-1.474-0.469-3.042-0.726-4.671-0.726H549.74c-8.504,0-15.398,6.894-15.398,15.398v13.434c0,1.629,0.257,3.197,0.726,4.671
			c1.474,0.469,3.042,0.726,4.671,0.726H544.343z"/>
		<path fill="#6694EF" d="M563.174,406.123c8.504,0,15.398-6.894,15.398-15.398v-13.434c0-1.629-0.257-3.197-0.726-4.671
			c-1.474-0.469-3.042-0.726-4.671-0.726h-4.604v8.83c0,8.504-6.894,15.398-15.398,15.398h-8.83v4.604
			c0,1.629,0.257,3.197,0.726,4.671c1.474,0.469,3.042,0.726,4.671,0.726H563.174z"/>
		<path fill="#B3F4FA" d="M563.174,406.123c8.504,0,15.398-6.894,15.398-15.398v-13.434c0-1.629-0.257-3.197-0.726-4.671
			c-1.474-0.469-3.042-0.726-4.671-0.726h-4.604v8.83c0,8.504-6.894,15.398-15.398,15.398h-8.83v4.604
			c0,1.629,0.257,3.197,0.726,4.671c1.474,0.469,3.042,0.726,4.671,0.726H563.174z"/>
		<path fill="#3670E3" d="M544.343,387.292v8.83h8.83c8.504,0,15.398-6.894,15.398-15.398v-8.83h-8.83
			C551.237,371.894,544.343,378.788,544.343,387.292z"/>
		<path fill="#6694EF" d="M544.343,387.292v8.83h8.83c8.504,0,15.398-6.894,15.398-15.398v-8.83h-8.83
			C551.237,371.894,544.343,378.788,544.343,387.292z"/>
		<path fill="#98DFFE" d="M544.343,387.292v8.83h8.83c8.504,0,15.398-6.894,15.398-15.398v-8.83h-8.83
			C551.237,371.894,544.343,378.788,544.343,387.292z"/>
	</g>
	<circle fill="#FFFFFF" stroke="#B2C9F7" stroke-width="3" stroke-miterlimit="10" cx="140.243" cy="289.007" r="40"/>
	<g>
		
			<line fill="none" stroke="#6694EF" stroke-width="3" stroke-miterlimit="10" x1="380.942" y1="224.004" x2="476.133" y2="224.004"/>
		<g>
			<path fill="#6694EF" d="M455.63,238.404c-0.445-0.697-0.239-1.626,0.46-2.071l19.358-12.328l-19.358-12.328
				c-0.699-0.445-0.905-1.374-0.46-2.071s1.378-0.899,2.071-0.46l21.344,13.594c0.432,0.275,0.694,0.753,0.694,1.266
				s-0.262,0.99-0.694,1.266l-21.344,13.594c-0.249,0.158-0.529,0.234-0.804,0.234C456.402,239.098,455.917,238.852,455.63,238.404z
				"/>
		</g>
	</g>
	<g>
		<polyline fill="none" stroke="#6694EF" stroke-width="3" stroke-miterlimit="10" points="357.847,157.062 418.965,157.062 
			418.965,64.057 479.846,64.003 		"/>
		<g>
			<path fill="#6694EF" d="M459.355,78.421c-0.446-0.697-0.24-1.626,0.458-2.072l19.347-12.345l-19.369-12.311
				c-0.699-0.445-0.906-1.373-0.462-2.071c0.445-0.698,1.378-0.901,2.071-0.462l21.356,13.575c0.432,0.275,0.695,0.752,0.695,1.265
				s-0.261,0.99-0.693,1.266l-21.332,13.613c-0.249,0.158-0.529,0.235-0.804,0.235C460.128,79.115,459.643,78.869,459.355,78.421z"
				/>
		</g>
	</g>
	<g>
		<polyline fill="none" stroke="#6694EF" stroke-width="3" stroke-miterlimit="10" points="360.865,290.946 421.982,290.946 
			421.982,383.951 482.863,384.005 		"/>
		<g>
			<path fill="#6694EF" d="M462.348,398.386c-0.445-0.698-0.238-1.626,0.462-2.071l19.369-12.311l-19.347-12.345
				c-0.698-0.446-0.904-1.375-0.458-2.072c0.446-0.697,1.379-0.898,2.072-0.458l21.332,13.613c0.432,0.276,0.694,0.753,0.693,1.266
				s-0.263,0.99-0.695,1.265l-21.356,13.575c-0.249,0.158-0.529,0.234-0.804,0.234C463.119,399.081,462.634,398.835,462.348,398.386
				z"/>
		</g>
	</g>
	<path fill="#B2C9F7" d="M41.795,121.998c0,2.209-1.791,4-4,4H26.91c-2.209,0-4-1.791-4-4v-10.885c0-2.209,1.791-4,4-4h10.885
		c2.209,0,4,1.791,4,4V121.998z"/>
	<path fill="#34D2DF" d="M66.819,312.009c0,2.209-1.791,4-4,4H51.934c-2.209,0-4-1.791-4-4v-10.885c0-2.209,1.791-4,4-4h10.885
		c2.209,0,4,1.791,4,4V312.009z"/>
	<path fill="#6694EF" d="M41.795,146.884c0,2.209-1.791,4-4,4H26.91c-2.209,0-4-1.791-4-4v-10.885c0-2.209,1.791-4,4-4h10.885
		c2.209,0,4,1.791,4,4V146.884z"/>
	<path fill="#3670E3" d="M137.291,176.959c0,2.209-1.791,4-4,4h-10.885c-2.209,0-4-1.791-4-4v-10.885c0-2.209,1.791-4,4-4h10.885
		c2.209,0,4,1.791,4,4V176.959z"/>
	<circle fill="#34D2DF" cx="127.792" cy="146.559" r="9.442"/>
	<circle fill="#71DFE9" cx="32.352" cy="331.99" r="9.442"/>
	<circle fill="#3670E3" cx="127.792" cy="301.426" r="9.442"/>
	<circle fill="#6694EF" cx="152.694" cy="171.444" r="9.442"/>
	<rect x="22.956" y="297.125" fill="#3670E3" width="18.885" height="18.885"/>
	<rect x="47.934" y="107.114" fill="#34D2DF" width="18.885" height="18.885"/>
	<rect x="143.22" y="137.117" fill="#71DFE9" width="18.885" height="18.885"/>
	<g>
		<rect x="527.867" y="35.147" fill="#71DFE9" width="18.71" height="19.236"/>
		<rect x="566.338" y="35.147" fill="#E0E9FC" width="18.71" height="19.236"/>
		<rect x="546.577" y="35.147" fill="#71DFE9" width="19.761" height="19.236"/>
		<rect x="546.577" y="35.147" fill="#C6F2F6" width="19.761" height="19.236"/>
		<rect x="527.867" y="73.618" fill="#4BAFFE" width="18.71" height="19.236"/>
		<rect x="527.867" y="54.382" fill="#71DFE9" width="18.71" height="19.236"/>
		<rect x="527.867" y="54.382" fill="#2EC3FB" width="18.71" height="19.236"/>
		<rect x="566.338" y="73.618" fill="#97DEFB" width="18.71" height="19.236"/>
		<rect x="566.338" y="54.382" opacity="0.6" fill="#FFFFFF" width="18.71" height="19.236"/>
		<rect x="566.338" y="54.382" fill="#D5F2FE" width="18.71" height="19.236"/>
		<rect x="546.577" y="73.618" fill="#3670E3" width="19.761" height="19.236"/>
		<rect x="546.577" y="73.618" fill="#30CFFF" width="19.761" height="19.236"/>
		<rect x="546.577" y="54.382" fill="#71DFE9" width="19.761" height="19.236"/>
		<rect x="546.577" y="54.382" opacity="0.6" fill="#FFFFFF" width="19.761" height="19.236"/>
		<rect x="546.577" y="54.382" fill="#3670E3" width="19.761" height="19.236"/>
		<rect x="546.577" y="54.382" fill="#35E5FF" width="19.761" height="19.236"/>
	</g>
	<rect x="118.35" y="267.146" fill="#B2C9F7" width="18.885" height="18.885"/>
	<path fill="#B2C9F7" d="M66.795,334.313c0,3.622-2.936,6.558-6.558,6.558h-5.721c-3.622,0-6.558-2.936-6.558-6.558v-5.721
		c0-3.622,2.936-6.558,6.558-6.558h5.721c3.622,0,6.558,2.936,6.558,6.558V334.313z"/>
	<path fill="#34D2DF" d="M162.08,279.449c0,3.622-2.936,6.558-6.558,6.558h-5.721c-3.622,0-6.558-2.936-6.558-6.558v-5.721
		c0-3.622,2.936-6.558,6.558-6.558h5.721c3.622,0,6.558,2.936,6.558,6.558V279.449z"/>
	<path fill="#3670E3" d="M66.795,144.302c0,3.622-2.936,6.558-6.558,6.558h-5.721c-3.622,0-6.558-2.936-6.558-6.558v-5.721
		c0-3.622,2.936-6.558,6.558-6.558h5.721c3.622,0,6.558,2.936,6.558,6.558V144.302z"/>
	<path fill="#9FEBF2" d="M162.08,304.286c0,3.622-2.936,6.558-6.558,6.558h-5.721c-3.622,0-6.558-2.936-6.558-6.558v-5.721
		c0-3.622,2.936-6.558,6.558-6.558h5.721c3.622,0,6.558,2.936,6.558,6.558V304.286z"/>
	<g>
		<path fill="#41C1F4" d="M585.033,224.004c-3.775,3.708-8.945,6-14.654,6c-3.867,0-7.476-1.067-10.584-2.896
			c2.307,3.363,3.663,7.431,3.663,11.817c0,6.202-2.714,11.756-7.001,15.587c3.7,3.307,8.568,5.335,13.922,5.335
			c11.555,0,20.922-9.367,20.922-20.922C591.301,233.08,588.898,227.801,585.033,224.004z"/>
		<path fill="#3670E3" d="M553.119,220.9c-2.307-3.363-3.663-7.431-3.663-11.817c0-6.202,2.714-11.756,7.001-15.587
			c-3.7-3.307-8.568-5.335-13.922-5.335c-11.555,0-20.923,9.367-20.923,20.922c0,5.846,2.403,11.125,6.268,14.922
			c3.775-3.708,8.945-6,14.654-6C546.402,218.004,550.011,219.071,553.119,220.9z"/>
		<path fill="#E1F1FB" d="M549.456,238.926c0-4.387,1.355-8.454,3.663-11.817c-3.108,1.829-6.717,2.896-10.583,2.896
			c-5.709,0-10.879-2.293-14.654-6c-3.865,3.796-6.268,9.076-6.268,14.922c0,11.555,9.367,20.922,20.923,20.922
			c5.353,0,10.221-2.028,13.922-5.335C552.171,250.682,549.456,245.128,549.456,238.926z"/>
		<path fill="#6694EF" d="M563.458,238.926c0-4.387-1.355-8.454-3.663-11.817c-1.195-0.703-2.311-1.52-3.338-2.439
			c-1.028,0.918-2.143,1.735-3.338,2.439c-2.307,3.363-3.663,7.431-3.663,11.817c0,6.202,2.714,11.756,7.001,15.587
			C560.744,250.682,563.458,245.128,563.458,238.926z"/>
		<path fill="#B3E6FB" d="M563.458,238.926c0-4.387-1.355-8.454-3.663-11.817c-1.195-0.703-2.311-1.52-3.338-2.439
			c-1.028,0.918-2.143,1.735-3.338,2.439c-2.307,3.363-3.663,7.431-3.663,11.817c0,6.202,2.714,11.756,7.001,15.587
			C560.744,250.682,563.458,245.128,563.458,238.926z"/>
		<path fill="#3670E3" d="M553.119,227.109c0.767-1.119,1.641-2.157,2.606-3.104c-0.965-0.948-1.838-1.986-2.606-3.104
			c-3.108-1.829-6.717-2.896-10.583-2.896c-5.709,0-10.879,2.293-14.654,6c3.775,3.708,8.945,6,14.654,6
			C546.402,230.005,550.011,228.937,553.119,227.109z"/>
		<path fill="#AFC6F4" d="M553.119,227.109c0.767-1.119,1.641-2.157,2.606-3.104c-0.965-0.948-1.838-1.986-2.606-3.104
			c-3.108-1.829-6.717-2.896-10.583-2.896c-5.709,0-10.879,2.293-14.654,6c3.775,3.708,8.945,6,14.654,6
			C546.402,230.005,550.011,228.937,553.119,227.109z"/>
		<path fill="#3670E3" d="M553.119,227.109c1.195-0.703,2.311-1.52,3.338-2.439c-0.246-0.22-0.497-0.435-0.732-0.666
			C554.76,224.952,553.886,225.99,553.119,227.109z"/>
		<path opacity="0.6" fill="#FFFFFF" d="M553.119,227.109c1.195-0.703,2.311-1.52,3.338-2.439c-0.246-0.22-0.497-0.435-0.732-0.666
			C554.76,224.952,553.886,225.99,553.119,227.109z"/>
		<path fill="#73D6E9" d="M563.458,209.082c0,4.387-1.355,8.454-3.663,11.817c3.108-1.829,6.717-2.896,10.584-2.896
			c5.709,0,10.879,2.293,14.654,6c3.865-3.796,6.268-9.076,6.268-14.922c0-11.555-9.367-20.922-20.922-20.922
			c-5.354,0-10.222,2.028-13.922,5.335C560.744,197.326,563.458,202.881,563.458,209.082z"/>
		<path fill="#6694EF" d="M559.795,220.9c-0.767,1.119-1.641,2.157-2.606,3.104c0.965,0.948,1.838,1.986,2.606,3.104
			c3.108,1.829,6.717,2.896,10.584,2.896c5.709,0,10.879-2.293,14.654-6c-3.775-3.708-8.945-6-14.654-6
			C566.512,218.004,562.903,219.071,559.795,220.9z"/>
		<path fill="#3ACAE9" d="M559.795,220.9c-0.767,1.119-1.641,2.157-2.606,3.104c0.965,0.948,1.838,1.986,2.606,3.104
			c3.108,1.829,6.717,2.896,10.584,2.896c5.709,0,10.879-2.293,14.654-6c-3.775-3.708-8.945-6-14.654-6
			C566.512,218.004,562.903,219.071,559.795,220.9z"/>
		<path fill="#3670E3" d="M549.456,209.082c0,4.387,1.355,8.454,3.663,11.817c1.195,0.703,2.311,1.52,3.338,2.439
			c1.028-0.918,2.143-1.735,3.338-2.439c2.307-3.363,3.663-7.431,3.663-11.817c0-6.202-2.714-11.756-7.001-15.587
			C552.171,197.326,549.456,202.881,549.456,209.082z"/>
		<path fill="#35A1E1" d="M549.456,209.082c0,4.387,1.355,8.454,3.663,11.817c1.195,0.703,2.311,1.52,3.338,2.439
			c1.028-0.918,2.143-1.735,3.338-2.439c2.307-3.363,3.663-7.431,3.663-11.817c0-6.202-2.714-11.756-7.001-15.587
			C552.171,197.326,549.456,202.881,549.456,209.082z"/>
		<path fill="#3670E3" d="M559.795,220.9c-1.195,0.703-2.311,1.52-3.338,2.439c0.246,0.22,0.497,0.435,0.732,0.666
			C558.154,223.057,559.028,222.018,559.795,220.9z"/>
		<path opacity="0.5" fill="#34D2DF" d="M559.795,220.9c-1.195,0.703-2.311,1.52-3.338,2.439c0.246,0.22,0.497,0.435,0.732,0.666
			C558.154,223.057,559.028,222.018,559.795,220.9z"/>
		<path fill="#6694EF" d="M557.19,224.004c-0.235,0.231-0.486,0.446-0.732,0.666c1.028,0.918,2.143,1.735,3.338,2.439
			C559.028,225.99,558.154,224.952,557.19,224.004z"/>
		<path opacity="0.6" fill="#FFFFFF" d="M557.19,224.004c-0.235,0.231-0.486,0.446-0.732,0.666c1.028,0.918,2.143,1.735,3.338,2.439
			C559.028,225.99,558.154,224.952,557.19,224.004z"/>
		<path opacity="0.5" fill="#34D2DF" d="M557.19,224.004c-0.235,0.231-0.486,0.446-0.732,0.666c1.028,0.918,2.143,1.735,3.338,2.439
			C559.028,225.99,558.154,224.952,557.19,224.004z"/>
		<path fill="#3670E3" d="M553.119,220.9c0.767,1.119,1.641,2.157,2.606,3.104c0.235-0.231,0.486-0.446,0.732-0.666
			C555.43,222.42,554.314,221.603,553.119,220.9z"/>
		<path opacity="0.6" fill="#FFFFFF" d="M553.119,220.9c0.767,1.119,1.641,2.157,2.606,3.104c0.235-0.231,0.486-0.446,0.732-0.666
			C555.43,222.42,554.314,221.603,553.119,220.9z"/>
		<path opacity="0.5" fill="#34D2DF" d="M553.119,220.9c0.767,1.119,1.641,2.157,2.606,3.104c0.235-0.231,0.486-0.446,0.732-0.666
			C555.43,222.42,554.314,221.603,553.119,220.9z"/>
		<path fill="#3670E3" d="M556.457,223.338c-0.246,0.22-0.497,0.435-0.732,0.666c0.235,0.231,0.486,0.446,0.732,0.666
			c0.246-0.22,0.497-0.435,0.732-0.666C556.954,223.773,556.703,223.558,556.457,223.338z"/>
		<path opacity="0.6" fill="#FFFFFF" d="M556.457,223.338c-0.246,0.22-0.497,0.435-0.732,0.666c0.235,0.231,0.486,0.446,0.732,0.666
			c0.246-0.22,0.497-0.435,0.732-0.666C556.954,223.773,556.703,223.558,556.457,223.338z"/>
		<path opacity="0.5" fill="#34D2DF" d="M556.457,223.338c-0.246,0.22-0.497,0.435-0.732,0.666c0.235,0.231,0.486,0.446,0.732,0.666
			c0.246-0.22,0.497-0.435,0.732-0.666C556.954,223.773,556.703,223.558,556.457,223.338z"/>
	</g>
	<circle fill="#6694EF" cx="307.571" cy="224.004" r="100"/>
	<g>
		<path fill="#FFFFFF" d="M338.752,213.142c3.636,0,6.594-2.958,6.594-6.593s-2.958-6.593-6.594-6.593s-6.594,2.958-6.594,6.593
			S335.116,213.142,338.752,213.142z M339.702,202.772c2.177,0,3.943,1.691,3.943,3.776c0,2.086-1.765,3.776-3.943,3.776
			s-3.943-1.691-3.943-3.776C335.76,204.463,337.525,202.772,339.702,202.772z"/>
		<path fill="#FFFFFF" d="M369.401,225.062c0.155-1.108,0.274-2.572,0.332-4.485c0.122-0.036,0.257-0.072,0.378-0.108
			c0.548-0.16,0.877-0.718,0.754-1.275c-0.293-1.33-3.125-13.32-12.133-24.503c-9.784-12.148-22.621-18.307-38.153-18.307
			c-0.377,0-0.76,0.005-1.142,0.012l-20.579-4.85c-0.207-0.05-0.422-0.035-0.621,0.037c-0.279,0.103-28.135,10.389-44.469,26.515
			c-0.285,0.281-0.392,0.697-0.278,1.081c0.114,0.384,0.43,0.674,0.823,0.754c4.506,0.919,7.78,1.388,10.128,1.613
			c-5.751,4.488-11.881,9.739-18.402,15.917c-1.097-2.644-2.122-5.38-3.056-8.154c-0.14-0.416-0.516-0.706-0.953-0.736
			c-0.43-0.029-0.85,0.205-1.046,0.597c-4.226,8.461-4.588,17.964-4.601,18.364c-0.015,0.453,0.254,0.869,0.674,1.04
			c0.421,0.171,0.903,0.064,1.21-0.271c0.028-0.03,2.634-2.863,7.015-7.11c7.591,17.014,18.758,31.166,32.366,40.999
			c15.434,11.151,29.112,13.619,35.892,14.097c1.914,0.135,3.646,0.201,5.293,0.201c10.648,0,21.159-2.6,37.846-15.288
			c0.365-0.277,0.516-0.754,0.378-1.191c-0.138-0.437-0.536-0.739-0.995-0.757c-0.417-0.015-0.828-0.044-1.238-0.073
			c0.497-0.716,0.891-1.332,1.208-1.87c2.827,1.361,5.614,2.155,7.881,2.155h0c2.529,0,3.807-1.002,4.434-1.843
			c1.832-2.458,2.117-4.806,2.368-6.879c0.201-1.656,0.39-3.219,1.31-4.817c0.354-0.616,0.797-1.231,1.352-1.881
			c0.506-0.593,1.053-1.154,1.582-1.698c1.573-1.616,3.201-3.287,3.667-5.756c0.103-0.546,0.146-1.086,0.133-1.653
			C378.625,229.502,374.446,226.455,369.401,225.062z M315.488,227.344c-0.799,0.488-19.751,11.988-36.867,14.958
			c-0.062,0.011-0.124,0.016-0.186,0.016c-0.281,0-0.552-0.109-0.757-0.308c-0.249-0.243-0.367-0.591-0.316-0.935
			c0.26-1.773,0.608-3.468,1.018-5.09c0.15,0.084,0.314,0.145,0.498,0.149c0.047,0.001,0.256,0.004,0.599,0.004
			c1.876,0,7.73-0.113,12.528-1.425c0.578-0.158,0.918-0.755,0.76-1.333c-0.158-0.578-0.756-0.916-1.333-0.761
			c-5.338,1.461-12.357,1.349-12.503,1.344c0.808-2.734,1.786-5.223,2.823-7.442c0.094,0.067,0.193,0.131,0.31,0.166
			c0.24,0.072,5.945,1.773,11.76,2.381c0.039,0.004,0.076,0.006,0.115,0.006c0.548,0,1.019-0.414,1.078-0.973
			c0.062-0.596-0.37-1.129-0.966-1.192c-5.577-0.584-11.24-2.264-11.356-2.299c1.142-2.214,2.31-4.106,3.365-5.651l0,0
			c0.231,0.181,5.723,4.456,11.187,5.236c0.052,0.007,0.104,0.011,0.155,0.011c0.531,0,0.996-0.391,1.073-0.932
			c0.084-0.593-0.328-1.143-0.921-1.227c-4.882-0.697-10.102-4.754-10.154-4.794c-0.028-0.022-0.061-0.027-0.09-0.045
			c1.42-1.896,2.442-2.963,2.57-3.094c0.324-0.334,0.824-0.422,1.244-0.223l24.267,11.547c0.359,0.171,0.596,0.526,0.617,0.923
			C316.026,226.76,315.828,227.137,315.488,227.344z M338.752,197.785c4.832,0,8.764,3.931,8.764,8.764
			c0,4.832-3.931,8.764-8.764,8.764s-8.764-3.931-8.764-8.764C329.988,201.716,333.92,197.785,338.752,197.785z M349.718,255.999
			c-0.98,0.497-2.021,1.024-3.074,1.535c-4.417-1.54-8.246-4.077-11.309-7.548c-6.02-6.822-8.765-16.65-7.969-28.483
			c6.755,1.831,13.137,2.722,19.468,2.722c6.111,0,11.665-0.875,16.46-1.969c0.213,0.421,0.422,0.838,0.624,1.242
			c0.126,0.251,0.238,0.473,0.355,0.706c-0.745-0.055-1.489-0.09-2.218-0.09c-1.104,0-2.186,0.059-3.215,0.177
			c-7.74,0.883-15.923,6.019-16.753,15.504c-0.127,1.448,0.083,2.957,0.624,4.487c1.01,2.857,3.175,5.765,6.26,8.411
			c0.929,0.796,1.908,1.539,2.912,2.222C351.237,255.231,350.52,255.593,349.718,255.999z M371.733,242.63
			c-0.003,0.003-0.005,0.006-0.008,0.009c-0.143,0.167-0.277,0.332-0.408,0.497c-0.018-0.011-0.036-0.02-0.054-0.031
			c-0.169-0.1-0.339-0.196-0.511-0.288c-0.231-0.123-0.465-0.238-0.701-0.348c-0.167-0.078-0.335-0.155-0.505-0.227
			c-0.245-0.103-0.494-0.195-0.744-0.284c-0.171-0.061-0.341-0.123-0.514-0.177c-0.253-0.079-0.51-0.146-0.767-0.21
			c-0.177-0.044-0.352-0.092-0.53-0.129c-0.259-0.055-0.52-0.094-0.781-0.134c-0.18-0.027-0.36-0.06-0.541-0.081
			c-0.267-0.03-0.536-0.044-0.804-0.059c-0.178-0.01-0.355-0.028-0.534-0.031c-0.292-0.005-0.585,0.009-0.878,0.022
			c-0.155,0.007-0.31,0.004-0.466,0.016c-0.448,0.034-0.896,0.088-1.342,0.166c-0.34,0.059-0.676,0.13-1.008,0.213
			c-0.106,0.026-0.208,0.061-0.313,0.09c-0.223,0.061-0.448,0.121-0.667,0.193c-0.125,0.041-0.245,0.09-0.368,0.134
			c-0.196,0.07-0.392,0.138-0.584,0.216c-0.127,0.052-0.249,0.112-0.374,0.167c-0.182,0.081-0.366,0.159-0.544,0.247
			c-0.127,0.063-0.25,0.134-0.375,0.201c-0.17,0.09-0.341,0.179-0.507,0.276c-0.124,0.073-0.244,0.153-0.366,0.229
			c-0.161,0.101-0.323,0.2-0.479,0.307c-0.119,0.082-0.234,0.17-0.351,0.255c-0.152,0.111-0.305,0.22-0.452,0.337
			c-0.114,0.09-0.223,0.187-0.334,0.281c-0.143,0.12-0.286,0.24-0.424,0.365c-0.109,0.099-0.212,0.204-0.318,0.306
			c-0.133,0.129-0.266,0.257-0.394,0.391c-0.102,0.108-0.199,0.22-0.298,0.331c-0.123,0.137-0.246,0.274-0.363,0.416
			c-0.095,0.115-0.186,0.235-0.277,0.354c-0.112,0.145-0.225,0.289-0.332,0.439c-0.088,0.123-0.171,0.25-0.255,0.375
			c-0.101,0.152-0.203,0.304-0.299,0.46c-0.08,0.13-0.155,0.263-0.23,0.396c-0.091,0.159-0.181,0.318-0.265,0.481
			c-0.071,0.137-0.137,0.276-0.204,0.416c-0.079,0.165-0.157,0.329-0.229,0.498c-0.062,0.143-0.119,0.29-0.177,0.436
			c-0.067,0.17-0.133,0.341-0.193,0.515c-0.052,0.149-0.099,0.3-0.146,0.451c-0.003,0.011-0.008,0.023-0.011,0.034
			c-0.041-0.035-0.084-0.068-0.125-0.103c-0.144-0.123-0.275-0.248-0.414-0.372c-0.175-0.156-0.353-0.311-0.521-0.469
			c0.015-0.041,0.03-0.082,0.045-0.123c0.079-0.219,0.157-0.438,0.245-0.652c0.057-0.139,0.122-0.273,0.183-0.409
			c0.087-0.195,0.173-0.391,0.268-0.582c0.07-0.14,0.146-0.277,0.22-0.415c0.097-0.18,0.193-0.361,0.296-0.537
			c0.081-0.138,0.168-0.272,0.253-0.407c0.107-0.169,0.213-0.338,0.326-0.502c0.092-0.133,0.188-0.263,0.283-0.393
			c0.116-0.159,0.234-0.317,0.356-0.471c0.101-0.128,0.206-0.252,0.311-0.377c0.126-0.149,0.253-0.295,0.384-0.439
			c0.11-0.121,0.223-0.24,0.337-0.357c0.135-0.139,0.272-0.275,0.412-0.409c0.119-0.113,0.239-0.225,0.36-0.334
			c0.145-0.129,0.292-0.255,0.44-0.379c0.126-0.104,0.252-0.208,0.381-0.308c0.154-0.12,0.311-0.235,0.469-0.349
			c0.132-0.095,0.263-0.19,0.398-0.281c0.163-0.11,0.33-0.215,0.497-0.318c0.137-0.085,0.274-0.171,0.414-0.252
			c0.173-0.1,0.349-0.193,0.526-0.286c0.141-0.074,0.281-0.151,0.424-0.221c0.185-0.09,0.373-0.172,0.562-0.255
			c0.142-0.062,0.282-0.128,0.426-0.186c0.2-0.081,0.405-0.153,0.609-0.225c0.138-0.049,0.273-0.103,0.412-0.148
			c0.23-0.075,0.465-0.138,0.699-0.202c0.118-0.033,0.235-0.071,0.354-0.1c0.356-0.088,0.717-0.165,1.082-0.229
			c0.49-0.085,0.982-0.144,1.474-0.181c0.188-0.014,0.375-0.01,0.563-0.018c0.305-0.012,0.609-0.028,0.913-0.022
			c0.211,0.004,0.421,0.026,0.631,0.039c0.28,0.017,0.559,0.029,0.837,0.061c0.213,0.025,0.423,0.065,0.635,0.099
			c0.273,0.043,0.546,0.083,0.816,0.14c0.208,0.044,0.411,0.102,0.617,0.155c0.27,0.069,0.54,0.137,0.806,0.221
			c0.2,0.063,0.395,0.138,0.593,0.209c0.265,0.095,0.53,0.191,0.79,0.301c0.194,0.082,0.383,0.174,0.574,0.264
			c0.254,0.12,0.506,0.241,0.754,0.375c0.192,0.104,0.38,0.216,0.568,0.329c0.061,0.036,0.121,0.076,0.181,0.114
			C372.026,242.303,371.878,242.46,371.733,242.63z M376.573,235.537c-0.015,0.22-0.041,0.437-0.081,0.654
			c-0.004,0.023-0.013,0.044-0.018,0.068c-0.085-0.055-0.171-0.106-0.256-0.16c-0.224-0.142-0.446-0.288-0.674-0.421
			c-0.27-0.158-0.546-0.302-0.822-0.449c-0.231-0.123-0.461-0.251-0.696-0.366c-0.281-0.138-0.569-0.26-0.854-0.385
			c-0.237-0.104-0.471-0.214-0.711-0.309c-0.293-0.117-0.593-0.217-0.89-0.321c-0.24-0.084-0.477-0.175-0.719-0.251
			c-0.308-0.096-0.62-0.174-0.932-0.257c-0.238-0.064-0.475-0.135-0.715-0.191c-0.329-0.076-0.662-0.133-0.995-0.194
			c-0.228-0.042-0.454-0.094-0.683-0.129c-0.373-0.057-0.75-0.092-1.126-0.13c-0.193-0.02-0.385-0.05-0.579-0.065
			c-0.573-0.043-1.148-0.066-1.727-0.066c-1.302,0-2.618,0.113-3.911,0.338c-0.417,0.072-0.829,0.156-1.238,0.25
			c-0.129,0.03-0.255,0.067-0.383,0.099c-0.279,0.069-0.558,0.137-0.833,0.216c-0.149,0.043-0.294,0.095-0.442,0.141
			c-0.25,0.078-0.501,0.153-0.747,0.239c-0.16,0.056-0.316,0.121-0.475,0.18c-0.229,0.086-0.46,0.169-0.686,0.262
			c-0.163,0.067-0.321,0.142-0.482,0.213c-0.217,0.095-0.436,0.188-0.65,0.29c-0.162,0.077-0.319,0.162-0.479,0.243
			c-0.208,0.105-0.417,0.207-0.62,0.319c-0.161,0.088-0.317,0.183-0.476,0.275c-0.197,0.114-0.396,0.225-0.59,0.345
			c-0.157,0.097-0.31,0.202-0.464,0.303c-0.189,0.124-0.38,0.245-0.565,0.374c-0.153,0.107-0.302,0.221-0.452,0.331
			c-0.181,0.133-0.363,0.263-0.54,0.401c-0.148,0.116-0.292,0.239-0.438,0.359c-0.172,0.141-0.345,0.28-0.512,0.426
			c-0.143,0.125-0.28,0.255-0.42,0.383c-0.164,0.151-0.33,0.299-0.49,0.455c-0.135,0.132-0.266,0.27-0.398,0.405
			c-0.156,0.16-0.314,0.318-0.465,0.483c-0.129,0.14-0.253,0.286-0.378,0.429c-0.147,0.168-0.296,0.335-0.438,0.508
			c-0.121,0.147-0.237,0.299-0.355,0.449c-0.139,0.177-0.28,0.354-0.414,0.536c-0.113,0.154-0.221,0.312-0.33,0.469
			c-0.13,0.186-0.261,0.372-0.386,0.562c-0.105,0.16-0.204,0.324-0.305,0.487c-0.009,0.015-0.019,0.03-0.028,0.045
			c-0.094-0.282-0.177-0.562-0.243-0.84c-0.073-0.306-0.128-0.609-0.167-0.909c0.042-0.06,0.083-0.122,0.125-0.182
			c0.077-0.11,0.151-0.223,0.23-0.332c0.253-0.346,0.514-0.685,0.784-1.016c0.044-0.054,0.091-0.104,0.135-0.157
			c0.229-0.276,0.461-0.548,0.702-0.813c0.1-0.11,0.204-0.214,0.306-0.322c0.19-0.202,0.38-0.404,0.577-0.599
			c0.12-0.119,0.245-0.233,0.368-0.349c0.186-0.176,0.371-0.352,0.562-0.522c0.132-0.117,0.268-0.23,0.403-0.345
			c0.188-0.16,0.377-0.32,0.57-0.474c0.142-0.113,0.286-0.222,0.431-0.332c0.193-0.147,0.386-0.292,0.583-0.433
			c0.15-0.107,0.302-0.211,0.454-0.315c0.198-0.135,0.397-0.268,0.599-0.396c0.156-0.1,0.314-0.197,0.473-0.293
			c0.205-0.124,0.411-0.245,0.62-0.363c0.161-0.091,0.323-0.181,0.486-0.268c0.212-0.114,0.427-0.223,0.643-0.33
			c0.165-0.082,0.33-0.164,0.497-0.242c0.221-0.104,0.444-0.201,0.668-0.298c0.167-0.072,0.333-0.145,0.501-0.213
			c0.232-0.094,0.467-0.181,0.703-0.268c0.165-0.061,0.33-0.125,0.497-0.182c0.248-0.085,0.5-0.163,0.751-0.24
			c0.159-0.049,0.316-0.101,0.476-0.147c0.28-0.08,0.564-0.15,0.848-0.221c0.135-0.033,0.268-0.071,0.403-0.102
			c0.422-0.096,0.846-0.183,1.275-0.257c1.367-0.236,2.758-0.357,4.134-0.357c0.6,0,1.196,0.025,1.789,0.069
			c0.195,0.014,0.387,0.043,0.582,0.062c0.397,0.039,0.793,0.079,1.186,0.137c0.23,0.034,0.456,0.082,0.684,0.123
			c0.354,0.064,0.708,0.127,1.059,0.206c0.239,0.054,0.475,0.12,0.712,0.181c0.334,0.087,0.668,0.175,0.999,0.276
			c0.241,0.074,0.479,0.157,0.717,0.238c0.321,0.11,0.64,0.222,0.956,0.345c0.238,0.093,0.474,0.193,0.71,0.294
			c0.309,0.132,0.616,0.269,0.92,0.414c0.234,0.112,0.466,0.228,0.696,0.348c0.299,0.155,0.594,0.316,0.887,0.484
			c0.196,0.112,0.39,0.227,0.583,0.345c0.003,0.07,0.011,0.138,0.013,0.209C376.592,235.178,376.586,235.358,376.573,235.537z"/>
		<circle fill="#FFFFFF" cx="340.807" cy="205.373" r="1.401"/>
	</g>
</g>
<g>
</g>
<g>
</g>
<g>
</g>
<g>
</g>
<g>
</g>
<g>
</g>
</svg>
