<?xml version="1.0" encoding="utf-8"?>
<!-- Generator: Adobe Illustrator 17.0.0, SVG Export Plug-In . SVG Version: 6.00 Build 0)  -->
<!DOCTYPE svg PUBLIC "-//W3C//DTD SVG 1.1//EN" "http://www.w3.org/Graphics/SVG/1.1/DTD/svg11.dtd">
<svg version="1.1" id="图层_1" xmlns="http://www.w3.org/2000/svg" xmlns:xlink="http://www.w3.org/1999/xlink" x="0px" y="0px"
	 width="260px" height="172px" viewBox="0 0 260 172" enable-background="new 0 0 260 172" xml:space="preserve">
<g>
	<g>
		<defs>
			<path id="SVGID_1_" d="M50.056,156.739h-3.521c-23.171-1.247-41.328-19.604-42.315-42.702
				c-0.97-22.709,14.956-42.234,37.226-45.922C42.79,50.969,57.003,37.656,74.327,37.58c4.479,0,8.954,0.941,13.05,2.734
				c9.68-22.223,31.361-36.493,55.673-36.493c4.005,0,8.038,0.402,11.986,1.195c28.587,5.741,49.118,31.087,48.818,60.268
				c0,0.948-0.027,1.94-0.083,2.994c2.59-0.479,5.225-0.723,7.858-0.729c24.375,0.209,44.193,20.215,44.193,44.596
				c0,20.126-13.545,37.834-32.938,43.063l-0.378,0.052L50.056,156.739z M74.34,40.58c-16.133,0.071-29.298,12.765-29.972,28.898
				l-0.052,1.252l-1.241,0.172c-21.364,2.951-36.779,21.44-35.858,43.006c0.92,21.548,17.858,38.672,39.398,39.833l3.43-0.002
				l172.242-1.478c17.988-4.939,30.536-21.408,30.536-40.117c0-22.74-18.483-41.4-41.202-41.596
				c-3.061,0.008-6.141,0.364-9.137,1.062l-1.997,0.465l0.162-2.044c0.138-1.746,0.205-3.304,0.205-4.763
				c0.285-27.757-19.233-51.853-46.409-57.311c-3.754-0.754-7.588-1.137-11.395-1.137c-23.611,0-44.613,14.161-53.505,36.077
				l-0.609,1.501l-1.45-0.723C83.423,41.65,78.877,40.58,74.34,40.58z"/>
		</defs>
		<use xlink:href="#SVGID_1_"  overflow="visible" fill="#6694EF"/>
		<clipPath id="SVGID_2_">
			<use xlink:href="#SVGID_1_"  overflow="visible"/>
		</clipPath>
		<g clip-path="url(#SVGID_2_)">
			<defs>
				<path id="SVGID_3_" d="M1091.34,3700.834H-228.012V-834.438H1091.34V3700.834z M-225.012,3697.834H1088.34V-831.438H-225.012
					V3697.834z"/>
			</defs>
			<use xlink:href="#SVGID_3_"  overflow="visible" fill="#6694EF"/>
			<clipPath id="SVGID_4_">
				<use xlink:href="#SVGID_3_"  overflow="visible"/>
			</clipPath>
			<g opacity="0.1" clip-path="url(#SVGID_4_)">
				<path fill="#6694EF" d="M260.393,161.31H-0.393V-0.749h260.786V161.31z M2.607,158.31h254.786V2.251H2.607V158.31z"/>
			</g>
		</g>
	</g>
	<path fill-rule="evenodd" clip-rule="evenodd" fill="#6694EF" d="M106.815,168.179h-30.01c-14.94-0.807-26.841-12.851-27.481-27.84
		c-0.639-14.99,10.194-28.008,25.013-30.06c0.475-11.403,9.805-20.416,21.184-20.466c3.229,0,6.415,0.751,9.305,2.195
		c7.213-17.813,26.035-27.966,44.83-24.184c18.795,3.782,32.254,20.432,32.057,39.657c0,1.108-0.056,2.206-0.142,3.293
		c2.095-0.488,4.238-0.738,6.389-0.742c15.913,0.137,28.741,13.114,28.741,29.074s-12.828,28.936-28.741,29.074H106.815z"/>
	<path fill="#ACE5FC" d="M116.691,129.667c0,3.228-2.617,5.845-5.845,5.845h-5.1c-3.228,0-5.845-2.617-5.845-5.845v-5.1
		c0-3.228,2.617-5.845,5.845-5.845h5.1c3.228,0,5.845,2.617,5.845,5.845V129.667z"/>
	<path opacity="0.8" fill="#FFFFFF" d="M116.691,151.806c0,3.228-2.617,5.845-5.845,5.845h-5.1c-3.228,0-5.845-2.617-5.845-5.845
		v-5.1c0-3.228,2.617-5.845,5.845-5.845h5.1c3.228,0,5.845,2.617,5.845,5.845V151.806z"/>
	<path opacity="0.8" fill="#FFFFFF" d="M168.101,129.667c0,3.228-2.617,5.845-5.845,5.845h-5.1c-3.228,0-5.845-2.617-5.845-5.845
		v-5.1c0-3.228,2.617-5.845,5.845-5.845h5.1c3.228,0,5.845,2.617,5.845,5.845V129.667z"/>
	<path fill="#35E5FF" d="M142.396,129.667c0,3.228-2.617,5.845-5.845,5.845h-5.1c-3.228,0-5.845-2.617-5.845-5.845v-5.1
		c0-3.228,2.617-5.845,5.845-5.845h5.1c3.228,0,5.845,2.617,5.845,5.845V129.667z"/>
	<path fill="#9FEBF2" d="M142.396,151.806c0,3.228-2.617,5.845-5.845,5.845h-5.1c-3.228,0-5.845-2.617-5.845-5.845v-5.1
		c0-3.228,2.617-5.845,5.845-5.845h5.1c3.228,0,5.845,2.617,5.845,5.845V151.806z"/>
	<path fill="#C2D4F9" d="M168.101,151.806c0,3.228-2.617,5.845-5.845,5.845h-5.1c-3.228,0-5.845-2.617-5.845-5.845v-5.1
		c0-3.228,2.617-5.845,5.845-5.845h5.1c3.228,0,5.845,2.617,5.845,5.845V151.806z"/>
</g>
<g>
</g>
<g>
</g>
<g>
</g>
<g>
</g>
<g>
</g>
<g>
</g>
</svg>
