<?xml version="1.0" encoding="UTF-8" standalone="no"?>
<svg width="194px" height="120px" viewBox="0 0 194 120" version="1.1" xmlns="http://www.w3.org/2000/svg" xmlns:xlink="http://www.w3.org/1999/xlink">
    <!-- Generator: Sketch 49 (51002) - http://www.bohemiancoding.com/sketch -->
    <title>图标_混合云容器平台_02</title>
    <desc>Created with Sketch.</desc>
    <defs></defs>
    <g id="Page-1" stroke="none" stroke-width="1" fill="none" fill-rule="evenodd">
        <g id="图标_混合云容器平台_02" transform="translate(2.000000, 2.000000)">
            <path d="M40.7690738,53.4033125 L15.0690738,53.4033125 C6.84807375,52.9633125 7.37504986e-05,46.7233125 7.37504986e-05,38.3933125 C-0.0237002635,30.6422579 5.70293789,24.0749142 13.3850738,23.0433125 C13.6321768,16.9540501 18.6278485,12.1377237 24.7220738,12.1133125 C26.4463546,12.1158951 28.1467903,12.5162794 29.6910738,13.2833125 C33.5705472,3.80011227 43.6338953,-1.59610018 53.6796131,0.42007314 C63.7253309,2.43624646 70.9271921,11.2975826 70.8470738,21.5433125 C70.8470738,22.1333125 70.8050738,22.7133125 70.7580738,23.2933125 C75.3390976,22.2406316 80.1499239,23.3442968 83.8140087,26.2885113 C87.4780935,29.2327259 89.5917079,33.6930803 89.5500738,38.3933125" id="云_拷贝_3" stroke="#34D2DF" stroke-width="4" stroke-linecap="round"></path>
            <path d="M86.589,115 L58.618,115 L58.618,114.97 C44.692994,114.249728 33.5999896,103.057126 33.0042097,89.1262387 C32.4084298,75.1953511 42.5053338,63.096524 56.318,61.19 C56.7608772,50.5928847 65.4567354,42.2163223 76.063,42.17 C79.0729106,42.1696905 82.0418143,42.8680144 84.736,44.21 C91.4592512,27.6556868 109.002282,18.2195899 126.520581,21.7347877 C144.038879,25.2499854 156.583592,40.7234478 156.4,58.59 C156.4,59.62 156.348,60.64 156.268,61.65 C158.220604,61.196028 160.218323,60.9645542 162.223,60.96 C177.055033,61.0876077 189.011533,73.1474183 189.011533,87.98 C189.011533,102.812582 177.055033,114.872392 162.223,115" id="云" stroke="#3670E3" stroke-width="6" stroke-linecap="round"></path>
            <path d="M140.507,101.99 L147.507,101.99 C149.439997,101.99 151.007,103.557003 151.007,105.49 L151.007,112.5 C151.007,114.432997 149.439997,116 147.507,116 L140.507,116 C138.574003,116 137.007,114.432997 137.007,112.5 L137.007,105.49 C137.007,103.557003 138.574003,101.99 140.507,101.99 Z" id="Blocks_Images" fill="#34D2DF"></path>
            <path d="M104.491,84 L111.491,84 C112.419746,83.9984038 113.310913,84.3666401 113.967636,85.0233637 C114.62436,85.6800874 114.992596,86.5712539 114.991,87.5 L114.991,94.5 C114.993657,95.4299891 114.626082,96.322799 113.969416,96.9813407 C113.31275,97.6398825 112.420993,98.0100038 111.491,98.01 L104.491,98.01 C103.561007,98.0100038 102.66925,97.6398825 102.012584,96.9813407 C101.355918,96.322799 100.988343,95.4299891 100.991,94.5 L100.991,87.5 C100.989404,86.5712539 101.35764,85.6800874 102.014364,85.0233637 C102.671087,84.3666401 103.562254,83.9984038 104.491,84 Z" id="Blocks_Images_拷贝_8" fill="#34D2DF"></path>
            <path d="M122.492,101.99 L129.5,101.99 C130.429297,101.988407 131.321078,102.356452 131.978753,103.013003 C132.636429,103.669553 133.006001,104.560702 133.006,105.49 L133.006,112.5 C133.006001,113.429298 132.636429,114.320447 131.978753,114.976997 C131.321078,115.633548 130.429297,116.001593 129.5,116 L122.488,116 C120.553412,116.001106 118.983759,114.434586 118.981,112.5 L118.981,105.49 C118.982325,104.560242 119.353009,103.669106 120.011479,103.0127 C120.669948,102.356294 121.562243,101.988407 122.492,101.99 Z" id="Blocks_Images_拷贝_4" fill="#6694EF"></path>
            <path d="M104.491,101.99 L111.491,101.99 C113.423997,101.99 114.991,103.557003 114.991,105.49 L114.991,112.5 C114.991,114.432997 113.423997,116 111.491,116 L104.491,116 C102.558003,116 100.991,114.432997 100.991,112.5 L100.991,105.49 C100.991,103.557003 102.558003,101.99 104.491,101.99 Z" id="Blocks_Images_拷贝_3" fill="#3670E3"></path>
            <path d="M122.492,84 L129.5,84 C130.429297,83.9984069 131.321078,84.3664525 131.978753,85.0230025 C132.636429,85.6795526 133.006001,86.5707018 133.006,87.5 L133.006,94.5 C133.006796,95.4304607 132.637798,96.3230991 131.980238,96.9814094 C131.322678,97.6397197 130.430461,98.009735 129.5,98.01 L122.488,98.01 C121.557366,98.0100003 120.664892,97.6401021 120.007115,96.981763 C119.349339,96.323424 118.980204,95.4306339 118.981,94.5 L118.981,87.5 C118.980995,86.5698333 119.351254,85.6779235 120.010012,85.021229 C120.668771,84.3645346 121.561838,83.9970766 122.492,84 Z" id="Blocks_Images_拷贝_2" fill="#71DFE9" opacity="0.7"></path>
            <path d="M104.5,65.99 L111.512,65.99 C113.446588,65.9888941 115.016241,67.5554138 115.019,69.49 L115.019,76.5 C115.016241,78.4345862 113.446588,80.0011059 111.512,80 L104.5,80 C102.565802,80.0005538 100.996759,78.4341956 100.994,76.5 L100.994,69.49 C100.996759,67.5558044 102.565802,65.9894462 104.5,65.99 Z" id="Blocks_Images_拷贝_5" fill="#6694EF" opacity="0.7"></path>
            <path d="M86.492,84 L93.492,84 C94.4207461,83.9984038 95.3119126,84.3666401 95.9686363,85.0233637 C96.6253599,85.6800874 96.9935962,86.5712539 96.992,87.5 L96.992,94.5 C96.9946571,95.4299891 96.6270815,96.322799 95.970416,96.9813407 C95.3137504,97.6398825 94.4219929,98.0100038 93.492,98.01 L86.492,98.01 C85.5620071,98.0100038 84.6702496,97.6398825 84.013584,96.9813407 C83.3569185,96.322799 82.9893429,95.4299891 82.992,94.5 L82.992,87.5 C82.9904038,86.5712539 83.3586401,85.6800874 84.0153637,85.0233637 C84.6720874,84.3666401 85.5632539,83.9984038 86.492,84 Z" id="Blocks_Images_拷贝_7" fill="#6694EF" opacity="0.5"></path>
            <path d="M122.492,65.99 L129.5,65.99 C130.429297,65.9884069 131.321078,66.3564525 131.978753,67.0130025 C132.636429,67.6695526 133.006001,68.5607018 133.006,69.49 L133.006,76.5 C133.006001,77.4292982 132.636429,78.3204474 131.978753,78.9769975 C131.321078,79.6335475 130.429297,80.0015931 129.5,80 L122.488,80 C120.553412,80.0011059 118.983759,78.4345862 118.981,76.5 L118.981,69.49 C118.982325,68.5602424 119.353009,67.6691064 120.011479,67.0127001 C120.669948,66.3562938 121.562243,65.9884075 122.492,65.99 Z" id="Blocks_Images_拷贝_6" fill="#76E2EC" opacity="0.7"></path>
            <path d="M140.507,84 L147.507,84 C148.435746,83.9984038 149.326913,84.3666401 149.983636,85.0233637 C150.64036,85.6800874 151.008596,86.5712539 151.007,87.5 L151.007,94.5 C151.009657,95.4299891 150.642082,96.322799 149.985416,96.9813407 C149.32875,97.6398825 148.436993,98.0100038 147.507,98.01 L140.507,98.01 C139.577007,98.0100038 138.68525,97.6398825 138.028584,96.9813407 C137.371918,96.322799 137.004343,95.4299891 137.007,94.5 L137.007,87.5 C137.005404,86.5712539 137.37364,85.6800874 138.030364,85.0233637 C138.687087,84.3666401 139.578254,83.9984038 140.507,84 Z" id="Blocks_Images_拷贝" fill="#34D2DF"></path>
        </g>
    </g>
</svg>