<?xml version="1.0" encoding="UTF-8"?>
<svg width="60px" height="60px" viewBox="0 0 60 60" version="1.1" xmlns="http://www.w3.org/2000/svg" xmlns:xlink="http://www.w3.org/1999/xlink">
    <!-- Generator: Sketch 58 (84663) - https://sketch.com -->
    <title>cooperation-icon</title>
    <desc>Created with Sketch.</desc>
    <g id="页面-1" stroke="none" stroke-width="1" fill="none" fill-rule="evenodd">
        <g id="产品模块" transform="translate(-220.000000, -244.000000)">
            <g id="cooperation-icon" transform="translate(220.000000, 244.000000)">
                <path d="M30,0 C13.44,0 0,13.44 0,30 C0,46.56 13.44,60 30,60 C46.56,60 60,46.56 60,30 C60,13.44 46.56,0 30,0 Z" id="路径" fill="#0EC5F0"></path>
                <g id="编组-2" transform="translate(10.000000, 10.000000)" fill="#FFFFFF">
                    <path d="M32.3798612,21.8363887 C36.3122053,21.8363887 39.5,25.0241834 39.5,28.9565275 C39.5,32.8888716 36.3122053,36.0766663 32.3798612,36.0766663 C28.4475171,36.0766663 25.2597224,32.8888716 25.2597224,28.9565275 C25.2597224,25.0241834 28.4475171,21.8363887 32.3798612,21.8363887 Z M22.6094406,31.4856871 L24.5623846,34.8683102 C23.1410543,35.344186 21.6197775,35.6019904 20.0382872,35.6019904 C18.7531791,35.6019904 17.5078304,35.4317602 16.3235603,35.112619 L18.3152904,31.6631132 C18.8757973,31.7561677 19.4513883,31.804583 20.0382872,31.804583 C20.9255301,31.804583 21.7869299,31.6939357 22.6094406,31.4856871 Z M9.35799261,22.4286681 L9.43986436,22.5619443 L14.564336,31.6721161 C14.7327278,31.9714794 14.8211849,32.3091648 14.8211849,32.6526386 C14.8211849,33.7070004 14.0053071,34.5708037 12.9704472,34.6471528 L12.8211849,34.6526386 L2.57224168,34.6526386 C2.22876796,34.6526386 1.89108248,34.5641815 1.5917192,34.3957896 C0.674847048,33.880049 0.321489915,32.7494308 0.757707841,31.8112923 L0.829090601,31.6721161 L5.95356221,22.5619443 C6.13313976,22.2426953 6.39694183,21.9788933 6.71619081,21.7993157 C7.63306295,21.2835751 8.78278266,21.5687126 9.35799261,22.4286681 Z M32.3798612,24.6844442 C30.0204547,24.6844442 28.1077779,26.5971211 28.1077779,28.9565275 C28.1077779,31.315934 30.0204547,33.2286108 32.3798612,33.2286108 C34.7392676,33.2286108 36.6519445,31.315934 36.6519445,28.9565275 C36.6519445,26.5971211 34.7392676,24.6844442 32.3798612,24.6844442 Z M7.69671329,24.2097683 L3.42463,31.804583 L11.9687966,31.804583 L7.69671329,24.2097683 Z M9.06655987,12.2832996 L11.1451073,15.8849108 C10.6210418,16.7340746 10.2151976,17.6639462 9.95052945,18.6515708 L5.93763093,19.3597393 C6.31290426,16.6924764 7.4271052,14.2624385 9.06655987,12.2832996 Z M31.0100146,12.2832996 C32.6494693,14.2624385 33.7636702,16.6924764 34.1389435,19.3597393 L30.1260258,18.651499 C29.8612337,17.6634405 29.4551413,16.7331867 28.9307338,15.8837227 L31.0100146,12.2832996 Z M25.1584261,1.9 C26.2629956,1.9 27.1584261,2.7954305 27.1584261,3.9 L27.1584261,14.1402776 C27.1584261,15.2448471 26.2629956,16.1402776 25.1584261,16.1402776 L14.9181484,16.1402776 C13.8135789,16.1402776 12.9181484,15.2448471 12.9181484,14.1402776 L12.9181484,3.9 C12.9181484,2.7954305 13.8135789,1.9 14.9181484,1.9 L25.1584261,1.9 Z M24.3103705,4.74805553 L15.7662039,4.74805553 L15.7662039,13.2922221 L24.3103705,13.2922221 L24.3103705,4.74805553 Z" id="形状结合"></path>
                </g>
            </g>
        </g>
    </g>
</svg>