<?xml version="1.0" encoding="UTF-8"?>
<svg width="234px" height="140px" viewBox="0 0 234 140" version="1.1" xmlns="http://www.w3.org/2000/svg" xmlns:xlink="http://www.w3.org/1999/xlink">
    <!-- Generator: Sketch 58 (84663) - https://sketch.com -->
    <title>deploy-1</title>
    <desc>Created with Sketch.</desc>
    <defs>
        <rect id="path-1" x="0" y="0" width="62" height="128" rx="5"></rect>
        <filter x="-16.1%" y="-6.2%" width="132.3%" height="115.6%" filterUnits="objectBoundingBox" id="filter-2">
            <feOffset dx="0" dy="2" in="SourceAlpha" result="shadowOffsetOuter1"></feOffset>
            <feGaussianBlur stdDeviation="3" in="shadowOffsetOuter1" result="shadowBlurOuter1"></feGaussianBlur>
            <feColorMatrix values="0 0 0 0 0   0 0 0 0 0   0 0 0 0 0  0 0 0 0.16 0" type="matrix" in="shadowBlurOuter1"></feColorMatrix>
        </filter>
    </defs>
    <g id="页面-1" stroke="none" stroke-width="1" fill="none" fill-rule="evenodd">
        <g id="产品模块" transform="translate(-263.000000, -2255.000000)">
            <g id="deploy-1" transform="translate(263.000000, 2259.000000)">
                <g id="编组-28" transform="translate(50.000000, 0.000000)">
                    <g id="Rectangle-4-Copy-15">
                        <use fill="black" fill-opacity="1" filter="url(#filter-2)" xlink:href="#path-1"></use>
                        <use fill="#FFFFFF" fill-rule="evenodd" xlink:href="#path-1"></use>
                    </g>
                    <g id="编组-27" transform="translate(13.000000, 5.000000)">
                        <g id="Group-11-Copy-3">
                            <path d="M12.7989094,11.2956921 L29.1047507,5.20450278 C29.6221158,5.01123654 30.1981963,5.27397055 30.3914625,5.79133562 C30.4813114,6.03185703 30.4752035,6.2977229 30.3744041,6.53386446 L23.6740958,22.2305869 C23.5728954,22.4676677 23.3840522,22.6565109 23.1469713,22.7577114 L7.45024891,29.4580196 C6.94230497,29.6748408 6.3547668,29.4388391 6.13794567,28.9308951 C6.03714621,28.6947536 6.03103835,28.4288877 6.12088722,28.1883663 L12.2120766,11.882525 C12.3134522,11.611147 12.5275314,11.3970677 12.7989094,11.2956921 Z" id="Rectangle-7" fill="#9BBBF8" transform="translate(18.256175, 17.339783) rotate(45.000000) translate(-18.256175, -17.339783) "></path>
                            <path d="M4.15338253,20.7451007 L21.0950514,20.7451007 C21.6473362,20.7451007 22.0950514,21.192816 22.0950514,21.7451007 C22.0950514,21.871946 22.0709188,21.9976332 22.0239406,22.1154584 L15.8507386,37.5983831 C15.6991474,37.978587 15.3311596,38.2280254 14.9218494,38.2280254 L-1.85053511,38.2280254 C-2.40281986,38.2280254 -2.85053511,37.7803101 -2.85053511,37.2280254 C-2.85053511,37.1043644 -2.8275987,36.9817759 -2.78288963,36.86648 L3.22102801,21.3835554 C3.37026188,20.9987105 3.74061588,20.7451007 4.15338253,20.7451007 Z" id="Rectangle-7-Copy" fill="#81A4E8" transform="translate(9.622258, 29.486563) rotate(90.000000) translate(-9.622258, -29.486563) "></path>
                            <path d="M20.9396068,20.9000437 L37.8764905,20.9000437 C38.4287753,20.9000437 38.8764905,21.347759 38.8764905,21.9000437 C38.8764905,22.0287117 38.8516595,22.1561705 38.8033594,22.2754289 L32.6802658,37.3940483 C32.5273583,37.7715942 32.1607317,38.0186631 31.7533968,38.0186631 L14.9853322,38.0186631 C14.4330475,38.0186631 13.9853322,37.5709479 13.9853322,37.0186631 C13.9853322,36.8932343 14.008929,36.768925 14.0548914,36.6522209 L20.009166,21.5336015 C20.1597177,21.1513327 20.5287599,20.9000437 20.9396068,20.9000437 Z" id="Rectangle-7-Copy-2" fill="#6694EF" transform="translate(26.430911, 29.459353) scale(-1, 1) rotate(90.000000) translate(-26.430911, -29.459353) "></path>
                        </g>
                        <polygon id="Fill-45-Copy-5" fill="#9B9B9B" transform="translate(18.125308, 61.000000) rotate(90.000000) translate(-18.125308, -61.000000) " points="26.2504265 58 26.2504265 60.2498578 7 60.2498578 7 61.7501422 26.2504265 61.7501422 26.2504265 64 29.2506161 61.0001896"></polygon>
                        <g id="Group-13" transform="translate(4.000000, 81.000000)">
                            <g id="Group-12" transform="translate(0.000000, 16.604651)">
                                <path d="M14.2325581,17.0923541 C22.092983,17.0923541 28.4651163,14.2602948 28.4651163,10.7667727 C28.4651163,9.50104043 28.4651163,8.02064333 28.4651163,6.3255814 L0,6.3255814 C0,6.95736083 0,8.43775793 0,10.7667727 C0,14.2602948 6.37213333,17.0923541 14.2325581,17.0923541 Z" id="Oval-4-Copy" fill="#B7B7B7"></path>
                                <ellipse id="Oval-4" fill="#ECECEC" cx="14.2325581" cy="6.3255814" rx="14.2325581" ry="6.3255814"></ellipse>
                            </g>
                            <g id="Group-12-Copy" transform="translate(0.000000, 8.697674)">
                                <path d="M14.2325581,17.0923541 C22.092983,17.0923541 28.4651163,14.2602948 28.4651163,10.7667727 C28.4651163,9.50104043 28.4651163,8.02064333 28.4651163,6.3255814 L0,6.3255814 C0,6.95736083 0,8.43775793 0,10.7667727 C0,14.2602948 6.37213333,17.0923541 14.2325581,17.0923541 Z" id="Oval-4-Copy" fill="#B7B7B7"></path>
                                <ellipse id="Oval-4" fill="#ECECEC" cx="14.2325581" cy="6.3255814" rx="14.2325581" ry="6.3255814"></ellipse>
                            </g>
                            <g id="Group-12-Copy-2">
                                <path d="M14.2325581,17.0923541 C22.092983,17.0923541 28.4651163,14.2602948 28.4651163,10.7667727 C28.4651163,9.50104043 28.4651163,8.02064333 28.4651163,6.3255814 L0,6.3255814 C0,6.95736083 0,8.43775793 0,10.7667727 C0,14.2602948 6.37213333,17.0923541 14.2325581,17.0923541 Z" id="Oval-4-Copy" fill="#B7B7B7"></path>
                                <ellipse id="Oval-4" fill="#ECECEC" cx="14.2325581" cy="6.3255814" rx="14.2325581" ry="6.3255814"></ellipse>
                            </g>
                        </g>
                    </g>
                </g>
                <g id="编组-6">
                    <rect id="Rectangle-4-Copy-12" fill="#FFFFFF" x="0" y="0" width="40" height="40" rx="5"></rect>
                    <path d="M19.989,9 C13.917,9 9,13.928 9,20 C9,26.072 13.917,31 19.989,31 C26.072,31 31,26.072 31,20 C31,13.928 26.072,9 19.989,9 L19.989,9 Z M27.612,15.6 L24.367,15.6 C24.015,14.225 23.509,12.905 22.849,11.684 C24.873,12.377 26.556,13.785 27.612,15.6 L27.612,15.6 Z M20,11.244 C20.913,12.564 21.628,14.027 22.101,15.6 L17.899,15.6 C18.372,14.027 19.087,12.564 20,11.244 L20,11.244 Z M11.486,22.2 C11.31,21.496 11.2,20.759 11.2,20 C11.2,19.241 11.31,18.504 11.486,17.8 L15.204,17.8 C15.116,18.526 15.05,19.252 15.05,20 C15.05,20.748 15.116,21.474 15.204,22.2 L11.486,22.2 L11.486,22.2 Z M12.388,24.4 L15.633,24.4 C15.985,25.775 16.491,27.095 17.151,28.316 C15.127,27.623 13.444,26.226 12.388,24.4 L12.388,24.4 Z M15.633,15.6 L12.388,15.6 C13.444,13.774 15.127,12.377 17.151,11.684 C16.491,12.905 15.985,14.225 15.633,15.6 L15.633,15.6 Z M20,28.756 C19.087,27.436 18.372,25.973 17.899,24.4 L22.101,24.4 C21.628,25.973 20.913,27.436 20,28.756 L20,28.756 Z M22.574,22.2 L17.426,22.2 C17.327,21.474 17.25,20.748 17.25,20 C17.25,19.252 17.327,18.515 17.426,17.8 L22.574,17.8 C22.673,18.515 22.75,19.252 22.75,20 C22.75,20.748 22.673,21.474 22.574,22.2 L22.574,22.2 Z M22.849,28.316 C23.509,27.095 24.015,25.775 24.367,24.4 L27.612,24.4 C26.556,26.215 24.873,27.623 22.849,28.316 L22.849,28.316 Z M24.796,22.2 C24.884,21.474 24.95,20.748 24.95,20 C24.95,19.252 24.884,18.526 24.796,17.8 L28.514,17.8 C28.69,18.504 28.8,19.241 28.8,20 C28.8,20.759 28.69,21.496 28.514,22.2 L24.796,22.2 L24.796,22.2 Z" id="Fill-127" fill="#F8F1A1"></path>
                </g>
                <g id="编组-6" transform="translate(0.000000, 50.000000)">
                    <rect id="Rectangle-4-Copy-12" fill="#FFFFFF" x="0" y="0" width="40" height="40" rx="5"></rect>
                    <path d="M9,19.764516 L15.4703224,19.764516 L15.4703224,12 L9,12 L9,19.764516 Z M9,28.8232257 L15.4703224,28.8232257 L15.4703224,21.0587096 L9,21.0587096 L9,28.8232257 Z M16.764516,28.8232257 L23.2348385,28.8232257 L23.2348385,21.0587096 L16.764516,21.0587096 L16.764516,28.8232257 Z M24.5296776,28.8232257 L31,28.8232257 L31,21.0587096 L24.5296776,21.0587096 L24.5296776,28.8232257 Z M16.764516,19.764516 L23.2348385,19.764516 L23.2348385,12 L16.764516,12 L16.764516,19.764516 Z M24.5296776,19.764516 L31,19.764516 L31,12 L24.5296776,12 L24.5296776,19.764516 Z" id="Fill-33" fill="#ECECEC"></path>
                </g>
                <g id="编组-6" transform="translate(194.000000, 38.000000)">
                    <rect id="Rectangle-4-Copy-12" fill="#FFFFFF" x="0" y="0" width="40" height="40" rx="5"></rect>
                    <path d="M13,10 C13,9.45 12.55,9 12,9 C11.45,9 11,9.45 11,10 L11,14 L9,14 L9,20 L15,20 L15,14 L13,14 L13,10 L13,10 Z M17,24 C17,25.3 17.84,26.3995 19,26.82 L19,31 L21,31 L21,26.82 C22.16,26.41 23,25.3095 23,24 L23,22 L17,22 L17,24 L17,24 Z M9,24 C9,25.3 9.84,26.3995 11,26.82 L11,31 L13,31 L13,26.82 C14.16,26.3995 15,25.3 15,24 L15,22 L9,22 L9,24 L9,24 Z M29,14 L29,10 C29,9.45 28.55,9 28,9 C27.45,9 27,9.45 27,10 L27,14 L25,14 L25,20 L31,20 L31,14 L29,14 L29,14 Z M21,10 C21,9.45 20.55,9 20,9 C19.45,9 19,9.45 19,10 L19,14 L17,14 L17,20 L23,20 L23,14 L21,14 L21,10 L21,10 Z M25,24 C25,25.3 25.84,26.3995 27,26.82 L27,31 L29,31 L29,26.82 C30.16,26.41 31,25.3095 31,24 L31,22 L25,22 L25,24 L25,24 Z" id="Fill-82" fill="#9BE8EF"></path>
                </g>
                <g id="编组-6" transform="translate(194.000000, 88.000000)">
                    <rect id="Rectangle-4-Copy-12" fill="#FFFFFF" x="0" y="0" width="40" height="40" rx="5"></rect>
                    <path d="M9,19.764516 L15.4703224,19.764516 L15.4703224,12 L9,12 L9,19.764516 Z M9,28.8232257 L15.4703224,28.8232257 L15.4703224,21.0587096 L9,21.0587096 L9,28.8232257 Z M16.764516,28.8232257 L23.2348385,28.8232257 L23.2348385,21.0587096 L16.764516,21.0587096 L16.764516,28.8232257 Z M24.5296776,28.8232257 L31,28.8232257 L31,21.0587096 L24.5296776,21.0587096 L24.5296776,28.8232257 Z M16.764516,19.764516 L23.2348385,19.764516 L23.2348385,12 L16.764516,12 L16.764516,19.764516 Z M24.5296776,19.764516 L31,19.764516 L31,12 L24.5296776,12 L24.5296776,19.764516 Z" id="Fill-33" fill="#ECECEC"></path>
                </g>
                <g id="编组-26" transform="translate(122.000000, 0.000000)">
                    <rect id="Rectangle-4-Copy-17" fill="#FFFFFF" x="0" y="0" width="62" height="128" rx="5"></rect>
                    <g id="编组-25" transform="translate(15.000000, 16.000000)">
                        <polygon id="Fill-45-Copy-5" fill="#9B9B9B" transform="translate(16.125308, 50.000000) rotate(90.000000) translate(-16.125308, -50.000000) " points="24.2504265 47 24.2504265 49.2498578 5 49.2498578 5 50.7501422 24.2504265 50.7501422 24.2504265 53 27.2506161 50.0001896"></polygon>
                        <g id="Group-13" transform="translate(1.000000, 70.000000)">
                            <g id="Group-12" transform="translate(0.000000, 16.604651)">
                                <path d="M14.2325581,17.0923541 C22.092983,17.0923541 28.4651163,14.2602948 28.4651163,10.7667727 C28.4651163,9.50104043 28.4651163,8.02064333 28.4651163,6.3255814 L0,6.3255814 C0,6.95736083 0,8.43775793 0,10.7667727 C0,14.2602948 6.37213333,17.0923541 14.2325581,17.0923541 Z" id="Oval-4-Copy" fill="#B7B7B7"></path>
                                <ellipse id="Oval-4" fill="#ECECEC" cx="14.2325581" cy="6.3255814" rx="14.2325581" ry="6.3255814"></ellipse>
                            </g>
                            <g id="Group-12-Copy" transform="translate(0.000000, 8.697674)">
                                <path d="M14.2325581,17.0923541 C22.092983,17.0923541 28.4651163,14.2602948 28.4651163,10.7667727 C28.4651163,9.50104043 28.4651163,8.02064333 28.4651163,6.3255814 L0,6.3255814 C0,6.95736083 0,8.43775793 0,10.7667727 C0,14.2602948 6.37213333,17.0923541 14.2325581,17.0923541 Z" id="Oval-4-Copy" fill="#B7B7B7"></path>
                                <ellipse id="Oval-4" fill="#ECECEC" cx="14.2325581" cy="6.3255814" rx="14.2325581" ry="6.3255814"></ellipse>
                            </g>
                            <g id="Group-12-Copy-2">
                                <path d="M14.2325581,17.0923541 C22.092983,17.0923541 28.4651163,14.2602948 28.4651163,10.7667727 C28.4651163,9.50104043 28.4651163,8.02064333 28.4651163,6.3255814 L0,6.3255814 C0,6.95736083 0,8.43775793 0,10.7667727 C0,14.2602948 6.37213333,17.0923541 14.2325581,17.0923541 Z" id="Oval-4-Copy" fill="#B7B7B7"></path>
                                <ellipse id="Oval-4" fill="#ECECEC" cx="14.2325581" cy="6.3255814" rx="14.2325581" ry="6.3255814"></ellipse>
                            </g>
                        </g>
                        <path d="M27.380625,14.655 C29.8569965,14.655 31.8844495,16.613724 31.995175,19.0631906 L31.9999375,19.2743125 L31.9999375,24.373125 C31.9999375,25.8447731 30.8470167,27.0522574 29.3969035,27.1396819 L29.2283125,27.14475 L25.137,27.14475 C25.21905,26.91345 25.27154,26.66823 25.289254,26.41357 L25.2959375,26.220875 L25.2959375,16.86775 C25.2959375,16.2019107 25.1946875,15.5592143 25.0069076,14.9542628 L24.905875,14.655 L27.380625,14.655 Z M7.094125,14.6550625 C6.87791071,15.2470268 6.74577296,15.8791237 6.71243185,16.5368694 L6.7040625,16.8678125 L6.7040625,26.2209375 C6.7040625,26.4800375 6.7401425,26.7307775 6.8070865,26.9688055 L6.863,27.144875 L2.771625,27.144875 C1.29991667,27.144875 0.0924881687,25.9918963 0.00506782503,24.5418345 L-8.2600593e-14,24.37325 L-8.2600593e-14,19.2744375 C-8.2600593e-14,16.798066 1.95872396,14.7705539 4.40824807,14.6598251 L4.619375,14.6550625 L7.094125,14.6550625 Z M13.1711875,12.2484375 L18.8288125,12.2484375 C21.305184,12.2484375 23.3326961,14.2071615 23.4434249,16.6566856 L23.4481875,16.8678125 L23.4481875,26.2209375 C23.4481875,26.6947411 23.0915415,27.0852302 22.6320573,27.138597 L22.5243125,27.1448125 L9.4756875,27.1448125 C9.00188393,27.1448125 8.61139477,26.7881126 8.55802797,26.3286708 L8.5518125,26.2209375 L8.5518125,16.8678125 C8.5518125,14.391441 10.5105365,12.3639289 12.9600606,12.2532001 L13.1711875,12.2484375 L18.8288125,12.2484375 Z M6.244875,5.1780625 C8.5358125,5.1780625 10.3995625,7.041875 10.3995625,9.33275 C10.3995625,10.0378125 10.2225,10.702125 9.91125,11.2844375 C9.4678125,12.114125 8.7511875,12.7765 7.8820625,13.1506875 C7.379375,13.3670625 6.826,13.4874375 6.244875,13.4874375 C3.9539375,13.4874375 2.0901875,11.6236875 2.0901875,9.33275 C2.0901875,7.0418125 3.9539375,5.1780625 6.244875,5.1780625 Z M25.755125,5.1780625 C28.0460625,5.1780625 29.9098125,7.0418125 29.9098125,9.33275 C29.9098125,11.6236875 28.0460625,13.4874375 25.755125,13.4874375 C25.174,13.4874375 24.620625,13.3670625 24.1179375,13.1506875 C23.2488125,12.7765625 22.5321875,12.1141875 22.08875,11.2844375 C21.7775,10.7021875 21.6004375,10.037875 21.6004375,9.33275 C21.6004375,7.0418125 23.4641875,5.1780625 25.755125,5.1780625 Z M16,-9.76996262e-15 C19.06325,-9.76996262e-15 21.555375,2.4921875 21.555375,5.5554375 C21.555375,7.6331875 20.408625,9.4479375 18.7149375,10.4006875 C17.911625,10.8525625 16.9855,11.1108125 16,11.1108125 C15.0145,11.1108125 14.088375,10.8525625 13.2850625,10.4006875 C11.5914375,9.4479375 10.444625,7.63325 10.444625,5.5554375 C10.444625,2.492125 12.93675,-9.76996262e-15 16,-9.76996262e-15 Z" id="形状结合" fill="#E2E2E2" fill-rule="nonzero"></path>
                    </g>
                </g>
            </g>
        </g>
    </g>
</svg>