<?xml version="1.0" encoding="UTF-8"?>
<svg width="60px" height="60px" viewBox="0 0 60 60" version="1.1" xmlns="http://www.w3.org/2000/svg" xmlns:xlink="http://www.w3.org/1999/xlink">
    <!-- Generator: Sketch 58 (84663) - https://sketch.com -->
    <title>deploy-icon</title>
    <desc>Created with Sketch.</desc>
    <g id="页面-1" stroke="none" stroke-width="1" fill="none" fill-rule="evenodd">
        <g id="产品模块" transform="translate(-220.000000, -2033.000000)">
            <g id="deploy-icon" transform="translate(220.000000, 2033.000000)">
                <path d="M60,30 C60,46.5684545 46.5684545,60 30,60 C13.4315455,60 0,46.5684545 0,30 C0,13.4315455 13.4315455,0 30,0 C46.5684545,0 60,13.4315455 60,30" id="Fill-1" fill="#7E60EA"></path>
                <g id="编组" transform="translate(10.000000, 10.000000)">
                    <polygon id="icon-database" points="0 0 40 0 40 40 0 40"></polygon>
                    <path d="M28.7062546,23.6540159 L31.3147031,23.6540159 C31.4488519,23.6540159 31.5734186,23.738055 31.6144846,23.8581109 L31.627717,23.9209179 L31.8755196,25.5985878 C32.1989672,25.7206002 32.4973737,25.8832833 32.7774167,26.0736226 L32.9841102,26.2213592 L34.6013483,25.5858782 C34.7317707,25.5435128 34.8712502,25.5717564 34.9594061,25.6632539 L35.0056578,25.725684 L36.309882,27.9244484 C36.3750933,28.0409532 36.3587905,28.1751103 36.2836164,28.275434 L36.2316286,28.3311562 L34.8491509,29.3860547 C34.8882776,29.5894086 34.9013198,29.7927626 34.9013198,30.0088261 C34.9013198,30.1528685 34.8897267,30.2912621 34.8742693,30.4277729 L34.8491509,30.6315975 L36.2446708,31.686496 C36.3424876,31.7712268 36.3859618,31.9000883 36.3524505,32.0215946 L36.3229243,32.0932039 L35.0187,34.2919682 C34.9426203,34.4084731 34.8121979,34.4631951 34.6878135,34.4487791 L34.6143905,34.4317741 L32.9841102,33.796293 C32.7232653,33.999647 32.4290323,34.1704643 32.1214441,34.3152523 L31.8885618,34.4190644 L31.6407592,36.0967343 C31.6184011,36.2274619 31.5098044,36.3301763 31.3806748,36.3568554 L31.3147031,36.3636364 L28.7062546,36.3636364 C28.5609268,36.3636364 28.4443451,36.2795972 28.3975755,36.1595414 L28.3801985,36.0967343 L28.1323959,34.4190644 C27.8089483,34.2970521 27.5105418,34.1343689 27.2304988,33.9440297 L27.0238053,33.796293 L25.4065672,34.4317741 C25.2761448,34.4741395 25.1366653,34.4458959 25.0485094,34.3543984 L25.0022577,34.2919682 L23.6980335,32.0932039 C23.6328222,31.976699 23.649125,31.8425419 23.7242991,31.7422183 L23.7762869,31.686496 L25.1587646,30.6315975 C25.1326801,30.4282436 25.1196379,30.2248897 25.1196379,30.0088261 C25.1196379,29.8647838 25.1254345,29.7263901 25.1370276,29.5898794 L25.1587646,29.3860547 L23.7762869,28.3311562 C23.6676016,28.2464254 23.6313731,28.117564 23.6676016,27.9960577 L23.6980335,27.9244484 L25.0022577,25.725684 C25.0783375,25.6091792 25.2087599,25.5544572 25.3331442,25.5688732 L25.4065672,25.5858782 L27.0238053,26.2213592 C27.295084,26.0180053 27.5914037,25.847188 27.8994093,25.7024 L28.1323959,25.5985878 L28.3801985,23.9209179 C28.4025567,23.7901904 28.5111533,23.6874759 28.6402829,23.6607968 L28.7062546,23.6540159 L31.3147031,23.6540159 Z M19.2561983,3.63636364 C23.2174785,3.63636364 26.9572274,3.9919938 29.7808129,4.63352273 C31.2151343,4.96126033 32.3565838,5.3517562 33.1788779,5.79455062 C33.5806381,6.01071798 33.9148125,6.24431818 34.1738914,6.49535124 C34.6394827,6.9451188 34.8760331,7.44369835 34.8760331,7.99108988 L34.8736863,8.07476756 L34.8736863,8.07476756 L34.8685235,8.15844525 L34.8685235,15.1420455 L34.8760331,15.1420455 L34.8764189,21.8113971 C34.051265,21.3203682 33.145676,20.9503875 32.1841423,20.7259452 L32.1838704,19.0241322 C32.1585362,19.0353161 32.1368212,19.0437041 32.111487,19.052092 C31.6621069,19.2151907 31.142354,19.3666395 30.5564172,19.5080564 L30.1969466,19.5917156 L30.0015115,19.6336553 L29.9037939,19.6560231 L29.8531255,19.665809 L29.8531255,19.665809 L29.5278527,19.731165 L29.2451051,19.7846381 C29.2052942,19.793026 29.1618642,19.7986179 29.1184342,19.8070059 C29.0750042,19.8153938 29.0315741,19.8209858 28.9881441,19.8293737 C28.9085224,19.8433536 28.8216623,19.8573335 28.7384214,19.8713134 C28.6949914,19.8797013 28.6515614,19.8852932 28.6081313,19.8936812 C28.3379,19.9384168 28.0596262,19.9806671 27.774382,20.0204321 L27.3414222,20.0782157 L27.0736036,20.1117674 C26.8817877,20.1369312 26.6827334,20.159299 26.4836791,20.1816668 C26.440249,20.1844628 26.3931998,20.1900548 26.3461506,20.1956467 L26.1905264,20.2124226 L26.1905264,20.2124226 L26.0349021,20.2291984 L25.904612,20.2431783 C25.4703117,20.287914 25.0251539,20.3270577 24.5727578,20.3606094 C24.5220894,20.3634054 24.4678019,20.3689973 24.4135143,20.3717933 C24.2759859,20.3801812 24.1384575,20.3913651 24.0009291,20.3997531 C23.9466415,20.402549 23.892354,20.408141 23.8380664,20.410937 C23.5593904,20.4305088 23.2770952,20.4472847 22.9911809,20.4612646 L22.9237739,20.463012 L22.9237739,20.463012 L22.8536524,20.4668565 L22.4844972,20.4836324 C22.4410672,20.4864284 22.3976371,20.4864284 22.3542071,20.4892243 C22.1298186,20.4976123 21.9054301,20.5060002 21.6774225,20.5143881 C21.6195158,20.5171841 21.5652282,20.5171841 21.5073215,20.5199801 C21.3915081,20.5227761 21.2793139,20.525572 21.1635005,20.528368 C21.0621637,20.531164 20.9572078,20.53396 20.8522519,20.5367559 C20.6676743,20.5423479 20.4794775,20.5451439 20.2912807,20.5479399 L20.1646098,20.5493378 L20.1646098,20.5493378 L20.0379389,20.5507358 L19.9691747,20.5507358 L19.8026929,20.5531823 L19.8026929,20.5531823 L19.6362111,20.5535318 L19.2561983,20.5535318 C15.6500985,20.5535318 12.2344629,20.3016436 9.57333168,19.8402642 L9.11166731,19.7566783 L8.98137723,19.7315145 C8.94518553,19.7231266 8.90537467,19.7175346 8.86918298,19.7091467 C8.81127628,19.6979628 8.75336957,19.6867789 8.69908203,19.6755949 C8.63755616,19.6616151 8.57964945,19.6504311 8.51812358,19.6364513 L8.43895425,19.6196754 L8.43895425,19.6196754 L8.36249931,19.6028995 L8.24306673,19.5777357 C8.1996367,19.5665518 8.15620667,19.5581639 8.11277664,19.54698 C8.05125076,19.5330001 7.98972489,19.5162242 7.92819901,19.5022443 L7.65495174,19.4347914 L7.65495174,19.4347914 L7.39256198,19.3652415 L7.31294026,19.3428736 C7.17179267,19.30373 7.03788341,19.2617903 6.90759332,19.2226466 C6.88225914,19.2170547 6.85692495,19.2086667 6.83159077,19.2002788 C6.80625659,19.1946868 6.78454157,19.1862989 6.75920739,19.177911 L6.71758694,19.1628826 L6.71758694,19.1628826 L6.6759665,19.1499512 L6.59996395,19.1247874 C6.57824893,19.1191955 6.56015309,19.1136035 6.53843807,19.1052156 L6.42488664,19.0646739 L6.42488664,19.0646739 L6.31404959,19.0241322 L6.31404959,23.2041183 L6.3357646,23.2250881 L6.3357646,23.2250881 L6.36833712,23.2544459 L6.39005214,23.2712217 C6.43348217,23.3075695 6.49862721,23.3495091 6.58910644,23.4026327 C6.59996395,23.4082246 6.60720229,23.4138166 6.61805979,23.4194085 C6.66872816,23.4473683 6.72663487,23.4781241 6.79177991,23.5088798 C6.80263742,23.5116758 6.81349492,23.5172677 6.82435243,23.5228597 C6.90397415,23.5592074 6.99445338,23.5983511 7.09940929,23.6402907 C7.10664762,23.6458827 7.11750513,23.6486787 7.12474347,23.6514747 C7.13198181,23.6542706 7.13922015,23.6598626 7.15007765,23.6626586 C7.1681735,23.6682505 7.18626934,23.6738425 7.20436519,23.6822304 C7.28760608,23.7129862 7.38170448,23.7465379 7.48304121,23.7800896 C7.50475623,23.7884775 7.52647124,23.7940695 7.54818626,23.8024574 C7.54818626,23.8052534 7.55180542,23.8052534 7.55180542,23.8052534 C7.57352044,23.8108454 7.59161628,23.8192333 7.6133313,23.8248253 C7.76171723,23.8723569 7.92457984,23.9198885 8.1055383,23.9702161 C8.13449165,23.975808 8.16344501,23.984196 8.19239836,23.9925839 C8.29373509,24.0186797 8.39989739,24.0447755 8.51195759,24.0716997 L8.68460536,24.1128109 L8.72079705,24.1211988 L8.76106031,24.1309848 L8.76106031,24.1309848 L8.80403794,24.1407707 L8.86556381,24.1547506 L8.92889927,24.1687305 L8.95604304,24.1743224 L9.0668801,24.1980882 L9.0668801,24.1980882 L9.18043153,24.221854 L9.29986411,24.2470178 C9.54958678,24.2973454 9.82102446,24.347673 10.1141772,24.3980006 C12.615023,24.8229891 15.8614177,25.0578512 19.2561983,25.0578512 C20.148923,25.0578512 21.0313864,25.0416098 21.8927289,25.0099404 C21.3878623,25.8250498 21.0038684,26.7224899 20.7638551,27.6771171 C20.2670988,27.6869543 19.763533,27.6919394 19.2561983,27.6919394 C15.4369069,27.6919394 11.8312061,27.4094148 9.10882968,26.8947165 L9.00565451,26.8761846 L9.00565451,26.8761846 L8.90247934,26.8555547 L8.80111426,26.8359737 C8.76853262,26.8303792 8.73233081,26.8247847 8.69974918,26.8163928 C8.63458591,26.8024065 8.56580246,26.7884201 8.5006392,26.7744337 C8.33411085,26.7380692 8.17120268,26.7017046 8.0119147,26.6653401 L7.95580188,26.6513537 L7.95580188,26.6513537 L7.89968907,26.6373673 L7.78746345,26.6093946 L7.58609085,26.557645 L7.58609085,26.557645 L7.39286367,26.5058955 L7.31321967,26.4835173 C7.1720326,26.4443555 7.03808588,26.4023963 6.90775935,26.3632345 C6.88241808,26.35764 6.85707681,26.3492482 6.83173554,26.3408563 C6.80639427,26.3352618 6.78467318,26.32687 6.75933191,26.3184781 L6.71769982,26.3034428 L6.71769982,26.3034428 L6.67606773,26.2905054 L6.60004392,26.2653299 C6.57832283,26.2597354 6.56022193,26.2541409 6.53850084,26.245749 L6.42491764,26.2051886 L6.42491764,26.2051886 L6.31404959,26.1646281 L6.31404959,30.346552 C6.40455412,30.4444566 7.04170606,31.0178977 10.1152401,31.5381906 C12.6167855,31.9633761 15.8640883,32.1983471 19.2598185,32.1983471 C19.7528786,32.1983471 20.2428093,32.1933932 20.7277821,32.1836224 C20.9457764,33.1263857 21.3058946,34.0158093 21.7829486,34.8282916 C20.9563933,34.8596179 20.1114592,34.8760331 19.2561983,34.8760331 C15.2949182,34.8760331 11.5551693,34.5238895 8.73158376,33.8823605 C7.2972624,33.5581095 6.15581294,33.1676136 5.33351875,32.7283058 C4.27749027,32.159559 3.70987495,31.4774306 3.64304815,30.6962848 L3.63636364,30.5387397 L3.63636364,7.90392562 C3.64762794,7.72262397 3.68142085,7.54829545 3.74149714,7.38094008 C3.92923554,6.84749483 4.37605292,6.36634814 5.070685,5.94447314 C5.15328989,5.89566116 5.24340432,5.8433626 5.33351875,5.79455062 C6.15581294,5.3517562 7.2972624,4.96126033 8.73158376,4.63352273 C11.5551693,3.9919938 15.2949182,3.63636364 19.2561983,3.63636364 Z M30.0104789,28.1023831 C28.9279727,28.1023831 28.0541425,28.9539276 28.0541425,30.0088261 C28.0541425,31.0637246 28.9279727,31.9152692 30.0104789,31.9152692 C31.092985,31.9152692 31.9668153,31.0637246 31.9668153,30.0088261 C31.9668153,28.9539276 31.092985,28.1023831 30.0104789,28.1023831 Z M6.31636364,11.8843636 L6.31736364,11.8853636 L6.31766926,15.9061157 C6.32128894,15.9151753 6.33214796,15.9272549 6.35386601,15.948394 C6.36472504,15.9574537 6.37196439,15.9665133 6.38282342,15.9755729 C6.38644309,15.9816127 6.39730212,15.9906723 6.40454147,15.9967121 L6.41902017,16.0061492 L6.41902017,16.0061492 L6.43349887,16.0178512 L6.45521692,16.0359705 C6.46245627,16.0450302 6.46969562,16.0510699 6.48055465,16.0571097 C6.48417432,16.0601296 6.49141367,16.0631494 6.49865302,16.0691892 C6.54208913,16.099388 6.59638425,16.1326067 6.66153841,16.1718651 C6.66153841,16.174885 6.66515808,16.174885 6.66877776,16.1779048 C6.72669256,16.2111235 6.79184672,16.2473621 6.8678599,16.2836006 C6.97283048,16.3319187 7.09227976,16.3862765 7.23344709,16.4436542 C7.25154547,16.449694 7.26964385,16.4587536 7.28774222,16.4647934 C7.3058406,16.4708331 7.32393897,16.4798928 7.34203735,16.4859325 C7.38909313,16.5040518 7.43976858,16.5221711 7.49044403,16.5402904 C7.50130306,16.5463301 7.51216209,16.54935 7.52302111,16.5523699 L7.53930965,16.5595421 L7.53930965,16.5595421 L7.55559819,16.5644494 L7.58817527,16.5765289 C7.60989332,16.5855886 7.63161137,16.5916283 7.65332942,16.600688 C7.65694909,16.600688 7.66056877,16.600688 7.66418845,16.6037078 C7.69314585,16.6127675 7.71848357,16.6218271 7.74744098,16.6308868 C7.83431318,16.6580657 7.92480506,16.6852446 8.01891662,16.7154434 C8.05873304,16.7275229 8.0949298,16.7365825 8.13474622,16.7486621 C8.16370363,16.7577217 8.1962807,16.7667813 8.2252381,16.775841 C8.25419551,16.7849006 8.28315291,16.7909404 8.31211031,16.8 C8.32658901,16.8030199 8.34468739,16.8060398 8.35916609,16.8120795 L8.42296286,16.8301988 L8.42296286,16.8301988 L8.4894744,16.8483181 L8.63064173,16.8845566 L8.72837296,16.9087157 L8.80619598,16.9294773 L8.80619598,16.9294773 L8.884019,16.9479741 L8.96365185,16.9660934 C9.16273399,17.0144114 9.37629483,17.0627295 9.60795404,17.1080277 C9.64777047,17.1170873 9.69120657,17.1231271 9.731023,17.1321867 L9.77083942,17.1397364 L9.77083942,17.1397364 L9.81065585,17.1472861 L9.88666903,17.1623855 C9.90114773,17.1623855 9.91200676,17.1654054 9.92286578,17.1684253 L9.95544286,17.174465 L9.95544286,17.174465 L9.98801994,17.1805048 L10.1183282,17.2046638 C12.6195238,17.6636855 15.8663725,17.9173554 19.2616279,17.9173554 C22.6568832,17.9173554 25.9037319,17.6636855 28.4049275,17.2046638 C28.5279964,17.1805048 28.6474457,17.1593656 28.7632753,17.1352066 C28.7849934,17.1291669 28.8103311,17.126147 28.8320491,17.1201072 C28.8573869,17.1140675 28.8791049,17.1110476 28.900823,17.1050078 C29.2193544,17.0385705 29.5089284,16.9721331 29.7731647,16.9087157 C29.8021221,16.899656 29.8346992,16.8936163 29.8636566,16.8845566 C29.9469091,16.8634175 30.026542,16.8422783 30.1061748,16.8211392 C30.1423716,16.8120795 30.1785683,16.8030199 30.2111454,16.7939602 L30.3351193,16.7592316 L30.3351193,16.7592316 L30.4536636,16.724503 L30.4862407,16.7154434 C30.5332965,16.700344 30.5803523,16.6882645 30.6237884,16.6731651 C30.6346474,16.6701452 30.6491261,16.6671253 30.6636048,16.6610855 L30.7640508,16.6293768 L30.7640508,16.6293768 L30.8590673,16.5976681 L30.9133624,16.5795488 C30.9821362,16.5553898 31.0436707,16.5312307 31.1052052,16.5100916 C31.1160642,16.5070717 31.1269232,16.5010319 31.1377823,16.4980121 C31.1667397,16.4889524 31.1884577,16.4798928 31.2137954,16.4708331 C31.2318938,16.4617735 31.2463725,16.4557338 31.2644709,16.449694 C31.2825693,16.4436542 31.297048,16.4376145 31.3115267,16.4315747 C31.3223857,16.425535 31.3368644,16.4194952 31.3513431,16.4134554 C31.3622021,16.4104356 31.3694415,16.4043958 31.3803005,16.4013759 L31.3947792,16.3953362 L31.3947792,16.3953362 L31.4092579,16.3892964 L31.4345956,16.3772169 C31.441835,16.374197 31.452694,16.3681572 31.4599334,16.3651374 C31.4780317,16.3590976 31.4925104,16.3530579 31.5106088,16.3439982 C31.5250875,16.3379585 31.5431859,16.3288988 31.5576646,16.3228591 C31.575763,16.3168193 31.5902417,16.3077597 31.6047204,16.3017199 C31.6517761,16.2805807 31.6915926,16.2594416 31.731409,16.2383024 L31.7884189,16.2096136 L31.7884189,16.2096136 L31.8399993,16.1809247 L31.8725763,16.1628055 C32.0445109,16.0621428 32.1360083,15.9845487 32.1784892,15.9405088 L32.1983471,15.9181952 L32.1983471,11.8866562 C31.463553,12.1826044 30.5296768,12.4483538 29.4075775,12.6778646 C26.6855817,13.2335224 23.0803852,13.5415501 19.2616279,13.5415501 C15.4428705,13.5415501 11.837674,13.2365423 9.11567821,12.6778646 C8.04425434,12.4574134 7.14295521,12.2067635 6.42263984,11.9259147 L6.36834472,11.905908 L6.36834472,11.905908 L6.31636364,11.8843636 Z M5.85037428,15.0862603 L5.85037428,15.1862603 L5.87037428,15.1862603 C5.87037428,15.1425103 5.86037428,15.1112603 5.85037428,15.0862603 Z M6.31766926,11.8836364 L6.31404959,11.8836364 L6.31636364,11.8843636 L6.31766926,11.8836364 Z M19.2561983,6.31404959 C15.734226,6.31404959 12.3661991,6.60241577 9.77165448,7.12765416 C7.72155118,7.54303878 6.71902813,7.98245391 6.23841783,8.27425302 C6.0431699,8.39097266 5.9380364,8.48366179 5.87796011,8.54545455 C6.07696281,8.75143039 6.89550223,9.38308964 9.77165448,9.96325493 C12.3661991,10.4884933 15.734226,10.7768595 19.2561983,10.7768595 C22.7781707,10.7768595 26.1461976,10.4884933 28.7407422,9.96325493 C31.6168945,9.37965671 32.4354339,8.75143039 32.6344366,8.54545455 C32.5781151,8.48709472 32.4692268,8.39097266 32.2739789,8.27425302 C31.7933686,7.98245391 30.7870908,7.54303878 28.7407422,7.12765416 C26.1461976,6.60241577 22.7781707,6.31404959 19.2561983,6.31404959 Z" id="形状结合" fill="#FFFFFF" fill-rule="nonzero"></path>
                </g>
            </g>
        </g>
    </g>
</svg>