<?xml version="1.0" encoding="UTF-8"?>
<svg width="142px" height="140px" viewBox="0 0 142 140" version="1.1" xmlns="http://www.w3.org/2000/svg" xmlns:xlink="http://www.w3.org/1999/xlink">
    <!-- Generator: Sketch 47 (45396) - http://www.bohemiancoding.com/sketch -->
    <title>deployment-2</title>
    <desc>Created with Sketch.</desc>
    <defs>
        <rect id="path-1" x="0" y="0" width="62" height="128" rx="5"></rect>
        <filter x="-16.1%" y="-6.2%" width="132.3%" height="115.6%" filterUnits="objectBoundingBox" id="filter-2">
            <feOffset dx="0" dy="2" in="SourceAlpha" result="shadowOffsetOuter1"></feOffset>
            <feGaussianBlur stdDeviation="3" in="shadowOffsetOuter1" result="shadowBlurOuter1"></feGaussianBlur>
            <feColorMatrix values="0 0 0 0 0   0 0 0 0 0   0 0 0 0 0  0 0 0 0.16 0" type="matrix" in="shadowBlurOuter1"></feColorMatrix>
        </filter>
    </defs>
    <g id="产品模块" stroke="none" stroke-width="1" fill="none" fill-rule="evenodd">
        <g transform="translate(-519.000000, -3328.000000)" id="deployment-2">
            <g transform="translate(525.000000, 3332.000000)">
                <g id="Rectangle-4-Copy-15">
                    <use fill="black" fill-opacity="1" filter="url(#filter-2)" xlink:href="#path-1"></use>
                    <use fill="#FFFFFF" fill-rule="evenodd" xlink:href="#path-1"></use>
                </g>
                <g id="Group-11-Copy-3" transform="translate(13.000000, 5.000000)">
                    <path d="M12.7989094,11.2956921 L29.1047507,5.20450278 L29.1047507,5.20450278 C29.6221158,5.01123654 30.1981963,5.27397055 30.3914625,5.79133562 C30.4813114,6.03185703 30.4752035,6.2977229 30.3744041,6.53386446 L23.6740958,22.2305869 L23.6740958,22.2305869 C23.5728954,22.4676677 23.3840522,22.6565109 23.1469713,22.7577114 L7.45024891,29.4580196 L7.45024891,29.4580196 C6.94230497,29.6748408 6.3547668,29.4388391 6.13794567,28.9308951 C6.03714621,28.6947536 6.03103835,28.4288877 6.12088722,28.1883663 L12.2120766,11.882525 L12.2120766,11.882525 C12.3134522,11.611147 12.5275314,11.3970677 12.7989094,11.2956921 Z" id="Rectangle-7" fill="#9BBBF8" transform="translate(18.256175, 17.339783) rotate(45.000000) translate(-18.256175, -17.339783) "></path>
                    <path d="M4.15338253,20.7451007 L21.0950514,20.7451007 L21.0950514,20.7451007 C21.6473362,20.7451007 22.0950514,21.192816 22.0950514,21.7451007 C22.0950514,21.871946 22.0709188,21.9976332 22.0239406,22.1154584 L15.8507386,37.5983831 L15.8507386,37.5983831 C15.6991474,37.978587 15.3311596,38.2280254 14.9218494,38.2280254 L-1.85053511,38.2280254 L-1.85053511,38.2280254 C-2.40281986,38.2280254 -2.85053511,37.7803101 -2.85053511,37.2280254 C-2.85053511,37.1043644 -2.8275987,36.9817759 -2.78288963,36.86648 L3.22102801,21.3835554 L3.22102801,21.3835554 C3.37026188,20.9987105 3.74061588,20.7451007 4.15338253,20.7451007 Z" id="Rectangle-7-Copy" fill="#81A4E8" transform="translate(9.622258, 29.486563) rotate(90.000000) translate(-9.622258, -29.486563) "></path>
                    <path d="M20.9396068,20.9000437 L37.8764905,20.9000437 L37.8764905,20.9000437 C38.4287753,20.9000437 38.8764905,21.347759 38.8764905,21.9000437 C38.8764905,22.0287117 38.8516595,22.1561705 38.8033594,22.2754289 L32.6802658,37.3940483 L32.6802658,37.3940483 C32.5273583,37.7715942 32.1607317,38.0186631 31.7533968,38.0186631 L14.9853322,38.0186631 L14.9853322,38.0186631 C14.4330475,38.0186631 13.9853322,37.5709479 13.9853322,37.0186631 C13.9853322,36.8932343 14.008929,36.768925 14.0548914,36.6522209 L20.009166,21.5336015 L20.009166,21.5336015 C20.1597177,21.1513327 20.5287599,20.9000437 20.9396068,20.9000437 Z" id="Rectangle-7-Copy-2" fill="#6694EF" transform="translate(26.430911, 29.459353) scale(-1, 1) rotate(90.000000) translate(-26.430911, -29.459353) "></path>
                </g>
                <polygon id="Fill-45-Copy-5" fill="#9B9B9B" transform="translate(31.000000, 66.125308) rotate(90.000000) translate(-31.000000, -66.125308) " points="39.1251185 63.1253081 39.1251185 65.3751659 19.8746919 65.3751659 19.8746919 66.8754502 39.1251185 66.8754502 39.1251185 69.1253081 42.1253081 66.1254976"></polygon>
                <g id="Group-13" transform="translate(17.000000, 86.000000)">
                    <g id="Group-12" transform="translate(0.000000, 16.604651)">
                        <path d="M14.2325581,17.0923541 C22.092983,17.0923541 28.4651163,14.2602948 28.4651163,10.7667727 C28.4651163,9.50104043 28.4651163,8.02064333 28.4651163,6.3255814 L0,6.3255814 C0,6.95736083 0,8.43775793 0,10.7667727 C0,14.2602948 6.37213333,17.0923541 14.2325581,17.0923541 Z" id="Oval-4-Copy" fill="#B7B7B7"></path>
                        <ellipse id="Oval-4" fill="#ECECEC" cx="14.2325581" cy="6.3255814" rx="14.2325581" ry="6.3255814"></ellipse>
                    </g>
                    <g id="Group-12-Copy" transform="translate(0.000000, 8.697674)">
                        <path d="M14.2325581,17.0923541 C22.092983,17.0923541 28.4651163,14.2602948 28.4651163,10.7667727 C28.4651163,9.50104043 28.4651163,8.02064333 28.4651163,6.3255814 L0,6.3255814 C0,6.95736083 0,8.43775793 0,10.7667727 C0,14.2602948 6.37213333,17.0923541 14.2325581,17.0923541 Z" id="Oval-4-Copy" fill="#B7B7B7"></path>
                        <ellipse id="Oval-4" fill="#ECECEC" cx="14.2325581" cy="6.3255814" rx="14.2325581" ry="6.3255814"></ellipse>
                    </g>
                    <g id="Group-12-Copy-2">
                        <path d="M14.2325581,17.0923541 C22.092983,17.0923541 28.4651163,14.2602948 28.4651163,10.7667727 C28.4651163,9.50104043 28.4651163,8.02064333 28.4651163,6.3255814 L0,6.3255814 C0,6.95736083 0,8.43775793 0,10.7667727 C0,14.2602948 6.37213333,17.0923541 14.2325581,17.0923541 Z" id="Oval-4-Copy" fill="#B7B7B7"></path>
                        <ellipse id="Oval-4" fill="#ECECEC" cx="14.2325581" cy="6.3255814" rx="14.2325581" ry="6.3255814"></ellipse>
                    </g>
                </g>
                <rect id="Rectangle-4-Copy-17" fill="#FFFFFF" x="74" y="0" width="62" height="128" rx="5"></rect>
                <polygon id="Fill-45-Copy-5" fill="#9B9B9B" transform="translate(104.000000, 66.125308) rotate(90.000000) translate(-104.000000, -66.125308) " points="112.125118 63.1253081 112.125118 65.3751659 92.8746919 65.3751659 92.8746919 66.8754502 112.125118 66.8754502 112.125118 69.1253081 115.125308 66.1254976"></polygon>
                <g id="Group-13" transform="translate(90.000000, 86.000000)">
                    <g id="Group-12" transform="translate(0.000000, 16.604651)">
                        <path d="M14.2325581,17.0923541 C22.092983,17.0923541 28.4651163,14.2602948 28.4651163,10.7667727 C28.4651163,9.50104043 28.4651163,8.02064333 28.4651163,6.3255814 L0,6.3255814 C0,6.95736083 0,8.43775793 0,10.7667727 C0,14.2602948 6.37213333,17.0923541 14.2325581,17.0923541 Z" id="Oval-4-Copy" fill="#B7B7B7"></path>
                        <ellipse id="Oval-4" fill="#ECECEC" cx="14.2325581" cy="6.3255814" rx="14.2325581" ry="6.3255814"></ellipse>
                    </g>
                    <g id="Group-12-Copy" transform="translate(0.000000, 8.697674)">
                        <path d="M14.2325581,17.0923541 C22.092983,17.0923541 28.4651163,14.2602948 28.4651163,10.7667727 C28.4651163,9.50104043 28.4651163,8.02064333 28.4651163,6.3255814 L0,6.3255814 C0,6.95736083 0,8.43775793 0,10.7667727 C0,14.2602948 6.37213333,17.0923541 14.2325581,17.0923541 Z" id="Oval-4-Copy" fill="#B7B7B7"></path>
                        <ellipse id="Oval-4" fill="#ECECEC" cx="14.2325581" cy="6.3255814" rx="14.2325581" ry="6.3255814"></ellipse>
                    </g>
                    <g id="Group-12-Copy-2">
                        <path d="M14.2325581,17.0923541 C22.092983,17.0923541 28.4651163,14.2602948 28.4651163,10.7667727 C28.4651163,9.50104043 28.4651163,8.02064333 28.4651163,6.3255814 L0,6.3255814 C0,6.95736083 0,8.43775793 0,10.7667727 C0,14.2602948 6.37213333,17.0923541 14.2325581,17.0923541 Z" id="Oval-4-Copy" fill="#B7B7B7"></path>
                        <ellipse id="Oval-4" fill="#ECECEC" cx="14.2325581" cy="6.3255814" rx="14.2325581" ry="6.3255814"></ellipse>
                    </g>
                </g>
                <path d="M95.244875,21.2305625 C92.9539375,21.2305625 91.0901875,23.0943125 91.0901875,25.38525 C91.0901875,27.6761875 92.9539375,29.5399375 95.244875,29.5399375 C95.826,29.5399375 96.379375,29.4195625 96.8820625,29.2031875 C97.7511875,28.829 98.4678125,28.166625 98.91125,27.3369375 C99.2225,26.754625 99.3995625,26.0903125 99.3995625,25.38525 C99.3995625,23.094375 97.5358125,21.2305625 95.244875,21.2305625 Z" id="Shape" fill="#E2E2E2" fill-rule="nonzero"></path>
                <path d="M114.755125,21.2305625 C112.464188,21.2305625 110.600437,23.0943125 110.600437,25.38525 C110.600437,26.090375 110.7775,26.7546875 111.08875,27.3369375 C111.532187,28.1666875 112.248812,28.8290625 113.117937,29.2031875 C113.620625,29.4195625 114.174,29.5399375 114.755125,29.5399375 C117.046063,29.5399375 118.909812,27.6761875 118.909812,25.38525 C118.909813,23.0943125 117.046063,21.2305625 114.755125,21.2305625 Z" id="Shape" fill="#E2E2E2" fill-rule="nonzero"></path>
                <path d="M116.380625,30.7075 L113.905875,30.7075 C114.158125,31.398125 114.295937,32.1434375 114.295937,32.92025 L114.295937,42.273375 C114.295937,42.59725 114.239562,42.908125 114.137,43.19725 L118.228313,43.19725 C119.756625,43.19725 120.999938,41.953875 120.999938,40.425625 L120.999938,35.3268125 C121,32.77975 118.92775,30.7075 116.380625,30.7075 Z" id="Shape" fill="#E2E2E2" fill-rule="nonzero"></path>
                <path d="M95.7040625,32.9203125 C95.7040625,32.1434375 95.841875,31.3981875 96.094125,30.7075625 L93.619375,30.7075625 C91.07225,30.7075625 89,32.7798125 89,35.3269375 L89,40.42575 C89,41.954 90.2433125,43.197375 91.771625,43.197375 L95.863,43.197375 C95.7604375,42.908125 95.7040625,42.5973125 95.7040625,42.2734375 L95.7040625,32.9203125 Z" id="Shape" fill="#E2E2E2" fill-rule="nonzero"></path>
                <path d="M107.828812,28.3009375 L102.171187,28.3009375 C99.6240625,28.3009375 97.5518125,30.3731875 97.5518125,32.9203125 L97.5518125,42.2734375 C97.5518125,42.783625 97.9654375,43.1973125 98.4756875,43.1973125 L111.524312,43.1973125 C112.034562,43.1973125 112.448187,42.7836875 112.448187,42.2734375 L112.448187,32.9203125 C112.448187,30.3731875 110.375937,28.3009375 107.828812,28.3009375 Z" id="Shape" fill="#E2E2E2" fill-rule="nonzero"></path>
                <path d="M105,16.0525 C101.93675,16.0525 99.444625,18.544625 99.444625,21.6079375 C99.444625,23.68575 100.591437,25.5004375 102.285062,26.4531875 C103.088375,26.9050625 104.0145,27.1633125 105,27.1633125 C105.9855,27.1633125 106.911625,26.9050625 107.714937,26.4531875 C109.408625,25.5004375 110.555375,23.6856875 110.555375,21.6079375 C110.555375,18.5446875 108.06325,16.0525 105,16.0525 Z" id="Shape" fill="#E2E2E2" fill-rule="nonzero"></path>
            </g>
        </g>
    </g>
</svg>