<?xml version="1.0" encoding="UTF-8"?>
<svg width="139px" height="137px" viewBox="0 0 139 137" version="1.1" xmlns="http://www.w3.org/2000/svg" xmlns:xlink="http://www.w3.org/1999/xlink">
    <!-- Generator: Sketch 49.3 (51167) - http://www.bohemiancoding.com/sketch -->
    <title>deployment-4</title>
    <desc>Created with Sketch.</desc>
    <defs>
        <rect id="path-1" x="0" y="0" width="62" height="62" rx="5"></rect>
        <filter x="-8.9%" y="-5.6%" width="117.7%" height="117.7%" filterUnits="objectBoundingBox" id="filter-2">
            <feOffset dx="0" dy="2" in="SourceAlpha" result="shadowOffsetOuter1"></feOffset>
            <feGaussianBlur stdDeviation="1.5" in="shadowOffsetOuter1" result="shadowBlurOuter1"></feGaussianBlur>
            <feColorMatrix values="0 0 0 0 0.0792161481   0 0 0 0 0.0823091442   0 0 0 0 0.101589073  0 0 0 0.308423913 0" type="matrix" in="shadowBlurOuter1"></feColorMatrix>
        </filter>
    </defs>
    <g id="Page-1" stroke="none" stroke-width="1" fill="none" fill-rule="evenodd">
        <g id="deployment-4" transform="translate(0.000000, 1.000000)">
            <rect id="Rectangle-4-Copy-15" fill="#FFFFFF" fill-rule="nonzero" x="0" y="0" width="62" height="62" rx="5"></rect>
            <path d="M15.8920145,29.9912281 L11.9537205,29.9912281 L11.9537205,26 L9,26 L9,37.9736842 L11.9537205,37.9736842 L11.9537205,32.9846491 L15.8920145,32.9846491 L15.8920145,37.9736842 L18.845735,37.9736842 L18.845735,26 L15.8920145,26 L15.8920145,29.9912281 Z M20.814882,28.9934211 L23.7686025,28.9934211 L23.7686025,37.9736842 L26.722323,37.9736842 L26.722323,28.9934211 L29.6760436,28.9934211 L29.6760436,26 L20.814882,26 L20.814882,28.9934211 Z M31.6451906,28.9934211 L34.5989111,28.9934211 L34.5989111,37.9736842 L37.5526316,37.9736842 L37.5526316,28.9934211 L40.5063521,28.9934211 L40.5063521,26 L31.6451906,26 L31.6451906,28.9934211 Z M49.3675136,26 L42.4754991,26 L42.4754991,37.9736842 L45.4292196,37.9736842 L45.4292196,33.9824561 L49.3675136,33.9824561 C50.9428312,33.9824561 52.3212341,32.5855263 52.3212341,30.9890351 L52.3212341,28.9934211 C52.3212341,27.3969298 50.9428312,26 49.3675136,26 Z M49.3675136,30.9890351 L45.4292196,30.9890351 L45.4292196,28.9934211 L49.3675136,28.9934211 L49.3675136,30.9890351 Z" id="Shape" fill="#F8F1A1" fill-rule="nonzero"></path>
            <rect id="Rectangle-4-Copy-18" fill="#FFFFFF" fill-rule="nonzero" x="0" y="74" width="62" height="62" rx="5"></rect>
            <g id="Rectangle-4-Copy-17" transform="translate(74.000000, 0.000000)">
                <g id="path-1-link" fill-rule="nonzero">
                    <g id="path-1">
                        <use fill="black" fill-opacity="1" filter="url(#filter-2)" xlink:href="#path-1"></use>
                        <use fill="#FFFFFF" fill-rule="evenodd" xlink:href="#path-1"></use>
                    </g>
                </g>
                <g id="path-1-link" fill="#FFFFFF">
                    <rect id="path-1" x="0" y="0" width="62" height="62" rx="5"></rect>
                </g>
            </g>
            <g id="Group-11-Copy-3" transform="translate(90.000000, 2.000000)" fill-rule="nonzero">
                <path d="M10.6657576,9.41307658 L24.2539587,4.33708548 C24.6850963,4.17603028 25.1651634,4.39497529 25.3262186,4.82611285 C25.4010926,5.02654736 25.3960027,5.24810225 25.3120032,5.44488688 L19.728413,18.5254889 C19.6440793,18.7230562 19.48671,18.8804256 19.2891426,18.9647593 L6.20854057,24.5483495 C5.78525396,24.7290338 5.29563881,24.5323657 5.11495454,24.1090791 C5.03095499,23.9122945 5.02586511,23.6907396 5.10073916,23.4903051 L10.1767303,9.902104 C10.26121,9.67595566 10.4396093,9.49755625 10.6657576,9.41307658 Z" id="Rectangle-7" fill="#9BBBF8" transform="translate(15.213479, 14.449819) rotate(45.000000) translate(-15.213479, -14.449819) "></path>
                <path d="M3.46115195,17.287584 L17.5792093,17.287584 C18.0394467,17.287584 18.4125427,17.6606801 18.4125427,18.1209173 C18.4125427,18.2266217 18.3924322,18.3313611 18.3532837,18.4295487 L13.2089487,31.331986 C13.0826227,31.6488226 12.7759662,31.8566879 12.4348743,31.8566879 L-1.54211275,31.8566879 C-2.00235005,31.8566879 -2.37544609,31.4835918 -2.37544609,31.0233546 C-2.37544609,30.9203037 -2.35633241,30.8181467 -2.31907485,30.7220667 L2.68418985,17.8196296 C2.8085514,17.4989255 3.11717974,17.287584 3.46115195,17.287584 Z" id="Rectangle-7-Copy" fill="#81A4E8" transform="translate(8.018548, 24.572136) rotate(90.000000) translate(-8.018548, -24.572136) "></path>
                <path d="M17.4496724,17.416703 L31.5637421,17.416703 C32.0239795,17.416703 32.3970755,17.7897991 32.3970755,18.2500364 C32.3970755,18.3572597 32.376383,18.4634754 32.3361329,18.5628574 L27.2335549,31.1617069 C27.106132,31.4763285 26.8006098,31.6822192 26.461164,31.6822192 L12.4877769,31.6822192 C12.0275396,31.6822192 11.6544435,31.3091232 11.6544435,30.8488859 C11.6544435,30.7443619 11.6741075,30.6407708 11.7124095,30.5435174 L16.674305,17.9446679 C16.7997648,17.6261105 17.1073,17.416703 17.4496724,17.416703 Z" id="Rectangle-7-Copy-2" fill="#6694EF" transform="translate(22.025759, 24.549461) scale(-1, 1) rotate(90.000000) translate(-22.025759, -24.549461) "></path>
            </g>
            <rect id="Rectangle-2-Copy-21" fill="#E2E2E2" fill-rule="nonzero" x="92" y="42" width="26" height="5" rx="2.5"></rect>
            <rect id="Rectangle-2-Copy-25" fill="#B7B7B7" fill-rule="nonzero" x="92" y="49" width="26" height="5" rx="2.5"></rect>
            <rect id="Rectangle-4-Copy-19" fill-opacity="0.6" fill="#FFFFFF" fill-rule="nonzero" x="74" y="74" width="62" height="62" rx="5"></rect>
            <path d="M88,106.029 L98.024,106.029 L98.024,94 L88,94 L88,106.029 Z M88,120.063 L98.024,120.063 L98.024,108.034 L88,108.034 L88,120.063 Z M100.029,120.063 L110.053,120.063 L110.053,108.034 L100.029,108.034 L100.029,120.063 Z M112.059,120.063 L122.083,120.063 L122.083,108.034 L112.059,108.034 L112.059,120.063 Z M100.029,106.029 L110.053,106.029 L110.053,94 L100.029,94 L100.029,106.029 Z M112.059,106.029 L122.083,106.029 L122.083,94 L112.059,94 L112.059,106.029 Z" id="Fill-33" fill="#ECECEC" fill-rule="nonzero"></path>
            <path d="M20.8181818,90.4545455 C20.8181818,89.6545455 20.1636364,89 19.3636364,89 C18.5636364,89 17.9090909,89.6545455 17.9090909,90.4545455 L17.9090909,96.2727273 L15,96.2727273 L15,105 L23.7272727,105 L23.7272727,96.2727273 L20.8181818,96.2727273 L20.8181818,90.4545455 Z M26.6363636,110.818182 C26.6363636,112.709091 27.8581818,114.308364 29.5454545,114.92 L29.5454545,121 L32.4545455,121 L32.4545455,114.92 C34.1418182,114.323636 35.3636364,112.722909 35.3636364,110.818182 L35.3636364,107.909091 L26.6363636,107.909091 L26.6363636,110.818182 Z M15,110.818182 C15,112.709091 16.2218182,114.308364 17.9090909,114.92 L17.9090909,121 L20.8181818,121 L20.8181818,114.92 C22.5054545,114.308364 23.7272727,112.709091 23.7272727,110.818182 L23.7272727,107.909091 L15,107.909091 L15,110.818182 Z M44.0909091,96.2727273 L44.0909091,90.4545455 C44.0909091,89.6545455 43.4363636,89 42.6363636,89 C41.8363636,89 41.1818182,89.6545455 41.1818182,90.4545455 L41.1818182,96.2727273 L38.2727273,96.2727273 L38.2727273,105 L47,105 L47,96.2727273 L44.0909091,96.2727273 Z M32.4545455,90.4545455 C32.4545455,89.6545455 31.8,89 31,89 C30.2,89 29.5454545,89.6545455 29.5454545,90.4545455 L29.5454545,96.2727273 L26.6363636,96.2727273 L26.6363636,105 L35.3636364,105 L35.3636364,96.2727273 L32.4545455,96.2727273 L32.4545455,90.4545455 Z M38.2727273,110.818182 C38.2727273,112.709091 39.4945455,114.308364 41.1818182,114.92 L41.1818182,121 L44.0909091,121 L44.0909091,114.92 C45.7781818,114.323636 47,112.722909 47,110.818182 L47,107.909091 L38.2727273,107.909091 L38.2727273,110.818182 Z" id="Fill-82" fill="#9BE8EF" fill-rule="nonzero"></path>
        </g>
    </g>
</svg>