<?xml version="1.0" encoding="UTF-8"?>
<svg width="160px" height="133px" viewBox="0 0 160 133" version="1.1" xmlns="http://www.w3.org/2000/svg" xmlns:xlink="http://www.w3.org/1999/xlink">
    <!-- Generator: Sketch 47 (45396) - http://www.bohemiancoding.com/sketch -->
    <title>deployment-3</title>
    <desc>Created with Sketch.</desc>
    <defs>
        <rect id="path-1" x="0" y="0" width="148" height="98" rx="5"></rect>
        <filter x="-6.8%" y="-8.2%" width="113.5%" height="120.4%" filterUnits="objectBoundingBox" id="filter-2">
            <feOffset dx="0" dy="2" in="SourceAlpha" result="shadowOffsetOuter1"></feOffset>
            <feGaussianBlur stdDeviation="3" in="shadowOffsetOuter1" result="shadowBlurOuter1"></feGaussianBlur>
            <feColorMatrix values="0 0 0 0 0   0 0 0 0 0   0 0 0 0 0  0 0 0 0.16 0" type="matrix" in="shadowBlurOuter1"></feColorMatrix>
        </filter>
    </defs>
    <g id="产品模块" stroke="none" stroke-width="1" fill="none" fill-rule="evenodd">
        <g transform="translate(-767.000000, -3328.000000)" id="deployment-3">
            <g transform="translate(773.000000, 3332.000000)">
                <g id="Rectangle-4-Copy-22">
                    <use fill="black" fill-opacity="1" filter="url(#filter-2)" xlink:href="#path-1"></use>
                    <use fill="#FFFFFF" fill-rule="evenodd" xlink:href="#path-1"></use>
                </g>
                <g id="Group-11-Copy-3" transform="translate(11.000000, 12.000000)">
                    <path d="M12.7989094,11.2956921 L29.1047507,5.20450278 L29.1047507,5.20450278 C29.6221158,5.01123654 30.1981963,5.27397055 30.3914625,5.79133562 C30.4813114,6.03185703 30.4752035,6.2977229 30.3744041,6.53386446 L23.6740958,22.2305869 L23.6740958,22.2305869 C23.5728954,22.4676677 23.3840522,22.6565109 23.1469713,22.7577114 L7.45024891,29.4580196 L7.45024891,29.4580196 C6.94230497,29.6748408 6.3547668,29.4388391 6.13794567,28.9308951 C6.03714621,28.6947536 6.03103835,28.4288877 6.12088722,28.1883663 L12.2120766,11.882525 L12.2120766,11.882525 C12.3134522,11.611147 12.5275314,11.3970677 12.7989094,11.2956921 Z" id="Rectangle-7" fill="#9BBBF8" transform="translate(18.256175, 17.339783) rotate(45.000000) translate(-18.256175, -17.339783) "></path>
                    <path d="M4.15338253,20.7451007 L21.0950514,20.7451007 L21.0950514,20.7451007 C21.6473362,20.7451007 22.0950514,21.192816 22.0950514,21.7451007 C22.0950514,21.871946 22.0709188,21.9976332 22.0239406,22.1154584 L15.8507386,37.5983831 L15.8507386,37.5983831 C15.6991474,37.978587 15.3311596,38.2280254 14.9218494,38.2280254 L-1.85053511,38.2280254 L-1.85053511,38.2280254 C-2.40281986,38.2280254 -2.85053511,37.7803101 -2.85053511,37.2280254 C-2.85053511,37.1043644 -2.8275987,36.9817759 -2.78288963,36.86648 L3.22102801,21.3835554 L3.22102801,21.3835554 C3.37026188,20.9987105 3.74061588,20.7451007 4.15338253,20.7451007 Z" id="Rectangle-7-Copy" fill="#81A4E8" transform="translate(9.622258, 29.486563) rotate(90.000000) translate(-9.622258, -29.486563) "></path>
                    <path d="M20.9396068,20.9000437 L37.8764905,20.9000437 L37.8764905,20.9000437 C38.4287753,20.9000437 38.8764905,21.347759 38.8764905,21.9000437 C38.8764905,22.0287117 38.8516595,22.1561705 38.8033594,22.2754289 L32.6802658,37.3940483 L32.6802658,37.3940483 C32.5273583,37.7715942 32.1607317,38.0186631 31.7533968,38.0186631 L14.9853322,38.0186631 L14.9853322,38.0186631 C14.4330475,38.0186631 13.9853322,37.5709479 13.9853322,37.0186631 C13.9853322,36.8932343 14.008929,36.768925 14.0548914,36.6522209 L20.009166,21.5336015 L20.009166,21.5336015 C20.1597177,21.1513327 20.5287599,20.9000437 20.9396068,20.9000437 Z" id="Rectangle-7-Copy-2" fill="#6694EF" transform="translate(26.430911, 29.459353) scale(-1, 1) rotate(90.000000) translate(-26.430911, -29.459353) "></path>
                </g>
                <path d="M5,0 L143,0 L143,0 C145.761424,-5.07265313e-16 148,2.23857625 148,5 L148,11 L0,11 L0,5 L0,5 C-3.38176876e-16,2.23857625 2.23857625,5.07265313e-16 5,0 Z" id="Rectangle-4-Copy-23" fill="#B7B7B7"></path>
                <rect id="Rectangle-4-Copy-24" fill-opacity="0.8" fill="#FFFFFF" x="0" y="108" width="148" height="21" rx="5"></rect>
                <rect id="Rectangle-6-Copy-12" fill-opacity="0.1" fill="#4A4A4A" x="11" y="116" width="26" height="6" rx="3"></rect>
                <rect id="Rectangle-2-Copy-20" fill="#9BE8EF" x="62" y="40" width="57" height="6" rx="3"></rect>
                <rect id="Rectangle-2-Copy-21" fill="#E2E2E2" x="62" y="80" width="39" height="6" rx="3"></rect>
                <rect id="Rectangle-2-Copy-22" fill="#B7B7B7" x="62" y="28" width="21" height="6" rx="3"></rect>
                <rect id="Rectangle-2-Copy-23" fill="#B7B7B7" x="88" y="28" width="43" height="6" rx="3"></rect>
                <rect id="Rectangle-2-Copy-24" fill="#F8F1A1" x="62" y="52" width="39" height="6" rx="3"></rect>
                <rect id="Rectangle-2-Copy-25" fill="#E2E2E2" x="62" y="68" width="69" height="6" rx="3"></rect>
                <path d="M23.2104702,70 L20.0523509,70 C19.4736379,70 19,70.4736379 19,71.0523509 L19,83.6842947 C19,84.2630077 19.4736379,84.7366456 20.0523509,84.7366456 L23.2104702,84.7366456 C23.7891831,84.7366456 24.2633544,84.2630077 24.2633544,83.6842947 L24.2633544,71.0523509 C24.2633544,70.4736379 23.7891831,70 23.2104702,70 L23.2104702,70 Z M37.9471158,70 L34.7895298,70 C34.2102835,70 33.7366456,70.4736379 33.7366456,71.0523509 L33.7366456,83.6842947 C33.7366456,84.2630077 34.2102835,84.7366456 34.7895298,84.7366456 L37.9471158,84.7366456 C38.5263621,84.7366456 39,84.2630077 39,83.6842947 L39,71.0523509 C39,70.4736379 38.5263621,70 37.9471158,70 L37.9471158,70 Z M30.5790597,70 L27.4209403,70 C26.8422274,70 26.3685895,70.4736379 26.3685895,71.0523509 L26.3685895,83.6842947 C26.3685895,84.2630077 26.8422274,84.7366456 27.4209403,84.7366456 L30.5790597,84.7366456 C31.1577726,84.7366456 31.6314105,84.2630077 31.6314105,83.6842947 L31.6314105,71.0523509 C31.6314105,70.4736379 31.1577726,70 30.5790597,70 L30.5790597,70 Z" id="Fill-30" fill="#E2E2E2"></path>
            </g>
        </g>
    </g>
</svg>