<?xml version="1.0" encoding="UTF-8"?>
<svg width="246px" height="116px" viewBox="0 0 246 116" version="1.1" xmlns="http://www.w3.org/2000/svg" xmlns:xlink="http://www.w3.org/1999/xlink">
    <!-- Generator: Sketch 58 (84663) - https://sketch.com -->
    <title>deploy-2</title>
    <desc>Created with Sketch.</desc>
    <defs>
        <rect id="path-1" x="0" y="43" width="234" height="32" rx="5"></rect>
        <filter x="-4.3%" y="-25.0%" width="108.5%" height="162.5%" filterUnits="objectBoundingBox" id="filter-2">
            <feOffset dx="0" dy="2" in="SourceAlpha" result="shadowOffsetOuter1"></feOffset>
            <feGaussianBlur stdDeviation="3" in="shadowOffsetOuter1" result="shadowBlurOuter1"></feGaussianBlur>
            <feColorMatrix values="0 0 0 0 0   0 0 0 0 0   0 0 0 0 0  0 0 0 0.16 0" type="matrix" in="shadowBlurOuter1"></feColorMatrix>
        </filter>
    </defs>
    <g id="页面-1" stroke="none" stroke-width="1" fill="none" fill-rule="evenodd">
        <g id="产品模块" transform="translate(-597.000000, -2266.000000)">
            <g id="deploy-2" transform="translate(603.000000, 2265.000000)">
                <rect id="Rectangle-4-Copy-28" fill="#FFFFFF" x="0" y="1" width="234" height="32" rx="5"></rect>
                <g id="Group-11" transform="translate(14.000000, 0.000000)">
                    <path d="M8.75757396,7.51345251 L19.3509523,3.5562036 C19.8683173,3.36293736 20.4443978,3.62567137 20.637664,4.14303644 C20.7275129,4.38355785 20.7214051,4.64942372 20.6206056,4.88556528 L16.2676318,15.0832187 C16.1664314,15.3202995 15.9775882,15.5091428 15.7405073,15.6103432 L5.54285389,19.963317 C5.03490995,20.1801381 4.44737178,19.9441364 4.23055065,19.4361925 C4.12975119,19.2000509 4.12364333,18.9341851 4.2134922,18.6936637 L8.17074112,8.10028535 C8.27211673,7.82890737 8.48619597,7.61482813 8.75757396,7.51345251 Z" id="Rectangle-7" fill="#9BBBF8" transform="translate(12.425578, 11.768282) rotate(45.000000) translate(-12.425578, -11.768282) "></path>
                    <path d="M2.79011671,14.1607214 L13.9640613,14.1607214 C14.5163461,14.1607214 14.9640613,14.6084366 14.9640613,15.1607214 C14.9640613,15.2875667 14.9399287,15.4132539 14.8929505,15.5310791 L10.8245144,25.7350687 C10.6729232,26.1152726 10.3049355,26.364711 9.89562522,26.364711 L-1.16675285,26.364711 C-1.7190376,26.364711 -2.16675285,25.9169957 -2.16675285,25.364711 C-2.16675285,25.24105 -2.14381644,25.1184615 -2.09910737,25.0031656 L1.85776219,14.799176 C2.00699606,14.4143312 2.37735007,14.1607214 2.79011671,14.1607214 Z" id="Rectangle-7-Copy" fill="#81A4E8" transform="translate(6.398654, 20.262716) rotate(90.000000) translate(-6.398654, -20.262716) "></path>
                    <path d="M14.5066658,14.2688233 L25.6758252,14.2688233 C26.2281099,14.2688233 26.6758252,14.7165385 26.6758252,15.2688233 C26.6758252,15.3974912 26.6509941,15.5249501 26.6026941,15.6442084 L22.5730367,25.593894 C22.4201292,25.97144 22.0535025,26.2185089 21.6461677,26.2185089 L10.5881095,26.2185089 C10.0358248,26.2185089 9.58810953,25.7707936 9.58810953,25.2185089 C9.58810953,25.0930801 9.6117063,24.9687708 9.65766872,24.8520667 L13.576225,14.9023811 C13.7267766,14.5201123 14.0958188,14.2688233 14.5066658,14.2688233 Z" id="Rectangle-7-Copy-2" fill="#6694EF" transform="translate(18.131967, 20.243666) scale(-1, 1) rotate(90.000000) translate(-18.131967, -20.243666) "></path>
                </g>
                <g id="Group-13" transform="translate(73.000000, 7.000000)">
                    <g id="Group-12" transform="translate(0.000000, 10.000000)">
                        <path d="M8.34322374,10.4453275 C12.951059,10.4453275 16.6864475,8.71462461 16.6864475,6.57969442 C16.6864475,5.80619137 16.6864475,4.90150426 16.6864475,3.86563307 L0,3.86563307 C0,4.25172051 0,5.15640762 0,6.57969442 C0,8.71462461 3.7353885,10.4453275 8.34322374,10.4453275 Z" id="Oval-4-Copy" fill="#B7B7B7"></path>
                        <ellipse id="Oval-4" fill="#ECECEC" cx="8.34322374" cy="3.86563307" rx="8.34322374" ry="3.86563307"></ellipse>
                    </g>
                    <g id="Group-12-Copy" transform="translate(0.000000, 5.000000)">
                        <path d="M8.34322374,10.4453275 C12.951059,10.4453275 16.6864475,8.71462461 16.6864475,6.57969442 C16.6864475,5.80619137 16.6864475,4.90150426 16.6864475,3.86563307 L0,3.86563307 C0,4.25172051 0,5.15640762 0,6.57969442 C0,8.71462461 3.7353885,10.4453275 8.34322374,10.4453275 Z" id="Oval-4-Copy" fill="#B7B7B7"></path>
                        <ellipse id="Oval-4" fill="#ECECEC" cx="8.34322374" cy="3.86563307" rx="8.34322374" ry="3.86563307"></ellipse>
                    </g>
                    <g id="Group-12-Copy-2">
                        <path d="M8.34322374,10.4453275 C12.951059,10.4453275 16.6864475,8.71462461 16.6864475,6.57969442 C16.6864475,5.80619137 16.6864475,4.90150426 16.6864475,3.86563307 L0,3.86563307 C0,4.25172051 0,5.15640762 0,6.57969442 C0,8.71462461 3.7353885,10.4453275 8.34322374,10.4453275 Z" id="Oval-4-Copy" fill="#B7B7B7"></path>
                        <ellipse id="Oval-4" fill="#ECECEC" cx="8.34322374" cy="3.86563307" rx="8.34322374" ry="3.86563307"></ellipse>
                    </g>
                </g>
                <polygon id="Fill-45-Copy-5" fill="#9B9B9B" points="60.2504265 14 60.2504265 16.2498578 49 16.2498578 49 17.7501422 60.2504265 17.7501422 60.2504265 20 63 17.0001896"></polygon>
                <path d="M103,20 L217,20 C218.656854,20 220,21.3431458 220,23 C220,24.6568542 218.656854,26 217,26 L103,26 C101.343146,26 100,24.6568542 100,23 C100,21.3431458 101.343146,20 103,20 Z" id="Rectangle-2-Copy-20" fill="#E2E2E2"></path>
                <path d="M103,9 L159,9 C160.656854,9 162,10.3431458 162,12 C162,13.6568542 160.656854,15 159,15 L103,15 C101.343146,15 100,13.6568542 100,12 C100,10.3431458 101.343146,9 103,9 Z" id="Rectangle-2-Copy-22" fill="#E2E2E2"></path>
                <g id="Rectangle-4-Copy-29">
                    <use fill="black" fill-opacity="1" filter="url(#filter-2)" xlink:href="#path-1"></use>
                    <use fill="#FFFFFF" fill-rule="evenodd" xlink:href="#path-1"></use>
                </g>
                <path d="M103,61 L217,61 C218.656854,61 220,62.3431458 220,64 C220,65.6568542 218.656854,67 217,67 L103,67 C101.343146,67 100,65.6568542 100,64 C100,62.3431458 101.343146,61 103,61 Z" id="Rectangle-2-Copy-20" fill="#B7B7B7"></path>
                <path d="M103,50 L159,50 C160.656854,50 162,51.3431458 162,53 C162,54.6568542 160.656854,56 159,56 L103,56 C101.343146,56 100,54.6568542 100,53 C100,51.3431458 101.343146,50 103,50 Z" id="Rectangle-2-Copy-22" fill="#B7B7B7"></path>
                <rect id="Rectangle-4-Copy-30" fill="#FFFFFF" x="0" y="85" width="234" height="32" rx="5"></rect>
                <path d="M103,104 L217,104 C218.656854,104 220,105.343146 220,107 C220,108.656854 218.656854,110 217,110 L103,110 C101.343146,110 100,108.656854 100,107 C100,105.343146 101.343146,104 103,104 Z" id="Rectangle-2-Copy-35" fill="#ECECEC"></path>
                <path d="M103,93 L159,93 C160.656854,93 162,94.3431458 162,96 C162,97.6568542 160.656854,99 159,99 L103,99 C101.343146,99 100,97.6568542 100,96 C100,94.3431458 101.343146,93 103,93 Z" id="Rectangle-2-Copy-38" fill="#ECECEC"></path>
                <g id="Group-11-Copy" transform="translate(14.000000, 42.000000)">
                    <path d="M8.75757396,7.51345251 L19.3509523,3.5562036 C19.8683173,3.36293736 20.4443978,3.62567137 20.637664,4.14303644 C20.7275129,4.38355785 20.7214051,4.64942372 20.6206056,4.88556528 L16.2676318,15.0832187 C16.1664314,15.3202995 15.9775882,15.5091428 15.7405073,15.6103432 L5.54285389,19.963317 C5.03490995,20.1801381 4.44737178,19.9441364 4.23055065,19.4361925 C4.12975119,19.2000509 4.12364333,18.9341851 4.2134922,18.6936637 L8.17074112,8.10028535 C8.27211673,7.82890737 8.48619597,7.61482813 8.75757396,7.51345251 Z" id="Rectangle-7" fill="#F9F5C2" transform="translate(12.425578, 11.768282) rotate(45.000000) translate(-12.425578, -11.768282) "></path>
                    <path d="M2.79011671,14.1607214 L13.9640613,14.1607214 C14.5163461,14.1607214 14.9640613,14.6084366 14.9640613,15.1607214 C14.9640613,15.2875667 14.9399287,15.4132539 14.8929505,15.5310791 L10.8245144,25.7350687 C10.6729232,26.1152726 10.3049355,26.364711 9.89562522,26.364711 L-1.16675285,26.364711 C-1.7190376,26.364711 -2.16675285,25.9169957 -2.16675285,25.364711 C-2.16675285,25.24105 -2.14381644,25.1184615 -2.09910737,25.0031656 L1.85776219,14.799176 C2.00699606,14.4143312 2.37735007,14.1607214 2.79011671,14.1607214 Z" id="Rectangle-7-Copy" fill="#EDE9B2" transform="translate(6.398654, 20.262716) rotate(90.000000) translate(-6.398654, -20.262716) "></path>
                    <path d="M14.5066658,14.2688233 L25.6758252,14.2688233 C26.2281099,14.2688233 26.6758252,14.7165385 26.6758252,15.2688233 C26.6758252,15.3974912 26.6509941,15.5249501 26.6026941,15.6442084 L22.5730367,25.593894 C22.4201292,25.97144 22.0535025,26.2185089 21.6461677,26.2185089 L10.5881095,26.2185089 C10.0358248,26.2185089 9.58810953,25.7707936 9.58810953,25.2185089 C9.58810953,25.0930801 9.6117063,24.9687708 9.65766872,24.8520667 L13.576225,14.9023811 C13.7267766,14.5201123 14.0958188,14.2688233 14.5066658,14.2688233 Z" id="Rectangle-7-Copy-2" fill="#F8F1A1" transform="translate(18.131967, 20.243666) scale(-1, 1) rotate(90.000000) translate(-18.131967, -20.243666) "></path>
                </g>
                <g id="Group-13" transform="translate(73.000000, 49.000000)">
                    <g id="Group-12" transform="translate(0.000000, 10.000000)">
                        <path d="M8.34322374,10.4453275 C12.951059,10.4453275 16.6864475,8.71462461 16.6864475,6.57969442 C16.6864475,5.80619137 16.6864475,4.90150426 16.6864475,3.86563307 L0,3.86563307 C0,4.25172051 0,5.15640762 0,6.57969442 C0,8.71462461 3.7353885,10.4453275 8.34322374,10.4453275 Z" id="Oval-4-Copy" fill="#B7B7B7"></path>
                        <ellipse id="Oval-4" fill="#ECECEC" cx="8.34322374" cy="3.86563307" rx="8.34322374" ry="3.86563307"></ellipse>
                    </g>
                    <g id="Group-12-Copy" transform="translate(0.000000, 5.000000)">
                        <path d="M8.34322374,10.4453275 C12.951059,10.4453275 16.6864475,8.71462461 16.6864475,6.57969442 C16.6864475,5.80619137 16.6864475,4.90150426 16.6864475,3.86563307 L0,3.86563307 C0,4.25172051 0,5.15640762 0,6.57969442 C0,8.71462461 3.7353885,10.4453275 8.34322374,10.4453275 Z" id="Oval-4-Copy" fill="#B7B7B7"></path>
                        <ellipse id="Oval-4" fill="#ECECEC" cx="8.34322374" cy="3.86563307" rx="8.34322374" ry="3.86563307"></ellipse>
                    </g>
                    <g id="Group-12-Copy-2">
                        <path d="M8.34322374,10.4453275 C12.951059,10.4453275 16.6864475,8.71462461 16.6864475,6.57969442 C16.6864475,5.80619137 16.6864475,4.90150426 16.6864475,3.86563307 L0,3.86563307 C0,4.25172051 0,5.15640762 0,6.57969442 C0,8.71462461 3.7353885,10.4453275 8.34322374,10.4453275 Z" id="Oval-4-Copy" fill="#B7B7B7"></path>
                        <ellipse id="Oval-4" fill="#ECECEC" cx="8.34322374" cy="3.86563307" rx="8.34322374" ry="3.86563307"></ellipse>
                    </g>
                </g>
                <polygon id="Fill-45-Copy-5" fill="#9B9B9B" points="60.2504265 56 60.2504265 58.2498578 49 58.2498578 49 59.7501422 60.2504265 59.7501422 60.2504265 62 63 59.0001896"></polygon>
                <g id="Group-11-Copy-2" transform="translate(14.000000, 84.000000)">
                    <path d="M8.75757396,7.51345251 L19.3509523,3.5562036 C19.8683173,3.36293736 20.4443978,3.62567137 20.637664,4.14303644 C20.7275129,4.38355785 20.7214051,4.64942372 20.6206056,4.88556528 L16.2676318,15.0832187 C16.1664314,15.3202995 15.9775882,15.5091428 15.7405073,15.6103432 L5.54285389,19.963317 C5.03490995,20.1801381 4.44737178,19.9441364 4.23055065,19.4361925 C4.12975119,19.2000509 4.12364333,18.9341851 4.2134922,18.6936637 L8.17074112,8.10028535 C8.27211673,7.82890737 8.48619597,7.61482813 8.75757396,7.51345251 Z" id="Rectangle-7" fill="#BCF5FB" transform="translate(12.425578, 11.768282) rotate(45.000000) translate(-12.425578, -11.768282) "></path>
                    <path d="M2.79011671,14.1607214 L13.9640613,14.1607214 C14.5163461,14.1607214 14.9640613,14.6084366 14.9640613,15.1607214 C14.9640613,15.2875667 14.9399287,15.4132539 14.8929505,15.5310791 L10.8245144,25.7350687 C10.6729232,26.1152726 10.3049355,26.364711 9.89562522,26.364711 L-1.16675285,26.364711 C-1.7190376,26.364711 -2.16675285,25.9169957 -2.16675285,25.364711 C-2.16675285,25.24105 -2.14381644,25.1184615 -2.09910737,25.0031656 L1.85776219,14.799176 C2.00699606,14.4143312 2.37735007,14.1607214 2.79011671,14.1607214 Z" id="Rectangle-7-Copy" fill="#A8DFE4" transform="translate(6.398654, 20.262716) rotate(90.000000) translate(-6.398654, -20.262716) "></path>
                    <path d="M14.5066658,14.2688233 L25.6758252,14.2688233 C26.2281099,14.2688233 26.6758252,14.7165385 26.6758252,15.2688233 C26.6758252,15.3974912 26.6509941,15.5249501 26.6026941,15.6442084 L22.5730367,25.593894 C22.4201292,25.97144 22.0535025,26.2185089 21.6461677,26.2185089 L10.5881095,26.2185089 C10.0358248,26.2185089 9.58810953,25.7707936 9.58810953,25.2185089 C9.58810953,25.0930801 9.6117063,24.9687708 9.65766872,24.8520667 L13.576225,14.9023811 C13.7267766,14.5201123 14.0958188,14.2688233 14.5066658,14.2688233 Z" id="Rectangle-7-Copy-2" fill="#9BE8EF" transform="translate(18.131967, 20.243666) scale(-1, 1) rotate(90.000000) translate(-18.131967, -20.243666) "></path>
                </g>
                <g id="Group-13" transform="translate(73.000000, 91.000000)">
                    <g id="Group-12" transform="translate(0.000000, 10.000000)">
                        <path d="M8.34322374,10.4453275 C12.951059,10.4453275 16.6864475,8.71462461 16.6864475,6.57969442 C16.6864475,5.80619137 16.6864475,4.90150426 16.6864475,3.86563307 L0,3.86563307 C0,4.25172051 0,5.15640762 0,6.57969442 C0,8.71462461 3.7353885,10.4453275 8.34322374,10.4453275 Z" id="Oval-4-Copy" fill="#B7B7B7"></path>
                        <ellipse id="Oval-4" fill="#ECECEC" cx="8.34322374" cy="3.86563307" rx="8.34322374" ry="3.86563307"></ellipse>
                    </g>
                    <g id="Group-12-Copy" transform="translate(0.000000, 5.000000)">
                        <path d="M8.34322374,10.4453275 C12.951059,10.4453275 16.6864475,8.71462461 16.6864475,6.57969442 C16.6864475,5.80619137 16.6864475,4.90150426 16.6864475,3.86563307 L0,3.86563307 C0,4.25172051 0,5.15640762 0,6.57969442 C0,8.71462461 3.7353885,10.4453275 8.34322374,10.4453275 Z" id="Oval-4-Copy" fill="#B7B7B7"></path>
                        <ellipse id="Oval-4" fill="#ECECEC" cx="8.34322374" cy="3.86563307" rx="8.34322374" ry="3.86563307"></ellipse>
                    </g>
                    <g id="Group-12-Copy-2">
                        <path d="M8.34322374,10.4453275 C12.951059,10.4453275 16.6864475,8.71462461 16.6864475,6.57969442 C16.6864475,5.80619137 16.6864475,4.90150426 16.6864475,3.86563307 L0,3.86563307 C0,4.25172051 0,5.15640762 0,6.57969442 C0,8.71462461 3.7353885,10.4453275 8.34322374,10.4453275 Z" id="Oval-4-Copy" fill="#B7B7B7"></path>
                        <ellipse id="Oval-4" fill="#ECECEC" cx="8.34322374" cy="3.86563307" rx="8.34322374" ry="3.86563307"></ellipse>
                    </g>
                </g>
                <polygon id="Fill-45-Copy-5" fill="#9B9B9B" points="60.2504265 98 60.2504265 100.249858 49 100.249858 49 101.750142 60.2504265 101.750142 60.2504265 104 63 101.00019"></polygon>
            </g>
        </g>
    </g>
</svg>