<?xml version="1.0" encoding="UTF-8"?>
<svg width="238px" height="140px" viewBox="0 0 238 140" version="1.1" xmlns="http://www.w3.org/2000/svg" xmlns:xlink="http://www.w3.org/1999/xlink">
    <!-- Generator: Sketch 58 (84663) - https://sketch.com -->
    <title>deploy-3</title>
    <desc>Created with Sketch.</desc>
    <defs>
        <rect id="path-1" x="0" y="0" width="60" height="60" rx="5"></rect>
        <filter x="-16.7%" y="-13.3%" width="133.3%" height="133.3%" filterUnits="objectBoundingBox" id="filter-2">
            <feOffset dx="0" dy="2" in="SourceAlpha" result="shadowOffsetOuter1"></feOffset>
            <feGaussianBlur stdDeviation="3" in="shadowOffsetOuter1" result="shadowBlurOuter1"></feGaussianBlur>
            <feColorMatrix values="0 0 0 0 0   0 0 0 0 0   0 0 0 0 0  0 0 0 0.16 0" type="matrix" in="shadowBlurOuter1"></feColorMatrix>
        </filter>
    </defs>
    <g id="页面-1" stroke="none" stroke-width="1" fill="none" fill-rule="evenodd">
        <g id="产品模块" transform="translate(-944.000000, -2251.000000)">
            <g id="deploy-3" transform="translate(944.000000, 2255.000000)">
                <g id="编组-20" transform="translate(144.000000, 96.000000)">
                    <rect id="Rectangle-4-Copy-12" fill-opacity="0.6" fill="#FFFFFF" x="0" y="0" width="40" height="40" rx="5"></rect>
                    <g id="编组-7" transform="translate(6.000000, 1.000000)">
                        <path d="M10.1034745,9.47165478 L21.5014487,5.25897662 C22.0194831,5.0675117 22.594646,5.33224857 22.7861109,5.85028296 C22.8743235,6.08895409 22.8682357,6.35227612 22.7690876,6.58661566 L18.1279367,17.5561171 C18.0266333,17.795551 17.8360644,17.9861198 17.5966305,18.0874233 L6.62712907,22.7285742 C6.11849636,22.9437746 5.53171369,22.7059007 5.31651329,22.197268 C5.21736519,21.9629285 5.21127746,21.6996065 5.29949003,21.4609353 L9.51216819,10.0629611 C9.6134414,9.78895269 9.8294661,9.57292799 10.1034745,9.47165478 Z" id="Rectangle-7" fill="#F5F5F5" transform="translate(14.083966, 14.043453) rotate(45.000000) translate(-14.083966, -14.043453) "></path>
                        <path d="M3.80904809,16.6006919 L15.8691564,16.6006919 C16.4214411,16.6006919 16.8691564,17.0484072 16.8691564,17.6006919 C16.8691564,17.728604 16.8446161,17.8553284 16.7968663,17.9739938 L12.4114006,28.8725194 C12.259036,29.2511677 11.8918444,29.4992175 11.4836906,29.4992175 L-0.456157383,29.4992175 C-1.00844213,29.4992175 -1.45615738,29.0515023 -1.45615738,28.4992175 C-1.45615738,28.3745116 -1.43283177,28.2509058 -1.38738378,28.1347763 L2.87782169,17.2362507 C3.02783724,16.8529284 3.39741639,16.6006919 3.80904809,16.6006919 Z" id="Rectangle-7-Copy" fill="#E8E8E8" transform="translate(7.714052, 23.049955) rotate(90.000000) translate(-7.714052, -23.049955) "></path>
                        <path d="M16.1922692,16.7149592 L28.2475115,16.7149592 C28.7997963,16.7149592 29.2475115,17.1626744 29.2475115,17.7149592 C29.2475115,17.8447063 29.2222622,17.9732135 29.1731716,18.0933153 L24.8283469,28.7230643 C24.6746714,29.0990361 24.3088529,29.3447082 23.9026868,29.3447082 L11.9672351,29.3447082 C11.4149503,29.3447082 10.9672351,28.8969929 10.9672351,28.3447082 C10.9672351,28.2182222 10.9912312,28.0928845 11.0379507,27.9753431 L15.2629848,17.3455941 C15.4143137,16.9648663 15.7825692,16.7149592 16.1922692,16.7149592 Z" id="Rectangle-7-Copy-2" fill="#F0F0F0" transform="translate(20.115115, 23.029834) scale(-1, 1) rotate(90.000000) translate(-20.115115, -23.029834) "></path>
                    </g>
                </g>
                <g id="编组-20" transform="translate(192.000000, 96.000000)">
                    <rect id="Rectangle-4-Copy-12" fill-opacity="0.6" fill="#FFFFFF" x="0" y="0" width="40" height="40" rx="5"></rect>
                    <g id="编组-7" transform="translate(6.000000, 1.000000)">
                        <path d="M10.1034745,9.47165478 L21.5014487,5.25897662 C22.0194831,5.0675117 22.594646,5.33224857 22.7861109,5.85028296 C22.8743235,6.08895409 22.8682357,6.35227612 22.7690876,6.58661566 L18.1279367,17.5561171 C18.0266333,17.795551 17.8360644,17.9861198 17.5966305,18.0874233 L6.62712907,22.7285742 C6.11849636,22.9437746 5.53171369,22.7059007 5.31651329,22.197268 C5.21736519,21.9629285 5.21127746,21.6996065 5.29949003,21.4609353 L9.51216819,10.0629611 C9.6134414,9.78895269 9.8294661,9.57292799 10.1034745,9.47165478 Z" id="Rectangle-7" fill="#F5F5F5" transform="translate(14.083966, 14.043453) rotate(45.000000) translate(-14.083966, -14.043453) "></path>
                        <path d="M3.80904809,16.6006919 L15.8691564,16.6006919 C16.4214411,16.6006919 16.8691564,17.0484072 16.8691564,17.6006919 C16.8691564,17.728604 16.8446161,17.8553284 16.7968663,17.9739938 L12.4114006,28.8725194 C12.259036,29.2511677 11.8918444,29.4992175 11.4836906,29.4992175 L-0.456157383,29.4992175 C-1.00844213,29.4992175 -1.45615738,29.0515023 -1.45615738,28.4992175 C-1.45615738,28.3745116 -1.43283177,28.2509058 -1.38738378,28.1347763 L2.87782169,17.2362507 C3.02783724,16.8529284 3.39741639,16.6006919 3.80904809,16.6006919 Z" id="Rectangle-7-Copy" fill="#E8E8E8" transform="translate(7.714052, 23.049955) rotate(90.000000) translate(-7.714052, -23.049955) "></path>
                        <path d="M16.1922692,16.7149592 L28.2475115,16.7149592 C28.7997963,16.7149592 29.2475115,17.1626744 29.2475115,17.7149592 C29.2475115,17.8447063 29.2222622,17.9732135 29.1731716,18.0933153 L24.8283469,28.7230643 C24.6746714,29.0990361 24.3088529,29.3447082 23.9026868,29.3447082 L11.9672351,29.3447082 C11.4149503,29.3447082 10.9672351,28.8969929 10.9672351,28.3447082 C10.9672351,28.2182222 10.9912312,28.0928845 11.0379507,27.9753431 L15.2629848,17.3455941 C15.4143137,16.9648663 15.7825692,16.7149592 16.1922692,16.7149592 Z" id="Rectangle-7-Copy-2" fill="#F0F0F0" transform="translate(20.115115, 23.029834) scale(-1, 1) rotate(90.000000) translate(-20.115115, -23.029834) "></path>
                    </g>
                </g>
                <g id="编组-23" transform="translate(172.000000, 0.000000)">
                    <g id="Rectangle-4-Copy-13">
                        <use fill="black" fill-opacity="1" filter="url(#filter-2)" xlink:href="#path-1"></use>
                        <use fill="#FFFFFF" fill-rule="evenodd" xlink:href="#path-1"></use>
                    </g>
                    <g id="编组-29" transform="translate(8.000000, 9.000000)" fill-rule="nonzero">
                        <path d="M39.8987179,9.4 C39.6487179,8.6 39.0487179,7.95 38.2987179,7.55 L23.0487179,0.25 C22.6487179,0.05 22.1987179,-1.42108547e-14 21.7987179,-1.42108547e-14 C21.3987179,-1.42108547e-14 20.9487179,-1.42108547e-14 20.5487179,0.1 L5.29871792,7.45 C4.54871792,7.8 3.99871792,8.45 3.79871792,9.3 L0.0487179224,25.75 C-0.101282078,26.6 0.0987179224,27.45 0.598717922,28.15 L11.1487179,41.2 C11.7487179,41.8 12.5987179,42.2 13.4487179,42.25 L30.2487179,42.25 C31.1487179,42.35 31.9987179,41.95 32.5487179,41.2 L43.0987179,28.15 C43.5987179,27.45 43.7987179,26.6 43.6987179,25.75 L39.8987179,9.4 Z" id="路径" stroke="#FFFFFF" stroke-width="5" fill="#FFFFFF"></path>
                        <path d="M39.8987179,9.4 C39.6487179,8.6 39.0487179,7.95 38.2987179,7.55 L23.0487179,0.25 C22.6487179,0.05 22.1987179,-1.42108547e-14 21.7987179,-1.42108547e-14 C21.3987179,-1.42108547e-14 20.9487179,-1.42108547e-14 20.5487179,0.1 L5.29871792,7.45 C4.54871792,7.8 3.99871792,8.45 3.79871792,9.3 L0.0487179224,25.75 C-0.101282078,26.6 0.0987179224,27.45 0.598717922,28.15 L11.1487179,41.2 C11.7487179,41.8 12.5987179,42.2 13.4487179,42.25 L30.2487179,42.25 C31.1487179,42.35 31.9987179,41.95 32.5487179,41.2 L43.0987179,28.15 C43.5987179,27.45 43.7987179,26.6 43.6987179,25.75 L39.8987179,9.4 Z" id="路径" fill="#326DE6"></path>
                        <path d="M37.5487179,25.1 L37.5487179,25.1 C37.4987179,25.1 37.4487179,25.1 37.4487179,25.05 C37.4487179,25 37.3487179,25 37.2487179,25 C37.0487179,24.95 36.8487179,24.95 36.6487179,24.95 C36.5487179,24.95 36.4487179,24.95 36.3487179,24.9 L36.2987179,24.9 C35.7487179,24.85 35.1487179,24.75 34.5987179,24.6 C34.4487179,24.55 34.2987179,24.4 34.2487179,24.25 C34.2987179,24.25 34.2487179,24.25 34.2487179,24.25 L34.2487179,24.25 L33.8487179,24.15 C34.0487179,22.7 33.9487179,21.2 33.6487179,19.75 C33.2987179,18.3 32.6987179,16.9 31.8987179,15.65 L32.1987179,15.35 L32.1987179,15.35 L32.1987179,15.3 C32.1987179,15.15 32.2487179,14.95 32.3487179,14.85 C32.7987179,14.45 33.2487179,14.15 33.7487179,13.85 L33.7487179,13.85 C33.8487179,13.8 33.9487179,13.75 34.0487179,13.7 C34.2487179,13.6 34.3987179,13.5 34.5987179,13.4 C34.6487179,13.35 34.6987179,13.35 34.7487179,13.3 C34.7987179,13.25 34.7487179,13.25 34.7487179,13.2 L34.7487179,13.2 C35.1987179,12.85 35.2987179,12.25 34.9487179,11.8 C34.7987179,11.6 34.4987179,11.45 34.2487179,11.45 C33.9987179,11.45 33.7487179,11.55 33.5487179,11.7 L33.5487179,11.7 L33.4987179,11.75 C33.4487179,11.8 33.3987179,11.85 33.3487179,11.85 C33.1987179,12 33.0487179,12.15 32.9487179,12.3 C32.8987179,12.4 32.7987179,12.45 32.7487179,12.5 L32.7487179,12.5 C32.3987179,12.9 31.9487179,13.3 31.4987179,13.6 C31.3987179,13.65 31.2987179,13.7 31.1987179,13.7 C31.1487179,13.7 31.0487179,13.7 30.9987179,13.65 L30.9487179,13.65 L30.5487179,13.9 C30.1487179,13.5 29.6987179,13.1 29.2987179,12.7 C27.4487179,11.25 25.1487179,10.35 22.7987179,10.1 L22.7487179,9.7 L22.7487179,9.7 L22.7487179,9.75 C22.5987179,9.65 22.5487179,9.5 22.4987179,9.35 C22.4987179,8.8 22.4987179,8.25 22.5987179,7.65 L22.5987179,7.6 C22.5987179,7.5 22.6487179,7.4 22.6487179,7.3 C22.6987179,7.1 22.6987179,6.9 22.7487179,6.7 L22.7487179,6.4 L22.7487179,6.4 C22.7987179,5.9 22.3987179,5.4 21.8987179,5.35 C21.5987179,5.3 21.2987179,5.45 21.0487179,5.7 C20.8487179,5.9 20.7487179,6.15 20.7487179,6.4 L20.7487179,6.4 L20.7487179,6.65 C20.7487179,6.85 20.7987179,7.05 20.8487179,7.25 C20.8987179,7.35 20.8987179,7.45 20.8987179,7.55 L20.8987179,7.6 C20.9987179,8.15 20.9987179,8.7 20.9987179,9.3 C20.9487179,9.45 20.8987179,9.6 20.7487179,9.7 L20.7487179,9.8 L20.7487179,9.8 L20.6987179,10.2 C20.1487179,10.25 19.5987179,10.35 18.9987179,10.45 C16.6487179,10.95 14.4987179,12.2 12.8487179,13.95 L12.5487179,13.75 L12.4987179,13.75 C12.4487179,13.75 12.3987179,13.8 12.2987179,13.8 C12.1987179,13.8 12.0987179,13.75 11.9987179,13.7 C11.5487179,13.35 11.0987179,12.95 10.7487179,12.55 L10.7487179,12.55 C10.6987179,12.45 10.5987179,12.4 10.5487179,12.35 C10.3987179,12.2 10.2987179,12.05 10.1487179,11.9 C10.0987179,11.85 10.0487179,11.85 9.99871792,11.8 C9.94871792,11.75 9.94871792,11.75 9.94871792,11.75 L9.94871792,11.75 C9.74871792,11.6 9.49871792,11.5 9.24871792,11.5 C8.94871792,11.5 8.69871792,11.6 8.54871792,11.85 C8.24871792,12.3 8.34871792,12.9 8.74871792,13.25 L8.74871792,13.25 C8.79871792,13.25 8.79871792,13.3 8.79871792,13.3 C8.79871792,13.3 8.89871792,13.4 8.94871792,13.4 C9.09871792,13.5 9.29871792,13.6 9.49871792,13.7 C9.59871792,13.75 9.69871792,13.8 9.79871792,13.85 L9.79871792,13.85 C10.2987179,14.15 10.7987179,14.45 11.1987179,14.85 C11.2987179,14.95 11.3987179,15.15 11.3487179,15.3 L11.3487179,15.25 L11.3487179,15.25 L11.6487179,15.55 C11.5987179,15.65 11.5487179,15.7 11.4987179,15.8 C9.94871792,18.25 9.29871792,21.15 9.74871792,24 L9.34871792,24.1 L9.34871792,24.1 C9.34871792,24.15 9.29871792,24.15 9.29871792,24.15 C9.24871792,24.3 9.09871792,24.4 8.94871792,24.5 C8.39871792,24.65 7.84871792,24.75 7.24871792,24.8 L7.24871792,24.8 C7.14871792,24.8 7.04871792,24.8 6.94871792,24.85 C6.74871792,24.85 6.54871792,24.9 6.34871792,24.9 C6.29871792,24.9 6.24871792,24.95 6.14871792,24.95 C6.09871792,24.95 6.09871792,24.95 6.04871792,25 L6.04871792,25 C5.49871792,25.1 5.14871792,25.6 5.24871792,26.15 C5.24871792,26.15 5.24871792,26.15 5.24871792,26.15 C5.34871792,26.6 5.79871792,26.9 6.24871792,26.85 C6.34871792,26.85 6.39871792,26.85 6.49871792,26.8 L6.49871792,26.8 C6.54871792,26.8 6.54871792,26.8 6.54871792,26.75 C6.54871792,26.7 6.69871792,26.75 6.74871792,26.75 C6.94871792,26.7 7.14871792,26.6 7.29871792,26.55 C7.39871792,26.5 7.49871792,26.45 7.59871792,26.45 L7.64871792,26.45 C8.19871792,26.25 8.69871792,26.1 9.29871792,26 L9.34871792,26 C9.49871792,26 9.64871792,26.05 9.74871792,26.15 C9.79871792,26.15 9.79871792,26.2 9.79871792,26.2 L9.79871792,26.2 L10.2487179,26.15 C10.9987179,28.45 12.3987179,30.5 14.3487179,32 C14.7987179,32.35 15.1987179,32.65 15.6987179,32.9 L15.4487179,33.25 L15.4487179,33.25 C15.4487179,33.3 15.4987179,33.3 15.4987179,33.3 C15.5987179,33.45 15.5987179,33.65 15.5487179,33.8 C15.3487179,34.3 15.0487179,34.8 14.7487179,35.25 L14.7487179,35.3 C14.6987179,35.4 14.6487179,35.45 14.5487179,35.55 C14.4487179,35.65 14.3487179,35.85 14.1987179,36.05 C14.1487179,36.1 14.1487179,36.15 14.0987179,36.2 C14.0987179,36.2 14.0987179,36.25 14.0487179,36.25 L14.0487179,36.25 C13.7987179,36.75 13.9987179,37.35 14.4487179,37.6 C14.5487179,37.65 14.6987179,37.7 14.7987179,37.7 C15.1987179,37.7 15.5487179,37.45 15.7487179,37.1 L15.7487179,37.1 C15.7487179,37.1 15.7487179,37.05 15.7987179,37.05 C15.7987179,37 15.8487179,36.95 15.8987179,36.9 C15.9487179,36.7 16.0487179,36.55 16.0987179,36.35 L16.1987179,36.05 L16.1987179,36.05 C16.3487179,35.5 16.5987179,35 16.8487179,34.5 C16.9487179,34.35 17.0987179,34.25 17.2487179,34.2 C17.2987179,34.2 17.2987179,34.2 17.2987179,34.15 L17.2987179,34.15 L17.4987179,33.75 C18.8987179,34.3 20.3487179,34.55 21.8487179,34.55 C22.7487179,34.55 23.6487179,34.45 24.5487179,34.2 C25.0987179,34.1 25.6487179,33.9 26.1487179,33.75 L26.3487179,34.1 L26.3487179,34.1 C26.3987179,34.1 26.3987179,34.1 26.3987179,34.15 C26.5487179,34.2 26.6987179,34.3 26.7987179,34.45 C27.0487179,34.95 27.2987179,35.45 27.4487179,36 L27.4487179,36.05 L27.5487179,36.35 C27.5987179,36.55 27.6487179,36.75 27.7487179,36.9 C27.7987179,36.95 27.7987179,37 27.8487179,37.05 C27.8487179,37.05 27.8487179,37.1 27.8987179,37.1 L27.8987179,37.1 C28.0987179,37.45 28.4487179,37.7 28.8487179,37.7 C28.9987179,37.7 29.0987179,37.65 29.2487179,37.6 C29.4487179,37.5 29.6487179,37.3 29.6987179,37.05 C29.7487179,36.8 29.7487179,36.55 29.6487179,36.3 L29.6487179,36.3 C29.6487179,36.25 29.5987179,36.25 29.5987179,36.25 C29.5987179,36.2 29.5487179,36.15 29.4987179,36.1 C29.3987179,35.9 29.2987179,35.75 29.1487179,35.6 C29.0987179,35.5 29.0487179,35.45 28.9487179,35.35 L28.9487179,35.25 C28.5987179,34.8 28.3487179,34.3 28.1487179,33.8 C28.0987179,33.65 28.0987179,33.45 28.1987179,33.3 C28.1987179,33.25 28.2487179,33.25 28.2487179,33.25 L28.2487179,33.25 L28.0987179,32.85 C30.6487179,31.3 32.5987179,28.9 33.4987179,26.05 L33.8987179,26.1 L33.8987179,26.1 C33.9487179,26.1 33.9487179,26.05 33.9487179,26.05 C34.0487179,25.95 34.1987179,25.9 34.3487179,25.9 L34.3987179,25.9 C34.9487179,26 35.4987179,26.15 35.9987179,26.35 L36.0487179,26.35 C36.1487179,26.4 36.2487179,26.45 36.3487179,26.45 C36.5487179,26.55 36.6987179,26.65 36.8987179,26.7 C36.9487179,26.7 36.9987179,26.75 37.0987179,26.75 C37.1487179,26.75 37.1487179,26.75 37.1987179,26.8 L37.1987179,26.8 C37.2987179,26.85 37.3487179,26.85 37.4487179,26.85 C37.8987179,26.85 38.2987179,26.55 38.4487179,26.15 C38.3987179,25.6 37.9987179,25.2 37.5487179,25.1 Z M23.0987179,23.55 L21.7487179,24.2 L20.3987179,23.55 L20.0487179,22.1 L20.9987179,20.9 L22.4987179,20.9 L23.4487179,22.1 L23.0987179,23.55 Z M31.2487179,20.3 C31.4987179,21.35 31.5487179,22.4 31.4487179,23.45 L26.6987179,22.1 L26.6987179,22.1 C26.2487179,22 25.9987179,21.55 26.0987179,21.1 C26.1487179,20.95 26.1987179,20.85 26.2987179,20.75 L30.0487179,17.35 C30.5987179,18.25 30.9987179,19.25 31.2487179,20.3 Z M28.5487179,15.5 L24.4487179,18.4 C24.0987179,18.6 23.5987179,18.55 23.3487179,18.2 C23.2487179,18.1 23.1987179,18 23.1987179,17.85 L22.8987179,12.8 C25.0987179,13.05 27.0487179,14 28.5487179,15.5 L28.5487179,15.5 Z M19.4987179,12.95 L20.4987179,12.75 L20.2487179,17.75 L20.2487179,17.75 C20.2487179,18.2 19.8487179,18.55 19.3987179,18.55 C19.2487179,18.55 19.1487179,18.5 18.9987179,18.45 L14.8487179,15.5 C16.1487179,14.25 17.7487179,13.35 19.4987179,12.95 Z M13.3987179,17.35 L17.0987179,20.65 L17.0987179,20.65 C17.4487179,20.95 17.4987179,21.45 17.1987179,21.8 C17.0987179,21.95 16.9987179,22 16.7987179,22.05 L11.9487179,23.45 C11.7987179,21.35 12.2987179,19.2 13.3987179,17.35 Z M12.5487179,25.8 L17.4987179,24.95 C17.8987179,24.95 18.2987179,25.2 18.3487179,25.6 C18.3987179,25.75 18.3987179,25.95 18.2987179,26.1 L18.2987179,26.1 L16.3987179,30.7 C14.6487179,29.55 13.2487179,27.8 12.5487179,25.8 Z M23.8987179,32 C23.1987179,32.15 22.4987179,32.25 21.7487179,32.25 C20.6987179,32.25 19.5987179,32.05 18.5987179,31.75 L21.0487179,27.3 C21.2987179,27 21.6987179,26.9 22.0487179,27.1 C22.1987179,27.2 22.2987179,27.3 22.4487179,27.45 L22.4487179,27.45 L24.8487179,31.8 C24.5487179,31.85 24.2487179,31.9 23.8987179,32 Z M29.9987179,27.65 C29.2487179,28.85 28.1987179,29.9 26.9987179,30.65 L25.0487179,25.95 C24.9487179,25.55 25.1487179,25.15 25.4987179,25 C25.6487179,24.95 25.7987179,24.9 25.9487179,24.9 L30.9487179,25.75 C30.6987179,26.45 30.3987179,27.1 29.9987179,27.65 Z" id="形状" fill="#FFFFFF"></path>
                    </g>
                </g>
                <g id="编组-20" transform="translate(0.000000, 96.000000)">
                    <rect id="Rectangle-4-Copy-12" fill="#FFFFFF" x="0" y="0" width="40" height="40" rx="5"></rect>
                    <g id="编组-7" transform="translate(7.000000, 2.000000)">
                        <path d="M9.10347454,8.47165478 L20.5014487,4.25897662 C21.0194831,4.0675117 21.594646,4.33224857 21.7861109,4.85028296 C21.8743235,5.08895409 21.8682357,5.35227612 21.7690876,5.58661566 L17.1279367,16.5561171 C17.0266333,16.795551 16.8360644,16.9861198 16.5966305,17.0874233 L5.62712907,21.7285742 C5.11849636,21.9437746 4.53171369,21.7059007 4.31651329,21.197268 C4.21736519,20.9629285 4.21127746,20.6996065 4.29949003,20.4609353 L8.51216819,9.06296113 C8.6134414,8.78895269 8.8294661,8.57292799 9.10347454,8.47165478 Z" id="Rectangle-7" fill="#9BBBF8" transform="translate(13.083966, 13.043453) rotate(45.000000) translate(-13.083966, -13.043453) "></path>
                        <path d="M2.80904809,15.6006919 L14.8691564,15.6006919 C15.4214411,15.6006919 15.8691564,16.0484072 15.8691564,16.6006919 C15.8691564,16.728604 15.8446161,16.8553284 15.7968663,16.9739938 L11.4114006,27.8725194 C11.259036,28.2511677 10.8918444,28.4992175 10.4836906,28.4992175 L-1.45615738,28.4992175 C-2.00844213,28.4992175 -2.45615738,28.0515023 -2.45615738,27.4992175 C-2.45615738,27.3745116 -2.43283177,27.2509058 -2.38738378,27.1347763 L1.87782169,16.2362507 C2.02783724,15.8529284 2.39741639,15.6006919 2.80904809,15.6006919 Z" id="Rectangle-7-Copy" fill="#81A4E8" transform="translate(6.714052, 22.049955) rotate(90.000000) translate(-6.714052, -22.049955) "></path>
                        <path d="M15.1922692,15.7149592 L27.2475115,15.7149592 C27.7997963,15.7149592 28.2475115,16.1626744 28.2475115,16.7149592 C28.2475115,16.8447063 28.2222622,16.9732135 28.1731716,17.0933153 L23.8283469,27.7230643 C23.6746714,28.0990361 23.3088529,28.3447082 22.9026868,28.3447082 L10.9672351,28.3447082 C10.4149503,28.3447082 9.96723508,27.8969929 9.96723508,27.3447082 C9.96723508,27.2182222 9.99123122,27.0928845 10.0379507,26.9753431 L14.2629848,16.3455941 C14.4143137,15.9648663 14.7825692,15.7149592 15.1922692,15.7149592 Z" id="Rectangle-7-Copy-2" fill="#6694EF" transform="translate(19.115115, 22.029834) scale(-1, 1) rotate(90.000000) translate(-19.115115, -22.029834) "></path>
                    </g>
                </g>
                <g id="编组-23" transform="translate(96.000000, 96.000000)">
                    <rect id="Rectangle-4-Copy-13" fill="#FFFFFF" x="0" y="0" width="40" height="40" rx="5"></rect>
                    <g id="编组-22" transform="translate(7.000000, 2.000000)">
                        <path d="M9.10347454,8.47165478 L20.5014487,4.25897662 C21.0194831,4.0675117 21.594646,4.33224857 21.7861109,4.85028296 C21.8743235,5.08895409 21.8682357,5.35227612 21.7690876,5.58661566 L17.1279367,16.5561171 C17.0266333,16.795551 16.8360644,16.9861198 16.5966305,17.0874233 L5.62712907,21.7285742 C5.11849636,21.9437746 4.53171369,21.7059007 4.31651329,21.197268 C4.21736519,20.9629285 4.21127746,20.6996065 4.29949003,20.4609353 L8.51216819,9.06296113 C8.6134414,8.78895269 8.8294661,8.57292799 9.10347454,8.47165478 Z" id="Rectangle-7" fill="#F9F5C2" transform="translate(13.083966, 13.043453) rotate(45.000000) translate(-13.083966, -13.043453) "></path>
                        <path d="M2.80904809,15.6006919 L14.8691564,15.6006919 C15.4214411,15.6006919 15.8691564,16.0484072 15.8691564,16.6006919 C15.8691564,16.728604 15.8446161,16.8553284 15.7968663,16.9739938 L11.4114006,27.8725194 C11.259036,28.2511677 10.8918444,28.4992175 10.4836906,28.4992175 L-1.45615738,28.4992175 C-2.00844213,28.4992175 -2.45615738,28.0515023 -2.45615738,27.4992175 C-2.45615738,27.3745116 -2.43283177,27.2509058 -2.38738378,27.1347763 L1.87782169,16.2362507 C2.02783724,15.8529284 2.39741639,15.6006919 2.80904809,15.6006919 Z" id="Rectangle-7-Copy" fill="#EDE9B2" transform="translate(6.714052, 22.049955) rotate(90.000000) translate(-6.714052, -22.049955) "></path>
                        <path d="M15.1922692,15.7149592 L27.2475115,15.7149592 C27.7997963,15.7149592 28.2475115,16.1626744 28.2475115,16.7149592 C28.2475115,16.8447063 28.2222622,16.9732135 28.1731716,17.0933153 L23.8283469,27.7230643 C23.6746714,28.0990361 23.3088529,28.3447082 22.9026868,28.3447082 L10.9672351,28.3447082 C10.4149503,28.3447082 9.96723508,27.8969929 9.96723508,27.3447082 C9.96723508,27.2182222 9.99123122,27.0928845 10.0379507,26.9753431 L14.2629848,16.3455941 C14.4143137,15.9648663 14.7825692,15.7149592 15.1922692,15.7149592 Z" id="Rectangle-7-Copy-2" fill="#F8F1A1" transform="translate(19.115115, 22.029834) scale(-1, 1) rotate(90.000000) translate(-19.115115, -22.029834) "></path>
                    </g>
                </g>
                <g id="编组-23" transform="translate(48.000000, 96.000000)">
                    <rect id="Rectangle-4-Copy-13" fill="#FFFFFF" x="0" y="0" width="40" height="40" rx="5"></rect>
                    <g id="编组-22" transform="translate(6.000000, 1.000000)">
                        <path d="M10.1034745,9.47165478 L21.5014487,5.25897662 C22.0194831,5.0675117 22.594646,5.33224857 22.7861109,5.85028296 C22.8743235,6.08895409 22.8682357,6.35227612 22.7690876,6.58661566 L18.1279367,17.5561171 C18.0266333,17.795551 17.8360644,17.9861198 17.5966305,18.0874233 L6.62712907,22.7285742 C6.11849636,22.9437746 5.53171369,22.7059007 5.31651329,22.197268 C5.21736519,21.9629285 5.21127746,21.6996065 5.29949003,21.4609353 L9.51216819,10.0629611 C9.6134414,9.78895269 9.8294661,9.57292799 10.1034745,9.47165478 Z" id="Rectangle-7" fill="#BCF5FB" transform="translate(14.083966, 14.043453) rotate(45.000000) translate(-14.083966, -14.043453) "></path>
                        <path d="M3.80904809,16.6006919 L15.8691564,16.6006919 C16.4214411,16.6006919 16.8691564,17.0484072 16.8691564,17.6006919 C16.8691564,17.728604 16.8446161,17.8553284 16.7968663,17.9739938 L12.4114006,28.8725194 C12.259036,29.2511677 11.8918444,29.4992175 11.4836906,29.4992175 L-0.456157383,29.4992175 C-1.00844213,29.4992175 -1.45615738,29.0515023 -1.45615738,28.4992175 C-1.45615738,28.3745116 -1.43283177,28.2509058 -1.38738378,28.1347763 L2.87782169,17.2362507 C3.02783724,16.8529284 3.39741639,16.6006919 3.80904809,16.6006919 Z" id="Rectangle-7-Copy" fill="#A8DFE4" transform="translate(7.714052, 23.049955) rotate(90.000000) translate(-7.714052, -23.049955) "></path>
                        <path d="M16.1922692,16.7149592 L28.2475115,16.7149592 C28.7997963,16.7149592 29.2475115,17.1626744 29.2475115,17.7149592 C29.2475115,17.8447063 29.2222622,17.9732135 29.1731716,18.0933153 L24.8283469,28.7230643 C24.6746714,29.0990361 24.3088529,29.3447082 23.9026868,29.3447082 L11.9672351,29.3447082 C11.4149503,29.3447082 10.9672351,28.8969929 10.9672351,28.3447082 C10.9672351,28.2182222 10.9912312,28.0928845 11.0379507,27.9753431 L15.2629848,17.3455941 C15.4143137,16.9648663 15.7825692,16.7149592 16.1922692,16.7149592 Z" id="Rectangle-7-Copy-2" fill="#9BE8EF" transform="translate(20.115115, 23.029834) scale(-1, 1) rotate(90.000000) translate(-20.115115, -23.029834) "></path>
                    </g>
                </g>
                <g id="编组-20" transform="translate(48.000000, 48.000000)">
                    <rect id="Rectangle-4-Copy-12" fill="#FFFFFF" x="0" y="0" width="40" height="40" rx="5"></rect>
                    <g id="编组-7" transform="translate(7.000000, 2.000000)">
                        <path d="M9.10347454,8.47165478 L20.5014487,4.25897662 C21.0194831,4.0675117 21.594646,4.33224857 21.7861109,4.85028296 C21.8743235,5.08895409 21.8682357,5.35227612 21.7690876,5.58661566 L17.1279367,16.5561171 C17.0266333,16.795551 16.8360644,16.9861198 16.5966305,17.0874233 L5.62712907,21.7285742 C5.11849636,21.9437746 4.53171369,21.7059007 4.31651329,21.197268 C4.21736519,20.9629285 4.21127746,20.6996065 4.29949003,20.4609353 L8.51216819,9.06296113 C8.6134414,8.78895269 8.8294661,8.57292799 9.10347454,8.47165478 Z" id="Rectangle-7" fill="#9BBBF8" transform="translate(13.083966, 13.043453) rotate(45.000000) translate(-13.083966, -13.043453) "></path>
                        <path d="M2.80904809,15.6006919 L14.8691564,15.6006919 C15.4214411,15.6006919 15.8691564,16.0484072 15.8691564,16.6006919 C15.8691564,16.728604 15.8446161,16.8553284 15.7968663,16.9739938 L11.4114006,27.8725194 C11.259036,28.2511677 10.8918444,28.4992175 10.4836906,28.4992175 L-1.45615738,28.4992175 C-2.00844213,28.4992175 -2.45615738,28.0515023 -2.45615738,27.4992175 C-2.45615738,27.3745116 -2.43283177,27.2509058 -2.38738378,27.1347763 L1.87782169,16.2362507 C2.02783724,15.8529284 2.39741639,15.6006919 2.80904809,15.6006919 Z" id="Rectangle-7-Copy" fill="#81A4E8" transform="translate(6.714052, 22.049955) rotate(90.000000) translate(-6.714052, -22.049955) "></path>
                        <path d="M15.1922692,15.7149592 L27.2475115,15.7149592 C27.7997963,15.7149592 28.2475115,16.1626744 28.2475115,16.7149592 C28.2475115,16.8447063 28.2222622,16.9732135 28.1731716,17.0933153 L23.8283469,27.7230643 C23.6746714,28.0990361 23.3088529,28.3447082 22.9026868,28.3447082 L10.9672351,28.3447082 C10.4149503,28.3447082 9.96723508,27.8969929 9.96723508,27.3447082 C9.96723508,27.2182222 9.99123122,27.0928845 10.0379507,26.9753431 L14.2629848,16.3455941 C14.4143137,15.9648663 14.7825692,15.7149592 15.1922692,15.7149592 Z" id="Rectangle-7-Copy-2" fill="#6694EF" transform="translate(19.115115, 22.029834) scale(-1, 1) rotate(90.000000) translate(-19.115115, -22.029834) "></path>
                    </g>
                </g>
                <g id="编组-23" transform="translate(0.000000, 48.000000)">
                    <rect id="Rectangle-4-Copy-13" fill="#FFFFFF" x="0" y="0" width="40" height="40" rx="5"></rect>
                    <g id="编组-22" transform="translate(7.000000, 2.000000)">
                        <path d="M9.10347454,8.47165478 L20.5014487,4.25897662 C21.0194831,4.0675117 21.594646,4.33224857 21.7861109,4.85028296 C21.8743235,5.08895409 21.8682357,5.35227612 21.7690876,5.58661566 L17.1279367,16.5561171 C17.0266333,16.795551 16.8360644,16.9861198 16.5966305,17.0874233 L5.62712907,21.7285742 C5.11849636,21.9437746 4.53171369,21.7059007 4.31651329,21.197268 C4.21736519,20.9629285 4.21127746,20.6996065 4.29949003,20.4609353 L8.51216819,9.06296113 C8.6134414,8.78895269 8.8294661,8.57292799 9.10347454,8.47165478 Z" id="Rectangle-7" fill="#F9F5C2" transform="translate(13.083966, 13.043453) rotate(45.000000) translate(-13.083966, -13.043453) "></path>
                        <path d="M2.80904809,15.6006919 L14.8691564,15.6006919 C15.4214411,15.6006919 15.8691564,16.0484072 15.8691564,16.6006919 C15.8691564,16.728604 15.8446161,16.8553284 15.7968663,16.9739938 L11.4114006,27.8725194 C11.259036,28.2511677 10.8918444,28.4992175 10.4836906,28.4992175 L-1.45615738,28.4992175 C-2.00844213,28.4992175 -2.45615738,28.0515023 -2.45615738,27.4992175 C-2.45615738,27.3745116 -2.43283177,27.2509058 -2.38738378,27.1347763 L1.87782169,16.2362507 C2.02783724,15.8529284 2.39741639,15.6006919 2.80904809,15.6006919 Z" id="Rectangle-7-Copy" fill="#EDE9B2" transform="translate(6.714052, 22.049955) rotate(90.000000) translate(-6.714052, -22.049955) "></path>
                        <path d="M15.1922692,15.7149592 L27.2475115,15.7149592 C27.7997963,15.7149592 28.2475115,16.1626744 28.2475115,16.7149592 C28.2475115,16.8447063 28.2222622,16.9732135 28.1731716,17.0933153 L23.8283469,27.7230643 C23.6746714,28.0990361 23.3088529,28.3447082 22.9026868,28.3447082 L10.9672351,28.3447082 C10.4149503,28.3447082 9.96723508,27.8969929 9.96723508,27.3447082 C9.96723508,27.2182222 9.99123122,27.0928845 10.0379507,26.9753431 L14.2629848,16.3455941 C14.4143137,15.9648663 14.7825692,15.7149592 15.1922692,15.7149592 Z" id="Rectangle-7-Copy-2" fill="#F8F1A1" transform="translate(19.115115, 22.029834) scale(-1, 1) rotate(90.000000) translate(-19.115115, -22.029834) "></path>
                    </g>
                </g>
                <g id="编组-23" transform="translate(48.000000, 0.000000)">
                    <rect id="Rectangle-4-Copy-13" fill="#FFFFFF" x="0" y="0" width="40" height="40" rx="5"></rect>
                    <g id="编组-22" transform="translate(7.000000, 2.000000)">
                        <path d="M9.10347454,8.47165478 L20.5014487,4.25897662 C21.0194831,4.0675117 21.594646,4.33224857 21.7861109,4.85028296 C21.8743235,5.08895409 21.8682357,5.35227612 21.7690876,5.58661566 L17.1279367,16.5561171 C17.0266333,16.795551 16.8360644,16.9861198 16.5966305,17.0874233 L5.62712907,21.7285742 C5.11849636,21.9437746 4.53171369,21.7059007 4.31651329,21.197268 C4.21736519,20.9629285 4.21127746,20.6996065 4.29949003,20.4609353 L8.51216819,9.06296113 C8.6134414,8.78895269 8.8294661,8.57292799 9.10347454,8.47165478 Z" id="Rectangle-7" fill="#F9F5C2" transform="translate(13.083966, 13.043453) rotate(45.000000) translate(-13.083966, -13.043453) "></path>
                        <path d="M2.80904809,15.6006919 L14.8691564,15.6006919 C15.4214411,15.6006919 15.8691564,16.0484072 15.8691564,16.6006919 C15.8691564,16.728604 15.8446161,16.8553284 15.7968663,16.9739938 L11.4114006,27.8725194 C11.259036,28.2511677 10.8918444,28.4992175 10.4836906,28.4992175 L-1.45615738,28.4992175 C-2.00844213,28.4992175 -2.45615738,28.0515023 -2.45615738,27.4992175 C-2.45615738,27.3745116 -2.43283177,27.2509058 -2.38738378,27.1347763 L1.87782169,16.2362507 C2.02783724,15.8529284 2.39741639,15.6006919 2.80904809,15.6006919 Z" id="Rectangle-7-Copy" fill="#EDE9B2" transform="translate(6.714052, 22.049955) rotate(90.000000) translate(-6.714052, -22.049955) "></path>
                        <path d="M15.1922692,15.7149592 L27.2475115,15.7149592 C27.7997963,15.7149592 28.2475115,16.1626744 28.2475115,16.7149592 C28.2475115,16.8447063 28.2222622,16.9732135 28.1731716,17.0933153 L23.8283469,27.7230643 C23.6746714,28.0990361 23.3088529,28.3447082 22.9026868,28.3447082 L10.9672351,28.3447082 C10.4149503,28.3447082 9.96723508,27.8969929 9.96723508,27.3447082 C9.96723508,27.2182222 9.99123122,27.0928845 10.0379507,26.9753431 L14.2629848,16.3455941 C14.4143137,15.9648663 14.7825692,15.7149592 15.1922692,15.7149592 Z" id="Rectangle-7-Copy-2" fill="#F8F1A1" transform="translate(19.115115, 22.029834) scale(-1, 1) rotate(90.000000) translate(-19.115115, -22.029834) "></path>
                    </g>
                </g>
                <g id="编组-23">
                    <rect id="Rectangle-4-Copy-13" fill="#FFFFFF" x="0" y="0" width="40" height="40" rx="5"></rect>
                    <g id="编组-22" transform="translate(6.000000, 1.000000)">
                        <path d="M10.1034745,9.47165478 L21.5014487,5.25897662 C22.0194831,5.0675117 22.594646,5.33224857 22.7861109,5.85028296 C22.8743235,6.08895409 22.8682357,6.35227612 22.7690876,6.58661566 L18.1279367,17.5561171 C18.0266333,17.795551 17.8360644,17.9861198 17.5966305,18.0874233 L6.62712907,22.7285742 C6.11849636,22.9437746 5.53171369,22.7059007 5.31651329,22.197268 C5.21736519,21.9629285 5.21127746,21.6996065 5.29949003,21.4609353 L9.51216819,10.0629611 C9.6134414,9.78895269 9.8294661,9.57292799 10.1034745,9.47165478 Z" id="Rectangle-7" fill="#BCF5FB" transform="translate(14.083966, 14.043453) rotate(45.000000) translate(-14.083966, -14.043453) "></path>
                        <path d="M3.80904809,16.6006919 L15.8691564,16.6006919 C16.4214411,16.6006919 16.8691564,17.0484072 16.8691564,17.6006919 C16.8691564,17.728604 16.8446161,17.8553284 16.7968663,17.9739938 L12.4114006,28.8725194 C12.259036,29.2511677 11.8918444,29.4992175 11.4836906,29.4992175 L-0.456157383,29.4992175 C-1.00844213,29.4992175 -1.45615738,29.0515023 -1.45615738,28.4992175 C-1.45615738,28.3745116 -1.43283177,28.2509058 -1.38738378,28.1347763 L2.87782169,17.2362507 C3.02783724,16.8529284 3.39741639,16.6006919 3.80904809,16.6006919 Z" id="Rectangle-7-Copy" fill="#A8DFE4" transform="translate(7.714052, 23.049955) rotate(90.000000) translate(-7.714052, -23.049955) "></path>
                        <path d="M16.1922692,16.7149592 L28.2475115,16.7149592 C28.7997963,16.7149592 29.2475115,17.1626744 29.2475115,17.7149592 C29.2475115,17.8447063 29.2222622,17.9732135 29.1731716,18.0933153 L24.8283469,28.7230643 C24.6746714,29.0990361 24.3088529,29.3447082 23.9026868,29.3447082 L11.9672351,29.3447082 C11.4149503,29.3447082 10.9672351,28.8969929 10.9672351,28.3447082 C10.9672351,28.2182222 10.9912312,28.0928845 11.0379507,27.9753431 L15.2629848,17.3455941 C15.4143137,16.9648663 15.7825692,16.7149592 16.1922692,16.7149592 Z" id="Rectangle-7-Copy-2" fill="#9BE8EF" transform="translate(20.115115, 23.029834) scale(-1, 1) rotate(90.000000) translate(-20.115115, -23.029834) "></path>
                    </g>
                </g>
                <g id="编组-23" transform="translate(96.000000, 48.000000)">
                    <rect id="Rectangle-4-Copy-13" fill="#FFFFFF" x="0" y="0" width="40" height="40" rx="5"></rect>
                    <g id="编组-22" transform="translate(6.000000, 1.000000)">
                        <path d="M10.1034745,9.47165478 L21.5014487,5.25897662 C22.0194831,5.0675117 22.594646,5.33224857 22.7861109,5.85028296 C22.8743235,6.08895409 22.8682357,6.35227612 22.7690876,6.58661566 L18.1279367,17.5561171 C18.0266333,17.795551 17.8360644,17.9861198 17.5966305,18.0874233 L6.62712907,22.7285742 C6.11849636,22.9437746 5.53171369,22.7059007 5.31651329,22.197268 C5.21736519,21.9629285 5.21127746,21.6996065 5.29949003,21.4609353 L9.51216819,10.0629611 C9.6134414,9.78895269 9.8294661,9.57292799 10.1034745,9.47165478 Z" id="Rectangle-7" fill="#BCF5FB" transform="translate(14.083966, 14.043453) rotate(45.000000) translate(-14.083966, -14.043453) "></path>
                        <path d="M3.80904809,16.6006919 L15.8691564,16.6006919 C16.4214411,16.6006919 16.8691564,17.0484072 16.8691564,17.6006919 C16.8691564,17.728604 16.8446161,17.8553284 16.7968663,17.9739938 L12.4114006,28.8725194 C12.259036,29.2511677 11.8918444,29.4992175 11.4836906,29.4992175 L-0.456157383,29.4992175 C-1.00844213,29.4992175 -1.45615738,29.0515023 -1.45615738,28.4992175 C-1.45615738,28.3745116 -1.43283177,28.2509058 -1.38738378,28.1347763 L2.87782169,17.2362507 C3.02783724,16.8529284 3.39741639,16.6006919 3.80904809,16.6006919 Z" id="Rectangle-7-Copy" fill="#A8DFE4" transform="translate(7.714052, 23.049955) rotate(90.000000) translate(-7.714052, -23.049955) "></path>
                        <path d="M16.1922692,16.7149592 L28.2475115,16.7149592 C28.7997963,16.7149592 29.2475115,17.1626744 29.2475115,17.7149592 C29.2475115,17.8447063 29.2222622,17.9732135 29.1731716,18.0933153 L24.8283469,28.7230643 C24.6746714,29.0990361 24.3088529,29.3447082 23.9026868,29.3447082 L11.9672351,29.3447082 C11.4149503,29.3447082 10.9672351,28.8969929 10.9672351,28.3447082 C10.9672351,28.2182222 10.9912312,28.0928845 11.0379507,27.9753431 L15.2629848,17.3455941 C15.4143137,16.9648663 15.7825692,16.7149592 16.1922692,16.7149592 Z" id="Rectangle-7-Copy-2" fill="#9BE8EF" transform="translate(20.115115, 23.029834) scale(-1, 1) rotate(90.000000) translate(-20.115115, -23.029834) "></path>
                    </g>
                </g>
            </g>
        </g>
    </g>
</svg>