<?xml version="1.0" encoding="UTF-8"?>
<svg width="160px" height="116px" viewBox="0 0 160 116" version="1.1" xmlns="http://www.w3.org/2000/svg" xmlns:xlink="http://www.w3.org/1999/xlink">
    <!-- Generator: Sketch 47 (45396) - http://www.bohemiancoding.com/sketch -->
    <title>deployment-1</title>
    <desc>Created with Sketch.</desc>
    <defs>
        <rect id="path-1" x="0" y="43" width="148" height="32" rx="5"></rect>
        <filter x="-6.8%" y="-25.0%" width="113.5%" height="162.5%" filterUnits="objectBoundingBox" id="filter-2">
            <feOffset dx="0" dy="2" in="SourceAlpha" result="shadowOffsetOuter1"></feOffset>
            <feGaussianBlur stdDeviation="3" in="shadowOffsetOuter1" result="shadowBlurOuter1"></feGaussianBlur>
            <feColorMatrix values="0 0 0 0 0   0 0 0 0 0   0 0 0 0 0  0 0 0 0.16 0" type="matrix" in="shadowBlurOuter1"></feColorMatrix>
        </filter>
    </defs>
    <g id="产品模块" stroke="none" stroke-width="1" fill="none" fill-rule="evenodd">
        <g transform="translate(-257.000000, -3333.000000)" id="deployment-1">
            <g transform="translate(263.000000, 3332.000000)">
                <rect id="Rectangle-4-Copy-28" fill="#FFFFFF" x="0" y="1" width="148" height="32" rx="5"></rect>
                <g id="Group-11" transform="translate(12.000000, 0.000000)">
                    <path d="M8.75757396,7.51345251 L19.3509523,3.5562036 L19.3509523,3.5562036 C19.8683173,3.36293736 20.4443978,3.62567137 20.637664,4.14303644 C20.7275129,4.38355785 20.7214051,4.64942372 20.6206056,4.88556528 L16.2676318,15.0832187 L16.2676318,15.0832187 C16.1664314,15.3202995 15.9775882,15.5091428 15.7405073,15.6103432 L5.54285389,19.963317 L5.54285389,19.963317 C5.03490995,20.1801381 4.44737178,19.9441364 4.23055065,19.4361925 C4.12975119,19.2000509 4.12364333,18.9341851 4.2134922,18.6936637 L8.17074112,8.10028535 L8.17074112,8.10028535 C8.27211673,7.82890737 8.48619597,7.61482813 8.75757396,7.51345251 Z" id="Rectangle-7" fill="#9BBBF8" transform="translate(12.425578, 11.768282) rotate(45.000000) translate(-12.425578, -11.768282) "></path>
                    <path d="M2.79011671,14.1607214 L13.9640613,14.1607214 L13.9640613,14.1607214 C14.5163461,14.1607214 14.9640613,14.6084366 14.9640613,15.1607214 C14.9640613,15.2875667 14.9399287,15.4132539 14.8929505,15.5310791 L10.8245144,25.7350687 L10.8245144,25.7350687 C10.6729232,26.1152726 10.3049355,26.364711 9.89562522,26.364711 L-1.16675285,26.364711 L-1.16675285,26.364711 C-1.7190376,26.364711 -2.16675285,25.9169957 -2.16675285,25.364711 C-2.16675285,25.24105 -2.14381644,25.1184615 -2.09910737,25.0031656 L1.85776219,14.799176 L1.85776219,14.799176 C2.00699606,14.4143312 2.37735007,14.1607214 2.79011671,14.1607214 Z" id="Rectangle-7-Copy" fill="#81A4E8" transform="translate(6.398654, 20.262716) rotate(90.000000) translate(-6.398654, -20.262716) "></path>
                    <path d="M14.5066658,14.2688233 L25.6758252,14.2688233 L25.6758252,14.2688233 C26.2281099,14.2688233 26.6758252,14.7165385 26.6758252,15.2688233 C26.6758252,15.3974912 26.6509941,15.5249501 26.6026941,15.6442084 L22.5730367,25.593894 L22.5730367,25.593894 C22.4201292,25.97144 22.0535025,26.2185089 21.6461677,26.2185089 L10.5881095,26.2185089 L10.5881095,26.2185089 C10.0358248,26.2185089 9.58810953,25.7707936 9.58810953,25.2185089 C9.58810953,25.0930801 9.6117063,24.9687708 9.65766872,24.8520667 L13.576225,14.9023811 L13.576225,14.9023811 C13.7267766,14.5201123 14.0958188,14.2688233 14.5066658,14.2688233 Z" id="Rectangle-7-Copy-2" fill="#6694EF" transform="translate(18.131967, 20.243666) scale(-1, 1) rotate(90.000000) translate(-18.131967, -20.243666) "></path>
                </g>
                <rect id="Rectangle-2-Copy-20" fill="#E2E2E2" x="48" y="19" width="86" height="6" rx="3"></rect>
                <rect id="Rectangle-2-Copy-22" fill="#E2E2E2" x="48" y="8" width="32" height="6" rx="3"></rect>
                <g id="Rectangle-4-Copy-29">
                    <use fill="black" fill-opacity="1" filter="url(#filter-2)" xlink:href="#path-1"></use>
                    <use fill="#FFFFFF" fill-rule="evenodd" xlink:href="#path-1"></use>
                </g>
                <rect id="Rectangle-2-Copy-20" fill="#B7B7B7" x="48" y="61" width="86" height="6" rx="3"></rect>
                <rect id="Rectangle-2-Copy-22" fill="#B7B7B7" x="48" y="50" width="32" height="6" rx="3"></rect>
                <rect id="Rectangle-4-Copy-30" fill="#FFFFFF" x="0" y="85" width="148" height="32" rx="5"></rect>
                <rect id="Rectangle-2-Copy-35" fill="#ECECEC" x="48" y="104" width="86" height="6" rx="3"></rect>
                <rect id="Rectangle-2-Copy-38" fill="#ECECEC" x="48" y="93" width="32" height="6" rx="3"></rect>
                <g id="Group-11-Copy" transform="translate(12.000000, 42.000000)">
                    <path d="M8.75757396,7.51345251 L19.3509523,3.5562036 L19.3509523,3.5562036 C19.8683173,3.36293736 20.4443978,3.62567137 20.637664,4.14303644 C20.7275129,4.38355785 20.7214051,4.64942372 20.6206056,4.88556528 L16.2676318,15.0832187 L16.2676318,15.0832187 C16.1664314,15.3202995 15.9775882,15.5091428 15.7405073,15.6103432 L5.54285389,19.963317 L5.54285389,19.963317 C5.03490995,20.1801381 4.44737178,19.9441364 4.23055065,19.4361925 C4.12975119,19.2000509 4.12364333,18.9341851 4.2134922,18.6936637 L8.17074112,8.10028535 L8.17074112,8.10028535 C8.27211673,7.82890737 8.48619597,7.61482813 8.75757396,7.51345251 Z" id="Rectangle-7" fill="#F9F5C2" transform="translate(12.425578, 11.768282) rotate(45.000000) translate(-12.425578, -11.768282) "></path>
                    <path d="M2.79011671,14.1607214 L13.9640613,14.1607214 L13.9640613,14.1607214 C14.5163461,14.1607214 14.9640613,14.6084366 14.9640613,15.1607214 C14.9640613,15.2875667 14.9399287,15.4132539 14.8929505,15.5310791 L10.8245144,25.7350687 L10.8245144,25.7350687 C10.6729232,26.1152726 10.3049355,26.364711 9.89562522,26.364711 L-1.16675285,26.364711 L-1.16675285,26.364711 C-1.7190376,26.364711 -2.16675285,25.9169957 -2.16675285,25.364711 C-2.16675285,25.24105 -2.14381644,25.1184615 -2.09910737,25.0031656 L1.85776219,14.799176 L1.85776219,14.799176 C2.00699606,14.4143312 2.37735007,14.1607214 2.79011671,14.1607214 Z" id="Rectangle-7-Copy" fill="#EDE9B2" transform="translate(6.398654, 20.262716) rotate(90.000000) translate(-6.398654, -20.262716) "></path>
                    <path d="M14.5066658,14.2688233 L25.6758252,14.2688233 L25.6758252,14.2688233 C26.2281099,14.2688233 26.6758252,14.7165385 26.6758252,15.2688233 C26.6758252,15.3974912 26.6509941,15.5249501 26.6026941,15.6442084 L22.5730367,25.593894 L22.5730367,25.593894 C22.4201292,25.97144 22.0535025,26.2185089 21.6461677,26.2185089 L10.5881095,26.2185089 L10.5881095,26.2185089 C10.0358248,26.2185089 9.58810953,25.7707936 9.58810953,25.2185089 C9.58810953,25.0930801 9.6117063,24.9687708 9.65766872,24.8520667 L13.576225,14.9023811 L13.576225,14.9023811 C13.7267766,14.5201123 14.0958188,14.2688233 14.5066658,14.2688233 Z" id="Rectangle-7-Copy-2" fill="#F8F1A1" transform="translate(18.131967, 20.243666) scale(-1, 1) rotate(90.000000) translate(-18.131967, -20.243666) "></path>
                </g>
                <g id="Group-11-Copy-2" transform="translate(12.000000, 84.000000)">
                    <path d="M8.75757396,7.51345251 L19.3509523,3.5562036 L19.3509523,3.5562036 C19.8683173,3.36293736 20.4443978,3.62567137 20.637664,4.14303644 C20.7275129,4.38355785 20.7214051,4.64942372 20.6206056,4.88556528 L16.2676318,15.0832187 L16.2676318,15.0832187 C16.1664314,15.3202995 15.9775882,15.5091428 15.7405073,15.6103432 L5.54285389,19.963317 L5.54285389,19.963317 C5.03490995,20.1801381 4.44737178,19.9441364 4.23055065,19.4361925 C4.12975119,19.2000509 4.12364333,18.9341851 4.2134922,18.6936637 L8.17074112,8.10028535 L8.17074112,8.10028535 C8.27211673,7.82890737 8.48619597,7.61482813 8.75757396,7.51345251 Z" id="Rectangle-7" fill="#BCF5FB" transform="translate(12.425578, 11.768282) rotate(45.000000) translate(-12.425578, -11.768282) "></path>
                    <path d="M2.79011671,14.1607214 L13.9640613,14.1607214 L13.9640613,14.1607214 C14.5163461,14.1607214 14.9640613,14.6084366 14.9640613,15.1607214 C14.9640613,15.2875667 14.9399287,15.4132539 14.8929505,15.5310791 L10.8245144,25.7350687 L10.8245144,25.7350687 C10.6729232,26.1152726 10.3049355,26.364711 9.89562522,26.364711 L-1.16675285,26.364711 L-1.16675285,26.364711 C-1.7190376,26.364711 -2.16675285,25.9169957 -2.16675285,25.364711 C-2.16675285,25.24105 -2.14381644,25.1184615 -2.09910737,25.0031656 L1.85776219,14.799176 L1.85776219,14.799176 C2.00699606,14.4143312 2.37735007,14.1607214 2.79011671,14.1607214 Z" id="Rectangle-7-Copy" fill="#A8DFE4" transform="translate(6.398654, 20.262716) rotate(90.000000) translate(-6.398654, -20.262716) "></path>
                    <path d="M14.5066658,14.2688233 L25.6758252,14.2688233 L25.6758252,14.2688233 C26.2281099,14.2688233 26.6758252,14.7165385 26.6758252,15.2688233 C26.6758252,15.3974912 26.6509941,15.5249501 26.6026941,15.6442084 L22.5730367,25.593894 L22.5730367,25.593894 C22.4201292,25.97144 22.0535025,26.2185089 21.6461677,26.2185089 L10.5881095,26.2185089 L10.5881095,26.2185089 C10.0358248,26.2185089 9.58810953,25.7707936 9.58810953,25.2185089 C9.58810953,25.0930801 9.6117063,24.9687708 9.65766872,24.8520667 L13.576225,14.9023811 L13.576225,14.9023811 C13.7267766,14.5201123 14.0958188,14.2688233 14.5066658,14.2688233 Z" id="Rectangle-7-Copy-2" fill="#9BE8EF" transform="translate(18.131967, 20.243666) scale(-1, 1) rotate(90.000000) translate(-18.131967, -20.243666) "></path>
                </g>
            </g>
        </g>
    </g>
</svg>