<?xml version="1.0" encoding="UTF-8"?>
<svg width="134px" height="136px" viewBox="0 0 134 136" version="1.1" xmlns="http://www.w3.org/2000/svg" xmlns:xlink="http://www.w3.org/1999/xlink">
    <!-- Generator: Sketch 49.3 (51167) - http://www.bohemiancoding.com/sketch -->
    <title>development-1</title>
    <desc>Created with Sketch.</desc>
    <defs>
        <rect id="path-1" x="0" y="0" width="62" height="62" rx="5"></rect>
        <filter x="-8.1%" y="-6.5%" width="116.1%" height="116.1%" filterUnits="objectBoundingBox" id="filter-2">
            <feOffset dx="0" dy="1" in="SourceAlpha" result="shadowOffsetOuter1"></feOffset>
            <feGaussianBlur stdDeviation="1.5" in="shadowOffsetOuter1" result="shadowBlurOuter1"></feGaussianBlur>
            <feColorMatrix values="0 0 0 0 0.1430699   0 0 0 0 0.137421612   0 0 0 0 0.168101616  0 0 0 0.24 0" type="matrix" in="shadowBlurOuter1"></feColorMatrix>
        </filter>
    </defs>
    <g id="Page-1" stroke="none" stroke-width="1" fill="none" fill-rule="evenodd">
        <g id="development-1" transform="translate(0.000000, 2.000000)">
            <g id="Rectangle-4" transform="translate(36.000000, 0.000000)" fill-rule="nonzero">
                <g id="path-1-link">
                    <g id="path-1">
                        <use fill="black" fill-opacity="1" filter="url(#filter-2)" xlink:href="#path-1"></use>
                        <use fill="#FFFFFF" fill-rule="evenodd" xlink:href="#path-1"></use>
                    </g>
                </g>
            </g>
            <g id="gitlab" transform="translate(49.000000, 13.000000)">
                <polygon id="Fill-7" fill="#E4432A" points="18.989843 36 26 14 12 14"></polygon>
                <polygon id="Fill-9" fill="#FC6E25" points="19 36 11.9994659 14 2 14"></polygon>
                <path d="M1.99889463,14.001088 L0.0709449822,20.6490204 C-0.122934572,21.2606898 0.0897075197,21.9300034 0.597077804,22.3070927 L19,36 L1.99889463,14.001088 Z" id="Fill-11" fill="#FDA326"></path>
                <path d="M2,14 L12,14 L7.43487691,0.520444586 C7.22438182,-0.173481529 6.30717035,-0.173481529 6.09667525,0.520444586 L2,14 Z" id="Fill-13" fill="#E4432A"></path>
                <polygon id="Fill-15" fill="#FC6E25" points="18.9929352 35.9938965 25.9945261 14 36 14"></polygon>
                <path d="M36.002143,14.000091 L37.9290521,20.6858525 C38.1229396,21.2960543 37.9102888,21.963762 37.4028976,22.3399466 L18.9901276,35.9989014 L36.002143,14.000091 Z" id="Fill-17" fill="#FDA326"></path>
                <path d="M36,14 L26,14 L30.5642382,0.520444586 C30.7769822,-0.173481529 31.704761,-0.173481529 31.9175049,0.520444586 L36,14 Z" id="Fill-19" fill="#E4432A"></path>
            </g>
            <rect id="Rectangle-4-Copy-12" fill="#FFFFFF" fill-rule="nonzero" x="0" y="72" width="62" height="62" rx="5"></rect>
            <rect id="Rectangle-4-Copy-13" fill="#FFFFFF" fill-rule="nonzero" x="72" y="72" width="62" height="62" rx="5"></rect>
            <g id="Group-11" transform="translate(11.000000, 74.000000)" fill-rule="nonzero">
                <path d="M13.950313,13.3068685 L33.3478458,6.06075081 C33.8652108,5.86748457 34.4412913,6.13021859 34.6345576,6.64758365 C34.7244064,6.88810506 34.7182986,7.15397093 34.6174991,7.39011249 L26.6467697,26.0630335 C26.5455693,26.3001144 26.356726,26.4889576 26.1196452,26.590158 L7.44672414,34.5608875 C6.9387802,34.7777086 6.35124203,34.5417069 6.1344209,34.033763 C6.03362144,33.7976214 6.02751358,33.5317555 6.11736245,33.2912341 L13.3634801,13.8937013 C13.4648557,13.6223233 13.678935,13.4082441 13.950313,13.3068685 Z" id="Rectangle-7" fill="#9BBBF8" transform="translate(20.375960, 20.319341) rotate(45.000000) translate(-20.375960, -20.319341) "></path>
                <path d="M3.85536505,24.272848 L23.9186339,24.272848 C24.4709186,24.272848 24.9186339,24.7205632 24.9186339,25.272848 C24.9186339,25.3996933 24.8945012,25.5253804 24.8475231,25.6432057 L17.5351825,43.9831884 C17.3835913,44.3633923 17.0156035,44.6128307 16.6062933,44.6128307 L-3.25645316,44.6128307 C-3.80873791,44.6128307 -4.25645316,44.1651154 -4.25645316,43.6128307 C-4.25645316,43.4891696 -4.23351675,43.3665812 -4.18880768,43.2512853 L2.92301053,24.9113026 C3.0722444,24.5264577 3.44259841,24.272848 3.85536505,24.272848 Z" id="Rectangle-7-Copy" fill="#81A4E8" transform="translate(10.331090, 34.442839) rotate(90.000000) translate(-10.331090, -34.442839) "></path>
                <path d="M23.3853917,24.4531419 L43.4438753,24.4531419 C43.9961601,24.4531419 44.4438753,24.9008572 44.4438753,25.4531419 C44.4438753,25.5818098 44.4190443,25.7092687 44.3707442,25.8285271 L37.1146438,43.7446698 C36.9617364,44.1222157 36.5951097,44.3692846 36.1877749,44.3692846 L16.3293484,44.3692846 C15.7770636,44.3692846 15.3293484,43.9215694 15.3293484,43.3692846 C15.3293484,43.2438558 15.3529452,43.1195465 15.3989076,43.0028424 L22.4549509,25.0866997 C22.6055026,24.7044309 22.9745448,24.4531419 23.3853917,24.4531419 Z" id="Rectangle-7-Copy-2" fill="#6694EF" transform="translate(29.886612, 34.411213) scale(-1, 1) rotate(90.000000) translate(-29.886612, -34.411213) "></path>
            </g>
            <g id="Group-11-Copy" transform="translate(83.000000, 73.000000)" fill-rule="nonzero">
                <path d="M13.950313,13.3068685 L33.3478458,6.06075081 C33.8652108,5.86748457 34.4412913,6.13021859 34.6345576,6.64758365 C34.7244064,6.88810506 34.7182986,7.15397093 34.6174991,7.39011249 L26.6467697,26.0630335 C26.5455693,26.3001144 26.356726,26.4889576 26.1196452,26.590158 L7.44672414,34.5608875 C6.9387802,34.7777086 6.35124203,34.5417069 6.1344209,34.033763 C6.03362144,33.7976214 6.02751358,33.5317555 6.11736245,33.2912341 L13.3634801,13.8937013 C13.4648557,13.6223233 13.678935,13.4082441 13.950313,13.3068685 Z" id="Rectangle-7" fill="#F9F5C2" transform="translate(20.375960, 20.319341) rotate(45.000000) translate(-20.375960, -20.319341) "></path>
                <path d="M3.85536505,24.272848 L23.9186339,24.272848 C24.4709186,24.272848 24.9186339,24.7205632 24.9186339,25.272848 C24.9186339,25.3996933 24.8945012,25.5253804 24.8475231,25.6432057 L17.5351825,43.9831884 C17.3835913,44.3633923 17.0156035,44.6128307 16.6062933,44.6128307 L-3.25645316,44.6128307 C-3.80873791,44.6128307 -4.25645316,44.1651154 -4.25645316,43.6128307 C-4.25645316,43.4891696 -4.23351675,43.3665812 -4.18880768,43.2512853 L2.92301053,24.9113026 C3.0722444,24.5264577 3.44259841,24.272848 3.85536505,24.272848 Z" id="Rectangle-7-Copy" fill="#EDE9B2" transform="translate(10.331090, 34.442839) rotate(90.000000) translate(-10.331090, -34.442839) "></path>
                <path d="M23.3853917,24.4531419 L43.4438753,24.4531419 C43.9961601,24.4531419 44.4438753,24.9008572 44.4438753,25.4531419 C44.4438753,25.5818098 44.4190443,25.7092687 44.3707442,25.8285271 L37.1146438,43.7446698 C36.9617364,44.1222157 36.5951097,44.3692846 36.1877749,44.3692846 L16.3293484,44.3692846 C15.7770636,44.3692846 15.3293484,43.9215694 15.3293484,43.3692846 C15.3293484,43.2438558 15.3529452,43.1195465 15.3989076,43.0028424 L22.4549509,25.0866997 C22.6055026,24.7044309 22.9745448,24.4531419 23.3853917,24.4531419 Z" id="Rectangle-7-Copy-2" fill="#F8F1A1" transform="translate(29.886612, 34.411213) scale(-1, 1) rotate(90.000000) translate(-29.886612, -34.411213) "></path>
            </g>
        </g>
    </g>
</svg>