<?xml version="1.0" encoding="UTF-8" standalone="no"?>
<svg width="160px" height="146px" viewBox="0 0 160 146" version="1.1" xmlns="http://www.w3.org/2000/svg" xmlns:xlink="http://www.w3.org/1999/xlink">
    <!-- Generator: Sketch 49 (51002) - http://www.bohemiancoding.com/sketch -->
    <title>图标_开发运营一体化 05 拷贝@1x</title>
    <desc>Created with Sketch.</desc>
    <defs></defs>
    <g id="Page-1" stroke="none" stroke-width="1" fill="none" fill-rule="evenodd">
        <g id="图标_开发运营一体化-05-拷贝@1x" transform="translate(0.000000, 3.000000)">
            <g id="组_30_拷贝" transform="translate(7.852761, 86.000000)">
                <path d="M145.616687,11.06 L148.100123,12.09 C149.083129,12.514035 150.218614,12.3147257 151.005644,11.58 C151.753267,10.8469634 151.969221,9.71494702 151.545521,8.75 L148.561472,1.9 C148.271642,1.2465845 147.743578,0.733724806 147.08908,0.47 C146.438447,0.191760035 145.708015,0.177449892 145.047362,0.43 L138.117301,3.13 C137.141041,3.49896848 136.494388,4.44920574 136.497669,5.51 C136.530026,6.58901194 137.190157,7.54468112 138.176196,7.94 L140.659632,8.98 L145.616687,11.06 Z" id="箭头_拷贝" fill="#34D2DF"></path>
                <path d="M144.046135,8.67 C130.146016,36.0079133 102.448014,53.1737941 72.2268672,53.1801053 C42.0057207,53.1864164 14.3008128,36.0321054 0.389693252,8.7" id="椭圆_17" stroke="#34D2DF" stroke-width="6" stroke-linecap="round"></path>
            </g>
            <g id="组_24" transform="translate(3.926380, 47.000000)">
                <path d="M55.231411,51.77 C45.9194743,64.0520077 29.0897647,67.3524715 15.9676074,59.47 C1.26260935,50.4826406 -3.72098744,31.1863412 4.73815951,15.99 C8.70105521,8.71697498 15.3769442,3.38063187 23.2538964,1.18952539 C31.1308487,-1.00158109 39.5424087,0.137934863 46.5835583,4.35 C57.338077,10.8861016 63.2664666,23.2950536 61.6804908,35.95" id="椭圆_16" stroke="#3670E3" stroke-width="5.333" stroke-linecap="round"></path>
                <path d="M56.1246626,53.6 L58.1467485,54.81 C58.9439153,55.3096938 59.959916,55.2621053 60.7087117,54.69 C61.4426111,54.1174054 61.7515013,53.1414932 61.4841718,52.24 L59.6780368,45.78 C59.50511,45.1693278 59.107857,44.6500205 58.5688344,44.33 C58.0399832,44.0104101 57.4096335,43.9135467 56.8117791,44.06 L50.5295706,45.66 C49.6356603,45.8879869 48.9744961,46.6572015 48.8706748,47.59 C48.7731083,48.5469713 49.2336992,49.4736945 50.048589,49.96 L52.0706748,51.17 L56.1246626,53.6 Z" id="箭头" fill="#3670E3"></path>
            </g>
            <g id="左" transform="translate(23.558282, 67.000000)">
                <path d="M2.34306748,0.82 L6.71116564,0.82 C7.20331285,0.848861828 7.66400503,1.07587392 7.99173964,1.45101957 C8.31947424,1.82616522 8.48735914,2.31866201 8.45840491,2.82 L8.45840491,20.8 C8.48735914,21.301338 8.31947424,21.7938348 7.99173964,22.1689804 C7.66400503,22.5441261 7.20331285,22.7711382 6.71116564,22.8 L2.34306748,22.8 C1.32019164,22.7356142 0.539939339,21.8424883 0.595828221,20.8 L0.595828221,2.82 C0.539939339,1.77751169 1.32019164,0.884385815 2.34306748,0.82 Z" id="Frames" fill="#C2F1F5"></path>
                <path d="M12.2179141,7.79 L19.4130061,7.79 C20.4887538,7.88445877 21.2896695,8.84306831 21.2093252,9.94 L21.2093252,20.66 C21.288398,21.7546351 20.486745,22.7096645 19.4130061,22.8 L12.2179141,22.8 C11.1418173,22.7116877 10.3361775,21.7571249 10.4117791,20.66 L10.4117791,9.94 C10.3321734,8.83966588 11.1384973,7.87982821 12.2179141,7.79 Z" id="Frames_拷贝_2" fill="#79E1EA"></path>
                <path d="M12.2179141,5.8 C11.3385693,5.90003707 10.53967,5.2719351 10.4117791,4.38 L10.4117791,2.24 C10.5363091,1.34606668 11.3375237,0.716144288 12.2179141,0.82 L19.4130061,0.82 C20.2904139,0.719768874 21.0867202,1.34925338 21.2093252,2.24 L21.2093252,4.38 C21.083367,5.26876284 20.2893604,5.89642939 19.4130061,5.8" id="Frames_拷贝" fill="#4AB1F0"></path>
            </g>
            <g id="组_24_拷贝" transform="translate(91.288344, 29.000000)">
                <path d="M5.7197546,19.11 C11.8114911,4.87820904 27.2232691,-2.65322194 41.9312973,1.4141355 C56.6393255,5.48149294 66.1976144,19.9181451 64.3894711,35.3345207 C62.5813278,50.7508963 49.9533235,62.4868844 34.7186883,62.9094206 C19.4840531,63.3319568 6.24796098,52.3133154 3.6191411,37.02" id="椭圆_16-2" stroke="#34D2DF" stroke-width="5.333" stroke-linecap="round"></path>
                <path d="M5.24858896,16.55 L2.99092025,15.93 C2.09738803,15.6724747 1.13925128,15.9834104 0.556564417,16.72 C-0.0104194212,17.4448325 -0.0655421831,18.4556461 0.419141104,19.24 L3.77619632,24.87 C4.44547099,25.9751411 5.84466103,26.3567164 6.96638037,25.74 L12.630184,22.59 C13.4300427,22.1496494 13.8735049,21.2460951 13.7393865,20.33 C13.5934048,19.3929764 12.9142384,18.6342443 12.0117791,18.4 L9.75411043,17.78 L5.24858896,16.55 Z" id="箭头-2" fill="#34D2DF"></path>
            </g>
            <g id="右" transform="translate(115.828221, 50.000000)">
                <g id="组_12">
                    <path d="M15.5749693,14.53 L17.3222086,14.53 C18.2617456,14.5188563 19.0336796,15.2829229 19.049816,16.24 L19.049816,17.97 C19.0336796,18.9270771 18.2617456,19.6911437 17.3222086,19.68 L15.5749693,19.68 C14.6354323,19.6911437 13.8634983,18.9270771 13.847362,17.97 L13.847362,16.24 C13.8634983,15.2829229 14.6354323,14.5188563 15.5749693,14.53 Z M9.07680982,14.53 L10.8240491,14.53 C11.7635861,14.5188563 12.5355201,15.2829229 12.5516564,16.24 L12.5516564,17.97 C12.5355201,18.9270771 11.7635861,19.6911437 10.8240491,19.68 L9.07680982,19.68 C8.13727277,19.6911437 7.36533879,18.9270771 7.34920245,17.97 L7.34920245,16.24 C7.36533879,15.2829229 8.13727277,14.5188563 9.07680982,14.53 Z" id="圆角矩形_12_拷贝_5" fill="#34D2DF"></path>
                    <path d="M2.57865031,14.53 L4.32588957,14.53 C5.26542662,14.5188563 6.03736059,15.2829229 6.05349693,16.24 L6.05349693,17.97 C6.03736059,18.9270771 5.26542662,19.6911437 4.32588957,19.68 L2.57865031,19.68 C1.63911326,19.6911437 0.867179283,18.9270771 0.851042945,17.97 L0.851042945,16.24 C0.867179283,15.2829229 1.63911326,14.5188563 2.57865031,14.53 Z" id="圆角矩形_12_拷贝_9" fill="#209CE9"></path>
                    <path d="M2.57865031,7.7 L4.32588957,7.7 C4.77773708,7.69278758 5.21383233,7.86903191 5.53794672,8.189843 C5.86206111,8.51065409 6.04755483,8.94966365 6.05349693,9.41 L6.05349693,11.13 C6.04755483,11.5903364 5.86206111,12.0293459 5.53794672,12.350157 C5.21383233,12.6709681 4.77773708,12.8472124 4.32588957,12.84 L2.57865031,12.84 C2.12680279,12.8472124 1.69070754,12.6709681 1.36659316,12.350157 C1.04247877,12.0293459 0.856985043,11.5903364 0.851042945,11.13 L0.851042945,9.41 C0.856985043,8.94966365 1.04247877,8.51065409 1.36659316,8.189843 C1.69070754,7.86903191 2.12680279,7.69278758 2.57865031,7.7 Z" id="圆角矩形_12_拷贝_6" fill="#34D2DF"></path>
                    <path d="M15.5749693,7.7 L17.3222086,7.7 C17.7740561,7.69278758 18.2101514,7.86903191 18.5342657,8.189843 C18.8583801,8.51065409 19.0438739,8.94966365 19.049816,9.41 L19.049816,11.13 C19.0438739,11.5903364 18.8583801,12.0293459 18.5342657,12.350157 C18.2101514,12.6709681 17.7740561,12.8472124 17.3222086,12.84 L15.5749693,12.84 C15.1231218,12.8472124 14.6870266,12.6709681 14.3629122,12.350157 C14.0387978,12.0293459 13.8533041,11.5903364 13.847362,11.13 L13.847362,9.41 C13.8533041,8.94966365 14.0387978,8.51065409 14.3629122,8.189843 C14.6870266,7.86903191 15.1231218,7.69278758 15.5749693,7.7 Z" id="圆角矩形_12_拷贝_12" fill="#209CE9" opacity="0.7"></path>
                    <path d="M9.07680982,7.7 L10.8240491,7.7 C11.2758966,7.69278758 11.7119918,7.86903191 12.0361062,8.189843 C12.3602206,8.51065409 12.5457143,8.94966365 12.5516564,9.41 L12.5516564,11.13 C12.5457143,11.5903364 12.3602206,12.0293459 12.0361062,12.350157 C11.7119918,12.6709681 11.2758966,12.8472124 10.8240491,12.84 L9.07680982,12.84 C8.6249623,12.8472124 8.18886705,12.6709681 7.86475267,12.350157 C7.54063828,12.0293459 7.35514455,11.5903364 7.34920245,11.13 L7.34920245,9.41 C7.35514455,8.94966365 7.54063828,8.51065409 7.86475267,8.189843 C8.18886705,7.86903191 8.6249623,7.69278758 9.07680982,7.7 Z" id="圆角矩形_12_拷贝_10" fill="#209CE9"></path>
                    <path d="M2.57865031,0.86 L4.32588957,0.86 C5.26542662,0.848856324 6.03736059,1.61292293 6.05349693,2.57 L6.05349693,4.3 C6.03736059,5.25707707 5.26542662,6.02114368 4.32588957,6.01 L2.57865031,6.01 C1.63911326,6.02114368 0.867179283,5.25707707 0.851042945,4.3 L0.851042945,2.57 C0.867179283,1.61292293 1.63911326,0.848856324 2.57865031,0.86 Z" id="圆角矩形_12_拷贝_7" fill="#34D2DF"></path>
                    <path d="M9.07680982,0.86 L10.8240491,0.86 C11.7635861,0.848856324 12.5355201,1.61292293 12.5516564,2.57 L12.5516564,4.3 C12.5355201,5.25707707 11.7635861,6.02114368 10.8240491,6.01 L9.07680982,6.01 C8.13727277,6.02114368 7.36533879,5.25707707 7.34920245,4.3 L7.34920245,2.57 C7.36533879,1.61292293 8.13727277,0.848856324 9.07680982,0.86 Z" id="圆角矩形_12_拷贝_11" fill="#34D2DF" opacity="0.7"></path>
                    <path d="M15.5749693,0.86 L17.3222086,0.86 C18.2617456,0.848856324 19.0336796,1.61292293 19.049816,2.57 L19.049816,4.3 C19.0336796,5.25707707 18.2617456,6.02114368 17.3222086,6.01 L15.5749693,6.01 C14.6354323,6.02114368 13.8634983,5.25707707 13.847362,4.3 L13.847362,2.57 C13.8634983,1.61292293 14.6354323,0.848856324 15.5749693,0.86 Z" id="圆角矩形_12_拷贝_8" fill="#34D2DF" opacity="0.3"></path>
                </g>
            </g>
            <g id="组_30">
                <path d="M6.73079755,41.75 L4.24736196,40.72 C3.26766863,40.2950721 2.13445245,40.4946574 1.35165644,41.23 C0.599738534,41.9564896 0.382942578,43.0889035 0.811779141,44.05 L3.79582822,50.88 C4.08775519,51.5283367 4.61054601,52.0394832 5.25840491,52.31 C5.91130973,52.5799523 6.63984729,52.590657 7.3001227,52.34 L14.230184,49.65 C15.2054611,49.2854543 15.8527184,48.3383257 15.849816,47.28 C15.816156,46.2037962 15.1557947,45.2517271 14.1712883,44.86 L11.6878528,43.82 L6.73079755,41.75 Z" id="箭头_拷贝-2" fill="#3670E3"></path>
                <path d="M151.509202,0 C137.609083,27.3379133 109.911081,44.5037941 79.6899347,44.5101053 C49.4687882,44.5164164 21.7638802,27.3621054 7.85276074,0.03" id="椭圆_17" stroke="#3670E3" stroke-width="6" stroke-linecap="round" transform="translate(79.680982, 22.255054) rotate(180.000000) translate(-79.680982, -22.255054) "></path>
            </g>
        </g>
    </g>
</svg>