<?xml version="1.0" encoding="UTF-8"?>
<svg width="60px" height="60px" viewBox="0 0 60 60" version="1.1" xmlns="http://www.w3.org/2000/svg" xmlns:xlink="http://www.w3.org/1999/xlink">
    <!-- Generator: Sketch 47 (45396) - http://www.bohemiancoding.com/sketch -->
    <title>development-icon</title>
    <desc>Created with Sketch.</desc>
    <defs>
        <polygon id="path-1" points="0 60 60 60 60 0 0 0"></polygon>
    </defs>
    <g id="产品模块" stroke="none" stroke-width="1" fill="none" fill-rule="evenodd">
        <g transform="translate(-220.000000, -1952.000000)" id="development-icon">
            <g transform="translate(220.000000, 1952.000000)">
                <path d="M60,30 C60,46.5684545 46.5684545,60 30,60 C13.4315455,60 0,46.5684545 0,30 C0,13.4315455 13.4315455,0 30,0 C46.5684545,0 60,13.4315455 60,30" id="Fill-1" fill="#7E60EA"></path>
                <g id="Page-1">
                    <path d="M30,17.4038727 C26.5314545,17.4038727 23.1649091,17.9283273 20.763,18.8422364 C18.6100909,19.6617818 17.8857273,20.5525091 17.8857273,20.8328727 C17.8857273,21.1135091 18.6100909,22.0036909 20.763,22.8232364 C23.1649091,23.7374182 26.5314545,24.2618727 30,24.2618727 C33.4685455,24.2618727 36.8350909,23.7374182 39.237,22.8232364 C41.3899091,22.0036909 42.1142727,21.1135091 42.1142727,20.8328727 C42.1142727,20.5525091 41.3899091,19.6617818 39.237,18.8422364 C36.8350909,17.9283273 33.4685455,17.4038727 30,17.4038727 M30,28.0800545 C22.0824545,28.0800545 14.0675455,25.5908727 14.0675455,20.8328727 C14.0675455,16.0751455 22.0824545,13.5856909 30,13.5856909 C37.9175455,13.5856909 45.9324545,16.0751455 45.9324545,20.8328727 C45.9324545,25.5908727 37.9175455,28.0800545 30,28.0800545" id="Fill-3" fill="#FFFFFF"></path>
                    <path d="M30,35.9216455 C22.0824545,35.9216455 14.0675455,33.4321909 14.0675455,28.6744636 L14.0675455,20.8330091 L17.8857273,20.8330091 L17.8857273,28.6744636 C17.8857273,28.9548273 18.6100909,29.8455545 20.763,30.6651 C23.1649091,31.5790091 26.5314545,32.1034636 30,32.1034636 C33.4685455,32.1034636 36.8350909,31.5790091 39.237,30.6651 C41.3899091,29.8455545 42.1142727,28.9548273 42.1142727,28.6744636 L42.1142727,20.8330091 L45.9324545,20.8330091 L45.9324545,28.6744636 C45.9324545,33.4321909 37.9175455,35.9216455 30,35.9216455" id="Fill-5" fill="#FFFFFF"></path>
                    <mask id="mask-2" fill="white">
                        <use xlink:href="#path-1"></use>
                    </mask>
                    <g id="Clip-8"></g>
                    <polygon id="Fill-7" fill="#FFFFFF" mask="url(#mask-2)" points="28.0909091 47.8096364 31.9090909 47.8096364 31.9090909 34.0126364 28.0909091 34.0126364"></polygon>
                    <polygon id="Fill-9" fill="#FFFFFF" mask="url(#mask-2)" points="15.69 43.4331818 44.31 43.4331818 44.31 39.615 15.69 39.615"></polygon>
                    <polygon id="Fill-10" fill="#FFFFFF" mask="url(#mask-2)" points="25.5908182 44.8210909 34.4089091 44.8210909 34.4089091 38.2265455 25.5908182 38.2265455"></polygon>
                </g>
            </g>
        </g>
    </g>
</svg>