<?xml version="1.0" encoding="UTF-8"?>
<svg xmlns="http://www.w3.org/2000/svg" xmlns:xlink="http://www.w3.org/1999/xlink" width="1440px" height="242px" viewBox="0 0 1440 242" version="1.1">
  <title>立即体验bj</title>
  <defs>
    <linearGradient x1="100%" y1="50%" x2="0%" y2="50%" id="linearGradient-1">
      <stop stop-color="#003DAC" offset="0%"></stop>
      <stop stop-color="#3371E3" offset="100%"></stop>
    </linearGradient>
    <polygon id="path-2" points="0 0 1440 -4.29878355e-13 1440 201.109127 1440 242 -1.51025026e-14 242 -1.51025026e-14 144.157134"></polygon>
  </defs>
  <g id="首页" stroke="none" stroke-width="1" fill="none" fill-rule="evenodd">
    <g id="官网首页" transform="translate(0.000000, -3223.000000)">
      <g id="立即体验bj" transform="translate(0.000000, 3223.000000)">
        <mask id="mask-3" fill="white">
          <use xlink:href="#path-2"></use>
        </mask>
        <use id="蒙版" fill="url(#linearGradient-1)" xlink:href="#path-2"></use>
        <rect id="矩形备份-2" fill="#FFFFFF" style="mix-blend-mode: overlay;" opacity="0.492596294" mask="url(#mask-3)" transform="translate(1385.764439, 128.000000) rotate(-39.000000) translate(-1385.764439, -128.000000) " x="1256.26444" y="-1" width="259" height="258" rx="50"></rect>
        <rect id="矩形备份-8" fill="#FFFFFF" style="mix-blend-mode: overlay;" opacity="0.170444222" mask="url(#mask-3)" transform="translate(33.528328, 155.318759) rotate(-45.000000) translate(-33.528328, -155.318759) " x="-21.9716722" y="98.3187591" width="111" height="114" rx="8"></rect>
        <rect id="矩形备份-5" fill="#F2F2F2" style="mix-blend-mode: overlay;" opacity="0.396234557" mask="url(#mask-3)" transform="translate(19.097916, 43.833478) rotate(-315.000000) translate(-19.097916, -43.833478) " x="-45.9020837" y="-17.1665222" width="130" height="122" rx="12"></rect>
        <rect id="矩形备份-7" fill="#326DE6" style="mix-blend-mode: overlay;" mask="url(#mask-3)" transform="translate(29.028328, 245.318759) rotate(-45.000000) translate(-29.028328, -245.318759) " x="-27.9716722" y="188.318759" width="114" height="114" rx="8"></rect>
        <rect id="矩形备份-3" fill="#F2F2F2" style="mix-blend-mode: soft-light;" mask="url(#mask-3)" transform="translate(104.597916, 43.833478) rotate(-315.000000) translate(-104.597916, -43.833478) " x="40.0979163" y="-17.1665222" width="129" height="122" rx="12"></rect>
      </g>
    </g>
  </g>
</svg>
