<?xml version="1.0" encoding="utf-8"?>
<!-- Generator: Adobe Illustrator 19.0.0, SVG Export Plug-In . SVG Version: 6.00 Build 0)  -->
<svg version="1.1" id="图层_1" xmlns="http://www.w3.org/2000/svg" xmlns:xlink="http://www.w3.org/1999/xlink" x="0px" y="0px"
	 viewBox="0 0 223.7 193.5" style="enable-background:new 0 0 223.7 193.5;" xml:space="preserve">
<style type="text/css">
	.st0{fill:#6694EF;}
	.st1{fill:#34D2DF;}
	.st2{fill:#B2C9F7;}
	.st3{fill:#3670E3;}
	.st4{clip-path:url(#SVGID_2_);}
	.st5{clip-path:url(#SVGID_4_);}
	.st6{fill-rule:evenodd;clip-rule:evenodd;fill:#FFFFFF;}
	.st7{fill:#FFFFFF;}
</style>
<g id="XMLID_37_">
	<path id="XMLID_68_" class="st0" d="M152.1,174.4H65.6L22.3,99.4l43.3-74.9h86.5l43.3,74.9L152.1,174.4z M67.3,171.4h83l41.5-71.9
		l-41.5-71.9h-83L25.8,99.4L67.3,171.4z"/>
</g>
<g id="XMLID_36_">
	
		<rect id="XMLID_67_" x="24" y="97.9" transform="matrix(0.5 0.866 -0.866 0.5 140.5351 -44.5248)" class="st0" width="169.6" height="3"/>
</g>
<g id="XMLID_35_">
	
		<rect id="XMLID_66_" x="107.3" y="14.7" transform="matrix(0.866 0.5001 -0.5001 0.866 64.3122 -41.0936)" class="st0" width="3" height="169.6"/>
</g>
<g id="XMLID_34_">
	<rect id="XMLID_65_" x="24" y="97.9" class="st0" width="169.6" height="3"/>
</g>
<g id="XMLID_33_">
	<circle class="st1" cx="66.4" cy="26" r="20.5"/>
</g>
<g id="XMLID_32_">
	<ellipse class="st2" cx="151.2" cy="26" rx="11" ry="10.5"/>
</g>
<g id="XMLID_31_">
	<ellipse class="st3" cx="151.2" cy="172.9" rx="11" ry="10.5"/>
</g>
<g id="XMLID_26_">
	<defs>
		<circle id="SVGID_1_" cx="24" cy="99.4" r="17.5"/>
	</defs>
	<use xlink:href="#SVGID_1_"  style="overflow:visible;fill-rule:evenodd;clip-rule:evenodd;fill:#3670E3;"/>
	<clipPath id="SVGID_2_">
		<use xlink:href="#SVGID_1_"  style="overflow:visible;"/>
	</clipPath>
	<g id="XMLID_28_" class="st4">
		<defs>
			<rect id="SVGID_3_" x="-233.5" y="-1689.1" width="1440" height="4958"/>
		</defs>
		<use xlink:href="#SVGID_3_"  style="overflow:visible;fill:#3670E3;"/>
		<clipPath id="SVGID_4_">
			<use xlink:href="#SVGID_3_"  style="overflow:visible;"/>
		</clipPath>
		<g id="XMLID_30_" class="st5">
			<rect x="1.5" y="76.9" class="st3" width="45" height="45"/>
		</g>
	</g>
</g>
<g id="XMLID_25_">
	<circle class="st1" cx="66.4" cy="172.9" r="14.5"/>
</g>
<g id="XMLID_24_">
	<path class="st6" d="M31.9,98h-1.3v-3.4c0-0.9-0.8-1.7-1.7-1.7h-3.4v-1.3c0-1.2-1-2.1-2.1-2.1c-1.2,0-2.1,1-2.1,2.1v1.3h-3.4
		c-0.9,0-1.7,0.8-1.7,1.7v3.2h1.3c1.3,0,2.3,1,2.3,2.3c0,1.3-1,2.3-2.3,2.3h-1.3v3.2c0,0.9,0.8,1.7,1.7,1.7H21v-1.3
		c0-1.3,1-2.3,2.3-2.3c1.3,0,2.3,1,2.3,2.3v1.3h3.2c0.9,0,1.7-0.8,1.7-1.7v-3.4h1.3c1.2,0,2.1-1,2.1-2.1S33,98,31.9,98"/>
</g>
<g id="XMLID_23_">
	<circle class="st0" cx="108.8" cy="99.4" r="47"/>
</g>
<g id="XMLID_12_">
	<path class="st6" d="M120.3,105.7c0.2-1.7,0.4-3.5,0.4-5.2s-0.2-3.5-0.4-5.2h8.9c0.4,1.7,0.7,3.4,0.7,5.2c0,1.8-0.3,3.6-0.7,5.2
		H120.3z M115.6,120.3c1.6-2.9,2.8-6.1,3.6-9.3h7.7C124.5,115.3,120.4,118.6,115.6,120.3z M115,105.7h-12.3
		c-0.2-1.7-0.4-3.5-0.4-5.2s0.2-3.5,0.4-5.2H115c0.2,1.7,0.4,3.5,0.4,5.2S115.2,104,115,105.7z M108.8,121.3
		c-2.2-3.1-3.9-6.6-5-10.4h10C112.7,114.7,111,118.2,108.8,121.3z M98.4,90h-7.7c2.5-4.4,6.5-7.7,11.4-9.3
		C100.5,83.5,99.3,86.7,98.4,90z M90.7,110.9h7.7c0.8,3.3,2,6.4,3.6,9.3C97.2,118.6,93.2,115.3,90.7,110.9z M88.5,105.7
		c-0.4-1.7-0.7-3.4-0.7-5.2c0-1.8,0.3-3.6,0.7-5.2h8.9c-0.2,1.7-0.4,3.5-0.4,5.2s0.2,3.5,0.4,5.2H88.5z M108.8,79.6
		c2.2,3.1,3.9,6.6,5,10.4h-10C104.9,86.2,106.7,82.7,108.8,79.6z M127,90h-7.7c-0.8-3.3-2-6.4-3.6-9.3C120.4,82.3,124.5,85.6,127,90
		z M108.8,74.2c-14.5,0-26.2,11.7-26.2,26.2s11.7,26.2,26.2,26.2c14.5,0,26.2-11.7,26.2-26.2S123.3,74.2,108.8,74.2z"/>
</g>
<g id="XMLID_11_">
	<circle class="st2" cx="193.6" cy="100.4" r="20.5"/>
</g>
<g id="XMLID_8_">
	<path class="st6" d="M66.4,26c2.4,0,4.4-2,4.4-4.4s-2-4.4-4.4-4.4s-4.4,2-4.4,4.4S64,26,66.4,26z M66.4,28.2
		c-2.9,0-8.8,1.5-8.8,4.4v2.2h17.5v-2.2C75.2,29.7,69.4,28.2,66.4,28.2z"/>
</g>
<g id="XMLID_5_">
	<path class="st6" d="M194,104.5c-2.2,0-4.1-1.8-4.1-4.1s1.8-4.1,4.1-4.1c2.2,0,4.1,1.8,4.1,4.1S196.2,104.5,194,104.5z
		 M202.6,101.6c0-0.4,0.1-0.7,0.1-1.1s0-0.8-0.1-1.1l2.5-1.9c0.2-0.2,0.3-0.5,0.1-0.7l-2.3-4c-0.1-0.3-0.5-0.3-0.7-0.3l-2.9,1.2
		c-0.6-0.5-1.3-0.8-2-1.1l-0.4-3.1c0-0.3-0.3-0.5-0.6-0.5h-4.7c-0.3,0-0.5,0.2-0.6,0.5l-0.4,3.1c-0.7,0.3-1.4,0.7-2,1.1l-2.9-1.2
		c-0.3-0.1-0.6,0-0.7,0.3l-2.3,4c-0.2,0.3-0.1,0.6,0.1,0.7l2.5,1.9c0,0.4-0.1,0.8-0.1,1.1c0,0.4,0,0.8,0.1,1.1l-2.5,1.9
		c-0.2,0.2-0.3,0.5-0.1,0.7l2.3,4c0.1,0.3,0.5,0.3,0.7,0.3l2.9-1.2c0.6,0.5,1.3,0.8,2,1.1l0.4,3.1c0,0.3,0.3,0.5,0.6,0.5h4.7
		c0.3,0,0.5-0.2,0.6-0.5l0.4-3.1c0.7-0.3,1.4-0.7,2-1.1l2.9,1.2c0.3,0.1,0.6,0,0.7-0.3l2.3-4c0.1-0.3,0.1-0.6-0.1-0.7L202.6,101.6z"
		/>
</g>
<g id="XMLID_2_">
	<g id="cloud-download">
		<g id="XMLID_3_">
			<path id="XMLID_63_" class="st7" d="M71.5,171.5c-0.5-2.3-2.5-4.1-5.1-4.1c-2,0-3.7,1.1-4.5,2.8c-2.1,0.3-3.7,2-3.7,4.1
				c0,2.3,1.9,4.1,4.1,4.1h9c1.9,0,3.4-1.5,3.4-3.4C74.7,173.1,73.3,171.6,71.5,171.5z"/>
		</g>
	</g>
</g>
</svg>
