<?xml version="1.0" encoding="utf-8"?>
<!-- Generator: Adobe Illustrator 17.0.0, SVG Export Plug-In . SVG Version: 6.00 Build 0)  -->
<!DOCTYPE svg PUBLIC "-//W3C//DTD SVG 1.1//EN" "http://www.w3.org/Graphics/SVG/1.1/DTD/svg11.dtd">
<svg version="1.1" id="图层_1" xmlns="http://www.w3.org/2000/svg" xmlns:xlink="http://www.w3.org/1999/xlink" x="0px" y="0px"
	 width="220px" height="220px" viewBox="0 0 220 220" enable-background="new 0 0 220 220" xml:space="preserve">
<g>
	<circle fill="#34D2DF" cx="110" cy="110" r="110"/>
	<g>
		<g>
			<path fill="#FFFFFF" d="M87.198,141.762c-20.518,0-37.21-16.692-37.21-37.21s16.692-37.21,37.21-37.21
				c20.518,0,37.21,16.692,37.21,37.21S107.716,141.762,87.198,141.762z M87.198,82.342c-12.247,0-22.21,9.963-22.21,22.21
				s9.963,22.21,22.21,22.21c12.247,0,22.21-9.963,22.21-22.21S99.445,82.342,87.198,82.342z"/>
		</g>
		<g>
			<path fill="#FFFFFF" d="M142.156,92.085c-10.948,0-19.855-8.907-19.855-19.855s8.907-19.855,19.855-19.855
				s19.855,8.907,19.855,19.855S153.104,92.085,142.156,92.085z M142.156,66.374c-3.229,0-5.855,2.627-5.855,5.855
				s2.626,5.855,5.855,5.855s5.855-2.627,5.855-5.855S145.385,66.374,142.156,66.374z"/>
		</g>
		<g>
			<path fill="#FFFFFF" d="M134.302,175.626c-11.236,0-20.377-9.141-20.377-20.377s9.141-20.377,20.377-20.377
				s20.377,9.141,20.377,20.377S145.538,175.626,134.302,175.626z M134.302,148.872c-3.516,0-6.377,2.86-6.377,6.377
				s2.861,6.377,6.377,6.377s6.377-2.86,6.377-6.377S137.818,148.872,134.302,148.872z"/>
		</g>
		<g>
			
				<rect x="114.238" y="70.8" transform="matrix(0.541 0.841 -0.841 0.541 125.2462 -63.9764)" fill="#FFFFFF" width="13.999" height="23.925"/>
		</g>
		<g>
			
				<rect x="104.671" y="129.798" transform="matrix(0.6464 0.763 -0.763 0.6464 145.909 -41.2354)" fill="#FFFFFF" width="25.541" height="14"/>
		</g>
	</g>
</g>
<g>
</g>
<g>
</g>
<g>
</g>
<g>
</g>
<g>
</g>
<g>
</g>
</svg>
