<?xml version="1.0" encoding="UTF-8"?>
<svg width="148px" height="133px" viewBox="0 0 148 133" version="1.1" xmlns="http://www.w3.org/2000/svg" xmlns:xlink="http://www.w3.org/1999/xlink">
    <!-- Generator: Sketch 47 (45396) - http://www.bohemiancoding.com/sketch -->
    <title>Group 28</title>
    <desc>Created with Sketch.</desc>
    <defs>
        <rect id="path-1" x="8" y="0" width="40" height="40" rx="5"></rect>
        <filter x="-25.0%" y="-20.0%" width="150.0%" height="150.0%" filterUnits="objectBoundingBox" id="filter-2">
            <feOffset dx="0" dy="2" in="SourceAlpha" result="shadowOffsetOuter1"></feOffset>
            <feGaussianBlur stdDeviation="3" in="shadowOffsetOuter1" result="shadowBlurOuter1"></feGaussianBlur>
            <feColorMatrix values="0 0 0 0 0   0 0 0 0 0   0 0 0 0 0  0 0 0 0.16 0" type="matrix" in="shadowBlurOuter1"></feColorMatrix>
        </filter>
        <rect id="path-3" x="98" y="0" width="40" height="40" rx="5"></rect>
        <filter x="-25.0%" y="-20.0%" width="150.0%" height="150.0%" filterUnits="objectBoundingBox" id="filter-4">
            <feOffset dx="0" dy="2" in="SourceAlpha" result="shadowOffsetOuter1"></feOffset>
            <feGaussianBlur stdDeviation="3" in="shadowOffsetOuter1" result="shadowBlurOuter1"></feGaussianBlur>
            <feColorMatrix values="0 0 0 0 0   0 0 0 0 0   0 0 0 0 0  0 0 0 0.16 0" type="matrix" in="shadowBlurOuter1"></feColorMatrix>
        </filter>
    </defs>
    <g id="产品模块" stroke="none" stroke-width="1" fill="none" fill-rule="evenodd">
        <g id="产品模块-1" transform="translate(-773.000000, -1600.000000)">
            <g id="Group-28" transform="translate(773.000000, 1604.000000)">
                <rect id="Rectangle-4-Copy-3" fill="#FFFFFF" x="0" y="68" width="148" height="30" rx="5"></rect>
                <g id="Group-13-Copy-2" transform="translate(12.000000, 73.000000)">
                    <g id="Group-12" transform="translate(0.000000, 9.767442)">
                        <path d="M8.37209302,10.0543259 C12.9958723,10.0543259 16.744186,8.38840872 16.744186,6.3333957 C16.744186,5.58884731 16.744186,4.71802549 16.744186,3.72093023 L0,3.72093023 C0,4.09256519 0,4.96338702 0,6.3333957 C0,8.38840872 3.74831372,10.0543259 8.37209302,10.0543259 Z" id="Oval-4-Copy" fill="#EDE9B2"></path>
                        <ellipse id="Oval-4" fill="#F9F5C2" cx="8.37209302" cy="3.72093023" rx="8.37209302" ry="3.72093023"></ellipse>
                    </g>
                    <g id="Group-12-Copy" transform="translate(0.000000, 5.116279)">
                        <path d="M8.37209302,10.0543259 C12.9958723,10.0543259 16.744186,8.38840872 16.744186,6.3333957 C16.744186,5.58884731 16.744186,4.71802549 16.744186,3.72093023 L0,3.72093023 C0,4.09256519 0,4.96338702 0,6.3333957 C0,8.38840872 3.74831372,10.0543259 8.37209302,10.0543259 Z" id="Oval-4-Copy" fill="#EDE9B2"></path>
                        <ellipse id="Oval-4" fill="#F9F5C2" cx="8.37209302" cy="3.72093023" rx="8.37209302" ry="3.72093023"></ellipse>
                    </g>
                    <g id="Group-12-Copy-2">
                        <path d="M8.37209302,10.0543259 C12.9958723,10.0543259 16.744186,8.38840872 16.744186,6.3333957 C16.744186,5.58884731 16.744186,4.71802549 16.744186,3.72093023 L0,3.72093023 C0,4.09256519 0,4.96338702 0,6.3333957 C0,8.38840872 3.74831372,10.0543259 8.37209302,10.0543259 Z" id="Oval-4-Copy" fill="#EDE9B2"></path>
                        <ellipse id="Oval-4" fill="#F9F5C2" cx="8.37209302" cy="3.72093023" rx="8.37209302" ry="3.72093023"></ellipse>
                    </g>
                </g>
                <rect id="Rectangle-2-Copy-20" fill="#E2E2E2" x="41" y="86" width="86" height="6" rx="3"></rect>
                <rect id="Rectangle-2-Copy-22" fill="#E2E2E2" x="41" y="75" width="32" height="6" rx="3"></rect>
                <g id="Rectangle-4-Copy-17">
                    <use fill="black" fill-opacity="1" filter="url(#filter-2)" xlink:href="#path-1"></use>
                    <use fill="#FFFFFF" fill-rule="evenodd" xlink:href="#path-1"></use>
                </g>
                <g id="Rectangle-4-Copy-39">
                    <use fill="black" fill-opacity="1" filter="url(#filter-4)" xlink:href="#path-3"></use>
                    <use fill="#FFFFFF" fill-rule="evenodd" xlink:href="#path-3"></use>
                </g>
                <g id="Group-11" transform="translate(15.000000, 1.000000)">
                    <path d="M9.71634416,8.53052631 L20.3097225,4.5732774 L20.3097225,4.5732774 C20.8270875,4.38001117 21.403168,4.64274518 21.5964343,5.16011024 C21.6862831,5.40063165 21.6801753,5.66649752 21.5793758,5.90263908 L17.226402,16.1002925 L17.226402,16.1002925 C17.1252016,16.3373734 16.9363584,16.5262166 16.6992775,16.627417 L6.50162409,20.9803908 L6.50162409,20.9803908 C5.99368015,21.1972119 5.40614198,20.9612102 5.18932086,20.4532663 C5.08852139,20.2171247 5.08241353,19.9512589 5.17226241,19.7107375 L9.12951132,9.11735915 L9.12951132,9.11735915 C9.23088693,8.84598117 9.44496618,8.63190193 9.71634416,8.53052631 Z" id="Rectangle-7" fill="#9BBBF8" transform="translate(13.425573, 12.826588) rotate(45.000000) translate(-13.425573, -12.826588) "></path>
                    <path d="M3.78785911,15.162979 L14.9618037,15.162979 L14.9618037,15.162979 C15.5140885,15.162979 15.9618037,15.6106942 15.9618037,16.162979 C15.9618037,16.2898243 15.9376711,16.4155115 15.8906929,16.5333367 L11.8222568,26.7373263 L11.8222568,26.7373263 C11.6706656,27.1175302 11.3026779,27.3669686 10.8933676,27.3669686 L-0.169010447,27.3669686 L-0.169010447,27.3669686 C-0.721295197,27.3669686 -1.16901045,26.9192533 -1.16901045,26.3669686 C-1.16901045,26.2433076 -1.14607404,26.1207191 -1.10136496,26.0054232 L2.85550459,15.8014336 L2.85550459,15.8014336 C3.00473846,15.4165888 3.37509247,15.162979 3.78785911,15.162979 Z" id="Rectangle-7-Copy" fill="#81A4E8" transform="translate(7.398654, 21.264974) rotate(90.000000) translate(-7.398654, -21.264974) "></path>
                    <path d="M15.5043518,15.2711373 L26.6735111,15.2711373 L26.6735111,15.2711373 C27.2257959,15.2711373 27.6735111,15.7188525 27.6735111,16.2711373 C27.6735111,16.3998052 27.6486801,16.5272641 27.6003801,16.6465224 L23.5707226,26.5962081 L23.5707226,26.5962081 C23.4178152,26.973754 23.0511885,27.2208229 22.6438537,27.2208229 L11.5857955,27.2208229 L11.5857955,27.2208229 C11.0335108,27.2208229 10.5857955,26.7731077 10.5857955,26.2208229 C10.5857955,26.0953941 10.6093923,25.9710848 10.6553547,25.8543807 L14.573911,15.9046951 L14.573911,15.9046951 C14.7244626,15.5224263 15.0935048,15.2711373 15.5043518,15.2711373 Z" id="Rectangle-7-Copy-2" fill="#6694EF" transform="translate(19.131967, 21.245980) scale(-1, 1) rotate(90.000000) translate(-19.131967, -21.245980) "></path>
                </g>
                <g id="Group-11-Copy-4" transform="translate(105.000000, 1.000000)">
                    <path d="M9.71634416,8.53052631 L20.3097225,4.5732774 L20.3097225,4.5732774 C20.8270875,4.38001117 21.403168,4.64274518 21.5964343,5.16011024 C21.6862831,5.40063165 21.6801753,5.66649752 21.5793758,5.90263908 L17.226402,16.1002925 L17.226402,16.1002925 C17.1252016,16.3373734 16.9363584,16.5262166 16.6992775,16.627417 L6.50162409,20.9803908 L6.50162409,20.9803908 C5.99368015,21.1972119 5.40614198,20.9612102 5.18932086,20.4532663 C5.08852139,20.2171247 5.08241353,19.9512589 5.17226241,19.7107375 L9.12951132,9.11735915 L9.12951132,9.11735915 C9.23088693,8.84598117 9.44496618,8.63190193 9.71634416,8.53052631 Z" id="Rectangle-7" fill="#9BBBF8" transform="translate(13.425573, 12.826588) rotate(45.000000) translate(-13.425573, -12.826588) "></path>
                    <path d="M3.78785911,15.162979 L14.9618037,15.162979 L14.9618037,15.162979 C15.5140885,15.162979 15.9618037,15.6106942 15.9618037,16.162979 C15.9618037,16.2898243 15.9376711,16.4155115 15.8906929,16.5333367 L11.8222568,26.7373263 L11.8222568,26.7373263 C11.6706656,27.1175302 11.3026779,27.3669686 10.8933676,27.3669686 L-0.169010447,27.3669686 L-0.169010447,27.3669686 C-0.721295197,27.3669686 -1.16901045,26.9192533 -1.16901045,26.3669686 C-1.16901045,26.2433076 -1.14607404,26.1207191 -1.10136496,26.0054232 L2.85550459,15.8014336 L2.85550459,15.8014336 C3.00473846,15.4165888 3.37509247,15.162979 3.78785911,15.162979 Z" id="Rectangle-7-Copy" fill="#81A4E8" transform="translate(7.398654, 21.264974) rotate(90.000000) translate(-7.398654, -21.264974) "></path>
                    <path d="M15.5043518,15.2711373 L26.6735111,15.2711373 L26.6735111,15.2711373 C27.2257959,15.2711373 27.6735111,15.7188525 27.6735111,16.2711373 C27.6735111,16.3998052 27.6486801,16.5272641 27.6003801,16.6465224 L23.5707226,26.5962081 L23.5707226,26.5962081 C23.4178152,26.973754 23.0511885,27.2208229 22.6438537,27.2208229 L11.5857955,27.2208229 L11.5857955,27.2208229 C11.0335108,27.2208229 10.5857955,26.7731077 10.5857955,26.2208229 C10.5857955,26.0953941 10.6093923,25.9710848 10.6553547,25.8543807 L14.573911,15.9046951 L14.573911,15.9046951 C14.7244626,15.5224263 15.0935048,15.2711373 15.5043518,15.2711373 Z" id="Rectangle-7-Copy-2" fill="#6694EF" transform="translate(19.131967, 21.245980) scale(-1, 1) rotate(90.000000) translate(-19.131967, -21.245980) "></path>
                </g>
                <polygon id="Fill-45" fill="#9B9B9B" points="80.2504265 17 80.2504265 19.2498578 63 19.2498578 63 20.7501422 80.2504265 20.7501422 80.2504265 23 83.2506161 20.0001896"></polygon>
                <polygon id="Fill-45-Copy-5" fill="#9B9B9B" transform="translate(29.000000, 50.125308) rotate(90.000000) translate(-29.000000, -50.125308) " points="29.1251185 47.1253081 29.1251185 49.3751659 25.8746919 49.3751659 25.8746919 50.8754502 29.1251185 50.8754502 29.1251185 53.1253081 32.1253081 50.1254976"></polygon>
                <polygon id="Fill-45-Copy-6" fill="#9B9B9B" transform="translate(119.000000, 50.125308) rotate(90.000000) translate(-119.000000, -50.125308) " points="119.125118 47.1253081 119.125118 49.3751659 115.874692 49.3751659 115.874692 50.8754502 119.125118 50.8754502 119.125118 53.1253081 122.125308 50.1254976"></polygon>
                <rect id="Rectangle-4-Copy-4" fill-opacity="0.8" fill="#FFFFFF" x="0" y="108" width="148" height="21" rx="5"></rect>
                <rect id="Rectangle-6-Copy-4" fill-opacity="0.1" fill="#4A4A4A" x="41" y="116" width="26" height="6" rx="3"></rect>
                <rect id="Rectangle-6-Copy-21" fill-opacity="0.1" fill="#4A4A4A" x="12" y="116" width="17" height="6" rx="3"></rect>
            </g>
        </g>
    </g>
</svg>