<?xml version="1.0" encoding="UTF-8"?>
<svg width="154px" height="130px" viewBox="0 0 154 130" version="1.1" xmlns="http://www.w3.org/2000/svg" xmlns:xlink="http://www.w3.org/1999/xlink">
    <!-- Generator: Sketch 49.3 (51167) - http://www.bohemiancoding.com/sketch -->
    <title>microservice-illustrator-2</title>
    <desc>Created with Sketch.</desc>
    <defs>
        <rect id="path-1" x="0" y="0" width="148" height="98" rx="5"></rect>
        <filter x="-3.7%" y="-3.6%" width="107.4%" height="111.2%" filterUnits="objectBoundingBox" id="filter-2">
            <feOffset dx="0" dy="2" in="SourceAlpha" result="shadowOffsetOuter1"></feOffset>
            <feGaussianBlur stdDeviation="1.5" in="shadowOffsetOuter1" result="shadowBlurOuter1"></feGaussianBlur>
            <feColorMatrix values="0 0 0 0 0.0792161481   0 0 0 0 0.0823091442   0 0 0 0 0.101589073  0 0 0 0.308423913 0" type="matrix" in="shadowBlurOuter1"></feColorMatrix>
        </filter>
    </defs>
    <g id="Page-1" stroke="none" stroke-width="1" fill="none" fill-rule="evenodd">
        <g id="microservice-illustrator-2" transform="translate(3.000000, 1.000000)">
            <g id="Rectangle-4-Copy-16">
                <g id="path-1-link" fill-rule="nonzero">
                    <g id="path-1">
                        <use fill="black" fill-opacity="1" filter="url(#filter-2)" xlink:href="#path-1"></use>
                        <use fill="#FFFFFF" fill-rule="evenodd" xlink:href="#path-1"></use>
                    </g>
                </g>
                <g id="path-1-link" fill="#FFFFFF">
                    <rect id="path-1" x="0" y="0" width="148" height="98" rx="5"></rect>
                </g>
            </g>
            <rect id="Rectangle-2-Copy-19" fill="#6694EF" fill-rule="nonzero" x="76" y="22" width="57" height="6" rx="3"></rect>
            <rect id="Rectangle-2-Copy-20" fill="#9BE8EF" fill-rule="nonzero" x="76" y="44" width="57" height="6" rx="3"></rect>
            <rect id="Rectangle-2-Copy-21" fill="#E2E2E2" fill-rule="nonzero" x="76" y="66" width="21" height="6" rx="3"></rect>
            <rect id="Rectangle-2-Copy-39" fill="#E2E2E2" fill-rule="nonzero" x="76" y="77" width="57" height="6" rx="3"></rect>
            <rect id="Rectangle-2-Copy-22" fill="#B7B7B7" fill-rule="nonzero" x="76" y="33" width="21" height="6" rx="3"></rect>
            <rect id="Rectangle-2-Copy-23" fill="#B7B7B7" fill-rule="nonzero" x="102" y="33" width="31" height="6" rx="3"></rect>
            <rect id="Rectangle-2-Copy-24" fill="#F8F1A1" fill-rule="nonzero" x="76" y="55" width="39" height="6" rx="3"></rect>
            <g id="接口" transform="translate(18.000000, 18.000000)">
                <path d="M18.7620112,23.6960894 L18.7620112,34.5251397 L9.38547486,39.9418994 L0.00446927374,34.5251397 L0.00446927374,23.6960894 L9.38547486,18.2793296 L18.7620112,23.6960894 Z M2.23910615,33.2335196 L9.38547486,37.3586592 L16.5318436,33.2335196 L16.5318436,24.9832402 L9.38547486,20.8625698 L2.23910615,24.9832402 L2.23910615,33.2335196 Z" id="Shape" fill="#E6E6E6" fill-rule="nonzero"></path>
                <path d="M39.9910615,23.6960894 L39.9910615,34.5251397 L30.6145251,39.9418994 L21.2335196,34.5251397 L21.2335196,23.6960894 L30.6145251,18.2793296 L39.9910615,23.6960894 Z M23.4681564,33.2335196 L30.6145251,37.3586592 L37.7608939,33.2335196 L37.7608939,24.9832402 L30.6145251,20.8625698 L23.4681564,24.9832402 L23.4681564,33.2335196 Z" id="Combined-Shape" fill="#A9EBF1"></path>
                <path d="M27.3519553,18.8871508 L27.3519553,27.2715084 L20.0938547,31.4636872 L12.8357542,27.2715084 L12.8357542,18.8871508 L20.0938547,14.6949721 L27.3519553,18.8871508 Z M14.5608939,26.2703911 L20.0893855,29.4614525 L25.6178771,26.2703911 L25.6178771,19.8837989 L20.0893855,16.6927374 L14.5608939,19.8837989 L14.5608939,26.2703911 Z" id="Shape" fill="#F9F3AF" fill-rule="nonzero"></path>
                <path d="M29.4078212,5.42569832 L29.4078212,16.2547486 L20.0268156,21.6715084 L10.6502793,16.2547486 L10.6502793,5.42569832 L20.0268156,0.00893854749 L29.4078212,5.42569832 Z M12.8849162,14.9631285 L20.0312849,19.0882682 L27.1731844,14.9631285 L27.1731844,6.71284916 L20.0268156,2.59217877 L12.8804469,6.71731844 L12.8804469,14.9631285 L12.8849162,14.9631285 Z" id="Shape" fill="#7CA3F1" fill-rule="nonzero"></path>
            </g>
            <g id="ic_all_inclusive_black_24px" transform="translate(31.000000, 21.000000)">
                <path d="M2.96774194,5.02624999 C2.48387097,5.02624999 2,5.58500001 2,6.14450001 L2,11 L2.96774194,11 L2.96774194,8.75000001 L3.93548386,8.75000001 L3.93548386,11 L4.90322582,11 L4.90322582,6.14450001 C4.90322582,5.58574999 4.41935482,5.02587498 3.93548386,5.02587498 L2.96774194,5.02587498 L2.96774194,5.02624999 Z M2.96774194,7.62499998 L2.96774194,6.12500002 L3.93548386,6.12500002 L3.93548386,7.62499998 L2.96774194,7.62499998 Z M6.51612905,5 C6.03225805,5 5.54838709,5.5595 5.54838709,6.11862498 L5.54838709,11 L6.51612905,11 L6.51612905,8.75000001 L7.48387095,8.75000001 C7.96774195,8.75000001 8.45161291,8.19050001 8.45161291,7.63137503 L8.45161291,6.11862498 C8.45161291,5.55987501 7.96774195,5 7.48387095,5 L6.51612905,5 Z M6.51612905,7.62499998 L6.51612905,6.12500002 L7.48387095,6.12500002 L7.48387095,7.62499998 L6.51612905,7.62499998 Z M10.0645161,6.12500002 L10.0645161,9.87500003 L9.09677418,9.87500003 L9.09677418,11 L12,11 L12,9.87500003 L11.032258,9.87500003 L11.032258,6.12500002 L12,6.12500002 L12,5.02624999 L9.09677418,5.02624999 L9.09677418,6.12500002 L10.0645161,6.12500002 Z" id="Shape" fill-opacity="0.649999976" fill="#000000" fill-rule="nonzero"></path>
                <polygon id="Shape" points="0 0 14 0 14 14 0 14"></polygon>
            </g>
            <path d="M5,0 L143,0 C145.761424,-5.07265313e-16 148,2.23857625 148,5 L148,11 L0,11 L0,5 C-3.38176876e-16,2.23857625 2.23857625,5.07265313e-16 5,0 Z" id="Rectangle-4-Copy-20" fill="#B7B7B7" fill-rule="nonzero"></path>
            <rect id="Rectangle-4-Copy-21" fill-opacity="0.8" fill="#FFFFFF" fill-rule="nonzero" x="0" y="108" width="148" height="21" rx="5"></rect>
            <rect id="Rectangle-6-Copy-11" fill-opacity="0.1" fill="#4A4A4A" fill-rule="nonzero" x="11" y="116" width="26" height="6" rx="3"></rect>
            <g id="Group" transform="translate(17.000000, 66.000000)" fill-rule="nonzero">
                <path d="M7,2 C3.15,2 0,5.15 0,9 C0,12.85 3.15,16 7,16 C10.85,16 14,12.85 14,9 C14,5.15 10.85,2 7,2 Z M5.81,11.8028057 L3.5,9.49280569 L4.48,8.51280569 L5.81,9.84280569 L9.52,6.13280569 L10.5,7.11280569 L5.81,11.8028057 Z" id="Shape-Copy" fill="#6694EF"></path>
                <rect id="Rectangle-2-Copy-8" fill="#F9F3AF" x="20" y="0" width="16" height="6" rx="3"></rect>
                <rect id="Rectangle-2-Copy-9" fill="#D4D4D4" x="20" y="11" width="32" height="6" rx="3"></rect>
            </g>
        </g>
    </g>
</svg>