<?xml version="1.0" encoding="utf-8"?>
<!-- Generator: Adobe Illustrator 17.0.0, SVG Export Plug-In . SVG Version: 6.00 Build 0)  -->
<!DOCTYPE svg PUBLIC "-//W3C//DTD SVG 1.1//EN" "http://www.w3.org/Graphics/SVG/1.1/DTD/svg11.dtd">
<svg version="1.1" id="图层_1" xmlns="http://www.w3.org/2000/svg" xmlns:xlink="http://www.w3.org/1999/xlink" x="0px" y="0px"
	 width="219.834px" height="196.128px" viewBox="0 0 219.834 196.128" enable-background="new 0 0 219.834 196.128"
	 xml:space="preserve">
<g>
	<g>
		<path fill="#6694EF" d="M151.674,175.988H65.159l-43.257-74.923l43.257-74.924h86.515l43.257,74.924L151.674,175.988z
			 M66.892,172.988h83.05l41.525-71.923l-41.525-71.924h-83.05l-41.525,71.924L66.892,172.988z"/>
	</g>
	<g>
		
			<rect x="23.635" y="99.564" transform="matrix(0.5 0.866 -0.866 0.5 141.7325 -43.3596)" fill="#6694EF" width="169.564" height="3"/>
	</g>
	<g>
		
			<rect x="106.917" y="16.282" transform="matrix(0.866 0.5001 -0.5001 0.866 65.0671 -40.6714)" fill="#6694EF" width="3" height="169.564"/>
	</g>
	<g>
		<rect x="23.635" y="99.564" fill="#6694EF" width="169.564" height="3"/>
	</g>
	<g>
		<circle fill="#34D2DF" cx="66.026" cy="27.64" r="20.5"/>
	</g>
	<g>
		<ellipse fill="#B2C9F7" cx="150.808" cy="27.64" rx="11" ry="10.5"/>
	</g>
	<g>
		<ellipse fill="#3670E3" cx="150.808" cy="174.488" rx="11" ry="10.5"/>
	</g>
	<g>
		<defs>
			<circle id="SVGID_1_" cx="23.634" cy="101.064" r="17.5"/>
		</defs>
		<use xlink:href="#SVGID_1_"  overflow="visible" fill-rule="evenodd" clip-rule="evenodd" fill="#3670E3"/>
		<clipPath id="SVGID_2_">
			<use xlink:href="#SVGID_1_"  overflow="visible"/>
		</clipPath>
		<g clip-path="url(#SVGID_2_)">
			<defs>
				<rect id="SVGID_3_" x="-233.866" y="-1687.436" width="1440" height="4958"/>
			</defs>
			<use xlink:href="#SVGID_3_"  overflow="visible" fill="#3670E3"/>
			<clipPath id="SVGID_4_">
				<use xlink:href="#SVGID_3_"  overflow="visible"/>
			</clipPath>
			<g clip-path="url(#SVGID_4_)">
				<rect x="1.134" y="78.564" fill="#3670E3" width="45" height="45"/>
			</g>
		</g>
	</g>
	<g>
		<circle fill="#34D2DF" cx="66.026" cy="174.488" r="14.5"/>
	</g>
	<g>
		<path fill-rule="evenodd" clip-rule="evenodd" fill="#FFFFFF" d="M66.026,181.978l-0.947-0.862
			c-3.362-3.049-5.582-5.06-5.582-7.528c0-2.011,1.58-3.591,3.591-3.591c1.136,0,2.226,0.529,2.938,1.365
			c0.712-0.836,1.802-1.365,2.938-1.365c2.011,0,3.591,1.58,3.591,3.591c0,2.468-2.22,4.479-5.582,7.534L66.026,181.978"/>
	</g>
	<g>
		<path fill-rule="evenodd" clip-rule="evenodd" fill="#FFFFFF" d="M31.457,99.638h-1.279v-3.411c0-0.938-0.768-1.706-1.706-1.706
			h-3.411v-1.279c0-1.177-0.955-2.132-2.132-2.132s-2.132,0.955-2.132,2.132v1.279h-3.411c-0.938,0-1.697,0.768-1.697,1.706v3.24
			h1.271c1.27,0,2.302,1.032,2.302,2.303c0,1.271-1.032,2.302-2.302,2.302H15.68v3.241c0,0.939,0.767,1.706,1.706,1.706h3.24v-1.279
			c0-1.271,1.032-2.303,2.303-2.303s2.303,1.032,2.303,2.303v1.279h3.241c0.938,0,1.706-0.767,1.706-1.706v-3.411h1.279
			c1.177,0,2.132-0.955,2.132-2.132C33.589,100.593,32.634,99.638,31.457,99.638"/>
	</g>
	<g>
		<circle fill="#6694EF" cx="108.417" cy="101.064" r="47"/>
	</g>
	<g>
		<path fill-rule="evenodd" clip-rule="evenodd" fill="#FFFFFF" d="M119.848,107.308c0.21-1.73,0.367-3.461,0.367-5.244
			s-0.157-3.513-0.367-5.244h8.862c0.419,1.678,0.682,3.435,0.682,5.244s-0.262,3.566-0.682,5.244H119.848z M115.208,121.886
			c1.573-2.91,2.779-6.057,3.618-9.334h7.735C124.043,116.878,120.032,120.234,115.208,121.886z M114.552,107.308h-12.27
			c-0.236-1.73-0.42-3.461-0.42-5.244s0.184-3.54,0.42-5.244h12.27c0.236,1.704,0.42,3.461,0.42,5.244
			S114.788,105.577,114.552,107.308z M108.417,122.934c-2.176-3.146-3.88-6.633-5.008-10.383h10.016
			C112.297,116.301,110.593,119.788,108.417,122.934z M98.008,91.577h-7.735c2.517-4.352,6.529-7.682,11.353-9.334
			C100.053,85.153,98.847,88.299,98.008,91.577z M90.273,112.552h7.735c0.839,3.277,2.045,6.424,3.618,9.334
			C96.802,120.234,92.79,116.904,90.273,112.552z M88.123,107.308c-0.42-1.678-0.682-3.435-0.682-5.244s0.262-3.566,0.682-5.244
			h8.862c-0.21,1.73-0.367,3.461-0.367,5.244s0.157,3.513,0.367,5.244H88.123z M108.417,81.194c2.176,3.146,3.88,6.633,5.008,10.383
			h-10.016C104.536,87.827,106.241,84.34,108.417,81.194z M126.56,91.577h-7.735c-0.839-3.277-2.045-6.424-3.618-9.334
			C120.032,83.894,124.043,87.25,126.56,91.577z M108.391,75.845c-14.473,0-26.193,11.746-26.193,26.219s11.72,26.219,26.193,26.219
			c14.499,0,26.245-11.746,26.245-26.219S122.89,75.845,108.391,75.845z"/>
	</g>
	<g>
		<circle fill="#B2C9F7" cx="193.199" cy="102.064" r="20.5"/>
	</g>
	<g>
		<path fill-rule="evenodd" clip-rule="evenodd" fill="#FFFFFF" d="M66.026,27.64c2.42,0,4.382-1.988,4.382-4.441
			s-1.962-4.441-4.382-4.441c-2.42,0-4.382,1.988-4.382,4.441S63.605,27.64,66.026,27.64z M66.026,29.861
			c-2.925,0-8.764,1.488-8.764,4.441v2.221H74.79v-2.221C74.79,31.349,68.951,29.861,66.026,29.861z"/>
	</g>
	<g>
		<path fill-rule="evenodd" clip-rule="evenodd" fill="#FFFFFF" d="M193.575,106.138c-2.246,0-4.074-1.827-4.074-4.074
			s1.827-4.074,4.074-4.074c2.246,0,4.074,1.827,4.074,4.074S195.822,106.138,193.575,106.138z M202.223,103.205
			c0.047-0.372,0.081-0.745,0.081-1.141s-0.035-0.768-0.081-1.141l2.456-1.92c0.221-0.175,0.279-0.489,0.14-0.745l-2.328-4.027
			c-0.14-0.256-0.454-0.349-0.71-0.256l-2.897,1.164c-0.605-0.466-1.257-0.85-1.967-1.141l-0.442-3.084
			c-0.035-0.279-0.279-0.489-0.57-0.489h-4.656c-0.291,0-0.535,0.21-0.57,0.489l-0.442,3.084c-0.71,0.291-1.362,0.687-1.967,1.141
			l-2.898-1.164c-0.268-0.105-0.57,0-0.71,0.256l-2.328,4.027c-0.151,0.256-0.081,0.57,0.14,0.745l2.456,1.92
			c-0.047,0.372-0.081,0.757-0.081,1.141c0,0.384,0.035,0.768,0.081,1.141l-2.456,1.92c-0.221,0.175-0.279,0.489-0.14,0.745
			l2.328,4.027c0.14,0.256,0.454,0.349,0.71,0.256l2.898-1.164c0.605,0.466,1.257,0.85,1.967,1.141l0.442,3.084
			c0.035,0.279,0.279,0.489,0.57,0.489h4.656c0.291,0,0.535-0.21,0.57-0.489l0.442-3.084c0.71-0.291,1.362-0.687,1.967-1.141
			l2.897,1.164c0.268,0.105,0.57,0,0.71-0.256l2.328-4.027c0.14-0.256,0.081-0.57-0.14-0.745L202.223,103.205z"/>
	</g>
</g>
<g>
</g>
<g>
</g>
<g>
</g>
<g>
</g>
<g>
</g>
<g>
</g>
</svg>
