<?xml version="1.0" encoding="UTF-8"?>
<svg width="151px" height="130px" viewBox="0 0 151 130" version="1.1" xmlns="http://www.w3.org/2000/svg" xmlns:xlink="http://www.w3.org/1999/xlink">
    <!-- Generator: Sketch 49.3 (51167) - http://www.bohemiancoding.com/sketch -->
    <title>wiki-2</title>
    <desc>Created with Sketch.</desc>
    <defs>
        <rect id="path-1" x="0" y="0" width="40" height="40" rx="5"></rect>
        <filter x="-13.8%" y="-8.8%" width="127.5%" height="127.5%" filterUnits="objectBoundingBox" id="filter-2">
            <feOffset dx="0" dy="2" in="SourceAlpha" result="shadowOffsetOuter1"></feOffset>
            <feGaussianBlur stdDeviation="1.5" in="shadowOffsetOuter1" result="shadowBlurOuter1"></feGaussianBlur>
            <feColorMatrix values="0 0 0 0 0.0792161481   0 0 0 0 0.0823091442   0 0 0 0 0.101589073  0 0 0 0.308423913 0" type="matrix" in="shadowBlurOuter1"></feColorMatrix>
        </filter>
    </defs>
    <g id="Page-1" stroke="none" stroke-width="1" fill="none" fill-rule="evenodd">
        <g id="wiki-2" transform="translate(0.000000, 1.000000)">
            <rect id="Rectangle-4-Copy-3" fill="#FFFFFF" fill-rule="nonzero" x="0" y="68" width="148" height="30" rx="5"></rect>
            <g id="Group-11-Copy" transform="translate(11.000000, 69.000000)" fill-rule="nonzero">
                <path d="M7.04497635,6.40066541 L15.1688967,3.36590407 C15.6862618,3.17263784 16.2623423,3.43537185 16.4556085,3.95273691 C16.5454574,4.19325833 16.5393495,4.45912419 16.43855,4.69526576 L13.1003126,12.51571 C12.9991122,12.7527908 12.8102689,12.9416341 12.5731881,13.0428345 L4.75274386,16.3810719 C4.24479992,16.5978931 3.65726175,16.3618914 3.44044063,15.8539475 C3.33964116,15.6178059 3.3335333,15.35194 3.42338218,15.1114186 L6.45814351,6.98749825 C6.55951913,6.71612027 6.77359837,6.50204103 7.04497635,6.40066541 Z" id="Rectangle-7" fill="#F9F5C2" transform="translate(9.939495, 9.882010) rotate(45.000000) translate(-9.939495, -9.882010) "></path>
                <path d="M2.23522981,11.8365889 L10.9158273,11.8365889 C11.4681121,11.8365889 11.9158273,12.2843042 11.9158273,12.8365889 C11.9158273,12.9634342 11.8916947,13.0891214 11.8447166,13.2069466 L8.68615615,21.1288894 C8.53456494,21.5090933 8.1665772,21.7585317 7.75726695,21.7585317 L-0.836715134,21.7585317 C-1.38899988,21.7585317 -1.83671513,21.3108164 -1.83671513,20.7585317 C-1.83671513,20.6348707 -1.81377872,20.5122822 -1.76906965,20.3969863 L1.30287529,12.4750435 C1.45210916,12.0901987 1.82246316,11.8365889 2.23522981,11.8365889 Z" id="Rectangle-7-Copy" fill="#EDE9B2" transform="translate(5.039556, 16.797560) rotate(90.000000) translate(-5.039556, -16.797560) "></path>
                <path d="M11.7601937,11.9244414 L20.436006,11.9244414 C20.9882908,11.9244414 21.436006,12.3721567 21.436006,12.9244414 C21.436006,13.0531094 21.411175,13.1805683 21.3628749,13.2998266 L18.2381954,21.0150181 C18.085288,21.3925641 17.7186613,21.639633 17.3113265,21.639633 L8.72166423,21.639633 C8.16937949,21.639633 7.72166424,21.1919177 7.72166424,20.639633 C7.72166424,20.5142042 7.74526101,20.3898949 7.79122343,20.2731908 L10.8297528,12.5579992 C10.9803045,12.1757304 11.3493467,11.9244414 11.7601937,11.9244414 Z" id="Rectangle-7-Copy-2" fill="#F8F1A1" transform="translate(14.578835, 16.782037) scale(-1, 1) rotate(90.000000) translate(-14.578835, -16.782037) "></path>
            </g>
            <rect id="Rectangle-2-Copy-20" fill="#E2E2E2" fill-rule="nonzero" x="41" y="86" width="86" height="6" rx="3"></rect>
            <rect id="Rectangle-2-Copy-22" fill="#E2E2E2" fill-rule="nonzero" x="41" y="75" width="32" height="6" rx="3"></rect>
            <g id="Rectangle-4-Copy-17" transform="translate(108.000000, 0.000000)">
                <g id="path-1-link" fill-rule="nonzero">
                    <g id="path-1">
                        <use fill="black" fill-opacity="1" filter="url(#filter-2)" xlink:href="#path-1"></use>
                        <use fill="#FFFFFF" fill-rule="evenodd" xlink:href="#path-1"></use>
                    </g>
                </g>
                <g id="path-1-link" fill="#FFFFFF">
                    <rect id="path-1" x="0" y="0" width="40" height="40" rx="5"></rect>
                </g>
            </g>
            <g id="权限管理" transform="translate(116.000000, 8.000000)" fill="#E2E2E2" fill-rule="nonzero">
                <path d="M21.9371953,11.9148936 L21.9371953,10.893617 L20.223352,10.3829787 L19.8805833,9.36170212 C19.7091989,9.02127659 19.5378146,8.51063829 19.3664303,8.17021277 L18.8522772,7.31914894 L19.7091989,5.61702127 C19.5378146,5.27659573 19.1950459,5.10638297 19.0236616,4.76595745 L18.3381242,4.08510637 L16.6242808,5.10638297 L15.7673592,4.59574467 C15.4245905,4.42553191 14.9104375,4.25531913 14.5676688,4.08510637 L13.5393627,3.74468086 L13.0252097,2.04255319 L10.9685977,2.04255319 L10.4544446,3.74468086 L9.42613862,4.08510637 C9.08336994,4.25531913 8.56921692,4.42553191 8.22644826,4.59574467 L7.36952656,5.10638297 L5.65568316,4.25531916 C5.48429883,4.42553191 5.14153015,4.5957447 4.97014582,4.93617021 C4.62737713,5.10638297 4.4559928,5.44680851 4.28460847,5.61702127 L5.14153015,7.31914894 L4.62737713,8.17021277 C4.4559928,8.51063831 4.28460845,9.02127661 4.11322412,9.36170212 L3.77045546,10.3829787 L2.05661206,10.893617 L2.05661206,12.9361702 L3.77045546,13.4468085 L4.11322412,14.4680851 C4.28460845,14.8085107 4.4559928,15.319149 4.62737713,15.6595745 L5.14153015,16.5106383 L4.28460847,18.0425532 C4.62737716,18.7234042 5.14153017,19.2340425 5.65568316,19.5744681 L7.36952656,18.7234042 L8.22644826,19.2340425 C8.56921694,19.4042553 9.08336996,19.5744681 9.42613862,19.7446808 L10.4544446,20.0851064 L10.9685977,21.787234 L13.0252097,21.787234 L13.5393627,20.0851064 L14.5676688,19.7446808 C14.9104375,19.5744681 15.4245905,19.4042553 15.7673592,19.2340425 L16.6242808,18.7234042 L18.1667399,19.5744681 C18.6808929,19.0638298 19.1950459,18.7234042 19.5378146,18.212766 L18.8522772,16.5106383 L19.3664303,15.6595745 C19.5378146,15.3191489 19.7091989,14.8085106 19.8805833,14.4680851 L20.223352,13.4468085 L21.9371953,12.9361702 L21.9371953,11.9148936 Z M23.8224231,13.787234 L23.6510387,14.4680851 L21.765811,15.1489362 C21.5944267,15.6595745 21.4230423,16.1702128 21.0802737,16.6808511 L21.9371953,18.5531915 L21.5944267,19.0638298 C20.9088893,20.0851064 19.8805833,20.9361702 18.8522772,21.787234 L18.3381242,22.1276596 L16.4528965,21.2765957 C15.9387435,21.4468085 15.4245905,21.787234 14.9104375,21.9574468 L14.2249001,23.8297872 L13.5393627,24 C13.1965941,23.8297872 12.682441,23.8297872 11.9969037,23.8297872 C11.4827507,23.8297872 10.7972133,23.8297872 10.111676,23.6595745 L9.42613862,23.4893617 L8.74060127,21.6170213 C8.22644826,21.4468085 7.71229524,21.2765957 7.19814223,20.9361702 L5.3129145,21.787234 L4.79876149,21.4468085 C3.77045546,20.7659575 2.91353376,19.7446809 2.05661206,18.7234042 L1.71384337,18.212766 L2.57076507,16.3404255 C2.57076507,16.1702128 2.39938074,15.6595745 2.22799641,15.1489362 L0.342768684,14.4680851 L0.17138433,13.787234 C0,13.106383 0,12.4255319 0,11.9148936 C0,11.4042553 0,10.7234043 0.17138433,10.0425532 L0.342768684,9.36170212 L2.22799641,8.68085107 C2.39938074,8.17021277 2.5707651,7.65957448 2.91353376,7.14893618 L1.88522773,5.44680851 L2.22799641,4.93617021 C2.5707651,4.42553191 3.08491811,3.91489362 3.42768677,3.40425532 C3.77045546,3.06382978 4.28460847,2.55319148 4.79876149,2.21276597 L5.3129145,1.87234043 L7.19814223,2.72340427 C7.71229524,2.55319151 8.22644826,2.21276597 8.74060127,2.04255319 L9.42613862,0.170212758 L10.111676,0 L11.9969037,0 C12.5110567,0 13.1965941,0 13.8821314,0.170212758 L14.5676688,0.340425539 L15.2532061,2.21276597 C15.7673592,2.38297873 16.2815122,2.55319151 16.7956652,2.89361702 L18.6808929,2.04255319 L19.1950459,2.38297873 C19.7091989,2.72340427 20.223352,3.23404256 20.5661206,3.57446808 C21.0802737,4.08510638 21.4230423,4.42553191 21.765811,5.10638297 L22.1085797,5.61702127 L21.251658,7.4893617 C21.4230423,7.99999999 21.765811,8.51063829 21.9371953,9.02127659 L23.8224231,9.70212766 L23.9938074,10.3829787 L23.9938074,11.9148936 C23.9938074,12.4255319 23.9938074,13.106383 23.8224231,13.787234 Z" id="Shape"></path>
                <path d="M11.9969037,14.9787234 C13.7107471,14.9787234 15.0818218,13.6170213 15.0818218,11.9148936 C15.0818218,10.2127659 13.7107471,8.85106383 11.9969037,8.85106383 C10.2830603,8.85106383 8.9119856,10.212766 8.9119856,11.9148936 C8.9119856,13.6170213 10.2830603,14.9787234 11.9969037,14.9787234 Z M11.9969037,16.8510638 C9.25475429,16.8510638 7.02675788,14.6382979 7.02675788,11.9148936 C7.02675788,9.19148934 9.25475429,6.9787234 11.9969037,6.9787234 C14.7390531,6.9787234 16.9670495,9.19148937 16.9670495,11.9148936 C16.9670495,14.6382979 14.7390531,16.8510638 11.9969037,16.8510638 Z" id="Shape"></path>
            </g>
            <rect id="Rectangle-4-Copy-39" fill="#FFFFFF" fill-rule="nonzero" x="54" y="0" width="40" height="40" rx="5"></rect>
            <g id="权限管理-(1)" transform="translate(62.000000, 8.000000)" fill="#9BE8EF" fill-rule="nonzero">
                <path d="M23.3973191,19.9513149 L19.9477028,19.9513149 L19.9477028,23.4000315 C19.9477028,23.699949 19.6478116,23.9998664 19.3477869,23.9998664 L18.1479552,23.9998664 C17.8479306,23.9998664 17.5480394,23.6999489 17.5480394,23.4000315 L17.5480394,19.9513149 L14.0982896,19.9513149 C13.7983984,19.9513149 13.4985072,19.6513974 13.4985072,19.35148 L13.4985072,18.1519438 C13.4985072,17.8521599 13.7983984,17.5521089 14.0982896,17.5521089 L17.5480394,17.5521089 L17.5480394,14.1033922 C17.5480394,13.8034748 17.8479306,13.5036909 18.1479552,13.5036909 L19.3477869,13.5036909 C19.6478116,13.5036909 19.9477028,13.8034748 19.9477028,14.1035258 L19.9477028,17.5522425 L23.3973191,17.5522425 C23.6972103,17.5522425 23.9972349,17.8521599 23.997235,18.1520774 L23.997235,19.3516136 C23.997235,19.6513974 23.6972103,19.9514485 23.3973191,19.9514485 L23.3973191,19.9513149 Z M22.7974032,10.8047011 L14.3984477,10.8047011 C13.7983984,10.8047011 13.198616,10.2048662 13.198616,9.60503131 L13.198616,1.20841155 C13.198616,0.608576665 13.7983984,0.00874177691 14.3984477,0.00874175342 L22.7972698,0.00874175342 C23.3973191,0.00874175342 23.997235,0.608576642 23.997235,1.20841155 L23.997235,9.60516491 C23.997235,10.3548917 23.3973191,10.8048347 22.7974032,10.8048347 L22.7974032,10.8047011 Z M9.5989874,23.9998664 L1.19989844,23.9998664 C0.599982592,23.9998664 6.67214076e-05,23.4000315 6.67214076e-05,22.8001966 L6.67214076e-05,14.4034433 C6.67214076e-05,13.8036084 0.599982569,13.2037735 1.19989844,13.2037735 L9.5989874,13.2037735 C10.1987698,13.2037735 10.7988191,13.8036084 10.7988191,14.4034433 L10.7988191,22.8003302 C10.7988191,23.550057 10.1987698,23.9998664 9.5989874,23.9998664 Z M9.5989874,10.8048347 L1.19989844,10.8048347 C0.599982592,10.8048347 6.67214076e-05,10.2047326 6.67214076e-05,9.60516491 L6.67214076e-05,1.20827796 C6.67214076e-05,0.608443068 0.599982592,0.00860818004 1.19989844,0.00860818004 L9.5989874,0.00860818004 C10.1987698,0.00860818004 10.7988191,0.608443068 10.7988191,1.20827796 L10.7988191,9.60516491 C10.7988191,10.3548917 10.1987698,10.8048347 9.5989874,10.8048347 Z" id="Shape"></path>
            </g>
            <rect id="Rectangle-4-Copy-40" fill="#FFFFFF" fill-rule="nonzero" x="0" y="0" width="40" height="40" rx="5"></rect>
            <path d="M20.000602,8 C13.37755,8 8.001805,13.3761491 8.001805,19.9996994 C8.001805,26.6238509 13.37755,32 20.000602,32 C26.624256,32 32,26.6238509 32,19.9996994 C32,13.3761491 26.624256,8 20.000602,8 Z M20.000602,11.5997295 C21.992687,11.5997295 23.600662,13.2078251 23.600662,15.2000601 C23.600662,17.191694 21.992687,18.7997896 20.000602,18.7997896 C18.009118,18.7997896 16.401143,17.191694 16.401143,15.2000601 C16.401143,13.2078251 18.009118,11.5997295 20.000602,11.5997295 Z M20.000602,28.6401323 C17.001053,28.6401323 14.348947,27.1035744 12.801083,24.7758936 C12.83715,22.3874959 17.600963,21.079979 20.000602,21.079979 C22.38882,21.079979 27.164054,22.3874959 27.200121,24.7758936 C25.652257,27.1035744 23.000752,28.6401323 20.000602,28.6401323 Z" id="Fill-9" fill="#6694EF" fill-rule="nonzero"></path>
            <polygon id="Fill-45-Copy-5" fill="#9B9B9B" fill-rule="nonzero" transform="translate(129.000000, 50.125308) rotate(90.000000) translate(-129.000000, -50.125308) " points="129.125118 47.125308 129.125118 49.3751658 125.874692 49.3751658 125.874692 50.8754501 129.125118 50.8754501 129.125118 53.125308 132.125308 50.1254975"></polygon>
            <polygon id="Fill-45-Copy-6" fill="#9B9B9B" fill-rule="nonzero" transform="translate(75.000000, 50.125308) rotate(90.000000) translate(-75.000000, -50.125308) " points="75.1251184 47.125308 75.1251184 49.3751658 71.8746918 49.3751658 71.8746918 50.8754501 75.1251184 50.8754501 75.1251184 53.125308 78.125308 50.1254975"></polygon>
            <polygon id="Fill-45-Copy-7" fill="#9B9B9B" fill-rule="nonzero" transform="translate(21.000000, 50.125308) rotate(90.000000) translate(-21.000000, -50.125308) " points="21.1251184 47.125308 21.1251184 49.3751658 17.8746918 49.3751658 17.8746918 50.8754501 21.1251184 50.8754501 21.1251184 53.125308 24.125308 50.1254975"></polygon>
            <rect id="Rectangle-4-Copy-4" fill-opacity="0.8" fill="#FFFFFF" fill-rule="nonzero" x="0" y="108" width="148" height="21" rx="5"></rect>
            <rect id="Rectangle-6-Copy-4" fill-opacity="0.1" fill="#4A4A4A" fill-rule="nonzero" x="41" y="116" width="26" height="6" rx="3"></rect>
            <rect id="Rectangle-6-Copy-21" fill-opacity="0.1" fill="#4A4A4A" fill-rule="nonzero" x="12" y="116" width="17" height="6" rx="3"></rect>
        </g>
    </g>
</svg>