<?xml version="1.0" encoding="UTF-8"?>
<svg width="146px" height="142px" viewBox="0 0 146 142" version="1.1" xmlns="http://www.w3.org/2000/svg" xmlns:xlink="http://www.w3.org/1999/xlink">
    <!-- Generator: Sketch 49.3 (51167) - http://www.bohemiancoding.com/sketch -->
    <title>microservice-illustrator-4</title>
    <desc>Created with Sketch.</desc>
    <defs>
        <rect id="path-1" x="0" y="0" width="40" height="40" rx="5"></rect>
        <filter x="-13.8%" y="-8.8%" width="127.5%" height="127.5%" filterUnits="objectBoundingBox" id="filter-2">
            <feOffset dx="0" dy="2" in="SourceAlpha" result="shadowOffsetOuter1"></feOffset>
            <feGaussianBlur stdDeviation="1.5" in="shadowOffsetOuter1" result="shadowBlurOuter1"></feGaussianBlur>
            <feColorMatrix values="0 0 0 0 0.0792161481   0 0 0 0 0.0823091442   0 0 0 0 0.101589073  0 0 0 0.308423913 0" type="matrix" in="shadowBlurOuter1"></feColorMatrix>
        </filter>
        <rect id="path-3" x="0" y="0" width="40" height="40" rx="5"></rect>
        <filter x="-13.8%" y="-8.8%" width="127.5%" height="127.5%" filterUnits="objectBoundingBox" id="filter-4">
            <feOffset dx="0" dy="2" in="SourceAlpha" result="shadowOffsetOuter1"></feOffset>
            <feGaussianBlur stdDeviation="1.5" in="shadowOffsetOuter1" result="shadowBlurOuter1"></feGaussianBlur>
            <feColorMatrix values="0 0 0 0 0.0792161481   0 0 0 0 0.0823091442   0 0 0 0 0.101589073  0 0 0 0.308423913 0" type="matrix" in="shadowBlurOuter1"></feColorMatrix>
        </filter>
        <rect id="path-5" x="0" y="0" width="40" height="40" rx="5"></rect>
        <filter x="-13.8%" y="-8.8%" width="127.5%" height="127.5%" filterUnits="objectBoundingBox" id="filter-6">
            <feOffset dx="0" dy="2" in="SourceAlpha" result="shadowOffsetOuter1"></feOffset>
            <feGaussianBlur stdDeviation="1.5" in="shadowOffsetOuter1" result="shadowBlurOuter1"></feGaussianBlur>
            <feColorMatrix values="0 0 0 0 0.0792161481   0 0 0 0 0.0823091442   0 0 0 0 0.101589073  0 0 0 0.308423913 0" type="matrix" in="shadowBlurOuter1"></feColorMatrix>
        </filter>
    </defs>
    <g id="Page-1" stroke="none" stroke-width="1" fill="none" fill-rule="evenodd">
        <g id="microservice-illustrator-4" transform="translate(3.000000, 1.000000)">
            <rect id="Rectangle-4-Copy-15" fill-opacity="0.6" fill="#FFFFFF" fill-rule="nonzero" x="0" y="0" width="40" height="40" rx="5"></rect>
            <rect id="Rectangle-4-Copy-32" fill="#FFFFFF" fill-rule="nonzero" x="0" y="48" width="40" height="40" rx="5"></rect>
            <g id="组件_列表" transform="translate(10.000000, 59.000000)" fill="#E2E2E2" fill-rule="nonzero">
                <path d="M5.67335888,0.00669265367 L1.94615581,0.00669265367 C0.886845466,0.00669265367 0.0106257982,0.91862069 0.0106257982,2.05162219 L0.0106257982,5.98949325 C0.0106257982,7.10867766 0.873767561,8.03442279 1.94615581,8.03442279 L5.67335888,8.03442279 C6.73266922,8.03442279 7.60888889,7.12249475 7.60888889,5.98949325 L7.60888889,2.05162219 C7.59581098,0.932437781 6.73266922,0.00669265367 5.67335888,0.00669265367 Z" id="Shape"></path>
                <path d="M9.97598978,2.53522039 C9.5444189,2.53522039 9.19131545,2.16215892 9.19131545,1.7061949 C9.19131545,1.25023088 9.5444189,0.877169415 9.97598978,0.877169415 L19.1959132,0.877169415 C19.627484,0.877169415 19.9805875,1.25023088 19.9805875,1.7061949 C19.9805875,2.16215892 19.627484,2.53522039 19.1959132,2.53522039 L9.97598978,2.53522039 Z M9.97598978,6.92905547 C9.5444189,6.92905547 9.19131545,6.555994 9.19131545,6.10002999 C9.19131545,5.64406597 9.5444189,5.2710045 9.97598978,5.2710045 L19.1959132,5.2710045 C19.627484,5.2710045 19.9805875,5.64406597 19.9805875,6.10002999 C19.9805875,6.555994 19.627484,6.92905547 19.1959132,6.92905547 L9.97598978,6.92905547 Z" id="Shape"></path>
                <path d="M5.67335888,9.9549985 L1.94615581,9.9549985 C0.886845466,9.9549985 0.0106257982,10.8669265 0.0106257982,11.999928 L0.0106257982,15.9377991 C0.0106257982,17.0569835 0.873767561,17.9827286 1.94615581,17.9827286 L5.67335888,17.9827286 C6.73266922,17.9827286 7.60888889,17.0708006 7.60888889,15.9377991 L7.60888889,11.999928 C7.59581098,10.8807436 6.73266922,9.9549985 5.67335888,9.9549985 Z" id="Shape"></path>
                <path d="M9.97598978,12.7184168 C9.5444189,12.7184168 9.19131545,12.3453553 9.19131545,11.8893913 C9.19131545,11.4334273 9.5444189,11.0603658 9.97598978,11.0603658 L19.1959132,11.0603658 C19.627484,11.0603658 19.9805875,11.4334273 19.9805875,11.8893913 C19.9805875,12.3453553 19.627484,12.7184168 19.1959132,12.7184168 L9.97598978,12.7184168 Z M9.97598978,17.1122519 C9.5444189,17.1122519 9.19131545,16.7391904 9.19131545,16.2832264 C9.19131545,15.8272624 9.5444189,15.4542009 9.97598978,15.4542009 L19.1959132,15.4542009 C19.627484,15.4542009 19.9805875,15.8272624 19.9805875,16.2832264 C19.9805875,16.7391904 19.627484,17.1122519 19.1959132,17.1122519 L9.97598978,17.1122519 Z" id="Shape"></path>
            </g>
            <g id="Rectangle-4-Copy-35" transform="translate(0.000000, 96.000000)">
                <g id="path-1-link" fill-rule="nonzero">
                    <g id="path-1">
                        <use fill="black" fill-opacity="1" filter="url(#filter-2)" xlink:href="#path-1"></use>
                        <use fill="#FFFFFF" fill-rule="evenodd" xlink:href="#path-1"></use>
                    </g>
                </g>
                <g id="path-1-link" fill="#FFFFFF">
                    <rect id="path-1" x="0" y="0" width="40" height="40" rx="5"></rect>
                </g>
            </g>
            <rect id="Rectangle-4-Copy-31" fill-opacity="0.6" fill="#FFFFFF" fill-rule="nonzero" x="100" y="0" width="40" height="40" rx="5"></rect>
            <g id="Rectangle-4-Copy-33" transform="translate(100.000000, 48.000000)">
                <g id="path-3-link" fill-rule="nonzero">
                    <g id="path-3">
                        <use fill="black" fill-opacity="1" filter="url(#filter-4)" xlink:href="#path-3"></use>
                        <use fill="#FFFFFF" fill-rule="evenodd" xlink:href="#path-3"></use>
                    </g>
                </g>
                <g id="path-3-link" fill="#FFFFFF">
                    <rect id="path-3" x="0" y="0" width="40" height="40" rx="5"></rect>
                </g>
            </g>
            <path d="M127.618991,66.5240363 L126.190385,66.5240363 L126.190385,62.7144218 C126.190385,61.6667778 125.333222,60.8096145 124.285578,60.8096145 L120.475964,60.8096145 L120.475964,59.3810091 C120.475964,58.0666921 119.409272,57 118.094955,57 C116.780638,57 115.713946,58.0666921 115.713946,59.3810091 L115.713946,60.8096145 L111.904807,60.8096145 C110.857163,60.8096145 110.009524,61.6667778 110.009524,62.7144218 L110.009524,66.3330794 L111.428605,66.3330794 C112.847211,66.3330794 113.999619,67.485964 113.999619,68.9050454 C113.999619,70.3241268 112.847211,71.476059 111.428605,71.476059 L110,71.476059 L110,75.0951927 C110,76.1433129 110.856687,77 111.904807,77 L115.523465,77 L115.523465,75.5713946 C115.523465,74.1523132 116.675873,72.9999048 118.094955,72.9999048 C119.514036,72.9999048 120.666444,74.1523132 120.666444,75.5713946 L120.666444,77 L124.285578,77 C125.333222,77 126.190385,76.1433129 126.190385,75.0951927 L126.190385,71.2860544 L127.618991,71.2860544 C128.933308,71.2860544 130,70.2193624 130,68.9050454 C130,67.5907284 128.933308,66.5240363 127.618991,66.5240363" id="Fill-152" fill="#F8F1A1" fill-rule="nonzero"></path>
            <rect id="Rectangle-4-Copy-36" fill="#FFFFFF" fill-rule="nonzero" x="100" y="96" width="40" height="40" rx="5"></rect>
            <g id="Rectangle-4-Copy-17" transform="translate(50.000000, 0.000000)">
                <g id="path-5-link" fill-rule="nonzero">
                    <g id="path-5">
                        <use fill="black" fill-opacity="1" filter="url(#filter-6)" xlink:href="#path-5"></use>
                        <use fill="#FFFFFF" fill-rule="evenodd" xlink:href="#path-5"></use>
                    </g>
                </g>
                <g id="path-5-link" fill="#FFFFFF">
                    <rect id="path-5" x="0" y="0" width="40" height="40" rx="5"></rect>
                </g>
            </g>
            <g id="组件" transform="translate(60.000000, 9.454868)" fill="#6694EF" fill-rule="nonzero">
                <path d="M19.3842697,4.18651685 L10.4044944,0.105617978 C10.1460674,-0.00898876404 9.85168539,-0.00898876404 9.59325843,0.105617978 L0.615730337,4.18651685 C0.112359551,4.40898876 -0.114606742,4.91011236 0.107865169,5.41348315 C0.208988764,5.64044944 0.388764045,5.75280899 0.615730337,5.85393258 L9.59550562,9.91235955 C9.85393258,10.0269663 10.1483146,10.0269663 10.4067416,9.91235955 L19.3865169,5.85393258 C19.8898876,5.63146067 20.1168539,5.10786517 19.894382,4.60449438 C19.7910112,4.37752809 19.611236,4.28764045 19.3842697,4.18651685 Z M9.49662921,14.7955056 L0.537078652,11.0876404 C0.123595506,10.9168539 -0.0719101124,10.4426966 0.0988764045,10.0314607 C0.269662921,9.61797753 0.743820225,9.42247191 1.15505618,9.59325843 L10.1146067,13.3011236 C10.5280899,13.4719101 10.7235955,13.9460674 10.552809,14.3573034 C10.3820225,14.7685393 9.91011236,14.9662921 9.49662921,14.7955056 Z" id="Shape"></path>
                <path d="M10.1438202,14.7955056 L19.1033708,11.0876404 C19.5168539,10.9168539 19.7123596,10.4426966 19.541573,10.0314607 C19.3707865,9.61797753 18.8966292,9.42247191 18.4853933,9.59325843 L9.5258427,13.3011236 C9.11235955,13.4719101 8.91685393,13.9460674 9.08764045,14.3573034 C9.25842697,14.7685393 9.73033708,14.9662921 10.1438202,14.7955056 Z" id="Shape"></path>
                <path d="M9.49662921,20.0089888 L0.537078652,16.3011236 C0.123595506,16.1303371 -0.0719101124,15.6561798 0.0988764045,15.2449438 C0.269662921,14.8314607 0.743820225,14.6359551 1.15505618,14.8067416 L10.1146067,18.5146067 C10.5280899,18.6853933 10.7235955,19.1595506 10.552809,19.5707865 C10.3820225,19.9820225 9.91011236,20.1797753 9.49662921,20.0089888 Z" id="Shape"></path>
                <path d="M10.1438202,20.0089888 L19.1033708,16.3011236 C19.5168539,16.1303371 19.7123596,15.6561798 19.541573,15.2449438 C19.3707865,14.8314607 18.8966292,14.6359551 18.4853933,14.8067416 L9.5258427,18.5146067 C9.11235955,18.6853933 8.91685393,19.1595506 9.08764045,19.5707865 C9.25842697,19.9820225 9.73033708,20.1797753 10.1438202,20.0089888 Z" id="Shape"></path>
            </g>
            <rect id="Rectangle-4-Copy-34" fill="#FFFFFF" fill-rule="nonzero" x="50" y="48" width="40" height="40" rx="5"></rect>
            <g id="组件库" transform="translate(61.000000, 59.000000)" fill="#E2E2E2" fill-rule="nonzero">
                <path d="M13.4588629,7.54113712 C13.4588629,7.61137124 13.4307692,7.65953177 13.3745819,7.68762542 L9.01404682,10.0354515 L8.99197324,10.0354515 C8.97792642,10.0494983 8.95585284,10.0575251 8.9277592,10.0575251 C8.89966555,10.0575251 8.87759197,10.0494983 8.86354515,10.0354515 L8.84347826,10.0354515 L4.48294314,7.68762542 C4.42675585,7.65953177 4.39866221,7.61137124 4.39866221,7.54113712 L4.39866221,2.48829431 C4.39866221,2.47424749 4.40668896,2.46020067 4.42073579,2.44615385 L4.42073579,2.42408027 L4.46287625,2.3819398 L4.48494983,2.35986622 L8.84548495,0.0120401338 C8.90167224,-0.00200668896 8.95785953,-0.00200668896 9.01404682,0.0120401338 L13.3745819,2.35986622 L13.3966555,2.3819398 L13.438796,2.42408027 L13.438796,2.44615385 L13.4588629,2.48829431 L13.4588629,7.54113712 Z M4.73578595,7.4367893 L8.76120401,9.6180602 L8.76120401,4.96254181 L4.73578595,2.7812709 L4.73578595,7.4367893 Z M4.92441472,2.51036789 L8.92976589,4.66956522 L12.9331104,2.51036789 L8.92976589,0.34916388 L4.92441472,2.51036789 Z" id="Shape"></path>
                <path d="M9.07424749,14.8976589 C9.07424749,14.967893 9.04615385,15.0160535 8.98996656,15.0441472 L4.62943144,17.3919732 L4.60735786,17.3919732 C4.59331104,17.4060201 4.57123746,17.4140468 4.54314381,17.4140468 C4.51505017,17.4140468 4.49297659,17.4060201 4.47892977,17.3919732 L4.45886288,17.3919732 L0.100334448,15.0441472 C0.0441471572,15.0160535 0.0160535117,14.967893 0.0160535117,14.8976589 L0.0160535117,9.84280936 C0.0160535117,9.82876254 0.0240802676,9.81471572 0.0381270903,9.8006689 L0.0381270903,9.77859532 L0.0802675585,9.73645485 L0.102341137,9.71438127 L4.46287625,7.36655518 C4.51906355,7.35250836 4.57525084,7.35250836 4.63143813,7.36655518 L8.99197324,9.71438127 L9.01404682,9.73645485 L9.05618729,9.77859532 L9.05618729,9.8006689 L9.07625418,9.84280936 L9.07625418,14.8976589 L9.07424749,14.8976589 Z M0.351170569,14.793311 L4.37658863,16.9745819 L4.37658863,12.3190635 L0.351170569,10.1377926 L0.351170569,14.793311 Z M0.539799331,9.86488294 L4.54314381,12.0240803 L8.54849498,9.86488294 L4.5451505,7.70568562 L0.539799331,9.86488294 Z" id="Shape"></path>
                <path d="M17.9879599,14.8976589 C17.9879599,14.967893 17.9598662,15.0160535 17.9036789,15.0441472 L13.5431438,17.3919732 L13.5210702,17.3919732 C13.5070234,17.4060201 13.4849498,17.4140468 13.4568562,17.4140468 C13.4287625,17.4140468 13.406689,17.4060201 13.3926421,17.3919732 L13.3725753,17.3919732 L9.01204013,15.0441472 C8.95585284,15.0160535 8.9277592,14.967893 8.9277592,14.8976589 L8.9277592,9.84280936 C8.9277592,9.82876254 8.93578595,9.81471572 8.94983278,9.8006689 L8.94983278,9.77859532 L8.99197324,9.73645485 L9.01404682,9.71438127 L13.3745819,7.36655518 C13.4307692,7.35250836 13.4869565,7.35250836 13.5431438,7.36655518 L17.9036789,9.71438127 L17.9257525,9.73645485 L17.967893,9.77859532 L17.967893,9.8006689 L17.9879599,9.84280936 L17.9879599,14.8976589 Z M9.26488294,14.793311 L13.290301,16.9745819 L13.290301,12.3190635 L9.26488294,10.1377926 L9.26488294,14.793311 Z M9.45351171,9.86488294 L13.4568562,12.0240803 L17.4602007,9.86488294 L13.4588629,7.70568562 L9.45351171,9.86488294 Z" id="Shape"></path>
            </g>
            <g id="组件-(1)" transform="translate(10.000000, 106.000000)" fill="#9BE8EF" fill-rule="nonzero">
                <path d="M0.25,0 L11,0 C11.1377778,0 11.25,0.111111113 11.25,0.25 L11.25,4.5 C11.25,4.63777777 11.1388889,4.75 11,4.75 L0.25,4.75 C0.111928813,4.75 1.69088438e-17,4.63807119 0,4.5 L0,0.25 C0,0.112222227 0.111111113,0 0.25,0 Z M0.25,6.75 L11,6.75 C11.1377778,6.75 11.25,6.86111111 11.25,7 L11.25,11.25 C11.25,11.3877778 11.1388889,11.5 11,11.5 L0.25,11.5 C0.111928813,11.5 1.69088438e-17,11.3880712 0,11.25 L0,7 C0,6.86222223 0.111111113,6.75 0.25,6.75 Z M13.5,-4.52832216e-14 L19.75,-4.52832216e-14 C19.8877778,-4.52832216e-14 20,0.111111113 20,0.25 L20,11.25 C20,11.3877778 19.8888889,11.5 19.75,11.5 L13.5,11.5 C13.3619288,11.5 13.25,11.3880712 13.25,11.25 L13.25,0.25 C13.25,0.112222227 13.3611111,-4.61852778e-14 13.5,-4.52832216e-14 Z M0.25,13.5 L19.75,13.5 C19.8877778,13.5 20,13.6111111 20,13.75 L20,19.75 C20,19.8877778 19.8888889,20 19.75,20 L0.25,20 C0.111928813,20 1.69088438e-17,19.8880712 0,19.75 L0,13.75 C0,13.6122222 0.111111113,13.5 0.25,13.5 Z" id="Shape"></path>
            </g>
            <rect id="Rectangle-4-Copy-37" fill-opacity="0.6" fill="#FFFFFF" fill-rule="nonzero" x="50" y="96" width="40" height="40" rx="5"></rect>
            <g id="组件列表" transform="translate(111.000000, 107.000000)" fill="#E2E2E2" fill-rule="nonzero">
                <path d="M0.0173493976,4.5086747 L4.51301205,4.5086747 L4.51301205,0.0130120482 L0.0173493976,0.0130120482 L0.0173493976,4.5086747 Z M6.76192771,17.993494 L11.2575904,17.993494 L11.2575904,13.4978313 L6.76192771,13.4978313 L6.76192771,17.993494 Z M0.0173493976,17.993494 L4.51301205,17.993494 L4.51301205,13.4978313 L0.0173493976,13.4978313 L0.0173493976,17.993494 Z M0.0173493976,11.2510843 L4.51301205,11.2510843 L4.51301205,6.75542169 L0.0173493976,6.75542169 L0.0173493976,11.2510843 Z M6.76192771,11.2510843 L11.2575904,11.2510843 L11.2575904,6.75542169 L6.76192771,6.75542169 L6.76192771,11.2510843 Z M13.5043373,0.0130120482 L13.5043373,4.5086747 L18,4.5086747 L18,0.0130120482 L13.5043373,0.0130120482 Z M6.76192771,4.5086747 L11.2575904,4.5086747 L11.2575904,0.0130120482 L6.76192771,0.0130120482 L6.76192771,4.5086747 Z M13.5043373,11.2510843 L18,11.2510843 L18,6.75542169 L13.5043373,6.75542169 L13.5043373,11.2510843 Z M13.5043373,17.993494 L18,17.993494 L18,13.4978313 L13.5043373,13.4978313 L13.5043373,17.993494 Z" id="Shape"></path>
            </g>
        </g>
    </g>
</svg>