<?xml version="1.0" encoding="utf-8"?>
<!-- Generator: Adobe Illustrator 17.0.0, SVG Export Plug-In . SVG Version: 6.00 Build 0)  -->
<!DOCTYPE svg PUBLIC "-//W3C//DTD SVG 1.1//EN" "http://www.w3.org/Graphics/SVG/1.1/DTD/svg11.dtd">
<svg version="1.1" id="图层_1" xmlns="http://www.w3.org/2000/svg" xmlns:xlink="http://www.w3.org/1999/xlink" x="0px" y="0px"
	 width="307.286px" height="182.179px" viewBox="0 0 307.286 182.179" enable-background="new 0 0 307.286 182.179"
	 xml:space="preserve">
<g>
	<g>
		<rect x="14.993" y="44.457" fill="#B3EFF2" width="93.139" height="93.139"/>
	</g>
	<g>
		<rect x="199.427" y="44.457" fill="#B2C9F7" width="93.139" height="93.139"/>
	</g>
	<g>
		<polygon fill="#6694EF" points="15.941,91.158 12.941,91.158 12.941,12.954 146.677,12.954 146.677,15.954 15.941,15.954 		"/>
	</g>
	<g>
		<polygon fill="#6694EF" points="294.345,169.098 167.572,169.098 167.572,166.098 291.345,166.098 291.345,90.894 294.345,90.894 
					"/>
	</g>
	<g>
		<g>
			<circle fill="#6694EF" cx="174.092" cy="167.598" r="7.52"/>
		</g>
	</g>
	<g>
		<g>
			<circle fill="#6694EF" cx="140.157" cy="14.454" r="7.52"/>
		</g>
	</g>
	<g>
		<polygon fill="#6694EF" points="294.08,71.156 291.08,71.156 291.08,15.824 167.574,15.954 167.571,12.954 294.08,12.82 		"/>
	</g>
	<g>
		<polygon fill="#6694EF" points="146.677,169.098 13.493,169.098 13.493,110.765 16.493,110.765 16.493,166.098 146.677,166.098 		
			"/>
	</g>
	<g>
		<g>
			<g>
				<polygon fill="#6694EF" points="137.335,177.829 154.605,167.857 137.335,157.884 				"/>
			</g>
		</g>
	</g>
	<g>
		<g>
			<g>
				<polygon fill="#6694EF" points="176.208,4.349 158.937,14.322 176.208,24.295 				"/>
			</g>
		</g>
	</g>
	<g>
		<polygon fill="#6694EF" points="109.631,139.095 14.441,139.095 14.441,136.095 106.631,136.095 106.631,95.895 109.631,95.895 		
			"/>
	</g>
	<g>
		<polygon fill="#6694EF" points="200.651,86.157 197.651,86.157 197.651,42.957 292.841,42.957 292.841,45.957 200.651,45.957 		
			"/>
	</g>
	<g>
		<polygon fill="#6694EF" points="109.631,81.025 106.631,81.025 106.631,45.957 14.993,45.957 14.993,42.957 109.631,42.957 		"/>
	</g>
	<g>
		<polygon fill="#6694EF" points="292.566,139.095 197.927,139.095 197.927,101.027 200.927,101.027 200.927,136.095 
			292.566,136.095 		"/>
	</g>
	<g opacity="0.7">
		<path fill="#FFFFFF" d="M56.579,81.889c0,2.842-2.304,5.146-5.146,5.146H37.431c-2.842,0-5.146-2.304-5.146-5.146V67.886
			c0-2.842,2.304-5.146,5.146-5.146h14.002c2.842,0,5.146,2.304,5.146,5.146V81.889z"/>
	</g>
	<g>
		<path fill="#6694EF" d="M56.579,113.902c0,2.842-2.304,5.146-5.146,5.146H37.431c-2.842,0-5.146-2.304-5.146-5.146V99.9
			c0-2.842,2.304-5.146,5.146-5.146h14.002c2.842,0,5.146,2.304,5.146,5.146V113.902z"/>
	</g>
	<g>
		<rect x="64.477" y="62.741" fill="#34D2DF" width="24.294" height="24.294"/>
	</g>
	<g>
		<path fill="#3670E3" d="M88.741,110.581c0,4.659-3.777,8.436-8.436,8.436h-7.36c-4.659,0-8.436-3.777-8.436-8.436v-7.36
			c0-4.659,3.777-8.436,8.436-8.436h7.36c4.659,0,8.436,3.777,8.436,8.436V110.581z"/>
	</g>
	<g>
		<rect x="217.406" y="62.041" fill="#71DFE9" width="18.71" height="19.236"/>
	</g>
	<g>
		<rect x="255.877" y="62.041" fill="#D2E0F9" width="18.71" height="19.236"/>
	</g>
	<g>
		<rect x="236.116" y="62.041" fill="#71DFE9" width="19.761" height="19.236"/>
	</g>
	<g>
		<rect x="236.116" y="62.041" fill="#C6F2F6" width="19.761" height="19.236"/>
	</g>
	<g>
		<rect x="217.406" y="100.512" fill="#2B82FC" width="18.71" height="19.236"/>
	</g>
	<g>
		<rect x="217.406" y="81.277" fill="#71DFE9" width="18.71" height="19.236"/>
	</g>
	<g>
		<rect x="217.406" y="81.277" fill="#2EC3FB" width="18.71" height="19.236"/>
	</g>
	<g>
		<rect x="255.877" y="100.512" fill="#41BEF6" width="18.71" height="19.236"/>
	</g>
	<g opacity="0.6">
		<rect x="255.877" y="81.277" fill="#FFFFFF" width="18.71" height="19.236"/>
	</g>
	<g>
		<rect x="255.877" y="81.277" fill="#ACE5FC" width="18.71" height="19.236"/>
	</g>
	<g>
		<rect x="236.116" y="100.512" fill="#3670E3" width="19.761" height="19.236"/>
	</g>
	<g>
		<rect x="236.116" y="100.512" fill="#1BB3FE" width="19.761" height="19.236"/>
	</g>
	<g>
		<rect x="236.116" y="81.277" fill="#71DFE9" width="19.761" height="19.236"/>
	</g>
	<g opacity="0.6">
		<rect x="236.116" y="81.277" fill="#FFFFFF" width="19.761" height="19.236"/>
	</g>
	<g>
		<rect x="236.116" y="81.277" fill="#3670E3" width="19.761" height="19.236"/>
	</g>
	<g>
		<rect x="236.116" y="81.277" fill="#35E5FF" width="19.761" height="19.236"/>
	</g>
	<g>
		<g>
			<polygon fill="#6694EF" points="302.818,99.793 292.845,82.522 282.872,99.793 			"/>
		</g>
	</g>
	<g>
		<g>
			<polygon fill="#6694EF" points="118.104,103.42 108.132,86.15 98.159,103.42 			"/>
		</g>
	</g>
	<g>
		<g>
			<polygon fill="#6694EF" points="4.468,82.522 14.441,99.793 24.414,82.522 			"/>
		</g>
	</g>
	<g>
		<g>
			<polygon fill="#6694EF" points="189.178,77.515 199.151,94.785 209.124,77.515 			"/>
		</g>
	</g>
</g>
<g>
</g>
<g>
</g>
<g>
</g>
<g>
</g>
<g>
</g>
<g>
</g>
</svg>
