<?xml version="1.0" encoding="utf-8"?>
<!-- Generator: Adobe Illustrator 17.0.0, SVG Export Plug-In . SVG Version: 6.00 Build 0)  -->
<!DOCTYPE svg PUBLIC "-//W3C//DTD SVG 1.1//EN" "http://www.w3.org/Graphics/SVG/1.1/DTD/svg11.dtd">
<svg version="1.1" id="图层_1" xmlns="http://www.w3.org/2000/svg" xmlns:xlink="http://www.w3.org/1999/xlink" x="0px" y="0px"
	 width="220px" height="220px" viewBox="0 0 220 220" enable-background="new 0 0 220 220" xml:space="preserve">
<g>
	<circle fill="#1CAFE8" cx="110" cy="110" r="110"/>
	<g>
		<g>
			<polygon fill="#FFFFFF" points="110.807,127.213 70.712,87.117 49.289,108.54 39.39,98.639 70.712,67.318 110.807,107.414 
				145.489,72.732 155.389,82.633 			"/>
		</g>
		<g>
			<circle fill="#1CAFE8" cx="150.439" cy="77.218" r="15.972"/>
			<path fill="#FFFFFF" d="M150.439,100.19c-12.667,0-22.972-10.306-22.972-22.973s10.305-22.973,22.972-22.973
				s22.973,10.306,22.973,22.973S163.106,100.19,150.439,100.19z M150.439,68.245c-4.947,0-8.972,4.025-8.972,8.973
				s4.025,8.973,8.972,8.973c4.948,0,8.973-4.025,8.973-8.973S155.387,68.245,150.439,68.245z"/>
		</g>
		<g>
			<g>
				<rect x="64.434" y="108.321" fill="#FFFFFF" width="14" height="51.076"/>
			</g>
		</g>
		<g>
			<g>
				<rect x="104.436" y="137.217" fill="#FFFFFF" width="14" height="22.179"/>
			</g>
		</g>
		<g>
			<g>
				<rect x="143.439" y="106.472" fill="#FFFFFF" width="14" height="52.924"/>
			</g>
		</g>
	</g>
</g>
<g>
</g>
<g>
</g>
<g>
</g>
<g>
</g>
<g>
</g>
<g>
</g>
</svg>
