<?xml version="1.0" encoding="utf-8"?>
<!-- Generator: Adobe Illustrator 17.0.0, SVG Export Plug-In . SVG Version: 6.00 Build 0)  -->
<!DOCTYPE svg PUBLIC "-//W3C//DTD SVG 1.1//EN" "http://www.w3.org/Graphics/SVG/1.1/DTD/svg11.dtd">
<svg version="1.1" id="图层_1" xmlns="http://www.w3.org/2000/svg" xmlns:xlink="http://www.w3.org/1999/xlink" x="0px" y="0px"
	 width="220px" height="220px" viewBox="0 0 220 220" enable-background="new 0 0 220 220" xml:space="preserve">
<g>
	<circle fill="#3670E3" cx="110" cy="110" r="110"/>
	<g>
		<path fill="#FFFFFF" d="M161.275,104.991c0-26.173-20.764-47.578-46.683-48.632v14.05c18.175,1.04,32.644,16.151,32.644,34.582
			s-14.469,33.542-32.644,34.582v14.05C140.512,152.569,161.275,131.164,161.275,104.991z"/>
		<path fill="#FFFFFF" d="M74.948,104.991c0-18.431,14.469-33.542,32.644-34.582v-14.05c-25.919,1.054-46.683,22.459-46.683,48.632
			s20.764,47.578,46.683,48.632v-14.05C89.417,138.533,74.948,123.422,74.948,104.991z"/>
		<rect x="114.593" y="139.573" fill="#FFFFFF" width="46.683" height="14.05"/>
		<rect x="54.046" y="139.573" fill="#FFFFFF" width="53.546" height="14.05"/>
		<polygon fill="#FFFFFF" points="161.275,133.267 161.275,159.929 176.378,146.68 		"/>
	</g>
</g>
<g>
</g>
<g>
</g>
<g>
</g>
<g>
</g>
<g>
</g>
<g>
</g>
</svg>
