<?xml version="1.0" encoding="UTF-8"?>
<svg width="160px" height="112px" viewBox="0 0 160 112" version="1.1" xmlns="http://www.w3.org/2000/svg" xmlns:xlink="http://www.w3.org/1999/xlink">
    <!-- Generator: Sketch 47 (45396) - http://www.bohemiancoding.com/sketch -->
    <title>Group 3</title>
    <desc>Created with Sketch.</desc>
    <defs>
        <rect id="path-1" x="0" y="0" width="148" height="49" rx="5"></rect>
        <filter x="-6.8%" y="-16.3%" width="113.5%" height="140.8%" filterUnits="objectBoundingBox" id="filter-2">
            <feOffset dx="0" dy="2" in="SourceAlpha" result="shadowOffsetOuter1"></feOffset>
            <feGaussianBlur stdDeviation="3" in="shadowOffsetOuter1" result="shadowBlurOuter1"></feGaussianBlur>
            <feColorMatrix values="0 0 0 0 0   0 0 0 0 0   0 0 0 0 0  0 0 0 0.16 0" type="matrix" in="shadowBlurOuter1"></feColorMatrix>
        </filter>
    </defs>
    <g id="产品模块" stroke="none" stroke-width="1" fill="none" fill-rule="evenodd">
        <g id="产品模块-2" transform="translate(-512.000000, -492.000000)">
            <g id="Group-3" transform="translate(518.000000, 496.000000)">
                <g id="Rectangle-4">
                    <use fill="black" fill-opacity="1" filter="url(#filter-2)" xlink:href="#path-1"></use>
                    <use fill="#FFFFFF" fill-rule="evenodd" xlink:href="#path-1"></use>
                </g>
                <rect id="Rectangle-4-Copy" fill="#FFFFFF" x="0" y="59" width="148" height="49" rx="5"></rect>
                <path d="M5,0 L143,0 L143,0 C145.761424,-5.07265313e-16 148,2.23857625 148,5 L148,13 L0,13 L0,5 L0,5 C-3.38176876e-16,2.23857625 2.23857625,5.07265313e-16 5,0 Z" id="Rectangle-4" fill="#6694EF"></path>
                <path d="M5,59 L143,59 L143,59 C145.761424,59 148,61.2385763 148,64 L148,72 L0,72 L0,64 L0,64 C-3.38176876e-16,61.2385763 2.23857625,59 5,59 Z" id="Rectangle-4-Copy-2" fill="#9BE8EF"></path>
                <circle id="Oval-2" fill-opacity="0.4" fill="#4A4A4A" cx="15" cy="24" r="6"></circle>
                <circle id="Oval-2-Copy" fill-opacity="0.1" fill="#4A4A4A" cx="15" cy="83" r="6"></circle>
                <rect id="Rectangle-6" fill-opacity="0.4" fill="#4A4A4A" x="9" y="35" width="88" height="6" rx="3"></rect>
                <rect id="Rectangle-6-Copy" fill-opacity="0.1" fill="#4A4A4A" x="9" y="94" width="88" height="6" rx="3"></rect>
                <rect id="Rectangle-6-Copy-2" fill="#FAD352" x="28" y="18" width="26" height="12" rx="5"></rect>
                <rect id="Rectangle-6-Copy-3" fill-opacity="0.3" fill="#FAD352" x="28" y="77" width="26" height="12" rx="5"></rect>
            </g>
        </g>
    </g>
</svg>