<?xml version="1.0" encoding="UTF-8"?>
<svg width="154px" height="130px" viewBox="0 0 154 130" version="1.1" xmlns="http://www.w3.org/2000/svg" xmlns:xlink="http://www.w3.org/1999/xlink">
    <!-- Generator: Sketch 49.3 (51167) - http://www.bohemiancoding.com/sketch -->
    <title>development-2</title>
    <desc>Created with Sketch.</desc>
    <defs>
        <rect id="path-1" x="0" y="0" width="148" height="98" rx="5"></rect>
        <filter x="-3.7%" y="-3.6%" width="107.4%" height="111.2%" filterUnits="objectBoundingBox" id="filter-2">
            <feOffset dx="0" dy="2" in="SourceAlpha" result="shadowOffsetOuter1"></feOffset>
            <feGaussianBlur stdDeviation="1.5" in="shadowOffsetOuter1" result="shadowBlurOuter1"></feGaussianBlur>
            <feColorMatrix values="0 0 0 0 0.0792161481   0 0 0 0 0.0823091442   0 0 0 0 0.101589073  0 0 0 0.308423913 0" type="matrix" in="shadowBlurOuter1"></feColorMatrix>
        </filter>
    </defs>
    <g id="Page-1" stroke="none" stroke-width="1" fill="none" fill-rule="evenodd">
        <g id="development-2" transform="translate(3.000000, 1.000000)">
            <g id="Rectangle-4-Copy-3">
                <g id="path-1-link" fill-rule="nonzero">
                    <g id="path-1">
                        <use fill="black" fill-opacity="1" filter="url(#filter-2)" xlink:href="#path-1"></use>
                        <use fill="#FFFFFF" fill-rule="evenodd" xlink:href="#path-1"></use>
                    </g>
                </g>
                <g id="path-1-link" fill="#FFFFFF">
                    <rect id="path-1" x="0" y="0" width="148" height="98" rx="5"></rect>
                </g>
            </g>
            <rect id="Rectangle-4-Copy-4" fill-opacity="0.8" fill="#FFFFFF" fill-rule="nonzero" x="0" y="108" width="148" height="21" rx="5"></rect>
            <rect id="Rectangle-6-Copy-4" fill-opacity="0.1" fill="#4A4A4A" fill-rule="nonzero" x="11" y="116" width="26" height="6" rx="3"></rect>
            <path d="M108.261616,22.4001947 L84.6899408,22.4001947 C83.3511456,18.3807028 79.7983545,11.4615996 71.1443818,11.0858088 L39.7383837,11.0858088 C36.5824891,11.0858088 34.0271473,13.6171211 34.0271473,16.7430475 L34.0271473,76.1498096 C34.0271473,79.275736 36.5824891,81.8070483 39.7383837,81.8070484 L108.261616,81.8070484 C111.414587,81.8070484 113.972944,79.2757361 113.972944,76.1498096 L113.972944,28.0604486 C113.972853,24.9346136 111.414496,22.4001948 108.261616,22.4001947 Z M44.4472689,15.0858088 L65.9703584,15.0858088 C75.9097457,15.846938 77.687971,19.5124498 78.5889399,22.6176671 L38.3001762,22.6176671 C38.3001762,18.4559677 41.0519832,15.0858086 44.4472689,15.0858088 Z M104.119299,77.471126 L43.8775257,77.471126 C40.5513875,77.471126 37.8555268,74.8007116 37.8555268,71.4998269 L37.8555268,26.7391322 L104.119299,26.7391322 C107.448618,26.7391322 110.144382,29.409643 110.144382,32.7072505 L110.144382,71.4998269 C110.144382,74.8007116 107.448618,77.471126 104.119299,77.471126 Z" id="Shape" fill="#E5E5E5" fill-rule="nonzero"></path>
            <g id="Group-3" transform="translate(44.000000, 32.000000)" fill-rule="nonzero">
                <path d="M8.5925926,0 L1.07407406,0 C0.483333333,0 0,0.5 0,1.11111111 L0,8.8888889 C0,9.5 0.483333333,10 1.07407406,10 L8.5925926,10 C9.18333333,10 9.66666667,9.5 9.66666667,8.8888889 L9.66666667,1.11111111 C9.66666667,0.5 9.18333333,0 8.5925926,0 Z M6.44444443,4.16666665 C6.44444443,4.6277778 6.08462964,5 5.63888891,5 C6.08462964,5 6.44444443,5.3722222 6.44444443,5.83333335 L6.44444443,6.66666665 C6.44444443,7.28333335 5.9611111,7.7777778 5.37037037,7.7777778 L3.22222224,7.7777778 L3.22222224,6.66666665 L5.37037037,6.66666665 L5.37037037,5.55555555 L4.2962963,5.55555555 L4.2962963,4.44444445 L5.37037037,4.44444445 L5.37037037,3.33333335 L3.22222224,3.33333335 L3.22222224,2.2222222 L5.37037037,2.2222222 C5.9611111,2.2222222 6.44444443,2.71666665 6.44444443,3.33333335 L6.44444443,4.16666665 Z" id="Fill-401" fill="#6694EF"></path>
                <rect id="Rectangle-2-Copy-20" fill="#E2E2E2" x="17.1851852" y="6.66666667" width="40.6442122" height="3.06666666" rx="1.53333333"></rect>
                <rect id="Rectangle-2-Copy-22" fill="#E2E2E2" x="17.1851852" y="1.11111111" width="16.1111111" height="3.06666666" rx="1.53333333"></rect>
            </g>
            <g id="Group-2" transform="translate(44.000000, 63.000000)" fill-rule="nonzero">
                <path d="M8.57142858,0 L1.07142856,0 C0.482142857,0 0,0.5 0,1.1111111 L0,8.888889 C0,9.5 0.482142857,10 1.07142856,10 L8.57142858,10 C9.16071429,10 9.64285714,9.5 9.64285714,8.888889 L9.64285714,1.1111111 C9.64285714,0.5 9.16071429,0 8.57142858,0 Z M5.89285713,7.777778 L4.82142857,7.777778 L4.82142857,3.33333335 L3.75000001,3.33333335 L3.75000001,2.2222222 L5.89285713,2.2222222 L5.89285713,7.777778 Z" id="Fill-406" fill="#F8F1A1"></path>
                <rect id="Rectangle-2-Copy-35" fill="#E2E2E2" x="17.1428571" y="6.66666667" width="42.1207093" height="3" rx="1.5"></rect>
                <rect id="Rectangle-2-Copy-38" fill="#E2E2E2" x="17.1428571" y="0" width="16.0714286" height="3.33333333" rx="1.66666667"></rect>
            </g>
            <g id="Group" transform="translate(44.000000, 48.000000)" fill-rule="nonzero">
                <path d="M8.58181819,0 L1.07272726,0 C0.482727273,0 0,0.5 0,1.1111111 L0,8.8888889 C0,9.5 0.482727273,10 1.07272726,10 L8.58181819,10 C9.17181818,10 9.65454545,9.5 9.65454545,8.8888889 L9.65454545,1.1111111 C9.65454545,0.5 9.17181818,0 8.58181819,0 Z M6.43636362,4.44444445 C6.43636362,5.0611111 5.95363635,5.55555555 5.36363636,5.55555555 L4.2909091,5.55555555 L4.2909091,6.66666665 L6.43636362,6.66666665 L6.43636362,7.7777778 L3.21818183,7.7777778 L3.21818183,5.55555555 C3.21818183,4.9388889 3.70090911,4.44444445 4.2909091,4.44444445 L5.36363636,4.44444445 L5.36363636,3.33333335 L3.21818183,3.33333335 L3.21818183,2.2222222 L5.36363636,2.2222222 C5.95363635,2.2222222 6.43636362,2.71666665 6.43636362,3.33333335 L6.43636362,4.44444445 Z" id="Fill-407" fill="#9BE8EF"></path>
                <rect id="Rectangle-2-Copy-20" fill="#E2E2E2" x="17.1636364" y="6.66666667" width="40.7700006" height="3.06158795" rx="1.53079398"></rect>
                <rect id="Rectangle-2-Copy-22" fill="#E2E2E2" x="17.1636364" y="1.11111111" width="15.0181818" height="3.06666666" rx="1.53333333"></rect>
            </g>
        </g>
    </g>
</svg>