<?xml version="1.0" encoding="UTF-8"?>
<svg width="148px" height="120px" viewBox="0 0 148 120" version="1.1" xmlns="http://www.w3.org/2000/svg" xmlns:xlink="http://www.w3.org/1999/xlink">
    <!-- Generator: Sketch 47 (45396) - http://www.bohemiancoding.com/sketch -->
    <title>Group 2</title>
    <desc>Created with Sketch.</desc>
    <defs>
        <rect id="path-1" x="11" y="23" width="82" height="36" rx="5"></rect>
        <filter x="-12.2%" y="-22.2%" width="124.4%" height="155.6%" filterUnits="objectBoundingBox" id="filter-2">
            <feOffset dx="0" dy="2" in="SourceAlpha" result="shadowOffsetOuter1"></feOffset>
            <feGaussianBlur stdDeviation="3" in="shadowOffsetOuter1" result="shadowBlurOuter1"></feGaussianBlur>
            <feColorMatrix values="0 0 0 0 0   0 0 0 0 0   0 0 0 0 0  0 0 0 0.16 0" type="matrix" in="shadowBlurOuter1"></feColorMatrix>
        </filter>
    </defs>
    <g id="产品模块" stroke="none" stroke-width="1" fill="none" fill-rule="evenodd">
        <g id="产品模块-2" transform="translate(-263.000000, -491.000000)">
            <g id="Group-2" transform="translate(263.000000, 491.000000)">
                <rect id="Rectangle-4-Copy-11" fill="#FFFFFF" x="0" y="0" width="148" height="120" rx="5"></rect>
                <path d="M6.5,11.5 L142,11.5" id="Line-2" stroke="#9B9B9B" stroke-linecap="square"></path>
                <path d="M102.5,6 L102.5,114" id="Line-3" stroke="#9B9B9B" stroke-linecap="square"></path>
                <g id="Rectangle">
                    <use fill="black" fill-opacity="1" filter="url(#filter-2)" xlink:href="#path-1"></use>
                    <use fill="#6694EF" fill-rule="evenodd" xlink:href="#path-1"></use>
                </g>
                <rect id="Rectangle-Copy" fill-opacity="0.8" fill="#F6ED8A" x="11" y="69" width="82" height="36" rx="5"></rect>
                <rect id="Rectangle-2" fill="#FFFFFF" x="19" y="33" width="38" height="6" rx="3"></rect>
                <rect id="Rectangle-2-Copy-2" fill-opacity="0.5" fill="#FFFFFF" x="19" y="79" width="38" height="6" rx="3"></rect>
                <rect id="Rectangle-2-Copy" fill="#FFFFFF" x="19" y="44" width="67" height="6" rx="3"></rect>
                <rect id="Rectangle-2-Copy-3" fill-opacity="0.5" fill="#FFFFFF" x="19" y="90" width="67" height="6" rx="3"></rect>
                <path d="M117,23 L140,23 L140,59 L117,59 L117,59 C114.238576,59 112,56.7614237 112,54 L112,28 L112,28 C112,25.2385763 114.238576,23 117,23 Z" id="Rectangle-Copy-2" fill-opacity="0.1" fill="#9B9B9B"></path>
                <path d="M117,69 L140,69 L140,105 L117,105 L117,105 C114.238576,105 112,102.761424 112,100 L112,74 L112,74 C112,71.2385763 114.238576,69 117,69 Z" id="Rectangle-Copy-3" fill-opacity="0.1" fill="#9B9B9B"></path>
            </g>
        </g>
    </g>
</svg>