<?xml version="1.0" encoding="UTF-8"?>
<svg width="148px" height="120px" viewBox="0 0 148 120" version="1.1" xmlns="http://www.w3.org/2000/svg" xmlns:xlink="http://www.w3.org/1999/xlink">
    <!-- Generator: Sketch 49.3 (51167) - http://www.bohemiancoding.com/sketch -->
    <title>scrum 报表分析 1</title>
    <desc>Created with Sketch.</desc>
    <defs></defs>
    <g id="Page-1" stroke="none" stroke-width="1" fill="none" fill-rule="evenodd">
        <g id="scrum-报表分析-1">
            <rect id="Rectangle-4-Copy-5" fill="#FFFFFF" fill-rule="nonzero" x="0" y="0" width="148" height="120" rx="5"></rect>
            <g id="Group-8" transform="translate(9.000000, 24.000000)">
                <g id="Group-6" transform="translate(0.000000, 53.000000)" fill-rule="nonzero">
                    <rect id="Rectangle-4" fill="#E2E2E2" x="0" y="0" width="56.5217391" height="6" rx="3"></rect>
                    <rect id="Rectangle-4" fill="#E2E2E2" x="63.5869565" y="0" width="28.2608696" height="6" rx="3"></rect>
                    <rect id="Rectangle-4" fill="#B7B7B7" x="98.9130435" y="0" width="31.0869565" height="6" rx="3"></rect>
                </g>
                <g id="Group-6" transform="translate(0.000000, 65.000000)" fill-rule="nonzero">
                    <rect id="Rectangle-4" fill="#E2E2E2" x="0" y="0" width="56.5217391" height="6" rx="3"></rect>
                    <rect id="Rectangle-4" fill="#B7B7B7" x="63.5869565" y="0" width="28.2608696" height="6" rx="3"></rect>
                    <rect id="Rectangle-4" fill="#E2E2E2" x="98.9130435" y="0" width="31.0869565" height="6" rx="3"></rect>
                </g>
                <g id="Group-2" transform="translate(1.121622, 0.500000)">
                    <path d="M0.390832187,38.2507696 L76.34898,38.2507696" id="Line" stroke="#EDEDED" stroke-linecap="square"></path>
                    <path d="M0.32248037,28.7791505 L76.2806282,28.7791505" id="Line" stroke="#EDEDED" stroke-linecap="square"></path>
                    <path d="M0.32248037,19.3075314 L76.2806282,19.3075314" id="Line" stroke="#EDEDED" stroke-linecap="square"></path>
                    <path d="M0.32248037,9.83591219 L76.2806282,9.83591219" id="Line" stroke="#EDEDED" stroke-linecap="square"></path>
                    <path d="M0.32248037,0.364293044 L76.2806282,0.364293044" id="Line" stroke="#EDEDED" stroke-linecap="square"></path>
                    <rect id="Rectangle-2" fill="#E4E4E4" fill-rule="nonzero" x="7.56756757" y="19.4594595" width="5.40540541" height="19.2013489" rx="1"></rect>
                    <rect id="Rectangle-2-Copy-2" fill="#E4E4E4" fill-rule="nonzero" x="32.4324324" y="15.1351351" width="5.40540541" height="23.5256732" rx="1"></rect>
                    <rect id="Rectangle-2-Copy-4" fill="#E4E4E4" fill-rule="nonzero" x="56.2162162" y="16.0752977" width="5.40540541" height="22.679895" rx="1"></rect>
                    <rect id="Rectangle-2-Copy" fill="#4F9BFF" fill-rule="nonzero" x="14.0540541" y="10.8108108" width="5.40540541" height="27.9443819" rx="1"></rect>
                    <rect id="Rectangle-2-Copy-3" fill="#F8F1A1" fill-rule="nonzero" x="38.9189189" y="4.32432432" width="5.40540541" height="34.4308684" rx="1"></rect>
                    <rect id="Rectangle-2-Copy-5" fill="#9BE8EF" fill-rule="nonzero" x="62.7027027" y="10.8108108" width="5.40540541" height="27.9443819" rx="1"></rect>
                </g>
            </g>
        </g>
    </g>
</svg>