<?xml version="1.0" encoding="UTF-8"?>
<svg width="154px" height="104px" viewBox="0 0 154 104" version="1.1" xmlns="http://www.w3.org/2000/svg" xmlns:xlink="http://www.w3.org/1999/xlink">
    <!-- Generator: Sketch 49.3 (51167) - http://www.bohemiancoding.com/sketch -->
    <title>operation-illustrator-3</title>
    <desc>Created with Sketch.</desc>
    <defs>
        <rect id="path-1" x="0" y="0" width="148" height="98" rx="5"></rect>
        <filter x="-3.7%" y="-3.6%" width="107.4%" height="111.2%" filterUnits="objectBoundingBox" id="filter-2">
            <feOffset dx="0" dy="2" in="SourceAlpha" result="shadowOffsetOuter1"></feOffset>
            <feGaussianBlur stdDeviation="1.5" in="shadowOffsetOuter1" result="shadowBlurOuter1"></feGaussianBlur>
            <feColorMatrix values="0 0 0 0 0.0792161481   0 0 0 0 0.0823091442   0 0 0 0 0.101589073  0 0 0 0.308423913 0" type="matrix" in="shadowBlurOuter1"></feColorMatrix>
        </filter>
        <polygon id="path-3" points="0 0 20 0 20 20 0 20"></polygon>
    </defs>
    <g id="Page-1" stroke="none" stroke-width="1" fill="none" fill-rule="evenodd">
        <g id="operation-illustrator-3" transform="translate(3.000000, 1.000000)">
            <g id="Rectangle-4-Copy-22">
                <g id="path-1-link" fill-rule="nonzero">
                    <g id="path-1">
                        <use fill="black" fill-opacity="1" filter="url(#filter-2)" xlink:href="#path-1"></use>
                        <use fill="#FFFFFF" fill-rule="evenodd" xlink:href="#path-1"></use>
                    </g>
                </g>
                <g id="path-1-link" fill="#FFFFFF">
                    <rect id="path-1" x="0" y="0" width="148" height="98" rx="5"></rect>
                </g>
            </g>
            <path d="M5,0 L143,0 C145.761424,-5.07265313e-16 148,2.23857625 148,5 L148,11 L0,11 L0,5 C-3.38176876e-16,2.23857625 2.23857625,5.07265313e-16 5,0 Z" id="Rectangle-4-Copy-23" fill="#B7B7B7" fill-rule="nonzero"></path>
            <rect id="Rectangle-2-Copy-19" fill="#6694EF" fill-rule="nonzero" x="16" y="29" width="57" height="6" rx="3"></rect>
            <rect id="Rectangle-2-Copy-20" fill="#9BE8EF" fill-rule="nonzero" x="16" y="51" width="57" height="6" rx="3"></rect>
            <rect id="Rectangle-2-Copy-21" fill="#E2E2E2" fill-rule="nonzero" x="16" y="75" width="100" height="6" rx="3"></rect>
            <rect id="Rectangle-2-Copy-22" fill="#B7B7B7" fill-rule="nonzero" x="16" y="40" width="21" height="6" rx="3"></rect>
            <rect id="Rectangle-2-Copy-23" fill="#B7B7B7" fill-rule="nonzero" x="42" y="40" width="60" height="6" rx="3"></rect>
            <rect id="Rectangle-2-Copy-24" fill="#F8F1A1" fill-rule="nonzero" x="16" y="62" width="39" height="6" rx="3"></rect>
            <rect id="Rectangle-2-Copy-25" fill="#E2E2E2" fill-rule="nonzero" x="60" y="62" width="48" height="6" rx="3"></rect>
            <g id="Page-1" transform="translate(112.000000, 53.000000)">
                <mask id="mask-4" fill="white">
                    <use xlink:href="#path-3"></use>
                </mask>
                <g id="Clip-2"></g>
                <path d="M0,20 L1.17003763,15.3116525 L4.68779398,18.8311469 L0,20 Z M16.1200611,0.364678646 C16.6068909,-0.121559549 17.3935795,-0.121559549 17.8786453,0.364678646 L19.6366416,2.12383787 C20.1211195,2.60948811 20.1211195,3.3967589 19.6366416,3.88240914 L16.9996472,6.51938412 L13.4836548,3.00282953 L16.1200611,0.364678646 Z M2.05726717,14.4326609 L12.6046566,3.88182119 L16.1206491,7.39896373 L5.57325964,17.9509793 L2.05726717,14.4326609 Z" id="Fill-1" fill="#6694EF" mask="url(#mask-4)"></path>
            </g>
        </g>
    </g>
</svg>