<?xml version="1.0" encoding="UTF-8"?>
<svg width="60px" height="60px" viewBox="0 0 60 60" version="1.1" xmlns="http://www.w3.org/2000/svg" xmlns:xlink="http://www.w3.org/1999/xlink">
    <!-- Generator: Sketch 47 (45396) - http://www.bohemiancoding.com/sketch -->
    <title>knowledge-icon</title>
    <desc>Created with Sketch.</desc>
    <defs>
        <polygon id="path-1" points="0 60 60 60 60 0 0 0"></polygon>
    </defs>
    <g id="产品模块" stroke="none" stroke-width="1" fill="none" fill-rule="evenodd">
        <g transform="translate(-220.000000, -244.000000)" id="knowledge-icon">
            <g transform="translate(220.000000, 244.000000)">
                <path d="M60,30 C60,46.5684545 46.5684545,60 30,60 C13.4315455,60 0,46.5684545 0,30 C0,13.4315455 13.4315455,0 30,0 C46.5684545,0 60,13.4315455 60,30" id="Fill-1" fill="#0EC5F0"></path>
                <g id="Page-1">
                    <path d="M30.1703727,21.5899364 C25.2168273,21.5899364 21.1870091,25.6197545 21.1870091,30.5733 C21.1870091,34.2668455 23.5030091,37.6385727 26.9500091,38.9626636 L27.9994636,39.3660273 L27.9994636,45.6682091 L32.3917364,45.6570273 L32.3917364,39.3526636 L33.4332818,38.9463 C36.9083727,37.5905727 39.1534636,34.3042091 39.1534636,30.5733 C39.1534636,25.6197545 35.1236455,21.5899364 30.1703727,21.5899364 L30.1703727,21.5899364 Z M24.7267364,48.9493909 L24.7267364,41.5560273 C20.6096455,39.5062091 17.9142818,35.2273909 17.9142818,30.5733 C17.9142818,23.8153909 23.4124636,18.3172091 30.1703727,18.3172091 C36.9282818,18.3172091 42.4261909,23.8153909 42.4261909,30.5733 C42.4261909,35.2792091 39.8069182,39.4674818 35.6644636,41.5336636 L35.6644636,48.9213 L24.7267364,48.9493909 Z" id="Fill-3" fill="#FFFFFF"></path>
                    <mask id="mask-2" fill="white">
                        <use xlink:href="#path-1"></use>
                    </mask>
                    <g id="Clip-6"></g>
                    <polygon id="Fill-5" fill="#FFFFFF" mask="url(#mask-2)" points="28.2613636 15.4420909 32.0795455 15.4420909 32.0795455 9.39327273 28.2613636 9.39327273"></polygon>
                    <polygon id="Fill-7" fill="#FFFFFF" mask="url(#mask-2)" points="20.8778727 18.3591818 18.1781455 21.0591818 13.9009636 16.782 16.6006909 14.082"></polygon>
                    <polygon id="Fill-8" fill="#FFFFFF" mask="url(#mask-2)" points="8.97109091 32.1608182 15.0199091 32.1608182 15.0199091 28.3426364 8.97109091 28.3426364"></polygon>
                    <polygon id="Fill-9" fill="#FFFFFF" mask="url(#mask-2)" points="44.9800909 32.5014545 51.0289091 32.5014545 51.0289091 28.6832727 44.9800909 28.6832727"></polygon>
                    <polygon id="Fill-10" fill="#FFFFFF" mask="url(#mask-2)" points="25.0791818 32.5014545 35.2614545 32.5014545 35.2614545 28.6832727 25.0791818 28.6832727"></polygon>
                    <polygon id="Fill-11" fill="#FFFFFF" mask="url(#mask-2)" points="28.2610909 36.0319091 32.0792727 36.0319091 32.0792727 28.6832727 28.2610909 28.6832727"></polygon>
                    <polygon id="Fill-12" fill="#FFFFFF" mask="url(#mask-2)" points="42.0628636 21.2999182 39.3631364 18.5999182 43.6400455 14.3230091 46.3400455 17.0227364"></polygon>
                </g>
            </g>
        </g>
    </g>
</svg>