<?xml version="1.0" encoding="UTF-8"?>
<svg width="154px" height="133px" viewBox="0 0 154 133" version="1.1" xmlns="http://www.w3.org/2000/svg" xmlns:xlink="http://www.w3.org/1999/xlink">
    <!-- Generator: Sketch 47 (45396) - http://www.bohemiancoding.com/sketch -->
    <title>knowledge-2</title>
    <desc>Created with Sketch.</desc>
    <defs>
        <rect id="path-1" x="108" y="0" width="40" height="40" rx="5"></rect>
        <filter x="-25.0%" y="-20.0%" width="150.0%" height="150.0%" filterUnits="objectBoundingBox" id="filter-2">
            <feOffset dx="0" dy="2" in="SourceAlpha" result="shadowOffsetOuter1"></feOffset>
            <feGaussianBlur stdDeviation="3" in="shadowOffsetOuter1" result="shadowBlurOuter1"></feGaussianBlur>
            <feColorMatrix values="0 0 0 0 0   0 0 0 0 0   0 0 0 0 0  0 0 0 0.16 0" type="matrix" in="shadowBlurOuter1"></feColorMatrix>
        </filter>
    </defs>
    <g id="产品模块" stroke="none" stroke-width="1" fill="none" fill-rule="evenodd">
        <g transform="translate(-516.000000, -468.000000)" id="knowledge-2">
            <g transform="translate(516.000000, 472.000000)">
                <rect id="Rectangle-4-Copy-3" fill="#FFFFFF" x="0" y="68" width="148" height="30" rx="5"></rect>
                <g id="Group-11-Copy" transform="translate(11.000000, 69.000000)">
                    <path d="M7.04497637,6.40066513 L15.1688967,3.36590379 L15.1688967,3.36590379 C15.6862618,3.17263756 16.2623423,3.43537157 16.4556085,3.95273663 C16.5454574,4.19325805 16.5393495,4.45912391 16.43855,4.69526548 L13.1003126,12.5157097 L13.1003126,12.5157097 C12.9991122,12.7527905 12.8102689,12.9416338 12.5731881,13.0428342 L4.75274388,16.3810716 L4.75274388,16.3810716 C4.24479994,16.5978928 3.65726177,16.3618911 3.44044065,15.8539472 C3.33964118,15.6178056 3.33353332,15.3519397 3.4233822,15.1114183 L6.45814353,6.98749797 L6.45814353,6.98749797 C6.55951915,6.71611999 6.77359839,6.50204075 7.04497637,6.40066513 Z" id="Rectangle-7" fill="#F9F5C2" transform="translate(9.939495, 9.882010) rotate(45.000000) translate(-9.939495, -9.882010) "></path>
                    <path d="M2.23522997,11.8365885 L10.9158275,11.8365885 L10.9158275,11.8365885 C11.4681123,11.8365885 11.9158275,12.2843038 11.9158275,12.8365885 C11.9158275,12.9634338 11.8916949,13.089121 11.8447168,13.2069462 L8.68615631,21.128889 L8.68615631,21.128889 C8.5345651,21.5090929 8.16657736,21.7585313 7.75726711,21.7585313 L-0.836714969,21.7585313 L-0.836714969,21.7585313 C-1.38899972,21.7585313 -1.83671497,21.310816 -1.83671497,20.7585313 C-1.83671497,20.6348703 -1.81377856,20.5122818 -1.76906949,20.3969859 L1.30287545,12.4750431 L1.30287545,12.4750431 C1.45210932,12.0901983 1.82246332,11.8365885 2.23522997,11.8365885 Z" id="Rectangle-7-Copy" fill="#EDE9B2" transform="translate(5.039556, 16.797560) rotate(90.000000) translate(-5.039556, -16.797560) "></path>
                    <path d="M11.7601938,11.9244413 L20.4360061,11.9244413 L20.4360061,11.9244413 C20.9882909,11.9244413 21.4360061,12.3721566 21.4360061,12.9244413 C21.4360061,13.0531093 21.4111751,13.1805682 21.362875,13.2998265 L18.2381955,21.015018 L18.2381955,21.015018 C18.0852881,21.392564 17.7186614,21.6396329 17.3113266,21.6396329 L8.72166437,21.6396329 L8.72166437,21.6396329 C8.16937962,21.6396329 7.72166437,21.1919176 7.72166437,20.6396329 C7.72166437,20.5142041 7.74526114,20.3898948 7.79122356,20.2731907 L10.8297529,12.5579991 L10.8297529,12.5579991 C10.9803046,12.1757303 11.3493468,11.9244413 11.7601938,11.9244413 Z" id="Rectangle-7-Copy-2" fill="#F8F1A1" transform="translate(14.578835, 16.782037) scale(-1, 1) rotate(90.000000) translate(-14.578835, -16.782037) "></path>
                </g>
                <rect id="Rectangle-2-Copy-20" fill="#E2E2E2" x="41" y="86" width="86" height="6" rx="3"></rect>
                <rect id="Rectangle-2-Copy-22" fill="#E2E2E2" x="41" y="75" width="32" height="6" rx="3"></rect>
                <g id="Rectangle-4-Copy-17">
                    <use fill="black" fill-opacity="1" filter="url(#filter-2)" xlink:href="#path-1"></use>
                    <use fill="#FFFFFF" fill-rule="evenodd" xlink:href="#path-1"></use>
                </g>
                <rect id="Rectangle-4-Copy-39" fill="#FFFFFF" x="54" y="0" width="40" height="40" rx="5"></rect>
                <path d="M70.208,18.8 L67.8053333,18.8 L67.8053333,21.2 L70.208,21.2 L70.208,18.8 L70.208,18.8 Z M75.0133333,18.8 L72.6106667,18.8 L72.6106667,21.2 L75.0133333,21.2 L75.0133333,18.8 L75.0133333,18.8 Z M79.8186667,18.8 L77.416,18.8 L77.416,21.2 L79.8186667,21.2 L79.8186667,18.8 L79.8186667,18.8 Z M82.2213333,10.4 L81.02,10.4 L81.02,8 L78.6173333,8 L78.6173333,10.4 L69.0066667,10.4 L69.0066667,8 L66.604,8 L66.604,10.4 L65.4026667,10.4 C64.0691867,10.4 63.0120133,11.48 63.0120133,12.8 L63,29.6 C63,30.92 64.0691867,32 65.4026667,32 L82.2213333,32 C83.5428,32 84.624,30.92 84.624,29.6 L84.624,12.8 C84.624,11.48 83.5428,10.4 82.2213333,10.4 L82.2213333,10.4 Z M82.2213333,29.6 L65.4026667,29.6 L65.4026667,16.4 L82.2213333,16.4 L82.2213333,29.6 L82.2213333,29.6 Z" id="Shape" fill="#9BE8EF"></path>
                <rect id="Rectangle-4-Copy-40" fill="#FFFFFF" x="0" y="0" width="40" height="40" rx="5"></rect>
                <path d="M8,26.4210526 L10.5263158,26.4210526 L10.5263158,27.0526316 L9.26315789,27.0526316 L9.26315789,28.3157895 L10.5263158,28.3157895 L10.5263158,28.9473684 L8,28.9473684 L8,30.2105263 L11.7894737,30.2105263 L11.7894737,25.1578947 L8,25.1578947 L8,26.4210526 L8,26.4210526 Z M9.26315789,15.0526316 L10.5263158,15.0526316 L10.5263158,10 L8,10 L8,11.2631579 L9.26315789,11.2631579 L9.26315789,15.0526316 L9.26315789,15.0526316 Z M8,18.8421053 L10.2736842,18.8421053 L8,21.4947368 L8,22.6315789 L11.7894737,22.6315789 L11.7894737,21.3684211 L9.51578947,21.3684211 L11.7894737,18.7157895 L11.7894737,17.5789474 L8,17.5789474 L8,18.8421053 L8,18.8421053 Z M14.3157895,11.2631579 L14.3157895,13.7894737 L32,13.7894737 L32,11.2631579 L14.3157895,11.2631579 L14.3157895,11.2631579 Z M14.3157895,28.9473684 L32,28.9473684 L32,26.4210526 L14.3157895,26.4210526 L14.3157895,28.9473684 L14.3157895,28.9473684 Z M14.3157895,21.3684211 L32,21.3684211 L32,18.8421053 L14.3157895,18.8421053 L14.3157895,21.3684211 L14.3157895,21.3684211 Z" id="Shape" fill="#6694EF"></path>
                <path d="M127.998797,8 C121.375745,8 116,13.3761491 116,19.9996994 C116,26.6238509 121.375745,32 127.998797,32 C134.622451,32 139.998195,26.6238509 139.998195,19.9996994 C139.998195,13.3761491 134.622451,8 127.998797,8 L127.998797,8 Z M127.998797,11.5997295 C129.990882,11.5997295 131.598857,13.2078251 131.598857,15.2000601 C131.598857,17.191694 129.990882,18.7997896 127.998797,18.7997896 C126.007313,18.7997896 124.399338,17.191694 124.399338,15.2000601 C124.399338,13.2078251 126.007313,11.5997295 127.998797,11.5997295 L127.998797,11.5997295 Z M127.998797,28.6401323 C124.999248,28.6401323 122.347142,27.1035744 120.799278,24.7758936 C120.835345,22.3874959 125.599158,21.079979 127.998797,21.079979 C130.387015,21.079979 135.162249,22.3874959 135.198316,24.7758936 C133.650452,27.1035744 130.998947,28.6401323 127.998797,28.6401323 L127.998797,28.6401323 Z" id="Fill-9" fill="#B7B7B7"></path>
                <polygon id="Fill-45-Copy-5" fill="#9B9B9B" transform="translate(129.000000, 50.125308) rotate(90.000000) translate(-129.000000, -50.125308) " points="129.125118 47.1253081 129.125118 49.3751659 125.874692 49.3751659 125.874692 50.8754502 129.125118 50.8754502 129.125118 53.1253081 132.125308 50.1254976"></polygon>
                <polygon id="Fill-45-Copy-6" fill="#9B9B9B" transform="translate(75.000000, 50.125308) rotate(90.000000) translate(-75.000000, -50.125308) " points="75.1251185 47.1253081 75.1251185 49.3751659 71.8746919 49.3751659 71.8746919 50.8754502 75.1251185 50.8754502 75.1251185 53.1253081 78.1253081 50.1254976"></polygon>
                <polygon id="Fill-45-Copy-7" fill="#9B9B9B" transform="translate(21.000000, 50.125308) rotate(90.000000) translate(-21.000000, -50.125308) " points="21.1251185 47.1253081 21.1251185 49.3751659 17.8746919 49.3751659 17.8746919 50.8754502 21.1251185 50.8754502 21.1251185 53.1253081 24.1253081 50.1254976"></polygon>
                <rect id="Rectangle-4-Copy-4" fill-opacity="0.8" fill="#FFFFFF" x="0" y="108" width="148" height="21" rx="5"></rect>
                <rect id="Rectangle-6-Copy-4" fill-opacity="0.1" fill="#4A4A4A" x="41" y="116" width="26" height="6" rx="3"></rect>
                <rect id="Rectangle-6-Copy-21" fill-opacity="0.1" fill="#4A4A4A" x="12" y="116" width="17" height="6" rx="3"></rect>
            </g>
        </g>
    </g>
</svg>