<?xml version="1.0" encoding="UTF-8"?>
<svg width="139px" height="141px" viewBox="0 0 139 141" version="1.1" xmlns="http://www.w3.org/2000/svg" xmlns:xlink="http://www.w3.org/1999/xlink">
    <!-- Generator: Sketch 49.3 (51167) - http://www.bohemiancoding.com/sketch -->
    <title>wiki-4文档模板</title>
    <desc>Created with Sketch.</desc>
    <defs>
        <rect id="path-1" x="0" y="74" width="62" height="62" rx="5"></rect>
        <filter x="-8.9%" y="-5.6%" width="117.7%" height="117.7%" filterUnits="objectBoundingBox" id="filter-2">
            <feOffset dx="0" dy="2" in="SourceAlpha" result="shadowOffsetOuter1"></feOffset>
            <feGaussianBlur stdDeviation="1.5" in="shadowOffsetOuter1" result="shadowBlurOuter1"></feGaussianBlur>
            <feColorMatrix values="0 0 0 0 0.0614082244   0 0 0 0 0.063393865   0 0 0 0 0.0742984694  0 0 0 0.33239923 0" type="matrix" in="shadowBlurOuter1"></feColorMatrix>
        </filter>
    </defs>
    <g id="Page-1" stroke="none" stroke-width="1" fill="none" fill-rule="evenodd">
        <g id="wiki-4文档模板" transform="translate(3.000000, 0.000000)">
            <g id="Rectangle">
                <use fill="black" fill-opacity="1" filter="url(#filter-2)" xlink:href="#path-1"></use>
                <use fill="#FFFFFF" fill-rule="evenodd" xlink:href="#path-1"></use>
            </g>
            <rect id="Rectangle-4-Copy-15" fill="#FFFFFF" fill-rule="nonzero" x="0" y="0" width="62" height="62" rx="5"></rect>
            <g id="Rectangle-4-Copy-18" transform="translate(0.000000, 74.000000)">
                <g id="path-1-link">
                    <g id="path-1">
                        <g id="path-1-link"></g>
                    </g>
                </g>
            </g>
            <rect id="Rectangle-4-Copy-17" fill="#FFFFFF" fill-rule="nonzero" x="74" y="0" width="62" height="62" rx="5"></rect>
            <rect id="Rectangle-4-Copy-19" fill-opacity="0.6" fill="#FFFFFF" fill-rule="nonzero" x="74" y="74" width="62" height="62" rx="5"></rect>
            <path d="M106.545455,104.235294 L117.363637,104.235294 L117.363637,106.529412 L106.545455,106.529412 L106.545455,104.235294 Z M106.545455,100.411765 L117.363637,100.411765 L117.363637,102.705882 L106.545455,102.705882 L106.545455,100.411765 Z M106.545455,108.058823 L117.363637,108.058823 L117.363637,110.352941 L106.545455,110.352941 L106.545455,108.058823 Z M118.909092,92 L91.0909092,92 C89.3909091,92 88,93.3764706 88,95.0588235 L88,114.941177 C88,116.62353 89.3909091,118 91.0909092,118 L118.909092,118 C120.609091,118 122,116.62353 122,114.941177 L122,95.0588235 C122,93.3764706 120.609091,92 118.909092,92 Z M118.909092,114.941177 L105.000001,114.941177 L105.000001,95.0588235 L118.909092,95.0588235 L118.909092,114.941177 Z" id="Shape" fill="#E6E7E7" fill-rule="nonzero"></path>
            <path d="M23.4998117,42 L38.4994351,42 L38.4994351,20 L23.4998117,20 L23.4998117,42 Z M16,39.0665194 L22.0001506,39.0665194 L22.0001506,22.9334806 L16,22.9334806 L16,39.0665194 Z M39.9998494,39.0665194 L46,39.0665194 L46,22.9334806 L39.9998494,22.9334806 L39.9998494,39.0665194 Z" id="Fill-38" fill="#F8F1A1" fill-rule="nonzero"></path>
            <path d="M96,17 C94.35,17 93,18.26 93,19.8 L93,42.2 C93,43.74 94.35,45 96,45 L114,45 C115.65,45 117,43.74 117,42.2 L117,19.8 C117,18.26 115.65,17 114,17 L96,17 Z M103.5,19.8 L103.5,31 L99.75,28.9 L96,31 L96,19.8 L103.5,19.8 Z" id="Fill-168" fill="#9BE8EF" fill-rule="nonzero"></path>
            <g id="Group" transform="translate(13.000000, 86.000000)" fill="#6694EF" fill-rule="nonzero">
                <path d="M0,10.4706658 L16.4400623,10.4706658 L16.4400623,3.89596223 L0,3.89596223 L0,10.4706658 Z M0,1.90375742 L7.57894737,1.90375742 L7.57894737,0 L0,0 L0,1.90375742 Z M18.681889,10.4706658 L35.1219512,10.4706658 L35.1219512,3.89596223 L18.681889,3.89596223 L18.681889,10.4706658 Z" id="Fill-33"></path>
                <path d="M0,24.0282563 L16.7190869,24.0282563 L16.7190869,17.3111017 L0,17.3111017 L0,24.0282563 Z M0,15.2551088 L6.63157895,15.2551088 L6.63157895,13.3513514 L0,13.3513514 L0,15.2551088 Z" id="Fill-33-Copy"></path>
                <path d="M0,37.3796077 L16.7190869,37.3796077 L16.7190869,30.736548 L0,30.736548 L0,37.3796077 Z M0,28.6064601 L9.11950196,28.6064601 L9.11950196,26.7027027 L0,26.7027027 L0,28.6064601 Z M18.9989624,37.3796077 L35.7180493,37.3796077 L35.7180493,30.736548 L18.9989624,30.736548 L18.9989624,37.3796077 Z" id="Fill-33-Copy-2"></path>
                <polygon id="Fill-33-path-Copy-3" fill-opacity="0.779999971" points="18.9473684 23.1495871 35.6664554 23.1495871 35.6664554 16.4324324 18.9473684 16.4324324"></polygon>
            </g>
        </g>
    </g>
</svg>