<?xml version="1.0" encoding="UTF-8"?>
<svg width="50px" height="50px" viewBox="0 0 50 50" version="1.1" xmlns="http://www.w3.org/2000/svg" xmlns:xlink="http://www.w3.org/1999/xlink">
    <!-- Generator: Sketch 49.3 (51167) - http://www.bohemiancoding.com/sketch -->
    <title>gitlab2</title>
    <desc>Created with Sketch.</desc>
    <defs></defs>
    <g id="修改页面" stroke="none" stroke-width="1" fill="none" fill-rule="evenodd">
        <g id="微课堂-copy-3" transform="translate(-590.000000, -2114.000000)">
            <g id="footer" transform="translate(0.000000, 2000.000000)">
                <g id="Group-13" transform="translate(590.000000, 114.000000)">
                    <g id="gitlab2">
                        <rect id="Rectangle-5" fill="#3371E3" x="0" y="0" width="50" height="50" rx="5"></rect>
                        <path d="M25.5,13 C18.59375,13 13,18.59375 13,25.5 C13,31.03125 16.578125,35.703125 21.546875,37.359375 C22.171875,37.46875 22.40625,37.09375 22.40625,36.765625 C22.40625,36.46875 22.390625,35.484375 22.390625,34.4375 C19.25,35.015625 18.4375,33.671875 18.1875,32.96875 C18.046875,32.609375 17.4375,31.5 16.90625,31.203125 C16.46875,30.96875 15.84375,30.390625 16.890625,30.375 C17.875,30.359375 18.578125,31.28125 18.8125,31.65625 C19.9375,33.546875 21.734375,33.015625 22.453125,32.6875 C22.5625,31.875 22.890625,31.328125 23.25,31.015625 C20.46875,30.703125 17.5625,29.625 17.5625,24.84375 C17.5625,23.484375 18.046875,22.359375 18.84375,21.484375 C18.71875,21.171875 18.28125,19.890625 18.96875,18.171875 C18.96875,18.171875 20.015625,17.84375 22.40625,19.453125 C23.40625,19.171875 24.46875,19.03125 25.53125,19.03125 C26.59375,19.03125 27.65625,19.171875 28.65625,19.453125 C31.046875,17.828125 32.09375,18.171875 32.09375,18.171875 C32.78125,19.890625 32.34375,21.171875 32.21875,21.484375 C33.015625,22.359375 33.5,23.46875 33.5,24.84375 C33.5,29.640625 30.578125,30.703125 27.796875,31.015625 C28.25,31.40625 28.640625,32.15625 28.640625,33.328125 C28.640625,35 28.625,36.34375 28.625,36.765625 C28.625,37.09375 28.859375,37.484375 29.484375,37.359375 C34.5725722,35.6416505 37.9986271,30.870319 38,25.5 C38,18.59375 32.40625,13 25.5,13 Z" id="Shape" fill="#FFFFFF" fill-rule="nonzero"></path>
                    </g>
                </g>
            </g>
        </g>
    </g>
</svg>