<?xml version="1.0" encoding="UTF-8"?>
<svg width="50px" height="50px" viewBox="0 0 50 50" version="1.1" xmlns="http://www.w3.org/2000/svg" xmlns:xlink="http://www.w3.org/1999/xlink">
    <!-- Generator: Sketch 49.3 (51167) - http://www.bohemiancoding.com/sketch -->
    <title>微信</title>
    <desc>Created with Sketch.</desc>
    <defs></defs>
    <g id="修改页面" stroke="none" stroke-width="1" fill="none" fill-rule="evenodd">
        <g id="微课堂-copy-3" transform="translate(-660.000000, -2114.000000)">
            <g id="footer" transform="translate(0.000000, 2000.000000)">
                <g id="Group-13" transform="translate(590.000000, 114.000000)">
                    <g id="微信" transform="translate(70.000000, 0.000000)">
                        <rect id="Rectangle-5" fill="#3371E3" x="0" y="0" width="50" height="50" rx="5"></rect>
                        <g transform="translate(13.000000, 15.000000)" fill="#FFFFFF" fill-rule="nonzero" id="Shape">
                            <path d="M17.4272092,6.24470382 C17.5500729,6.24470382 17.6721834,6.24743784 17.793708,6.25198525 C17.0197838,2.70821562 13.3671554,0.0248545802 8.97734477,0.0248545802 C4.02438094,0.0248545802 0.00924323882,3.44065513 0.00924323882,7.65420488 C0.00924323882,10.1159984 1.38018899,12.3050311 3.50759457,13.700053 L2.6115879,16.3429617 L5.5785621,14.7159941 C6.62683719,15.0815164 7.77426251,15.2835552 8.97731685,15.2835552 C9.20923462,15.2835552 9.43908795,15.2760785 9.66654204,15.2613482 C9.41556977,14.5966734 9.27959392,13.8883659 9.27959392,13.1530808 C9.27964973,9.33772214 12.9274239,6.24470382 17.4272092,6.24470382 Z M12.0722601,3.79635725 C12.8036674,3.79635725 13.3966159,4.38927784 13.3966159,5.120713 C13.3966159,5.85212028 12.8036953,6.44506876 12.0722601,6.44506876 C11.340825,6.44506876 10.7479044,5.85214817 10.7479044,5.120713 C10.7479323,4.38927784 11.3408529,3.79635725 12.0722601,3.79635725 Z M5.91119242,6.44504084 C5.17978514,6.44504084 4.58683667,5.85212026 4.58683667,5.12068509 C4.58683667,4.38927781 5.17975725,3.79632933 5.91119242,3.79632933 C6.64262759,3.79632933 7.23554817,4.38924992 7.23554817,5.12068509 C7.23554817,5.85209237 6.64262759,6.44504084 5.91119242,6.44504084 Z"></path>
                            <path d="M24.9990055,13.1531087 C24.9990055,9.6073304 21.6090108,6.73292244 17.4272092,6.73292244 C13.2454076,6.73292244 9.85544081,9.6073304 9.85544081,13.1531087 C9.85544081,16.698887 13.2454355,19.573295 17.4272371,19.573295 C18.3052774,19.573295 19.1481659,19.4461349 19.9323565,19.2131012 L22.5212264,20.6327014 L21.7688118,18.4133155 C23.7218815,17.2521921 24.9990055,15.3292246 24.9990055,13.1531087 Z M15.0615529,12.2318262 C14.4759417,12.2318262 14.0012258,11.7571104 14.0012258,11.1714991 C14.0012258,10.5858879 14.4759417,10.111172 15.0615529,10.111172 C15.6471642,10.111172 16.1218801,10.5858878 16.1218801,11.1714991 C16.12188,11.7571104 15.6471642,12.2318262 15.0615529,12.2318262 Z M19.99443,12.2318262 C19.4088188,12.2318262 18.9341029,11.7571104 18.9341029,11.1714991 C18.9341029,10.5858879 19.4088188,10.111172 19.99443,10.111172 C20.5800413,10.111172 21.0547572,10.5858878 21.0547572,11.1714991 C21.0547571,11.7571104 20.5800134,12.2318262 19.99443,12.2318262 Z"></path>
                        </g>
                    </g>
                </g>
            </g>
        </g>
    </g>
</svg>