<?xml version="1.0" encoding="UTF-8"?>
<svg width="50px" height="50px" viewBox="0 0 50 50" version="1.1" xmlns="http://www.w3.org/2000/svg" xmlns:xlink="http://www.w3.org/1999/xlink">
    <!-- Generator: Sketch 49.3 (51167) - http://www.bohemiancoding.com/sketch -->
    <title>新浪 copy</title>
    <desc>Created with Sketch.</desc>
    <defs></defs>
    <g id="修改页面" stroke="none" stroke-width="1" fill="none" fill-rule="evenodd">
        <g id="微课堂-copy-3" transform="translate(-800.000000, -2114.000000)">
            <g id="footer" transform="translate(0.000000, 2000.000000)">
                <g id="Group-13" transform="translate(590.000000, 114.000000)">
                    <g id="新浪-copy" transform="translate(210.000000, 0.000000)">
                        <rect id="Rectangle-5" fill="#3371E3" x="0" y="0" width="50" height="50" rx="5"></rect>
                        <g id="Page-1" transform="translate(12.000000, 11.000000)" fill="#FFFFFF">
                            <path d="M13.6870067,7.60805067 C13.6870067,7.38427733 13.8684867,7.20279733 14.09226,7.20279733 C14.3160333,7.20279733 14.4975133,7.38427733 14.4975133,7.60805067 C14.4975133,7.831824 14.3160333,8.013304 14.09226,8.013304 C13.8684867,8.013304 13.6870067,7.831824 13.6870067,7.60805067 M16.3539133,6.05273067 C16.7955667,5.09523733 16.75102,2.82491733 16.75102,2.82491733 C16.75102,2.82491733 16.1604733,3.03725067 15.5512067,3.03725067 C15.1632867,2.37945067 14.62422,1.70449067 13.9080067,1.02363733 C13.9080067,1.02363733 14.3585,0.750637333 14.8391533,-6.93333333e-05 L12.8647133,-6.93333333e-05 L11.09914,-6.93333333e-05 C11.7089267,0.866077333 12.1147,1.02363733 12.1147,1.02363733 C11.1107533,1.978184 10.4546867,2.92129067 10.0756067,3.82141067 C9.69323333,3.84065067 9.40584667,3.85867733 8.95899333,3.898544 C8.95899333,3.898544 9.08119333,4.72083733 9.66151333,5.67503733 C9.61107333,7.87099733 11.1752333,9.60017067 13.0113533,10.261784 C14.7408733,9.63847733 16.2291133,8.06807733 16.3539133,6.05273067" id="Fill-5"></path>
                            <path d="M7.882784,10.152792 C7.68899733,10.0408187 7.62261067,9.79312533 7.73441067,9.59916533 C7.846384,9.40537867 8.09425067,9.338992 8.28803733,9.45096533 C8.481824,9.56276533 8.54821067,9.810632 8.43641067,10.0044187 C8.32443733,10.1983787 8.07657067,10.2647653 7.882784,10.152792 M7.869264,7.065552 C7.260864,6.20425867 5.27255733,5.107752 5.27255733,5.107752 C5.27255733,5.107752 5.161104,5.72533867 4.856384,6.25296533 C4.09285067,6.260072 3.238664,6.38937867 2.29105067,6.66913867 C2.29105067,6.66913867 2.279784,6.142552 1.870024,5.35093867 C1.870024,5.35093867 1.502384,5.98776533 0.882717333,7.060872 C0.263224,8.134152 -6.93333333e-05,8.59001867 -6.93333333e-05,8.59001867 C1.05483733,8.49485867 1.39439733,8.22220533 1.39439733,8.22220533 C1.71905067,9.568832 2.20767733,10.6086587 2.797704,11.3870987 C2.62315733,11.727872 2.49523733,11.9856187 2.30613067,12.3926053 C2.30613067,12.3926053 3.07937067,12.6980187 4.195984,12.6725387 C6.07249067,13.814112 8.35217067,13.3240987 9.843184,12.064832 C10.168184,10.255232 9.55215733,8.18129867 7.869264,7.065552" id="Fill-6"></path>
                            <path d="M7.18449333,16.45176 C6.99070667,16.5637333 6.74284,16.4973467 6.63086667,16.3033867 C6.51906667,16.1096 6.58545333,15.8617333 6.77924,15.7499333 C6.97302667,15.63796 7.22089333,15.7043467 7.33286667,15.8981333 C7.44466667,16.0920933 7.37828,16.3397867 7.18449333,16.45176 M4.50406667,14.91984 C3.45401333,15.01604 1.51025333,16.1898533 1.51025333,16.1898533 C1.51025333,16.1898533 1.98934667,16.5951067 2.29389333,17.1227333 C1.91828,17.78764 1.60316,18.5919067 1.37176,19.55252 C1.37176,19.55252 0.910173333,19.2989333 0.0195866667,19.2580267 C0.0195866667,19.2580267 0.387226667,19.8948533 1.00689333,20.96796 C1.62638667,22.04124 1.88968,22.4971067 1.88968,22.4971067 C2.3348,21.5359733 2.26841333,21.1055867 2.26841333,21.1055867 C3.59701333,21.49784 4.74170667,21.59456 5.71098667,21.4727067 C5.91881333,21.79424 6.07793333,22.03396 6.33585333,22.40108 C6.33585333,22.40108 6.98706667,21.8842 7.52336,20.9043467 C9.45013333,19.8501333 10.1656533,17.6309467 9.82054667,15.7098933 C8.41602667,14.5237733 6.31176,14.02024 4.50406667,14.91984" id="Fill-7"></path>
                            <path d="M12.2904253,20.206004 C12.2904253,20.4297773 12.1089453,20.6112573 11.885172,20.6112573 C11.6613987,20.6112573 11.4799187,20.4297773 11.4799187,20.206004 C11.4799187,19.9822307 11.6613987,19.8007507 11.885172,19.8007507 C12.1089453,19.8007507 12.2904253,19.9822307 12.2904253,20.206004 M9.62351867,21.761324 C9.18186533,22.7188173 9.226412,24.9891373 9.226412,24.9891373 C9.226412,24.9891373 9.81695867,24.776804 10.4262253,24.776804 C10.8141453,25.434604 11.353212,26.109564 12.0694253,26.7904173 C12.0694253,26.7904173 11.618932,27.0634173 11.1382787,27.814124 C11.1382787,27.814124 11.8735587,27.814124 13.1127187,27.814124 C14.352052,27.814124 14.878292,27.814124 14.878292,27.814124 C14.2685053,26.9479773 13.862732,26.7904173 13.862732,26.7904173 C14.8666787,25.8358707 15.5227453,24.892764 15.9018253,23.992644 C16.2841987,23.973404 16.5715853,23.9553773 17.0184387,23.9155107 C17.0184387,23.9155107 16.8962387,23.0932173 16.3159187,22.1390173 C16.3663587,19.9430573 14.8021987,18.213884 12.9660787,17.5522707 C11.2365587,18.1755773 9.74831867,19.7459773 9.62351867,21.761324" id="Fill-8"></path>
                            <path d="M18.094648,17.6612453 C18.2884347,17.7732187 18.3548213,18.020912 18.2430213,18.214872 C18.131048,18.4086587 17.8831813,18.4750453 17.6893947,18.363072 C17.495608,18.251272 17.4292213,18.0034053 17.5410213,17.8096187 C17.6529947,17.6156587 17.9008613,17.549272 18.094648,17.6612453 M18.108168,20.7484853 C18.716568,21.6097787 20.7048747,22.7062853 20.7048747,22.7062853 C20.7048747,22.7062853 20.816328,22.0886987 21.121048,21.561072 C21.8845813,21.5539653 22.738768,21.4246587 23.6863813,21.1448987 C23.6863813,21.1448987 23.697648,21.6714853 24.107408,22.4630987 C24.107408,22.4630987 24.475048,21.826272 25.0947147,20.7531653 C25.714208,19.6798853 25.9775013,19.2240187 25.9775013,19.2240187 C24.9225947,19.3191787 24.5830347,19.591832 24.5830347,19.591832 C24.2583813,18.2452053 23.7697547,17.2053787 23.179728,16.4269387 C23.3542747,16.0861653 23.4821947,15.8284187 23.6713013,15.421432 C23.6713013,15.421432 22.8980613,15.1160187 21.781448,15.1414987 C19.9049413,13.9999253 17.6252613,14.4899387 16.134248,15.7492053 C15.809248,17.5588053 16.4252747,19.6327387 18.108168,20.7484853" id="Fill-9"></path>
                            <path d="M18.7929387,11.3622773 C18.9867253,11.250304 19.234592,11.3166907 19.3465653,11.5106507 C19.4583653,11.7044373 19.3919787,11.952304 19.198192,12.064104 C19.0044053,12.1760773 18.7565387,12.1096907 18.6445653,11.915904 C18.5327653,11.721944 18.599152,11.4742507 18.7929387,11.3622773 M21.4733653,12.8941973 C22.5234187,12.7979973 24.4671787,11.624184 24.4671787,11.624184 C24.4671787,11.624184 23.9880853,11.2189307 23.6835387,10.691304 C24.059152,10.0263973 24.374272,9.22213067 24.605672,8.26151733 C24.605672,8.26151733 25.0672587,8.515104 25.9578453,8.55601067 C25.9578453,8.55601067 25.5902053,7.919184 24.9705387,6.84607733 C24.3510453,5.77279733 24.087752,5.31693067 24.087752,5.31693067 C23.642632,6.278064 23.7090187,6.70845067 23.7090187,6.70845067 C22.3804187,6.31619733 21.2357253,6.21947733 20.2664453,6.34133067 C20.0586187,6.01979733 19.8994987,5.78007733 19.6415787,5.41295733 C19.6415787,5.41295733 18.9903653,5.92983733 18.454072,6.90969067 C16.5272987,7.963904 15.8117787,10.1830907 16.1568853,12.104144 C17.5614053,13.290264 19.665672,13.7937973 21.4733653,12.8941973" id="Fill-10"></path>
                        </g>
                    </g>
                </g>
            </g>
        </g>
    </g>
</svg>