<?xml version="1.0" encoding="UTF-8"?>
<svg width="50px" height="50px" viewBox="0 0 50 50" version="1.1" xmlns="http://www.w3.org/2000/svg" xmlns:xlink="http://www.w3.org/1999/xlink">
    <!-- Generator: Sketch 49.3 (51167) - http://www.bohemiancoding.com/sketch -->
    <title>新浪</title>
    <desc>Created with Sketch.</desc>
    <defs></defs>
    <g id="修改页面" stroke="none" stroke-width="1" fill="none" fill-rule="evenodd">
        <g id="微课堂-copy-3" transform="translate(-730.000000, -2114.000000)">
            <g id="footer" transform="translate(0.000000, 2000.000000)">
                <g id="Group-13" transform="translate(590.000000, 114.000000)">
                    <g id="新浪" transform="translate(140.000000, 0.000000)">
                        <rect id="Rectangle-5" fill="#3371E3" x="0" y="0" width="50" height="50" rx="5"></rect>
                        <g transform="translate(13.000000, 15.000000)" fill="#FFFFFF" fill-rule="nonzero" id="Shape">
                            <path d="M18.8129121,12.7092532 C18.5747826,12.7092533 18.3547419,12.5822127 18.2356772,12.3759865 C18.1166124,12.1697604 18.1166124,11.9156792 18.2356772,11.709453 C18.3547419,11.5032269 18.5747826,11.3761863 18.8129121,11.3761863 C19.1810283,11.3761863 19.4794455,11.6746035 19.4794455,12.0427198 C19.4794455,12.410836 19.1810283,12.7092532 18.8129121,12.7092532"></path>
                            <path d="M23.2340909,1.96479771 C20.8492757,-0.288948559 17.6492757,0.0339285714 17.6492757,0.0339285714 C17.0552224,0.0391602747 16.5754246,0.52038178 16.571953,1.11444805 L16.571953,0.890671834 C16.571953,1.48367884 17.0610639,1.93922328 17.6460789,1.94082167 C17.6460789,1.94082167 20.7198052,1.58597652 22.1503746,3.63832417 C23.5809441,5.69227023 22.9943307,7.96200049 22.9943307,7.96200051 C22.9470241,8.23219676 23.0239721,8.50932653 23.2038125,8.716453 C23.3836528,8.92357947 23.6472425,9.03865517 23.9214036,9.02973277 L23.6752498,9.02973277 C24.2698552,9.02973277 24.8181069,8.55340909 24.8724526,7.9635989 C24.8724526,7.9635989 25.6189061,4.21854395 23.2340909,1.96479771"></path>
                            <path d="M20.8061189,4.30485765 C19.5066184,3.13482768 18.0041209,3.54401849 18.0041209,3.54401849 C17.6019113,3.60643933 17.3018657,3.94752257 17.2912338,4.3544081 L17.2912338,4.15141108 C17.2912338,4.54621627 17.6077173,4.84511737 18.0073177,4.84351897 C18.0073177,4.84351897 19.2460789,4.65011238 19.9397852,5.4732892 C20.6334915,6.29646603 20.137987,7.42973275 20.137987,7.42973277 C20.0292957,7.81015235 20.2610639,8.11704545 20.6622627,8.11704545 L20.7341908,8.11704545 C21.1337912,8.11704545 21.5174076,7.80375875 21.57495,7.40895355 C21.57495,7.40895355 22.1072178,5.47488762 20.8077173,4.30325923 L20.8061189,4.30485765 Z M14.2894356,12.9330295 C13.9122128,10.9829795 11.7064186,9.77139111 9.36635864,10.2253372 C7.02310191,10.6792832 5.43269231,12.6309316 5.81151349,14.5809815 C6.19193308,16.5326299 8.39612888,17.7458167 10.7377872,17.2902722 C13.0778472,16.8347278 14.6698552,14.8846778 14.2894356,12.9330295 Z M9.15377123,15.3562063 C8.4344905,15.6918706 7.64647851,15.5256369 7.39552946,14.9853771 C7.1413836,14.4451174 7.52180319,13.7354271 8.24268233,13.3997627 C8.96196305,13.0640984 9.74997504,13.2287338 10.0025225,13.7689935 C10.2550699,14.3092532 9.87465037,15.0189435 9.15536962,15.3562063 L9.15377123,15.3562063 Z M10.8129121,13.7146478 C10.5553668,13.7143623 10.3175374,13.5766997 10.1890121,13.3535162 C10.0604867,13.1303326 10.0607913,12.8555351 10.1898113,12.632637 C10.3188312,12.409739 10.5569652,12.2726041 10.8145105,12.2728896 C11.212641,12.2728896 11.5353896,12.5956382 11.5353896,12.9937687 C11.5353896,13.3918993 11.212641,13.7146478 10.8145105,13.7146478 L10.8129121,13.7146478 Z"></path>
                            <path d="M18.0744505,9.41974276 C18.0744505,9.20236015 20.1683566,7.25231019 18.0744505,6.03912338 C15.9805445,4.82433817 12.1523726,6.670492 12.2674575,6.4706918 C13.9122128,3.63992259 11.5593656,2.74481767 10.3605644,2.74481767 C7.49942557,2.74481767 0.0189060877,9.02014235 0.0189060877,12.9937687 C0.0189060877,16.9689935 5.01231268,20.1913711 11.1741509,20.1913711 C17.3343906,20.1913711 22.2814436,16.9689935 22.2814435,12.9937687 C22.2814435,9.63712537 18.0744505,9.63712537 18.0744505,9.41974276 Z M11.4650599,17.9871753 C7.52819681,18.5402223 4.04687813,16.9146478 3.68723776,14.3556069 C3.3275974,11.7981643 6.22709791,9.27588663 10.1623626,8.72124125 C14.0992258,8.16979269 17.5805445,9.79376873 17.9417832,12.3528097 C18.2998252,14.9102523 15.4003247,17.4341284 11.4650599,17.9871753 Z"></path>
                        </g>
                    </g>
                </g>
            </g>
        </g>
    </g>
</svg>