<?xml version="1.0" encoding="UTF-8"?>
<svg width="60px" height="42px" viewBox="0 0 60 42" version="1.1" xmlns="http://www.w3.org/2000/svg" xmlns:xlink="http://www.w3.org/1999/xlink">
    <!-- Generator: Sketch 51 (57462) - http://www.bohemiancoding.com/sketch -->
    <title>Group 12 Copy</title>
    <desc>Created with Sketch.</desc>
    <defs></defs>
    <g id="首页重要通知模块" stroke="none" stroke-width="1" fill="none" fill-rule="evenodd">
        <g id="banner-bg-copy" transform="translate(-554.000000, -252.000000)">
            <g id="Group-12-Copy" transform="translate(554.000000, 252.000000)">
                <path d="M0.8,6.4 L0.8,36 L54,36 L54,6.4 L0.8,6.4 Z M0,5.6 L54.8,5.6 L54.8,36.8 L0,36.8 L0,5.6 Z" id="Rectangle-42" fill="#979797" fill-rule="nonzero"></path>
                <rect id="Rectangle-37" fill="#F5F5F5" x="0.8" y="6.4" width="26.8" height="29.6"></rect>
                <rect id="Rectangle-37-Copy-2" fill="#FFFFFF" x="27.2" y="6.4" width="26.8" height="29.6"></rect>
                <g id="Group-10" transform="translate(44.000000, 19.600000)">
                    <g id="Group-7">
                        <rect id="Rectangle-43-Copy" fill="#FFFFFF" x="0" y="7.2" width="10.8" height="10"></rect>
                        <circle id="Oval-2" fill="#FFD666" cx="8" cy="5.2" r="5.2"></circle>
                        <path d="M8,11.6 L8,11.6 C12.418278,11.6 16,15.181722 16,19.6 L16,21.6 L0,21.6 L0,19.6 C-5.41083001e-16,15.181722 3.581722,11.6 8,11.6 Z" id="Rectangle-43" fill="#FFD666"></path>
                        <polygon id="Path-22-Copy" fill="#FFFFFF" fill-rule="nonzero" transform="translate(9.284227, 16.392745) scale(-1, 1) translate(-9.284227, -16.392745) " points="7.86895807 11.0792749 8.93104193 10.5207251 10.5202528 13.5426135 9.27259884 19.2018385 10.6994953 21.6628598 9.66136708 22.2647649 8.00017359 19.3996428 9.25391993 13.7127833"></polygon>
                        <polygon id="Path-22-Copy-2" fill="#FFFFFF" fill-rule="nonzero" points="6.45391993 13.7127833 5.06895807 11.0792749 6.13104193 10.5207251 7.72025277 13.5426135 6.47259884 19.2018385 7.89949528 21.6628598 6.86136708 22.2647649 5.20017359 19.3996428"></polygon>
                    </g>
                </g>
                <path d="M39.5447762,12.8 L50,12.8 L50,0.8 L30,0.8 L30,12.8 L34.094605,12.8 L34.894605,12.8 L34.894605,15.6194409 L39.5447762,12.8 Z M30,-3.99680289e-16 L50,-6.66133815e-16 C50.4418278,-2.31698393e-15 50.8,0.3581722 50.8,0.8 L50.8,12.8 C50.8,13.2418278 50.4418278,13.6 50,13.6 L39.7683571,13.6 L34.094605,17.0400472 L34.094605,13.6 L30,13.6 C29.5581722,13.6 29.2,13.2418278 29.2,12.8 L29.2,0.8 C29.2,0.3581722 29.5581722,-3.18517839e-16 30,-3.99680289e-16 Z" id="Rectangle-38-Copy" fill="#979797" fill-rule="nonzero" transform="translate(40.000000, 8.520024) scale(-1, 1) translate(-40.000000, -8.520024) "></path>
                <polygon id="Rectangle-7" fill="#FFFFFF" points="30 0.8 50 0.8 50 12.8 45.1569368 12.8 45.1569368 15.6859182 40.5146865 12.8 30 12.8"></polygon>
                <path d="M33.2,5.2 L34.4,5.2 L34.4,4 L33.2,4 L33.2,5.2 Z M32.4,3.2 L35.2,3.2 L35.2,6 L32.4,6 L32.4,3.2 Z" id="Rectangle" fill="#979797" fill-rule="nonzero"></path>
                <path d="M38,5.2 L46.8,5.2 L46.8,4 L38,4 L38,5.2 Z M37.2,3.2 L47.6,3.2 L47.6,6 L37.2,6 L37.2,3.2 Z" id="Rectangle-Copy-3" fill="#979797" fill-rule="nonzero"></path>
                <path d="M33.2,9.6 L34.4,9.6 L34.4,8.4 L33.2,8.4 L33.2,9.6 Z M32.4,7.6 L35.2,7.6 L35.2,10.4 L32.4,10.4 L32.4,7.6 Z" id="Rectangle-Copy" fill="#E3E3E3" fill-rule="nonzero"></path>
                <path d="M38,8.4 L38,9.6 L46.8,9.6 L46.8,8.4 L38,8.4 Z M37.2,7.6 L47.6,7.6 L47.6,10.4 L37.2,10.4 L37.2,7.6 Z" id="Rectangle-Copy-4" fill="#E3E3E3" fill-rule="nonzero"></path>
                <g id="Group-11" transform="translate(6.400000, 8.400000)" fill="#6694EF">
                    <path d="M7.6,14.4 C5.94031248,14.4 4.8,11.1691146 4.8,7.2 C4.8,3.23088536 5.94031248,0 7.6,0 C9.25968752,0 10.4,3.23088536 10.4,7.2 C10.4,11.1691146 9.25968752,14.4 7.6,14.4 Z M7.6,13.6 C8.59127928,13.6 9.6,10.741958 9.6,7.2 C9.6,3.65804205 8.59127928,0.8 7.6,0.8 C6.60872072,0.8 5.6,3.65804205 5.6,7.2 C5.6,10.741958 6.60872072,13.6 7.6,13.6 Z" id="Oval-17" fill-rule="nonzero"></path>
                    <path d="M7.64680374,14.2468037 C5.98711622,14.2468037 4.84680374,11.0159184 4.84680374,7.04680374 C4.84680374,3.0776891 5.98711622,-0.153196257 7.64680374,-0.153196257 C9.30649126,-0.153196257 10.4468037,3.0776891 10.4468037,7.04680374 C10.4468037,11.0159184 9.30649126,14.2468037 7.64680374,14.2468037 Z M7.64680374,13.4468037 C8.63808302,13.4468037 9.64680374,10.5887617 9.64680374,7.04680374 C9.64680374,3.50484579 8.63808302,0.646803743 7.64680374,0.646803743 C6.65552447,0.646803743 5.64680374,3.50484579 5.64680374,7.04680374 C5.64680374,10.5887617 6.65552447,13.4468037 7.64680374,13.4468037 Z" id="Oval-17" fill-rule="nonzero" transform="translate(7.646804, 7.046804) rotate(-60.000000) translate(-7.646804, -7.046804) "></path>
                    <path d="M7.64680374,14.2468037 C5.98711622,14.2468037 4.84680374,11.0159184 4.84680374,7.04680374 C4.84680374,3.0776891 5.98711622,-0.153196257 7.64680374,-0.153196257 C9.30649126,-0.153196257 10.4468037,3.0776891 10.4468037,7.04680374 C10.4468037,11.0159184 9.30649126,14.2468037 7.64680374,14.2468037 Z M7.64680374,13.4468037 C8.63808302,13.4468037 9.64680374,10.5887617 9.64680374,7.04680374 C9.64680374,3.50484579 8.63808302,0.646803743 7.64680374,0.646803743 C6.65552447,0.646803743 5.64680374,3.50484579 5.64680374,7.04680374 C5.64680374,10.5887617 6.65552447,13.4468037 7.64680374,13.4468037 Z" id="Oval-17" fill-rule="nonzero" transform="translate(7.646804, 7.046804) rotate(-120.000000) translate(-7.646804, -7.046804) "></path>
                    <polygon id="Polygon-2" points="7.6 6 8.63923048 6.6 8.63923048 7.8 7.6 8.4 6.56076952 7.8 6.56076952 6.6"></polygon>
                </g>
                <rect id="Rectangle-40" fill="#6694EF" x="6.8" y="25.6" width="2.4" height="2.4"></rect>
                <rect id="Rectangle-40-Copy-4" fill="#6694EF" x="11.2" y="25.6" width="10.4" height="2.4"></rect>
                <rect id="Rectangle-40-Copy" fill="#6694EF" x="6.8" y="30.4" width="2.4" height="2.4"></rect>
                <rect id="Rectangle-40-Copy-5" fill="#6694EF" x="11.2" y="30.4" width="5.2" height="2.4"></rect>
            </g>
        </g>
    </g>
</svg>