<?xml version="1.0" encoding="utf-8"?>
<!-- Generator: Adobe Illustrator 19.0.0, SVG Export Plug-In . SVG Version: 6.00 Build 0)  -->
<svg version="1.1" id="图层_1" xmlns="http://www.w3.org/2000/svg" xmlns:xlink="http://www.w3.org/1999/xlink" x="0px" y="0px"
	 viewBox="0 0 328.7 206.5" style="enable-background:new 0 0 328.7 206.5;" xml:space="preserve">
<style type="text/css">
	.st0{opacity:0.8;}
	.st1{fill:#FFFFFF;}
	.st2{opacity:0.2;}
	.st3{opacity:0.4;}
	.st4{opacity:0.6;}
	.st5{opacity:0.9;fill:#FFFFFF;}
	.st6{opacity:0.5;}
	.st7{opacity:0.7;}
</style>
<g id="XMLID_2_">
	<g id="XMLID_251_" class="st0">
		<path id="XMLID_252_" class="st1" d="M159.7,133h-20c-0.4,0-0.8-0.3-0.8-0.8v-19.5L97.8,93.4c-0.3-0.1-0.4-0.4-0.4-0.7V76.9
			c0-3.7,3-6.8,6.8-6.8h91.2c3.7,0,6.8,3,6.8,6.8v15.8c0,0.3-0.2,0.6-0.4,0.7l-41.2,19.3v19.5C160.4,132.6,160.1,133,159.7,133z
			 M140.4,131.5h18.5v-19.3c0-0.3,0.2-0.6,0.4-0.7l41.2-19.3V76.9c0-2.9-2.4-5.2-5.2-5.2h-91.2c-2.9,0-5.2,2.4-5.2,5.2v15.3
			l41.2,19.3c0.3,0.1,0.4,0.4,0.4,0.7V131.5z"/>
	</g>
	<g id="XMLID_247_" class="st0">
		<path id="XMLID_248_" class="st1" d="M193.3,201.5h-87.2c-3.7,0-6.8-3-6.8-6.8v-37.3c0-3.7,3-6.8,6.8-6.8l33.2-0.1l9.8-12.6
			c0.1-0.2,0.3-0.3,0.6-0.3c0.2,0,0.5,0.1,0.6,0.3l9.8,12.7h33.2c3.7,0,6.8,3,6.8,6.8v37.3C200,198.5,197,201.5,193.3,201.5z
			 M149.7,139.6l-9.4,12.2c-0.1,0.2-0.4,0.3-0.6,0.3l-33.6,0.1c-2.9,0-5.3,2.4-5.3,5.2v37.3c0,2.9,2.4,5.2,5.2,5.2h87.2
			c2.9,0,5.2-2.4,5.2-5.2v-37.3c0-2.9-2.4-5.2-5.2-5.2h-33.6c-0.2,0-0.5-0.1-0.6-0.3L149.7,139.6z"/>
	</g>
	<g id="XMLID_243_" class="st2">
		<path id="XMLID_244_" class="st1" d="M135.4,167.2h-22.1c-1.6,0-2.8-1.3-2.8-2.8s1.3-2.8,2.8-2.8h22.1c1.6,0,2.8,1.3,2.8,2.8
			S137,167.2,135.4,167.2z M113.3,163c-0.7,0-1.3,0.6-1.3,1.3s0.6,1.3,1.3,1.3h22.1c0.7,0,1.3-0.6,1.3-1.3s-0.6-1.3-1.3-1.3H113.3z"
			/>
	</g>
	<g id="XMLID_239_" class="st3">
		<path id="XMLID_240_" class="st1" d="M186.2,167.2h-42.8c-1.6,0-2.8-1.3-2.8-2.8s1.3-2.8,2.8-2.8h42.8c1.6,0,2.8,1.3,2.8,2.8
			S187.8,167.2,186.2,167.2z M143.5,163c-0.7,0-1.3,0.6-1.3,1.3s0.6,1.3,1.3,1.3h42.8c0.7,0,1.3-0.6,1.3-1.3s-0.6-1.3-1.3-1.3H143.5
			z"/>
	</g>
	<g id="XMLID_235_" class="st4">
		<path id="XMLID_236_" class="st1" d="M140.3,179.4h-27c-1.6,0-2.8-1.3-2.8-2.8c0-1.6,1.3-2.8,2.8-2.8h27c1.6,0,2.8,1.3,2.8,2.8
			C143.2,178.1,141.9,179.4,140.3,179.4z M113.3,175.2c-0.7,0-1.3,0.6-1.3,1.3c0,0.7,0.6,1.3,1.3,1.3h27c0.7,0,1.3-0.6,1.3-1.3
			c0-0.7-0.6-1.3-1.3-1.3H113.3z"/>
	</g>
	<g id="XMLID_231_" class="st0">
		<path id="XMLID_232_" class="st1" d="M186.2,179.4h-14.5c-1.6,0-2.8-1.3-2.8-2.8c0-1.6,1.3-2.8,2.8-2.8h14.5
			c1.6,0,2.8,1.3,2.8,2.8C189.1,178.1,187.8,179.4,186.2,179.4z M171.7,175.2c-0.7,0-1.3,0.6-1.3,1.3c0,0.7,0.6,1.3,1.3,1.3h14.5
			c0.7,0,1.3-0.6,1.3-1.3c0-0.7-0.6-1.3-1.3-1.3H171.7z"/>
	</g>
	<g id="XMLID_227_" class="st2">
		<path id="XMLID_228_" class="st1" d="M163.2,179.4h-14.5c-1.6,0-2.8-1.3-2.8-2.8c0-1.6,1.3-2.8,2.8-2.8h14.5
			c1.6,0,2.8,1.3,2.8,2.8C166,178.1,164.7,179.4,163.2,179.4z M148.7,175.2c-0.7,0-1.3,0.6-1.3,1.3c0,0.7,0.6,1.3,1.3,1.3h14.5
			c0.7,0,1.3-0.6,1.3-1.3c0-0.7-0.6-1.3-1.3-1.3H148.7z"/>
	</g>
	<g id="XMLID_223_" class="st4">
		<path id="XMLID_224_" class="st1" d="M186.2,191.6h-72.9c-1.6,0-2.8-1.3-2.8-2.8c0-1.6,1.3-2.8,2.8-2.8h72.9
			c1.6,0,2.8,1.3,2.8,2.8C189.1,190.3,187.8,191.6,186.2,191.6z M113.3,187.4c-0.7,0-1.3,0.6-1.3,1.3c0,0.7,0.6,1.3,1.3,1.3h72.9
			c0.7,0,1.3-0.6,1.3-1.3c0-0.7-0.6-1.3-1.3-1.3H113.3z"/>
	</g>
	<g id="XMLID_219_">
		<path id="XMLID_220_" class="st1" d="M104.3,48.5h-10c-0.4,0-0.8-0.3-0.8-0.8v-10c0-0.4,0.3-0.8,0.8-0.8h10c0.4,0,0.8,0.3,0.8,0.8
			v10C105,48.2,104.7,48.5,104.3,48.5z M95,47h8.5v-8.5H95V47z"/>
	</g>
	<g id="XMLID_215_">
		<path id="XMLID_216_" class="st1" d="M40.9,100.4h-4.2c-0.4,0-0.8-0.3-0.8-0.8v-4.2c0-0.4,0.3-0.8,0.8-0.8h4.2
			c0.4,0,0.8,0.3,0.8,0.8v4.2C41.7,100,41.3,100.4,40.9,100.4z M37.5,98.9h2.7v-2.7h-2.7V98.9z"/>
	</g>
	<g id="XMLID_211_">
		<path id="XMLID_212_" class="st1" d="M36.3,121.9h-4.2c-0.4,0-0.7-0.3-0.7-0.8v-4.2c0-0.4,0.3-0.8,0.7-0.8h4.2
			c0.4,0,0.8,0.3,0.8,0.8v4.2C37,121.6,36.7,121.9,36.3,121.9z M32.8,120.4h2.7v-2.7h-2.7V120.4z"/>
	</g>
	<g id="XMLID_207_">
		<path id="XMLID_208_" class="st1" d="M30.2,108.3H26c-0.4,0-0.8-0.3-0.8-0.8v-4.2c0-0.4,0.3-0.8,0.8-0.8h4.2
			c0.4,0,0.8,0.3,0.8,0.8v4.2C30.9,107.9,30.6,108.3,30.2,108.3z M26.7,106.8h2.7V104h-2.7V106.8z"/>
	</g>
	<g id="XMLID_203_">
		<path id="XMLID_204_" class="st1" d="M48.1,113.5h-4.2c-0.4,0-0.8-0.3-0.8-0.8v-4.2c0-0.4,0.3-0.8,0.8-0.8h4.2
			c0.4,0,0.8,0.3,0.8,0.8v4.2C48.8,113.1,48.5,113.5,48.1,113.5z M44.6,112h2.7v-2.7h-2.7V112z"/>
	</g>
	<g id="XMLID_199_">
		<path id="XMLID_200_" class="st1" d="M51.6,104.6h-4.2c-0.4,0-0.8-0.3-0.8-0.8v-4.2c0-0.4,0.3-0.8,0.8-0.8h4.2
			c0.4,0,0.8,0.3,0.8,0.8v4.2C52.4,104.3,52,104.6,51.6,104.6z M48.2,103.1h2.7v-2.7h-2.7V103.1z"/>
	</g>
	<g id="XMLID_195_" class="st3">
		<path id="XMLID_196_" class="st1" d="M188.9,29.5h-10c-0.4,0-0.8-0.3-0.8-0.8v-10c0-0.4,0.3-0.8,0.8-0.8h10c0.4,0,0.8,0.3,0.8,0.8
			v10C189.7,29.2,189.3,29.5,188.9,29.5z M179.7,28h8.5v-8.5h-8.5V28z"/>
	</g>
	<g id="XMLID_191_">
		<path id="XMLID_192_" class="st1" d="M207.3,48.5h-10c-0.4,0-0.8-0.3-0.8-0.8v-10c0-0.4,0.3-0.8,0.8-0.8h10c0.4,0,0.8,0.3,0.8,0.8
			v10C208.1,48.2,207.7,48.5,207.3,48.5z M198.1,47h8.5v-8.5h-8.5V47z"/>
	</g>
	<g id="XMLID_187_" class="st4">
		<path id="XMLID_188_" class="st1" d="M121.9,22.5h-8c-1.5,0-2.8-1.2-2.8-2.8v-12c0-1.5,1.2-2.8,2.8-2.8h12c1.5,0,2.7,1.2,2.7,2.8
			v8c0,0.4-0.3,0.7-0.7,0.7h-4c-0.7,0-1.2,0.6-1.2,1.2v4C122.6,22.2,122.3,22.5,121.9,22.5z M113.9,6.5c-0.7,0-1.2,0.6-1.2,1.2v12
			c0,0.7,0.6,1.2,1.2,1.2h7.3v-3.3c0-1.5,1.2-2.7,2.8-2.7h3.3V7.7c0-0.7-0.6-1.2-1.2-1.2H113.9z"/>
	</g>
	<g id="XMLID_183_" class="st0">
		<path id="XMLID_184_" class="st1" d="M139.9,36.5h-12c-1.5,0-2.8-1.2-2.8-2.8v-8c0-0.4,0.3-0.8,0.8-0.8h4c0.7,0,1.2-0.6,1.2-1.2
			v-4c0-0.4,0.3-0.8,0.8-0.8h8c1.5,0,2.8,1.2,2.8,2.8v12C142.7,35.3,141.5,36.5,139.9,36.5z M126.6,26.5v7.3c0,0.7,0.6,1.2,1.2,1.2
			h12c0.7,0,1.2-0.6,1.2-1.2v-12c0-0.7-0.6-1.2-1.2-1.2h-7.3v3.3c0,1.5-1.2,2.8-2.8,2.8H126.6z"/>
	</g>
	<g id="XMLID_179_">
		<path id="XMLID_180_" class="st1" d="M164.7,56.5h-12c-1.5,0-2.8-1.2-2.8-2.8v-12c0-1.5,1.2-2.8,2.8-2.8h12c1.5,0,2.8,1.2,2.8,2.8
			v12C167.5,55.3,166.2,56.5,164.7,56.5z M152.7,40.5c-0.7,0-1.2,0.6-1.2,1.2v12c0,0.7,0.6,1.2,1.2,1.2h12c0.7,0,1.2-0.6,1.2-1.2
			v-12c0-0.7-0.6-1.2-1.2-1.2H152.7z"/>
	</g>
	<g id="XMLID_177_">
		<path id="XMLID_178_" class="st1" d="M117.9,78.6c-0.4,0-0.8-0.3-0.8-0.8V59.1H99.3c-0.4,0-0.8-0.3-0.8-0.8V47.8
			c0-0.4,0.3-0.8,0.8-0.8s0.8,0.3,0.8,0.8v9.9h17.8c0.4,0,0.8,0.3,0.8,0.8v19.4C118.6,78.2,118.3,78.6,117.9,78.6z"/>
	</g>
	<g id="XMLID_175_">
		<path id="XMLID_176_" class="st1" d="M158.7,78.6c-0.4,0-0.8-0.3-0.8-0.8v-22c0-0.4,0.3-0.8,0.8-0.8s0.8,0.3,0.8,0.8v22
			C159.5,78.2,159.1,78.6,158.7,78.6z"/>
	</g>
	<g id="XMLID_173_">
		<path id="XMLID_174_" class="st1" d="M180.9,78.6c-0.4,0-0.8-0.3-0.8-0.8V58.7c0-0.4,0.3-0.8,0.8-0.8h20.6V47.8
			c0-0.4,0.3-0.8,0.8-0.8s0.8,0.3,0.8,0.8v10.9c0,0.4-0.3,0.8-0.8,0.8h-20.6v18.4C181.7,78.2,181.3,78.6,180.9,78.6z"/>
	</g>
	<g id="XMLID_171_">
		<path id="XMLID_172_" class="st1" d="M137.5,78.6c-0.4,0-0.8-0.3-0.8-0.8V63.5h-18.9c-0.4,0-0.8-0.3-0.8-0.8s0.3-0.8,0.8-0.8h19.6
			c0.4,0,0.8,0.3,0.8,0.8v15C138.2,78.2,137.9,78.6,137.5,78.6z"/>
	</g>
	<g id="XMLID_160_" class="st3">
		<path id="XMLID_161_" class="st1" d="M200.1,85.4h-6c-0.4,0-0.8-0.3-0.8-0.8s0.3-0.8,0.8-0.8h6c0.4,0,0.8,0.3,0.8,0.8
			S200.5,85.4,200.1,85.4z M188.1,85.4h-6c-0.4,0-0.8-0.3-0.8-0.8s0.3-0.8,0.8-0.8h6c0.4,0,0.8,0.3,0.8,0.8S188.5,85.4,188.1,85.4z
			 M176.1,85.4h-6c-0.4,0-0.8-0.3-0.8-0.8s0.3-0.8,0.8-0.8h6c0.4,0,0.8,0.3,0.8,0.8S176.5,85.4,176.1,85.4z M164.1,85.4h-6
			c-0.4,0-0.8-0.3-0.8-0.8s0.3-0.8,0.8-0.8h6c0.4,0,0.8,0.3,0.8,0.8S164.5,85.4,164.1,85.4z M152.1,85.4h-6c-0.4,0-0.8-0.3-0.8-0.8
			s0.3-0.8,0.8-0.8h6c0.4,0,0.8,0.3,0.8,0.8S152.5,85.4,152.1,85.4z M140.1,85.4h-6c-0.4,0-0.8-0.3-0.8-0.8s0.3-0.8,0.8-0.8h6
			c0.4,0,0.8,0.3,0.8,0.8S140.5,85.4,140.1,85.4z M128.1,85.4h-6c-0.4,0-0.8-0.3-0.8-0.8s0.3-0.8,0.8-0.8h6c0.4,0,0.8,0.3,0.8,0.8
			S128.5,85.4,128.1,85.4z M116.1,85.4h-6c-0.4,0-0.8-0.3-0.8-0.8s0.3-0.8,0.8-0.8h6c0.4,0,0.8,0.3,0.8,0.8S116.5,85.4,116.1,85.4z
			 M104.1,85.4h-6c-0.4,0-0.8-0.3-0.8-0.8s0.3-0.8,0.8-0.8h6c0.4,0,0.8,0.3,0.8,0.8S104.5,85.4,104.1,85.4z"/>
	</g>
	<g id="XMLID_153_" class="st3">
		<path id="XMLID_154_" class="st1" d="M155.4,94.7h-6c-0.4,0-0.8-0.3-0.8-0.8s0.3-0.8,0.8-0.8h6c0.4,0,0.8,0.3,0.8,0.8
			S155.8,94.7,155.4,94.7z M143.4,94.7h-6c-0.4,0-0.8-0.3-0.8-0.8s0.3-0.8,0.8-0.8h6c0.4,0,0.8,0.3,0.8,0.8S143.8,94.7,143.4,94.7z
			 M131.4,94.7h-6c-0.4,0-0.8-0.3-0.8-0.8s0.3-0.8,0.8-0.8h6c0.4,0,0.8,0.3,0.8,0.8S131.8,94.7,131.4,94.7z M119.4,94.7h-6
			c-0.4,0-0.8-0.3-0.8-0.8s0.3-0.8,0.8-0.8h6c0.4,0,0.8,0.3,0.8,0.8S119.8,94.7,119.4,94.7z M107.4,94.7h-6c-0.4,0-0.8-0.3-0.8-0.8
			s0.3-0.8,0.8-0.8h6c0.4,0,0.8,0.3,0.8,0.8S107.8,94.7,107.4,94.7z"/>
	</g>
	<g id="XMLID_148_" class="st3">
		<path id="XMLID_149_" class="st1" d="M179.8,103.3h-6c-0.4,0-0.8-0.3-0.8-0.8s0.3-0.8,0.8-0.8h6c0.4,0,0.8,0.3,0.8,0.8
			S180.3,103.3,179.8,103.3z M167.8,103.3h-6c-0.4,0-0.8-0.3-0.8-0.8s0.3-0.8,0.8-0.8h6c0.4,0,0.8,0.3,0.8,0.8
			S168.3,103.3,167.8,103.3z M155.8,103.3h-6c-0.4,0-0.8-0.3-0.8-0.8s0.3-0.8,0.8-0.8h6c0.4,0,0.8,0.3,0.8,0.8
			S156.3,103.3,155.8,103.3z"/>
	</g>
	<g id="XMLID_144_" class="st0">
		<path id="XMLID_145_" class="st1" d="M292.6,37.5c-0.1,0-0.2,0-0.3-0.1c-0.3-0.1-0.4-0.4-0.4-0.7v-3.2h-2c-1,0-1.8-0.8-1.8-1.8
			V19.4c0-1,0.8-1.8,1.8-1.8h21.6c1,0,1.8,0.8,1.8,1.8v12.3c0,1-0.8,1.8-1.8,1.8h-13.5l-4.8,3.8C292.9,37.5,292.8,37.5,292.6,37.5z
			 M289.8,19.2c-0.1,0-0.2,0.1-0.2,0.2v12.3c0,0.1,0.1,0.2,0.2,0.2h2.8c0.4,0,0.8,0.3,0.8,0.8v2.4l3.8-3c0.1-0.1,0.3-0.2,0.5-0.2
			h13.8c0.1,0,0.2-0.1,0.2-0.2V19.4c0-0.1-0.1-0.2-0.2-0.2H289.8z"/>
	</g>
	<g id="XMLID_140_" class="st0">
		<path id="XMLID_141_" class="st1" d="M261.6,44.5c-0.2,0-0.3-0.1-0.5-0.2l-4.8-3.8h-13.5c-1,0-1.8-0.8-1.8-1.8V26.4
			c0-1,0.8-1.8,1.8-1.8h21.6c1,0,1.8,0.8,1.8,1.8v12.3c0,1-0.8,1.8-1.8,1.8h-2.1l0,3.3c0,0.3-0.2,0.5-0.4,0.7
			C261.8,44.4,261.7,44.5,261.6,44.5z M242.8,26.1c-0.1,0-0.2,0.1-0.2,0.2v12.3c0,0.1,0.1,0.2,0.2,0.2h13.8c0.2,0,0.3,0.1,0.5,0.2
			l3.8,3l0-2.5c0-0.4,0.3-0.7,0.8-0.7h2.8c0.1,0,0.2-0.1,0.2-0.2V26.4c0-0.1-0.1-0.2-0.2-0.2H242.8z"/>
	</g>
	<path id="XMLID_133_" class="st5" d="M287.7,65.6c0-0.4-0.3-0.8-0.8-0.8H286V53.6c0,0,0-0.1,0-0.1s0-0.1,0-0.1v-4.9
		c0-4.9-4-8.8-8.8-8.8s-8.8,4-8.8,8.8v16.4h-0.9c-0.4,0-0.8,0.3-0.8,0.8v6.8c0,5,3,8.6,7.7,9.7v5.5h-6c-1,0-1.8,0.8-1.8,1.8v1.3
		c0,1,0.8,1.8,1.8,1.8H286c1,0,1.8-0.8,1.8-1.8v-1.3c0-1-0.8-1.8-1.8-1.8h-5.7V82c4.4-1.1,7.2-4.4,7.4-9c0,0,0,0,0-0.1c0,0,0,0,0,0
		c0-0.1,0-0.3,0-0.4V65.6z M269.9,62.4h6.8c0.4,0,0.8-0.3,0.8-0.8s-0.3-0.8-0.8-0.8h-6.8v-2.6h6.8c0.4,0,0.8-0.3,0.8-0.8
		s-0.3-0.8-0.8-0.8h-6.8v-2.6h6.8c0.4,0,0.8-0.3,0.8-0.8s-0.3-0.8-0.8-0.8h-6.8v-2.6h6.8c0.4,0,0.8-0.3,0.8-0.8s-0.3-0.8-0.8-0.8
		h-6.8v-0.2c0-4,3.3-7.3,7.3-7.3s7.3,3.3,7.3,7.3v0.2h-3.8c-0.4,0-0.8,0.3-0.8,0.8s0.3,0.8,0.8,0.8h3.8v2.6h-3.8
		c-0.4,0-0.8,0.3-0.8,0.8s0.3,0.8,0.8,0.8h3.8v2.6h-3.8c-0.4,0-0.8,0.3-0.8,0.8s0.3,0.8,0.8,0.8h3.8v2.6h-3.8
		c-0.4,0-0.8,0.3-0.8,0.8s0.3,0.8,0.8,0.8h3.8v2.4h-14.7V62.4z M269.1,66.4h16.2h0.9v5.8h-18.1v-5.8H269.1z M286.2,89.4v1.3
		c0,0.1-0.1,0.2-0.2,0.2h-17.6c-0.1,0-0.2-0.1-0.2-0.2v-1.3c0-0.1,0.1-0.2,0.2-0.2h6.7h4.4h6.5C286.1,89.1,286.2,89.2,286.2,89.4z
		 M278.8,87.6h-2.9v-5.3c0.4,0,0.9,0.1,1.3,0.1c0.5,0,1.1,0,1.6-0.1V87.6z M277.2,80.9c-5,0-8.4-2.8-9-7.2h17.9
		C285.6,78.1,282.2,80.9,277.2,80.9z"/>
	<g id="XMLID_131_" class="st2">
		<circle id="XMLID_132_" class="st1" cx="272.5" cy="69.4" r="0.8"/>
	</g>
	<g id="XMLID_129_" class="st2">
		<circle id="XMLID_130_" class="st1" cx="277.2" cy="69.4" r="0.8"/>
	</g>
	<g id="XMLID_127_" class="st2">
		<circle id="XMLID_128_" class="st1" cx="281.9" cy="69.4" r="0.8"/>
	</g>
	<g id="XMLID_125_" class="st6">
		<path id="XMLID_126_" class="st1" d="M296,74.2c-0.2,0-0.4-0.1-0.5-0.2c-0.3-0.3-0.3-0.8,0-1.1c1.3-1.3,2.1-3.1,2.1-5
			s-0.7-3.6-2.1-5c-0.3-0.3-0.3-0.8,0-1.1s0.8-0.3,1.1,0c1.6,1.6,2.5,3.8,2.5,6c0,2.3-0.9,4.4-2.5,6C296.4,74.2,296.2,74.2,296,74.2
			z"/>
	</g>
	<g id="XMLID_123_" class="st2">
		<path id="XMLID_124_" class="st1" d="M299.2,77.4c-0.2,0-0.4-0.1-0.5-0.2c-0.3-0.3-0.3-0.8,0-1.1c2.2-2.2,3.4-5,3.4-8.1
			c0-3.1-1.2-5.9-3.4-8.1c-0.3-0.3-0.3-0.8,0-1.1s0.8-0.3,1.1,0c2.4,2.4,3.8,5.7,3.8,9.2c0,3.5-1.3,6.7-3.8,9.2
			C299.6,77.3,299.4,77.4,299.2,77.4z"/>
	</g>
	<g id="XMLID_121_" class="st0">
		<path id="XMLID_122_" class="st1" d="M293,71.2c-0.2,0-0.4-0.1-0.5-0.2c-0.3-0.3-0.3-0.8,0-1.1c0.5-0.5,0.8-1.2,0.8-2
			s-0.3-1.4-0.8-2c-0.3-0.3-0.3-0.8,0-1.1s0.8-0.3,1.1,0c0.8,0.8,1.3,1.9,1.3,3c0,1.1-0.4,2.2-1.3,3C293.4,71.1,293.2,71.2,293,71.2
			z"/>
	</g>
	<g id="XMLID_119_" class="st6">
		<path id="XMLID_120_" class="st1" d="M258.3,74.2c-0.2,0-0.4-0.1-0.5-0.2c-1.6-1.6-2.5-3.8-2.5-6c0-2.3,0.9-4.4,2.5-6
			c0.3-0.3,0.8-0.3,1.1,0s0.3,0.8,0,1.1c-1.3,1.3-2.1,3.1-2.1,5s0.7,3.6,2.1,5c0.3,0.3,0.3,0.8,0,1.1
			C258.7,74.2,258.5,74.2,258.3,74.2z"/>
	</g>
	<g id="XMLID_117_" class="st2">
		<path id="XMLID_118_" class="st1" d="M255.2,77.4c-0.2,0-0.4-0.1-0.5-0.2c-2.4-2.4-3.8-5.7-3.8-9.2s1.3-6.7,3.8-9.2
			c0.3-0.3,0.8-0.3,1.1,0s0.3,0.8,0,1.1c-2.2,2.2-3.4,5-3.4,8.1c0,3.1,1.2,5.9,3.4,8.1c0.3,0.3,0.3,0.8,0,1.1
			C255.6,77.3,255.4,77.4,255.2,77.4z"/>
	</g>
	<g id="XMLID_115_" class="st0">
		<path id="XMLID_116_" class="st1" d="M261.3,71.2c-0.2,0-0.4-0.1-0.5-0.2c-0.8-0.8-1.3-1.9-1.3-3c0-1.1,0.4-2.2,1.3-3
			c0.3-0.3,0.8-0.3,1.1,0c0.3,0.3,0.3,0.8,0,1.1c-0.5,0.5-0.8,1.2-0.8,2c0,0.7,0.3,1.4,0.8,2c0.3,0.3,0.3,0.8,0,1.1
			C261.7,71.1,261.5,71.2,261.3,71.2z"/>
	</g>
	<g id="XMLID_113_">
		<path id="XMLID_114_" class="st1" d="M293.5,29.5c-0.4,0-0.8-0.3-0.8-0.8v-6.3c0-0.4,0.3-0.8,0.8-0.8s0.8,0.3,0.8,0.8v6.3
			C294.2,29.2,293.9,29.5,293.5,29.5z"/>
	</g>
	<g id="XMLID_111_" class="st7">
		<path id="XMLID_112_" class="st1" d="M296.5,29.5c-0.4,0-0.8-0.3-0.8-0.8v-3.4c0-0.4,0.3-0.8,0.8-0.8s0.8,0.3,0.8,0.8v3.4
			C297.2,29.2,296.9,29.5,296.5,29.5z"/>
	</g>
	<g id="XMLID_109_">
		<path id="XMLID_110_" class="st1" d="M299.5,29.5c-0.4,0-0.8-0.3-0.8-0.8v-5c0-0.4,0.3-0.8,0.8-0.8s0.8,0.3,0.8,0.8v5
			C300.2,29.2,299.9,29.5,299.5,29.5z"/>
	</g>
	<g id="XMLID_107_" class="st3">
		<path id="XMLID_108_" class="st1" d="M302.5,29.5c-0.4,0-0.8-0.3-0.8-0.8v-1.7c0-0.4,0.3-0.8,0.8-0.8s0.8,0.3,0.8,0.8v1.7
			C303.2,29.2,302.9,29.5,302.5,29.5z"/>
	</g>
	<g id="XMLID_105_">
		<path id="XMLID_106_" class="st1" d="M305.5,29.5c-0.4,0-0.8-0.3-0.8-0.8v-6.6c0-0.4,0.3-0.8,0.8-0.8s0.8,0.3,0.8,0.8v6.6
			C306.2,29.2,305.9,29.5,305.5,29.5z"/>
	</g>
	<g id="XMLID_103_" class="st7">
		<path id="XMLID_104_" class="st1" d="M308.5,29.5c-0.4,0-0.8-0.3-0.8-0.8v-3.1c0-0.4,0.3-0.8,0.8-0.8s0.8,0.3,0.8,0.8v3.1
			C309.2,29.2,308.9,29.5,308.5,29.5z"/>
	</g>
	<g id="XMLID_101_">
		<path id="XMLID_102_" class="st1" d="M246.5,37c-0.4,0-0.8-0.3-0.8-0.8v-6.3c0-0.4,0.3-0.8,0.8-0.8s0.8,0.3,0.8,0.8v6.3
			C247.2,36.7,246.9,37,246.5,37z"/>
	</g>
	<g id="XMLID_99_" class="st7">
		<path id="XMLID_100_" class="st1" d="M249.5,37c-0.4,0-0.8-0.3-0.8-0.8v-3.4c0-0.4,0.3-0.8,0.8-0.8s0.8,0.3,0.8,0.8v3.4
			C250.2,36.7,249.9,37,249.5,37z"/>
	</g>
	<g id="XMLID_97_">
		<path id="XMLID_98_" class="st1" d="M252.5,37c-0.4,0-0.8-0.3-0.8-0.8v-5c0-0.4,0.3-0.8,0.8-0.8s0.8,0.3,0.8,0.8v5
			C253.2,36.7,252.9,37,252.5,37z"/>
	</g>
	<g id="XMLID_95_" class="st3">
		<path id="XMLID_96_" class="st1" d="M255.5,37c-0.4,0-0.8-0.3-0.8-0.8v-1.7c0-0.4,0.3-0.8,0.8-0.8s0.7,0.3,0.7,0.8v1.7
			C256.2,36.7,255.9,37,255.5,37z"/>
	</g>
	<g id="XMLID_93_">
		<path id="XMLID_94_" class="st1" d="M258.5,37c-0.4,0-0.8-0.3-0.8-0.8v-6.6c0-0.4,0.3-0.8,0.8-0.8s0.8,0.3,0.8,0.8v6.6
			C259.2,36.7,258.9,37,258.5,37z"/>
	</g>
	<g id="XMLID_91_" class="st7">
		<path id="XMLID_92_" class="st1" d="M261.5,37c-0.4,0-0.8-0.3-0.8-0.8v-3.1c0-0.4,0.3-0.8,0.8-0.8s0.8,0.3,0.8,0.8v3.1
			C262.2,36.7,261.9,37,261.5,37z"/>
	</g>
	<g id="XMLID_79_">
		<path id="XMLID_80_" class="st1" d="M309.5,159.2h-2.9c-0.4,0-0.8-0.3-0.8-0.8s0.3-0.8,0.8-0.8h2.2l0.5-2.5
			c0.1-0.4,0.5-0.7,0.9-0.6c0.4,0.1,0.7,0.5,0.6,0.9l-0.6,3.1C310.1,158.9,309.8,159.2,309.5,159.2z M300.6,159.2h-6
			c-0.4,0-0.8-0.3-0.8-0.8s0.3-0.8,0.8-0.8h6c0.4,0,0.8,0.3,0.8,0.8S301,159.2,300.6,159.2z M311.2,150.2c0,0-0.1,0-0.1,0
			c-0.4-0.1-0.7-0.5-0.6-0.9l1.1-5.9c0.1-0.4,0.5-0.7,0.9-0.6c0.4,0.1,0.7,0.5,0.6,0.9l-1.1,5.9C311.8,150,311.5,150.2,311.2,150.2z
			 M313.4,138.4c0,0-0.1,0-0.1,0c-0.4-0.1-0.7-0.5-0.6-0.9l1.1-5.9c0.1-0.4,0.5-0.7,0.9-0.6c0.4,0.1,0.7,0.5,0.6,0.9l-1.1,5.9
			C314.1,138.2,313.8,138.4,313.4,138.4z M315.7,126.6c0,0-0.1,0-0.1,0c-0.4-0.1-0.7-0.5-0.6-0.9l1.1-5.9c0.1-0.4,0.5-0.7,0.9-0.6
			c0.4,0.1,0.7,0.5,0.6,0.9l-1.1,5.9C316.3,126.4,316,126.6,315.7,126.6z M317.9,114.8c0,0-0.1,0-0.1,0c-0.4-0.1-0.7-0.5-0.6-0.9
			l1.1-5.9c0.1-0.4,0.5-0.7,0.9-0.6c0.4,0.1,0.7,0.5,0.6,0.9l-1.1,5.9C318.6,114.6,318.2,114.8,317.9,114.8z M320.1,103.1
			c0,0-0.1,0-0.1,0c-0.4-0.1-0.7-0.5-0.6-0.9l1.1-5.9c0.1-0.4,0.5-0.7,0.9-0.6c0.4,0.1,0.7,0.5,0.6,0.9l-1.1,5.9
			C320.8,102.8,320.5,103.1,320.1,103.1z M322.4,91.3c0,0-0.1,0-0.1,0c-0.3-0.1-0.5-0.2-0.6-0.5H317c-0.4,0-0.8-0.3-0.8-0.8
			s0.3-0.8,0.8-0.8h5.5c0.2,0,0.4,0.1,0.6,0.3c0.1,0.2,0.2,0.4,0.2,0.6l-0.1,0.5C323,91,322.7,91.3,322.4,91.3z M311,90.8h-6
			c-0.4,0-0.8-0.3-0.8-0.8s0.3-0.8,0.8-0.8h6c0.4,0,0.8,0.3,0.8,0.8S311.4,90.8,311,90.8z M299,90.8h-6c-0.4,0-0.8-0.3-0.8-0.8
			s0.3-0.8,0.8-0.8h6c0.4,0,0.8,0.3,0.8,0.8S299.4,90.8,299,90.8z"/>
	</g>
	<g id="XMLID_75_">
		<path id="XMLID_76_" class="st1" d="M286.6,187.4H276c-2.5,0-4.6-2-4.7-4.5l-7-8.6c-0.5-0.6-0.8-1.4-0.7-2.3
			c0.1-0.8,0.5-1.6,1.1-2.1c0.6-0.5,1.4-0.8,2.3-0.7c0.8,0.1,1.6,0.5,2.1,1.1l2.2,2.7v-2.7c0,0,0-0.2,0-0.2c0,0,0-0.1,0-0.1V158
			c0-1.7,1.4-3.1,3.1-3.1c1.7,0,3.1,1.4,3.1,3.1v5.8c0.5-0.3,1-0.4,1.6-0.4c0.9,0,1.8,0.4,2.3,1.1c0.6-0.7,1.4-1.1,2.3-1.1
			s1.8,0.4,2.3,1.1c0.6-0.7,1.4-1.1,2.3-1.1c1.7,0,3.1,1.4,3.1,3.1v16.3C291.4,185.3,289.3,187.4,286.6,187.4z M266.6,170.8
			c-0.4,0-0.7,0.1-1,0.4c-0.3,0.3-0.5,0.6-0.6,1.1s0.1,0.8,0.3,1.2l7.2,8.8c0.1,0.1,0.2,0.3,0.2,0.5c0,1.8,1.5,3.3,3.2,3.3h10.7
			c1.8,0,3.2-1.5,3.2-3.2v-16.3c0-0.9-0.7-1.6-1.6-1.6c-0.9,0-1.6,0.7-1.6,1.6c0,0.4-0.3,0.8-0.8,0.8s-0.8-0.3-0.8-0.8
			c0-0.9-0.7-1.6-1.6-1.6c-0.9,0-1.6,0.7-1.6,1.6c0,0.4-0.3,0.8-0.8,0.8s-0.8-0.3-0.8-0.8c0-0.9-0.7-1.6-1.6-1.6s-1.6,0.7-1.6,1.6
			c0,0.4-0.3,0.8-0.8,0.8s-0.8-0.3-0.8-0.8V158c0-0.9-0.7-1.6-1.6-1.6c-0.9,0-1.6,0.7-1.6,1.6l0,12.3c0,0.1,0,0.2,0,0.2v4.8
			c0,0.3-0.2,0.6-0.5,0.7c-0.3,0.1-0.6,0-0.8-0.2l-3.5-4.4C267.5,171,267.1,170.8,266.6,170.8z"/>
	</g>
	<g id="XMLID_73_" class="st2">
		<path id="XMLID_74_" class="st1" d="M264.8,171.6c-0.2,0-0.3,0-0.4-0.1c-4.2-3.1-6.8-8.2-6.8-13.4c0-9.2,7.5-16.7,16.7-16.7
			c9.2,0,16.7,7.5,16.7,16.7c0,2.2-0.4,4.3-1.2,6.3c-0.2,0.4-0.6,0.6-1,0.4c-0.4-0.2-0.6-0.6-0.4-1c0.7-1.8,1.1-3.7,1.1-5.7
			c0-8.4-6.8-15.2-15.2-15.2c-8.4,0-15.2,6.8-15.2,15.2c0,4.8,2.3,9.4,6.2,12.2c0.3,0.2,0.4,0.7,0.2,1
			C265.2,171.5,265,171.6,264.8,171.6z"/>
	</g>
	<g id="XMLID_71_" class="st4">
		<path id="XMLID_72_" class="st1" d="M267.5,149.2c-0.2,0-0.5-0.1-0.6-0.3c-0.2-0.3-0.2-0.8,0.2-1c2.1-1.5,4.6-2.3,7.2-2.3
			c1.9,0,3.8,0.4,5.5,1.3c0.4,0.2,0.5,0.6,0.3,1c-0.2,0.4-0.6,0.5-1,0.3c-1.5-0.7-3.2-1.1-4.9-1.1c-2.3,0-4.5,0.7-6.3,2
			C267.8,149.1,267.6,149.2,267.5,149.2z"/>
	</g>
	<g id="XMLID_69_" class="st4">
		<path id="XMLID_70_" class="st1" d="M263.1,162.6c-0.3,0-0.6-0.2-0.7-0.5c-0.4-1.3-0.6-2.6-0.6-4c0-1.5,0.2-2.9,0.7-4.2
			c0.1-0.4,0.6-0.6,1-0.5c0.4,0.1,0.6,0.6,0.5,1c-0.4,1.2-0.6,2.4-0.6,3.7c0,1.2,0.2,2.4,0.6,3.5c0.1,0.4-0.1,0.8-0.5,0.9
			C263.2,162.5,263.2,162.6,263.1,162.6z"/>
	</g>
	<g id="XMLID_67_" class="st4">
		<path id="XMLID_68_" class="st1" d="M271.9,170.3c0,0-0.1,0-0.2,0c-0.6-0.1-1.1-0.3-1.7-0.5c-1.1-0.4-2.1-0.9-3.1-1.6
			c-0.3-0.2-0.4-0.7-0.2-1c0.2-0.3,0.7-0.4,1-0.2c0.8,0.6,1.8,1.1,2.7,1.4c0.5,0.2,1,0.3,1.5,0.4c0.4,0.1,0.7,0.5,0.6,0.9
			C272.5,170.1,272.2,170.3,271.9,170.3z"/>
	</g>
	<g id="XMLID_65_" class="st4">
		<path id="XMLID_66_" class="st1" d="M285.4,162.6c-0.1,0-0.2,0-0.2,0c-0.4-0.1-0.6-0.6-0.5-1c0.4-1.1,0.6-2.4,0.6-3.6
			c0-2.2-0.6-4.3-1.8-6.1c-0.2-0.3-0.1-0.8,0.2-1c0.3-0.2,0.8-0.1,1,0.2c1.4,2.1,2.1,4.4,2.1,6.9c0,1.4-0.2,2.8-0.7,4.1
			C286,162.4,285.7,162.6,285.4,162.6z"/>
	</g>
	<g id="XMLID_63_" class="st0">
		<path id="XMLID_64_" class="st1" d="M271.7,165.1c-0.1,0-0.2,0-0.3-0.1c-2.9-1.2-4.8-4-4.8-7.1c0-4.2,3.4-7.6,7.6-7.6
			c4.2,0,7.6,3.4,7.6,7.6c0,0.7-0.1,1.4-0.3,2.1c-0.1,0.4-0.5,0.6-0.9,0.5c-0.4-0.1-0.6-0.5-0.5-0.9c0.1-0.5,0.2-1.1,0.2-1.7
			c0-3.4-2.8-6.1-6.1-6.1c-3.4,0-6.1,2.8-6.1,6.1c0,2.5,1.5,4.8,3.9,5.7c0.4,0.2,0.6,0.6,0.4,1C272.3,164.9,272,165.1,271.7,165.1z"
			/>
	</g>
	<g id="XMLID_56_">
		<path id="XMLID_57_" class="st1" d="M219.9,177.4c-0.4,0-0.8-0.3-0.8-0.8c0-0.2,0.1-0.4,0.2-0.5l3.5-4.7c0.2-0.3,0.7-0.4,1.1-0.1
			c0.3,0.2,0.4,0.7,0.1,1.1l-3.6,4.8C220.4,177.2,220.1,177.4,219.9,177.4z M213.9,177.3C213.9,177.3,213.9,177.3,213.9,177.3l-6,0
			c-0.4,0-0.7-0.3-0.7-0.8c0-0.4,0.3-0.7,0.8-0.7c0,0,0,0,0,0l6,0c0.4,0,0.7,0.3,0.7,0.8C214.6,177,214.3,177.3,213.9,177.3z
			 M227.1,167.8c-0.2,0-0.3,0-0.5-0.2c-0.3-0.2-0.4-0.7-0.1-1.1l3.6-4.8c0.2-0.3,0.7-0.4,1.1-0.1c0.3,0.2,0.4,0.7,0.1,1.1l-3.6,4.8
			C227.6,167.7,227.3,167.8,227.1,167.8z M252.8,159.2h-6c-0.4,0-0.8-0.3-0.8-0.8s0.3-0.8,0.8-0.8h6c0.4,0,0.8,0.3,0.8,0.8
			S253.2,159.2,252.8,159.2z M240.8,159.2h-6c-0.4,0-0.8-0.3-0.8-0.8s0.3-0.8,0.8-0.8h6c0.4,0,0.8,0.3,0.8,0.8
			S241.2,159.2,240.8,159.2z"/>
	</g>
	<path id="XMLID_50_" class="st5" d="M62.2,101.6c0-12.9-10.5-23.4-23.4-23.4s-23.4,10.5-23.4,23.4c0,9.2,5.4,17.5,13.7,21.3v3.9
		c-1.4,0.2-2.4,1.3-2.4,2.7v2.1c0,1.5,1.2,2.8,2.8,2.8h0.3v3v1.7c0,1.5,1.2,2.8,2.7,2.8h12.5c1.5,0,2.8-1.2,2.8-2.8v-1.7v-3h0.3
		c1.5,0,2.8-1.2,2.8-2.8v-2.1c0-1.4-1.1-2.5-2.4-2.7v-3.9C56.9,119.1,62.2,110.7,62.2,101.6z M16.9,101.6c0-12.1,9.8-21.9,21.9-21.9
		s21.9,9.8,21.9,21.9c0,8.8-5.2,16.7-13.3,20.1c-0.3,0.1-0.5,0.4-0.5,0.7v4.4H30.6v-4.4c0-0.3-0.2-0.6-0.5-0.7
		C22.1,118.2,16.9,110.3,16.9,101.6z M46.3,139c0,0.7-0.6,1.2-1.2,1.2H32.5c-0.7,0-1.2-0.6-1.2-1.2v-1h15V139z M46.3,136.6h-15v-2.2
		h15V136.6z M49.4,129.5v2.1c0,0.7-0.6,1.2-1.2,1.2h-1.1H30.5h-1.1c-0.7,0-1.2-0.6-1.2-1.2v-2.1c0-0.7,0.6-1.2,1.2-1.2h0.4h17.9h0.4
		C48.9,128.2,49.4,128.8,49.4,129.5z"/>
	<g id="XMLID_48_" class="st4">
		<path id="XMLID_49_" class="st1" d="M38.8,75.3c-0.4,0-0.8-0.3-0.8-0.8v-6.1c0-0.4,0.3-0.8,0.8-0.8s0.8,0.3,0.8,0.8v6.1
			C39.6,74.9,39.2,75.3,38.8,75.3z"/>
	</g>
	<g id="XMLID_46_" class="st4">
		<path id="XMLID_47_" class="st1" d="M29.6,76.9c-0.3,0-0.6-0.2-0.7-0.5l-2.1-5.7c-0.1-0.4,0.1-0.8,0.4-1c0.4-0.1,0.8,0.1,1,0.4
			l2.1,5.7c0.1,0.4-0.1,0.8-0.4,1C29.7,76.9,29.7,76.9,29.6,76.9z"/>
	</g>
	<g id="XMLID_44_" class="st4">
		<path id="XMLID_45_" class="st1" d="M21.4,81.6c-0.2,0-0.4-0.1-0.6-0.3L17,76.7c-0.3-0.3-0.2-0.8,0.1-1.1c0.3-0.3,0.8-0.2,1.1,0.1
			l3.9,4.7c0.3,0.3,0.2,0.8-0.1,1.1C21.8,81.5,21.6,81.6,21.4,81.6z"/>
	</g>
	<g id="XMLID_42_" class="st4">
		<path id="XMLID_43_" class="st1" d="M15.4,88.8c-0.1,0-0.3,0-0.4-0.1l-5.3-3c-0.4-0.2-0.5-0.7-0.3-1s0.7-0.5,1-0.3l5.3,3
			c0.4,0.2,0.5,0.7,0.3,1C15.9,88.7,15.7,88.8,15.4,88.8z"/>
	</g>
	<g id="XMLID_40_" class="st2">
		<path id="XMLID_41_" class="st1" d="M12.2,97.6c0,0-0.1,0-0.1,0l-6-1.1c-0.4-0.1-0.7-0.5-0.6-0.9c0.1-0.4,0.5-0.7,0.9-0.6l6,1.1
			c0.4,0.1,0.7,0.5,0.6,0.9C12.9,97.4,12.6,97.6,12.2,97.6z"/>
	</g>
	<g id="XMLID_38_" class="st2">
		<path id="XMLID_39_" class="st1" d="M6.2,108.1c-0.4,0-0.7-0.3-0.7-0.6c-0.1-0.4,0.2-0.8,0.6-0.9l6-1.1c0.4-0.1,0.8,0.2,0.9,0.6
			c0.1,0.4-0.2,0.8-0.6,0.9l-6,1.1C6.3,108.1,6.2,108.1,6.2,108.1z"/>
	</g>
	<g id="XMLID_36_" class="st2">
		<path id="XMLID_37_" class="st1" d="M10.1,118.9c-0.3,0-0.5-0.1-0.6-0.4c-0.2-0.4-0.1-0.8,0.3-1l5.3-3c0.4-0.2,0.8-0.1,1,0.3
			c0.2,0.4,0.1,0.8-0.3,1l-5.3,3C10.4,118.8,10.3,118.9,10.1,118.9z"/>
	</g>
	<g id="XMLID_34_" class="st2">
		<path id="XMLID_35_" class="st1" d="M17.5,127.7c-0.2,0-0.3-0.1-0.5-0.2c-0.3-0.3-0.4-0.7-0.1-1.1l3.9-4.7
			c0.3-0.3,0.7-0.4,1.1-0.1c0.3,0.3,0.4,0.7,0.1,1.1l-3.9,4.7C18,127.6,17.7,127.7,17.5,127.7z"/>
	</g>
	<g id="XMLID_32_" class="st4">
		<path id="XMLID_33_" class="st1" d="M60.1,127.7c-0.2,0-0.4-0.1-0.6-0.3l-3.9-4.7c-0.3-0.3-0.2-0.8,0.1-1.1
			c0.3-0.3,0.8-0.2,1.1,0.1l3.9,4.7c0.3,0.3,0.2,0.8-0.1,1.1C60.4,127.6,60.3,127.7,60.1,127.7z"/>
	</g>
	<g id="XMLID_30_" class="st4">
		<path id="XMLID_31_" class="st1" d="M67.5,118.9c-0.1,0-0.3,0-0.4-0.1l-5.3-3c-0.4-0.2-0.5-0.7-0.3-1c0.2-0.4,0.7-0.5,1-0.3l5.3,3
			c0.4,0.2,0.5,0.7,0.3,1C68,118.7,67.8,118.9,67.5,118.9z"/>
	</g>
	<g id="XMLID_28_" class="st4">
		<path id="XMLID_29_" class="st1" d="M71.4,108.1c0,0-0.1,0-0.1,0l-6-1.1c-0.4-0.1-0.7-0.5-0.6-0.9c0.1-0.4,0.5-0.7,0.9-0.6l6,1.1
			c0.4,0.1,0.7,0.5,0.6,0.9C72.1,107.8,71.8,108.1,71.4,108.1z"/>
	</g>
	<g id="XMLID_26_">
		<path id="XMLID_27_" class="st1" d="M65.4,97.6c-0.4,0-0.7-0.3-0.7-0.6c-0.1-0.4,0.2-0.8,0.6-0.9l6-1.1c0.4-0.1,0.8,0.2,0.9,0.6
			c0.1,0.4-0.2,0.8-0.6,0.9l-6,1.1C65.5,97.6,65.5,97.6,65.4,97.6z"/>
	</g>
	<g id="XMLID_24_">
		<path id="XMLID_25_" class="st1" d="M62.2,88.8c-0.3,0-0.5-0.1-0.6-0.4c-0.2-0.4-0.1-0.8,0.3-1l5.3-3c0.4-0.2,0.8-0.1,1,0.3
			s0.1,0.8-0.3,1l-5.3,3C62.5,88.8,62.3,88.8,62.2,88.8z"/>
	</g>
	<g id="XMLID_22_">
		<path id="XMLID_23_" class="st1" d="M56.2,81.6c-0.2,0-0.3-0.1-0.5-0.2c-0.3-0.3-0.4-0.7-0.1-1.1l3.9-4.7c0.3-0.3,0.7-0.4,1.1-0.1
			c0.3,0.3,0.4,0.7,0.1,1.1l-3.9,4.7C56.6,81.5,56.4,81.6,56.2,81.6z"/>
	</g>
	<g id="XMLID_20_">
		<path id="XMLID_21_" class="st1" d="M48.1,76.9c-0.1,0-0.2,0-0.3,0c-0.4-0.1-0.6-0.6-0.4-1l2.1-5.7c0.1-0.4,0.6-0.6,1-0.4
			c0.4,0.1,0.6,0.6,0.4,1l-2.1,5.7C48.7,76.7,48.4,76.9,48.1,76.9z"/>
	</g>
	<g id="XMLID_18_">
		<path id="XMLID_19_" class="st1" d="M44.1,128.2c-0.4,0-0.8-0.3-0.8-0.7v-9l-13.6-10.4c-0.3-0.3-0.4-0.7-0.1-1.1
			c0.3-0.3,0.7-0.4,1.1-0.1l13.9,10.6c0.2,0.1,0.3,0.4,0.3,0.6v9.4C44.8,127.9,44.5,128.2,44.1,128.2z"/>
	</g>
	<g id="XMLID_16_">
		<path id="XMLID_17_" class="st1" d="M38.8,128.2c-0.4,0-0.8-0.3-0.8-0.7v-7.8c0-0.4,0.3-0.8,0.8-0.8s0.8,0.3,0.8,0.8v7.8
			C39.6,127.9,39.2,128.2,38.8,128.2z"/>
	</g>
	<g id="XMLID_14_">
		<path id="XMLID_15_" class="st1" d="M38.8,108.1c-0.4,0-0.8-0.3-0.8-0.8v-7.7c0-0.4,0.3-0.8,0.8-0.8s0.8,0.3,0.8,0.8v7.7
			C39.6,107.7,39.2,108.1,38.8,108.1z"/>
	</g>
	<g id="XMLID_12_">
		<path id="XMLID_13_" class="st1" d="M34.2,127.7c-0.4,0-0.8-0.3-0.8-0.8v-5.8c0-0.4,0.3-0.8,0.8-0.8s0.8,0.3,0.8,0.8v5.8
			C34.9,127.3,34.6,127.7,34.2,127.7z"/>
	</g>
	<g id="XMLID_3_">
		<path id="XMLID_4_" class="st1" d="M95.9,181.5h-6c-0.4,0-0.8-0.3-0.8-0.8s0.3-0.8,0.8-0.8h6c0.4,0,0.8,0.3,0.8,0.8
			S96.4,181.5,95.9,181.5z M83.9,181.5h-6c-0.4,0-0.8-0.3-0.8-0.8s0.3-0.8,0.8-0.8h6c0.4,0,0.8,0.3,0.8,0.8S84.4,181.5,83.9,181.5z
			 M72.2,180.3c-0.1,0-0.3,0-0.4-0.1l-5.2-3c-0.4-0.2-0.5-0.7-0.3-1c0.2-0.4,0.7-0.5,1-0.3l5.2,3c0.4,0.2,0.5,0.7,0.3,1
			C72.8,180.2,72.5,180.3,72.2,180.3z M61.8,174.4c-0.1,0-0.3,0-0.4-0.1l-5.2-3c-0.4-0.2-0.5-0.7-0.3-1c0.2-0.4,0.7-0.5,1-0.3l5.2,3
			c0.4,0.2,0.5,0.7,0.3,1C62.3,174.2,62.1,174.4,61.8,174.4z M51.4,168.5c-0.1,0-0.3,0-0.4-0.1l-5.2-3c-0.4-0.2-0.5-0.7-0.3-1
			c0.2-0.4,0.7-0.5,1-0.3l5.2,3c0.4,0.2,0.5,0.7,0.3,1C51.9,168.3,51.6,168.5,51.4,168.5z M40.9,162.5c-0.1,0-0.3,0-0.4-0.1
			l-2.1-1.2c-0.2-0.1-0.4-0.4-0.4-0.7V157c0-0.4,0.3-0.8,0.8-0.8s0.8,0.3,0.8,0.8v3.1l1.7,1c0.4,0.2,0.5,0.7,0.3,1
			C41.4,162.4,41.2,162.5,40.9,162.5z M38.8,151.8c-0.4,0-0.8-0.3-0.8-0.8v-6c0-0.4,0.3-0.8,0.8-0.8s0.8,0.3,0.8,0.8v6
			C39.6,151.4,39.2,151.8,38.8,151.8z"/>
	</g>
</g>
</svg>
