<?xml version="1.0" encoding="UTF-8"?>
<svg width="1425px" height="230px" viewBox="0 0 1425 230" version="1.1" xmlns="http://www.w3.org/2000/svg" xmlns:xlink="http://www.w3.org/1999/xlink">
    <!-- Generator: Sketch 47 (45396) - http://www.bohemiancoding.com/sketch -->
    <title>Group</title>
    <desc>Created with Sketch.</desc>
    <defs></defs>
    <g id="Page-5" stroke="none" stroke-width="1" fill="none" fill-rule="evenodd" opacity="0.16">
        <g id="博客banner" transform="translate(-10.000000, -128.000000)" fill="#3670E3">
            <g id="Group" transform="translate(10.000000, 128.000000)">
                <path d="M962.039496,185.090038 C958.867496,185.090038 955.816496,186.170038 953.323496,188.200038 C950.454496,190.536038 948.666496,193.850038 948.289496,197.529038 C947.911496,201.210038 948.990496,204.816038 951.325496,207.683038 C953.661496,210.552038 956.974496,212.339038 960.654496,212.715038 C964.333496,213.093038 967.941496,212.012038 970.809496,209.675038 C973.678496,207.340038 975.465496,204.028038 975.841496,200.349038 C976.218496,196.669038 975.138496,193.064038 972.802496,190.195038 C970.467496,187.327038 967.154496,185.540038 963.476496,185.163038 C962.995496,185.114038 962.516496,185.090038 962.039496,185.090038 M962.095496,215.789038 C961.516496,215.789038 960.933496,215.759038 960.349496,215.699038 C955.871496,215.241038 951.840496,213.068038 948.999496,209.577038 C946.157496,206.089038 944.846496,201.701038 945.305496,197.224038 C945.764496,192.746038 947.938496,188.716038 951.429496,185.874038 C954.918496,183.032038 959.309496,181.726038 963.781496,182.179038 C968.258496,182.637038 972.287496,184.812038 975.128496,188.301038 C977.970496,191.790038 979.283496,196.178038 978.825496,200.654038 C978.367496,205.131038 976.193496,209.161038 972.702496,212.001038 C969.669496,214.473038 965.956496,215.789038 962.095496,215.789038 M948.350496,215.312038 C948.676496,215.312038 948.998496,215.418038 949.265496,215.623038 C951.050496,216.996038 953.031496,218.066038 955.153496,218.801038 C955.647496,218.972038 956.018496,219.389038 956.128496,219.901038 C956.703496,222.557038 958.144496,224.738038 959.410496,224.868038 C960.674496,224.989038 962.526496,223.153038 963.630496,220.667038 C963.843496,220.190038 964.289496,219.857038 964.808496,219.789038 C967.029496,219.500038 969.185496,218.854038 971.219496,217.868038 C971.688496,217.641038 972.245496,217.673038 972.685496,217.956038 C974.974496,219.429038 977.540496,219.953038 978.524496,219.151038 C979.509496,218.348038 979.515496,215.731038 978.536496,213.193038 C978.348496,212.704038 978.428496,212.153038 978.746496,211.738038 C980.123496,209.946038 981.192496,207.966038 981.924496,205.852038 C982.096496,205.357038 982.512496,204.987038 983.023496,204.876038 C985.681496,204.299038 987.863496,202.858038 987.992496,201.594038 C988.122496,200.329038 986.277496,198.475038 983.793496,197.372038 C983.314496,197.160038 982.981496,196.714038 982.914496,196.195038 C982.623496,193.970038 981.977496,191.812038 980.995496,189.782038 C980.768496,189.312038 980.802496,188.757038 981.084496,188.318038 C982.556496,186.030038 983.079496,183.468038 982.275496,182.483038 C981.474496,181.495038 978.858496,181.488038 976.319496,182.466038 C975.833496,182.654038 975.282496,182.574038 974.866496,182.256038 C973.078496,180.882038 971.097496,179.813038 968.976496,179.078038 C968.482496,178.907038 968.113496,178.491038 968.002496,177.980038 C967.424496,175.322038 965.981496,173.138038 964.718496,173.008038 C963.432496,172.886038 961.600496,174.725038 960.497496,177.210038 C960.285496,177.689038 959.839496,178.022038 959.319496,178.089038 C957.095496,178.379038 954.937496,179.025038 952.908496,180.009038 C952.439496,180.236038 951.882496,180.206038 951.441496,179.920038 C949.156496,178.448038 946.594496,177.923038 945.606496,178.727038 C944.620496,179.529038 944.614496,182.147038 945.593496,184.685038 C945.781496,185.172038 945.701496,185.724038 945.383496,186.138038 C944.009496,187.925038 942.938496,189.907038 942.201496,192.029038 C942.029496,192.524038 941.613496,192.893038 941.102496,193.003038 C938.445496,193.578038 936.264496,195.018038 936.135496,196.281038 C936.006496,197.548038 937.851496,199.403038 940.336496,200.506038 C940.814496,200.718038 941.147496,201.164038 941.215496,201.684038 C941.505496,203.910038 942.150496,206.067038 943.134496,208.092038 C943.362496,208.564038 943.329496,209.119038 943.045496,209.560038 C941.573496,211.846038 941.049496,214.409038 941.852496,215.398038 C942.654496,216.383038 945.271496,216.388038 947.810496,215.412038 C947.985496,215.345038 948.168496,215.312038 948.350496,215.312038 M959.557496,227.876038 C959.406496,227.876038 959.256496,227.868038 959.103496,227.853038 C956.116496,227.546038 954.223496,224.323038 953.397496,221.353038 C951.516496,220.627038 949.738496,219.667038 948.096496,218.490038 C945.154496,219.433038 941.420496,219.619038 939.525496,217.290038 C937.630496,214.961038 938.570496,211.341038 940.088496,208.655038 C939.268496,206.810038 938.689496,204.874038 938.360496,202.885038 C935.618496,201.474038 932.846496,198.964038 933.150496,195.977038 C933.455496,192.991038 936.678496,191.098038 939.650496,190.273038 C940.377496,188.392038 941.337496,186.613038 942.514496,184.970038 C941.571496,182.031038 941.384496,178.296038 943.712496,176.401038 C946.042496,174.503038 949.661496,175.444038 952.346496,176.963038 C954.194496,176.144038 956.130496,175.564038 958.118496,175.235038 C959.528496,172.491038 962.053496,169.712038 965.023496,170.024038 C968.009496,170.331038 969.903496,173.555038 970.731496,176.527038 C972.611496,177.251038 974.390496,178.210038 976.034496,179.387038 C978.973496,178.444038 982.709496,178.259038 984.602496,180.589038 C986.498496,182.915038 985.559496,186.534038 984.041496,189.221038 C984.859496,191.069038 985.438496,193.005038 985.768496,194.993038 C988.512496,196.405038 991.284496,198.914038 990.976496,201.900038 C990.673496,204.883038 987.449496,206.778038 984.476496,207.606038 C983.754496,209.483038 982.794496,211.260038 981.615496,212.906038 C982.558496,215.845038 982.746496,219.580038 980.419496,221.478038 C978.090496,223.370038 974.470496,222.432038 971.781496,220.914038 C969.931496,221.736038 967.995496,222.315038 966.008496,222.644038 C964.668496,225.246038 962.339496,227.875038 959.557496,227.876038" id="Fill-21"></path>
                <path d="M962.050981,194.000799 C960.919981,194.000799 959.831981,194.386799 958.943981,195.109799 C956.832981,196.829799 956.513981,199.945799 958.231981,202.056799 C959.064981,203.078799 960.245981,203.716799 961.557981,203.851799 C962.861981,203.984799 964.154981,203.600799 965.177981,202.767799 C966.200981,201.934799 966.837981,200.753799 966.972981,199.441799 C967.106981,198.129799 966.721981,196.844799 965.888981,195.821799 C965.055981,194.798799 963.874981,194.160799 962.562981,194.026799 C962.391981,194.009799 962.220981,194.000799 962.050981,194.000799 M962.075981,206.877799 C961.801981,206.877799 961.527981,206.863799 961.250981,206.835799 C959.142981,206.618799 957.243981,205.594799 955.904981,203.950799 C953.143981,200.558799 953.655981,195.549799 957.048981,192.783799 C958.693981,191.444799 960.747981,190.824799 962.868981,191.042799 C964.977981,191.258799 966.875981,192.282799 968.214981,193.927799 C969.553981,195.570799 970.171981,197.638799 969.956981,199.746799 C969.740981,201.855799 968.716981,203.755799 967.071981,205.093799 C965.643981,206.257799 963.894981,206.877799 962.075981,206.877799" id="Fill-23"></path>
                <path d="M6.911,223.598 L121.245,223.598 L121.245,156.764 L6.911,156.764 L6.911,223.598 Z M122.745,226.598 L5.411,226.598 C4.583,226.598 3.911,225.926 3.911,225.098 L3.911,155.264 C3.911,154.436 4.583,153.764 5.411,153.764 L122.745,153.764 C123.573,153.764 124.245,154.436 124.245,155.264 L124.245,225.098 C124.245,225.926 123.573,226.598 122.745,226.598 L122.745,226.598 Z" id="Fill-38"></path>
                <path d="M6.911,153.764 L121.245,153.764 L121.245,131.115 L6.911,131.115 L6.911,153.764 Z M122.745,156.764 L5.411,156.764 C4.583,156.764 3.911,156.093 3.911,155.264 L3.911,129.615 C3.911,128.786 4.583,128.115 5.411,128.115 L122.745,128.115 C123.573,128.115 124.245,128.786 124.245,129.615 L124.245,155.264 C124.245,156.093 123.573,156.764 122.745,156.764 L122.745,156.764 Z" id="Fill-39"></path>
                <path d="M108.452108,139.997796 C107.695108,139.997796 107.055108,140.587796 107.004108,141.354796 C106.977108,141.743796 107.103108,142.118796 107.359108,142.410796 C107.615108,142.703796 107.969108,142.878796 108.355108,142.903796 C108.753108,142.941796 109.117108,142.803796 109.408108,142.548796 C109.700108,142.292796 109.875108,141.937796 109.900108,141.550796 L109.900108,141.549796 C109.954108,140.749796 109.348108,140.055796 108.550108,140.001796 C108.517108,139.998796 108.484108,139.997796 108.452108,139.997796 M108.459108,145.907796 C108.358108,145.907796 108.258108,145.904796 108.156108,145.897796 C106.969108,145.818796 105.884108,145.281796 105.100108,144.385796 C104.317108,143.488796 103.931108,142.342796 104.010108,141.154796 C104.174108,138.705796 106.289108,136.864796 108.750108,137.007796 C111.200108,137.172796 113.058108,139.300796 112.894108,141.750796 C112.814108,142.936796 112.279108,144.021796 111.385108,144.805796 C110.566108,145.521796 109.537108,145.907796 108.459108,145.907796" id="Fill-85"></path>
                <path d="M104.7373,175.3188 L23.4173,175.3188 C22.5893,175.3188 21.9173,174.6478 21.9173,173.8188 C21.9173,172.9898 22.5893,172.3188 23.4173,172.3188 L104.7373,172.3188 C105.5653,172.3188 106.2373,172.9898 106.2373,173.8188 C106.2373,174.6478 105.5653,175.3188 104.7373,175.3188" id="Fill-40"></path>
                <path d="M104.7373,186.4302 L23.4173,186.4302 C22.5893,186.4302 21.9173,185.7582 21.9173,184.9302 C21.9173,184.1022 22.5893,183.4302 23.4173,183.4302 L104.7373,183.4302 C105.5653,183.4302 106.2373,184.1022 106.2373,184.9302 C106.2373,185.7582 105.5653,186.4302 104.7373,186.4302" id="Fill-41"></path>
                <path d="M104.7373,197.5405 L23.4173,197.5405 C22.5893,197.5405 21.9173,196.8685 21.9173,196.0405 C21.9173,195.2125 22.5893,194.5405 23.4173,194.5405 L104.7373,194.5405 C105.5653,194.5405 106.2373,195.2125 106.2373,196.0405 C106.2373,196.8685 105.5653,197.5405 104.7373,197.5405" id="Fill-42"></path>
                <path d="M104.7373,208.6518 L23.4173,208.6518 C22.5893,208.6518 21.9173,207.9798 21.9173,207.1518 C21.9173,206.3238 22.5893,205.6518 23.4173,205.6518 L104.7373,205.6518 C105.5653,205.6518 106.2373,206.3238 106.2373,207.1518 C106.2373,207.9798 105.5653,208.6518 104.7373,208.6518" id="Fill-43"></path>
                <path d="M255.5,207.608 C254.672,207.608 254,206.936 254,206.108 L254,182.5 C254,181.671 254.672,181 255.5,181 C256.328,181 257,181.671 257,182.5 L257,206.108 C257,206.936 256.328,207.608 255.5,207.608" id="Fill-48"></path>
                <path d="M267.108,196 L243.5,196 C242.671,196 242,195.328 242,194.5 C242,193.672 242.671,193 243.5,193 L267.108,193 C267.936,193 268.608,193.672 268.608,194.5 C268.608,195.328 267.936,196 267.108,196" id="Fill-49"></path>
                <path d="M1408.5,125.608 C1407.672,125.608 1407,124.936 1407,124.108 L1407,100.5 C1407,99.671 1407.672,99 1408.5,99 C1409.328,99 1410,99.671 1410,100.5 L1410,124.108 C1410,124.936 1409.328,125.608 1408.5,125.608" id="Fill-50"></path>
                <path d="M1420.107,114 L1396.5,114 C1395.671,114 1395,113.328 1395,112.5 C1395,111.672 1395.671,111 1396.5,111 L1420.107,111 C1420.935,111 1421.607,111.672 1421.607,112.5 C1421.607,113.328 1420.935,114 1420.107,114" id="Fill-51"></path>
                <path d="M693.5,229.608 C692.672,229.608 692,228.936 692,228.108 L692,204.5 C692,203.671 692.672,203 693.5,203 C694.328,203 695,203.671 695,204.5 L695,228.108 C695,228.936 694.328,229.608 693.5,229.608" id="Fill-52"></path>
                <path d="M705.108,218 L681.5,218 C680.671,218 680,217.328 680,216.5 C680,215.672 680.671,215 681.5,215 L705.108,215 C705.936,215 706.608,215.672 706.608,216.5 C706.608,217.328 705.936,218 705.108,218" id="Fill-53"></path>
                <path d="M1204.775,115.607 C1203.947,115.607 1203.275,114.935 1203.275,114.107 L1203.275,90.5 C1203.275,89.671 1203.947,89 1204.775,89 C1205.603,89 1206.275,89.671 1206.275,90.5 L1206.275,114.107 C1206.275,114.935 1205.603,115.607 1204.775,115.607" id="Fill-54"></path>
                <path d="M1216.383,104 L1192.775,104 C1191.946,104 1191.275,103.328 1191.275,102.5 C1191.275,101.672 1191.946,101 1192.775,101 L1216.383,101 C1217.211,101 1217.883,101.672 1217.883,102.5 C1217.883,103.328 1217.211,104 1216.383,104" id="Fill-55"></path>
                <path d="M16.5,26.608 C15.672,26.608 15,25.937 15,25.108 L15,1.5 C15,0.671 15.672,0 16.5,0 C17.328,0 18,0.671 18,1.5 L18,25.108 C18,25.937 17.328,26.608 16.5,26.608" id="Fill-58"></path>
                <path d="M28.105,15 L4.5,15 C3.671,15 3,14.329 3,13.5 C3,12.671 3.671,12 4.5,12 L28.105,12 C28.933,12 29.605,12.671 29.605,13.5 C29.605,14.329 28.933,15 28.105,15" id="Fill-59"></path>
                <path d="M451.3164,175.8745 C450.4884,175.8745 449.8164,175.2025 449.8164,174.3745 L449.8164,150.7655 C449.8164,149.9375 450.4884,149.2655 451.3164,149.2655 C452.1444,149.2655 452.8164,149.9375 452.8164,150.7655 L452.8164,174.3745 C452.8164,175.2025 452.1444,175.8745 451.3164,175.8745" id="Fill-62"></path>
                <path d="M463.1211,164.0708 L439.5131,164.0708 C438.6841,164.0708 438.0131,163.3988 438.0131,162.5708 C438.0131,161.7428 438.6841,161.0708 439.5131,161.0708 L463.1211,161.0708 C463.9491,161.0708 464.6211,161.7428 464.6211,162.5708 C464.6211,163.3988 463.9491,164.0708 463.1211,164.0708" id="Fill-63"></path>
                <path d="M1269.5,162.609 C1268.672,162.609 1268,161.938 1268,161.109 L1268,137.5 C1268,136.672 1268.672,136 1269.5,136 C1270.328,136 1271,136.672 1271,137.5 L1271,161.109 C1271,161.938 1270.328,162.609 1269.5,162.609" id="Fill-64"></path>
                <path d="M1281.107,151 L1257.5,151 C1256.671,151 1256,150.329 1256,149.5 C1256,148.671 1256.671,148 1257.5,148 L1281.107,148 C1281.935,148 1282.607,148.671 1282.607,149.5 C1282.607,150.329 1281.935,151 1281.107,151" id="Fill-65"></path>
                <path d="M146.4072,219.2378 C145.5792,219.2378 144.9072,218.5658 144.9072,217.7378 L144.9072,194.1308 C144.9072,193.3018 145.5792,192.6308 146.4072,192.6308 C147.2352,192.6308 147.9072,193.3018 147.9072,194.1308 L147.9072,217.7378 C147.9072,218.5658 147.2352,219.2378 146.4072,219.2378" id="Fill-68"></path>
                <path d="M158.2119,207.4341 L134.6039,207.4341 C133.7749,207.4341 133.1039,206.7621 133.1039,205.9341 C133.1039,205.1061 133.7749,204.4341 134.6039,204.4341 L158.2119,204.4341 C159.0399,204.4341 159.7119,205.1061 159.7119,205.9341 C159.7119,206.7621 159.0399,207.4341 158.2119,207.4341" id="Fill-69"></path>
                <path d="M47.6360323,50.0018965 C43.9950323,50.0018965 40.4170323,51.0088965 37.2410323,52.9688965 C27.9190323,58.7218965 25.0150323,70.9848965 30.7660323,80.3078965 C35.8100323,88.4788965 60.9570323,99.9668965 68.2080323,103.151896 C68.6120323,95.2428965 69.6190323,67.6108965 64.5780323,59.4428965 L64.5780323,59.4418965 C61.7920323,54.9268965 57.4140323,51.7668965 52.2510323,50.5438965 C50.7190323,50.1818965 49.1720323,50.0018965 47.6360323,50.0018965 M69.5840323,106.882896 C69.3870323,106.882896 69.1900323,106.843896 69.0030323,106.765896 C67.6010323,106.176896 34.5900323,92.2148965 28.2130323,81.8838965 C21.5930323,71.1528965 24.9360323,57.0368965 35.6650323,50.4158965 C40.8630323,47.2078965 46.9990323,46.2158965 52.9430323,47.6248965 C58.8860323,49.0318965 63.9250323,52.6698965 67.1310323,57.8678965 C73.5070323,68.1988965 71.1830323,103.965896 71.0810323,105.482896 C71.0480323,105.966896 70.7840323,106.404896 70.3720323,106.658896 C70.1320323,106.807896 69.8590323,106.882896 69.5840323,106.882896" id="Fill-72"></path>
                <path d="M48.1568201,60.9993104 C46.6618201,60.9993104 45.1478201,61.3993104 43.7848201,62.2413104 C41.8858201,63.4133104 40.5558201,65.2543104 40.0418201,67.4253104 C39.5278201,69.5973104 39.8888201,71.8383104 41.0608201,73.7363104 C43.4808201,77.6573104 48.6378201,78.8793104 52.5558201,76.4593104 C56.4768201,74.0403104 57.6978201,68.8843104 55.2798201,64.9633104 C53.7018201,62.4073104 50.9608201,60.9993104 48.1568201,60.9993104 M48.1888201,80.7003104 C44.3788201,80.7003104 40.6528201,78.7863104 38.5088201,75.3123104 C36.9158201,72.7313104 36.4238201,69.6853104 37.1228201,66.7343104 C37.8218201,63.7833104 39.6278201,61.2803104 42.2098201,59.6883104 C47.5368201,56.4013104 54.5448201,58.0613104 57.8328201,63.3873104 L57.8328201,63.3883104 C61.1198201,68.7163104 59.4598201,75.7253104 54.1318201,79.0123104 C52.2788201,80.1553104 50.2218201,80.7003104 48.1888201,80.7003104" id="Fill-73"></path>
                <path d="M568.803702,185.620314 C565.785048,185.620314 563.313717,187.980815 563.177041,190.994094 C563.171872,191.110919 563.101363,191.214719 562.994669,191.262689 C561.552439,191.913192 560.620314,193.354595 560.620314,194.934948 C560.620314,197.155258 562.426875,198.961612 564.647392,198.961612 L578.353022,198.961612 C580.573332,198.961612 582.379686,197.155258 582.379686,194.934948 C582.379686,192.952838 580.962062,191.281919 579.008693,190.961837 C578.868916,190.938886 578.762429,190.824334 578.749816,190.683316 C578.604662,189.066571 577.270367,187.847241 575.645972,187.847241 C575.059775,187.847241 574.485778,188.013899 573.985805,188.329845 C573.842099,188.420411 573.650422,188.378436 573.558615,188.23411 C572.517315,186.597515 570.739702,185.620314 568.803702,185.620314 M578.353022,199.581926 L564.647392,199.581926 C562.084875,199.581926 560,197.497258 560,194.934948 C560,193.17429 561.002014,191.563335 562.56872,190.778638 C562.81209,187.52323 565.515625,185 568.803702,185 C570.85384,185 572.743523,185.986506 573.916743,187.654117 C574.45104,187.373735 575.04282,187.226927 575.645972,187.226927 C577.514357,187.226927 579.062661,188.572181 579.339321,190.393216 C581.474028,190.852248 583,192.726217 583,194.934948 C583,197.497258 580.915332,199.581926 578.353022,199.581926" id="Fill-78" stroke="#3670E3" stroke-width="2"></path>
                <path d="M613.554414,221.369439 L664.922414,224.803439 C665.283414,223.713439 665.709414,221.757439 665.034414,219.795439 C664.368414,217.860439 662.755414,216.282439 660.239414,215.105439 C658.189414,214.146439 656.182414,213.357439 654.241414,212.595439 C649.308414,210.655439 645.411414,209.123439 644.406414,206.063439 C643.881414,204.472439 644.226414,202.744439 645.456414,200.784439 C646.470414,199.170439 647.391414,197.926439 648.203414,196.827439 C650.730414,193.414439 651.997414,191.701439 651.721414,184.443439 C651.391414,175.770439 642.810414,175.045439 642.445414,175.017439 C642.084414,174.999439 633.488414,174.577439 632.006414,183.126439 C630.766414,190.282439 631.795414,192.148439 633.845414,195.868439 C634.504414,197.064439 635.252414,198.420439 636.042414,200.154439 C637.001414,202.262439 637.112414,204.018439 636.381414,205.527439 C634.977414,208.425439 630.911414,209.425439 625.765414,210.690439 C623.740414,211.188439 621.645414,211.703439 619.485414,212.382439 C616.833414,213.213439 615.025414,214.562439 614.108414,216.391439 C613.178414,218.244439 613.340414,220.238439 613.554414,221.369439 M665.907414,227.872439 C665.873414,227.872439 665.840414,227.871439 665.807414,227.869439 L612.270414,224.290439 C611.675414,224.250439 611.160414,223.862439 610.958414,223.302439 C610.896414,223.129439 609.454414,219.020439 611.408414,215.083439 C612.699414,212.480439 615.114414,210.608439 618.586414,209.518439 C620.836414,208.812439 623.075414,208.263439 625.049414,207.777439 C629.082414,206.785439 632.892414,205.848439 633.681414,204.219439 C633.798414,203.978439 634.153414,203.246439 633.312414,201.397439 C632.570414,199.767439 631.851414,198.465439 631.218414,197.316439 C629.057414,193.396439 627.630414,190.807439 629.051414,182.614439 C630.607414,173.622439 638.632414,171.754439 642.649414,172.024439 C646.672414,172.294439 654.371414,175.212439 654.719414,184.330439 C655.035414,192.639439 653.277414,195.015439 650.616414,198.612439 C649.835414,199.667439 648.950414,200.862439 647.997414,202.380439 C646.917414,204.099439 647.171414,204.872439 647.255414,205.127439 C647.821414,206.847439 651.472414,208.282439 655.338414,209.803439 C657.230414,210.546439 659.374414,211.390439 661.510414,212.389439 C664.806414,213.930439 666.950414,216.106439 667.884414,218.857439 C669.296414,223.020439 667.323414,226.900439 667.238414,227.063439 C666.979414,227.562439 666.464414,227.872439 665.907414,227.872439" id="Fill-80"></path>
                <path d="M612.779904,223.872273 C612.745904,223.872273 612.711904,223.871273 612.677904,223.869273 L592.141904,222.497273 C591.547904,222.457273 591.031904,222.068273 590.830904,221.508273 C590.781904,221.374273 589.662904,218.181273 591.181904,215.117273 C592.187904,213.092273 594.053904,211.639273 596.729904,210.799273 C598.406904,210.272273 600.068904,209.864273 601.534904,209.504273 C604.303904,208.823273 607.167904,208.119273 607.672904,207.076273 C607.894904,206.616273 607.644904,205.866273 607.394904,205.317273 C606.850904,204.124273 606.323904,203.167273 605.857904,202.321273 C604.218904,199.348273 603.135904,197.383273 604.213904,191.180273 C605.412904,184.249273 611.610904,182.819273 614.689904,183.017273 C617.789904,183.225273 623.721904,185.473273 623.990904,192.502273 C624.231904,198.790273 622.897904,200.593273 620.879904,203.322273 C620.304904,204.099273 619.654904,204.978273 618.956904,206.090273 C618.554904,206.728273 618.384904,207.089273 618.313904,207.280273 C618.611904,207.466273 619.206904,207.733273 619.704904,207.956273 L620.485904,208.310273 C621.237904,208.658273 621.565904,209.549273 621.218904,210.302273 C620.870904,211.052273 619.981904,211.382273 619.227904,211.035273 L618.474904,210.693273 C616.956904,210.011273 615.757904,209.472273 615.370904,208.194273 C615.025904,207.053273 615.538904,205.890273 616.416904,204.494273 C617.174904,203.286273 617.860904,202.357273 618.466904,201.538273 C620.282904,199.084273 621.193904,197.852273 620.992904,192.617273 C620.764904,186.654273 615.126904,186.059273 614.483904,186.010273 C613.857904,185.970273 608.185904,185.817273 607.168904,191.692273 C606.272904,196.857273 607.011904,198.200273 608.485904,200.874273 C608.976904,201.766273 609.534904,202.776273 610.125904,204.074273 C610.875904,205.724273 610.958904,207.174273 610.372904,208.385273 C609.252904,210.695273 606.162904,211.455273 602.250904,212.417273 C600.758904,212.784273 599.214904,213.163273 597.628904,213.661273 C595.761904,214.246273 594.497904,215.185273 593.869904,216.450273 C593.311904,217.576273 593.336904,218.779273 593.450904,219.577273 L612.877904,220.875273 C613.704904,220.931273 614.329904,221.645273 614.274904,222.472273 C614.220904,223.265273 613.561904,223.872273 612.779904,223.872273" id="Fill-81"></path>
                <path d="M807.025523,197.214697 L838.591523,199.323697 C838.748523,198.691697 838.849523,197.797697 838.542523,196.913697 C838.170523,195.842697 837.248523,194.956697 835.802523,194.280697 C834.524523,193.683697 833.265523,193.188697 832.048523,192.709697 C828.796523,191.430697 826.228523,190.419697 825.510523,188.240697 C825.130523,187.084697 825.373523,185.806697 826.230523,184.439697 C826.882523,183.401697 827.470523,182.607697 827.989523,181.905697 C829.556523,179.789697 830.271523,178.823697 830.104523,174.431697 C829.918523,169.545697 825.284523,169.049697 824.755523,169.008697 C824.244523,168.974697 819.582523,168.854697 818.748523,173.672697 C817.997523,178.002697 818.577523,179.055697 819.848523,181.360697 C820.270523,182.124697 820.748523,182.990697 821.255523,184.105697 C821.924523,185.574697 821.994523,186.875697 821.463523,187.970697 C820.463523,190.034697 817.782523,190.693697 814.387523,191.528697 C813.118523,191.841697 811.804523,192.163697 810.459523,192.586697 C808.927523,193.067697 807.893523,193.829697 807.386523,194.852697 C806.972523,195.687697 806.954523,196.573697 807.025523,197.214697 M839.620523,202.396697 C839.587523,202.396697 839.553523,202.395697 839.520523,202.393697 L805.701523,200.133697 C805.106523,200.093697 804.591523,199.705697 804.389523,199.144697 C804.346523,199.026697 803.361523,196.216697 804.699523,193.519697 C805.583523,191.735697 807.218523,190.458697 809.560523,189.724697 C810.997523,189.273697 812.418523,188.923697 813.671523,188.615697 C815.878523,188.072697 818.378523,187.458697 818.763523,186.661697 C818.924523,186.329697 818.683523,185.695697 818.525523,185.348697 C818.065523,184.338697 817.617523,183.526697 817.221523,182.809697 C815.671523,179.996697 814.902523,178.289697 815.793523,173.159697 C816.843523,167.092697 822.249523,165.838697 824.963523,166.015697 C827.675523,166.196697 832.868523,168.164697 833.102523,174.317697 C833.299523,179.520697 832.311523,181.110697 830.400523,183.691697 C829.913523,184.349697 829.361523,185.094697 828.770523,186.033697 C828.568523,186.357697 828.245523,186.951697 828.360523,187.302697 C828.637523,188.144697 831.033523,189.086697 833.146523,189.917697 C834.348523,190.390697 835.710523,190.926697 837.074523,191.564697 C839.297523,192.603697 840.750523,194.086697 841.390523,195.972697 C842.358523,198.821697 841.009523,201.475697 840.951523,201.587697 C840.692523,202.086697 840.177523,202.396697 839.620523,202.396697" id="Fill-82"></path>
                <path d="M719.342935,175.000966 C717.389935,175.000966 715.524935,175.698966 714.039935,176.997966 C712.416935,178.416966 711.444935,180.382966 711.301935,182.531966 L710.018935,201.717966 C709.721935,206.157966 713.092935,210.012966 717.532935,210.309966 L739.713935,211.791966 C740.296935,211.830966 740.803935,212.203966 741.013935,212.748966 L745.417935,224.149966 L751.086935,213.441966 C751.363935,212.919966 751.928935,212.616966 752.511935,212.646966 L774.320935,214.104966 C778.758935,214.408966 782.613935,211.029966 782.910935,206.589966 L784.191935,187.405966 C784.336935,185.254966 783.634935,183.176966 782.215935,181.554966 C780.796935,179.931966 778.830935,178.958966 776.679935,178.814966 L719.892935,175.019966 C719.707935,175.006966 719.524935,175.000966 719.342935,175.000966 M745.203935,229.259966 C745.174935,229.259966 745.145935,229.258966 745.114935,229.256966 C744.529935,229.222966 744.016935,228.848966 743.804935,228.299966 L738.559935,214.721966 L717.333935,213.303966 C711.241935,212.896966 706.617935,207.607966 707.024935,201.517966 L708.307935,182.331966 C708.503935,179.383966 709.837935,176.686966 712.064935,174.738966 C714.291935,172.791966 717.145935,171.828966 720.091935,172.024966 L776.878935,175.820966 C779.829935,176.018966 782.527935,177.353966 784.474935,179.579966 C786.420935,181.805966 787.383935,184.655966 787.185935,187.605966 L785.905935,206.789966 C785.496935,212.880966 780.210935,217.492966 774.120935,217.098966 L753.281935,215.705966 L746.529935,228.461966 C746.268935,228.953966 745.757935,229.259966 745.203935,229.259966" id="Fill-83"></path>
                <path d="M735.4512,193.8965 C734.6952,193.8965 734.0552,194.4875 734.0042,195.2545 C733.9772,195.6445 734.1032,196.0185 734.3582,196.3105 C734.6142,196.6025 734.9682,196.7775 735.3542,196.8025 C735.7452,196.8405 736.1172,196.7035 736.4102,196.4465 C736.7022,196.1905 736.8782,195.8355 736.9032,195.4495 C736.9572,194.6485 736.3492,193.9545 735.5492,193.9005 C735.5162,193.8975 735.4832,193.8965 735.4512,193.8965 M735.4592,199.8065 C735.3572,199.8065 735.2562,199.8035 735.1542,199.7965 C733.9682,199.7175 732.8832,199.1805 732.0992,198.2855 C731.3162,197.3885 730.9302,196.2415 731.0112,195.0535 C731.1742,192.6045 733.3052,190.7645 735.7492,190.9065 C738.2002,191.0715 740.0602,193.1985 739.8972,195.6485 C739.8182,196.8355 739.2812,197.9205 738.3852,198.7055 C737.5652,199.4205 736.5362,199.8065 735.4592,199.8065" id="Fill-84"></path>
                <path d="M746.9336,194.6641 C746.1766,194.6641 745.5366,195.2541 745.4856,196.0211 C745.4586,196.4101 745.5846,196.7851 745.8406,197.0771 C746.0966,197.3701 746.4506,197.5451 746.8366,197.5701 C747.2346,197.6081 747.5986,197.4701 747.8896,197.2151 C748.1816,196.9591 748.3566,196.6041 748.3816,196.2171 L748.3816,196.2161 C748.4356,195.4161 747.8296,194.7221 747.0316,194.6681 C746.9986,194.6651 746.9656,194.6641 746.9336,194.6641 M746.9406,200.5741 C746.8396,200.5741 746.7396,200.5711 746.6376,200.5641 C745.4506,200.4851 744.3656,199.9481 743.5816,199.0521 C742.7986,198.1551 742.4126,197.0091 742.4916,195.8211 C742.6556,193.3721 744.7706,191.5311 747.2316,191.6741 C749.6816,191.8391 751.5396,193.9671 751.3756,196.4171 C751.2956,197.6031 750.7606,198.6881 749.8666,199.4721 C749.0476,200.1881 748.0186,200.5741 746.9406,200.5741" id="Fill-85"></path>
                <path d="M758.415,195.4316 C757.656,195.4316 757.015,196.0226 756.964,196.7896 C756.91,197.5896 757.518,198.2856 758.316,198.3376 C759.123,198.4076 759.812,197.7836 759.866,196.9836 C759.893,196.5956 759.766,196.2206 759.51,195.9286 C759.255,195.6356 758.9,195.4606 758.513,195.4356 C758.479,195.4326 758.447,195.4316 758.415,195.4316 M758.417,201.3416 C758.317,201.3416 758.218,201.3376 758.116,201.3316 C755.667,201.1676 753.807,199.0406 753.97,196.5896 C754.135,194.1396 756.252,192.2986 758.712,192.4416 C759.9,192.5206 760.985,193.0576 761.769,193.9536 C762.552,194.8496 762.939,195.9956 762.86,197.1836 L762.86,197.1846 C762.702,199.5346 760.739,201.3416 758.417,201.3416" id="Fill-86"></path>
                <path d="M921.409,172 C918.427,172 916,174.427 916,177.409 C916,180.393 918.427,182.819 921.409,182.819 C924.391,182.819 926.818,180.393 926.818,177.409 C926.818,174.427 924.391,172 921.409,172 M921.409,185.819 C916.772,185.819 913,182.047 913,177.409 C913,172.772 916.772,169 921.409,169 C926.046,169 929.818,172.772 929.818,177.409 C929.818,182.047 926.046,185.819 921.409,185.819" id="Fill-88"></path>
                <path d="M1416.409,9 C1413.427,9 1411,11.427 1411,14.409 C1411,17.392 1413.427,19.818 1416.409,19.818 C1419.391,19.818 1421.818,17.392 1421.818,14.409 C1421.818,11.427 1419.391,9 1416.409,9 M1416.409,22.818 C1411.772,22.818 1408,19.046 1408,14.409 C1408,9.772 1411.772,6 1416.409,6 C1421.046,6 1424.818,9.772 1424.818,14.409 C1424.818,19.046 1421.046,22.818 1416.409,22.818" id="Fill-89"></path>
                <path d="M1046.408,129 C1043.426,129 1041,131.427 1041,134.409 C1041,137.392 1043.426,139.819 1046.408,139.819 C1049.391,139.819 1051.819,137.392 1051.819,134.409 C1051.819,131.427 1049.391,129 1046.408,129 M1046.408,142.819 C1041.771,142.819 1038,139.046 1038,134.409 C1038,129.772 1041.771,126 1046.408,126 C1051.046,126 1054.819,129.772 1054.819,134.409 C1054.819,139.046 1051.046,142.819 1046.408,142.819" id="Fill-90"></path>
                <path d="M1274.409,194 C1271.427,194 1269,196.427 1269,199.41 C1269,202.393 1271.427,204.819 1274.409,204.819 C1277.391,204.819 1279.818,202.393 1279.818,199.41 C1279.818,196.427 1277.391,194 1274.409,194 M1274.409,207.819 C1269.772,207.819 1266,204.047 1266,199.41 C1266,194.772 1269.772,191 1274.409,191 C1279.046,191 1282.818,194.772 1282.818,199.41 C1282.818,204.047 1279.046,207.819 1274.409,207.819" id="Fill-91"></path>
                <path d="M1345.408,49.2860654 C1342.426,49.2860654 1340,51.7130654 1340,54.6960654 C1340,57.6790654 1342.426,60.1050654 1345.408,60.1050654 C1348.391,60.1050654 1350.819,57.6790654 1350.819,54.6960654 C1350.819,51.7130654 1348.391,49.2860654 1345.408,49.2860654 M1345.408,63.1050654 C1340.771,63.1050654 1337,59.3330654 1337,54.6960654 C1337,50.0580654 1340.771,46.2860654 1345.408,46.2860654 C1350.046,46.2860654 1353.819,50.0580654 1353.819,54.6960654 C1353.819,59.3330654 1350.046,63.1050654 1345.408,63.1050654" id="Fill-92"></path>
                <path d="M150.411,123 C147.428,123 145,125.427 145,128.41 C145,131.393 147.428,133.819 150.411,133.819 C153.393,133.819 155.819,131.393 155.819,128.41 C155.819,125.427 153.393,123 150.411,123 M150.411,136.819 C145.773,136.819 142,133.047 142,128.41 C142,123.772 145.773,120 150.411,120 C155.048,120 158.819,123.772 158.819,128.41 C158.819,133.047 155.048,136.819 150.411,136.819" id="Fill-93"></path>
                <path d="M810.411,214 C807.428,214 805,216.427 805,219.41 C805,222.393 807.428,224.819 810.411,224.819 C813.393,224.819 815.819,222.393 815.819,219.41 C815.819,216.427 813.393,214 810.411,214 M810.411,227.819 C805.773,227.819 802,224.047 802,219.41 C802,214.772 805.773,211 810.411,211 C815.048,211 818.819,214.772 818.819,219.41 C818.819,224.047 815.048,227.819 810.411,227.819" id="Fill-93-Copy"></path>
                <path d="M8.409,47.1171035 C5.427,47.1171035 3,49.5441035 3,52.5271035 C3,55.5101035 5.427,57.9361035 8.409,57.9361035 C11.392,57.9361035 13.819,55.5101035 13.819,52.5271035 C13.819,49.5441035 11.392,47.1171035 8.409,47.1171035 M8.409,60.9361035 C3.772,60.9361035 0,57.1641035 0,52.5271035 C0,47.8891035 3.772,44.1171035 8.409,44.1171035 C13.047,44.1171035 16.819,47.8891035 16.819,52.5271035 C16.819,57.1641035 13.047,60.9361035 8.409,60.9361035" id="Fill-94"></path>
                <path d="M1320.409,142 C1317.427,142 1315,144.427 1315,147.41 C1315,150.393 1317.427,152.819 1320.409,152.819 C1323.392,152.819 1325.82,150.393 1325.82,147.41 C1325.82,144.427 1323.392,142 1320.409,142 M1320.409,155.819 C1315.772,155.819 1312,152.047 1312,147.41 C1312,142.772 1315.772,139 1320.409,139 C1325.047,139 1328.82,142.772 1328.82,147.41 C1328.82,152.047 1325.047,155.819 1320.409,155.819" id="Fill-95"></path>
                <path d="M1344.409,142 C1341.427,142 1339,144.427 1339,147.41 C1339,150.393 1341.427,152.819 1344.409,152.819 C1347.392,152.819 1349.82,150.393 1349.82,147.41 C1349.82,144.427 1347.392,142 1344.409,142 M1344.409,155.819 C1339.772,155.819 1336,152.047 1336,147.41 C1336,142.772 1339.772,139 1344.409,139 C1349.047,139 1352.82,142.772 1352.82,147.41 C1352.82,152.047 1349.047,155.819 1344.409,155.819" id="Fill-95-Copy"></path>
                <path d="M1368.409,142 C1365.427,142 1363,144.427 1363,147.41 C1363,150.393 1365.427,152.819 1368.409,152.819 C1371.392,152.819 1373.82,150.393 1373.82,147.41 C1373.82,144.427 1371.392,142 1368.409,142 M1368.409,155.819 C1363.772,155.819 1360,152.047 1360,147.41 C1360,142.772 1363.772,139 1368.409,139 C1373.047,139 1376.82,142.772 1376.82,147.41 C1376.82,152.047 1373.047,155.819 1368.409,155.819" id="Fill-95-Copy-2"></path>
                <path d="M563.091,213 C560.108,213 557.68,215.427 557.68,218.41 C557.68,221.393 560.108,223.819 563.091,223.819 C566.073,223.819 568.5,221.393 568.5,218.41 C568.5,215.427 566.073,213 563.091,213 M563.091,226.819 C558.453,226.819 554.68,223.047 554.68,218.41 C554.68,213.772 558.453,210 563.091,210 C567.728,210 571.5,213.772 571.5,218.41 C571.5,223.047 567.728,226.819 563.091,226.819" id="Fill-96"></path>
                <path d="M102.017291,89.0201308 C102.389291,89.0201308 102.748291,89.1581308 103.025291,89.4091308 L130.981291,114.772131 L135.780291,109.481131 L107.827291,84.1231308 C107.213291,83.5661308 107.166291,82.6171308 107.723291,82.0031308 L111.962291,77.3311308 L89.7212915,72.5161308 L96.6692915,94.1851308 L100.906291,89.5121308 C101.173291,89.2171308 101.546291,89.0411308 101.944291,89.0221308 C101.968291,89.0211308 101.993291,89.0201308 102.017291,89.0201308 M131.084291,118.391131 C130.712291,118.391131 130.353291,118.253131 130.077291,118.002131 L102.121291,92.6391308 L97.1462915,98.1251308 C96.7872915,98.5221308 96.2422915,98.7031308 95.7172915,98.5831308 C95.1942915,98.4701308 94.7702915,98.0861308 94.6062915,97.5761308 L86.0712915,70.9581308 C85.9082915,70.4481308 86.0292915,69.8891308 86.3882915,69.4931308 C86.7492915,69.0951308 87.2942915,68.9191308 87.8172915,69.0351308 L115.136291,74.9491308 C115.660291,75.0621308 116.083291,75.4461308 116.247291,75.9571308 C116.411291,76.4661308 116.289291,77.0261308 115.930291,77.4221308 L110.954291,82.9081308 L138.906291,108.266131 C139.519291,108.823131 139.566291,109.771131 139.009291,110.385131 L132.196291,117.899131 C131.928291,118.194131 131.555291,118.370131 131.158291,118.389131 C131.133291,118.390131 131.109291,118.391131 131.084291,118.391131" id="Fill-97"></path>
                <path d="M1381.01829,50.0201308 C1381.39029,50.0201308 1381.74929,50.1581308 1382.02629,50.4091308 L1409.98029,75.7721308 L1414.77929,70.4821308 L1386.82729,45.1231308 C1386.21329,44.5661308 1386.16629,43.6171308 1386.72329,43.0031308 L1390.96129,38.3311308 L1368.72129,33.5161308 L1375.66729,55.1851308 L1379.90729,50.5121308 C1380.17429,50.2171308 1380.54729,50.0411308 1380.94529,50.0221308 C1380.96929,50.0211308 1380.99429,50.0201308 1381.01829,50.0201308 M1410.08329,79.3911308 C1409.71129,79.3911308 1409.35229,79.2531308 1409.07629,79.0021308 L1381.12229,53.6391308 L1376.14429,59.1251308 C1375.78429,59.5231308 1375.23929,59.7021308 1374.71529,59.5831308 C1374.19229,59.4701308 1373.76829,59.0861308 1373.60429,58.5761308 L1365.07129,31.9581308 C1364.90829,31.4481308 1365.02929,30.8891308 1365.38829,30.4931308 C1365.75029,30.0951308 1366.29629,29.9191308 1366.81729,30.0351308 L1394.13529,35.9491308 C1394.65929,36.0621308 1395.08229,36.4461308 1395.24729,36.9571308 C1395.41029,37.4661308 1395.28929,38.0261308 1394.92929,38.4221308 L1389.95429,43.9081308 L1417.90529,69.2671308 C1418.51829,69.8241308 1418.56529,70.7731308 1418.00829,71.3861308 L1411.19529,78.8991308 C1410.92729,79.1941308 1410.55429,79.3701308 1410.15729,79.3891308 C1410.13229,79.3901308 1410.10829,79.3911308 1410.08329,79.3911308" id="Fill-98"></path>
                <path d="M1111.62138,141.846062 L1116.78838,146.778062 L1142.84938,119.476062 C1143.42138,118.877062 1144.37038,118.855062 1144.97038,119.427062 L1149.53238,123.783062 L1154.90838,101.671062 L1133.07138,108.067062 L1137.63538,112.421062 C1137.92338,112.696062 1138.09038,113.074062 1138.10038,113.471062 C1138.10838,113.868062 1137.95938,114.254062 1137.68438,114.542062 L1111.62138,141.846062 Z M1116.83838,150.398062 C1116.46638,150.398062 1116.09338,150.260062 1115.80338,149.983062 L1108.46538,142.981062 C1108.17738,142.706062 1108.01038,142.328062 1108.00038,141.931062 C1107.99138,141.534062 1108.14138,141.148062 1108.41538,140.860062 L1134.47838,113.556062 L1129.12038,108.443062 C1128.73238,108.073062 1128.57138,107.524062 1128.69738,107.003062 C1128.82438,106.483062 1129.22038,106.069062 1129.73338,105.918062 L1156.55838,98.0620619 C1157.07138,97.9080619 1157.62738,98.0460619 1158.01638,98.4160619 C1158.40338,98.7860619 1158.56338,99.3350619 1158.43738,99.8560619 L1151.83438,127.016062 C1151.70738,127.536062 1151.31238,127.950062 1150.79838,128.101062 C1150.28338,128.253062 1149.72738,128.117062 1149.34038,127.746062 L1143.98338,122.633062 L1117.92338,149.934062 C1117.62838,150.242062 1117.23338,150.398062 1116.83838,150.398062 L1116.83838,150.398062 Z" id="Fill-99"></path>
                <path d="M849.621383,214.846062 L854.788383,219.778062 L880.849383,192.476062 C881.421383,191.877062 882.370383,191.855062 882.970383,192.427062 L887.532383,196.783062 L892.908383,174.671062 L871.071383,181.067062 L875.635383,185.421062 C875.923383,185.696062 876.090383,186.074062 876.100383,186.471062 C876.108383,186.868062 875.959383,187.254062 875.684383,187.542062 L849.621383,214.846062 Z M854.838383,223.398062 C854.466383,223.398062 854.093383,223.260062 853.803383,222.983062 L846.465383,215.981062 C846.177383,215.706062 846.010383,215.328062 846.000383,214.931062 C845.991383,214.534062 846.141383,214.148062 846.415383,213.860062 L872.478383,186.556062 L867.120383,181.443062 C866.732383,181.073062 866.571383,180.524062 866.697383,180.003062 C866.824383,179.483062 867.220383,179.069062 867.733383,178.918062 L894.558383,171.062062 C895.071383,170.908062 895.627383,171.046062 896.016383,171.416062 C896.403383,171.786062 896.563383,172.335062 896.437383,172.856062 L889.834383,200.016062 C889.707383,200.536062 889.312383,200.950062 888.798383,201.101062 C888.283383,201.253062 887.727383,201.117062 887.340383,200.746062 L881.983383,195.633062 L855.923383,222.934062 C855.628383,223.242062 855.233383,223.398062 854.838383,223.398062 L854.838383,223.398062 Z" id="Fill-99-Copy"></path>
                <path d="M296.3496,165.7041 L270.4346,165.7041 C265.2796,165.7041 261.0856,161.5101 261.0856,156.3541 L261.0856,130.4391 C261.0856,125.2841 265.2796,121.0901 270.4346,121.0901 L293.0156,121.0901 C293.8436,121.0901 294.5156,121.7611 294.5156,122.5901 C294.5156,123.4181 293.8436,124.0901 293.0156,124.0901 L270.4346,124.0901 C266.9336,124.0901 264.0856,126.9381 264.0856,130.4391 L264.0856,156.3541 C264.0856,159.8551 266.9336,162.7041 270.4346,162.7041 L296.3496,162.7041 C299.8516,162.7041 302.7006,159.8551 302.7006,156.3541 L302.7006,130.4391 C302.7006,128.9651 302.1836,127.5291 301.2456,126.3951 C300.7166,125.7571 300.8056,124.8111 301.4446,124.2841 C302.0816,123.7551 303.0276,123.8441 303.5556,124.4821 C304.9386,126.1531 305.7006,128.2681 305.7006,130.4391 L305.7006,156.3541 C305.7006,161.5101 301.5056,165.7041 296.3496,165.7041" id="Fill-102"></path>
                <path d="M290.9795,169.998 L265.0625,169.998 C259.9075,169.998 255.7125,165.804 255.7125,160.648 L255.7125,134.733 C255.7125,130.519 258.5585,126.809 262.6335,125.712 C263.4365,125.5 264.2565,125.972 264.4715,126.771 C264.6875,127.571 264.2125,128.394 263.4135,128.61 C260.6455,129.354 258.7125,131.873 258.7125,134.733 L258.7125,160.648 C258.7125,164.149 261.5615,166.998 265.0625,166.998 L290.9795,166.998 C293.5255,166.998 295.8175,165.485 296.8185,163.143 C297.1435,162.381 298.0235,162.027 298.7875,162.353 C299.5485,162.679 299.9025,163.56 299.5765,164.322 C298.1035,167.77 294.7285,169.998 290.9795,169.998" id="Fill-103"></path>
                <path d="M533.266,222.614 L507.35,222.614 C502.195,222.614 498,218.42 498,213.264 L498,187.349 C498.002,185.175 498.764,183.06 500.145,181.392 C500.673,180.756 501.617,180.666 502.257,181.194 C502.895,181.722 502.984,182.668 502.455,183.306 C501.519,184.437 501.002,185.874 501,187.351 L501,213.264 C501,216.765 503.849,219.614 507.35,219.614 L533.266,219.614 C536.767,219.614 539.616,216.765 539.616,213.264 L539.616,187.349 C539.616,183.848 536.767,181 533.266,181 L510.686,181 C509.858,181 509.186,180.328 509.186,179.5 C509.186,178.672 509.858,178 510.686,178 L533.266,178 C538.421,178 542.616,182.194 542.616,187.349 L542.616,213.264 C542.616,218.42 538.421,222.614 533.266,222.614" id="Fill-100" transform="translate(520.308000, 200.307000) scale(-1, 1) translate(-520.308000, -200.307000) "></path>
                <path d="M525.635277,229.33686 L499.719277,229.33686 C495.969277,229.33686 492.594277,227.10786 491.121277,223.66086 C490.795277,222.89886 491.149277,222.01786 491.910277,221.69186 C492.675277,221.36186 493.554277,221.72086 493.879277,222.48186 C494.880277,224.82286 497.172277,226.33686 499.719277,226.33686 L525.635277,226.33686 C529.136277,226.33686 531.984277,223.48786 531.984277,219.98686 L531.984277,194.07186 C531.984277,191.21086 530.052277,188.69186 527.285277,187.94786 C526.486277,187.73286 526.011277,186.90986 526.227277,186.10986 C526.441277,185.30986 527.264277,184.83686 528.065277,185.05186 C532.139277,186.14786 534.984277,189.85786 534.984277,194.07186 L534.984277,219.98686 C534.984277,225.14286 530.790277,229.33686 525.635277,229.33686" id="Fill-101" transform="translate(512.992139, 207.168430) scale(-1, 1) translate(-512.992139, -207.168430) "></path>
                <path d="M515.417668,171.999871 C515.018668,171.999871 514.612668,172.098871 514.240668,172.306871 C513.073668,172.957871 512.654668,174.437871 513.305668,175.604871 L530.260668,205.978871 C530.680668,206.728871 531.476668,207.204871 532.336668,207.219871 L532.378668,208.720871 L532.378668,207.220871 C533.221668,207.220871 534.016668,206.771871 534.453668,206.049871 L540.936668,195.317871 C541.271668,194.763871 541.370668,194.111871 541.215668,193.483871 C541.060668,192.854871 540.669668,192.324871 540.114668,191.988871 C538.972668,191.300871 537.479668,191.667871 536.788668,192.810871 L533.796668,197.762871 C533.523668,198.212871 533.036668,198.486871 532.512668,198.486871 L532.486668,198.486871 C531.951668,198.477871 531.463668,198.185871 531.202668,197.718871 L517.538668,173.241871 C517.095668,172.447871 516.268668,171.999871 515.417668,171.999871 M532.378668,210.220871 C532.367668,210.220871 532.321668,210.219871 532.311668,210.219871 C530.361668,210.187871 528.582668,209.122871 527.642668,207.441871 L510.686668,177.066871 C509.229668,174.454871 510.167668,171.144871 512.777668,169.686871 C515.391668,168.228871 518.699668,169.168871 520.157668,171.778871 L532.563668,194.001871 L534.220668,191.259871 C535.767668,188.699871 539.105668,187.874871 541.666668,189.421871 C542.906668,190.171871 543.780668,191.358871 544.127668,192.765871 C544.475668,194.171871 544.253668,195.629871 543.503668,196.869871 L537.021668,207.601871 C536.043668,209.217871 534.264668,210.220871 532.378668,210.220871" id="Fill-104" transform="translate(527.144116, 189.610436) scale(-1, 1) translate(-527.144116, -189.610436) "></path>
                <path d="M1367.994,222.985 C1367.411,222.985 1366.88,222.647 1366.634,222.118 L1358.184,203.944 L1335.458,203.944 C1327.485,203.944 1321,197.459 1321,189.486 L1321,174.433 C1321,173.605 1321.672,172.933 1322.5,172.933 C1323.328,172.933 1324,173.605 1324,174.433 L1324,189.486 C1324,195.804 1329.14,200.944 1335.458,200.944 L1359.141,200.944 C1359.725,200.944 1360.256,201.283 1360.502,201.811 L1367.967,217.869 L1375.134,201.832 C1375.375,201.292 1375.911,200.944 1376.503,200.944 L1399.679,200.944 C1405.997,200.944 1411.137,195.804 1411.137,189.486 L1411.137,163.457 C1411.137,157.139 1405.997,152 1399.679,152 L1389.432,152 C1388.604,152 1387.932,151.328 1387.932,150.5 C1387.932,149.672 1388.604,149 1389.432,149 L1399.679,149 C1407.651,149 1414.137,155.485 1414.137,163.457 L1414.137,189.486 C1414.137,197.459 1407.651,203.944 1399.679,203.944 L1377.475,203.944 L1369.363,222.097 C1369.124,222.633 1368.593,222.98 1368.005,222.985 L1367.994,222.985 Z" id="Fill-105"></path>
                <path d="M1311.458,124 C1305.14,124 1300,129.14 1300,135.456 L1300,161.485 C1300,167.804 1305.14,172.943 1311.458,172.943 L1335.143,172.943 C1335.727,172.943 1336.257,173.282 1336.503,173.811 L1343.969,189.869 L1351.135,173.831 C1351.376,173.291 1351.912,172.943 1352.504,172.943 L1375.68,172.943 C1381.998,172.943 1387.138,167.804 1387.138,161.485 L1387.138,135.456 C1387.138,129.14 1381.998,124 1375.68,124 L1311.458,124 Z M1343.996,194.985 C1343.413,194.985 1342.882,194.647 1342.636,194.118 L1334.186,175.943 L1311.458,175.943 C1303.485,175.943 1297,169.457 1297,161.485 L1297,135.456 C1297,127.485 1303.485,121 1311.458,121 L1375.68,121 C1383.652,121 1390.138,127.485 1390.138,135.456 L1390.138,161.485 C1390.138,169.457 1383.652,175.943 1375.68,175.943 L1353.477,175.943 L1345.365,194.098 C1345.126,194.634 1344.595,194.98 1344.008,194.985 L1343.996,194.985 Z" id="Fill-106"></path>
                <path d="M363.7783,151.9565 C362.8833,151.9565 362.0443,152.1095 361.2923,152.4075 C357.7673,153.8015 356.4213,158.0165 357.6873,163.6805 C359.9573,173.8315 373.1853,182.9365 376.5383,185.1035 C379.8893,182.9365 393.1153,173.8315 395.3863,163.6805 C396.6543,158.0165 395.3083,153.8025 391.7843,152.4075 C387.9943,150.9065 381.9823,153.0655 377.8303,160.0995 C377.5593,160.5565 377.0683,160.8365 376.5383,160.8365 C376.0073,160.8365 375.5163,160.5565 375.2463,160.0995 C371.9183,154.4635 367.3953,151.9565 363.7783,151.9565 M376.5383,188.3765 C376.2713,188.3765 376.0053,188.3055 375.7673,188.1635 C375.0283,187.7215 357.6323,177.1805 354.7593,164.3345 C352.8553,155.8205 356.3153,151.1505 360.1873,149.6175 C364.6313,147.8615 371.4013,149.4075 376.5383,156.5865 C381.6743,149.4055 388.4493,147.8615 392.8883,149.6185 C396.7603,151.1505 400.2203,155.8215 398.3143,164.3355 C395.4403,177.1805 378.0483,187.7215 377.3083,188.1635 C377.0713,188.3055 376.8043,188.3765 376.5383,188.3765" id="Fill-107"></path>
                <path d="M1242.38021,82.9955841 C1241.81421,82.9955841 1241.28421,83.0925841 1240.80921,83.2795841 C1238.59421,84.1565841 1237.76421,86.8815841 1238.58921,90.5695841 C1240.07721,97.2175841 1248.58921,103.255584 1251.21621,104.980584 C1253.84221,103.255584 1262.35321,97.2175841 1263.84121,90.5685841 C1264.66621,86.8815841 1263.83621,84.1565841 1261.62121,83.2795841 C1259.17421,82.3125841 1255.25621,83.7665841 1252.50821,88.4205841 C1252.23721,88.8775841 1251.74621,89.1575841 1251.21621,89.1575841 C1250.68621,89.1575841 1250.19421,88.8775841 1249.92421,88.4205841 C1247.70821,84.6685841 1244.73321,82.9955841 1242.38021,82.9955841 M1251.21621,108.259584 C1250.94921,108.259584 1250.68321,108.187584 1250.44521,108.046584 C1249.92621,107.734584 1237.69821,100.324584 1235.66121,91.2245841 C1234.27721,85.0375841 1236.84321,81.6225841 1239.70521,80.4905841 C1242.84421,79.2485841 1247.55821,80.2335841 1251.21621,84.9785841 C1254.87421,80.2315841 1259.58921,79.2485841 1262.72521,80.4905841 C1265.58821,81.6225841 1268.15321,85.0375841 1266.76921,91.2245841 C1264.73221,100.324584 1252.50621,107.734584 1251.98621,108.046584 C1251.74921,108.187584 1251.48321,108.259584 1251.21621,108.259584" id="Fill-108"></path>
                <path d="M366.7988,203.4263 C367.3798,203.4263 367.9098,203.7623 368.1568,204.2893 L376.3528,221.7623 L384.1038,204.2583 C384.3418,203.7183 384.8748,203.3693 385.4658,203.3653 L402.9448,203.2623 C409.8048,203.2393 415.3648,197.6413 415.3448,190.7823 L415.2528,146.9993 C415.2308,140.1573 409.6548,134.6043 402.8168,134.6043 L402.7778,134.6043 L348.5948,134.8743 C341.7338,134.8963 336.1708,140.4933 336.1928,147.3513 L336.2828,191.1353 C336.2938,194.4553 337.5988,197.5743 339.9558,199.9173 C342.3028,202.2483 345.4138,203.5303 348.7188,203.5303 L348.7628,203.5303 L366.7898,203.4263 L366.7988,203.4263 Z M376.3918,226.8783 C375.8108,226.8783 375.2808,226.5423 375.0328,226.0153 L365.8488,206.4323 L348.7768,206.5303 L348.7218,206.5303 C344.6158,206.5303 340.7548,204.9393 337.8418,202.0453 C334.9158,199.1383 333.2968,195.2673 333.2828,191.1433 L333.1928,147.3593 C333.1648,138.8483 340.0698,131.9013 348.5818,131.8743 L402.7628,131.6043 C402.7818,131.6103 402.7988,131.6053 402.8168,131.6043 C411.3058,131.6043 418.2248,138.4963 418.2528,146.9913 L418.3448,190.7753 C418.3708,199.2853 411.4688,206.2343 402.9588,206.2623 L386.4528,206.3603 L377.7628,225.9863 C377.5258,226.5233 376.9948,226.8713 376.4078,226.8783 L376.3918,226.8783 Z" id="Fill-109"></path>
                <path d="M1283.744,78.01 L1280.146,79.184 C1279.928,79.258 1279.707,79.295 1279.523,79.295 C1278.863,79.295 1278.275,78.744 1278.275,78.047 C1278.275,77.423 1278.68,77.019 1279.304,76.799 L1283.524,75.331 C1284.111,75.147 1284.626,75 1285.102,75 L1285.176,75 C1286.019,75 1286.607,75.661 1286.607,76.432 L1286.607,99.701 C1286.607,100.509 1285.982,101.169 1285.176,101.169 C1284.405,101.169 1283.744,100.509 1283.744,99.701 L1283.744,78.01 Z" id="Fill-110"></path>
                <path d="M1293.696,97.343 L1302.468,89.598 C1306.432,86.075 1307.827,84.093 1307.827,81.524 C1307.827,78.514 1305.441,76.606 1302.651,76.606 C1299.935,76.606 1298.1,77.928 1296.265,80.35 C1296.046,80.643 1295.678,80.863 1295.201,80.863 C1294.467,80.863 1293.881,80.277 1293.881,79.542 C1293.881,79.248 1293.991,78.955 1294.175,78.735 C1296.302,75.761 1298.651,74 1302.873,74 C1307.496,74 1310.836,77.083 1310.836,81.267 L1310.836,81.34 C1310.836,85.084 1308.855,87.397 1304.341,91.323 L1297.477,97.416 L1309.919,97.416 C1310.653,97.416 1311.277,98.003 1311.277,98.738 C1311.277,99.471 1310.653,100.059 1309.919,100.059 L1294.467,100.059 C1293.624,100.059 1293,99.508 1293,98.7 C1293,98.15 1293.219,97.747 1293.696,97.343" id="Fill-111"></path>
                <path d="M1317,74.431 C1317,73.66 1317.624,73 1318.395,73 C1319.202,73 1319.826,73.66 1319.826,74.431 L1319.826,91.827 L1330.103,81.367 C1330.434,81.001 1330.764,80.817 1331.204,80.817 C1331.975,80.817 1332.488,81.441 1332.488,82.138 C1332.488,82.579 1332.305,82.872 1331.939,83.239 L1325.735,89.332 L1332.525,97.884 C1332.781,98.214 1332.893,98.471 1332.893,98.838 C1332.893,99.609 1332.305,100.159 1331.534,100.159 C1331.021,100.159 1330.69,99.976 1330.323,99.499 L1323.754,91.204 L1319.826,95.095 L1319.826,98.728 C1319.826,99.535 1319.238,100.159 1318.432,100.159 C1317.624,100.159 1317,99.535 1317,98.728 L1317,74.431 Z" id="Fill-112"></path>
                <path d="M208.0684,228.4907 C202.4424,228.4907 197.0844,225.5837 194.0514,220.7567 C193.6114,220.0547 193.8234,219.1297 194.5244,218.6877 C195.2244,218.2507 196.1514,218.4577 196.5924,219.1607 C199.3504,223.5507 204.4644,226.0107 209.6054,225.4007 C214.7054,224.8077 218.9704,221.4427 220.7384,216.6187 C221.0234,215.8387 221.8874,215.4397 222.6624,215.7257 C223.4404,216.0107 223.8394,216.8727 223.5544,217.6497 C221.3954,223.5447 216.1834,227.6557 209.9534,228.3817 C209.3234,228.4547 208.6944,228.4907 208.0684,228.4907" id="Fill-113"></path>
                <path d="M179.7061,171.1177 C179.7291,171.1387 179.7521,171.1577 179.7641,171.1697 C179.7841,171.1857 179.8351,171.2347 179.8541,171.2527 C184.2061,175.2827 187.0901,180.4577 188.0791,185.9577 L221.8511,182.0257 C221.5491,176.4387 223.1681,170.7377 226.4811,165.8187 C226.4961,165.7977 226.5451,165.7257 226.5601,165.7057 C226.6021,165.6437 226.6381,165.5937 226.6661,165.5527 C226.6851,165.5207 226.7051,165.4907 226.7261,165.4607 C231.2081,159.0687 233.1801,151.2807 232.2761,143.5307 C230.2481,126.1097 214.4351,113.5927 197.0041,115.6147 C188.5641,116.5967 181.0141,120.8067 175.7411,127.4697 C170.4681,134.1327 168.1051,142.4487 169.0891,150.8877 C169.9911,158.6397 173.6991,165.7667 179.5291,170.9557 C179.5571,170.9787 179.5821,171.0037 179.6071,171.0297 C179.6371,171.0557 179.6691,171.0847 179.7061,171.1177 M186.8091,189.1157 C186.4731,189.1157 186.1431,189.0027 185.8781,188.7917 C185.5651,188.5457 185.3641,188.1837 185.3181,187.7897 C184.6971,182.4497 182.0331,177.3587 177.8161,173.4537 L177.5881,173.2497 C177.5341,173.2057 177.4841,173.1587 177.4371,173.1087 C171.1131,167.4387 167.0921,159.6767 166.1081,151.2347 C165.0331,141.9997 167.6181,132.8987 173.3891,125.6077 C179.1581,118.3167 187.4221,113.7097 196.6561,112.6347 C215.7161,110.4097 233.0361,124.1187 235.2571,143.1827 C236.2391,151.6217 234.1091,160.1007 229.2581,167.0747 C229.2251,167.1327 229.1871,167.1877 229.1461,167.2407 L229.0491,167.3757 C229.0521,167.3757 229.0091,167.4397 228.9601,167.5067 C225.7601,172.2607 224.3351,177.8287 224.9581,183.1747 C225.0041,183.5697 224.8911,183.9677 224.6441,184.2787 C224.3971,184.5917 224.0361,184.7927 223.6421,184.8387 L186.9821,189.1057 C186.9241,189.1127 186.8661,189.1157 186.8091,189.1157" id="Fill-114"></path>
                <path d="M224.1709,184.7934 C224.0719,184.7934 223.9729,184.7994 223.8729,184.8114 L186.7529,189.1344 C186.0699,189.2134 185.4599,189.5534 185.0339,190.0914 C184.6089,190.6284 184.4189,191.3004 184.4989,191.9804 C184.5769,192.6644 184.9169,193.2734 185.4549,193.6994 C185.9929,194.1254 186.6619,194.3144 187.3479,194.2364 L224.4649,189.9144 C225.8729,189.7514 226.8849,188.4734 226.7219,187.0654 C226.5669,185.7594 225.4549,184.7934 224.1709,184.7934 M187.0389,197.2554 C185.7899,197.2554 184.5859,196.8384 183.5929,196.0524 C182.4259,195.1284 181.6899,193.8064 181.5189,192.3274 C181.3459,190.8524 181.7589,189.3964 182.6819,188.2294 C183.6059,187.0634 184.9279,186.3254 186.4059,186.1534 L223.5249,181.8304 C226.5749,181.4744 229.3449,183.6684 229.7019,186.7184 L229.7019,186.7204 C230.0559,189.7704 227.8619,192.5394 224.8129,192.8954 L187.6939,197.2174 C187.4749,197.2424 187.2559,197.2554 187.0389,197.2554" id="Fill-115"></path>
                <path d="M225.1104,192.8774 C225.0114,192.8774 224.9124,192.8834 224.8124,192.8954 L187.6944,197.2174 C187.0114,197.2964 186.4014,197.6364 185.9754,198.1744 C185.5504,198.7124 185.3604,199.3834 185.4404,200.0644 C185.5184,200.7484 185.8584,201.3574 186.3964,201.7834 C186.9334,202.2094 187.6144,202.3994 188.2884,202.3204 L225.4064,197.9984 C226.8144,197.8354 227.8264,196.5574 227.6634,195.1494 C227.5084,193.8434 226.3954,192.8774 225.1104,192.8774 M187.9804,205.3394 C186.7324,205.3394 185.5284,204.9224 184.5354,204.1364 C183.3674,203.2124 182.6314,201.8904 182.4604,200.4114 C182.2874,198.9364 182.7004,197.4804 183.6234,196.3134 C184.5474,195.1464 185.8694,194.4084 187.3474,194.2364 L224.4644,189.9144 C227.5204,189.5524 230.2864,191.7524 230.6434,194.8024 L230.6434,194.8044 C230.9974,197.8544 228.8034,200.6234 225.7544,200.9794 L188.6354,205.3014 C188.4164,205.3264 188.1974,205.3394 187.9804,205.3394" id="Fill-116"></path>
                <path d="M225.1221,201.0708 C225.0221,201.0708 224.9241,201.0768 224.8231,201.0888 L189.5661,205.1928 C188.1591,205.3558 187.1481,206.6338 187.3121,208.0408 C187.4761,209.4468 188.7401,210.4548 190.1611,210.2968 L225.4171,206.1908 C226.8241,206.0278 227.8351,204.7498 227.6711,203.3418 C227.5181,202.0358 226.4051,201.0708 225.1221,201.0708 M189.8611,213.3138 C187.0761,213.3138 184.6631,211.2198 184.3321,208.3878 C183.9771,205.3388 186.1701,202.5678 189.2191,202.2128 L224.4761,198.1078 C227.5201,197.7508 230.2941,199.9448 230.6511,202.9948 C231.0061,206.0458 228.8131,208.8158 225.7651,209.1718 L190.5081,213.2768 C190.2911,213.3008 190.0751,213.3138 189.8611,213.3138" id="Fill-117"></path>
                <path d="M223.2656,209.48 C223.1656,209.48 223.0666,209.486 222.9656,209.498 L193.3076,212.951 C192.6246,213.03 192.0156,213.37 191.5896,213.908 C191.1636,214.446 190.9726,215.118 191.0526,215.799 C191.1316,216.481 191.4716,217.091 192.0096,217.517 C192.5476,217.943 193.2186,218.132 193.9016,218.053 L223.5596,214.6 C224.2426,214.521 224.8516,214.181 225.2766,213.644 C225.7026,213.106 225.8926,212.434 225.8136,211.751 C225.6616,210.445 224.5486,209.48 223.2656,209.48 M193.5916,221.072 C192.3446,221.072 191.1416,220.655 190.1476,219.869 C188.9816,218.946 188.2446,217.624 188.0726,216.147 C187.9006,214.668 188.3146,213.212 189.2376,212.046 C190.1606,210.879 191.4826,210.142 192.9606,209.97 L222.6186,206.517 C225.6846,206.163 228.4376,208.354 228.7936,211.404 C228.9656,212.882 228.5516,214.338 227.6296,215.504 C226.7056,216.671 225.3836,217.409 223.9066,217.581 L194.2486,221.034 C194.0296,221.059 193.8096,221.072 193.5916,221.072" id="Fill-118"></path>
                <path d="M210.8936,148.4233 C209.9726,148.4233 209.0286,148.9803 208.2296,150.0143 C207.7596,150.6213 207.4226,152.1043 207.3616,154.4943 C208.5706,154.0693 209.6966,153.5713 210.6726,153.0033 C212.2306,152.0953 213.0486,151.0033 212.9156,150.0063 C212.8236,149.3113 212.2476,148.7063 211.4816,148.5003 C211.2886,148.4483 211.0906,148.4233 210.8936,148.4233 M193.0206,152.6503 C192.1016,152.6503 191.3726,153.5973 191.2096,154.5273 C191.1646,154.7833 191.1646,155.0213 191.6186,155.3363 C192.5096,155.9583 194.2736,156.2743 196.4376,156.3003 C195.3006,153.7773 194.0856,152.7483 193.1536,152.6563 C193.1086,152.6523 193.0646,152.6503 193.0206,152.6503 M201.2576,187.4343 L201.2206,187.4343 C200.3926,187.4133 199.7376,186.7263 199.7566,185.8983 C200.0746,172.6783 198.9956,164.3323 197.5246,159.3083 C194.3426,159.3993 191.5446,158.9423 189.9026,157.7973 C188.5746,156.8723 187.9896,155.5273 188.2546,154.0103 C188.6656,151.6653 190.7306,149.4053 193.4496,149.6713 C196.2616,149.9493 198.2486,152.4773 199.6446,156.1523 C201.1656,156.0033 202.7596,155.7443 204.3136,155.3783 C204.3136,152.2033 204.7476,149.6153 205.8546,148.1813 C207.5776,145.9523 209.9676,144.9893 212.2606,145.6033 C214.2106,146.1273 215.6346,147.7003 215.8896,149.6103 C216.0316,150.6783 215.9556,153.3983 212.1826,155.5953 C210.8526,156.3693 209.2126,157.0563 207.4186,157.6233 C207.7316,163.3223 209.1696,172.1643 212.6386,184.3663 C212.8656,185.1633 212.4036,185.9923 211.6066,186.2193 C210.8086,186.4443 209.9806,185.9843 209.7536,185.1873 C208.7516,181.6643 205.1196,168.3573 204.4276,158.4253 C203.1586,158.7093 201.8596,158.9323 200.5776,159.0833 C202.8226,167.4833 202.9136,179.4233 202.7566,185.9703 C202.7376,186.7853 202.0696,187.4343 201.2576,187.4343" id="Fill-119"></path>
                <path d="M320.9053,200.8159 L286.5093,200.8159 C285.6803,200.8159 285.0093,200.1439 285.0093,199.3159 C285.0093,198.4879 285.6803,197.8159 286.5093,197.8159 L320.9053,197.8159 C321.7333,197.8159 322.4053,198.4879 322.4053,199.3159 C322.4053,200.1439 321.7333,200.8159 320.9053,200.8159" id="Fill-120"></path>
                <path d="M320.9053,212.2573 L286.5093,212.2573 C285.6803,212.2573 285.0093,211.5853 285.0093,210.7573 C285.0093,209.9293 285.6803,209.2573 286.5093,209.2573 L320.9053,209.2573 C321.7333,209.2573 322.4053,209.9293 322.4053,210.7573 C322.4053,211.5853 321.7333,212.2573 320.9053,212.2573" id="Fill-121"></path>
                <path d="M320.9053,223.6987 L286.5093,223.6987 C285.6803,223.6987 285.0093,223.0267 285.0093,222.1987 C285.0093,221.3707 285.6803,220.6987 286.5093,220.6987 L320.9053,220.6987 C321.7333,220.6987 322.4053,221.3707 322.4053,222.1987 C322.4053,223.0267 321.7333,223.6987 320.9053,223.6987" id="Fill-122"></path>
                <path d="M11.49975,113.1525 C11.11575,113.1525 10.73175,113.0065 10.43875,112.7135 C9.85375,112.1275 9.85375,111.1775 10.43875,110.5915 L20.59275,100.4395 C21.17875,99.8535 22.12775,99.8535 22.71375,100.4395 C23.29975,101.0255 23.29975,101.9745 22.71375,102.5605 L12.56075,112.7135 C12.26775,113.0065 11.88375,113.1525 11.49975,113.1525" id="Fill-123"></path>
                <path d="M6.49975,108.1515 C6.11575,108.1515 5.73175,108.0055 5.43875,107.7125 C4.85375,107.1265 4.85375,106.1765 5.43875,105.5905 L15.58975,95.4395 C16.17575,94.8535 17.12475,94.8535 17.71075,95.4395 C18.29675,96.0255 18.29675,96.9745 17.71075,97.5605 L7.56075,107.7125 C7.26775,108.0055 6.88375,108.1515 6.49975,108.1515" id="Fill-124"></path>
                <path d="M1.49975,103.1525 C1.11575,103.1525 0.73175,103.0065 0.43875,102.7135 C-0.14625,102.1275 -0.14625,101.1775 0.43875,100.5915 L10.59275,90.4395 C11.17875,89.8535 12.12775,89.8535 12.71375,90.4395 C13.29975,91.0255 13.29975,91.9745 12.71375,92.5605 L2.56075,102.7135 C2.26775,103.0065 1.88375,103.1525 1.49975,103.1525" id="Fill-125"></path>
                <path d="M1084.6515,145.1515 C1084.2675,145.1515 1083.8835,145.0055 1083.5905,144.7125 L1073.4395,134.5605 C1072.8535,133.9745 1072.8535,133.0245 1073.4395,132.4395 C1074.0255,131.8535 1074.9745,131.8535 1075.5605,132.4395 L1085.7125,142.5905 C1086.2975,143.1765 1086.2975,144.1265 1085.7125,144.7125 C1085.4195,145.0055 1085.0355,145.1515 1084.6515,145.1515" id="Fill-132"></path>
                <path d="M1089.6515,141.1515 C1089.2675,141.1515 1088.8835,141.0055 1088.5905,140.7125 L1078.4395,130.5605 C1077.8535,129.9745 1077.8535,129.0245 1078.4395,128.4395 C1079.0255,127.8535 1079.9745,127.8535 1080.5605,128.4395 L1090.7125,138.5905 C1091.2975,139.1765 1091.2975,140.1265 1090.7125,140.7125 C1090.4195,141.0055 1090.0355,141.1515 1089.6515,141.1515" id="Fill-133"></path>
                <path d="M1093.6525,136.1525 C1093.2685,136.1525 1092.8845,136.0065 1092.5915,135.7135 L1082.4395,125.5605 C1081.8535,124.9755 1081.8535,124.0255 1082.4395,123.4395 C1083.0255,122.8535 1083.9745,122.8535 1084.5605,123.4395 L1094.7135,133.5915 C1095.2985,134.1775 1095.2985,135.1275 1094.7135,135.7135 C1094.4205,136.0065 1094.0365,136.1525 1093.6525,136.1525" id="Fill-134"></path>
                <path d="M907.49975,225.1525 C907.11575,225.1525 906.73175,225.0065 906.43875,224.7135 C905.85375,224.1275 905.85375,223.1775 906.43875,222.5915 L916.59375,212.4395 C917.17975,211.8535 918.12875,211.8535 918.71475,212.4395 C919.30075,213.0255 919.30075,213.9745 918.71475,214.5605 L908.56075,224.7135 C908.26775,225.0065 907.88375,225.1525 907.49975,225.1525" id="Fill-135"></path>
                <path d="M902.49975,220.1515 C902.11575,220.1515 901.73175,220.0055 901.43875,219.7125 C900.85375,219.1265 900.85375,218.1765 901.43875,217.5905 L911.59075,207.4395 C912.17675,206.8535 913.12575,206.8535 913.71175,207.4395 C914.29775,208.0255 914.29775,208.9745 913.71175,209.5605 L903.56075,219.7125 C903.26775,220.0055 902.88375,220.1515 902.49975,220.1515" id="Fill-136"></path>
                <path d="M897.49975,215.1525 C897.11575,215.1525 896.73175,215.0065 896.43875,214.7135 C895.85375,214.1275 895.85375,213.1775 896.43875,212.5915 L906.59075,202.4395 C907.17675,201.8535 908.12575,201.8535 908.71175,202.4395 C909.29775,203.0255 909.29775,203.9745 908.71175,204.5605 L898.56075,214.7135 C898.26775,215.0065 897.88375,215.1525 897.49975,215.1525" id="Fill-137"></path>
                <path d="M679.423625,194.1505 C679.039625,194.1505 678.655625,194.0045 678.362625,193.7115 C677.777625,193.1255 677.777625,192.1755 678.362625,191.5895 L688.515625,181.4395 C689.101625,180.8535 690.050625,180.8535 690.636625,181.4395 C691.222625,182.0255 691.222625,182.9745 690.636625,183.5605 L680.484625,193.7115 C680.191625,194.0045 679.807625,194.1505 679.423625,194.1505" id="Fill-138"></path>
                <path d="M674.423625,189.1505 C674.039625,189.1505 673.655625,189.0045 673.362625,188.7115 C672.777625,188.1255 672.777625,187.1745 673.362625,186.5895 L683.516625,176.4395 C684.102625,175.8535 685.051625,175.8535 685.637625,176.4395 C686.223625,177.0255 686.223625,177.9755 685.637625,178.5605 L675.484625,188.7115 C675.191625,189.0045 674.807625,189.1505 674.423625,189.1505" id="Fill-139"></path>
                <path d="M669.49975,184.1525 C669.11575,184.1525 668.73175,184.0065 668.43875,183.7135 C667.85375,183.1275 667.85375,182.1775 668.43875,181.5915 L678.59275,171.4395 C679.17875,170.8535 680.12775,170.8535 680.71375,171.4395 C681.29975,172.0255 681.29975,172.9745 680.71375,173.5605 L670.56075,183.7135 C670.26775,184.0065 669.88375,184.1525 669.49975,184.1525" id="Fill-140"></path>
                <path d="M474.1426,191.4878 L439.7466,191.4878 C438.9176,191.4878 438.2466,190.8158 438.2466,189.9878 C438.2466,189.1598 438.9176,188.4878 439.7466,188.4878 L474.1426,188.4878 C474.9706,188.4878 475.6426,189.1598 475.6426,189.9878 C475.6426,190.8158 474.9706,191.4878 474.1426,191.4878" id="Fill-141"></path>
                <path d="M474.1426,202.9292 L439.7466,202.9292 C438.9176,202.9292 438.2466,202.2572 438.2466,201.4292 C438.2466,200.6012 438.9176,199.9292 439.7466,199.9292 L474.1426,199.9292 C474.9706,199.9292 475.6426,200.6012 475.6426,201.4292 C475.6426,202.2572 474.9706,202.9292 474.1426,202.9292" id="Fill-142"></path>
                <path d="M474.1426,214.3706 L439.7466,214.3706 C438.9176,214.3706 438.2466,213.6986 438.2466,212.8706 C438.2466,212.0426 438.9176,211.3706 439.7466,211.3706 L474.1426,211.3706 C474.9706,211.3706 475.6426,212.0426 475.6426,212.8706 C475.6426,213.6986 474.9706,214.3706 474.1426,214.3706" id="Fill-143"></path>
                <path d="M1383.896,82 L1349.5,82 C1348.671,82 1348,81.328 1348,80.5 C1348,79.672 1348.671,79 1349.5,79 L1383.896,79 C1384.724,79 1385.396,79.672 1385.396,80.5 C1385.396,81.328 1384.724,82 1383.896,82" id="Fill-153"></path>
                <path d="M1383.896,94 L1349.5,94 C1348.671,94 1348,93.328 1348,92.5 C1348,91.672 1348.671,91 1349.5,91 L1383.896,91 C1384.724,91 1385.396,91.672 1385.396,92.5 C1385.396,93.328 1384.724,94 1383.896,94" id="Fill-154"></path>
                <path d="M1383.896,105 L1349.5,105 C1348.671,105 1348,104.328 1348,103.5 C1348,102.672 1348.671,102 1349.5,102 L1383.896,102 C1384.724,102 1385.396,102.672 1385.396,103.5 C1385.396,104.328 1384.724,105 1383.896,105" id="Fill-155"></path>
                <path d="M1041.874,155 C1022.645,155 1007,170.645 1007,189.875 C1007,209.106 1022.645,224.75 1041.874,224.75 C1061.103,224.75 1076.747,209.106 1076.747,189.875 C1076.747,170.645 1061.103,155 1041.874,155 M1041.874,227.75 C1020.99,227.75 1004,210.76 1004,189.875 C1004,168.991 1020.99,152 1041.874,152 C1062.757,152 1079.747,168.991 1079.747,189.875 C1079.747,210.76 1062.757,227.75 1041.874,227.75" id="Fill-156"></path>
                <path d="M1031,172.09875 L1031,208.37475 L1062.419,190.23775 L1031,172.09875 Z M1029.5,212.47275 C1029.241,212.47275 1028.982,212.40475 1028.75,212.27075 C1028.286,212.00375 1028,211.50875 1028,210.97275 L1028,169.50075 C1028,168.96475 1028.286,168.46975 1028.75,168.20175 C1029.215,167.93275 1029.785,167.93275 1030.25,168.20175 L1066.169,188.93875 C1066.633,189.20675 1066.919,189.70175 1066.919,190.23775 C1066.919,190.77375 1066.633,191.26875 1066.169,191.53675 L1030.25,212.27075 C1030.018,212.40475 1029.759,212.47275 1029.5,212.47275 L1029.5,212.47275 Z" id="Fill-157"></path>
                <path d="M1191.60409,204.822 C1192.18509,204.822 1192.71509,205.158 1192.96209,205.685 L1201.15709,223.158 L1208.90909,205.653 C1209.14709,205.113 1209.68009,204.764 1210.27109,204.76 L1227.75009,204.657 C1234.61109,204.635 1240.17109,199.036 1240.15009,192.177 L1240.05809,148.395 C1240.03609,141.54 1234.41709,136.01 1227.58309,136 L1173.39909,136.27 C1170.07509,136.28 1166.95609,137.584 1164.61409,139.941 C1162.27209,142.299 1160.98909,145.426 1161.00009,148.747 L1161.08809,192.53 C1161.11209,199.373 1166.68809,204.926 1173.52709,204.926 L1173.56909,204.926 L1191.59509,204.822 L1191.60409,204.822 Z M1201.19609,228.274 C1200.61509,228.274 1200.08409,227.938 1199.83709,227.411 L1190.65309,207.828 L1173.58309,207.926 L1173.53109,207.926 C1165.03909,207.926 1158.11809,201.034 1158.08809,192.538 L1158.00009,148.755 C1157.98609,144.634 1159.58009,140.753 1162.48609,137.827 C1165.39309,134.901 1169.26409,133.283 1173.38609,133.27 L1227.56809,133 C1227.59509,133.005 1227.60509,133 1227.62209,133 C1236.11109,133 1243.03009,139.891 1243.05809,148.387 L1243.15009,192.17 C1243.17709,200.68 1236.27509,207.629 1227.76409,207.657 L1211.25809,207.755 L1202.56709,227.382 C1202.33009,227.919 1201.79909,228.267 1201.21209,228.274 L1201.19609,228.274 Z" id="Fill-158"></path>
                <path d="M1223.07997,194.319 C1222.87097,194.319 1222.65997,194.276 1222.45797,194.183 C1221.70597,193.84 1221.37397,192.955 1221.71397,192.202 C1221.72997,192.165 1222.77797,189.743 1221.84697,187.428 C1221.22997,185.899 1219.85597,184.691 1217.76097,183.837 C1216.00897,183.123 1214.29697,182.547 1212.64097,181.99 C1208.36297,180.553 1204.98397,179.418 1203.97097,176.79 C1203.43697,175.406 1203.65697,173.877 1204.64297,172.115 C1205.42997,170.71 1206.15097,169.624 1206.78897,168.665 C1208.72997,165.744 1209.70497,164.278 1209.17497,158.29 C1208.54597,151.201 1201.53497,151.006 1201.23697,151.001 C1200.93097,150.96 1193.92297,151.024 1193.06997,158.028 C1192.34297,163.996 1193.26897,165.494 1195.11597,168.477 C1195.72197,169.455 1196.40697,170.564 1197.14697,171.992 C1198.07597,173.786 1198.24597,175.321 1197.66797,176.687 C1196.56897,179.28 1193.15597,180.305 1188.83497,181.602 C1187.16097,182.104 1185.43097,182.623 1183.65597,183.28 C1181.53397,184.066 1180.12097,185.228 1179.45597,186.736 C1178.44597,189.026 1179.42397,191.488 1179.43397,191.513 C1179.74397,192.278 1179.37997,193.153 1178.61697,193.467 C1177.84897,193.785 1176.98097,193.424 1176.66297,192.664 C1176.60097,192.517 1175.18297,189.042 1176.69397,185.565 C1177.69297,183.266 1179.68497,181.551 1182.61497,180.467 C1184.47797,179.777 1186.33497,179.22 1187.97297,178.729 C1191.25597,177.743 1194.35597,176.812 1194.90497,175.517 C1195.11097,175.032 1194.96897,174.31 1194.48297,173.372 C1193.79597,172.046 1193.14297,170.988 1192.56497,170.056 C1190.56097,166.818 1189.23797,164.679 1190.09197,157.666 C1191.02497,150 1197.64197,148 1201.14097,148 C1201.18897,148 1201.23797,148 1201.28597,148.001 C1204.74497,148.057 1211.47097,150.225 1212.16297,158.025 C1212.78597,165.062 1211.39397,167.156 1209.28697,170.326 C1208.67997,171.24 1207.99097,172.276 1207.26097,173.58 C1206.74497,174.502 1206.57997,175.218 1206.76897,175.71 C1207.27597,177.023 1210.34697,178.055 1213.59697,179.147 C1215.21697,179.692 1217.05397,180.309 1218.89297,181.059 C1221.78497,182.237 1223.72097,184.017 1224.64397,186.347 C1226.04297,189.872 1224.51097,193.298 1224.44497,193.442 C1224.19297,193.994 1223.64897,194.319 1223.07997,194.319" id="Fill-159"></path>
                <path d="M275.2041,153.0054 C274.8171,153.0054 274.4311,152.8574 274.1381,152.5604 C273.5551,151.9704 273.5601,151.0214 274.1491,150.4384 L290.5321,134.2454 C291.1221,133.6624 292.0711,133.6684 292.6531,134.2574 C293.2361,134.8474 293.2301,135.7974 292.6411,136.3794 L276.2591,152.5724 C275.9661,152.8614 275.5851,153.0054 275.2041,153.0054" id="Fill-161"></path>
                <path d="M291.5869,153.0054 C291.2059,153.0054 290.8249,152.8614 290.5319,152.5724 L274.1469,136.3794 C273.5579,135.7974 273.5519,134.8474 274.1339,134.2584 C274.7179,133.6694 275.6659,133.6624 276.2559,134.2454 L292.6419,150.4384 C293.2309,151.0214 293.2359,151.9704 292.6539,152.5594 C292.3599,152.8564 291.9739,153.0054 291.5869,153.0054" id="Fill-162"></path>
                <path d="M1119.02838,172 C1118.34238,172 1117.72938,172.381 1117.42638,172.996 L1111.93838,184.119 C1111.72038,184.562 1111.29838,184.869 1110.80938,184.94 L1098.53338,186.724 C1097.85538,186.822 1097.30238,187.288 1097.09138,187.938 C1096.87938,188.592 1097.05138,189.294 1097.54238,189.772 L1106.42438,198.43 C1106.77838,198.775 1106.93938,199.271 1106.85638,199.758 L1104.75938,211.984 C1104.64338,212.66 1104.91638,213.33 1105.47038,213.732 C1106.02438,214.134 1106.74638,214.186 1107.35438,213.867 L1118.33038,208.095 C1118.76738,207.866 1119.28938,207.866 1119.72638,208.095 L1130.70638,213.868 C1131.29938,214.178 1132.05138,214.124 1132.59238,213.732 C1133.13638,213.335 1133.41638,212.651 1133.29938,211.99 L1131.20338,199.758 C1131.12038,199.271 1131.28138,198.775 1131.63438,198.43 L1140.51738,189.772 C1141.01038,189.293 1141.18338,188.592 1140.97138,187.94 C1140.75838,187.289 1140.20638,186.822 1139.52838,186.724 L1127.25338,184.94 C1126.76438,184.869 1126.34138,184.562 1126.12438,184.12 L1120.63238,172.997 C1120.32938,172.382 1119.71438,172 1119.02838,172 M1106.51538,217.077 C1105.52638,217.077 1104.54638,216.769 1103.70838,216.161 C1102.22138,215.081 1101.49138,213.286 1101.80238,211.477 L1103.76638,200.028 L1095.44838,191.92 C1094.13238,190.639 1093.67038,188.758 1094.23938,187.011 C1094.80338,185.268 1096.28438,184.02 1098.10138,183.755 L1109.59738,182.084 L1114.73638,171.669 C1115.54838,170.023 1117.19238,169 1119.02838,169 C1120.86438,169 1122.50938,170.022 1123.32238,171.668 L1128.46538,182.084 L1139.96038,183.755 C1141.77538,184.019 1143.25638,185.267 1143.82438,187.012 C1143.82538,187.012 1143.82538,187.013 1143.82538,187.013 C1144.39338,188.762 1143.92738,190.644 1142.60938,191.923 L1134.29338,200.028 L1136.25638,211.478 C1136.56638,213.252 1135.82138,215.091 1134.35538,216.159 C1132.90738,217.208 1130.90638,217.356 1129.31438,216.526 L1119.02838,211.118 L1108.74938,216.523 C1108.04138,216.894 1107.27638,217.077 1106.51538,217.077" id="Fill-163"></path>
            </g>
        </g>
    </g>
</svg>