<svg xmlns="http://www.w3.org/2000/svg" xmlns:xlink="http://www.w3.org/1999/xlink" id="processonSvg1000" viewBox="61.0 368.9220822461407 901.0 540.5779177538593" width="901.0" height="540.5779177538593"><defs id="ProcessOnDefs1001"/><g id="ProcessOnG1002"><path id="ProcessOnPath1003" d="M61.0 368.9220822461407H962.0V909.5H61.0V368.9220822461407Z" fill="none"/><g id="ProcessOnG1004"><g id="ProcessOnG1005" transform="matrix(1.0,0.0,0.0,1.0,309.375,568.3135803979126)" opacity="1.0"><path id="ProcessOnPath1006" d="M0.0 4.0Q0.0 0.0 4.0 0.0L188.25 0.0Q192.25 0.0 192.25 4.0L192.25 157.73566943900823Q192.25 161.73566943900823 188.25 161.73566943900823L4.0 161.73566943900823Q0.0 161.73566943900823 0.0 157.73566943900823Z" stroke="#323232" stroke-width="2.0" stroke-dasharray="none" opacity="1.0" fill="#00cc00"/><g id="ProcessOnG1007" transform="matrix(1.0,0.0,0.0,1.0,10.0,0.0)"><text id="ProcessOnText1008" fill="#000000" font-size="13" x="0.0" y="13.325" font-family="微软雅黑" font-weight="normal" font-style="normal" text-decoration="none" family="微软雅黑" text-anchor="start" size="13">监控</text></g></g><g id="ProcessOnG1009" transform="matrix(1.0,0.0,0.0,1.0,309.375,389.43621575342473)" opacity="1.0"><path id="ProcessOnPath1010" d="M0.0 4.0Q0.0 0.0 4.0 0.0L188.25 0.0Q192.25 0.0 192.25 4.0L192.25 162.61729452054806Q192.25 166.61729452054806 188.25 166.61729452054806L4.0 166.61729452054806Q0.0 166.61729452054806 0.0 162.61729452054806Z" stroke="#323232" stroke-width="2.0" stroke-dasharray="none" opacity="1.0" fill="#00cc00"/><g id="ProcessOnG1011" transform="matrix(1.0,0.0,0.0,1.0,10.0,0.0)"><text id="ProcessOnText1012" fill="#000000" font-size="13" x="0.0" y="13.325" font-family="微软雅黑" font-weight="normal" font-style="normal" text-decoration="none" family="微软雅黑" text-anchor="start" size="13">日志</text></g></g><g id="ProcessOnG1013" transform="matrix(1.0,0.0,0.0,1.0,512.5,388.9220822461407)" opacity="1.0"><path id="ProcessOnPath1014" d="M0.0 4.0Q0.0 0.0 4.0 0.0L396.5 0.0Q400.5 0.0 400.5 4.0L400.5 337.07791775385937Q400.5 341.07791775385937 396.5 341.07791775385937L4.0 341.07791775385937Q0.0 341.07791775385937 0.0 337.07791775385937Z" stroke="#323232" stroke-width="2.0" stroke-dasharray="none" opacity="1.0" fill="#00cc00"/><g id="ProcessOnG1015" transform="matrix(1.0,0.0,0.0,1.0,10.0,0.0)"><text id="ProcessOnText1016" fill="#000000" font-size="13" x="0.0" y="13.325" font-family="微软雅黑" font-weight="normal" font-style="normal" text-decoration="none" family="微软雅黑" text-anchor="start" size="13">Choerodon</text></g></g><g id="ProcessOnG1017" transform="matrix(1.0,0.0,0.0,1.0,716.5479166666669,408.5)" opacity="1.0"><path id="ProcessOnPath1018" d="M0.0 0.0L188.0 0.0L188.0 135.0L0.0 135.0Z" stroke="#323232" stroke-width="2.0" stroke-dasharray="none" opacity="1.0" fill="#00ff80"/><g id="ProcessOnG1019" transform="matrix(1.0,0.0,0.0,1.0,10.0,0.0)"><text id="ProcessOnText1020" fill="#000000" font-size="13" x="0.0" y="13.325" font-family="微软雅黑" font-weight="normal" font-style="normal" text-decoration="none" family="微软雅黑" text-anchor="start" size="13">洞察监控</text></g></g><g id="ProcessOnG1021" transform="matrix(1.0,0.0,0.0,1.0,522.5,630.7433953033268)" opacity="1.0"><path id="ProcessOnPath1022" d="M0.0 0.0L90.0 0.0L90.0 89.51320939334641L0.0 89.51320939334641Z" stroke="#323232" stroke-width="2.0" stroke-dasharray="none" opacity="1.0" fill="#00ff80"/><g id="ProcessOnG1023" transform="matrix(1.0,0.0,0.0,1.0,10.0,0.0)"><text id="ProcessOnText1024" fill="#000000" font-size="13" x="0.0" y="13.325" font-family="微软雅黑" font-weight="normal" font-style="normal" text-decoration="none" family="微软雅黑" text-anchor="start" size="13">敏捷看板</text></g></g><g id="ProcessOnG1025" transform="matrix(1.0,0.0,0.0,1.0,522.5239583333334,408.5)" opacity="1.0"><path id="ProcessOnPath1026" d="M0.0 0.0L188.0 0.0L188.0 216.0L0.0 216.0Z" stroke="#323232" stroke-width="2.0" stroke-dasharray="none" opacity="1.0" fill="#00ff80"/><g id="ProcessOnG1027" transform="matrix(1.0,0.0,0.0,1.0,10.0,0.0)"><text id="ProcessOnText1028" fill="#000000" font-size="13" x="0.0" y="13.325" font-family="微软雅黑" font-weight="normal" font-style="normal" text-decoration="none" family="微软雅黑" text-anchor="start" size="13">基础框架</text></g></g><g id="ProcessOnG1029"><path id="ProcessOnPath1030" d="M81.0 816.0L511.5 816.0L511.5 816.0L942.0 816.0" stroke="#323232" stroke-width="2.0" stroke-dasharray="10.0 4.0 2.0 4.0" fill="none"/></g><g id="ProcessOnG1031"><path id="ProcessOnPath1032" d="M81.0 889.5L511.5 889.5L511.5 889.5L942.0 889.5" stroke="#323232" stroke-width="2.0" stroke-dasharray="10.0 4.0 2.0 4.0" fill="none"/></g><g id="ProcessOnG1033" transform="matrix(1.0,0.0,0.0,1.0,90.0,839.5)" opacity="1.0"><path id="ProcessOnPath1034" d="M0.0 0.0L76.0 0.0L76.0 22.5L0.0 22.5Z" stroke="none" stroke-width="0.0" stroke-dasharray="none" opacity="1.0" fill="none"/><g id="ProcessOnG1035" transform="matrix(1.0,0.0,0.0,1.0,0.0,1.25)"><text id="ProcessOnText1036" fill="#000000" font-size="16" x="37.0" y="16.4" font-family="微软雅黑" font-weight="normal" font-style="normal" text-decoration="none" family="微软雅黑" text-anchor="middle" size="16">运行环境</text></g></g><g id="ProcessOnG1037" transform="matrix(1.0,0.0,0.0,1.0,170.5,825.5)" opacity="1.0"><path id="ProcessOnPath1038" d="M0.0 4.0Q0.0 0.0 4.0 0.0L739.0 0.0Q743.0 0.0 743.0 4.0L743.0 51.0Q743.0 55.0 739.0 55.0L4.0 55.0Q0.0 55.0 0.0 51.0Z" stroke="#323232" stroke-width="2.0" stroke-dasharray="none" opacity="1.0" fill="#ffff00"/><g id="ProcessOnG1039" transform="matrix(1.0,0.0,0.0,1.0,10.0,19.375)"><text id="ProcessOnText1040" fill="#000000" font-size="13" x="360.5" y="13.325" font-family="微软雅黑" font-weight="normal" font-style="normal" text-decoration="none" family="微软雅黑" text-anchor="middle" size="13">Kubernetes集群</text></g></g><g id="ProcessOnG1041" transform="matrix(1.0,0.0,0.0,1.0,96.0,771.0)" opacity="1.0"><path id="ProcessOnPath1042" d="M0.0 0.0L65.0 0.0L65.0 23.0L0.0 23.0Z" stroke="none" stroke-width="0.0" stroke-dasharray="none" opacity="1.0" fill="none"/><g id="ProcessOnG1043" transform="matrix(1.0,0.0,0.0,1.0,0.0,1.5)"><text id="ProcessOnText1044" fill="#000000" font-size="16" x="31.5" y="16.4" font-family="微软雅黑" font-weight="normal" font-style="normal" text-decoration="none" family="微软雅黑" text-anchor="middle" size="16">数据库</text></g></g><g id="ProcessOnG1045" transform="matrix(1.0,0.0,0.0,1.0,173.5,750.75)" opacity="1.0"><path id="ProcessOnPath1046" d="M0.0 4.0Q0.0 0.0 4.0 0.0L236.0 0.0Q240.0 0.0 240.0 4.0L240.0 51.0Q240.0 55.0 236.0 55.0L4.0 55.0Q0.0 55.0 0.0 51.0Z" stroke="#323232" stroke-width="2.0" stroke-dasharray="none" opacity="1.0" fill="#00ff00"/><g id="ProcessOnG1047" transform="matrix(1.0,0.0,0.0,1.0,10.0,19.375)"><text id="ProcessOnText1048" fill="#000000" font-size="13" x="109.0" y="13.325" font-family="微软雅黑" font-weight="normal" font-style="normal" text-decoration="none" family="微软雅黑" text-anchor="middle" size="13">Mysql</text></g></g><g id="ProcessOnG1049" transform="matrix(1.0,0.0,0.0,1.0,674.5239583333334,750.75)" opacity="1.0"><path id="ProcessOnPath1050" d="M0.0 4.0Q0.0 0.0 4.0 0.0L236.0 0.0Q240.0 0.0 240.0 4.0L240.0 51.0Q240.0 55.0 236.0 55.0L4.0 55.0Q0.0 55.0 0.0 51.0Z" stroke="#323232" stroke-width="2.0" stroke-dasharray="none" opacity="1.0" fill="#00ff00"/><g id="ProcessOnG1051" transform="matrix(1.0,0.0,0.0,1.0,10.0,19.375)"><text id="ProcessOnText1052" fill="#000000" font-size="13" x="109.0" y="13.325" font-family="微软雅黑" font-weight="normal" font-style="normal" text-decoration="none" family="微软雅黑" text-anchor="middle" size="13">Redis</text></g></g><g id="ProcessOnG1053"><path id="ProcessOnPath1054" d="M81.0 739.5L511.5 739.5L511.5 739.5L942.0 739.5" stroke="#323232" stroke-width="2.0" stroke-dasharray="10.0 4.0 2.0 4.0" fill="none"/></g><g id="ProcessOnG1055" transform="matrix(1.0,0.0,0.0,1.0,175.75,389.46104112307034)" opacity="1.0"><path id="ProcessOnPath1056" d="M0.0 4.0Q0.0 0.0 4.0 0.0L116.5 0.0Q120.5 0.0 120.5 4.0L120.5 336.0Q120.5 340.0 116.5 340.0L4.0 340.0Q0.0 340.0 0.0 336.0Z" stroke="#323232" stroke-width="2.0" stroke-dasharray="none" opacity="1.0" fill="#00cc00"/><g id="ProcessOnG1057" transform="matrix(1.0,0.0,0.0,1.0,10.0,0.0)"><text id="ProcessOnText1058" fill="#000000" font-size="13" x="0.0" y="13.325" font-family="微软雅黑" font-weight="normal" font-style="normal" text-decoration="none" family="微软雅黑" text-anchor="start" size="13">基础组件</text></g></g><g id="ProcessOnG1059" transform="matrix(1.0,0.0,0.0,1.0,187.0,414.18107876712344)" opacity="1.0"><path id="ProcessOnPath1060" d="M10.0 0.0L88.0 0.0C101.33333333333333 0.0 101.33333333333333 30.0 88.0 30.0L10.0 30.0C-3.3333333333333335 30.0 -3.3333333333333335 0.0 10.0 0.0Z" stroke="#323232" stroke-width="2.0" stroke-dasharray="none" opacity="1.0" fill="#ffffff"/><g id="ProcessOnG1061" transform="matrix(1.0,0.0,0.0,1.0,10.0,6.875)"><text id="ProcessOnText1062" fill="#000000" font-size="13" x="38.0" y="13.325" font-family="微软雅黑" font-weight="normal" font-style="normal" text-decoration="none" family="微软雅黑" text-anchor="middle" size="13">Gitlab</text></g></g><g id="ProcessOnG1063" transform="matrix(1.0,0.0,0.0,1.0,187.0,448.5538134988586)" opacity="1.0"><path id="ProcessOnPath1064" d="M10.0 0.0L88.0 0.0C101.33333333333333 0.0 101.33333333333333 30.0 88.0 30.0L10.0 30.0C-3.3333333333333335 30.0 -3.3333333333333335 0.0 10.0 0.0Z" stroke="#323232" stroke-width="2.0" stroke-dasharray="none" opacity="1.0" fill="#ffffff"/><g id="ProcessOnG1065" transform="matrix(1.0,0.0,0.0,1.0,10.0,-1.25)"><text id="ProcessOnText1066" fill="#000000" font-size="13" x="38.0" y="13.325" font-family="微软雅黑" font-weight="normal" font-style="normal" text-decoration="none" family="微软雅黑" text-anchor="middle" size="13">Gitlab </text><text id="ProcessOnText1067" fill="#000000" font-size="13" x="38.0" y="29.575" font-family="微软雅黑" font-weight="normal" font-style="normal" text-decoration="none" family="微软雅黑" text-anchor="middle" size="13">Runner</text></g></g><g id="ProcessOnG1068" transform="matrix(1.0,0.0,0.0,1.0,187.0,482.9265482305937)" opacity="1.0"><path id="ProcessOnPath1069" d="M10.0 0.0L88.0 0.0C101.33333333333333 0.0 101.33333333333333 30.0 88.0 30.0L10.0 30.0C-3.3333333333333335 30.0 -3.3333333333333335 0.0 10.0 0.0Z" stroke="#323232" stroke-width="2.0" stroke-dasharray="none" opacity="1.0" fill="#ffffff"/><g id="ProcessOnG1070" transform="matrix(1.0,0.0,0.0,1.0,10.0,6.875)"><text id="ProcessOnText1071" fill="#000000" font-size="13" x="38.0" y="13.325" font-family="微软雅黑" font-weight="normal" font-style="normal" text-decoration="none" family="微软雅黑" text-anchor="middle" size="13">Harbor</text></g></g><g id="ProcessOnG1072" transform="matrix(1.0,0.0,0.0,1.0,187.0,517.2992829623288)" opacity="1.0"><path id="ProcessOnPath1073" d="M10.0 0.0L88.0 0.0C101.33333333333333 0.0 101.33333333333333 30.0 88.0 30.0L10.0 30.0C-3.3333333333333335 30.0 -3.3333333333333335 0.0 10.0 0.0Z" stroke="#323232" stroke-width="2.0" stroke-dasharray="none" opacity="1.0" fill="#ffffff"/><g id="ProcessOnG1074" transform="matrix(1.0,0.0,0.0,1.0,10.0,6.875)"><text id="ProcessOnText1075" fill="#000000" font-size="13" x="38.0" y="13.325" font-family="微软雅黑" font-weight="normal" font-style="normal" text-decoration="none" family="微软雅黑" text-anchor="middle" size="13">SonarQube</text></g></g><g id="ProcessOnG1076" transform="matrix(1.0,0.0,0.0,1.0,536.0,462.24486301369876)" opacity="1.0"><path id="ProcessOnPath1077" d="M8.333333333333334 0.0L66.66666666666667 0.0C77.77777777777777 0.0 77.77777777777777 25.0 66.66666666666667 25.0L8.333333333333334 25.0C-2.777777777777778 25.0 -2.777777777777778 0.0 8.333333333333334 0.0Z" stroke="#323232" stroke-width="2.0" stroke-dasharray="none" opacity="1.0" fill="#ffffff"/><g id="ProcessOnG1078" transform="matrix(1.0,0.0,0.0,1.0,10.0,4.375)"><text id="ProcessOnText1079" fill="#000000" font-size="13" x="26.5" y="13.325" font-family="微软雅黑" font-weight="normal" font-style="normal" text-decoration="none" family="微软雅黑" text-anchor="middle" size="13">注册服务</text></g></g><g id="ProcessOnG1080" transform="matrix(1.0,0.0,0.0,1.0,536.0,493.3086472602741)" opacity="1.0"><path id="ProcessOnPath1081" d="M8.333333333333334 0.0L66.66666666666667 0.0C77.77777777777777 0.0 77.77777777777777 25.0 66.66666666666667 25.0L8.333333333333334 25.0C-2.777777777777778 25.0 -2.777777777777778 0.0 8.333333333333334 0.0Z" stroke="#323232" stroke-width="2.0" stroke-dasharray="none" opacity="1.0" fill="#ffffff"/><g id="ProcessOnG1082" transform="matrix(1.0,0.0,0.0,1.0,10.0,4.375)"><text id="ProcessOnText1083" fill="#000000" font-size="13" x="26.5" y="13.325" font-family="微软雅黑" font-weight="normal" font-style="normal" text-decoration="none" family="微软雅黑" text-anchor="middle" size="13">管理服务</text></g></g><g id="ProcessOnG1084" transform="matrix(1.0,0.0,0.0,1.0,620.0,554.2367906066536)" opacity="1.0"><path id="ProcessOnPath1085" d="M8.333333333333334 0.0L66.66666666666667 0.0C77.77777777777777 0.0 77.77777777777777 25.0 66.66666666666667 25.0L8.333333333333334 25.0C-2.777777777777778 25.0 -2.777777777777778 0.0 8.333333333333334 0.0Z" stroke="#323232" stroke-width="2.0" stroke-dasharray="none" opacity="1.0" fill="#ffffff"/><g id="ProcessOnG1086" transform="matrix(1.0,0.0,0.0,1.0,10.0,4.375)"><text id="ProcessOnText1087" fill="#000000" font-size="13" x="26.5" y="13.325" font-family="微软雅黑" font-weight="normal" font-style="normal" text-decoration="none" family="微软雅黑" text-anchor="middle" size="13">授权服务</text></g></g><g id="ProcessOnG1088" transform="matrix(1.0,0.0,0.0,1.0,620.0,523.4728626467711)" opacity="1.0"><path id="ProcessOnPath1089" d="M8.333333333333334 0.0L66.66666666666667 0.0C77.77777777777777 0.0 77.77777777777777 25.0 66.66666666666667 25.0L8.333333333333334 25.0C-2.777777777777778 25.0 -2.777777777777778 0.0 8.333333333333334 0.0Z" stroke="#323232" stroke-width="2.0" stroke-dasharray="none" opacity="1.0" fill="#ffffff"/><g id="ProcessOnG1090" transform="matrix(1.0,0.0,0.0,1.0,10.0,4.375)"><text id="ProcessOnText1091" fill="#000000" font-size="13" x="26.5" y="13.325" font-family="微软雅黑" font-weight="normal" font-style="normal" text-decoration="none" family="微软雅黑" text-anchor="middle" size="13">用户服务</text></g></g><g id="ProcessOnG1092" transform="matrix(1.0,0.0,0.0,1.0,536.0,524.3724315068494)" opacity="1.0"><path id="ProcessOnPath1093" d="M8.333333333333334 0.0L66.66666666666667 0.0C77.77777777777777 0.0 77.77777777777777 25.0 66.66666666666667 25.0L8.333333333333334 25.0C-2.777777777777778 25.0 -2.777777777777778 0.0 8.333333333333334 0.0Z" stroke="#323232" stroke-width="2.0" stroke-dasharray="none" opacity="1.0" fill="#ffffff"/><g id="ProcessOnG1094" transform="matrix(1.0,0.0,0.0,1.0,10.0,4.375)"><text id="ProcessOnText1095" fill="#000000" font-size="13" x="26.5" y="13.325" font-family="微软雅黑" font-weight="normal" font-style="normal" text-decoration="none" family="微软雅黑" text-anchor="middle" size="13">配置服务</text></g></g><g id="ProcessOnG1096" transform="matrix(1.0,0.0,0.0,1.0,536.0,431.18107876712344)" opacity="1.0"><path id="ProcessOnPath1097" d="M8.333333333333334 0.0L66.66666666666667 0.0C77.77777777777777 0.0 77.77777777777777 25.0 66.66666666666667 25.0L8.333333333333334 25.0C-2.777777777777778 25.0 -2.777777777777778 0.0 8.333333333333334 0.0Z" stroke="#323232" stroke-width="2.0" stroke-dasharray="none" opacity="1.0" fill="#ffffff"/><g id="ProcessOnG1098" transform="matrix(1.0,0.0,0.0,1.0,10.0,4.375)"><text id="ProcessOnText1099" fill="#000000" font-size="13" x="26.5" y="13.325" font-family="微软雅黑" font-weight="normal" font-style="normal" text-decoration="none" family="微软雅黑" text-anchor="middle" size="13">网关服务</text></g></g><g id="ProcessOnG1100" transform="matrix(1.0,0.0,0.0,1.0,620.0,461.945006727006)" opacity="1.0"><path id="ProcessOnPath1101" d="M8.333333333333334 0.0L66.66666666666667 0.0C77.77777777777777 0.0 77.77777777777777 25.0 66.66666666666667 25.0L8.333333333333334 25.0C-2.777777777777778 25.0 -2.777777777777778 0.0 8.333333333333334 0.0Z" stroke="#323232" stroke-width="2.0" stroke-dasharray="none" opacity="1.0" fill="#ffffff"/><g id="ProcessOnG1102" transform="matrix(1.0,0.0,0.0,1.0,10.0,4.375)"><text id="ProcessOnText1103" fill="#000000" font-size="13" x="26.5" y="13.325" font-family="微软雅黑" font-weight="normal" font-style="normal" text-decoration="none" family="微软雅黑" text-anchor="middle" size="13">消息服务</text></g></g><g id="ProcessOnG1104" transform="matrix(1.0,0.0,0.0,1.0,536.0,555.4362157534247)" opacity="1.0"><path id="ProcessOnPath1105" d="M10.0 0.0L65.0 0.0C78.33333333333333 0.0 78.33333333333333 30.0 65.0 30.0L10.0 30.0C-3.3333333333333335 30.0 -3.3333333333333335 0.0 10.0 0.0Z" stroke="#323232" stroke-width="2.0" stroke-dasharray="none" opacity="1.0" fill="#ffffff"/><g id="ProcessOnG1106" transform="matrix(1.0,0.0,0.0,1.0,10.0,-1.25)"><text id="ProcessOnText1107" fill="#000000" font-size="13" x="26.5" y="13.325" font-family="微软雅黑" font-weight="normal" font-style="normal" text-decoration="none" family="微软雅黑" text-anchor="middle" size="13">用户管理</text><text id="ProcessOnText1108" fill="#000000" font-size="13" x="26.5" y="29.575" font-family="微软雅黑" font-weight="normal" font-style="normal" text-decoration="none" family="微软雅黑" text-anchor="middle" size="13">服务</text></g></g><g id="ProcessOnG1109" transform="matrix(1.0,0.0,0.0,1.0,620.0,492.70893468688854)" opacity="1.0"><path id="ProcessOnPath1110" d="M8.333333333333334 0.0L66.66666666666667 0.0C77.77777777777777 0.0 77.77777777777777 25.0 66.66666666666667 25.0L8.333333333333334 25.0C-2.777777777777778 25.0 -2.777777777777778 0.0 8.333333333333334 0.0Z" stroke="#323232" stroke-width="2.0" stroke-dasharray="none" opacity="1.0" fill="#ffffff"/><g id="ProcessOnG1111" transform="matrix(1.0,0.0,0.0,1.0,10.0,4.375)"><text id="ProcessOnText1112" fill="#000000" font-size="13" x="26.5" y="13.325" font-family="微软雅黑" font-weight="normal" font-style="normal" text-decoration="none" family="微软雅黑" text-anchor="middle" size="13">框架服务</text></g></g><g id="ProcessOnG1113" transform="matrix(1.0,0.0,0.0,1.0,620.0,431.18107876712344)" opacity="1.0"><path id="ProcessOnPath1114" d="M8.333333333333334 0.0L66.66666666666667 0.0C77.77777777777777 0.0 77.77777777777777 25.0 66.66666666666667 25.0L8.333333333333334 25.0C-2.777777777777778 25.0 -2.777777777777778 0.0 8.333333333333334 0.0Z" stroke="#323232" stroke-width="2.0" stroke-dasharray="none" opacity="1.0" fill="#ffffff"/><g id="ProcessOnG1115" transform="matrix(1.0,0.0,0.0,1.0,10.0,4.375)"><text id="ProcessOnText1116" fill="#000000" font-size="13" x="26.5" y="13.325" font-family="微软雅黑" font-weight="normal" font-style="normal" text-decoration="none" family="微软雅黑" text-anchor="middle" size="13">文件服务</text></g></g><g id="ProcessOnG1117" transform="matrix(1.0,0.0,0.0,1.0,802.5,507.18392245596874)" opacity="1.0"><path id="ProcessOnPath1118" d="M9.989012557077634 0.0L83.01098744292237 0.0C96.32967085235921 0.0 96.32967085235921 29.9670376712329 83.01098744292237 29.9670376712329L9.989012557077634 29.9670376712329C-3.3296708523592113 29.9670376712329 -3.3296708523592113 0.0 9.989012557077634 0.0Z" stroke="#323232" stroke-width="2.0" stroke-dasharray="none" opacity="1.0" fill="#ffffff"/><g id="ProcessOnG1119" transform="matrix(1.0,0.0,0.0,1.0,10.0,-1.2664811643835492)"><text id="ProcessOnText1120" fill="#000000" font-size="13" x="35.5" y="13.325" font-family="微软雅黑" font-weight="normal" font-style="normal" text-decoration="none" family="微软雅黑" text-anchor="middle" size="13">SonarQube</text><text id="ProcessOnText1121" fill="#000000" font-size="13" x="35.5" y="29.575" font-family="微软雅黑" font-weight="normal" font-style="normal" text-decoration="none" family="微软雅黑" text-anchor="middle" size="13">服务</text></g></g><g id="ProcessOnG1122" transform="matrix(1.0,0.0,0.0,1.0,802.5,469.905577299413)" opacity="1.0"><path id="ProcessOnPath1123" d="M10.0 0.0L83.0 0.0C96.33333333333333 0.0 96.33333333333333 30.0 83.0 30.0L10.0 30.0C-3.3333333333333335 30.0 -3.3333333333333335 0.0 10.0 0.0Z" stroke="#323232" stroke-width="2.0" stroke-dasharray="none" opacity="1.0" fill="#ffffff"/><g id="ProcessOnG1124" transform="matrix(1.0,0.0,0.0,1.0,10.0,-1.25)"><text id="ProcessOnText1125" fill="#000000" font-size="13" x="35.5" y="13.325" font-family="微软雅黑" font-weight="normal" font-style="normal" text-decoration="none" family="微软雅黑" text-anchor="middle" size="13">数据操作</text><text id="ProcessOnText1126" fill="#000000" font-size="13" x="35.5" y="29.575" font-family="微软雅黑" font-weight="normal" font-style="normal" text-decoration="none" family="微软雅黑" text-anchor="middle" size="13">服务</text></g></g><g id="ProcessOnG1127" transform="matrix(1.0,0.0,0.0,1.0,721.5,467.9009601272017)" opacity="1.0"><path id="ProcessOnPath1128" d="M10.0 0.0L65.0 0.0C78.33333333333333 0.0 78.33333333333333 30.0 65.0 30.0L10.0 30.0C-3.3333333333333335 30.0 -3.3333333333333335 0.0 10.0 0.0Z" stroke="#323232" stroke-width="2.0" stroke-dasharray="none" opacity="1.0" fill="#ffffff"/><g id="ProcessOnG1129" transform="matrix(1.0,0.0,0.0,1.0,10.0,-1.25)"><text id="ProcessOnText1130" fill="#000000" font-size="13" x="26.5" y="13.325" font-family="微软雅黑" font-weight="normal" font-style="normal" text-decoration="none" family="微软雅黑" text-anchor="middle" size="13">数据提供</text><text id="ProcessOnText1131" fill="#000000" font-size="13" x="26.5" y="29.575" font-family="微软雅黑" font-weight="normal" font-style="normal" text-decoration="none" family="微软雅黑" text-anchor="middle" size="13">服务</text></g></g><g id="ProcessOnG1132" transform="matrix(1.0,0.0,0.0,1.0,529.6437499999997,656.1152424440102)" opacity="1.0"><path id="ProcessOnPath1133" d="M8.333333333333334 0.0L66.66666666666667 0.0C77.77777777777777 0.0 77.77777777777777 25.0 66.66666666666667 25.0L8.333333333333334 25.0C-2.777777777777778 25.0 -2.777777777777778 0.0 8.333333333333334 0.0Z" stroke="#323232" stroke-width="2.0" stroke-dasharray="none" opacity="1.0" fill="#ffffff"/><g id="ProcessOnG1134" transform="matrix(1.0,0.0,0.0,1.0,10.0,4.375)"><text id="ProcessOnText1135" fill="#000000" font-size="13" x="26.5" y="13.325" font-family="微软雅黑" font-weight="normal" font-style="normal" text-decoration="none" family="微软雅黑" text-anchor="middle" size="13">看板服务</text></g></g><g id="ProcessOnG1136" transform="matrix(1.0,0.0,0.0,1.0,802.5,435.03296232876716)" opacity="1.0"><path id="ProcessOnPath1137" d="M10.0 0.0L83.0 0.0C96.33333333333333 0.0 96.33333333333333 30.0 83.0 30.0L10.0 30.0C-3.3333333333333335 30.0 -3.3333333333333335 0.0 10.0 0.0Z" stroke="#323232" stroke-width="2.0" stroke-dasharray="none" opacity="1.0" fill="#ffffff"/><g id="ProcessOnG1138" transform="matrix(1.0,0.0,0.0,1.0,10.0,-1.25)"><text id="ProcessOnText1139" fill="#000000" font-size="13" x="35.5" y="13.325" font-family="微软雅黑" font-weight="normal" font-style="normal" text-decoration="none" family="微软雅黑" text-anchor="middle" size="13">数据整合</text><text id="ProcessOnText1140" fill="#000000" font-size="13" x="35.5" y="29.575" font-family="微软雅黑" font-weight="normal" font-style="normal" text-decoration="none" family="微软雅黑" text-anchor="middle" size="13">服务</text></g></g><g id="ProcessOnG1141" transform="matrix(1.0,0.0,0.0,1.0,536.0,591.5)" opacity="1.0"><path id="ProcessOnPath1142" d="M8.333333333333334 0.0L66.66666666666667 0.0C77.77777777777777 0.0 77.77777777777777 25.0 66.66666666666667 25.0L8.333333333333334 25.0C-2.777777777777778 25.0 -2.777777777777778 0.0 8.333333333333334 0.0Z" stroke="#323232" stroke-width="2.0" stroke-dasharray="none" opacity="1.0" fill="#ffffff"/><g id="ProcessOnG1143" transform="matrix(1.0,0.0,0.0,1.0,10.0,4.375)"><text id="ProcessOnText1144" fill="#000000" font-size="13" x="26.5" y="13.325" font-family="微软雅黑" font-weight="normal" font-style="normal" text-decoration="none" family="微软雅黑" text-anchor="middle" size="13">框架前端</text></g></g><g id="ProcessOnG1145" transform="matrix(1.0,0.0,0.0,1.0,721.5,507.15096012720164)" opacity="1.0"><path id="ProcessOnPath1146" d="M8.333333333333334 0.0L66.66666666666667 0.0C77.77777777777777 0.0 77.77777777777777 25.0 66.66666666666667 25.0L8.333333333333334 25.0C-2.777777777777778 25.0 -2.777777777777778 0.0 8.333333333333334 0.0Z" stroke="#323232" stroke-width="2.0" stroke-dasharray="none" opacity="1.0" fill="#ffffff"/><g id="ProcessOnG1147" transform="matrix(1.0,0.0,0.0,1.0,10.0,4.375)"><text id="ProcessOnText1148" fill="#000000" font-size="13" x="26.5" y="13.325" font-family="微软雅黑" font-weight="normal" font-style="normal" text-decoration="none" family="微软雅黑" text-anchor="middle" size="13">洞察前端</text></g></g><g id="ProcessOnG1149" transform="matrix(1.0,0.0,0.0,1.0,721.5,433.6509601272017)" opacity="1.0"><path id="ProcessOnPath1150" d="M8.333333333333334 0.0L66.66666666666667 0.0C77.77777777777777 0.0 77.77777777777777 25.0 66.66666666666667 25.0L8.333333333333334 25.0C-2.777777777777778 25.0 -2.777777777777778 0.0 8.333333333333334 0.0Z" stroke="#323232" stroke-width="2.0" stroke-dasharray="none" opacity="1.0" fill="#ffffff"/><g id="ProcessOnG1151" transform="matrix(1.0,0.0,0.0,1.0,10.0,4.375)"><text id="ProcessOnText1152" fill="#000000" font-size="13" x="26.5" y="13.325" font-family="微软雅黑" font-weight="normal" font-style="normal" text-decoration="none" family="微软雅黑" text-anchor="middle" size="13">监控前端</text></g></g><g id="ProcessOnG1153" transform="matrix(1.0,0.0,0.0,1.0,529.6437499999997,689.1418446944992)" opacity="1.0"><path id="ProcessOnPath1154" d="M8.333333333333334 0.0L66.66666666666667 0.0C77.77777777777777 0.0 77.77777777777777 25.0 66.66666666666667 25.0L8.333333333333334 25.0C-2.777777777777778 25.0 -2.777777777777778 0.0 8.333333333333334 0.0Z" stroke="#323232" stroke-width="2.0" stroke-dasharray="none" opacity="1.0" fill="#ffffff"/><g id="ProcessOnG1155" transform="matrix(1.0,0.0,0.0,1.0,10.0,4.375)"><text id="ProcessOnText1156" fill="#000000" font-size="13" x="26.5" y="13.325" font-family="微软雅黑" font-weight="normal" font-style="normal" text-decoration="none" family="微软雅黑" text-anchor="middle" size="13">看板前端</text></g></g><g id="ProcessOnG1157" transform="matrix(1.0,0.0,0.0,1.0,96.0,561.2367906066536)" opacity="1.0"><path id="ProcessOnPath1158" d="M0.0 0.0L65.0 0.0L65.0 23.0L0.0 23.0Z" stroke="none" stroke-width="0.0" stroke-dasharray="none" opacity="1.0" fill="none"/><g id="ProcessOnG1159" transform="matrix(1.0,0.0,0.0,1.0,0.0,1.5)"><text id="ProcessOnText1160" fill="#000000" font-size="16" x="31.5" y="16.4" font-family="微软雅黑" font-weight="normal" font-style="normal" text-decoration="none" family="微软雅黑" text-anchor="middle" size="16">应用</text></g></g><g id="ProcessOnG1161" transform="matrix(1.0,0.0,0.0,1.0,620.5,630.7433953033268)" opacity="1.0"><path id="ProcessOnPath1162" d="M0.0 0.0L90.0 0.0L90.0 89.51320939334641L0.0 89.51320939334641Z" stroke="#323232" stroke-width="2.0" stroke-dasharray="none" opacity="1.0" fill="#00ff80"/><g id="ProcessOnG1163" transform="matrix(1.0,0.0,0.0,1.0,10.0,0.0)"><text id="ProcessOnText1164" fill="#000000" font-size="13" x="0.0" y="13.325" font-family="微软雅黑" font-weight="normal" font-style="normal" text-decoration="none" family="微软雅黑" text-anchor="start" size="13">移动开发</text></g></g><g id="ProcessOnG1165" transform="matrix(1.0,0.0,0.0,1.0,628.0135416666667,689.1418446944992)" opacity="1.0"><path id="ProcessOnPath1166" d="M8.333333333333334 0.0L66.66666666666667 0.0C77.77777777777777 0.0 77.77777777777777 25.0 66.66666666666667 25.0L8.333333333333334 25.0C-2.777777777777778 25.0 -2.777777777777778 0.0 8.333333333333334 0.0Z" stroke="#323232" stroke-width="2.0" stroke-dasharray="none" opacity="1.0" fill="#ffffff"/><g id="ProcessOnG1167" transform="matrix(1.0,0.0,0.0,1.0,10.0,4.375)"><text id="ProcessOnText1168" fill="#000000" font-size="13" x="26.5" y="13.325" font-family="微软雅黑" font-weight="normal" font-style="normal" text-decoration="none" family="微软雅黑" text-anchor="middle" size="13">移动前端</text></g></g><g id="ProcessOnG1169" transform="matrix(1.0,0.0,0.0,1.0,628.0135416666667,656.1152424440102)" opacity="1.0"><path id="ProcessOnPath1170" d="M8.333333333333334 0.0L66.66666666666667 0.0C77.77777777777777 0.0 77.77777777777777 25.0 66.66666666666667 25.0L8.333333333333334 25.0C-2.777777777777778 25.0 -2.777777777777778 0.0 8.333333333333334 0.0Z" stroke="#323232" stroke-width="2.0" stroke-dasharray="none" opacity="1.0" fill="#ffffff"/><g id="ProcessOnG1171" transform="matrix(1.0,0.0,0.0,1.0,10.0,4.375)"><text id="ProcessOnText1172" fill="#000000" font-size="13" x="26.5" y="13.325" font-family="微软雅黑" font-weight="normal" font-style="normal" text-decoration="none" family="微软雅黑" text-anchor="middle" size="13">移动服务</text></g></g><g id="ProcessOnG1173" transform="matrix(1.0,0.0,0.0,1.0,716.5239583333334,549.3724315068494)" opacity="1.0"><path id="ProcessOnPath1174" d="M0.0 0.0L90.0 0.0L90.0 172.0L0.0 172.0Z" stroke="#323232" stroke-width="2.0" stroke-dasharray="none" opacity="1.0" fill="#00ff80"/><g id="ProcessOnG1175" transform="matrix(1.0,0.0,0.0,1.0,10.0,0.0)"><text id="ProcessOnText1176" fill="#000000" font-size="13" x="0.0" y="13.325" font-family="微软雅黑" font-weight="normal" font-style="normal" text-decoration="none" family="微软雅黑" text-anchor="start" size="13">开发管理</text></g></g><g id="ProcessOnG1177" transform="matrix(1.0,0.0,0.0,1.0,725.0,579.2367906066536)" opacity="1.0"><path id="ProcessOnPath1178" d="M10.0 0.0L65.0 0.0C78.33333333333333 0.0 78.33333333333333 30.0 65.0 30.0L10.0 30.0C-3.3333333333333335 30.0 -3.3333333333333335 0.0 10.0 0.0Z" stroke="#323232" stroke-width="2.0" stroke-dasharray="none" opacity="1.0" fill="#ffffff"/><g id="ProcessOnG1179" transform="matrix(1.0,0.0,0.0,1.0,10.0,-1.25)"><text id="ProcessOnText1180" fill="#000000" font-size="13" x="26.5" y="13.325" font-family="微软雅黑" font-weight="normal" font-style="normal" text-decoration="none" family="微软雅黑" text-anchor="middle" size="13">Gitlab</text><text id="ProcessOnText1181" fill="#000000" font-size="13" x="26.5" y="29.575" font-family="微软雅黑" font-weight="normal" font-style="normal" text-decoration="none" family="微软雅黑" text-anchor="middle" size="13">服务</text></g></g><g id="ProcessOnG1182" transform="matrix(1.0,0.0,0.0,1.0,725.0,636.6814151174167)" opacity="1.0"><path id="ProcessOnPath1183" d="M8.333333333333334 0.0L66.66666666666667 0.0C77.77777777777777 0.0 77.77777777777777 25.0 66.66666666666667 25.0L8.333333333333334 25.0C-2.777777777777778 25.0 -2.777777777777778 0.0 8.333333333333334 0.0Z" stroke="#323232" stroke-width="2.0" stroke-dasharray="none" opacity="1.0" fill="#ffffff"/><g id="ProcessOnG1184" transform="matrix(1.0,0.0,0.0,1.0,10.0,4.375)"><text id="ProcessOnText1185" fill="#000000" font-size="13" x="26.5" y="13.325" font-family="微软雅黑" font-weight="normal" font-style="normal" text-decoration="none" family="微软雅黑" text-anchor="middle" size="13">开发服务</text></g></g><g id="ProcessOnG1186" transform="matrix(1.0,0.0,0.0,1.0,725.0,689.1260396281798)" opacity="1.0"><path id="ProcessOnPath1187" d="M8.333333333333334 0.0L66.66666666666667 0.0C77.77777777777777 0.0 77.77777777777777 25.0 66.66666666666667 25.0L8.333333333333334 25.0C-2.777777777777778 25.0 -2.777777777777778 0.0 8.333333333333334 0.0Z" stroke="#323232" stroke-width="2.0" stroke-dasharray="none" opacity="1.0" fill="#ffffff"/><g id="ProcessOnG1188" transform="matrix(1.0,0.0,0.0,1.0,10.0,4.375)"><text id="ProcessOnText1189" fill="#000000" font-size="13" x="26.5" y="13.325" font-family="微软雅黑" font-weight="normal" font-style="normal" text-decoration="none" family="微软雅黑" text-anchor="middle" size="13">开发前端</text></g></g><g id="ProcessOnG1190" transform="matrix(1.0,0.0,0.0,1.0,814.5479166666669,549.3724315068494)" opacity="1.0"><path id="ProcessOnPath1191" d="M0.0 0.0L90.0 0.0L90.0 172.0L0.0 172.0Z" stroke="#323232" stroke-width="2.0" stroke-dasharray="none" opacity="1.0" fill="#00ff80"/><g id="ProcessOnG1192" transform="matrix(1.0,0.0,0.0,1.0,10.0,0.0)"><text id="ProcessOnText1193" fill="#000000" font-size="13" x="0.0" y="13.325" font-family="微软雅黑" font-weight="normal" font-style="normal" text-decoration="none" family="微软雅黑" text-anchor="start" size="13">部署管理</text></g></g><g id="ProcessOnG1194" transform="matrix(1.0,0.0,0.0,1.0,822.0,649.1629566210045)" opacity="1.0"><path id="ProcessOnPath1195" d="M10.0 0.0L65.0 0.0C78.33333333333333 0.0 78.33333333333333 30.0 65.0 30.0L10.0 30.0C-3.3333333333333335 30.0 -3.3333333333333335 0.0 10.0 0.0Z" stroke="#323232" stroke-width="2.0" stroke-dasharray="none" opacity="1.0" fill="#ffffff"/><g id="ProcessOnG1196" transform="matrix(1.0,0.0,0.0,1.0,10.0,-1.25)"><text id="ProcessOnText1197" fill="#000000" font-size="13" x="26.5" y="13.325" font-family="微软雅黑" font-weight="normal" font-style="normal" text-decoration="none" family="微软雅黑" text-anchor="middle" size="13">K8S</text><text id="ProcessOnText1198" fill="#000000" font-size="13" x="26.5" y="29.575" font-family="微软雅黑" font-weight="normal" font-style="normal" text-decoration="none" family="微软雅黑" text-anchor="middle" size="13">消息收集</text></g></g><g id="ProcessOnG1199" transform="matrix(1.0,0.0,0.0,1.0,822.0,614.199873613829)" opacity="1.0"><path id="ProcessOnPath1200" d="M8.333333333333334 0.0L66.66666666666667 0.0C77.77777777777777 0.0 77.77777777777777 25.0 66.66666666666667 25.0L8.333333333333334 25.0C-2.777777777777778 25.0 -2.777777777777778 0.0 8.333333333333334 0.0Z" stroke="#323232" stroke-width="2.0" stroke-dasharray="none" opacity="1.0" fill="#ffffff"/><g id="ProcessOnG1201" transform="matrix(1.0,0.0,0.0,1.0,10.0,4.375)"><text id="ProcessOnText1202" fill="#000000" font-size="13" x="26.5" y="13.325" font-family="微软雅黑" font-weight="normal" font-style="normal" text-decoration="none" family="微软雅黑" text-anchor="middle" size="13">K8S服务</text></g></g><g id="ProcessOnG1203" transform="matrix(1.0,0.0,0.0,1.0,822.0,579.2367906066536)" opacity="1.0"><path id="ProcessOnPath1204" d="M8.333333333333334 0.0L66.66666666666667 0.0C77.77777777777777 0.0 77.77777777777777 25.0 66.66666666666667 25.0L8.333333333333334 25.0C-2.777777777777778 25.0 -2.777777777777778 0.0 8.333333333333334 0.0Z" stroke="#323232" stroke-width="2.0" stroke-dasharray="none" opacity="1.0" fill="#ffffff"/><g id="ProcessOnG1205" transform="matrix(1.0,0.0,0.0,1.0,10.0,4.375)"><text id="ProcessOnText1206" fill="#000000" font-size="13" x="26.5" y="13.325" font-family="微软雅黑" font-weight="normal" font-style="normal" text-decoration="none" family="微软雅黑" text-anchor="middle" size="13">部署服务</text></g></g><g id="ProcessOnG1207" transform="matrix(1.0,0.0,0.0,1.0,822.0,689.1260396281799)" opacity="1.0"><path id="ProcessOnPath1208" d="M8.333333333333334 0.0L66.66666666666667 0.0C77.77777777777777 0.0 77.77777777777777 25.0 66.66666666666667 25.0L8.333333333333334 25.0C-2.777777777777778 25.0 -2.777777777777778 0.0 8.333333333333334 0.0Z" stroke="#323232" stroke-width="2.0" stroke-dasharray="none" opacity="1.0" fill="#ffffff"/><g id="ProcessOnG1209" transform="matrix(1.0,0.0,0.0,1.0,10.0,4.375)"><text id="ProcessOnText1210" fill="#000000" font-size="13" x="26.5" y="13.325" font-family="微软雅黑" font-weight="normal" font-style="normal" text-decoration="none" family="微软雅黑" text-anchor="middle" size="13">部署前端</text></g></g><g id="ProcessOnG1211" transform="matrix(1.0,0.0,0.0,1.0,424.0119791666667,750.75)" opacity="1.0"><path id="ProcessOnPath1212" d="M0.0 4.0Q0.0 0.0 4.0 0.0L236.0 0.0Q240.0 0.0 240.0 4.0L240.0 51.0Q240.0 55.0 236.0 55.0L4.0 55.0Q0.0 55.0 0.0 51.0Z" stroke="#323232" stroke-width="2.0" stroke-dasharray="none" opacity="1.0" fill="#00ff00"/><g id="ProcessOnG1213" transform="matrix(1.0,0.0,0.0,1.0,10.0,19.375)"><text id="ProcessOnText1214" fill="#000000" font-size="13" x="109.0" y="13.325" font-family="微软雅黑" font-weight="normal" font-style="normal" text-decoration="none" family="微软雅黑" text-anchor="middle" size="13">PostgreSql</text></g></g><g id="ProcessOnG1215" transform="matrix(1.0,0.0,0.0,1.0,187.0,551.6720176940639)" opacity="1.0"><path id="ProcessOnPath1216" d="M10.0 0.0L88.0 0.0C101.33333333333333 0.0 101.33333333333333 30.0 88.0 30.0L10.0 30.0C-3.3333333333333335 30.0 -3.3333333333333335 0.0 10.0 0.0Z" stroke="#323232" stroke-width="2.0" stroke-dasharray="none" opacity="1.0" fill="#ffffff"/><g id="ProcessOnG1217" transform="matrix(1.0,0.0,0.0,1.0,10.0,6.875)"><text id="ProcessOnText1218" fill="#000000" font-size="13" x="38.0" y="13.325" font-family="微软雅黑" font-weight="normal" font-style="normal" text-decoration="none" family="微软雅黑" text-anchor="middle" size="13">Minio</text></g></g><g id="ProcessOnG1219" transform="matrix(1.0,0.0,0.0,1.0,187.0,586.0447524257991)" opacity="1.0"><path id="ProcessOnPath1220" d="M10.0 0.0L88.0 0.0C101.33333333333333 0.0 101.33333333333333 30.0 88.0 30.0L10.0 30.0C-3.3333333333333335 30.0 -3.3333333333333335 0.0 10.0 0.0Z" stroke="#323232" stroke-width="2.0" stroke-dasharray="none" opacity="1.0" fill="#ffffff"/><g id="ProcessOnG1221" transform="matrix(1.0,0.0,0.0,1.0,10.0,6.875)"><text id="ProcessOnText1222" fill="#000000" font-size="13" x="38.0" y="13.325" font-family="微软雅黑" font-weight="normal" font-style="normal" text-decoration="none" family="微软雅黑" text-anchor="middle" size="13">Kafka</text></g></g><g id="ProcessOnG1223" transform="matrix(1.0,0.0,0.0,1.0,187.0,620.4174871575342)" opacity="1.0"><path id="ProcessOnPath1224" d="M10.0 0.0L88.0 0.0C101.33333333333333 0.0 101.33333333333333 30.0 88.0 30.0L10.0 30.0C-3.3333333333333335 30.0 -3.3333333333333335 0.0 10.0 0.0Z" stroke="#323232" stroke-width="2.0" stroke-dasharray="none" opacity="1.0" fill="#ffffff"/><g id="ProcessOnG1225" transform="matrix(1.0,0.0,0.0,1.0,10.0,6.875)"><text id="ProcessOnText1226" fill="#000000" font-size="13" x="38.0" y="13.325" font-family="微软雅黑" font-weight="normal" font-style="normal" text-decoration="none" family="微软雅黑" text-anchor="middle" size="13">Zookeeper</text></g></g><g id="ProcessOnG1227" transform="matrix(1.0,0.0,0.0,1.0,187.0,654.7902218892693)" opacity="1.0"><path id="ProcessOnPath1228" d="M10.0 0.0L88.0 0.0C101.33333333333333 0.0 101.33333333333333 30.0 88.0 30.0L10.0 30.0C-3.3333333333333335 30.0 -3.3333333333333335 0.0 10.0 0.0Z" stroke="#323232" stroke-width="2.0" stroke-dasharray="none" opacity="1.0" fill="#ffffff"/><g id="ProcessOnG1229" transform="matrix(1.0,0.0,0.0,1.0,10.0,6.875)"><text id="ProcessOnText1230" fill="#000000" font-size="13" x="38.0" y="13.325" font-family="微软雅黑" font-weight="normal" font-style="normal" text-decoration="none" family="微软雅黑" text-anchor="middle" size="13">Rabbitmq</text></g></g><g id="ProcessOnG1231" transform="matrix(1.0,0.0,0.0,1.0,352.0,693.1260396281799)" opacity="1.0"><path id="ProcessOnPath1232" d="M10.3768550228311 0.0L132.10517622716887 0.0C145.94098292427702 0.0 145.94098292427702 31.130565068493297 132.10517622716887 31.130565068493297L10.3768550228311 31.130565068493297C-3.458951674277033 31.130565068493297 -3.458951674277033 0.0 10.3768550228311 0.0Z" stroke="#323232" stroke-width="2.0" stroke-dasharray="none" opacity="1.0" fill="#ffffff"/><g id="ProcessOnG1233" transform="matrix(1.0,0.0,0.0,1.0,10.0,7.4402825342466485)"><text id="ProcessOnText1234" fill="#000000" font-size="13" x="60.24101562499999" y="13.325" font-family="微软雅黑" font-weight="normal" font-style="normal" text-decoration="none" family="微软雅黑" text-anchor="middle" size="13">prometheus</text></g></g><g id="ProcessOnG1235" transform="matrix(1.0,0.0,0.0,1.0,352.0,656.0323915525112)" opacity="1.0"><path id="ProcessOnPath1236" d="M10.3768550228311 0.0L132.10517622716887 0.0C145.94098292427702 0.0 145.94098292427702 31.130565068493297 132.10517622716887 31.130565068493297L10.3768550228311 31.130565068493297C-3.458951674277033 31.130565068493297 -3.458951674277033 0.0 10.3768550228311 0.0Z" stroke="#323232" stroke-width="2.0" stroke-dasharray="none" opacity="1.0" fill="#ffffff"/><g id="ProcessOnG1237" transform="matrix(1.0,0.0,0.0,1.0,10.0,7.4402825342466485)"><text id="ProcessOnText1238" fill="#000000" font-size="13" x="60.24101562499999" y="13.325" font-family="微软雅黑" font-weight="normal" font-style="normal" text-decoration="none" family="微软雅黑" text-anchor="middle" size="13">kube-state-metrics</text></g></g><g id="ProcessOnG1239" transform="matrix(1.0,0.0,0.0,1.0,352.0,617.7492661448139)" opacity="1.0"><path id="ProcessOnPath1240" d="M10.3768550228311 0.0L132.10517622716887 0.0C145.94098292427702 0.0 145.94098292427702 31.130565068493297 132.10517622716887 31.130565068493297L10.3768550228311 31.130565068493297C-3.458951674277033 31.130565068493297 -3.458951674277033 0.0 10.3768550228311 0.0Z" stroke="#323232" stroke-width="2.0" stroke-dasharray="none" opacity="1.0" fill="#ffffff"/><g id="ProcessOnG1241" transform="matrix(1.0,0.0,0.0,1.0,10.0,7.4402825342466485)"><text id="ProcessOnText1242" fill="#000000" font-size="13" x="60.24101562499999" y="13.325" font-family="微软雅黑" font-weight="normal" font-style="normal" text-decoration="none" family="微软雅黑" text-anchor="middle" size="13">node-exporter</text></g></g><g id="ProcessOnG1243" transform="matrix(6.123233995736766E-17,1.0,-1.0,6.123233995736766E-17,345.94403334964124,618.7373817677754)" opacity="1.0"><path id="ProcessOnPath1244" d="M9.666666666666666 0.0L57.221400032615826 0.0C70.11028892150472 0.0 70.11028892150472 29.0 57.221400032615826 29.0L9.666666666666666 29.0C-3.222222222222222 29.0 -3.222222222222222 0.0 9.666666666666666 0.0Z" stroke="#323232" stroke-width="2.0" stroke-dasharray="none" opacity="1.0" fill="#ffffff"/><g id="ProcessOnG1245" transform="matrix(1.0,0.0,0.0,1.0,10.0,-1.75)"><text id="ProcessOnText1246" fill="#000000" font-size="13" x="22.444033349641245" y="13.325" font-family="微软雅黑" font-weight="normal" font-style="normal" text-decoration="none" family="微软雅黑" text-anchor="middle" size="13">grafan</text><text id="ProcessOnText1247" fill="#000000" font-size="13" x="22.444033349641245" y="29.575" font-family="微软雅黑" font-weight="normal" font-style="normal" text-decoration="none" family="微软雅黑" text-anchor="middle" size="13">a</text></g></g><g id="ProcessOnG1248" transform="matrix(1.0,0.0,0.0,1.0,352.0,518.241866438356)" opacity="1.0"><path id="ProcessOnPath1249" d="M10.3768550228311 0.0L132.10517622716887 0.0C145.94098292427702 0.0 145.94098292427702 31.130565068493297 132.10517622716887 31.130565068493297L10.3768550228311 31.130565068493297C-3.458951674277033 31.130565068493297 -3.458951674277033 0.0 10.3768550228311 0.0Z" stroke="#323232" stroke-width="2.0" stroke-dasharray="none" opacity="1.0" fill="#ffffff"/><g id="ProcessOnG1250" transform="matrix(1.0,0.0,0.0,1.0,10.0,7.4402825342466485)"><text id="ProcessOnText1251" fill="#000000" font-size="13" x="60.24101562499999" y="13.325" font-family="微软雅黑" font-weight="normal" font-style="normal" text-decoration="none" family="微软雅黑" text-anchor="middle" size="13">elasticsearch</text></g></g><g id="ProcessOnG1252" transform="matrix(1.0,0.0,0.0,1.0,352.0,478.24186643835606)" opacity="1.0"><path id="ProcessOnPath1253" d="M10.3768550228311 0.0L132.10517622716887 0.0C145.94098292427702 0.0 145.94098292427702 31.130565068493297 132.10517622716887 31.130565068493297L10.3768550228311 31.130565068493297C-3.458951674277033 31.130565068493297 -3.458951674277033 0.0 10.3768550228311 0.0Z" stroke="#323232" stroke-width="2.0" stroke-dasharray="none" opacity="1.0" fill="#ffffff"/><g id="ProcessOnG1254" transform="matrix(1.0,0.0,0.0,1.0,10.0,7.4402825342466485)"><text id="ProcessOnText1255" fill="#000000" font-size="13" x="60.24101562499999" y="13.325" font-family="微软雅黑" font-weight="normal" font-style="normal" text-decoration="none" family="微软雅黑" text-anchor="middle" size="13">fluentd</text></g></g><g id="ProcessOnG1256" transform="matrix(1.0,0.0,0.0,1.0,352.0,441.24186643835606)" opacity="1.0"><path id="ProcessOnPath1257" d="M10.3768550228311 0.0L132.10517622716887 0.0C145.94098292427702 0.0 145.94098292427702 31.130565068493297 132.10517622716887 31.130565068493297L10.3768550228311 31.130565068493297C-3.458951674277033 31.130565068493297 -3.458951674277033 0.0 10.3768550228311 0.0Z" stroke="#323232" stroke-width="2.0" stroke-dasharray="none" opacity="1.0" fill="#ffffff"/><g id="ProcessOnG1258" transform="matrix(1.0,0.0,0.0,1.0,10.0,7.4402825342466485)"><text id="ProcessOnText1259" fill="#000000" font-size="13" x="60.24101562499999" y="13.325" font-family="微软雅黑" font-weight="normal" font-style="normal" text-decoration="none" family="微软雅黑" text-anchor="middle" size="13">fluent-bit</text></g></g><g id="ProcessOnG1260" transform="matrix(1.0,0.0,0.0,1.0,352.0,402.5203950587084)" opacity="1.0"><path id="ProcessOnPath1261" d="M10.3768550228311 0.0L132.10517622716887 0.0C145.94098292427702 0.0 145.94098292427702 31.130565068493297 132.10517622716887 31.130565068493297L10.3768550228311 31.130565068493297C-3.458951674277033 31.130565068493297 -3.458951674277033 0.0 10.3768550228311 0.0Z" stroke="#323232" stroke-width="2.0" stroke-dasharray="none" opacity="1.0" fill="#ffffff"/><g id="ProcessOnG1262" transform="matrix(1.0,0.0,0.0,1.0,10.0,7.4402825342466485)"><text id="ProcessOnText1263" fill="#000000" font-size="13" x="60.24101562499999" y="13.325" font-family="微软雅黑" font-weight="normal" font-style="normal" text-decoration="none" family="微软雅黑" text-anchor="middle" size="13">logging-discovery</text></g></g><g id="ProcessOnG1264" transform="matrix(6.123233995736766E-17,1.0,-1.0,6.123233995736766E-17,346.31228774257994,431.46923745311494)" opacity="1.0"><path id="ProcessOnPath1265" d="M10.37685502283108 0.0L75.11715539383556 0.0C88.95296209094367 0.0 88.95296209094367 31.13056506849324 75.11715539383556 31.13056506849324L10.37685502283108 31.13056506849324C-3.4589516742770265 31.13056506849324 -3.4589516742770265 0.0 10.37685502283108 0.0Z" stroke="#323232" stroke-width="2.0" stroke-dasharray="none" opacity="1.0" fill="#ffffff"/><g id="ProcessOnG1266" transform="matrix(1.0,0.0,0.0,1.0,10.0,7.44028253424662)"><text id="ProcessOnText1267" fill="#000000" font-size="13" x="31.74700520833332" y="13.325" font-family="微软雅黑" font-weight="normal" font-style="normal" text-decoration="none" family="微软雅黑" text-anchor="middle" size="13">kibana</text></g></g><g id="ProcessOnG1268" transform="matrix(1.0,0.0,0.0,1.0,352.0,579.4661407371166)" opacity="1.0"><path id="ProcessOnPath1269" d="M10.3768550228311 0.0L132.10517622716887 0.0C145.94098292427702 0.0 145.94098292427702 31.130565068493297 132.10517622716887 31.130565068493297L10.3768550228311 31.130565068493297C-3.458951674277033 31.130565068493297 -3.458951674277033 0.0 10.3768550228311 0.0Z" stroke="#323232" stroke-width="2.0" stroke-dasharray="none" opacity="1.0" fill="#ffffff"/><g id="ProcessOnG1270" transform="matrix(1.0,0.0,0.0,1.0,10.0,7.4402825342466485)"><text id="ProcessOnText1271" fill="#000000" font-size="13" x="60.24101562499999" y="13.325" font-family="微软雅黑" font-weight="normal" font-style="normal" text-decoration="none" family="微软雅黑" text-anchor="middle" size="13">alertmanager</text></g></g><g id="ProcessOnG1272" transform="matrix(1.0,0.0,0.0,1.0,187.0,689.1629566210045)" opacity="1.0"><path id="ProcessOnPath1273" d="M10.0 0.0L88.0 0.0C101.33333333333333 0.0 101.33333333333333 30.0 88.0 30.0L10.0 30.0C-3.3333333333333335 30.0 -3.3333333333333335 0.0 10.0 0.0Z" stroke="#323232" stroke-width="2.0" stroke-dasharray="none" opacity="1.0" fill="#ffffff"/><g id="ProcessOnG1274" transform="matrix(1.0,0.0,0.0,1.0,10.0,6.875)"><text id="ProcessOnText1275" fill="#000000" font-size="13" x="38.0" y="13.325" font-family="微软雅黑" font-weight="normal" font-style="normal" text-decoration="none" family="微软雅黑" text-anchor="middle" size="13">Zipkin</text></g></g></g></g></svg>