<?xml version="1.0" encoding="UTF-8"?>
<svg width="400px" height="98px" viewBox="0 0 400 98" version="1.1" xmlns="http://www.w3.org/2000/svg" xmlns:xlink="http://www.w3.org/1999/xlink">
    <!-- Generator: Sketch 51 (57462) - http://www.bohemiancoding.com/sketch -->
    <title>contributors-</title>
    <desc>Created with Sketch.</desc>
    <defs>
        <rect id="path-1" x="0" y="0" width="400" height="98"></rect>
    </defs>
    <g id="contributors-" stroke="none" stroke-width="1" fill="none" fill-rule="evenodd">
        <g id="Group-7-Copy">
            <mask id="mask-2" fill="white">
                <use xlink:href="#path-1"></use>
            </mask>
            <g id="Mask"></g>
            <g id="Group-7" mask="url(#mask-2)">
                <g transform="translate(0.000000, -1.000000)">
                    <path d="M200.084568,98.2750183 C317.534349,98.2750183 383.876372,98.2750183 399.110637,98.2750183 C399.110387,94.5884455 399.577066,54.7615031 360.148273,44.5709028 C320.71948,34.3803024 298.528589,64.1045201 237.641697,64.1045201 C179.168367,64.1045201 152.990131,28.0782265 94.077155,21.4333238 C35.164179,14.7884212 0.00322920323,72.4921868 0,98.2750183 C41.7502361,98.2750183 108.445092,98.2750183 200.084568,98.2750183 Z" id="Oval-7" fill="#F5F8FD"></path>
                    <rect id="Rectangle-17" fill="#B1CBFF" x="85.1847619" y="68.5828571" width="2.01714286" height="26.8952381"></rect>
                    <rect id="Rectangle-17" fill="#B1CBFF" transform="translate(85.151790, 67.090904) rotate(-30.000000) translate(-85.151790, -67.090904) " x="84.1432182" y="64.7375703" width="2.01714286" height="4.70666667"></rect>
                    <rect id="Rectangle-17-Copy" fill="#B1CBFF" transform="translate(108.045714, 94.469524) rotate(-90.000000) translate(-108.045714, -94.469524) " x="107.037143" y="72.9533333" width="2.01714286" height="43.032381"></rect>
                    <circle id="Oval-2" fill="#B1CBFF" cx="88.8828571" cy="97.1590476" r="1.68095238"></circle>
                    <circle id="Oval-2-Copy" fill="#B1CBFF" cx="125.86381" cy="97.1590476" r="1.68095238"></circle>
                    <polygon id="Polygon-2-Copy" fill="#B1CBFF" transform="translate(269.027982, 28.244683) rotate(30.000000) translate(-269.027982, -28.244683) " points="269.027982 6.50191584 287.857771 17.3732993 287.857771 39.1160663 269.027982 49.9874497 250.198194 39.1160663 250.198194 17.3732993"></polygon>
                    <polygon id="Polygon-2-Copy-3" fill="#DCE8FF" transform="translate(113.192427, 78.289019) rotate(30.000000) translate(-113.192427, -78.289019) " points="113.192427 60.7240296 128.404153 69.5065241 128.404153 87.071513 113.192427 95.8540075 97.9807 87.071513 97.9807 69.5065241"></polygon>
                    <polygon id="Polygon-2-Copy-5" fill="#DCE8FF" transform="translate(155.112381, 32.230923) rotate(30.000000) translate(-155.112381, -32.230923) " points="155.112381 14.6659344 170.324108 23.4484288 170.324108 41.0134178 155.112381 49.7959122 139.900654 41.0134178 139.900654 23.4484288"></polygon>
                    <polygon id="Polygon-2-Copy-2" fill="#B1CBFF" transform="translate(164.496497, 87.853961) rotate(30.000000) translate(-164.496497, -87.853961) " points="164.496497 78.1950493 172.86136 83.0245051 172.86136 92.6834168 164.496497 97.5128726 156.131634 92.6834168 156.131634 83.0245051"></polygon>
                    <polygon id="Polygon-2-Copy-6" fill="#6694EF" transform="translate(96.470487, 71.115484) rotate(30.000000) translate(-96.470487, -71.115484) " points="96.4704873 64.507475 102.193191 67.8114795 102.193191 74.4194883 96.4704873 77.7234928 90.7477837 74.4194883 90.7477837 67.8114795"></polygon>
                    <polygon id="Polygon-2-Copy-4" fill="#B1CBFF" transform="translate(97.258401, 85.164437) rotate(30.000000) translate(-97.258401, -85.164437) " points="97.2584015 75.5055255 105.623264 80.3349813 105.623264 89.993893 97.2584015 94.8233488 88.8935386 89.993893 88.8935386 80.3349813"></polygon>
                    <rect id="Rectangle-14" fill="#B1CBFF" transform="translate(253.176983, 37.136979) scale(-1, 1) rotate(30.000000) translate(-253.176983, -37.136979) " x="232.333173" y="35.792217" width="41.687619" height="2.68952381"></rect>
                    <path d="M268.744762,36.9809524 C271.122506,36.9809524 273.294345,36.0993707 274.951253,34.6452355 C276.917105,32.9199632 278.158095,30.3887155 278.158095,27.567619 C278.158095,22.3687786 273.943602,18.1542857 268.744762,18.1542857 C266.187558,18.1542857 263.868513,19.1739635 262.17204,20.8289056 C260.419553,22.5384903 259.331429,24.9259821 259.331429,27.567619 C259.331429,32.7664595 263.545921,36.9809524 268.744762,36.9809524 Z" id="Oval" fill="#F5F8FD"></path>
                    <path d="M268.744762,36.9809524 C271.122506,36.9809524 273.294345,36.0993707 274.951253,34.6452355 C262.17204,20.8289056 274.951253,34.6452355 262.17204,20.8289056 C260.419553,22.5384903 259.331429,24.9259821 259.331429,27.567619 C259.331429,32.7664595 263.545921,36.9809524 268.744762,36.9809524 Z" id="Oval" fill="#DCE8FF"></path>
                    <rect id="Rectangle-14-Copy" fill="#B1CBFF" transform="translate(189.300792, 74.117931) scale(-1, 1) rotate(30.000000) translate(-189.300792, -74.117931) " x="168.456983" y="72.7731694" width="41.687619" height="2.68952381"></rect>
                    <rect id="Rectangle-14-Copy-2" fill="#DCE8FF" transform="translate(183.249364, 48.567455) rotate(30.000000) translate(-183.249364, -48.567455) " x="162.405554" y="47.2226932" width="41.687619" height="2.68952381"></rect>
                    <polygon id="Polygon-2" fill="#DCE8FF" transform="translate(211.022881, 62.739548) rotate(30.000000) translate(-211.022881, -62.739548) " points="211.022881 21.0567548 247.121239 41.8981515 247.121239 83.580945 211.022881 104.422342 174.924523 83.580945 174.924523 41.8981515"></polygon>
                    <polygon id="Polygon-2" fill="#B1CBFF" transform="translate(211.108467, 63.030888) rotate(30.000000) translate(-211.108467, -63.030888) " points="211.108467 42.9776383 228.475091 53.0042634 228.475091 73.0575135 211.108467 83.0841386 193.741843 73.0575135 193.741843 53.0042634"></polygon>
                    <rect id="Rectangle-15" fill="#B1CBFF" x="207.558095" y="39.6704762" width="7.39619048" height="6.05142857"></rect>
                    <rect id="Rectangle-15-Copy-2" fill="#B1CBFF" transform="translate(228.164631, 51.782168) rotate(60.000000) translate(-228.164631, -51.782168) " x="224.466536" y="48.7564539" width="7.39619048" height="6.05142857"></rect>
                    <rect id="Rectangle-15-Copy-3" fill="#B1CBFF" transform="translate(193.873203, 73.298359) rotate(60.000000) translate(-193.873203, -73.298359) " x="190.175107" y="70.2726444" width="7.39619048" height="6.05142857"></rect>
                    <rect id="Rectangle-15-Copy-4" fill="#B1CBFF" transform="translate(228.164631, 73.298359) scale(-1, 1) rotate(60.000000) translate(-228.164631, -73.298359) " x="224.466536" y="70.2726444" width="7.39619048" height="6.05142857"></rect>
                    <rect id="Rectangle-15-Copy-5" fill="#B1CBFF" transform="translate(193.873203, 52.454549) scale(-1, 1) rotate(60.000000) translate(-193.873203, -52.454549) " x="190.175107" y="49.4288349" width="7.39619048" height="6.05142857"></rect>
                    <rect id="Rectangle-15-Copy" fill="#B1CBFF" x="207.558095" y="80.3212861" width="7.39619048" height="6.05142857"></rect>
                    <polygon id="Polygon-2" fill="#FFFFFF" transform="translate(211.108467, 63.030888) rotate(30.000000) translate(-211.108467, -63.030888) " points="211.108467 52.2978498 220.403552 57.6643691 220.403552 68.3974078 211.108467 73.7639272 201.813383 68.3974078 201.813383 57.6643691"></polygon>
                    <g id="Group-11" stroke-width="1" fill="none" transform="translate(341.834175, 75.168146) rotate(60.000000) translate(-341.834175, -75.168146) translate(324.834175, 59.168146)">
                        <polygon id="Polygon-2-Copy" fill="#DCE8FF" transform="translate(18.288801, 15.874717) rotate(30.000000) translate(-18.288801, -15.874717) " points="18.2888008 3.75569637 28.7841802 9.8152065 28.7841802 21.9342268 18.2888008 27.9937369 7.79342134 21.9342268 7.79342134 9.8152065"></polygon>
                        <rect id="Rectangle-14" fill="#DCE8FF" transform="translate(9.078736, 21.677510) scale(-1, 1) rotate(30.000000) translate(-9.078736, -21.677510) " x="-0.632615824" y="20.5182123" width="19.4227027" height="2.31859631"></rect>
                    </g>
                    <circle id="Oval-5" fill="#6694EF" cx="210.92" cy="63.2038095" r="3.36190476"></circle>
                    <g id="Group-12" stroke-width="1" fill="none" transform="translate(148.388571, 23.533333)">
                        <path d="M3.95518207,11.8655462 L9.49243697,11.8655462 L9.49243697,16.4028011 C9.49243697,16.9550859 9.04472172,17.4028011 8.49243697,17.4028011 L4.95518207,17.4028011 C4.40289732,17.4028011 3.95518207,16.9550859 3.95518207,16.4028011 L3.95518207,11.8655462 Z" id="Rectangle-16" fill="#6694EF"></path>
                        <circle id="Oval-6" fill="#FFFFFF" cx="6.72380952" cy="6.72380952" r="6.72380952"></circle>
                        <polygon id="Path-7" fill="#B1CBFF" fill-rule="nonzero" points="6.72709012 12.5336362 8.64860398 7.17092099 9.5899974 7.50823156 6.72709012 15.4982631 3.86418284 7.50823156 4.80557626 7.17092099"></polygon>
                    </g>
                    <g id="Group-5" stroke-width="1" fill="none" transform="translate(275.123810, 20.843810)">
                        <path d="M15.4647619,77.3403477 C15.9341361,70.2506748 19.1630638,53.6654548 22.9366364,44.4327021 C26.7102091,35.1999495 38.0832458,37.0184422 40.8167503,45.982363 C43.5502549,54.9462838 45.7659407,71.8748294 44.8611589,77.3403477 C44.6408393,78.6712328 42.4253487,77.7969507 42.4253487,76.3195709 C42.4253487,73.7175564 41.5801018,69.0086458 40.2472443,65.0764773 C38.9143867,61.1443088 36.8236897,56.3844602 32.1743564,56.3844602 C27.5250231,56.3844602 24.3141016,60.0673584 21.9697614,65.0764773 C19.6254211,70.0855963 18.6814284,73.7682925 17.9721014,77.3403477 L15.4647619,77.3403477 Z" id="Path-4" fill="#597EF7" transform="translate(30.265714, 58.160952) scale(-1, 1) translate(-30.265714, -58.160952) "></path>
                        <path d="M15.8578409,41.1531786 C17.9187992,38.2678416 19.550719,36.0909681 20.7536002,34.622558 C14.2768631,36.4638474 10.0894851,37.7106102 8.19146645,38.3628464 C5.34443842,39.3412008 5.99217786,37.3223524 7.28824932,36.5550383 C12.9163045,33.2230568 26.7520134,24.6931189 29.8524842,24.647552 C33.0702921,24.6002606 32.1367102,27.1652557 35.169323,28.2690365 C40.5434621,30.2250632 51.5588393,9.83012445 52.3335218,8.62823342 C53.1082042,7.42634238 53.9557157,6.52417256 54.433179,7.28127687 C54.9106422,8.03838117 50.9415685,16.6514642 47.5269224,24.119108 C44.1122763,31.5867519 42.2965445,35.30647 40.0940285,39.7665817 C37.8915125,44.2266935 36.5113601,48.2989655 34.3110609,49.364157 C28.3914004,52.2299364 21.028356,48.3945603 17.1880262,43.3079338 L15.8578409,41.1531786 Z" id="Path-3" fill="#FFC53D" transform="translate(30.328575, 28.674159) scale(-1, 1) rotate(-20.000000) translate(-30.328575, -28.674159) "></path>
                        <path d="M21.1843152,16.5975497 L21.5758973,16.3297683 C26.0607157,14.4374192 34.0236355,21.0785061 29.7330319,26.3280137 C27.6926141,28.824443 22.6155177,27.1607705 21.71017,24.0634332 C21.3311691,22.7668113 21.1153945,21.4058995 21.0197047,20.0473328 C20.9388425,18.8992827 21.129445,17.7474774 21.1843152,16.5975497 Z" id="Path-6" fill="#FFDEB9"></path>
                        <path d="M21.0254779,17.1300113 C19.5162428,16.4046396 19.7096646,13.2219611 21.3636624,12.165333 C23.0997197,11.0562827 25.8933346,10.5385783 28.1133168,11.5187202 C30.333299,12.498862 32.2691952,15.1176472 32.7578132,17.886822 C33.2464312,20.6559968 32.4054528,25.3343441 30.333299,25.5708544 C28.2611451,25.8073647 31.5124051,16.7811452 23.0153661,17.4648018 C22.6949307,17.7251892 22.0316347,17.6135924 21.0254779,17.1300113 Z" id="Path-5" fill="#652116"></path>
                    </g>
                    <g id="Group-4" stroke-width="1" fill="none" transform="translate(42.000000, 29.895238)">
                        <path d="M1.6297032,68.2297918 C2.09111417,61.1589394 6.64480613,41.1764382 12.2291153,35.4417124 C17.2756401,30.2592564 24.0538231,28.1426571 28.1804606,40.0524296 C30.2191051,45.9361042 29.6196785,63.866566 26.4639923,68.229305 C25.6188794,69.3976744 23.8757573,69.0386574 24.1703657,68.2297918 C27.1806471,59.9648801 23.1923639,54.3902319 21.1864183,52.7779949 C19.1804726,51.165758 15.1080674,51.3484281 11.8389369,53.6209223 C8.56980636,55.8934165 6.44280872,60.4836802 4.0258952,68.229305 L1.6297032,68.2297918 Z" id="Path-4" fill="#FFC53D"></path>
                        <path d="M4.69049407,34.8108301 C10.9122205,24.1017504 15.1841073,19.3723839 17.5960794,17.3183934 C20.0080516,15.2644029 22.735837,13.2712814 27.0709947,16.7509937 C28.4334736,17.8446181 31.640184,18.9166069 33.1030157,22.9624566 C34.5658474,27.0083064 35.0354531,33.5719617 35.7683624,36.0448682 C37.2486389,41.0394637 40.574261,41.9472573 39.7573282,43.0580972 C38.9403954,44.1689371 35.6291081,42.1488296 33.6704602,39.4941804 C32.3256963,37.6715576 31.0103179,34.9528453 30.8383043,34.2504738 C30.7255343,33.7900079 30.2199187,30.380459 28.6720209,33.4620111 C25.7717502,39.2358645 25.028269,42.5344038 24.455078,42.8533917 C18.5744249,46.126048 7.62170556,40.8224824 4.69049407,34.8108301 Z" id="Path-3" fill="#597EF7" transform="translate(22.287555, 29.354562) rotate(-20.000000) translate(-22.287555, -29.354562) "></path>
                        <path d="M29.1819455,5.58709635 C29.239513,6.80987836 29.4394853,8.03465692 29.3546481,9.25544236 C29.2542543,10.7000819 29.0278725,12.147215 28.6302405,13.5259851 C27.6803872,16.819556 22.3537083,18.5886314 20.2129866,15.9340394 C15.7114632,10.3519463 24.0658284,3.29010955 28.7711139,5.30234946 L29.1819455,5.58709635 Z" id="Path-6" fill="#FFDEB9"></path>
                        <path d="M28.8753089,6.66647842 C30.4208548,5.91045454 30.2227795,2.59328478 28.5289881,1.49200655 C26.7511629,0.336090745 23.8903363,-0.203490371 21.6169435,0.818069593 C19.3435507,1.83962956 17.3610787,4.56907734 16.860705,7.45526983 C16.3603313,10.3414623 17.2215428,15.2175037 19.3435507,15.4640083 C21.4655586,15.7105128 18.1360764,6.30287022 26.837546,7.01541619 C27.1656907,7.28680692 27.844945,7.17049433 28.8753089,6.66647842 Z" id="Path-5" fill="#652116"></path>
                    </g>
                </g>
            </g>
        </g>
    </g>
</svg>