<?xml version="1.0" encoding="UTF-8"?>
<svg width="400px" height="98px" viewBox="0 0 400 98" version="1.1" xmlns="http://www.w3.org/2000/svg" xmlns:xlink="http://www.w3.org/1999/xlink">
    <!-- Generator: Sketch 51 (57462) - http://www.bohemiancoding.com/sketch -->
    <title>contributors-</title>
    <desc>Created with Sketch.</desc>
    <defs>
        <rect id="path-1" x="0" y="0" width="400" height="98"></rect>
        <path d="M175.895238,10.6266667 L266.028571,10.6266667 C267.133141,10.6266667 268.028571,11.5220972 268.028571,12.6266667 L268.028571,16.6952381 C268.028571,17.7998076 267.133141,18.6952381 266.028571,18.6952381 L175.895238,18.6952381 C174.790669,18.6952381 173.895238,17.7998076 173.895238,16.6952381 L173.895238,12.6266667 C173.895238,11.5220972 174.790669,10.6266667 175.895238,10.6266667 Z" id="path-3"></path>
        <mask id="mask-4" maskContentUnits="userSpaceOnUse" maskUnits="objectBoundingBox" x="0" y="0" width="94.1333333" height="8.06857143" fill="white">
            <use xlink:href="#path-3"></use>
        </mask>
        <path d="M175.895238,24.0742857 L218.961905,24.0742857 C220.066474,24.0742857 220.961905,24.9697162 220.961905,26.0742857 L220.961905,36.8666667 C220.961905,37.9712362 220.066474,38.8666667 218.961905,38.8666667 L175.895238,38.8666667 C174.790669,38.8666667 173.895238,37.9712362 173.895238,36.8666667 L173.895238,26.0742857 C173.895238,24.9697162 174.790669,24.0742857 175.895238,24.0742857 Z" id="path-5"></path>
        <mask id="mask-6" maskContentUnits="userSpaceOnUse" maskUnits="objectBoundingBox" x="0" y="0" width="47.0666667" height="14.792381" fill="white">
            <use xlink:href="#path-5"></use>
        </mask>
        <path d="M227.668571,24.0742857 L237.788571,24.0742857 C238.893141,24.0742857 239.788571,24.9697162 239.788571,26.0742857 L239.788571,57.0380952 C239.788571,58.1426647 238.893141,59.0380952 237.788571,59.0380952 L227.668571,59.0380952 C226.564002,59.0380952 225.668571,58.1426647 225.668571,57.0380952 L225.668571,26.0742857 C225.668571,24.9697162 226.564002,24.0742857 227.668571,24.0742857 Z" id="path-7"></path>
        <mask id="mask-8" maskContentUnits="userSpaceOnUse" maskUnits="objectBoundingBox" x="0" y="0" width="14.12" height="34.9638095" fill="white">
            <use xlink:href="#path-7"></use>
        </mask>
        <path d="M247.167619,24.0742857 L266.028571,24.0742857 C267.133141,24.0742857 268.028571,24.9697162 268.028571,26.0742857 L268.028571,57.0380952 C268.028571,58.1426647 267.133141,59.0380952 266.028571,59.0380952 L247.167619,59.0380952 C246.06305,59.0380952 245.167619,58.1426647 245.167619,57.0380952 L245.167619,26.0742857 C245.167619,24.9697162 246.06305,24.0742857 247.167619,24.0742857 Z" id="path-9"></path>
        <mask id="mask-10" maskContentUnits="userSpaceOnUse" maskUnits="objectBoundingBox" x="0" y="0" width="22.8609524" height="34.9638095" fill="white">
            <use xlink:href="#path-9"></use>
        </mask>
        <path d="M175.895238,44.2457143 L218.961905,44.2457143 C220.066474,44.2457143 220.961905,45.1411448 220.961905,46.2457143 L220.961905,57.0380952 C220.961905,58.1426647 220.066474,59.0380952 218.961905,59.0380952 L175.895238,59.0380952 C174.790669,59.0380952 173.895238,58.1426647 173.895238,57.0380952 L173.895238,46.2457143 C173.895238,45.1411448 174.790669,44.2457143 175.895238,44.2457143 Z" id="path-11"></path>
        <mask id="mask-12" maskContentUnits="userSpaceOnUse" maskUnits="objectBoundingBox" x="0" y="0" width="47.0666667" height="14.792381" fill="white">
            <use xlink:href="#path-11"></use>
        </mask>
    </defs>
    <g id="contributors-" stroke="none" stroke-width="1" fill="none" fill-rule="evenodd">
        <g id="Group-6-Copy-3">
            <mask id="mask-2" fill="white">
                <use xlink:href="#path-1"></use>
            </mask>
            <g id="Mask"></g>
            <g id="Group-6" mask="url(#mask-2)">
                <g transform="translate(0.000000, 8.000000)">
                    <path d="M199.136397,89.8491362 C317.196594,89.8491362 383.883783,89.8491362 399.197967,89.8491362 C399.197967,86.1431833 397.197967,47.1127018 360.041545,35.8627021 C322.885124,24.6127024 298.097932,55.4990062 236.890962,55.4990062 C175.683992,55.4990062 137.74408,14.505944 95.8486653,11.7372017 C7.14479928,5.87502931 0.00324617891,85.4116781 0.00324617891,89.8491362 C41.970796,89.8491362 108.348513,89.8491362 199.136397,89.8491362 Z" id="Oval-7" stroke="none" fill="#F5F8FD" fill-rule="evenodd"></path>
                    <g id="Group-4" stroke="none" stroke-width="1" fill="none" fill-rule="evenodd" transform="translate(294.025887, 46.512559) scale(-1, 1) rotate(-9.000000) translate(-294.025887, -46.512559) translate(273.025887, 11.012559)">
                        <path d="M2.18516105,66.9525803 C2.60601967,59.8441653 4.74538648,42.0536092 10.2195672,36.992575 C19.3423461,28.5583091 21.3939791,28.5658654 25.1579359,40.5389065 C27.0174086,46.453837 26.6038396,65.5491568 23.7254994,69.9350721 C22.9546616,71.1096482 21.3124847,70.454479 21.4517882,69.5749516 C22.8583018,60.694574 20.7447038,54.6798662 18.9150561,53.0590646 C17.0854084,51.4382629 14.7475968,50.2061104 11.230256,52.2296316 C7.7129151,54.2531527 5.84736136,63.1301976 4.46961428,67.3144022 L2.18516105,66.9525803 Z" id="Path-4" fill="#FFC627"></path>
                        <path d="M4.15200584,34.0632094 C9.62627431,25.3140455 12.7682016,21.1416573 14.9101209,18.7994932 C17.0520401,16.4573292 20.1987289,13.3357349 24.1980724,14.7858285 C26.1020173,15.4761665 26.6576481,16.5140592 28.0248908,17.7779328 C29.281867,18.9398764 29.8771772,19.4313174 31.3356211,23.4496565 C32.7940649,27.4679957 32.8242098,33.5148218 33.5549207,35.9709133 C35.030757,40.931547 38.3464037,41.8331679 37.5319213,42.9364544 C36.717439,44.0397409 33.4160841,42.0333696 31.4633112,39.3967712 C30.1225811,37.5865417 28.8111482,34.8863158 28.6396506,34.1887203 C28.5272189,33.7313854 27.820096,30.2853412 26.4798651,33.4056189 C23.8404742,39.5505544 21.8880881,43.8758922 21.0080872,43.6873225 C13.7044039,42.1222638 6.62739803,36.2011518 4.15200584,34.0632094 Z" id="Path-3" fill="#597EF7" transform="translate(20.905416, 29.054545) rotate(-20.000000) translate(-20.905416, -29.054545) "></path>
                        <path d="M27.8691051,4.6338402 C27.9300948,5.85360547 28.1419546,7.07536237 28.0520741,8.29313601 C27.9457123,9.73421145 27.7058731,11.1777744 27.2846035,12.5531429 C26.2782853,15.8385881 20.6349571,17.6032991 18.3669783,14.9552562 C13.5978577,9.38693474 22.4488557,2.34252031 27.4338512,4.3497958 L27.8691051,4.6338402 Z" id="Path-6" fill="#FFDEB9"></path>
                        <path d="M26.8756036,6.37328621 C28.5130259,5.61912753 28.3031758,2.31014158 26.5086955,1.21158032 C24.6251858,0.0585162824 21.5942948,-0.479733629 19.1857581,0.539306038 C16.7772214,1.55834571 14.6768996,4.28105965 14.1467807,7.16013159 C13.6166619,10.0392035 14.5290688,14.9032152 16.7772214,15.1491116 C19.025374,15.395008 15.4979678,6.01057507 24.7167041,6.72136312 C25.0643556,6.9920843 25.7839888,6.87605867 26.8756036,6.37328621 Z" id="Path-5" fill="#652116"></path>
                        <path d="M24.3611973,28.6019048 C27.4219861,32.012747 29.4820799,34.0880207 30.5414787,34.8277256 C32.1305769,35.9372831 35.3959757,37.6796274 36.0855747,38.1799996 C36.7751737,38.6803719 36.0855747,39.7592413 32.6230744,39.2062785 C30.3147409,38.8376365 26.8422875,36.8067199 22.2057143,33.1135285 L24.3611973,28.6019048 Z" id="Path-8" fill="#597EF7" transform="translate(29.265714, 33.980952) rotate(11.000000) translate(-29.265714, -33.980952) "></path>
                    </g>
                    <rect id="Rectangle-26" stroke="none" fill="#DCE8FF" fill-rule="evenodd" x="163.137143" y="0.540952381" width="115.649524" height="65.8933333" rx="6"></rect>
                    <rect id="Rectangle-26" stroke="none" fill="#F5F8FD" fill-rule="evenodd" x="166.499048" y="3.90285714" width="108.925714" height="59.1695238" rx="4"></rect>
                    <use id="Rectangle-28" stroke="#B1CBFF" mask="url(#mask-4)" stroke-width="2" fill="none" stroke-dasharray="4" xlink:href="#path-3"></use>
                    <use id="Rectangle-28-Copy" stroke="#B1CBFF" mask="url(#mask-6)" stroke-width="2" fill="none" stroke-dasharray="4" xlink:href="#path-5"></use>
                    <use id="Rectangle-28-Copy-3" stroke="#DCE8FF" mask="url(#mask-8)" stroke-width="2" fill="none" stroke-dasharray="4" xlink:href="#path-7"></use>
                    <use id="Rectangle-28-Copy-4" stroke="#6694EF" mask="url(#mask-10)" stroke-width="2" fill="none" stroke-dasharray="4" xlink:href="#path-9"></use>
                    <use id="Rectangle-28-Copy-2" stroke="#B1CBFF" mask="url(#mask-12)" stroke-width="2" fill="none" stroke-dasharray="4" xlink:href="#path-11"></use>
                    <rect id="Rectangle-2-Copy-6" stroke="none" fill="#DCE8FF" fill-rule="evenodd" transform="translate(344.893939, 69.582390) rotate(5.000000) translate(-344.893939, -69.582390) " x="339.514891" y="66.8928662" width="10.7580952" height="5.37904762"></rect>
                    <rect id="Rectangle-2-Copy-5" stroke="none" fill="#6694EF" fill-rule="evenodd" transform="translate(336.825367, 68.237628) rotate(-5.000000) translate(-336.825367, -68.237628) " x="331.446319" y="65.5481042" width="10.7580952" height="5.37904762"></rect>
                    <rect id="Rectangle-7" stroke="none" fill="#DCE8FF" fill-rule="evenodd" x="323.83619" y="70.4685714" width="33.6190476" height="19.4990476"></rect>
                    <rect id="Rectangle-7-Copy" stroke="none" fill="#DCE8FF" fill-rule="evenodd" x="280.131429" y="79.8819048" width="33.6190476" height="10.0857143"></rect>
                    <rect id="Rectangle-4" stroke="none" fill="#B1CBFF" fill-rule="evenodd" x="323.83619" y="70.4685714" width="33.6190476" height="2.68952381"></rect>
                    <rect id="Rectangle-5" stroke="none" fill="#B1CBFF" fill-rule="evenodd" transform="translate(319.753784, 76.471879) rotate(45.000000) translate(-319.753784, -76.471879) " x="318.366061" y="69.3696427" width="2.77544523" height="14.2044721"></rect>
                    <rect id="Rectangle-5-Copy" stroke="none" fill="#B1CBFF" fill-rule="evenodd" transform="translate(361.441403, 76.471879) scale(-1, 1) rotate(45.000000) translate(-361.441403, -76.471879) " x="360.05368" y="69.3696427" width="2.77544523" height="14.2044721"></rect>
                    <rect id="Rectangle-27" stroke="none" fill="#B1CBFF" fill-rule="evenodd" x="210.87619" y="66.4342857" width="20.8438095" height="17.4819048"></rect>
                    <rect id="Rectangle-27-Copy" stroke="none" fill="#6694EF" fill-rule="evenodd" x="200.790476" y="83.9161905" width="41.0152381" height="6.05142857"></rect>
                    <path d="M160.594338,10.1453251 L250.727671,10.1453251 C251.832241,10.1453251 252.727671,11.0407556 252.727671,12.1453251 L252.727671,16.2138966 C252.727671,17.3184661 251.832241,18.2138966 250.727671,18.2138966 L160.594338,18.2138966 C159.489768,18.2138966 158.594338,17.3184661 158.594338,16.2138966 L158.594338,12.1453251 C158.594338,11.0407556 159.489768,10.1453251 160.594338,10.1453251 Z" id="Rectangle-28" stroke="none" fill="#B1CBFF" fill-rule="evenodd" transform="translate(205.661004, 14.179611) rotate(6.000000) translate(-205.661004, -14.179611) "></path>
                    <g id="Group-4" stroke="none" stroke-width="1" fill="none" fill-rule="evenodd" transform="translate(157.304636, 52.973913) rotate(-15.000000) translate(-157.304636, -52.973913) translate(129.804636, 14.473913)">
                        <path d="M9.09494702e-13,67.9339792 C3.50587797,60.4706989 10.6459389,45.9801104 16.6809636,40.7490372 C26.7383947,32.0313996 34.9461036,35.6049118 35.4732165,47.4340076 C35.7651361,53.985059 29.633731,70.9950964 26.4604975,75.5283683 C25.6106853,76.7424074 23.4190566,75.4602823 23.8412968,74.7203861 C24.735933,73.1527054 26.096598,70.07094 26.7307849,67.3460728 C27.3649717,64.6212057 27.7598189,60.248485 25.0785216,57.6028446 C22.3972242,54.9572041 18.7113351,54.6643417 16.0989259,55.1967692 C13.4865167,55.7291966 9.10762439,58.6677519 2.70124005,68.7672692 L9.09494702e-13,67.9339792 Z" id="Path-4" fill="#597EF7"></path>
                        <path d="M18.41125,34.9373689 C19.537946,32.9370065 23.2334629,27.5047519 29.4978006,18.6406051 C37.0096756,7.93895644 41.1787539,2.01720837 42.0050357,0.875360941 C43.2444583,-0.837410208 43.7640733,0.315464819 43.2444583,1.67554982 C41.2321018,6.94286475 37.5750568,13.7539997 36.5468259,16.4326144 C34.3307179,22.2057333 31.1199993,26.3947424 35.6488106,29.5486517 C41.6202368,33.7072125 51.972471,6.96100614 52.7580309,5.56421095 C53.5435909,4.16741576 54.4030024,3.11894595 54.8871698,3.99882576 C55.3713372,4.87870556 51.346533,14.8885255 47.8839413,23.5671567 C44.4213495,32.2457879 42.5801227,36.5687124 40.3466808,41.7520963 C38.1132389,46.9354802 37.392936,49.776216 34.9630893,49.7193848 C28.9549719,49.5788621 18.7916579,43.7828984 17.2091171,41.6791227 C15.6265763,39.575347 16.721206,37.9379126 18.41125,34.9373689 Z" id="Path-3" fill="#FFC627"></path>
                        <path d="M43.9061223,19.6329703 C43.9673197,20.8510616 44.179901,22.0711417 44.0897144,23.2872441 C43.9829904,24.7263418 43.7423344,26.1679236 43.31963,27.5414046 C42.3098846,30.8223409 36.6473368,32.5846299 34.3716338,29.9402212 C29.586271,24.3795417 38.467413,17.344795 43.469386,19.3493157 L43.9061223,19.6329703 Z" id="Path-6" fill="#FFDEB9"></path>
                        <path d="M43.7848768,20.3089054 C45.410761,19.562365 45.2023896,16.2868053 43.420554,15.1993413 C41.5503163,14.0579252 38.5407822,13.5251125 36.1492171,14.5338582 C33.7576519,15.5426038 31.6721299,18.2378138 31.1457464,21.0878024 C30.619363,23.9377909 31.5253408,28.7526679 33.7576519,28.9960804 C35.9899631,29.2394929 32.4874124,19.9498583 41.6411897,20.6534662 C41.9863915,20.9214526 42.7009539,20.8065991 43.7848768,20.3089054 Z" id="Path-5" fill="#652116"></path>
                    </g>
                    <rect id="Rectangle-30" stroke="none" fill="#DCE8FF" fill-rule="evenodd" transform="translate(72.420849, 56.793421) rotate(-18.000000) translate(-72.420849, -56.793421) " x="52.5856105" y="43.6819924" width="39.6704762" height="26.2228571" rx="2"></rect>
                    <rect id="Rectangle-30-Copy" stroke="none" fill="#6694EF" fill-rule="evenodd" transform="translate(94.982103, 51.729625) rotate(-77.000000) translate(-94.982103, -51.729625) " x="75.146865" y="38.6181967" width="39.6704762" height="26.2228571" rx="2"></rect>
                    <g id="Group-20" stroke="none" stroke-width="1" fill="none" fill-rule="evenodd" transform="translate(34.712381, 56.348571)">
                        <rect id="Rectangle-7" fill="#DCE8FF" x="16.8095238" y="0.672380952" width="55.1352381" height="32.2742857"></rect>
                        <circle id="Oval-12" fill="#6694EF" cx="44.3771429" cy="19.4990476" r="6.72380952"></circle>
                        <rect id="Rectangle-29" fill="#6694EF" x="42.36" y="10.7580952" width="4.03428571" height="4.03428571"></rect>
                        <rect id="Rectangle-29-Copy-2" fill="#6694EF" transform="translate(51.100952, 19.499048) rotate(-270.000000) translate(-51.100952, -19.499048) " x="49.0838095" y="17.4819048" width="4.03428571" height="4.03428571"></rect>
                        <rect id="Rectangle-29-Copy-3" fill="#6694EF" transform="translate(37.653333, 19.499048) rotate(-270.000000) translate(-37.653333, -19.499048) " x="35.6361905" y="17.4819048" width="4.03428571" height="4.03428571"></rect>
                        <rect id="Rectangle-29-Copy" fill="#6694EF" x="42.36" y="24.2057143" width="4.03428571" height="4.03428571"></rect>
                        <g id="Group-21" transform="translate(44.377143, 19.865396) rotate(-315.000000) translate(-44.377143, -19.865396) translate(35.377143, 10.865396)" fill="#6694EF">
                            <rect id="Rectangle-29" x="6.72380952" y="0" width="4.03428571" height="4.03428571"></rect>
                            <rect id="Rectangle-29-Copy-2" transform="translate(15.464762, 8.740952) rotate(-270.000000) translate(-15.464762, -8.740952) " x="13.447619" y="6.72380952" width="4.03428571" height="4.03428571"></rect>
                            <rect id="Rectangle-29-Copy-3" transform="translate(2.017143, 8.740952) rotate(-270.000000) translate(-2.017143, -8.740952) " x="0" y="6.72380952" width="4.03428571" height="4.03428571"></rect>
                            <rect id="Rectangle-29-Copy" x="6.72380952" y="13.447619" width="4.03428571" height="4.03428571"></rect>
                        </g>
                        <rect id="Rectangle-4" fill="#B1CBFF" x="16.8095238" y="0.672380952" width="55.807619" height="4.70666667"></rect>
                        <rect id="Rectangle-5" fill="#B1CBFF" transform="translate(10.421905, 10.421905) rotate(45.000000) translate(-10.421905, -10.421905) " x="8.06857143" y="-1.3447619" width="4.70666667" height="23.5333333"></rect>
                        <rect id="Rectangle-5-Copy" fill="#B1CBFF" transform="translate(79.004762, 10.421905) scale(-1, 1) rotate(45.000000) translate(-79.004762, -10.421905) " x="76.6514286" y="-1.3447619" width="4.70666667" height="23.5333333"></rect>
                    </g>
                    <circle id="Oval-13" stroke="none" fill="#DCE8FF" fill-rule="evenodd" cx="79.0895238" cy="75.847619" r="4.03428571"></circle>
                </g>
            </g>
        </g>
    </g>
</svg>