<?xml version="1.0" encoding="UTF-8"?>
<svg width="93px" height="80px" viewBox="0 0 93 80" version="1.1" xmlns="http://www.w3.org/2000/svg" xmlns:xlink="http://www.w3.org/1999/xlink">
    <!-- Generator: Sketch 51 (57462) - http://www.bohemiancoding.com/sketch -->
    <title>customer</title>
    <desc>Created with Sketch.</desc>
    <defs></defs>
    <g id="社区页" stroke="none" stroke-width="1" fill="none" fill-rule="evenodd">
        <g id="Artboard-5" fill-rule="nonzero">
            <g id="customer">
                <path d="M46.0431655,38.3698801 L36.8345324,38.3698801 C35.9869544,38.3694964 35.2993765,39.056307 35.2989928,39.9038849 C35.298801,40.1423501 35.3542446,40.3773621 35.4609113,40.5906954 L38.3693046,46.4059472 L38.3693046,52.1828297 C38.3693046,56.4209113 41.8050839,59.8566906 46.0431655,59.8566906 C50.281247,59.8566906 53.7170264,56.4209113 53.7170264,52.1828297 L53.7170264,46.043741 C53.7120384,41.8077698 50.2791367,38.37506 46.0431655,38.3698801 Z M39.3177938,41.4394245 L46.0431655,41.4394245 C47.9938609,41.4417266 49.7321823,42.6706954 50.385036,44.5089688 L40.8525659,44.5089688 L39.3177938,41.4394245 Z M50.647482,52.1828297 C50.647482,54.7257554 48.5860911,56.7871463 46.0431655,56.7871463 C43.5002398,56.7871463 41.4388489,54.7257554 41.4388489,52.1828297 L41.4388489,47.5785132 L50.647482,47.5785132 L50.647482,52.1828297 Z" id="Shape" fill="#3371E3"></path>
                <path d="M52.1822542,59.8566906 L39.9040767,59.8566906 C35.6681055,59.8616787 32.2352038,63.2945803 32.2302158,67.5305516 L32.2302158,78.2739568 C32.2302158,79.1215348 32.9174101,79.808729 33.764988,79.808729 L58.3213429,79.808729 C59.1689209,79.808729 59.8561151,79.1215348 59.8561151,78.2739568 L59.8561151,67.5305516 C59.8511271,63.2945803 56.4182254,59.8618705 52.1822542,59.8566906 Z M56.7865707,76.7391847 L53.7170264,76.7391847 L53.7170264,72.1348681 C53.7170264,71.2872902 53.0298321,70.6000959 52.1822542,70.6000959 C51.3346763,70.6000959 50.647482,71.2872902 50.647482,72.1348681 L50.647482,76.7391847 L41.4388489,76.7391847 L41.4388489,72.1348681 C41.4388489,71.2872902 40.7516547,70.6000959 39.9040767,70.6000959 C39.0564988,70.6000959 38.3693046,71.2872902 38.3693046,72.1348681 L38.3693046,76.7391847 L35.2997602,76.7391847 L35.2997602,67.5305516 C35.2997602,64.9876259 37.3611511,62.926235 39.9040767,62.926235 L52.1822542,62.926235 C54.7251799,62.926235 56.7865707,64.9876259 56.7865707,67.5305516 L56.7865707,76.7391847 Z" id="Shape" fill="#3371E3"></path>
                <path d="M16.882494,38.3698801 L10.7434053,38.3698801 C8.20047962,38.3698801 6.13908873,40.431271 6.13908873,42.9741966 L6.13908873,52.1828297 C6.13908873,56.4209113 9.57486811,59.8566906 13.8129496,59.8566906 C18.0510312,59.8566906 21.4868106,56.4209113 21.4868106,52.1828297 L21.4868106,42.9741966 C21.4868106,40.431271 19.4254197,38.3698801 16.882494,38.3698801 Z M18.4172662,52.1828297 C18.4172662,54.7257554 16.3558753,56.7871463 13.8129496,56.7871463 C11.270024,56.7871463 9.20863309,54.7257554 9.20863309,52.1828297 L9.20863309,47.5785132 L18.4172662,47.5785132 L18.4172662,52.1828297 Z M18.4172662,44.5089688 L9.20863309,44.5089688 L9.20863309,42.9741966 C9.20863309,42.1266187 9.89582734,41.4394245 10.7434053,41.4394245 L16.882494,41.4394245 C17.7300719,41.4394245 18.4172662,42.1266187 18.4172662,42.9741966 L18.4172662,44.5089688 Z" id="Shape" fill="#3371E3"></path>
                <path d="M19.9520384,59.8566906 L7.67386091,59.8566906 C3.43788969,59.8616787 0.00498800959,63.2945803 0,67.5305516 L0,78.2739568 C0,79.1215348 0.687194245,79.808729 1.53477218,79.808729 L26.0911271,79.808729 C26.938705,79.808729 27.6258993,79.1215348 27.6258993,78.2739568 L27.6258993,67.5305516 C27.6209113,63.2945803 24.1880096,59.8618705 19.9520384,59.8566906 Z M24.5563549,76.7391847 L21.4868106,76.7391847 L21.4868106,72.1348681 C21.4868106,71.2872902 20.7996163,70.6000959 19.9520384,70.6000959 C19.1044604,70.6000959 18.4172662,71.2872902 18.4172662,72.1348681 L18.4172662,76.7391847 L9.20863309,76.7391847 L9.20863309,72.1348681 C9.20863309,71.2872902 8.52143885,70.6000959 7.67386091,70.6000959 C6.82628297,70.6000959 6.13908873,71.2872902 6.13908873,72.1348681 L6.13908873,76.7391847 L3.06954436,76.7391847 L3.06954436,67.5305516 C3.06954436,64.9876259 5.13093525,62.926235 7.67386091,62.926235 L19.9520384,62.926235 C22.494964,62.926235 24.5563549,64.9876259 24.5563549,67.5305516 L24.5563549,76.7391847 Z" id="Shape" fill="#3371E3"></path>
                <path d="M91.9257554,48.4360671 C91.9255635,48.4356835 91.9253717,48.4352998 91.9251799,48.4349161 L88.5317986,41.6481535 C85.6989928,35.982542 78.8095923,33.6863309 73.1439808,36.5191367 C70.9245084,37.6289688 69.1247962,39.4286811 68.014964,41.6481535 L64.6215827,48.4349161 C64.242494,49.1930935 64.5498321,50.1149161 65.3080096,50.4940048 C65.3083933,50.4941966 65.308777,50.4943885 65.3091607,50.4945803 L70.7008153,53.1896403 C71.2276259,57.3718945 75.0451799,60.3351559 79.2274341,59.8081535 C82.686235,59.37247 85.4102638,56.6484412 85.8459472,53.1896403 L85.8459472,53.1819664 L91.2376019,50.4945803 C91.9961631,50.116259 92.3040767,49.1946283 91.9257554,48.4360671 Z M82.8776978,52.1828297 C82.8776978,54.7257554 80.816307,56.7871463 78.2733813,56.7871463 C75.7304556,56.7871463 73.6690647,54.7257554 73.6690647,52.1828297 L73.6690647,47.5785132 L82.8776978,47.5785132 L82.8776978,52.1828297 Z M85.9472422,49.6995683 L85.9472422,46.043741 C85.9472422,45.1961631 85.260048,44.5089688 84.41247,44.5089688 L72.1342926,44.5089688 C71.2867146,44.5089688 70.5995204,45.1961631 70.5995204,46.043741 L70.5995204,49.6995683 L68.0548681,48.4272422 L70.7606715,43.0125659 C72.8356835,38.8633094 77.8814388,37.1819664 82.0305036,39.2569784 C83.6556355,40.0696403 84.9734293,41.3874341 85.7860911,43.0125659 L88.4918945,48.4272422 L85.9472422,49.6995683 Z" id="Shape" fill="#3371E3"></path>
                <path d="M84.41247,59.8566906 L72.1342926,59.8566906 C67.8983213,59.8616787 64.4654197,63.2945803 64.4604317,67.5305516 L64.4604317,78.2739568 C64.4604317,79.1215348 65.1476259,79.808729 65.9952038,79.808729 L90.5515588,79.808729 C91.3991367,79.808729 92.0863309,79.1215348 92.0863309,78.2739568 L92.0863309,67.5305516 C92.0813429,63.2945803 88.6484412,59.8618705 84.41247,59.8566906 Z M89.0167866,76.7391847 L85.9472422,76.7391847 L85.9472422,72.1348681 C85.9472422,71.2872902 85.260048,70.6000959 84.41247,70.6000959 C83.5648921,70.6000959 82.8776978,71.2872902 82.8776978,72.1348681 L82.8776978,76.7391847 L73.6690647,76.7391847 L73.6690647,72.1348681 C73.6690647,71.2872902 72.9818705,70.6000959 72.1342926,70.6000959 C71.2867146,70.6000959 70.5995204,71.2872902 70.5995204,72.1348681 L70.5995204,76.7391847 L67.529976,76.7391847 L67.529976,67.5305516 C67.529976,64.9876259 69.5913669,62.926235 72.1342926,62.926235 L84.41247,62.926235 C86.9553957,62.926235 89.0167866,64.9876259 89.0167866,67.5305516 L89.0167866,76.7391847 Z" id="Shape" fill="#3371E3"></path>
                <path d="M26.8734772,9.40374101 C24.9839808,3.79491607 19.7314149,0.0132374101 13.8129496,0.000575539568 C6.18436451,0.016882494 0.0132374101,6.21448441 0.029736211,13.8430695 C0.0423980815,19.7615348 3.82407674,25.0141007 9.43270983,26.9035971 L12.4393285,32.9168345 C12.817458,33.6753957 13.7388969,33.9838849 14.4976499,33.6057554 C14.7959712,33.4570743 15.0378897,33.2151559 15.1865707,32.9168345 L18.1931894,26.9035971 C25.4227338,24.4681055 29.3089688,16.6330935 26.8734772,9.40374101 Z M24.1607674,16.6923741 C23.1503118,20.312518 20.3215348,23.141295 16.7013909,24.1517506 C16.2835492,24.2682014 15.9345803,24.5557794 15.7406235,24.943693 L13.8129496,28.7990408 L11.8852758,24.943693 C11.6913189,24.5557794 11.3423501,24.2682014 10.9245084,24.1517506 C5.20959233,22.5565468 1.86992806,16.6304077 3.46513189,10.9154916 C5.06033573,5.20057554 10.9864748,1.86091127 16.7013909,3.45611511 C22.416307,5.05131894 25.7559712,10.977458 24.1607674,16.6923741 Z" id="Shape" fill="#3371E3"></path>
                <path d="M59.103693,9.40374101 C57.2141966,3.79491607 51.9616307,0.0132374101 46.0431655,0.000575539568 C38.4145803,0.016882494 32.2434532,6.21448441 32.259952,13.8430695 C32.2726139,19.7615348 36.0542926,25.0141007 41.6629257,26.9035971 L44.6695444,32.9168345 C45.0476739,33.6753957 45.9691127,33.9838849 46.7278657,33.6057554 C47.0261871,33.4570743 47.2681055,33.2151559 47.4167866,32.9168345 L50.4234053,26.9035971 C57.6529496,24.4681055 61.5391847,16.6330935 59.103693,9.40374101 Z M56.3909832,16.6923741 C55.3805276,20.312518 52.5517506,23.141295 48.9316067,24.1517506 C48.513765,24.2682014 48.1647962,24.5557794 47.9708393,24.943693 L46.0431655,28.7990408 L44.1154916,24.943693 C43.9215348,24.5557794 43.5725659,24.2682014 43.1547242,24.1517506 C37.4398082,22.5565468 34.1001439,16.6304077 35.6953477,10.9154916 C37.2905516,5.20057554 43.2166906,1.86091127 48.9316067,3.45611511 C54.6465228,5.05131894 57.9861871,10.977458 56.3909832,16.6923741 Z" id="Shape" fill="#3371E3"></path>
                <path d="M91.3339089,9.40374101 C89.4444125,3.79491607 84.1918465,0.0132374101 78.2733813,0.000575539568 C70.6447962,0.016882494 64.4736691,6.21448441 64.4901679,13.8430695 C64.5028297,19.7615348 68.2845084,25.0141007 73.8931415,26.9035971 L76.8997602,32.9168345 C77.2778897,33.6753957 78.1993285,33.9838849 78.9580815,33.6057554 C79.2564029,33.4570743 79.4983213,33.2151559 79.6470024,32.9168345 L82.6536211,26.9035971 C89.8831655,24.4681055 93.7694005,16.6330935 91.3339089,9.40374101 Z M88.621199,16.6923741 C87.6107434,20.312518 84.7819664,23.141295 81.1618225,24.1517506 C80.7439808,24.2682014 80.395012,24.5557794 80.2010552,24.943693 L78.2733813,28.7990408 L76.3457074,24.943693 C76.1517506,24.5557794 75.8027818,24.2682014 75.38494,24.1517506 C69.670024,22.5565468 66.3303597,16.6304077 67.9255635,10.9154916 C69.5207674,5.20057554 75.4469065,1.86091127 81.1618225,3.45611511 C86.8767386,5.05131894 90.2164029,10.977458 88.621199,16.6923741 Z" id="Shape" fill="#FFC627"></path>
                <path d="M85.0972186,9.40703502 C84.585552,8.87736835 83.741552,8.86270169 83.2118853,9.37436835 C83.2007186,9.38503502 83.1898853,9.39603502 83.1792186,9.40703502 L76.1218853,16.4643684 L74.3978853,14.7403684 C73.8682186,14.2287017 73.0242186,14.2433684 72.512552,14.773035 C72.0133853,15.2897017 72.0133853,16.109035 72.512552,16.6257017 L75.1792186,19.2923684 C75.6998853,19.8128684 76.5438853,19.8128684 77.064552,19.2923684 L85.064552,11.2923684 C85.5942186,10.7807017 85.6088853,9.93670169 85.0972186,9.40703502 Z" id="Shape" fill="#FFC627"></path>
                <path d="M46.0431655,6.13966427 C41.8050839,6.13966427 38.3693046,9.57544365 38.3693046,13.8135252 C38.3693046,18.0516067 41.8050839,21.4873861 46.0431655,21.4873861 C50.281247,21.4873861 53.7170264,18.0516067 53.7170264,13.8135252 C53.7120384,9.57755396 50.2791367,6.14484412 46.0431655,6.13966427 Z M41.4388489,13.8135252 C41.4388489,11.2705995 43.5002398,9.20920863 46.0431655,9.20920863 C46.7269065,9.21189448 47.4010552,9.36920863 48.0153477,9.66964029 L41.8992806,15.7857074 C41.5988489,15.1716067 41.4415348,14.4972662 41.4388489,13.8135252 Z M46.0431655,18.4178417 C45.3594245,18.4151559 44.6852758,18.2578417 44.0709832,17.9574101 L50.1870504,11.8413429 C50.487482,12.4556355 50.6447962,13.1297842 50.647482,13.8135252 C50.647482,16.3564508 48.5860911,18.4178417 46.0431655,18.4178417 Z" id="Shape" fill="#3371E3"></path>
                <rect id="Rectangle-path" fill="#3371E3" x="7.67386091" y="12.278753" width="12.2781775" height="3.06954436"></rect>
            </g>
        </g>
    </g>
</svg>