<?xml version="1.0" encoding="UTF-8"?>
<svg width="91px" height="80px" viewBox="0 0 91 80" version="1.1" xmlns="http://www.w3.org/2000/svg" xmlns:xlink="http://www.w3.org/1999/xlink">
    <!-- Generator: Sketch 51 (57462) - http://www.bohemiancoding.com/sketch -->
    <title>Artboard 5</title>
    <desc>Created with Sketch.</desc>
    <defs></defs>
    <g id="Artboard-5" stroke="none" stroke-width="1" fill="none" fill-rule="evenodd">
        <g id="Group-5">
            <path d="M3.5,80.1333872 L0.5,80.1333872 L0.5,58 C0.5,55.5147186 2.51471863,53.5 5,53.5 L86,53.5 C88.4852814,53.5 90.5,55.5147186 90.5,58 L90.5,80.1333872 L87.5,80.1333872 L87.5,58 C87.5,57.1715729 86.8284271,56.5 86,56.5 L5,56.5 C4.17157288,56.5 3.5,57.1715729 3.5,58 L3.5,80.1333872 Z" id="Path-16" fill="#3371E3" fill-rule="nonzero"></path>
            <g id="Group-2" transform="translate(43.000000, 38.000000) rotate(-180.000000) translate(-43.000000, -38.000000) translate(32.000000, 25.000000)" fill="#FFC627" fill-rule="nonzero">
                <polygon id="Shape" points="7 12 14.999878 12 14.999878 14.6666259 7 14.6666259"></polygon>
                <polygon id="Shape" points="7 17 14.999878 17 14.999878 19.6666261 7 19.6666261"></polygon>
                <path d="M18.6413573,6.89393863 L18.6669922,1.33973941 C18.6700439,0.603045035 18.0761719,0.00306940966 17.3400878,1.76909131e-05 C16.9842528,-0.00181340284 16.6424559,0.138567535 16.3909913,0.390032378 L10.1147461,6.66627753 L4.02954094,6.66627753 C1.80480953,6.66810847 0.00244140625,8.47108707 0,10.6952082 L0,21.3037286 C0.00244140625,23.5278497 1.80480953,25.3308282 4.02954094,25.3326593 L17.3040772,25.3326593 C19.5288086,25.3308282 21.3311767,23.5278497 21.3336181,21.3037286 L21.3336181,10.6952082 C21.3311767,8.98622378 20.2526855,7.4633966 18.6413573,6.89393863 Z M18.6669922,21.3037286 C18.6657714,22.0556818 18.0566406,22.665423 17.3040772,22.6660333 L4.02954094,22.6660333 C3.2769775,22.665423 2.66723625,22.0556818 2.66662594,21.3037286 L2.66662594,10.6952082 C2.66723625,9.94325503 3.2769775,9.33351378 4.02954094,9.33290347 L10.6665039,9.33290347 C11.0205078,9.33290347 11.3592528,9.19252253 11.609497,8.94227847 L15.9851073,4.56605769 L15.9704589,7.99989566 C15.9704589,8.73597957 16.5673828,9.33290347 17.3040772,9.33290347 C18.0560303,9.33351378 18.6657714,9.94325503 18.6663819,10.6958185 L18.6663819,21.3037286 L18.6669922,21.3037286 Z" id="Shape"></path>
            </g>
            <g id="Group-3" transform="translate(60.000000, 25.000000)" fill="#3371E3" fill-rule="nonzero">
                <path d="M16.4953613,0.390625 C16.2451172,0.140380938 15.906372,0 15.5523681,0 L9.89624031,0 C9.54284672,0 9.20410156,0.140380937 8.9538575,0.390625 L0.46875,8.8757325 C-0.0518798437,9.39636234 -0.0518798437,10.2404784 0.46875,10.7611084 L15.5523681,25.8465577 C16.0729981,26.3677978 16.9171142,26.3684081 17.4383545,25.8477783 C17.4383545,25.847168 17.4389648,25.847168 17.4389648,25.8465577 L28.7524414,14.5330811 C29.2730713,14.0124513 29.2730713,13.1689453 28.7524414,12.647705 L16.4953613,0.390625 Z M16.4953613,23.0187988 L3.29528813,9.81872563 L10.4486084,2.66662594 L15.0006103,2.66662594 L25.9246827,13.5894775 L16.4953613,23.0187988 Z" id="Shape"></path>
                <polygon id="Shape" points="13.6682128 16.4166259 19.3249512 10.7598877 21.2103272 12.6458741 15.5535889 18.3026123"></polygon>
                <polygon id="Shape" points="8.9538575 11.7047119 14.6105956 6.04797359 16.4959717 7.93334969 10.8392334 13.5900878"></polygon>
            </g>
            <path d="M36.7043458,0.158051641 C36.2703858,0.389985391 36,0.84225586 36,1.33419914 L36,12.000703 C36,12.7367871 36.5969239,13.3343213 37.3330078,13.3343213 C37.5966797,13.3343213 37.8542481,13.2561963 38.0733644,13.109712 L46.0732422,7.77645992 C46.6860353,7.36813477 46.8514405,6.54049805 46.4431153,5.92770508 C46.3454591,5.7812207 46.2197266,5.6554882 46.0732422,5.55783195 L38.0733644,0.224580079 C37.6644287,-0.0488574213 37.1376953,-0.0744922651 36.7043458,0.158051641 Z M38.6666261,3.82443352 L42.9335938,6.66745117 L38.6666261,9.50985836 L38.6666261,3.82443352 Z" id="Shape" fill="#3371E3" fill-rule="nonzero"></path>
            <path d="M14,21.6777698 L14,27.0110218 C14,27.747716 14.5969238,28.3446399 15.3336181,28.3446399 L26.000122,28.3446399 C26.7362061,28.3446399 27.3337403,27.747716 27.3337403,27.0110218 L27.3337403,21.6777698 C27.3325195,19.4609729 26.2296142,17.3894398 24.390625,16.1510363 C26.4993897,14.094762 26.5415039,10.7176868 24.4846191,8.60953259 C22.4277344,6.50076791 19.0512695,6.45865353 16.9431153,8.51553837 C14.8343506,10.5718127 14.7922363,13.9488879 16.8491211,16.0570423 C16.8796387,16.0887806 16.9113769,16.1205188 16.9431153,16.1510363 C15.1041259,17.3894398 14.0012206,19.4609729 14,21.6777698 Z M20.6668702,9.67764775 C22.1396484,9.67764775 23.3334961,10.8714954 23.3334961,12.3442737 C23.3334961,13.817052 22.1396484,15.0108998 20.6668702,15.0108998 C19.1940919,15.0108998 18.0002441,13.817052 18.0002441,12.3442737 C18.0002441,10.8714954 19.1940919,9.67764775 20.6668702,9.67764775 Z M16.6666259,21.6777698 C16.6666259,19.4689076 18.4573975,17.678136 20.6668702,17.678136 C22.8757325,17.678136 24.6665039,19.4689076 24.6665039,21.6777698 L24.6665039,25.678014 L16.6666259,25.678014 L16.6666259,21.6777698 Z" id="Shape" fill="#3371E3" fill-rule="nonzero"></path>
            <g id="Group-4" transform="translate(12.500000, 42.000000) rotate(-90.000000) translate(-12.500000, -42.000000) translate(7.000000, 34.000000)" fill="#3371E3" fill-rule="nonzero">
                <path d="M9.33333333,0 L1.33333333,0 C0.597,0 0,0.597 0,1.33333333 L0,14.6666667 C0,15.403 0.597,16 1.33333333,16 L9.33333333,16 C10.0696667,16 10.6666667,15.403 10.6666667,14.6666667 L10.6666667,1.33333333 C10.6666667,0.597 10.0696667,0 9.33333333,0 Z M8,13.3333333 L2.66666667,13.3333333 L2.66666667,2.66666667 L8,2.66666667 L8,13.3333333 Z" id="Shape"></path>
                <rect id="Rectangle-path" x="4" y="9" width="2.66666667" height="2.66666667"></rect>
                <rect id="Rectangle-path-Copy" x="4" y="5" width="2.66666667" height="2.66666667"></rect>
            </g>
            <path d="M10.5,80.1333872 L7.5,80.1333872 L7.5,67 C7.5,64.5147186 9.51471863,62.5 12,62.5 L79,62.5 C81.4852814,62.5 83.5,64.5147186 83.5,67 L83.5,80.1333872 L80.5,80.1333872 L80.5,67 C80.5,66.1715729 79.8284271,65.5 79,65.5 L12,65.5 C11.1715729,65.5 10.5,66.1715729 10.5,67 L10.5,80.1333872 Z" id="Path-16" fill="#3371E3" fill-rule="nonzero"></path>
            <polygon id="Path-17" fill="#3371E3" fill-rule="nonzero" points="8 75.75 8 72.75 83.5 72.75 83.5 75.75"></polygon>
            <circle id="Oval-16" fill="#3371E3" cx="15.5" cy="69.5" r="1.5"></circle>
            <circle id="Oval-16-Copy" fill="#3371E3" cx="20.5" cy="69.5" r="1.5"></circle>
            <circle id="Oval-16-Copy-2" fill="#3371E3" cx="25.5" cy="69.5" r="1.5"></circle>
            <path d="M68,3 L53.3333333,3 C52.597,3 52,3.597 52,4.33333333 L52,15 C52,15.7363333 52.597,16.3333333 53.3333333,16.3333333 L56.5093333,16.3333333 L54.8066667,19.7373333 C54.4775,20.396 54.7446667,21.1968333 55.4033333,21.526 C55.5886667,21.6185 55.7928333,21.6666667 56,21.6666667 L65.3333333,21.6666667 C66.0696667,21.667 66.667,21.0703333 66.6673333,20.334 C66.6675,20.1268333 66.6193333,19.9226667 66.5266667,19.7373333 L64.824,16.3333333 L68,16.3333333 C68.7363333,16.3333333 69.3333333,15.7363333 69.3333333,15 L69.3333333,4.33333333 C69.3333333,3.597 68.7363333,3 68,3 Z M58.1573333,19 L59.4906667,16.3333333 L61.8426667,16.3333333 L63.176,19 L58.1573333,19 Z M66.6666667,13.6666667 L54.6666667,13.6666667 L54.6666667,5.66666667 L66.6666667,5.66666667 L66.6666667,13.6666667 Z" id="Shape" fill="#3371E3" fill-rule="nonzero"></path>
        </g>
    </g>
</svg>