<?xml version="1.0" encoding="UTF-8"?>
<svg width="150px" height="161px" viewBox="0 0 150 161" version="1.1" xmlns="http://www.w3.org/2000/svg" xmlns:xlink="http://www.w3.org/1999/xlink">
    <!-- Generator: Sketch 47 (45396) - http://www.bohemiancoding.com/sketch -->
    <title>Page 1</title>
    <desc>Created with Sketch.</desc>
    <defs></defs>
    <g id="Page-5" stroke="none" stroke-width="1" fill="none" fill-rule="evenodd">
        <g id="社区页面-1" transform="translate(-1075.000000, -549.000000)">
            <g id="Group-11-Copy" transform="translate(1050.000000, 536.000000)">
                <g id="Page-1" transform="translate(25.000000, 13.000000)">
                    <path d="M78.9635,43.8926 C78.9635,42.6016 80.0105,41.5546 81.3015,41.5546 C82.5925,41.5546 83.6395,42.6016 83.6395,43.8926 C83.6395,45.1836 82.5925,46.2306 81.3015,46.2306 C80.0105,46.2306 78.9635,45.1836 78.9635,43.8926 M94.3495,34.9196 C96.8975,29.3956 96.6405,16.2976 96.6405,16.2976 C96.6405,16.2976 93.2335,17.5226 89.7185,17.5226 C87.4805,13.7276 84.3705,9.8336 80.2385,5.9056 C80.2385,5.9056 82.8375,4.3306 85.6105,-0.0004 L74.2195,-0.0004 L64.0335,-0.0004 C67.5515,4.9966 69.8925,5.9056 69.8925,5.9056 C64.1005,11.4126 60.3155,16.8536 58.1285,22.0466 C55.9225,22.1576 54.2645,22.2616 51.6865,22.4916 C51.6865,22.4916 52.3915,27.2356 55.7395,32.7406 C55.4485,45.4096 64.4725,55.3856 75.0655,59.2026 C85.0435,55.6066 93.6295,46.5466 94.3495,34.9196" id="Fill-5" fill="#3A94D1"></path>
                    <path d="M45.4776,58.5738 C44.3596,57.9278 43.9766,56.4988 44.6216,55.3798 C45.2676,54.2618 46.6976,53.8788 47.8156,54.5248 C48.9336,55.1698 49.3166,56.5998 48.6716,57.7178 C48.0256,58.8368 46.5956,59.2198 45.4776,58.5738 M45.3996,40.7628 C41.8896,35.7938 30.4186,29.4678 30.4186,29.4678 C30.4186,29.4678 29.7756,33.0308 28.0176,36.0748 C23.6126,36.1158 18.6846,36.8618 13.2176,38.4758 C13.2176,38.4758 13.1526,35.4378 10.7886,30.8708 C10.7886,30.8708 8.6676,34.5448 5.0926,40.7358 C1.5186,46.9278 -0.0004,49.5578 -0.0004,49.5578 C6.0856,49.0088 8.0446,47.4358 8.0446,47.4358 C9.9176,55.2048 12.7366,61.2038 16.1406,65.6948 C15.1336,67.6608 14.3956,69.1478 13.3046,71.4958 C13.3046,71.4958 17.7656,73.2578 24.2076,73.1108 C35.0336,79.6968 48.1856,76.8698 56.7876,69.6048 C58.6626,59.1648 55.1086,47.1998 45.3996,40.7628" id="Fill-6" fill="#5FA83B"></path>
                    <path d="M41.449,94.914 C40.331,95.56 38.901,95.177 38.255,94.058 C37.61,92.94 37.993,91.51 39.111,90.865 C40.229,90.219 41.659,90.602 42.305,91.72 C42.95,92.839 42.567,94.268 41.449,94.914 M25.985,86.076 C19.927,86.631 8.713,93.403 8.713,93.403 C8.713,93.403 11.477,95.741 13.234,98.785 C11.067,102.621 9.249,107.261 7.914,112.803 C7.914,112.803 5.251,111.34 0.113,111.104 C0.113,111.104 2.234,114.778 5.809,120.969 C9.383,127.161 10.902,129.791 10.902,129.791 C13.47,124.246 13.087,121.763 13.087,121.763 C20.752,124.026 27.356,124.584 32.948,123.881 C34.147,125.736 35.065,127.119 36.553,129.237 C36.553,129.237 40.31,126.255 43.404,120.602 C54.52,114.52 58.648,101.717 56.657,90.634 C48.554,83.791 36.414,80.886 25.985,86.076" id="Fill-7" fill="#EDB71B"></path>
                    <path d="M70.9063,116.5731 C70.9063,117.8641 69.8593,118.9111 68.5683,118.9111 C67.2773,118.9111 66.2303,117.8641 66.2303,116.5731 C66.2303,115.2821 67.2773,114.2351 68.5683,114.2351 C69.8593,114.2351 70.9063,115.2821 70.9063,116.5731 M55.5203,125.5461 C52.9723,131.0701 53.2293,144.1681 53.2293,144.1681 C53.2293,144.1681 56.6363,142.9431 60.1513,142.9431 C62.3893,146.7381 65.4993,150.6321 69.6313,154.5601 C69.6313,154.5601 67.0323,156.1351 64.2593,160.4661 C64.2593,160.4661 68.5013,160.4661 75.6503,160.4661 C82.8003,160.4661 85.8363,160.4661 85.8363,160.4661 C82.3183,155.4691 79.9773,154.5601 79.9773,154.5601 C85.7693,149.0531 89.5543,143.6121 91.7413,138.4191 C93.9473,138.3081 95.6053,138.2041 98.1833,137.9741 C98.1833,137.9741 97.4783,133.2301 94.1303,127.7251 C94.4213,115.0561 85.3973,105.0801 74.8043,101.2631 C64.8263,104.8591 56.2403,113.9191 55.5203,125.5461" id="Fill-8" fill="#E98D24"></path>
                    <path d="M104.3922,101.8918 C105.5102,102.5378 105.8932,103.9668 105.2482,105.0858 C104.6022,106.2038 103.1722,106.5868 102.0542,105.9408 C100.9362,105.2958 100.5532,103.8658 101.1982,102.7478 C101.8442,101.6288 103.2742,101.2458 104.3922,101.8918 M104.4702,119.7028 C107.9802,124.6718 119.4512,130.9978 119.4512,130.9978 C119.4512,130.9978 120.0942,127.4348 121.8522,124.3908 C126.2572,124.3498 131.1852,123.6038 136.6522,121.9898 C136.6522,121.9898 136.7172,125.0278 139.0812,129.5948 C139.0812,129.5948 141.2022,125.9208 144.7772,119.7298 C148.3512,113.5378 149.8702,110.9078 149.8702,110.9078 C143.7842,111.4568 141.8252,113.0298 141.8252,113.0298 C139.9522,105.2608 137.1332,99.2618 133.7292,94.7708 C134.7362,92.8048 135.4742,91.3178 136.5652,88.9698 C136.5652,88.9698 132.1042,87.2078 125.6622,87.3548 C114.8362,80.7688 101.6842,83.5958 93.0822,90.8608 C91.2072,101.3008 94.7612,113.2658 104.4702,119.7028" id="Fill-9" fill="#8D2D8B"></path>
                    <path d="M108.4208,65.5516 C109.5388,64.9056 110.9688,65.2886 111.6148,66.4076 C112.2598,67.5256 111.8768,68.9556 110.7588,69.6006 C109.6408,70.2466 108.2108,69.8636 107.5648,68.7456 C106.9198,67.6266 107.3028,66.1976 108.4208,65.5516 M123.8848,74.3896 C129.9428,73.8346 141.1568,67.0626 141.1568,67.0626 C141.1568,67.0626 138.3928,64.7246 136.6358,61.6806 C138.8028,57.8446 140.6208,53.2046 141.9558,47.6626 C141.9558,47.6626 144.6188,49.1256 149.7568,49.3616 C149.7568,49.3616 147.6358,45.6876 144.0608,39.4966 C140.4868,33.3046 138.9678,30.6746 138.9678,30.6746 C136.3998,36.2196 136.7828,38.7026 136.7828,38.7026 C129.1178,36.4396 122.5138,35.8816 116.9218,36.5846 C115.7228,34.7296 114.8048,33.3466 113.3168,31.2286 C113.3168,31.2286 109.5598,34.2106 106.4658,39.8636 C95.3498,45.9456 91.2218,58.7486 93.2128,69.8316 C101.3158,76.6746 113.4558,79.5796 123.8848,74.3896" id="Fill-10" fill="#204C9E"></path>
                </g>
            </g>
        </g>
    </g>
</svg>