<?xml version="1.0" encoding="UTF-8"?>
<svg width="1141px" height="571px" viewBox="0 0 1141 571" version="1.1" xmlns="http://www.w3.org/2000/svg" xmlns:xlink="http://www.w3.org/1999/xlink">
    <!-- Generator: Sketch 47 (45396) - http://www.bohemiancoding.com/sketch -->
    <title>Group 4</title>
    <desc>Created with Sketch.</desc>
    <defs></defs>
    <g id="Page-5" stroke="none" stroke-width="1" fill="none" fill-rule="evenodd">
        <g id="社区页面" transform="translate(-150.000000, -948.000000)">
            <g id="Group-4" transform="translate(150.000000, 948.000000)">
                <path d="M570.5,570.5 C885.57845,570.5 1141,315.07845 1141,5.06705788e-13 C953.492707,5.3378711e-13 763.32604,3.64885181e-13 570.5,0 C421.461161,0 231.294495,1.68901929e-13 0,5.06705788e-13 C0,315.07845 255.42155,570.5 570.5,570.5 Z" id="Oval-2" fill="#3270E2"></path>
                <path d="M570,415 C798.645886,415 984,229.645886 984,1 C847.929852,1 709.929852,1 570,1 C461.845611,1 323.845611,1 156,1 C156,229.645886 341.354114,415 570,415 Z" id="Oval-2" fill="#3C75DF"></path>
                <path d="M570,271 C719.116882,271 840,150.116882 840,1 C751.258599,1 661.258599,1 570,1 C499.464529,1 409.464529,1 300,1 C300,150.116882 420.883118,271 570,271 Z" id="Oval-2" fill="#467DE2"></path>
                <path d="M570.5,119 C635.945743,119 689,65.9457429 689,0.5 C650.052385,0.5 610.552385,0.5 570.5,0.5 C539.542765,0.5 500.042765,0.5 452,0.5 C452,65.9457429 505.054257,119 570.5,119 Z" id="Oval-2" fill="#5386E3"></path>
            </g>
        </g>
    </g>
</svg>