<svg width="170" height="139" xmlns="http://www.w3.org/2000/svg"><g fill="none" fill-rule="evenodd"><path d="M129.122 86.947a4.542 4.542 0 1 1 0-9.084 4.542 4.542 0 0 1 0 9.084" fill="#FFF" fill-rule="nonzero"/><path d="M120.214.11c-4.033.037-7.29 3.363-7.313 7.469V6.032c0 4.099 3.32 7.247 7.291 7.259 0 0 20.867-2.453 30.578 11.732 9.711 14.196 5.73 29.884 5.73 29.884a6.378 6.378 0 0 0 1.421 5.214 6.135 6.135 0 0 0 4.872 2.166h-1.671c4.036 0 7.758-3.292 8.127-7.369 0 0 5.067-25.885-11.122-41.462C141.937-2.12 120.214.111 120.214.111z" fill="#FC984A" fill-rule="nonzero"/><path d="M141.938 29.09c-8.894-8.077-19.177-5.253-19.177-5.253-2.753.431-4.806 2.786-4.88 5.594v-1.4c0 2.724 2.167 4.788 4.902 4.777 0 0 8.478-1.335 13.226 4.347 4.748 5.683 1.356 13.505 1.356 13.505-.743 2.627.843 4.745 3.589 4.745h.492c2.735 0 5.36-2.163 5.754-4.888 0 0 3.643-13.35-5.25-21.439l-.012.011z" fill="#FC984A"/><path d="M97.337 88.65C94.755 75.189 79.66 66.825 63.643 69.959c-16.038 3.133-26.923 16.606-24.33 30.067 2.604 13.472 17.69 21.847 33.716 18.702 16.016-3.145 26.912-16.606 24.308-30.078zm-35.149 16.727c-4.923 2.317-10.316 1.17-12.034-2.56-1.74-3.73.865-8.628 5.798-10.945 4.923-2.317 10.316-1.18 12.045 2.549 1.728 3.73-.875 8.628-5.798 10.956h-.011zm11.355-11.332a4.926 4.926 0 0 1-4.27-2.492 5.013 5.013 0 0 1 .006-4.977 4.926 4.926 0 0 1 4.275-2.483c2.725 0 4.934 2.228 4.934 4.976 0 2.749-2.209 4.976-4.934 4.976h-.01z" fill="#000" fill-rule="nonzero"/><path d="M124.193 65.143c0-1.487 14.402-14.832 0-23.134-14.403-8.313-40.735 4.32-39.943 2.953 11.313-19.371-4.87-25.496-13.116-25.496C51.454 19.466 0 62.409 0 89.6c0 27.203 34.346 49.254 76.73 49.254 42.372 0 76.4-22.051 76.4-49.254 0-22.97-28.937-22.97-28.937-24.458zM78.73 123.771c-27.08 3.785-51.025-7.34-53.499-24.851-2.474-17.501 17.47-34.761 44.538-38.557 27.08-3.773 51.025 7.34 53.51 24.852 2.463 17.5-17.481 34.772-44.55 38.556z" fill="#E3213A" fill-rule="nonzero"/></g></svg>