<svg width="170" height="140" xmlns="http://www.w3.org/2000/svg"><g fill="#46AE44" fill-rule="nonzero"><path d="M118.505 42.32c.835 0 1.666.02 2.492.05C115.735 18.354 90.897.168 61.046.168 27.366.168.063 23.318.063 51.873c0 16.684 9.322 31.52 23.789 40.973l-6.093 17.911 20.175-11.026c7.128 2.477 14.931 3.847 23.112 3.847 1.577 0 3.14-.05 4.686-.15a40.188 40.188 0 0 1-2.63-14.289c0-25.857 24.804-46.818 55.403-46.818zM82.091 25.729c4.974 0 9.006 4.018 9.006 8.975s-4.032 8.976-9.006 8.976c-4.973 0-9.005-4.019-9.005-8.976 0-4.957 4.032-8.975 9.005-8.975zm-41.895 17.95c-4.973 0-9.006-4.018-9.006-8.975s4.032-8.975 9.006-8.975 9.006 4.018 9.006 8.975-4.032 8.975-9.006 8.975z"/><path d="M169.993 89.14c0-24.03-23.052-43.51-51.488-43.51S67.017 65.11 67.017 89.14c0 24.03 23.052 43.51 51.488 43.51 5.97 0 11.703-.862 17.035-2.441l17.604 9.62-5.116-15.04c13.28-7.87 21.965-20.902 21.965-35.65zm-67.574-6.244c-3.983 0-7.21-3.217-7.21-7.186s3.227-7.186 7.21-7.186c3.982 0 7.21 3.217 7.21 7.186s-3.228 7.186-7.21 7.186zm33.543 0c-3.982 0-7.21-3.217-7.21-7.186s3.228-7.186 7.21-7.186c3.982 0 7.21 3.217 7.21 7.186s-3.228 7.186-7.21 7.186z"/></g></svg>