<?xml version="1.0" encoding="utf-8"?>
<!-- Generator: Adobe Illustrator 19.0.0, SVG Export Plug-In . SVG Version: 6.00 Build 0)  -->
<svg version="1.1" id="图层_1" xmlns="http://www.w3.org/2000/svg" xmlns:xlink="http://www.w3.org/1999/xlink" x="0px" y="0px"
	 viewBox="0 0 501.6 194.1" style="enable-background:new 0 0 501.6 194.1;" width="386px" height="199px" xml:space="preserve">
<style type="text/css">
	.st0{fill:#FFFFFF;}
	.st1{opacity:0.2;}
	.st2{opacity:0.6;}
	.st3{opacity:0.4;}
	.st4{fill:none;}
	.st5{opacity:0.2;fill:none;}
	.st6{opacity:0.4;fill:#FFFFFF;}
	.st7{opacity:0.2;fill:#FFFFFF;}
	.st8{opacity:0.6;fill:#FFFFFF;}
	.st9{opacity:0.7;}
</style>
<g id="XMLID_2_">
	<g id="XMLID_149_">
		<path id="XMLID_150_" class="st0" d="M63,26.2c-1,0-1.9-0.3-2.8-0.9c-1.1-0.7-1.8-1.9-2-3.1c-0.2-1.3,0.1-2.6,0.8-3.6
			c0.7-1.1,1.9-1.8,3.1-2c1.3-0.2,2.6,0.1,3.6,0.8c1.1,0.7,1.8,1.9,2,3.1c0.2,1.3-0.1,2.6-0.8,3.6c-0.7,1.1-1.9,1.8-3.1,2
			C63.6,26.2,63.3,26.2,63,26.2z M63.1,18.8c-0.2,0-0.3,0-0.5,0c-0.7,0.1-1.3,0.5-1.7,1.1s-0.6,1.3-0.4,2c0.1,0.7,0.5,1.3,1.1,1.7
			c0.6,0.4,1.3,0.6,2,0.4c0.7-0.1,1.3-0.5,1.7-1.1s0.6-1.3,0.4-2c-0.1-0.7-0.5-1.3-1.1-1.7C64.1,18.9,63.6,18.8,63.1,18.8z"/>
	</g>
	<g id="XMLID_145_">
		<path id="XMLID_146_" class="st0" d="M33.4,85c-0.5,0-1-0.4-1.1-0.9l-1.1-6.4c-0.1-0.3,0-0.6,0.2-0.8c0.2-0.2,0.4-0.4,0.7-0.5
			L65,70.6c0.6-0.1,1.2,0.3,1.3,0.9l1.1,6.4c0.1,0.3,0,0.6-0.2,0.8c-0.2,0.2-0.4,0.4-0.7,0.5l-32.9,5.8C33.5,85,33.5,85,33.4,85z
			 M33.5,78.4l0.7,4.2L65,77.2l-0.7-4.2L33.5,78.4z"/>
	</g>
	<g id="XMLID_141_" class="st1">
		<path id="XMLID_142_" class="st0" d="M30.5,68.7c-0.5,0-1-0.4-1.1-0.9l-1.1-6.4c-0.1-0.3,0-0.6,0.2-0.8c0.2-0.2,0.4-0.4,0.7-0.5
			l12.5-2.2c0.6-0.1,1.2,0.3,1.3,0.9l1.1,6.4c0.1,0.3,0,0.6-0.2,0.8c-0.2,0.2-0.4,0.4-0.7,0.5l-12.5,2.2
			C30.7,68.7,30.6,68.7,30.5,68.7z M30.7,62.1l0.7,4.2l10.3-1.8L41,60.3L30.7,62.1z"/>
	</g>
	<g id="XMLID_137_" class="st2">
		<path id="XMLID_138_" class="st0" d="M36.2,100.8c-0.2,0-0.4-0.1-0.6-0.2c-0.2-0.2-0.4-0.4-0.5-0.7L34,93.5
			c-0.1-0.6,0.3-1.2,0.9-1.3l32.9-5.8c0.6-0.1,1.2,0.3,1.3,0.9l1.1,6.4c0.1,0.6-0.3,1.2-0.9,1.3l-32.9,5.8
			C36.3,100.8,36.3,100.8,36.2,100.8z M36.3,94.2l0.7,4.2L67.8,93l-0.7-4.2L36.3,94.2z"/>
	</g>
	<g id="XMLID_133_" class="st2">
		<path id="XMLID_134_" class="st0" d="M44.9,150.2c-0.2,0-0.4-0.1-0.6-0.2c-0.2-0.2-0.4-0.4-0.5-0.7l-1.1-6.4
			c-0.1-0.6,0.3-1.2,0.9-1.3l54.3-9.6c0.3-0.1,0.6,0,0.8,0.2c0.2,0.2,0.4,0.4,0.5,0.7l1.1,6.4c0.1,0.6-0.3,1.2-0.9,1.3l-54.3,9.6
			C45,150.2,45,150.2,44.9,150.2z M45,143.6l0.7,4.2l52.1-9.2l-0.7-4.2L45,143.6z"/>
	</g>
	<g id="XMLID_129_" class="st3">
		<path id="XMLID_130_" class="st0" d="M42,133.9c-0.2,0-0.4-0.1-0.6-0.2c-0.2-0.2-0.4-0.4-0.5-0.7l-1.1-6.4
			c-0.1-0.6,0.3-1.2,0.9-1.3l32.9-5.8c0.6-0.1,1.2,0.3,1.3,0.9l1.1,6.4c0.1,0.3,0,0.6-0.2,0.8c-0.2,0.2-0.4,0.4-0.7,0.5l-32.9,5.8
			C42.2,133.9,42.1,133.9,42,133.9z M42.2,127.3l0.7,4.2l30.7-5.4l-0.7-4.2L42.2,127.3z"/>
	</g>
	<g id="XMLID_125_" class="st3">
		<path id="XMLID_126_" class="st0" d="M83.8,126.6c-0.2,0-0.4-0.1-0.6-0.2c-0.2-0.2-0.4-0.4-0.5-0.7l-1.1-6.4
			c-0.1-0.6,0.3-1.2,0.9-1.3l12.5-2.2c0.6-0.1,1.2,0.3,1.3,0.9l1.1,6.4c0.1,0.3,0,0.6-0.2,0.8c-0.2,0.2-0.4,0.4-0.7,0.5L84,126.6
			C83.9,126.6,83.9,126.6,83.8,126.6z M83.9,120l0.7,4.2l10.3-1.8l-0.7-4.2L83.9,120z"/>
	</g>
	<polygon id="XMLID_124_" class="st4" points="438.7,96.1 439.4,91.9 372,80 372,84.4 	"/>
	<polygon id="XMLID_123_" class="st4" points="435.8,112.4 436.6,108.2 372,96.8 372,101.1 	"/>
	<polygon id="XMLID_122_" class="st4" points="391,138.6 391.7,134.4 372,130.9 372,135.3 	"/>
	<polygon id="XMLID_121_" class="st4" points="402.5,73.4 403.2,69.2 372,63.7 372,68 	"/>
	
		<rect id="XMLID_120_" x="373.9" y="48.2" transform="matrix(0.9848 0.1736 -0.1736 0.9848 14.5039 -65.0808)" class="st5" width="10.5" height="4.3"/>
	<polygon id="XMLID_119_" class="st4" points="372.5,118.6 373.2,114.4 372,114.2 372,118.5 	"/>
	<polygon id="XMLID_118_" class="st4" points="427.2,161.4 427.9,157.1 372,147.3 372,151.6 	"/>
	<path id="XMLID_117_" class="st4" d="M356.6,19.1h-0.9l2.3,0.4C357.6,19.3,357.1,19.1,356.6,19.1z"/>
	
		<rect id="XMLID_116_" x="395.3" y="52" transform="matrix(0.9848 0.1736 -0.1736 0.9848 15.4832 -68.7354)" class="st5" width="10.5" height="4.3"/>
	
		<rect id="XMLID_115_" x="383.8" y="117.2" transform="matrix(-0.9848 -0.1736 0.1736 -0.9848 751.4987 304.4392)" class="st4" width="10.5" height="4.3"/>
	<path id="XMLID_114_" class="st4" d="M366.9,169.1h-24.2l44.3,7.8c1.4-2.3,2.3-5,2.5-7.8H366.9z"/>
	<path id="XMLID_113_" class="st6" d="M403.2,69.2l-0.7,4.2L372,68v2.2l31.2,5.5c0.1,0,0.1,0,0.2,0c0.5,0,1-0.4,1.1-0.9l1.1-6.4
		c0.1-0.3,0-0.6-0.2-0.8c-0.2-0.2-0.4-0.4-0.7-0.5L372,61.4v2.2L403.2,69.2z"/>
	<path id="XMLID_110_" class="st7" d="M384.7,55.7c0.1,0,0.1,0,0.2,0c0.5,0,1-0.4,1.1-0.9l1.1-6.4c0.1-0.3,0-0.6-0.2-0.8
		c-0.2-0.2-0.4-0.4-0.7-0.5L373.7,45c-0.3-0.1-0.6,0-0.8,0.2c-0.2,0.2-0.4,0.4-0.5,0.7l-0.4,2.4v5.2c0.1,0,0.1,0.1,0.2,0.1
		L384.7,55.7z M374.4,47.3l10.3,1.8l-0.7,4.2l-10.3-1.8L374.4,47.3z"/>
	<path id="XMLID_107_" class="st0" d="M393.6,57.3l12.5,2.2c0.1,0,0.1,0,0.2,0c0.5,0,1-0.4,1.1-0.9l1.1-6.4c0.1-0.3,0-0.6-0.2-0.8
		c-0.2-0.2-0.4-0.4-0.7-0.5l-12.5-2.2c-0.3-0.1-0.6,0-0.8,0.2c-0.2,0.2-0.4,0.4-0.5,0.7l-1.1,6.4C392.6,56.6,393,57.2,393.6,57.3z
		 M395.8,51.1l10.3,1.8l-0.7,4.2L395,55.3L395.8,51.1z"/>
	<path id="XMLID_106_" class="st8" d="M439.4,91.9l-0.7,4.2L372,84.4v2.2l67.4,11.9c0.1,0,0.1,0,0.2,0c0.5,0,1-0.4,1.1-0.9l1.1-6.4
		c0.1-0.3,0-0.6-0.2-0.8c-0.2-0.2-0.4-0.4-0.7-0.5L372,77.8V80L439.4,91.9z"/>
	<path id="XMLID_105_" class="st8" d="M436.6,108.2l-0.7,4.2L372,101.1v2.2l64.5,11.4c0.1,0,0.1,0,0.2,0c0.5,0,1-0.4,1.1-0.9
		l1.1-6.4c0.1-0.3,0-0.6-0.2-0.8c-0.2-0.2-0.4-0.4-0.7-0.5l-66-11.6v2.2L436.6,108.2z"/>
	<path id="XMLID_104_" class="st6" d="M391.7,134.4l-0.7,4.2l-19-3.4v2.2l19.7,3.5c0.1,0,0.1,0,0.2,0c0.2,0,0.4-0.1,0.6-0.2
		c0.2-0.2,0.4-0.4,0.5-0.7l1.1-6.4c0.1-0.6-0.3-1.2-0.9-1.3l-21.2-3.7v2.2L391.7,134.4z"/>
	<path id="XMLID_103_" class="st7" d="M373.2,114.4l-0.7,4.2l-0.5-0.1v2.2l1.2,0.2c0.1,0,0.1,0,0.2,0c0.5,0,1-0.4,1.1-0.9l1.1-6.4
		c0.1-0.3,0-0.6-0.2-0.8c-0.2-0.2-0.4-0.4-0.7-0.5l-2.7-0.5v2.2L373.2,114.4z"/>
	<path id="XMLID_100_" class="st7" d="M396.1,116.2l-12.5-2.2c-0.6-0.1-1.2,0.3-1.3,0.9l-1.1,6.4c-0.1,0.3,0,0.6,0.2,0.8
		c0.2,0.2,0.4,0.4,0.7,0.5l12.5,2.2c0.1,0,0.1,0,0.2,0c0.5,0,1-0.4,1.1-0.9l1.1-6.4c0.1-0.3,0-0.6-0.2-0.8
		C396.6,116.4,396.4,116.2,396.1,116.2z M393.9,122.4l-10.3-1.8l0.7-4.2l10.3,1.8L393.9,122.4z"/>
	<path id="XMLID_99_" class="st8" d="M427.9,157.1l-0.7,4.2l-55.2-9.7v2.2l55.9,9.9c0.1,0,0.1,0,0.2,0c0.2,0,0.4-0.1,0.6-0.2
		c0.2-0.2,0.4-0.4,0.5-0.7l1.1-6.4c0.1-0.6-0.3-1.2-0.9-1.3L372,145v2.2L427.9,157.1z"/>
	<path id="XMLID_98_" class="st0" d="M371.3,52.3c-0.1,0.5,0.2,1,0.7,1.2v-5.2L371.3,52.3z"/>
	<polygon id="XMLID_97_" class="st4" points="109.8,21.8 90.3,25.2 91.7,32.9 109.8,29.7 	"/>
	<path id="XMLID_96_" class="st4" d="M149.7,160.9c0.3,1.6-0.1,3.2-1,4.6c-0.4,0.6-0.9,1.1-1.5,1.5h173.6c-1.9-1.3-3-3.6-2.5-6.1
		l0.3-1.7H149.4L149.7,160.9z"/>
	<polygon id="XMLID_95_" class="st4" points="39.2,110.5 39.9,114.7 109.8,102.4 109.8,98 	"/>
	<path id="XMLID_94_" class="st4" d="M104,55.4c-3-2.1-6.5-3.2-10.1-3.2c-1,0-2.1,0.1-3.1,0.3c-4.6,0.8-8.7,3.4-11.4,7.3
		c-2.7,3.9-3.7,8.6-2.9,13.2c0.8,4.7,3.4,8.7,7.3,11.4c3.9,2.7,8.6,3.7,13.2,2.9s8.7-3.4,11.4-7.3c0.6-0.8,1-1.6,1.4-2.5V62.2
		C108.5,59.5,106.5,57.2,104,55.4z"/>
	<path id="XMLID_93_" class="st7" d="M39.2,110.5L109.8,98v-2.2l-72.1,12.7c-0.6,0.1-1,0.7-0.9,1.3l1.1,6.4c0.1,0.3,0.2,0.5,0.5,0.7
		c0.2,0.1,0.4,0.2,0.6,0.2c0.1,0,0.1,0,0.2,0l70.5-12.4v-2.2l-69.8,12.3L39.2,110.5z"/>
	<path id="XMLID_92_" class="st6" d="M108.3,80c-2.7,3.9-6.8,6.4-11.4,7.3s-9.3-0.2-13.2-2.9c-3.9-2.7-6.4-6.8-7.3-11.4
		c-0.8-4.6,0.2-9.3,2.9-13.2c2.7-3.9,6.8-6.4,11.4-7.3c1-0.2,2.1-0.3,3.1-0.3c3.6,0,7.1,1.1,10.1,3.2c2.5,1.8,4.5,4.1,5.8,6.8V58
		c-1.3-1.7-2.8-3.2-4.5-4.4c-4.3-3-9.6-4.2-14.9-3.3c-5.2,0.9-9.8,3.8-12.8,8.2c-3,4.3-4.2,9.6-3.3,14.9c0.9,5.2,3.8,9.8,8.2,12.8
		c3.4,2.4,7.3,3.6,11.4,3.6c1.2,0,2.3-0.1,3.5-0.3c5-0.9,9.4-3.6,12.5-7.7v-4.2C109.4,78.4,108.9,79.2,108.3,80z"/>
	<path id="XMLID_89_" class="st8" d="M109.8,19.6l-19.8,3.5l-0.9-4.9c-0.1-0.3-0.2-0.5-0.5-0.7c-0.2-0.2-0.5-0.2-0.8-0.2l-12.2,2.2
		c-0.8-2.9-2.5-5.4-5-7.1c-2.8-2-6.2-2.7-9.5-2.1c-3.3,0.6-6.3,2.4-8.2,5.2c-1.7,2.5-2.5,5.4-2.3,8.4L38.4,26
		c-0.6,0.1-1,0.7-0.9,1.3l0.9,4.9l-28.4,5c-3.3,0.6-5.5,3.8-4.9,7.1l24.3,137.9c0.5,3,3.1,5,6,5c0.4,0,0.7,0,1.1-0.1l55.5-9.8
		c-0.4-0.7-0.7-1.4-1-2.1L36,184.9c-1,0.2-2.1-0.1-2.9-0.7s-1.4-1.5-1.6-2.5L7.2,43.8c-0.4-2.1,1-4.1,3.2-4.5l28.4-5l1.4,7.7
		l-23.4,4.1c-0.6,0.1-1,0.7-0.9,1.3l22.6,128c0.1,0.5,0.6,0.9,1.1,0.9c0.1,0,0.1,0,0.2,0l70.2-12.4v-2.2L40.3,174L18.1,48.1
		l22.4-3.9l0.8,4.6c0.1,0.5,0.6,0.9,1.1,0.9c0.1,0,0.1,0,0.2,0L92,40.9c0.6-0.1,1-0.7,0.9-1.3l-0.8-4.6l17.7-3.1v-2.2l-18.1,3.2
		l-1.4-7.7l19.5-3.4V19.6z M89.5,33.3l0.4,2.2l0.6,3.5l-47.3,8.3l-0.6-3.5l-0.4-2.2l-1.4-7.7l-0.4-2.2l-0.7-3.8L52,25.8
		c0.6-0.1,1-0.7,0.9-1.3c-0.5-2.8,0.1-5.6,1.7-7.9c1.6-2.3,4-3.8,6.8-4.3c2.8-0.5,5.6,0.1,7.9,1.7c2.3,1.6,3.8,4,4.3,6.8
		c0.1,0.3,0.2,0.5,0.5,0.7c0.2,0.2,0.5,0.2,0.8,0.2l12.2-2.1l0.7,3.8l0.4,2.2L89.5,33.3z"/>
	<path id="XMLID_88_" class="st0" d="M90.6,166.9c-0.4,0-0.7,0.2-0.9,0.6l3.2-0.6H90.6z"/>
	<g id="XMLID_79_">
		<path id="XMLID_85_" class="st0" d="M124.5,159.1c0,0,0.1,0,0.1,0h12.5h10h2.2h169.2h2.2h35.8c2.8,0,5.1-2.3,5.1-5.1v-2v-2.2v-4.4
			v-2.2v-7.5v-2.2v-4.4v-2.2v-7.9v-2.2v-4.4v-2.2v-8.5v-2.2V95v-2.2v-7.9v-2.2v-4.4V76v-7.5v-2.2v-4.4v-2.2V22.4V22
			c0-0.7-0.1-1.3-0.4-1.9c-0.8-1.9-2.6-3.2-4.7-3.2h-232c-1.3,0-2.5,0.5-3.4,1.3c-0.6,0.5-1.1,1.2-1.4,1.9c-0.2,0.6-0.4,1.2-0.4,1.8
			v25.3V60v94C119.5,156.8,121.7,159.1,124.5,159.1z M121.7,72.5V59.8V22c0-0.3,0.1-0.6,0.2-0.9c0.2-0.7,0.8-1.3,1.5-1.7
			c0.4-0.2,0.8-0.3,1.3-0.3H345h10.8h0.9c0.5,0,1,0.2,1.5,0.4c0.9,0.5,1.4,1.4,1.4,2.5c0,0,0,0,0,0v37.2v2.2v4.4v2.2v7.5v2.2v4.4
			v2.2v7.9v2.2v4.4v2.2v8.5v2.2v4.4v2.2v7.9v2.2v4.4v2.2v7.5v2.2v4.4v2.2v2.4c0,1.6-1.3,2.9-2.9,2.9h-35.4H319H149h-2.2h-7.9h-2.2
			h-12c-1.6,0-2.9-1.3-2.9-2.9V72.5z"/>
		<path id="XMLID_80_" class="st0" d="M390.6,166.9h-19.5c0.6-0.8,0.9-1.8,0.9-2.9v-10.2v-2.2v-4.4V145v-7.5v-2.2v-4.4v-2.2v-7.9
			v-2.2v-4.4v-2.2v-8.5v-2.2v-4.4v-2.2v-7.9v-2.2V80v-2.2v-7.5V68v-4.4v-2.2v-8c-0.5-0.2-0.8-0.7-0.7-1.2l0.7-4V24.2V22V12
			c0-2.8-2.3-5.1-5.1-5.1h-252c-2.8,0-5.1,2.3-5.1,5.1v7.5v2.2v7.9v2.2V58v4.2v15.3v4.2v14V98v4.4v2.2v57.1v2.2v0.1
			c0,1.1,0.3,2.1,0.9,2.9H92.9l-3.2,0.6c-0.1,0.2-0.2,0.3-0.2,0.5c0,2.5,0.5,4.9,1.4,7.2c0.3,0.7,0.6,1.4,1,2.1
			c3.3,5.9,9.5,9.9,16.7,9.9h264c6.3,0,11.9-3.1,15.3-7.8c0.5-0.6,0.9-1.3,1.3-2c1.6-2.8,2.4-5.9,2.4-9.3
			C391.7,167.4,391.2,166.9,390.6,166.9z M112,163.6v-2.2v-57.1V102v-4.4v-2.2V78.1V61.8V31.6v-2.2v-7.9v-2.2V12
			c0-1.6,1.3-2.9,2.9-2.9h252c1.6,0,2.9,1.3,2.9,2.9v9.6v2.2V61v2.2v4.4v2.2v7.5v2.2V84v2.2v7.9v2.2v4.4v2.2v8.5v2.2v4.4v2.2v7.9
			v2.2v4.4v2.2v7.5v2.2v4.4v2.2V164c0,1.6-1.3,2.9-2.9,2.9h-36.7h-9.4h-49.9h-60h-63.7h-9.4h-22.9c-1.6,0-2.9-1.3-2.9-2.9V163.6z
			 M269.8,169.1v3.9c0,1-0.9,1.9-1.9,1.9h-54c-1,0-1.9-0.9-1.9-1.9v-3.9H269.8z M387,176.9c-0.4,0.7-0.9,1.4-1.4,2
			c-3.1,3.7-7.7,6-12.9,6h-264c-6.1,0-11.4-3.2-14.4-8.1c-0.4-0.7-0.8-1.3-1.1-2c-0.8-1.8-1.3-3.7-1.4-5.7h23.1h10.4H138h71.8v3.9
			c0,2.3,1.8,4.1,4.1,4.1h54c2.3,0,4.1-1.8,4.1-4.1v-3.9h58h12.7h24.2h22.6C389.3,172,388.4,174.6,387,176.9z"/>
	</g>
	<g id="XMLID_75_" class="st3">
		<path id="XMLID_76_" class="st0" d="M156.4,62h-13.7c-2.3,0-4.1-1.8-4.1-4.1V44.2c0-2.3,1.8-4.1,4.1-4.1h13.7
			c2.3,0,4.1,1.8,4.1,4.1v13.7C160.5,60.1,158.7,62,156.4,62z M142.8,42.3c-1,0-1.9,0.9-1.9,1.9v13.7c0,1,0.9,1.9,1.9,1.9h13.7
			c1,0,1.9-0.9,1.9-1.9V44.2c0-1-0.9-1.9-1.9-1.9H142.8z"/>
	</g>
	<g id="XMLID_71_" class="st3">
		<path id="XMLID_72_" class="st0" d="M156.2,101.8H143c-2.3,0-4.1-1.8-4.1-4.1V84.4c0-2.3,1.8-4.1,4.1-4.1h13.2
			c2.3,0,4.1,1.8,4.1,4.1v13.2C160.3,99.9,158.5,101.8,156.2,101.8z M143,82.5c-1,0-1.9,0.9-1.9,1.9v13.2c0,1,0.9,1.9,1.9,1.9h13.2
			c1,0,1.9-0.9,1.9-1.9V84.4c0-1-0.9-1.9-1.9-1.9H143z"/>
	</g>
	<g id="XMLID_67_" class="st3">
		<path id="XMLID_68_" class="st0" d="M156,141.5h-12.7c-2.3,0-4.1-1.8-4.1-4.1v-12.7c0-2.3,1.8-4.1,4.1-4.1H156
			c2.3,0,4.1,1.8,4.1,4.1v12.7C160.1,139.7,158.2,141.5,156,141.5z M143.3,122.8c-1,0-1.9,0.9-1.9,1.9v12.7c0,1,0.9,1.9,1.9,1.9H156
			c1,0,1.9-0.9,1.9-1.9v-12.7c0-1-0.9-1.9-1.9-1.9H143.3z"/>
	</g>
	<g id="XMLID_63_" class="st2">
		<path id="XMLID_64_" class="st0" d="M238.8,48.5h-60.5c-0.6,0-1.1-0.5-1.1-1.1v-5.7c0-0.6,0.5-1.1,1.1-1.1h60.5
			c0.6,0,1.1,0.5,1.1,1.1v5.7C239.9,48,239.4,48.5,238.8,48.5z M179.4,46.3h58.3v-3.5h-58.3V46.3z"/>
	</g>
	<g id="XMLID_59_" class="st2">
		<path id="XMLID_60_" class="st0" d="M218.2,61.5h-39.9c-0.6,0-1.1-0.5-1.1-1.1v-5.7c0-0.6,0.5-1.1,1.1-1.1h39.9
			c0.6,0,1.1,0.5,1.1,1.1v5.7C219.3,61,218.8,61.5,218.2,61.5z M179.4,59.3h37.7v-3.5h-37.7V59.3z"/>
	</g>
	<g id="XMLID_55_" class="st1">
		<path id="XMLID_56_" class="st0" d="M200.4,88.5h-22c-0.6,0-1.1-0.5-1.1-1.1v-5.7c0-0.6,0.5-1.1,1.1-1.1h22c0.6,0,1.1,0.5,1.1,1.1
			v5.7C201.5,88,201,88.5,200.4,88.5z M179.4,86.3h19.8v-3.5h-19.8V86.3z"/>
	</g>
	<g id="XMLID_51_" class="st1">
		<path id="XMLID_52_" class="st0" d="M218.2,101.5h-39.9c-0.6,0-1.1-0.5-1.1-1.1v-5.7c0-0.6,0.5-1.1,1.1-1.1h39.9
			c0.6,0,1.1,0.5,1.1,1.1v5.7C219.3,101,218.8,101.5,218.2,101.5z M179.4,99.3h37.7v-3.5h-37.7V99.3z"/>
	</g>
	<g id="XMLID_47_" class="st2">
		<path id="XMLID_48_" class="st0" d="M238.8,128.5h-60.5c-0.6,0-1.1-0.5-1.1-1.1v-5.7c0-0.6,0.5-1.1,1.1-1.1h60.5
			c0.6,0,1.1,0.5,1.1,1.1v5.7C239.9,128,239.4,128.5,238.8,128.5z M179.4,126.3h58.3v-3.5h-58.3V126.3z"/>
	</g>
	<g id="XMLID_43_" class="st2">
		<path id="XMLID_44_" class="st0" d="M218.2,141.5h-39.9c-0.6,0-1.1-0.5-1.1-1.1v-5.7c0-0.6,0.5-1.1,1.1-1.1h39.9
			c0.6,0,1.1,0.5,1.1,1.1v5.7C219.3,141,218.8,141.5,218.2,141.5z M179.4,139.3h37.7v-3.5h-37.7V139.3z"/>
	</g>
	<g id="XMLID_26_" class="st9">
		<g id="XMLID_39_">
			<path id="XMLID_40_" class="st0" d="M283.5,128.3c-12,0-24-4.6-33.1-13.7c-8.9-8.9-13.7-20.6-13.7-33.1s4.9-24.3,13.7-33.1
				c8.9-8.9,20.6-13.7,33.1-13.7s24.3,4.9,33.1,13.7c8.9,8.9,13.7,20.6,13.7,33.1s-4.9,24.3-13.7,33.1
				C307.5,123.7,295.5,128.3,283.5,128.3z M283.5,36.7c-11.9,0-23.2,4.6-31.6,13.1c-8.4,8.4-13.1,19.7-13.1,31.6s4.6,23.2,13.1,31.6
				c17.4,17.4,45.8,17.4,63.2,0c8.4-8.4,13.1-19.7,13.1-31.6s-4.6-23.2-13.1-31.6c0,0,0,0,0,0C306.6,41.4,295.4,36.7,283.5,36.7z"/>
		</g>
		<g id="XMLID_35_">
			<path id="XMLID_36_" class="st0" d="M283.5,120.2c-10.4,0-20.1-4-27.4-11.4c-7.3-7.3-11.4-17-11.4-27.4s4-20.1,11.4-27.4
				c7.3-7.3,17.1-11.3,27.4-11.3c10.4,0,20.1,4,27.4,11.4v0c0,0,0,0,0,0c7.3,7.3,11.4,17,11.4,27.4s-4,20.1-11.4,27.4
				C303.5,116.1,293.8,120.2,283.5,120.2z M283.5,44.9c-9.8,0-18.9,3.8-25.8,10.7c-6.9,6.9-10.7,16.1-10.7,25.8s3.8,18.9,10.7,25.8
				c6.9,6.9,16.1,10.7,25.8,10.7c9.8,0,18.9-3.8,25.8-10.7c6.9-6.9,10.7-16.1,10.7-25.8s-3.8-18.9-10.7-25.8c0,0,0,0,0,0
				C302.4,48.7,293.2,44.9,283.5,44.9z"/>
		</g>
		<g id="XMLID_33_">
			<path id="XMLID_34_" class="st0" d="M327.4,126.4c-0.3,0-0.6-0.1-0.8-0.3l-11.6-11.5c-0.4-0.4-0.4-1.1,0-1.6
				c0.4-0.4,1.1-0.4,1.6,0l11.6,11.6c0.4,0.4,0.4,1.1,0,1.6C327.9,126.3,327.7,126.4,327.4,126.4z"/>
		</g>
		<g id="XMLID_29_">
			<path id="XMLID_30_" class="st0" d="M345.4,151.9c-1,0-2.1-0.4-2.9-1.2l-18.1-18.1c-0.8-0.8-1.2-1.8-1.2-2.9
				c0-1.1,0.4-2.1,1.2-2.9l4.4-4.4c0.8-0.8,1.8-1.2,2.9-1.2c1.1,0,2.1,0.4,2.9,1.2l18.1,18.1c0.8,0.8,1.2,1.8,1.2,2.9
				c0,1.1-0.4,2.1-1.2,2.9l-4.4,4.4C347.5,151.5,346.4,151.9,345.4,151.9z M331.7,123.3c-0.5,0-1,0.2-1.3,0.6l-4.4,4.4
				c-0.4,0.4-0.6,0.8-0.6,1.3c0,0.5,0.2,1,0.6,1.3l18.1,18.1c0.7,0.7,1.9,0.7,2.7,0l4.4-4.4l0,0c0.4-0.4,0.6-0.8,0.6-1.3
				c0-0.5-0.2-1-0.6-1.3l-18.1-18.1C332.7,123.5,332.2,123.3,331.7,123.3z"/>
		</g>
		<g id="XMLID_27_">
			<path id="XMLID_28_" class="st0" d="M341,148.7c-0.3,0-0.6-0.1-0.8-0.3c-0.4-0.4-0.4-1.1,0-1.6l8.7-8.7c0.4-0.4,1.1-0.4,1.6,0
				c0.4,0.4,0.4,1.1,0,1.6l-8.7,8.7C341.5,148.6,341.3,148.7,341,148.7z"/>
		</g>
	</g>
	<g id="XMLID_21_" class="st2">
		<path id="XMLID_23_" class="st0" d="M460.3,58.6c0,0,0-0.1,0-0.1c0-0.1-0.1-0.2-0.2-0.4L443.9,35c-0.1-0.1-0.2-0.2-0.3-0.3
			c0,0-0.1,0-0.1-0.1c-0.1,0-0.2-0.1-0.3-0.1c0,0,0,0-0.1,0L372,22v2.2l69.7,12.3l-2.4,13.7c-0.6,3.3,1.6,6.5,4.9,7.1l13.7,2.4
			l-10.7,60.7h2.2L460.3,59c0,0,0,0,0-0.1C460.3,58.8,460.3,58.7,460.3,58.6z M441.5,50.6l2.1-12.2l6.6,9.4l6.6,9.4l-12.2-2.1
			C442.5,54.7,441.1,52.7,441.5,50.6z"/>
		<path id="XMLID_22_" class="st0" d="M436.4,181.7c-0.4,2.1-2.4,3.5-4.5,3.2l-42.6-7.5c-0.4,0.7-0.8,1.4-1.3,2l43.6,7.7
			c0.4,0.1,0.7,0.1,1.1,0.1c2.9,0,5.5-2.1,6-5l4.8-27.5h-2.2L436.4,181.7z"/>
	</g>
	<path id="XMLID_18_" class="st0" d="M492.6,120.4h-43.1h-2.2h-8.7c-2.3,0-4.1,1.8-4.1,4.1v5h-8.9c-0.5,0-0.9,0.3-1,0.8
		c-0.1,0.4,0,0.9,0.4,1.2l9.6,7.1v11.9c0,2.3,1.8,4.1,4.1,4.1h2.6h2.2h49.1c2.3,0,4.1-1.8,4.1-4.1v-26
		C496.7,122.3,494.8,120.4,492.6,120.4z M494.5,150.5c0,1-0.9,1.9-1.9,1.9h-48.7h-2.2h-3c-1,0-1.9-0.9-1.9-1.9v-12.5
		c0-0.3-0.2-0.7-0.4-0.9l-7.3-5.5h6.7c0.6,0,1.1-0.5,1.1-1.1v-6.1c0-1,0.9-1.9,1.9-1.9h8.3h2.2h43.5c1,0,1.9,0.9,1.9,1.9V150.5z"/>
	<path id="XMLID_15_" class="st6" d="M450.2,130.1c-0.9,0-1.7,0.2-2.5,0.4c-0.9,0.3-1.8,0.8-2.5,1.4c-1.7,1.4-2.8,3.6-2.8,6
		c0,1.4,0.4,2.8,1.1,3.9c0.5,0.8,1.1,1.6,1.9,2.2c1.3,1.1,3,1.7,4.9,1.7c4.3,0,7.8-3.5,7.8-7.8S454.5,130.1,450.2,130.1z
		 M450.2,143.5c-1.8,0-3.4-0.9-4.4-2.2c-0.7-0.9-1.2-2.1-1.2-3.4c0-2,1-3.7,2.6-4.7c0.9-0.5,1.9-0.9,3-0.9c3.1,0,5.6,2.5,5.6,5.6
		S453.3,143.5,450.2,143.5z"/>
	<g id="XMLID_11_" class="st2">
		<path id="XMLID_12_" class="st0" d="M487.6,135.7h-22c-0.6,0-1.1-0.5-1.1-1.1v-5.7c0-0.6,0.5-1.1,1.1-1.1h22
			c0.6,0,1.1,0.5,1.1,1.1v5.7C488.7,135.2,488.2,135.7,487.6,135.7z M466.6,133.5h19.8V130h-19.8V133.5z"/>
	</g>
	<g id="XMLID_7_" class="st2">
		<path id="XMLID_8_" class="st0" d="M487.6,147.3h-22c-0.6,0-1.1-0.5-1.1-1.1v-5.7c0-0.6,0.5-1.1,1.1-1.1h22c0.6,0,1.1,0.5,1.1,1.1
			v5.7C488.7,146.8,488.2,147.3,487.6,147.3z M466.6,145.1h19.8v-3.5h-19.8V145.1z"/>
	</g>
	<g id="XMLID_3_">
		<path id="XMLID_4_" class="st0" d="M278.5,103.5c-1.6,0-3-0.6-4.1-1.7l-15.5-15.5c-2.3-2.3-2.3-6,0-8.3c2.3-2.3,6-2.3,8.3,0
			l11.3,11.3l22.2-22.2c2.3-2.3,6-2.3,8.3,0c0,0,0,0,0,0c2.3,2.3,2.3,6,0,8.3l-26.3,26.3c-0.3,0.3-0.7,0.6-1.2,0.9
			C280.5,103.3,279.5,103.5,278.5,103.5z M263.1,78.6c-0.9,0-1.9,0.4-2.6,1.1c-1.4,1.4-1.4,3.8,0,5.2l15.5,15.5
			c1.1,1.1,2.9,1.4,4.4,0.6c0.3-0.2,0.6-0.4,0.8-0.6L307.4,74c1.4-1.4,1.4-3.8,0-5.2l0,0c-1.4-1.4-3.8-1.4-5.2,0l-22.9,22.9
			c-0.2,0.2-0.5,0.3-0.8,0.3l0,0c-0.3,0-0.6-0.1-0.8-0.3l-12.1-12.1C265,78.9,264,78.6,263.1,78.6z"/>
	</g>
</g>
</svg>
