<?xml version="1.0" encoding="UTF-8"?>
<svg width="290px" height="182px" viewBox="0 0 290 182" version="1.1" xmlns="http://www.w3.org/2000/svg" xmlns:xlink="http://www.w3.org/1999/xlink">
    <!-- Generator: Sketch 49.3 (51167) - http://www.bohemiancoding.com/sketch -->
    <title>持续交付</title>
    <desc>Created with Sketch.</desc>
    <defs>
        <path d="M5,0 L285,0 C287.761424,-5.07265313e-16 290,2.23857625 290,5 L290,182 L0,182 L0,5 C-3.38176876e-16,2.23857625 2.23857625,5.07265313e-16 5,0 Z" id="path-1"></path>
        <polygon id="path-3" points="0 211 330 211 330 0 0 0"></polygon>
    </defs>
    <g id="Page-1" stroke="none" stroke-width="1" fill="none" fill-rule="evenodd">
        <g id="视频教程页" transform="translate(-329.000000, -988.000000)">
            <g id="持续交付" transform="translate(329.000000, 930.000000)">
                <g id="Group-2" transform="translate(0.000000, 58.000000)">
                    <g id="Bitmap">
                        <g id="持续交付">
                            <g id="Page-1">
                                <mask id="mask-2" fill="white">
                                    <use xlink:href="#path-1"></use>
                                </mask>
                                <use id="Mask" fill="#6694EF" xlink:href="#path-1"></use>
                                <g mask="url(#mask-2)">
                                    <g transform="translate(-4.000000, -24.000000)">
                                        <g id="Group-88" transform="translate(49.000000, 134.000000)">
                                            <g id="Group-39">
                                                <path d="M15.1948052,64.0828362 L15.1948052,7.17832742 C15.1948052,7.17832742 15.9246203,-0.233460949 23.4665352,0.00566414551 L67.2580256,0.00566414551 C67.2580256,0.00566414551 74.3132247,-0.233460949 73.5834097,6.22204495 L62.8788396,6.22204495 L62.8788396,62.4093237 L62.8788396,64.3220339 L15.1948052,64.0828362 Z" id="Fill-2" fill="#FAFCFF" opacity="0.981600996"></path>
                                                <path d="M14.8549671,64.4365082 L61.9872139,64.6728554 L61.9872139,6.2561602 L72.7894752,6.2561602 C72.8954876,4.70741388 72.5170099,3.46454587 71.66222,2.55830469 C69.9434959,0.73596235 66.8512944,0.81907828 66.820591,0.819881686 L66.8063172,0.820100796 L22.7535594,0.820100796 L22.7468685,0.819881686 C19.7610511,0.726394523 17.5286948,1.84239753 16.1100914,4.13999062 C15.0965802,5.78163981 14.8768982,7.45871186 14.8549671,7.64685478 L14.8549671,64.4365082 Z M62.816207,65.4915254 L14.025974,65.246925 L14.0279069,7.58572294 C14.0357129,7.50582063 14.23391,5.60839641 15.4013101,3.71754551 C16.4905019,1.95319442 18.6524559,-0.12265881 22.766941,0.00566692836 L66.7999237,0.00566692836 C67.0277091,-0.00127157199 70.3242038,-0.0587515697 72.2704159,2.00475844 C73.361838,3.16195422 73.8026146,4.7445166 73.5804793,6.70840434 L73.5395165,7.0706671 L62.816207,7.0706671 L62.816207,65.4915254 Z" id="Fill-4" fill="#3371E3" opacity="0.981600996"></path>
                                                <path d="M90,64.5309021 C90,66.9991257 87.6399627,69 84.7286419,69 L6.44011454,69 C3.52886852,69 1.16883117,66.9991257 1.16883117,64.5309021 L1.16883117,58.4967472 L6.44011454,58.4967472 L84.7286419,58.4967472 C87.6399627,58.4967472 90,58.4745763 90,58.4745763 L90,64.5309021 Z" id="Fill-6" fill="#FAFCFF" opacity="0.981600996"></path>
                                                <path d="M0.836844225,58.1433303 L0.836844225,63.9748189 C0.836844225,66.2983641 3.02267954,68.1885998 5.70948078,68.1885998 L84.2905192,68.1885998 C86.9773205,68.1885998 89.1632308,66.2983641 89.1632308,63.9748189 L89.1632308,58.1239784 C88.3526505,58.1304533 86.4660741,58.1433303 84.2905192,58.1433303 L0.836844225,58.1433303 Z M84.2905192,69 L5.70948078,69 C2.5612596,69 0,66.7457145 0,63.9748189 L7.50398336e-05,57.3320029 L84.2905192,57.3320029 C87.1770015,57.3320029 89.5537381,57.3093771 89.5774507,57.3091588 L90,57.3050847 L90,63.9748189 C90,66.7457145 87.4387404,69 84.2905192,69 Z" id="Fill-8" fill="#3371E3" opacity="0.981600996"></path>
                                                <path d="M63.123614,7.01694915 C63.123614,7.01694915 62.68162,1.55597337 68.961039,1.16949153" id="Fill-10" fill="#FAFCFF" opacity="0.981600996"></path>
                                                <path d="M61.9559783,7.01694915 C61.9482102,6.90093328 61.7846448,4.15251646 63.4221867,2.1031919 C64.4268835,0.845945786 65.8784995,0.138335718 67.7368874,0 L67.7922078,0.87749327 C66.1565535,0.99918769 64.8918798,1.6056092 64.0335424,2.67980104 C62.6140878,4.456161 62.7617541,6.92837959 62.7634238,6.95314437 L61.9559783,7.01694915 Z" id="Fill-12" fill="#3371E3" opacity="0.981600996"></path>
                                                <g id="Page-1" transform="translate(19.870130, 8.186441)" fill="#E2E2E2" opacity="0.881567029">
                                                    <polygon id="Fill-1" points="0 2.33898305 35.0649351 2.33898305 35.0649351 0 0 0"></polygon>
                                                    <polygon id="Fill-2" points="0 4.6779661 22.2077922 4.6779661 22.2077922 3.50847458 0 3.50847458"></polygon>
                                                    <polygon id="Fill-3" points="0 14.0338983 26.8831169 14.0338983 26.8831169 12.8644068 0 12.8644068"></polygon>
                                                    <polygon id="Fill-4" points="0 9.94067797 16.3636364 9.94067797 16.3636364 9.3559322 0 9.3559322"></polygon>
                                                    <polygon id="Fill-5" points="0 18.7118644 23.3766234 18.7118644 23.3766234 17.5423729 0 17.5423729"></polygon>
                                                    <polygon id="Fill-6" points="0 23.9745763 33.8961039 23.9745763 33.8961039 23.3898305 0 23.3898305"></polygon>
                                                    <polygon id="Fill-2" points="0 22.220339 22.2077922 22.220339 22.2077922 21.0508475 0 21.0508475"></polygon>
                                                    <polygon id="Fill-3" points="0 31.5762712 26.8831169 31.5762712 26.8831169 30.4067797 0 30.4067797"></polygon>
                                                    <polygon id="Fill-4" points="0 27.4830508 16.3636364 27.4830508 16.3636364 26.8983051 0 26.8983051"></polygon>
                                                    <polygon id="Fill-5" points="0 36.2542373 23.3766234 36.2542373 23.3766234 35.0847458 0 35.0847458"></polygon>
                                                    <polygon id="Fill-6" points="0 41.5169492 33.8961039 41.5169492 33.8961039 40.9322034 0 40.9322034"></polygon>
                                                </g>
                                            </g>
                                        </g>
                                        <g id="Group-297">
                                            <path d="M22,199 L284,199.459" id="Fill-176" fill="#D1D1D1" opacity="0.981600996"></path>
                                            <polygon id="Fill-178" fill="#BFD5FF" opacity="0.981600996" points="318.999779 202 14 201.959843 14.0001103 201 319 201.040157"></polygon>
                                            <g id="Group-36">
                                                <path d="M211,189.058912 C211,191.235603 209.167532,193 206.907082,193 L102.093027,193 C99.8325777,193 98,191.235603 98,189.058912 L98,123.941088 C98,121.764502 99.8325777,120 102.093027,120 L206.907082,120 C209.167532,120 211,121.764502 211,123.941088 L211,189.058912 Z" id="Fill-180" fill="#F0F6FF" opacity="0.981600996"></path>
                                                <path d="M102.686388,120.15615 C100.764666,120.15615 99.2011859,121.661009 99.2011859,123.51068 L99.2011859,188.489215 C99.2011859,190.338991 100.764666,191.84385 102.686388,191.84385 L207.313722,191.84385 C209.235444,191.84385 210.798814,190.338991 210.798814,188.489215 L210.798814,123.51068 C210.798814,121.661009 209.235444,120.15615 207.313722,120.15615 L102.686388,120.15615 Z M207.313722,193 L102.686388,193 C100.102267,193 98,190.976448 98,188.489215 L98,123.51068 C98,121.023446 100.102267,119 102.686388,119 L207.313722,119 C209.897733,119 212,121.023446 212,123.51068 L212,188.489215 C212,190.976448 209.897733,193 207.313722,193 Z" id="Fill-182" fill="#3371E3" opacity="0.981600996"></path>
                                                <mask id="mask-4" fill="white">
                                                    <use xlink:href="#path-3"></use>
                                                </mask>
                                                <g id="Clip-185" opacity="0.981600996"></g>
                                                <polygon id="Fill-184" fill="#639AEA" opacity="0.981600996" mask="url(#mask-4)" points="104 188 203 188 203 127 104 127"></polygon>
                                                <path d="M105.214876,186.821394 L202.785014,186.821394 L202.785014,127.178606 L105.214876,127.178606 L105.214876,186.821394 Z M104,188 L204,188 L204,126 L104,126 L104,188 Z" id="Fill-186" fill="#3371E3" opacity="0.981600996" mask="url(#mask-4)"></path>
                                                <path d="M219,197.905054 C219,200.718796 215.546197,203 211.285616,203 L96.7143836,203 C92.4538032,203 89,200.718796 89,197.905054 L89,191.025327 L96.7143836,191.025327 L211.285616,191.025327 C215.546197,191.025327 219,191 219,191 L219,197.905054 Z" id="Fill-187" fill="#F0F6FF" opacity="0.981600996" mask="url(#mask-4)"></path>
                                                <path d="M89.025503,191.00418 L89.025503,196.832784 C89.025503,199.142951 92.2554821,201.022413 96.2256829,201.022413 L210.774536,201.022413 C214.744737,201.022413 217.974716,199.142951 217.974716,196.832784 L217.974716,190.984157 C216.854374,190.990414 214.03744,191.00418 210.774536,191.00418 L89.025503,191.00418 Z M210.774536,202 L96.2256829,202 C94.0692278,202 92.0346298,201.486178 90.4965393,200.553226 C88.8866909,199.576681 88,198.255364 88,196.832784 L88.0001094,190.026697 L210.774536,190.026697 C214.983528,190.026697 218.449237,190.00365 218.483803,190.003441 L219,190 L219,196.832784 C219,198.255364 218.113418,199.576681 216.50357,200.553226 C214.965589,201.486178 212.930991,202 210.774536,202 Z" id="Fill-188" fill="#3371E3" opacity="0.981600996" mask="url(#mask-4)"></path>
                                                <g id="Group-32" opacity="0.540874094" mask="url(#mask-4)">
                                                    <g transform="translate(116.000000, 137.000000)">
                                                        <g id="Group-30" transform="translate(4.656716, 0.000000)">
                                                            <g id="Group-29">
                                                                <polygon id="Fill-189" fill="#3371E3" points="72.6961837 40.4783084 0.503634863 40.4783084 0.503634863 3.05637839 1.6999651 3.05637839 1.6999651 39.3087998 72.6961837 39.3087998"></polygon>
                                                                <g id="Group-27" transform="translate(4.656716, 0.000000)">
                                                                    <polygon id="Fill-190" fill="#E86262" points="0.033878 39.5425203 7.92893788 39.5425203 7.92893788 30.5966483 0.033878 30.5966483"></polygon>
                                                                    <polygon id="Fill-192" fill="#DFE563" points="11.6970892 39.5425203 19.5922581 39.5425203 19.5922581 27.2636927 11.6970892 27.2636927"></polygon>
                                                                    <polygon id="Fill-194" fill="#63E569" points="23.3603003 39.5425203 31.2553602 39.5425203 31.2553602 23.0538455 23.3603003 23.0538455"></polygon>
                                                                    <polygon id="Fill-196" fill="#E15EEF" points="35.0234024 39.5425203 42.9186804 39.5425203 42.9186804 20.4228509 35.0234024 20.4228509"></polygon>
                                                                    <polygon id="Fill-198" fill="#F27C49" points="46.6867227 39.5425203 54.5817825 39.5425203 54.5817825 12.1784069 46.6867227 12.1784069"></polygon>
                                                                    <polygon id="Fill-200" fill="#5AD2F2" points="58.3500429 39.5425203 66.2451027 39.5425203 66.2451027 0.600580886 58.3500429 0.600580886"></polygon>
                                                                </g>
                                                            </g>
                                                            <polygon id="Fill-202" fill="#3371E3" points="8.33628842 21.5173557 7.5998 20.5957987 15.6992098 14.4099073 19.3903755 18.4841593 31.1214125 8.65414693 36.8697079 15.2105799 50.4135052 4.23355153 51.1770367 5.13389513 36.7272954 16.8451843 30.9916492 10.3031423 19.2752242 20.1207891 15.5493823 16.0084809"></polygon>
                                                            <polygon id="Fill-203" fill="#3371E3" points="50.9157764 7.23128211 50.7672574 4.66605971 47.6058312 4.56628211 47.644324 3.39741311 51.8995783 3.53172911 52.1101438 7.16508351"></polygon>
                                                        </g>
                                                        <g id="Group-26" transform="translate(0.000000, 2.342857)">
                                                            <polygon id="Fill-204" fill="#FFFFFF" points="0.901029612 1.63907574 3.65255645 1.63907574 3.65255645 0.469567143 0.901029612 0.469567143"></polygon>
                                                            <polygon id="Fill-205" fill="#FFFFFF" points="0.901029612 7.72049914 3.65255645 7.72049914 3.65255645 6.55099054 0.901029612 6.55099054"></polygon>
                                                            <polygon id="Fill-206" fill="#FFFFFF" points="0.901029612 13.8019225 3.65255645 13.8019225 3.65255645 12.6324139 0.901029612 12.6324139"></polygon>
                                                            <polygon id="Fill-207" fill="#FFFFFF" points="0.901029612 19.8833459 3.65255645 19.8833459 3.65255645 18.7138373 0.901029612 18.7138373"></polygon>
                                                            <polygon id="Fill-208" fill="#FFFFFF" points="0.901029612 25.9645561 3.65255645 25.9645561 3.65255645 24.7950475 0.901029612 24.7950475"></polygon>
                                                            <polygon id="Fill-209" fill="#FFFFFF" points="0.901029612 32.0457663 3.65255645 32.0457663 3.65255645 30.8762577 0.901029612 30.8762577"></polygon>
                                                            <polygon id="Fill-210" fill="#FFFFFF" points="0.901029612 38.1268699 3.65255645 38.1268699 3.65255645 36.9573613 0.901029612 36.9573613"></polygon>
                                                        </g>
                                                    </g>
                                                </g>
                                            </g>
                                            <g id="Group-24" opacity="0.482393569" transform="translate(217.000000, 158.000000)" fill="#CFDAFF">
                                                <polygon id="Fill-211" points="28.4712534 16.2940583 0.721774095 16.2940583 0.721774095 0.1251783 1.71216863 0.1251783 1.71216863 15.3650393 28.4712534 15.3650393"></polygon>
                                                <path d="M4.43752407,15.365012 L7.34070233,15.365012 L7.34070233,11.180923 L4.43752407,11.180923 L4.43752407,15.365012 Z M3.44712954,16.294031 L8.33109687,16.294031 L8.33109687,10.251995 L3.44712954,10.251995 L3.44712954,16.294031 Z" id="Fill-212"></path>
                                                <path d="M10.8617494,14.999829 L13.5702248,14.999829 L13.5702248,4.607083 L10.8617494,4.607083 L10.8617494,14.999829 Z M9.87135488,15.928848 L14.5606193,15.928848 L14.5606193,3.678064 L9.87135488,3.678064 L9.87135488,15.928848 Z" id="Fill-213"></path>
                                                <path d="M17.0051253,14.999829 L19.7136007,14.999829 L19.7136007,7.04197 L17.0051253,7.04197 L17.0051253,14.999829 Z M16.0147308,15.928848 L20.7039952,15.928848 L20.7039952,6.112951 L16.0147308,6.112951 L16.0147308,15.928848 Z" id="Fill-214"></path>
                                                <path d="M23.3215704,15.08091 L26.0299488,15.08091 L26.0299488,1.847508 L23.3215704,1.847508 L23.3215704,15.08091 Z M22.3311759,16.009929 L27.0203433,16.009929 L27.0203433,0.918489 L22.3311759,0.918489 L22.3311759,16.009929 Z" id="Fill-215"></path>
                                            </g>
                                            <g id="Group-33" transform="translate(208.000000, 193.000000)" opacity="0.981600996">
                                                <path d="M5.50003038,9.03038087 C3.05144061,9.03038087 1.06652618,7.22592316 1.06652618,5 C1.06652618,2.77410445 3.05144061,0.969591515 5.50003038,0.969591515 C7.94855939,0.969591515 9.93347382,2.77410445 9.93347382,5 C9.93347382,7.22592316 7.94855939,9.03038087 5.50003038,9.03038087 M5.50003038,0 C2.4624739,0 0,2.23860027 0,5 C0,7.76142735 2.4624739,10 5.50003038,10 C8.53758686,10 11,7.76142735 11,5 C11,2.23860027 8.53758686,0 5.50003038,0" id="Fill-168" fill="#FFFFFF"></path>
                                                <path d="M5.50002949,1.35866031 C3.21649153,1.35866031 1.35869344,3.21645342 1.35869344,5.49998526 C1.35869344,7.78351709 3.21649153,9.64128072 5.50002949,9.64128072 C7.78353796,9.64128072 9.64130656,7.78351709 9.64130656,5.49998526 C9.64130656,3.21645342 7.78353796,1.35866031 5.50002949,1.35866031 M5.50002949,9.96475723 C3.03812192,9.96475723 1.03518658,7.96188623 1.03518658,5.49998526 C1.03518658,3.03808429 3.03812192,1.03515431 5.50002949,1.03515431 C7.96190757,1.03515431 9.96481342,3.03808429 9.96481342,5.49998526 C9.96481342,7.96188623 7.96190757,9.96475723 5.50002949,9.96475723 M5.50002949,0.323505995 C2.64567339,0.323505995 0.323506863,2.64566629 0.323506863,5.49998526 C0.323506863,8.35433371 2.64567339,10.676494 5.50002949,10.676494 C8.3543561,10.676494 10.6764931,8.35433371 10.6764931,5.49998526 C10.6764931,2.64566629 8.3543561,0.323505995 5.50002949,0.323505995 M5.50002949,11 C2.46730377,11 0,8.53270284 0,5.49998526 C0,2.46729716 2.46730377,0 5.50002949,0 C8.53272571,0 11,2.46729716 11,5.49998526 C11,8.53270284 8.53272571,11 5.50002949,11" id="Fill-170" fill="#76A6FF"></path>
                                                <path d="M9.08257887,8.94101714 C9.08257887,8.94101714 8.85102986,9.32503512 9.16339277,9.51168287 L12.8701706,10.8824429 C12.8701706,10.8824429 14.598727,11.4901872 14.9865297,9.94200128 C15.1094986,8.83695713 14.3557941,8.55053292 14.1377382,8.39594351 L10.5245161,7.08711745 C10.5245161,7.08711745 10.0558995,6.80713219 9.82279027,7.25103788 L9.08257887,8.94101714 Z" id="Fill-172" fill="#F27C49" transform="translate(12.000000, 9.000000) rotate(7.000000) translate(-12.000000, -9.000000) "></path>
                                                <path d="M12.8792228,10.6705355 C12.8845174,10.672363 13.6170103,10.918314 14.1705658,10.6426584 C14.4557845,10.5006478 14.6490812,10.2405396 14.745189,9.86946384 C14.8370278,9.03111991 14.3477013,8.74187336 14.0844374,8.58627175 C14.0496756,8.56573079 14.0189333,8.54755796 13.9923491,8.52995143 L10.5295573,7.29651581 C10.5181364,7.28982327 10.3530317,7.19617915 10.2059177,7.23520182 C10.1301569,7.25527945 10.0699474,7.30807332 10.0218797,7.3966208 L9.31045459,8.9938476 C9.30033652,9.01050173 9.15103261,9.26329966 9.33476568,9.3816547 L12.8792228,10.6705355 Z M12.7924014,10.8815822 L9.22330058,9.58374375 C8.90307058,9.3955546 8.99587962,9.05534177 9.09129441,8.89477222 L9.80213737,7.29952745 C9.88194538,7.15012931 9.99607167,7.05517242 10.1413561,7.0173853 C10.3655891,6.95900573 10.5844998,7.06459347 10.6376128,7.09303677 L14.1104395,8.33005032 L14.1240504,8.33952285 C14.1461715,8.35496718 14.1781058,8.373835 14.2150853,8.39566298 C14.5015237,8.56495857 15.0975751,8.91724372 14.9863317,9.90027528 L14.983726,9.91445832 C14.8714015,10.3555226 14.6360247,10.6677555 14.2841931,10.8424308 C14.0435771,10.9619185 13.7817269,11.000066 13.5454908,11.000066 C13.1423758,11.000066 12.8138573,10.8889955 12.7924014,10.8815822 Z" id="Fill-174" fill="#EBF2FF" transform="translate(12.000537, 9.000066) rotate(7.000000) translate(-12.000537, -9.000066) "></path>
                                            </g>
                                            <polygon id="Fill-216" fill="#CFDAFF" points="15.2728042 53 11 50.9788935 11.4043309 50.1020885 15.2899321 51.9399665 19.6608241 50.0458782 24.0480015 51.92262 28.4168344 50 33 51.9411988 32.6313288 52.8340232 28.4240412 51.0519764 24.0533365 52.9754495 19.6632575 51.0974754"></polygon>
                                            <polygon id="Fill-217" fill="#E6EFFF" points="15.3356449 135 11 131.345762 11.6478185 130.684976 15.2894134 133.754239 23.3046017 126 24 126.617835"></polygon>
                                            <path d="M33,98 C32.4681905,98 32.1782857,97.9047787 31.9452381,97.8283482 C31.7511429,97.7645154 31.6108571,97.7184883 31.2853333,97.7184883 C30.9598095,97.7184883 30.8195238,97.7645154 30.6254286,97.8283482 C30.3924762,97.9047787 30.1024762,98 29.5706667,98 C29.0389524,98 28.7490476,97.9047787 28.516,97.8282779 C28.3219048,97.7645154 28.1817143,97.7184883 27.8562857,97.7184883 C27.5308571,97.7184883 27.3906667,97.7645154 27.1965714,97.8282779 C26.963619,97.9047787 26.6737143,98 26.1419048,98 C25.6102857,98 25.3204762,97.9047787 25.0875238,97.8282779 C24.893619,97.7645154 24.7534286,97.7184883 24.4281905,97.7184883 C24.1028571,97.7184883 23.9625714,97.7645154 23.7685714,97.8282779 C23.535619,97.9047787 23.2457143,98 22.714,98 C22.182381,98 21.8924762,97.9047787 21.6595238,97.8282779 C21.4655238,97.7645154 21.3253333,97.7184883 21,97.7184883 L21,97 C21.531619,97 21.8215238,97.0952213 22.0544762,97.1717221 C22.2484762,97.2354846 22.3886667,97.2815117 22.714,97.2815117 C23.0394286,97.2815117 23.179619,97.2354846 23.373619,97.1717221 C23.6065714,97.0952213 23.8964762,97 24.4281905,97 C24.9598095,97 25.2497143,97.0952213 25.4825714,97.1717221 C25.6764762,97.2354846 25.8166667,97.2815117 26.1419048,97.2815117 C26.4673333,97.2815117 26.607619,97.2354846 26.801619,97.1717221 C27.0346667,97.0952213 27.3245714,97 27.8562857,97 C28.3880952,97 28.678,97.0952213 28.9109524,97.1717221 C29.1050476,97.2354846 29.2452381,97.2815117 29.5706667,97.2815117 C29.8961905,97.2815117 30.0364762,97.2354846 30.2305714,97.1716518 C30.463619,97.0952213 30.7535238,97 31.2853333,97 C31.8171429,97 32.1071429,97.0952213 32.3400952,97.1716518 C32.5341905,97.2354846 32.6744762,97.2815117 33,97.2815117 L33,98 Z" id="Fill-221" fill="#CFDAFF"></path>
                                            <polygon id="Fill-222" fill="#CFDAFF" points="90.6663114 42 85.5067158 40.1220678 80.1566453 41.9834753 74.8346838 40.046092 69.4851849 41.9074994 64 39.9106651 64.3337839 39 69.4925219 40.8779322 74.8420208 39.0165247 80.1640775 40.953908 85.5140528 39.0925006 91 41.0892399"></polygon>
                                            <path d="M107,40 C106.479612,40 106.195104,39.9065381 105.966478,39.8314449 C105.774209,39.7683159 105.622328,39.7184883 105.285433,39.7184883 C104.948358,39.7184883 104.796478,39.7683159 104.604209,39.8314449 C104.375493,39.9065381 104.090985,40 103.570687,40 C103.050388,40 102.765881,39.9065381 102.537254,39.8314449 C102.345075,39.7683159 102.193194,39.7184883 101.856299,39.7184883 C101.519403,39.7184883 101.367522,39.7683159 101.175433,39.8314449 C100.946716,39.9065381 100.662209,40 100.14191,40 C99.6217015,40 99.3373731,39.9065381 99.1087463,39.8314449 C98.9165672,39.7683159 98.7648657,39.7184883 98.4281493,39.7184883 C98.0913433,39.7184883 97.9395522,39.7683159 97.7474627,39.8314449 C97.5187463,39.9065381 97.2342388,40 96.7140299,40 C96.1938209,40 95.9093134,39.9065381 95.6807761,39.8314449 C95.488597,39.7683159 95.336806,39.7184883 95,39.7184883 L95,39 C95.520209,39 95.8047164,39.0934619 96.0333433,39.1685551 C96.2255224,39.2316841 96.3772239,39.2815117 96.7140299,39.2815117 C97.0508358,39.2815117 97.2027164,39.2316841 97.394806,39.1685551 C97.6234328,39.0934619 97.9080299,39 98.4281493,39 C98.9483582,39 99.2327761,39.0934619 99.4613134,39.1685551 C99.6534925,39.2316841 99.805194,39.2815117 100.14191,39.2815117 C100.478896,39.2815117 100.630687,39.2316841 100.822866,39.1685551 C101.051493,39.0934619 101.336,39 101.856299,39 C102.376507,39 102.661104,39.0934619 102.889731,39.1685551 C103.08191,39.2316841 103.233701,39.2815117 103.570687,39.2815117 C103.907672,39.2815117 104.059552,39.2316841 104.251821,39.1685551 C104.480448,39.0934619 104.765045,39 105.285433,39 C105.805731,39 106.090328,39.0934619 106.318955,39.1685551 C106.511134,39.2316841 106.663015,39.2815117 107,39.2815117 L107,40 Z" id="Fill-224" fill="#CFDAFF"></path>
                                            <g id="Group-38" opacity="0.635076993" transform="translate(95.000000, 85.000000)" fill="#CFDAFF">
                                                <polygon id="Fill-225" points="18.1578639 19.5313635 0.445122533 19.5313635 0.445122533 12.6171835 1.40127187 12.6171835 1.40127187 18.6023445 18.1578639 18.6023445"></polygon>
                                                <path d="M3.50525,17.8212551 L3.39912567,16.8979691 L3.45223467,17.3596121 L3.39388033,16.8985151 C3.48342567,16.8867761 5.585493,16.5679121 5.50316,12.8168011 L5.50278533,12.7987831 L5.50381567,12.7806741 L6.06750167,3.0771621 L6.07293433,3.0484971 C6.07705567,3.0268391 6.17484367,2.5140541 6.34634733,1.9910771 C6.547637,1.3773731 6.85720533,0.6713951 7.469317,0.6583821 C7.47540533,0.6582911 7.4814,0.6582001 7.48748833,0.6582001 C8.09641533,0.6582001 8.50152367,1.3203161 8.88255967,2.9336551 L8.89305033,2.9778811 L9.17545533,11.8440111 C9.17648567,11.8921501 9.295817,16.1763391 11.6547183,16.9176251 L11.360324,17.8015991 C8.354467,16.8569281 8.22361467,12.0707831 8.21949333,11.8674891 L7.94008567,3.0975461 C7.74797533,2.2944711 7.58583833,1.9040811 7.483367,1.7176221 C7.324883,2.0093681 7.13033733,2.6118791 7.018874,3.1881821 L6.45959033,12.8152541 C6.55316333,17.4367801 3.62992033,17.8076961 3.50525,17.8212551" id="Fill-226"></path>
                                                <path d="M17.1103333,17.8560899 C16.514145,17.8560899 15.9598257,17.6651719 15.4571167,17.2858839 C13.3650717,15.7073979 12.866484,11.2320179 12.815061,10.7090409 C12.5026827,9.6158579 12.250532,9.3120089 12.161174,9.2338399 C12.0034393,9.3586919 11.756815,9.8380799 11.612943,10.3052739 C11.6814133,12.8574599 11.0643373,14.8527259 9.77838767,16.2363809 C8.786926,17.3029919 7.71734633,17.6372349 7.413117,17.7142209 L7.17192533,16.8152319 C7.54677933,16.7204099 10.8291403,15.7300569 10.6549203,10.2603199 L10.652766,10.1897039 L10.6722487,10.1216359 C10.8299833,9.5697209 11.2912917,8.2863479 12.1647333,8.2863479 L12.166232,8.2863479 C13.014571,8.2877129 13.457427,9.4714409 13.748262,10.5025619 L13.759783,10.5429659 L13.7635297,10.5848259 C13.7675573,10.6304169 14.1969253,15.1596689 16.0441257,16.5525149 C16.4634713,16.8686489 16.9150383,16.9824899 17.4244913,16.9012269 L17.5798843,17.8179609 C17.420651,17.8433499 17.264134,17.8560899 17.1103333,17.8560899" id="Fill-227"></path>
                                            </g>
                                            <g id="Group-38-Copy" opacity="0.635076993" transform="translate(18.000000, 165.000000)" fill="#CFDAFF">
                                                <polygon id="Fill-225" points="18.1578639 19.5313635 0.445122533 19.5313635 0.445122533 12.6171835 1.40127187 12.6171835 1.40127187 18.6023445 18.1578639 18.6023445"></polygon>
                                                <path d="M3.50525,17.8212551 L3.39912567,16.8979691 L3.45223467,17.3596121 L3.39388033,16.8985151 C3.48342567,16.8867761 5.585493,16.5679121 5.50316,12.8168011 L5.50278533,12.7987831 L5.50381567,12.7806741 L6.06750167,3.0771621 L6.07293433,3.0484971 C6.07705567,3.0268391 6.17484367,2.5140541 6.34634733,1.9910771 C6.547637,1.3773731 6.85720533,0.6713951 7.469317,0.6583821 C7.47540533,0.6582911 7.4814,0.6582001 7.48748833,0.6582001 C8.09641533,0.6582001 8.50152367,1.3203161 8.88255967,2.9336551 L8.89305033,2.9778811 L9.17545533,11.8440111 C9.17648567,11.8921501 9.295817,16.1763391 11.6547183,16.9176251 L11.360324,17.8015991 C8.354467,16.8569281 8.22361467,12.0707831 8.21949333,11.8674891 L7.94008567,3.0975461 C7.74797533,2.2944711 7.58583833,1.9040811 7.483367,1.7176221 C7.324883,2.0093681 7.13033733,2.6118791 7.018874,3.1881821 L6.45959033,12.8152541 C6.55316333,17.4367801 3.62992033,17.8076961 3.50525,17.8212551" id="Fill-226"></path>
                                                <path d="M17.1103333,17.8560899 C16.514145,17.8560899 15.9598257,17.6651719 15.4571167,17.2858839 C13.3650717,15.7073979 12.866484,11.2320179 12.815061,10.7090409 C12.5026827,9.6158579 12.250532,9.3120089 12.161174,9.2338399 C12.0034393,9.3586919 11.756815,9.8380799 11.612943,10.3052739 C11.6814133,12.8574599 11.0643373,14.8527259 9.77838767,16.2363809 C8.786926,17.3029919 7.71734633,17.6372349 7.413117,17.7142209 L7.17192533,16.8152319 C7.54677933,16.7204099 10.8291403,15.7300569 10.6549203,10.2603199 L10.652766,10.1897039 L10.6722487,10.1216359 C10.8299833,9.5697209 11.2912917,8.2863479 12.1647333,8.2863479 L12.166232,8.2863479 C13.014571,8.2877129 13.457427,9.4714409 13.748262,10.5025619 L13.759783,10.5429659 L13.7635297,10.5848259 C13.7675573,10.6304169 14.1969253,15.1596689 16.0441257,16.5525149 C16.4634713,16.8686489 16.9150383,16.9824899 17.4244913,16.9012269 L17.5798843,17.8179609 C17.420651,17.8433499 17.264134,17.8560899 17.1103333,17.8560899" id="Fill-227"></path>
                                            </g>
                                            <polygon id="Fill-228" fill="#CFDAFF" points="219.569494 71 213.429341 69.0461118 207.289382 71 201 68.9985346 201.299235 68.0475772 207.289382 69.9538882 213.429341 68 219.569494 69.9538882 225.709938 68 232 70.0014654 231.700765 70.9524228 225.709938 69.0461118"></polygon>
                                            <path d="M280,93 C279.503258,93 279.2333,92.9032303 279.016325,92.8255331 C278.8428,92.7633894 278.7174,92.7184883 278.428283,92.7184883 C278.139075,92.7184883 278.013675,92.7633894 277.84015,92.8255331 C277.623175,92.9032303 277.353217,93 276.856475,93 C276.359733,93 276.089775,92.9032303 275.872892,92.8255331 C275.699367,92.7633894 275.573967,92.7184883 275.28485,92.7184883 C274.995825,92.7184883 274.870517,92.7633894 274.696992,92.8255331 C274.480108,92.9032303 274.21015,93 273.7135,93 C273.21685,93 272.946983,92.9032303 272.730008,92.8255331 C272.556667,92.7633894 272.43145,92.7184883 272.142517,92.7184883 C271.853492,92.7184883 271.728183,92.7633894 271.55475,92.8255331 C271.337775,92.9032303 271.067817,93 270.571167,93 C270.074608,93 269.804558,92.9032303 269.587675,92.8255331 C269.414333,92.7633894 269.288933,92.7184883 269,92.7184883 L269,92 C269.49665,92 269.766608,92.0967697 269.983492,92.1744669 C270.156925,92.2366106 270.282142,92.2815117 270.571167,92.2815117 C270.860192,92.2815117 270.9855,92.2366106 271.159025,92.1744669 C271.375908,92.0967697 271.645867,92 272.142517,92 C272.639075,92 272.909033,92.0967697 273.125917,92.1744669 C273.299258,92.2366106 273.424567,92.2815117 273.7135,92.2815117 C274.002525,92.2815117 274.127833,92.2366106 274.301358,92.1744669 C274.518242,92.0967697 274.788292,92 275.28485,92 C275.781592,92 276.051642,92.0967697 276.268525,92.1744669 C276.44205,92.2366106 276.56745,92.2815117 276.856475,92.2815117 C277.145592,92.2815117 277.270992,92.2366106 277.444517,92.1744669 C277.661492,92.0967697 277.931542,92 278.428283,92 C278.924933,92 279.194983,92.0967697 279.411958,92.1744669 C279.585483,92.2366106 279.710883,92.2815117 280,92.2815117 L280,93 Z" id="Fill-229" fill="#CFDAFF"></path>
                                            <polygon id="Fill-230" fill="#CFDAFF" points="241.512665 40 237 37.9878202 237.376638 37.0839734 241.512665 38.9282064 245.837151 37 250.161637 38.9282064 254.486682 37 259 39.0120834 258.623362 39.9160266 254.486682 38.0717936 250.161637 40 245.837151 38.0717936"></polygon>
                                        </g>
                                    </g>
                                </g>
                            </g>
                        </g>
                    </g>
                </g>
            </g>
        </g>
    </g>
</svg>