<?xml version="1.0" encoding="UTF-8"?>
<svg width="20px" height="20px" viewBox="0 0 20 20" version="1.1" xmlns="http://www.w3.org/2000/svg" xmlns:xlink="http://www.w3.org/1999/xlink">
    <!-- Generator: Sketch 55.2 (78181) - https://sketchapp.com -->
    <title>码云</title>
    <desc>Created with Sketch.</desc>
    <g id="组件" stroke="none" stroke-width="1" fill="none" fill-rule="evenodd">
        <g id="footer" transform="translate(-1168.000000, -270.000000)" fill="#FFFFFF" fill-rule="nonzero">
            <g id="分组">
                <g id="码云" transform="translate(1168.000000, 270.000000)">
                    <path d="M19.0519555,7.97546012 L8.86215491,7.97546012 C8.37327454,7.97546012 7.97546012,8.37087807 7.97546012,8.86215491 L7.97546012,11.0764954 C7.97546012,11.5653758 8.37087807,11.9631902 8.86215491,11.9631902 L15.0666219,11.9631902 C15.5555023,11.9631902 15.9533167,12.3610046 15.9533167,12.849885 L15.9533167,13.2908359 C15.9533167,14.7598735 14.7622699,15.9485238 13.2956288,15.9485238 L4.87442485,15.9485238 C4.38554448,15.9485238 3.98773006,15.5507094 3.98773006,15.061829 L3.98773006,6.64302147 C3.98773006,5.1739839 5.17877684,3.98533359 6.64541794,3.98533359 L19.049559,3.98533359 C19.5384394,3.98533359 19.9362538,3.58991564 19.9362538,3.0986388 L19.9386503,0.886694785 C19.9386503,0.397814417 19.5432324,-5.68434189e-14 19.0519555,-5.68434189e-14 L6.64541794,-5.68434189e-14 C2.97641871,-5.68434189e-14 0,2.97641871 0,6.64541794 L0,19.0519555 C0,19.5408359 0.397814417,19.9386503 0.886694785,19.9386503 L13.9570552,19.9386503 C17.2593942,19.9386503 19.9386503,17.2617906 19.9386503,13.9570552 L19.9386503,8.86215491 C19.9386503,8.37327454 19.5408359,7.97546012 19.0519555,7.97546012 Z" id="路径"></path>
                </g>
            </g>
        </g>
    </g>
</svg>