<svg width="50" height="50" xmlns="http://www.w3.org/2000/svg"><g fill="none" fill-rule="evenodd"><rect fill="#3371E3" width="50" height="50" rx="5"/><path d="M25.5 13C18.594 13 13 18.594 13 25.5c0 5.531 3.578 10.203 8.547 11.86.625.109.86-.266.86-.594 0-.297-.016-1.282-.016-2.328-3.141.578-3.953-.766-4.203-1.47-.141-.359-.75-1.468-1.282-1.765-.437-.234-1.062-.812-.015-.828.984-.016 1.687.906 1.922 1.281 1.125 1.89 2.921 1.36 3.64 1.032.11-.813.438-1.36.797-1.672-2.781-.313-5.688-1.391-5.688-6.172 0-1.36.485-2.485 1.282-3.36-.125-.312-.563-1.593.125-3.312 0 0 1.047-.328 3.437 1.281 1-.281 2.063-.422 3.125-.422 1.063 0 2.125.14 3.125.422 2.39-1.625 3.438-1.281 3.438-1.281.687 1.719.25 3 .125 3.312.797.875 1.281 1.985 1.281 3.36 0 4.797-2.922 5.86-5.703 6.172.453.39.844 1.14.844 2.312 0 1.672-.016 3.016-.016 3.438 0 .328.234.718.86.593A12.52 12.52 0 0 0 38 25.5C38 18.594 32.406 13 25.5 13z" fill="#FFF" fill-rule="nonzero"/></g></svg>