<?xml version="1.0" standalone="no"?><!DOCTYPE svg PUBLIC "-//W3C//DTD SVG 1.1//EN" "http://www.w3.org/Graphics/SVG/1.1/DTD/svg11.dtd"><svg t="1588928872301" class="icon" viewBox="0 0 1024 1024" version="1.1" xmlns="http://www.w3.org/2000/svg" p-id="7740" xmlns:xlink="http://www.w3.org/1999/xlink" width="200" height="200"><defs><style type="text/css"></style></defs><path d="M122.784 771.887c37.744 34.186 91.994 64.87 143.897 64.87 37.744 0 80.196-16.515 80.196-61.339 0-49.53-57.795-57.786-122.662-86.101-73.125-31.852-134.463-70.762-134.463-163.95 0-121.483 97.899-173.373 219.38-173.373 66.050 0 136.825 15.341 187.532 48.357v14.147l-47.177 93.188c-33.020-24.765-77.846-41.274-127.387-41.274-43.636 0-70.762 17.68-70.762 51.888 0 44.806 51.902 54.253 116.77 79.019 89.633 34.211 143.885 71.953 143.885 167.479 0 125.014-97.888 179.287-227.625 179.287-82.57 0-148.62-22.422-211.126-69.591v-14.146l49.541-88.463z" fill="#009A61" p-id="7741"></path><path d="M655.82 942.875c0-11.963 2.371-337.511 3.559-450.013-32.272 1.188-65.826 1.188-75.365 1.188l1.188-120.88c9.586 0 41.906 0 72.991 1.188 0-4.794-2.371-104.127-2.371-107.711 0-135.234 78.973-185.519 181.91-185.519 44.281 0 89.744 7.19 135.261 26.34v17.939l-34.74 95.749c-19.129-10.774-40.674-16.753-59.847-16.753-33.505 0-55.053 16.753-55.053 80.182 0 21.545 1.233 84.976 1.233 89.771 35.881-1.188 104.127-1.188 113.667-1.188l-1.188 120.88c-9.588 0-77.787 0-113.713-1.188 2.419 112.501 2.419 438.050 2.419 450.013h-169.952z" fill="#009A61" p-id="7742"></path></svg>