<svg width="50" height="50" xmlns="http://www.w3.org/2000/svg"><g fill="none" fill-rule="evenodd"><rect fill="#FFF" width="50" height="50" rx="5"/><g fill-rule="nonzero"><path d="M31.813 27.71a.667.667 0 1 1 0-1.334.667.667 0 0 1 0 1.333" fill="#FFF"/><path d="M36.234 16.965c-2.385-2.254-5.585-1.931-5.585-1.931a1.087 1.087 0 0 0-1.077 1.08v-.223c0 .593.49 1.048 1.074 1.05 0 0 3.074-.355 4.504 1.697 1.43 2.054.844 4.324.844 4.324a.911.911 0 0 0 .927 1.068h-.246c.595 0 1.143-.477 1.197-1.066 0 0 .747-3.745-1.638-6" fill="#3371E3"/><path d="M33.806 19.305c-1.3-1.17-2.802-.761-2.802-.761a.842.842 0 0 0-.713.81v-.203c0 .395.317.694.716.693 0 0 1.24-.194 1.933.63.693.822.198 1.956.198 1.956-.109.38.123.687.524.687h.072c.4 0 .783-.313.84-.708.001 0 .533-1.934-.766-3.106l-.002.002zm-6.517 8.628c-.377-1.95-2.583-3.162-4.923-2.708-2.343.454-3.933 2.406-3.554 4.356.38 1.952 2.584 3.165 4.926 2.71 2.34-.456 3.932-2.406 3.551-4.358zm-5.135 2.423c-.72.336-1.508.17-1.758-.37-.255-.54.126-1.25.847-1.586.719-.336 1.507-.171 1.76.369.252.54-.128 1.25-.848 1.587h-.001zm1.659-1.641a.72.72 0 1 1 .002 0h-.002z" fill="#3371E3"/><path d="M31.074 24.42c0-.218 2.094-2.168 0-3.38-2.093-1.216-5.922.63-5.807.43 1.645-2.83-.708-3.725-1.906-3.725-2.862 0-10.342 6.275-10.342 10.249 0 3.975 4.993 7.197 11.155 7.197 6.16 0 11.107-3.222 11.107-7.197 0-3.357-4.207-3.357-4.207-3.574zm-6.609 8.567c-3.937.553-7.418-1.072-7.778-3.631-.36-2.558 2.54-5.08 6.475-5.635 3.937-.551 7.419 1.073 7.78 3.632.358 2.557-2.542 5.081-6.477 5.634z" fill="#3371E3"/></g></g></svg>