<?xml version="1.0" encoding="UTF-8"?>
<svg width="20px" height="20px" viewBox="0 0 20 20" version="1.1" xmlns="http://www.w3.org/2000/svg" xmlns:xlink="http://www.w3.org/1999/xlink">
    <!-- Generator: Sketch 55.2 (78181) - https://sketchapp.com -->
    <title>群聊 (1)</title>
    <desc>Created with Sketch.</desc>
    <g id="组件" stroke="none" stroke-width="1" fill="none" fill-rule="evenodd">
        <g id="footer" transform="translate(-1042.000000, -270.000000)" fill="#FFFFFF" fill-rule="nonzero">
            <g id="分组">
                <g id="群聊-(1)" transform="translate(1042.000000, 270.000000)">
                    <path d="M12.8441755,11.0771558 C12.5083207,10.7322239 12.1482602,10.4114977 11.7730711,10.1089259 C13.419062,8.91981846 14.2874433,6.93192133 14.0484115,4.91679274 C13.8093797,2.90166415 12.4962179,1.17397882 10.6172466,0.402420575 C11.2133132,0.163388805 11.8456884,0.0363086233 12.4871407,0.0272314675 C15.494705,0.0816944024 17.8880484,2.56278366 17.8335855,5.57034796 C17.8759455,8.43570348 15.6944024,10.8381241 12.8441755,11.0771558 L12.8441755,11.0771558 Z M12.8441755,5.57337368 C12.8986384,8.58093797 10.505295,11.0620272 7.50075643,11.1195159 C4.49319213,11.065053 2.09984871,8.58093797 2.15431165,5.57337368 C2.09984871,2.56580938 4.49319213,0.084720121 7.50075643,0.0302571861 C10.5083207,0.084720121 12.9016641,2.56580938 12.8441755,5.57337368 Z M3.94553707,10.7987897 C4.90468986,11.709531 6.17549168,12.2208775 7.50075643,12.2269289 L5.36157337,16.6626324 L7.50075643,18.6898638 L9.63993949,16.6626324 L7.50075643,12.2269289 C8.82299546,12.2208775 10.0937973,11.709531 11.0559758,10.7987897 C14.3509834,12.505295 14.9863843,16.6626324 14.9863843,19.9909228 L0.015128593,19.9909228 C0.015128593,16.6626324 0.650529501,12.505295 3.94553707,10.7987897 L3.94553707,10.7987897 Z M13.8608169,12.0151286 C14.6747352,11.7881997 15.4220877,11.3706505 16.0423601,10.7987897 C19.3343419,12.505295 19.9727685,16.6656581 19.9727685,19.9909228 L16.2329803,19.9909228 C16.2329803,19.8487141 16.2269289,19.7004539 16.2239032,19.5582451 C16.2239032,19.494705 16.2329803,19.4341906 16.2329803,19.3676248 C16.2299546,18.8804841 16.1966717,18.3933434 16.1331316,17.9122542 C16.0363086,15.7488654 15.2405446,13.6792738 13.8608169,12.0151286 L13.8608169,12.0151286 Z" id="形状"></path>
                </g>
            </g>
        </g>
    </g>
</svg>