<svg width="50" height="50" xmlns="http://www.w3.org/2000/svg"><g fill="none" fill-rule="evenodd"><rect fill="#FFF" width="50" height="50" rx="5"/><g fill="#3371E3" fill-rule="nonzero"><path d="M30.427 21.245c.123 0 .245.002.367.007-.774-3.544-4.427-6.227-8.817-6.227-4.953 0-8.968 3.416-8.968 7.63 0 2.461 1.371 4.65 3.499 6.045l-.896 2.643 2.967-1.627a10.321 10.321 0 0 0 4.088.545 5.948 5.948 0 0 1-.387-2.108c0-3.815 3.647-6.908 8.147-6.908zm-5.355-2.449a1.324 1.324 0 1 1 0 2.65 1.324 1.324 0 0 1 0-2.65zm-6.16 2.649a1.324 1.324 0 1 1 0-2.649 1.324 1.324 0 0 1 0 2.649z"/><path d="M37.999 28.153c0-3.546-3.39-6.42-7.572-6.42s-7.572 2.874-7.572 6.42 3.39 6.42 7.572 6.42c.878 0 1.721-.127 2.505-.36l2.59 1.42-.753-2.22c1.953-1.16 3.23-3.084 3.23-5.26zm-9.937-.921a1.06 1.06 0 1 1 0-2.12 1.06 1.06 0 0 1 0 2.12zm4.932 0a1.06 1.06 0 1 1 0-2.12 1.06 1.06 0 0 1 0 2.12z"/></g></g></svg>