<?xml version="1.0" encoding="UTF-8"?>
<svg xmlns="http://www.w3.org/2000/svg" xmlns:xlink="http://www.w3.org/1999/xlink" width="1442px" height="331px" viewBox="0 0 1442 331" version="1.1">
  <title>背景</title>
  <g id="首页" stroke="none" stroke-width="1" fill="none" fill-rule="evenodd" opacity="0.08" stroke-linecap="round" stroke-linejoin="round">
    <g id="官网首页" transform="translate(1.000000, -72.000000)" stroke="#FFFFFF" stroke-width="2">
      <g id="banner背景" transform="translate(0.000000, 60.000000)">
        <g id="背景" transform="translate(0.000000, 13.000000)">
          <path d="M623.129798,82.0453785 C633.297749,82.0453785 633.297749,94.885325 643.465057,94.885325 C653.633651,94.885325 653.633651,82.0453785 663.801602,82.0453785 C673.969553,82.0453785 673.969553,94.885325 684.137504,94.885325 C694.306742,94.885325 694.306742,82.0453785 704.475979,82.0453785 C714.645217,82.0453785 714.645217,94.885325 724.814455,94.885325" id="Stroke-7"></path>
          <path d="M180,275 C190.167951,275 190.167951,287.839947 200.335259,287.839947 C210.503853,287.839947 210.503853,275 220.671804,275 C230.839755,275 230.839755,287.839947 241.007706,287.839947 C251.176943,287.839947 251.176943,275 261.346181,275 C271.515419,275 271.515419,287.839947 281.684656,287.839947" id="Stroke-9"></path>
          <path d="M177,10 C187.167951,10 187.167951,22.8399465 197.335259,22.8399465 C207.503853,22.8399465 207.503853,10 217.671804,10 C227.839755,10 227.839755,22.8399465 238.007706,22.8399465 C248.176943,22.8399465 248.176943,10 258.346181,10 C268.515419,10 268.515419,22.8399465 278.684656,22.8399465" id="Stroke-9-Copy-2"></path>
          <path d="M1251.75648,267.654189 C1261.92443,267.654189 1261.92443,280.494135 1272.09173,280.494135 C1282.26033,280.494135 1282.26033,267.654189 1292.42828,267.654189 C1302.59623,267.654189 1302.59623,280.494135 1312.76418,280.494135 C1322.93342,280.494135 1322.93342,267.654189 1333.10266,267.654189 C1343.27189,267.654189 1343.27189,280.494135 1353.44113,280.494135" id="Stroke-9-Copy" transform="translate(1302.598803, 274.074162) rotate(50.000000) translate(-1302.598803, -274.074162) "></path>
          <path d="M1276.75229,80.464468 C1286.92024,80.464468 1286.92024,93.3044145 1297.08754,93.3044145 C1307.25614,93.3044145 1307.25614,80.464468 1317.42409,80.464468 C1327.59204,80.464468 1327.59204,93.3044145 1337.75999,93.3044145 C1347.92923,93.3044145 1347.92923,80.464468 1358.09847,80.464468 C1368.2677,80.464468 1368.2677,93.3044145 1378.43694,93.3044145" id="Stroke-9-Copy-3" transform="translate(1327.594614, 86.884441) rotate(50.000000) translate(-1327.594614, -86.884441) "></path>
          <polyline id="Stroke-13" points="431.466142 225.80617 451.801401 238.646117 472.137946 225.80617 492.473848 238.646117 512.812323 225.80617 533.151442 238.646117"></polyline>
          <path d="M473.164584,242.696735 L493.499843,255.536681 L513.836388,242.696735 L534.17229,255.536681 L554.510765,242.696735 L574.849241,255.536681" id="Stroke-15" stroke-dasharray="12"></path>
          <polyline id="Stroke-21" points="1238.77269 143.859064 1259.10859 156.69901 1279.44707 143.859064 1299.78554 156.69901"></polyline>
          <polyline id="Stroke-23" points="1259.10859 174.202811 1279.44707 161.362864 1299.78554 174.202811"></polyline>
          <polyline id="Stroke-27" points="343.981942 206.258828 364.320417 193.418882 384.658892 206.258828"></polyline>
          <polyline id="Stroke-29" points="684 303.839947 704.338475 291 724.676951 303.839947"></polyline>
          <polyline id="Stroke-29-Copy" points="720 13.4168417 740.338475 0.57689523 760.676951 13.4168417"></polyline>
          <polyline id="Stroke-37" points="760.553596 104.539873 780.892071 91.6999269 801.230546 104.539873"></polyline>
          <polyline id="Stroke-39" points="1081 320.973856 1104.47796 315.703058 1109.76105 292.272724 1133.24094 287"></polyline>
          <polyline id="Stroke-39-Copy" points="1001.69713 49.9738564 1025.17509 44.7030584 1030.45818 21.272724 1053.93807 16"></polyline>
          <polyline id="Stroke-41" points="1117 328.703058 1122.28309 305.272082 1145.76298 300"></polyline>
          <polyline id="Stroke-41-Copy" points="1037.69713 56.7030584 1042.98022 33.272082 1066.46011 28"></polyline>
          <polyline id="Stroke-43" points="653.814493 207.083859 677.292456 201.813703 682.575545 178.382727 706.055437 173.110003"></polyline>
          <polyline id="Stroke-45" points="690 213.703058 695.283732 190.272082 718.762981 185"></polyline>
          <polyline id="Stroke-45-Copy" points="555.746231 54.7030584 561.029963 31.272082 584.509212 26"></polyline>
          <polyline id="Stroke-47" points="863.072339 174.956259 883.408241 187.796205 903.746716 174.956259 924.085192 187.796205"></polyline>
          <polyline id="Stroke-49" points="883 287.839947 903.338475 275 923.676951 287.839947"></polyline>
          <polyline id="Stroke-49-Copy" points="883 50.836815 903.338475 37.9968685 923.676951 50.836815"></polyline>
          <polyline id="Stroke-51" points="543.832262 117.747877 564.170737 104.90793 584.509212 117.747877"></polyline>
          <line x1="960.409384" y1="218.060794" x2="960.409384" y2="243.410058" id="Stroke-53"></line>
          <line x1="973.110413" y1="230.735362" x2="947.708227" y2="230.735362" id="Stroke-55"></line>
          <line x1="273.12924" y1="214.002793" x2="273.12924" y2="239.352057" id="Stroke-57"></line>
          <line x1="285.830269" y1="226.677296" x2="260.428083" y2="226.677296" id="Stroke-59"></line>
          <line x1="1351.81628" y1="188" x2="1351.81628" y2="213.349264" id="Stroke-61"></line>
          <line x1="1365.19342" y1="200" x2="1339.79123" y2="200" id="Stroke-63"></line>
          <line x1="473" y1="301" x2="473" y2="326.349264" id="Stroke-65"></line>
          <line x1="461" y1="23" x2="461" y2="48.3492644" id="Stroke-65-Copy"></line>
          <line x1="94.2226602" y1="78" x2="94.2226602" y2="103.349264" id="Stroke-65-Copy-2"></line>
          <line x1="485.402186" y1="314" x2="460" y2="314" id="Stroke-67"></line>
          <line x1="473.402186" y1="36" x2="448" y2="36" id="Stroke-67-Copy"></line>
          <line x1="106.624846" y1="91" x2="81.2226602" y2="91" id="Stroke-67-Copy-2"></line>
          <line x1="63.962298" y1="166.959347" x2="63.962298" y2="192.308612" id="Stroke-73"></line>
          <line x1="76.6633265" y1="179.633915" x2="51.2611409" y2="179.633915" id="Stroke-75"></line>
          <path d="M970.633124,301.295069 C970.633124,306.980597 966.01396,311.590138 960.316562,311.590138 C954.619164,311.590138 950,306.980597 950,301.295069 C950,295.609541 954.619164,291 960.316562,291 C966.01396,291 970.633124,295.609541 970.633124,301.295069 Z" id="Stroke-77"></path>
          <path d="M970.633124,64.2919376 C970.633124,69.9774659 966.01396,74.5870067 960.316562,74.5870067 C954.619164,74.5870067 950,69.9774659 950,64.2919376 C950,58.6064093 954.619164,53.9968685 960.316562,53.9968685 C966.01396,53.9968685 970.633124,58.6064093 970.633124,64.2919376 Z" id="Stroke-77-Copy"></path>
          <path d="M809.633124,300.295069 C809.633124,305.980597 805.014603,310.590138 799.316562,310.590138 C793.619164,310.590138 789,305.980597 789,300.295069 C789,294.609541 793.619164,290 799.316562,290 C805.014603,290 809.633124,294.609541 809.633124,300.295069 Z" id="Stroke-85"></path>
          <path d="M823.633124,41.2950691 C823.633124,46.9805974 819.014603,51.5901382 813.316562,51.5901382 C807.619164,51.5901382 803,46.9805974 803,41.2950691 C803,35.6095408 807.619164,31 813.316562,31 C819.014603,31 823.633124,35.6095408 823.633124,41.2950691 Z" id="Stroke-85-Copy"></path>
          <polyline id="Stroke-87" points="166.237667 215.189846 164.307654 211.854028 162.377641 215.189846"></polyline>
          <line x1="158.10678" y1="222.571724" x2="151.700424" y2="233.644251" id="Stroke-89" stroke-dasharray="13.277,13.277"></line>
          <polyline id="Stroke-91" points="149.565122 237.335543 147.635109 240.671362 151.495135 240.671362"></polyline>
          <line x1="160.036793" y1="240.671426" x2="172.849505" y2="240.671426" id="Stroke-93" stroke-dasharray="13.277,13.277"></line>
          <polyline id="Stroke-95" points="177.120173 240.671426 180.980199 240.671426 179.050186 237.335608"></polyline>
          <line x1="174.779389" y1="229.953601" x2="168.373033" y2="218.881074" id="Stroke-97" stroke-dasharray="13.277,13.277"></line>
          <line x1="1162.50701" y1="198.57733" x2="1144.54503" y2="216.501896" id="Stroke-101"></line>
          <line x1="1162.50701" y1="216.501831" x2="1144.54503" y2="198.577266" id="Stroke-103"></line>
          <path d="M485.633124,171.081163 C485.633124,176.766691 481.01396,181.376232 475.316562,181.376232 C469.619164,181.376232 465,176.766691 465,171.081163 C465,165.395634 469.619164,160.786094 475.316562,160.786094 C481.01396,160.786094 485.633124,165.395634 485.633124,171.081163 Z" id="Stroke-107"></path>
          <path d="M96.8307321,247.295069 C96.8307321,252.980597 92.211568,257.590138 86.5141702,257.590138 C80.8167723,257.590138 76.1976082,252.980597 76.1976082,247.295069 C76.1976082,241.609541 80.8167723,237 86.5141702,237 C92.211568,237 96.8307321,241.609541 96.8307321,247.295069 Z" id="Stroke-107-Copy"></path>
          <path d="M653.633124,256.295069 C653.633124,261.980597 649.01396,266.590138 643.316562,266.590138 C637.619164,266.590138 633,261.980597 633,256.295069 C633,250.609541 637.619164,246 643.316562,246 C649.01396,246 653.633124,250.609541 653.633124,256.295069 Z" id="Stroke-109"></path>
          <path d="M653.633124,19.2919376 C653.633124,24.9774659 649.01396,29.5870067 643.316562,29.5870067 C637.619164,29.5870067 633,24.9774659 633,19.2919376 C633,13.6064093 637.619164,8.99686848 643.316562,8.99686848 C649.01396,8.99686848 653.633124,13.6064093 653.633124,19.2919376 Z" id="Stroke-109-Copy"></path>
          <polyline id="Stroke-111" points="148.658338 111.166377 172.136301 105.896221 177.419389 82.4652448 200.899282 77.1925207"></polyline>
          <polyline id="Stroke-113" points="184.538949 118.273031 189.822038 94.8420544 213.301931 89.5699724"></polyline>
          <path d="M208.109874,161.598541 C208.109874,167.28407 203.49071,171.89361 197.793312,171.89361 C192.095914,171.89361 187.47675,167.28407 187.47675,161.598541 C187.47675,155.913013 192.095914,151.303472 197.793312,151.303472 C203.49071,151.303472 208.109874,155.913013 208.109874,161.598541 Z" id="Stroke-115"></path>
          <polygon id="Stroke-125" points="58.9615193 294 29 302.011485 50.9333092 323.899099"></polygon>
          <polygon id="Stroke-125-Copy" points="81.2226602 10 51.2611409 18.0114846 73.1944501 39.8990994"></polygon>
          <polygon id="Stroke-127" points="505.278081 98 475.316562 106.011485 497.249871 127.899099"></polygon>
          <polygon id="Stroke-129" points="1217 276.99226 1239.03817 276.99226 1239.03817 255 1217 255"></polygon>
          <polygon id="Stroke-129-Copy" points="1217 40.9891288 1239.03817 40.9891288 1239.03817 18.9968685 1217 18.9968685"></polygon>
          <polygon id="Stroke-133" points="1051.16649 270.550459 1035.58357 286.100918 1020 270.550459 1035.58357 255"></polygon>
          <polygon id="Stroke-133-Copy" points="1159.98378 43.5504592 1144.40085 59.1009184 1128.81729 43.5504592 1144.40085 28"></polygon>
          <polygon id="Stroke-134" points="415.825383 104.550459 400.242459 120.100918 384.658892 104.550459 400.242459 89"></polygon>
          <polygon id="Stroke-135" points="31.8096995 79.7324547 16.2267759 95.282914 0.643208944 79.7324547 16.2267759 64.1819955"></polygon>
          <polygon id="Stroke-137" points="944.968685 132.99226 967.006858 132.99226 967.006858 111 944.968685 111"></polygon>
          <polygon id="Stroke-137-Copy" points="1417.95407 164.99226 1439.99224 164.99226 1439.99224 143 1417.95407 143"></polygon>
          <polygon id="Stroke-138" points="585.710645 198.884398 570.127722 183.333938 585.710645 167.782837 601.293569 183.333938"></polygon>
          <path d="M789,133 L809.335259,145.839947 L829.671804,133 L850.007706,145.839947 L870.346181,133 L890.6853,145.839947" id="Stroke-140" stroke-dasharray="12"></path>
          <polyline id="Stroke-141" points="1211.48456 111.52718 1231.82304 98.6872332 1252.16151 111.52718"></polyline>
          <line x1="1034.07868" y1="96.6655194" x2="1034.07868" y2="122.014784" id="Stroke-144"></line>
          <line x1="1046.77971" y1="109.340087" x2="1021.37752" y2="109.340087" id="Stroke-145"></line>
          <polyline id="Stroke-148" points="1079.75687 143.313751 1103.23484 138.043595 1108.51793 114.612619 1131.99782 109.339895"></polyline>
          <polyline id="Stroke-149" points="1115.63755 150.420469 1120.92128 126.989493 1144.40053 121.717411"></polyline>
          <path d="M1056.51405,197.156847 C1056.51405,202.842375 1051.89489,207.451916 1046.19749,207.451916 C1040.50009,207.451916 1035.88093,202.842375 1035.88093,197.156847 C1035.88093,191.471319 1040.50009,186.861778 1046.19749,186.861778 C1051.89489,186.861778 1056.51405,191.471319 1056.51405,197.156847 Z" id="Stroke-150"></path>
          <polygon id="Stroke-151" points="366.582924 293.10156 351 277.551101 366.582924 262 382.165847 277.551101"></polygon>
          <polygon id="Stroke-151-Copy" points="366.582924 56.0984289 351 40.5479697 366.582924 24.9968685 382.165847 40.5479697"></polygon>
          <polygon id="Stroke-152" points="1371 280.813411 1407.89027 280.813411 1407.89027 244 1371 244"></polygon>
          <polygon id="Stroke-152-Copy" points="1371 43.8102791 1407.89027 43.8102791 1407.89027 6.99686848 1371 6.99686848"></polygon>
          <path d="M1415.83747,237.33304 L1378.94721,237.33304 L1370.98397,244.128581 L1407.87488,244.128581 L1415.83747,237.33304 Z" id="Stroke-153" stroke-dasharray="12"></path>
          <path d="M1415.83747,274.146579 L1415.83747,237.333168 L1407.87488,244.128068 L1407.87488,280.94212 L1415.83747,274.146579 Z" id="Stroke-154" stroke-dasharray="12"></path>
          <polygon id="Stroke-155" points="766.305163 240.863255 803.195428 240.863255 803.195428 204.049844 766.305163 204.049844"></polygon>
          <polygon id="Stroke-156" points="811.158404 197.254623 774.268138 197.254623 766.305549 204.050165 803.195814 204.050165"></polygon>
          <polygon id="Stroke-157" points="811.158404 234.068162 811.158404 197.254752 803.195814 204.049651 803.195814 240.863704"></polygon>
          <polygon id="Stroke-158" points="298.463618 161.357022 335.353884 161.357022 335.353884 124.543611 298.463618 124.543611"></polygon>
          <polygon id="Stroke-159" points="343.316923 117.747877 306.426658 117.747877 298.463425 124.543419 335.354334 124.543419"></polygon>
          <polygon id="Stroke-160" points="343.316923 154.561416 343.316923 117.748005 335.354334 124.542905 335.354334 161.356958"></polygon>
        </g>
      </g>
    </g>
  </g>
</svg>
