<?xml version="1.0" encoding="UTF-8"?>
<svg width="1440px" height="269px" viewBox="0 0 1440 269" version="1.1" xmlns="http://www.w3.org/2000/svg" xmlns:xlink="http://www.w3.org/1999/xlink">
    <!-- Generator: Sketch 47 (45396) - http://www.bohemiancoding.com/sketch -->
    <title>Group 12</title>
    <desc>Created with Sketch.</desc>
    <defs></defs>
    <g id="Page-5" stroke="none" stroke-width="1" fill="none" fill-rule="evenodd" stroke-linecap="round" opacity="0.08" stroke-linejoin="round">
        <g id="首页" stroke="#FFFFFF" stroke-width="2">
            <g id="Group-12">
                <path d="M623.129798,21.0453785 C633.297749,21.0453785 633.297749,33.885325 643.465057,33.885325 C653.633651,33.885325 653.633651,21.0453785 663.801602,21.0453785 C673.969553,21.0453785 673.969553,33.885325 684.137504,33.885325 C694.306742,33.885325 694.306742,21.0453785 704.475979,21.0453785 C714.645217,21.0453785 714.645217,33.885325 724.814455,33.885325" id="Stroke-7"></path>
                <path d="M180.375783,214 C190.543734,214 190.543734,226.839947 200.711041,226.839947 C210.879636,226.839947 210.879636,214 221.047587,214 C231.215538,214 231.215538,226.839947 241.383489,226.839947 C251.552726,226.839947 251.552726,214 261.721964,214 C271.891201,214 271.891201,226.839947 282.060439,226.839947" id="Stroke-9"></path>
                <path d="M1251.4014,206.573048 C1261.56935,206.573048 1261.56935,219.412995 1271.73666,219.412995 C1281.90525,219.412995 1281.90525,206.573048 1292.0732,206.573048 C1302.24115,206.573048 1302.24115,219.412995 1312.4091,219.412995 C1322.57834,219.412995 1322.57834,206.573048 1332.74758,206.573048 C1342.91682,206.573048 1342.91682,219.412995 1353.08605,219.412995" id="Stroke-9-Copy" transform="translate(1302.243726, 212.993022) rotate(50.000000) translate(-1302.243726, -212.993022) "></path>
                <polyline id="Stroke-13" points="431.466142 164.80617 451.801401 177.646117 472.137946 164.80617 492.473848 177.646117 512.812323 164.80617 533.151442 177.646117"></polyline>
                <polyline id="Stroke-15" stroke-dasharray="12" points="473.164584 181.696735 493.499843 194.536681 513.836388 181.696735 534.17229 194.536681 554.510765 181.696735 574.849241 194.536681"></polyline>
                <polyline id="Stroke-21" points="1238.77269 82.8590638 1259.10859 95.6990103 1279.44707 82.8590638 1299.78554 95.6990103"></polyline>
                <polyline id="Stroke-23" points="1259.10859 113.202811 1279.44707 100.362864 1299.78554 113.202811"></polyline>
                <polyline id="Stroke-27" points="343.981942 145.258828 364.320417 132.418882 384.658892 145.258828"></polyline>
                <polyline id="Stroke-29" points="683.73812 242.611174 704.076595 229.771228 724.415071 242.611174"></polyline>
                <polyline id="Stroke-35" points="832.565784 54.5946821 852.901686 67.4346286 873.240162 54.5946821 893.578637 67.4346286"></polyline>
                <polyline id="Stroke-37" points="760.553596 43.5398734 780.892071 30.6999269 801.230546 43.5398734"></polyline>
                <polyline id="Stroke-39" points="1081.25437 260.187392 1104.73233 254.916594 1110.01542 231.486259 1133.49532 226.213535"></polyline>
                <polyline id="Stroke-41" points="1117.13505 267.293981 1122.41814 243.863005 1145.89803 238.590923"></polyline>
                <polyline id="Stroke-43" points="653.814493 146.083859 677.292456 140.813703 682.575545 117.382727 706.055437 112.110003"></polyline>
                <polyline id="Stroke-45" points="689.695169 153.190449 694.978901 129.759472 718.45815 124.48739"></polyline>
                <polyline id="Stroke-47" points="863.072339 113.956259 883.408241 126.796205 903.746716 113.956259 924.085192 126.796205"></polyline>
                <polyline id="Stroke-49" points="883.236341 226.413518 903.574817 213.573571 923.913292 226.413518"></polyline>
                <polyline id="Stroke-51" points="543.832262 56.747877 564.170737 43.9079305 584.509212 56.747877"></polyline>
                <path d="M960.409384,157.060794 L960.409384,182.410058" id="Stroke-53"></path>
                <path d="M973.110413,169.735362 L947.708227,169.735362" id="Stroke-55"></path>
                <path d="M273.12924,153.002793 L273.12924,178.352057" id="Stroke-57"></path>
                <path d="M285.830269,165.677296 L260.428083,165.677296" id="Stroke-59"></path>
                <path d="M1351.81628,127 L1351.81628,152.349264" id="Stroke-61"></path>
                <path d="M1365.19342,139 L1339.79123,139" id="Stroke-63"></path>
                <path d="M473.164584,240.126645 L473.164584,265.475909" id="Stroke-65"></path>
                <path d="M485.865613,252.801213 L460.463427,252.801213" id="Stroke-67"></path>
                <path d="M63.962298,105.959347 L63.962298,131.308612" id="Stroke-73"></path>
                <path d="M76.6633265,118.633915 L51.2611409,118.633915" id="Stroke-75"></path>
                <path d="M970.725946,240.432043 C970.725946,246.117571 966.106782,250.727112 960.409384,250.727112 C954.711986,250.727112 950.092822,246.117571 950.092822,240.432043 C950.092822,234.746514 954.711986,230.136974 960.409384,230.136974 C966.106782,230.136974 970.725946,234.746514 970.725946,240.432043 Z" id="Stroke-77"></path>
                <path d="M809.893731,239.045136 C809.893731,244.730664 805.27521,249.340205 799.577169,249.340205 C793.879771,249.340205 789.260607,244.730664 789.260607,239.045136 C789.260607,233.359608 793.879771,228.750067 799.577169,228.750067 C805.27521,228.750067 809.893731,233.359608 809.893731,239.045136 Z" id="Stroke-85"></path>
                <polyline id="Stroke-87" points="166.237667 154.189846 164.307654 150.854028 162.377641 154.189846"></polyline>
                <path d="M158.10678,161.571724 L151.700424,172.644251" id="Stroke-89" stroke-dasharray="13.277,13.277"></path>
                <polyline id="Stroke-91" points="149.565122 176.335543 147.635109 179.671362 151.495135 179.671362"></polyline>
                <path d="M160.036793,179.671426 L172.849505,179.671426" id="Stroke-93" stroke-dasharray="13.277,13.277"></path>
                <polyline id="Stroke-95" points="177.120173 179.671426 180.980199 179.671426 179.050186 176.335608"></polyline>
                <path d="M174.779389,168.953601 L168.373033,157.881074" id="Stroke-97" stroke-dasharray="13.277,13.277"></path>
                <path d="M1162.50701,137.57733 L1144.54503,155.501896" id="Stroke-101"></path>
                <path d="M1162.50701,155.501831 L1144.54503,137.577266" id="Stroke-103"></path>
                <path d="M457.543354,100.295069 C457.543354,105.980597 452.924189,110.590138 447.226792,110.590138 C441.529394,110.590138 436.91023,105.980597 436.91023,100.295069 C436.91023,94.6095408 441.529394,90 447.226792,90 C452.924189,90 457.543354,94.6095408 457.543354,100.295069 Z" id="Stroke-107"></path>
                <path d="M96.8307321,186.295069 C96.8307321,191.980597 92.211568,196.590138 86.5141702,196.590138 C80.8167723,196.590138 76.1976082,191.980597 76.1976082,186.295069 C76.1976082,180.609541 80.8167723,176 86.5141702,176 C92.211568,176 96.8307321,180.609541 96.8307321,186.295069 Z" id="Stroke-107-Copy"></path>
                <path d="M653.814493,195.26323 C653.814493,200.948758 649.195329,205.558299 643.497931,205.558299 C637.800534,205.558299 633.181369,200.948758 633.181369,195.26323 C633.181369,189.577701 637.800534,184.96816 643.497931,184.96816 C649.195329,184.96816 653.814493,189.577701 653.814493,195.26323 Z" id="Stroke-109"></path>
                <polyline id="Stroke-111" points="148.658338 50.1663772 172.136301 44.8962211 177.419389 21.4652448 200.899282 16.1925207"></polyline>
                <polyline id="Stroke-113" points="184.538949 57.2730308 189.822038 33.8420544 213.301931 28.5699724"></polyline>
                <path d="M208.109874,100.598541 C208.109874,106.28407 203.49071,110.89361 197.793312,110.89361 C192.095914,110.89361 187.47675,106.28407 187.47675,100.598541 C187.47675,94.9130129 192.095914,90.3034721 197.793312,90.3034721 C203.49071,90.3034721 208.109874,94.9130129 208.109874,100.598541 Z" id="Stroke-115"></path>
                <polygon id="Stroke-125" points="58.5400556 232.623108 28.5785364 240.634593 50.5118456 262.522208"></polygon>
                <polygon id="Stroke-127" points="503.81782 22.1720838 473.856301 30.1835684 495.78961 52.0711832"></polygon>
                <polygon id="Stroke-129" points="1217.39484 216.256799 1239.43301 216.256799 1239.43301 194.264539 1217.39484 194.264539"></polygon>
                <polygon id="Stroke-133" points="1051.46417 209.81564 1035.88125 225.366099 1020.29768 209.81564 1035.88125 194.265181"></polygon>
                <polygon id="Stroke-134" points="401.238603 16.1927775 385.655679 31.7432367 370.072112 16.1927775 385.655679 0.642318324"></polygon>
                <polygon id="Stroke-135" points="31.8096995 18.7324547 16.2267759 34.282914 0.643208944 18.7324547 16.2267759 3.18199554"></polygon>
                <polygon id="Stroke-137" points="944.968685 71.9922604 967.006858 71.9922604 967.006858 50 944.968685 50"></polygon>
                <polygon id="Stroke-137-Copy" points="1417.95407 103.99226 1439.99224 103.99226 1439.99224 82 1417.95407 82"></polygon>
                <polygon id="Stroke-138" points="601.145601 115.691 585.562677 100.14054 601.145601 84.5894391 616.728525 100.14054"></polygon>
                <polyline id="Stroke-140" stroke-dasharray="12" points="1289.02379 29.962272 1309.35905 42.8022185 1329.6956 29.962272 1350.0315 42.8022185 1370.36997 29.962272 1390.70909 42.8022185"></polyline>
                <polyline id="Stroke-141" points="1211.48456 50.5271797 1231.82304 37.6872332 1252.16151 50.5271797"></polyline>
                <path d="M1034.07868,35.6655194 L1034.07868,61.0147838" id="Stroke-144"></path>
                <path d="M1046.77971,48.3400874 L1021.37752,48.3400874" id="Stroke-145"></path>
                <polyline id="Stroke-148" points="1079.75687 82.3137512 1103.23484 77.0435952 1108.51793 53.6126188 1131.99782 48.3398948"></polyline>
                <polyline id="Stroke-149" points="1115.63755 89.420469 1120.92128 65.9894926 1144.40053 60.7174106"></polyline>
                <path d="M1056.51405,136.156847 C1056.51405,141.842375 1051.89489,146.451916 1046.19749,146.451916 C1040.50009,146.451916 1035.88093,141.842375 1035.88093,136.156847 C1035.88093,130.471319 1040.50009,125.861778 1046.19749,125.861778 C1051.89489,125.861778 1056.51405,130.471319 1056.51405,136.156847 Z" id="Stroke-150"></path>
                <polygon id="Stroke-151" points="366.981068 232.126074 351.398145 216.575615 366.981068 201.024514 382.563992 216.575615"></polygon>
                <polygon id="Stroke-152" points="1370.98462 219.941864 1407.87488 219.941864 1407.87488 183.128453 1370.98462 183.128453"></polygon>
                <polygon id="Stroke-153" stroke-dasharray="12" points="1415.83747 176.33304 1378.94721 176.33304 1370.98397 183.128581 1407.87488 183.128581"></polygon>
                <polygon id="Stroke-154" stroke-dasharray="12" points="1415.83747 213.146579 1415.83747 176.333168 1407.87488 183.128068 1407.87488 219.94212"></polygon>
                <polygon id="Stroke-155" points="766.305163 179.863255 803.195428 179.863255 803.195428 143.049844 766.305163 143.049844"></polygon>
                <polygon id="Stroke-156" points="811.158404 136.254623 774.268138 136.254623 766.305549 143.050165 803.195814 143.050165"></polygon>
                <polygon id="Stroke-157" points="811.158404 173.068162 811.158404 136.254752 803.195814 143.049651 803.195814 179.863704"></polygon>
                <polygon id="Stroke-158" points="298.463618 100.357022 335.353884 100.357022 335.353884 63.5436112 298.463618 63.5436112"></polygon>
                <polygon id="Stroke-159" points="343.316923 56.747877 306.426658 56.747877 298.463425 63.5434186 335.354334 63.5434186"></polygon>
                <polygon id="Stroke-160" points="343.316923 93.561416 343.316923 56.7480053 335.354334 63.542905 335.354334 100.356958"></polygon>
            </g>
        </g>
    </g>
</svg>
