<?xml version="1.0" encoding="UTF-8"?>
<svg width="386px" height="199px" viewBox="0 0 386 199" version="1.1" xmlns="http://www.w3.org/2000/svg" xmlns:xlink="http://www.w3.org/1999/xlink">
    <!-- Generator: Sketch 47 (45396) - http://www.bohemiancoding.com/sketch -->
    <title>Group 2</title>
    <desc>Created with Sketch.</desc>
    <defs>
        <polygon id="path-1" points="17.909 17.4761 17.909 0.5221 0.9548 0.5221 0.9548 17.4761 17.909 17.4761"></polygon>
    </defs>
    <g id="Page-5" stroke="none" stroke-width="1" fill="none" fill-rule="evenodd">
        <g id="社区页面" transform="translate(-864.000000, -76.000000)">
            <g id="Group-2" transform="translate(864.000000, 76.000000)">
                <path d="M7.6265,154.2056 L17.8965,156.8066 L20.4975,146.5356 L10.2265,143.9356 L7.6265,154.2056 Z M19.1135,158.8476 L5.5845,155.4226 L9.0095,141.8936 L22.5395,145.3186 L19.1135,158.8476 Z" id="Fill-1" fill="#FFFFFF" opacity="0.3"></path>
                <g id="Group-5" opacity="0.3" transform="translate(368.000000, 112.596000)">
                    <mask id="mask-2" fill="white">
                        <use xlink:href="#path-1"></use>
                    </mask>
                    <g id="Clip-4"></g>
                    <path d="M2.9968,12.8341 L13.2668,15.4351 L15.8678,5.1641 L5.5968,2.5641 L2.9968,12.8341 Z M14.4838,17.4761 L0.9548,14.0511 L4.3798,0.5221 L17.9098,3.9471 L14.4838,17.4761 Z" id="Fill-3" fill="#FFFFFF" mask="url(#mask-2)"></path>
                </g>
                <path d="M295.7934,27.4427 L305.9604,30.4237 L308.9414,20.2577 L298.7744,17.2757 L295.7934,27.4427 Z M307.0994,32.5097 L293.7074,28.5817 L297.6354,15.1897 L311.0274,19.1187 L307.0994,32.5097 Z" id="Fill-6" fill-opacity="0.3" fill="#FFFFFF"></path>
                <g id="Group-13" opacity="0.2" transform="translate(21.000000, 107.596000)" fill="#FFFFFF">
                    <polygon id="Fill-8" points="16.155 12.721 23.468 12.721 23.468 11.04 16.155 11.04"></polygon>
                    <polygon id="Fill-10" points="11.108 7.736 12.789 7.736 12.789 0.423 11.108 0.423"></polygon>
                    <polygon id="Fill-11" points="0.49 12.783 7.803 12.783 7.803 11.102 0.49 11.102"></polygon>
                    <polygon id="Fill-12" points="11.17 23.4 12.851 23.4 12.851 16.087 11.17 16.087"></polygon>
                </g>
                <g id="Group-19" opacity="0.2" transform="translate(330.000000, 116.596000)" fill="#FFFFFF">
                    <polygon id="Fill-14" points="16.371 13.265 23.684 13.265 23.684 11.584 16.371 11.584"></polygon>
                    <polygon id="Fill-16" points="11.325 8.28 13.006 8.28 13.006 0.967 11.325 0.967"></polygon>
                    <polygon id="Fill-17" points="0.707 13.327 8.02 13.327 8.02 11.646 0.707 11.646"></polygon>
                    <polygon id="Fill-18" points="11.386 23.944 13.067 23.944 13.067 16.631 11.386 16.631"></polygon>
                </g>
                <path d="M197.5849,38.6001 C185.5969,44.1911 175.6989,56.4901 170.0559,72.3981 C163.3379,68.5551 160.2849,64.6641 159.3859,63.3511 C168.6449,51.0621 182.0909,42.1001 197.5849,38.6001 L197.5849,38.6001 Z M264.9109,63.3641 C264.0529,64.6801 261.0809,68.6361 254.2729,72.5191 C248.6369,56.5531 238.7209,44.2061 226.7029,38.6001 C242.2019,42.1021 255.6509,51.0691 264.9109,63.3641 L264.9109,63.3641 Z M226.7039,167.4111 C238.6669,161.8301 248.5489,149.5701 254.1979,133.7081 C260.8349,137.4791 263.8489,141.3271 264.8179,142.7691 C255.5619,155.0011 242.1509,163.9211 226.7039,167.4111 L226.7039,167.4111 Z M164.9639,103.8461 C165.0269,111.2241 165.9099,118.3231 167.4989,124.9571 C164.4649,126.1791 162.3159,129.1481 162.3159,132.6141 C162.3159,133.9711 162.6509,135.2491 163.2329,136.3791 C160.7679,138.4141 159.2509,140.2131 158.4209,141.3481 C150.8319,130.7441 146.3029,117.8111 146.1279,103.8461 L164.9639,103.8461 Z M164.9589,102.1661 L146.1279,102.1661 C146.3019,88.2591 150.7929,75.3731 158.3259,64.7941 C159.6459,66.6361 162.9259,70.4491 169.4659,74.1261 C166.6519,82.6531 165.0439,92.1501 164.9589,102.1661 L164.9589,102.1661 Z M180.3289,78.7941 C180.2489,79.2571 180.1979,79.7291 180.1979,80.2151 C180.1979,84.2271 183.0759,87.5761 186.8749,88.3151 C186.5009,92.8181 186.2989,97.4531 186.2769,102.1661 L166.6389,102.1661 C166.7239,92.4401 168.2629,83.2161 170.9579,74.9301 C173.5899,76.2961 176.6869,77.6211 180.3289,78.7941 L180.3289,78.7941 Z M193.6539,55.4291 C191.8019,60.3771 190.2769,65.9631 189.0999,71.9921 C188.8869,71.9751 188.6729,71.9591 188.4549,71.9591 C185.0039,71.9591 182.0459,74.0881 180.8129,77.0991 C177.1919,75.9151 174.1239,74.5791 171.5359,73.2141 C178.0359,54.6401 190.4149,41.0971 205.0959,37.7721 C200.7739,40.8931 196.8459,46.9031 193.6539,55.4291 L193.6539,55.4291 Z M236.3779,79.0941 C235.1299,70.3241 233.1939,62.2691 230.6329,55.4291 C227.4409,46.9031 223.5119,40.8931 219.1909,37.7721 C233.9019,41.1031 246.3009,54.6951 252.7899,73.3281 C248.6639,75.4951 243.2989,77.5781 236.3779,79.0941 L236.3779,79.0941 Z M257.6479,102.1661 L238.0129,102.1661 C237.9789,94.7871 237.5029,87.5981 236.6159,80.8141 C243.6489,79.3111 249.1229,77.2341 253.3659,75.0441 C256.0379,83.3011 257.5639,92.4851 257.6479,102.1661 L257.6479,102.1661 Z M259.3279,102.1661 C259.2429,92.1961 257.6499,82.7391 254.8589,74.2421 C261.4509,70.5481 264.6829,66.6961 265.9779,64.8171 C273.5009,75.3921 277.9849,88.2691 278.1589,102.1661 L259.3279,102.1661 Z M259.3189,103.8461 L278.1589,103.8461 C277.9839,117.7991 273.4629,130.7241 265.8839,141.3231 C264.5259,139.3931 261.2829,135.6111 254.7879,131.9871 C257.6229,123.4351 259.2329,113.9001 259.3189,103.8461 L259.3189,103.8461 Z M236.5849,125.4541 C237.4929,118.5951 237.9769,111.3171 238.0119,103.8461 L257.6389,103.8461 C257.5539,113.6111 256.0109,122.8741 253.2949,131.1861 C249.0589,129.0081 243.5859,126.9481 236.5849,125.4541 L236.5849,125.4541 Z M230.6329,150.5821 C233.1689,143.8081 235.0919,135.8431 236.3419,127.1711 C243.2329,128.6781 248.5939,130.7451 252.7159,132.9011 C246.2079,151.4151 233.8529,164.9031 219.2059,168.2291 C223.5219,165.1041 227.4439,159.0981 230.6329,150.5821 L230.6329,150.5821 Z M178.8279,132.6141 C178.8279,131.6981 178.6719,130.8201 178.3949,129.9961 C181.1949,128.9621 184.3729,128.0161 187.9519,127.2201 C189.2019,135.8731 191.1219,143.8211 193.6539,150.5821 C196.8459,159.1071 200.7729,165.1161 205.0939,168.2381 C192.3609,165.3531 181.3589,154.7841 174.4229,139.9111 C177.0389,138.5251 178.8279,135.7761 178.8279,132.6141 L178.8279,132.6141 Z M203.9309,103.8461 C204.3249,107.7291 207.4209,110.8241 211.3029,111.2191 L211.3029,123.1311 C202.7589,123.1791 195.5039,123.9541 189.3589,125.1701 C188.4669,118.4051 187.9899,111.2231 187.9559,103.8461 L203.9309,103.8461 Z M188.5489,88.4661 C192.3609,88.4231 195.5519,85.7831 196.4499,82.2361 C200.9059,82.7861 205.8429,83.1131 211.3029,83.1441 L211.3029,94.7921 C207.4209,95.1871 204.3249,98.2831 203.9309,102.1661 L187.9569,102.1661 C187.9799,97.5021 188.1789,92.9181 188.5489,88.4661 L188.5489,88.4661 Z M211.3029,81.4631 C205.9309,81.4321 201.0739,81.1031 196.6939,80.5521 C196.6979,80.4391 196.7109,80.3281 196.7109,80.2151 C196.7109,76.4601 194.1899,73.2891 190.7529,72.2911 C191.9099,66.3651 193.4079,60.8771 195.2279,56.0191 C199.5539,44.4641 205.3719,37.6201 211.3029,37.0261 L211.3029,81.4631 Z M212.9839,81.4601 L212.9839,37.0261 C218.9159,37.6201 224.7329,44.4641 229.0589,56.0191 C231.5899,62.7781 233.5009,70.7501 234.7309,79.4391 C228.6719,80.6441 221.4779,81.4111 212.9839,81.4601 L212.9839,81.4601 Z M220.3579,102.1661 C219.9629,98.2821 216.8669,95.1861 212.9839,94.7921 L212.9839,83.1411 C221.5509,83.0941 228.8249,82.3431 234.9659,81.1511 C235.8319,87.8271 236.2979,94.9011 236.3319,102.1661 L220.3579,102.1661 Z M212.9839,123.1281 L212.9839,111.2191 C216.8669,110.8251 219.9629,107.7291 220.3579,103.8461 L236.3309,103.8461 C236.2969,111.2041 235.8219,118.3681 234.9339,125.1181 C228.7979,123.9291 221.5419,123.1751 212.9839,123.1281 L212.9839,123.1281 Z M212.9839,124.8091 C221.4649,124.8571 228.6409,125.6261 234.6949,126.8271 C233.4629,135.4181 231.5649,143.3001 229.0589,149.9931 C224.7329,161.5471 218.9159,168.3911 212.9839,168.9851 L212.9839,124.8091 Z M211.3029,168.9851 C205.3719,168.3911 199.5539,161.5471 195.2279,149.9931 C192.7259,143.3111 190.8299,135.4441 189.5989,126.8711 C195.6599,125.6471 202.8349,124.8611 211.3029,124.8121 L211.3029,168.9851 Z M205.5689,103.0061 C205.5689,102.7211 205.5929,102.4411 205.6289,102.1661 C206.0079,99.2121 208.3499,96.8701 211.3029,96.4901 C211.5799,96.4551 211.8589,96.4301 212.1449,96.4301 C212.4299,96.4301 212.7089,96.4551 212.9839,96.4901 C215.9379,96.8691 218.2799,99.2121 218.6599,102.1661 C218.6949,102.4411 218.7189,102.7211 218.7189,103.0061 C218.7189,103.2911 218.6949,103.5701 218.6599,103.8461 C218.2799,106.8001 215.9379,109.1421 212.9839,109.5211 C212.7089,109.5561 212.4299,109.5811 212.1449,109.5811 C211.8589,109.5811 211.5799,109.5561 211.3029,109.5211 C208.3499,109.1411 206.0079,106.7991 205.6289,103.8461 C205.5929,103.5701 205.5689,103.2911 205.5689,103.0061 L205.5689,103.0061 Z M181.9509,79.2931 C182.0349,78.7021 182.1919,78.1351 182.4219,77.6061 C183.4339,75.2751 185.7559,73.6401 188.4549,73.6401 C188.5669,73.6401 188.6759,73.6511 188.7859,73.6561 C189.3589,73.6851 189.9149,73.7811 190.4399,73.9481 C193.0979,74.7921 195.0299,77.2811 195.0299,80.2151 C195.0299,80.2531 195.0249,80.2901 195.0239,80.3281 C195.0139,80.9131 194.9269,81.4781 194.7729,82.0161 C194.0079,84.6951 191.5859,86.6751 188.6899,86.7781 C188.6109,86.7811 188.5339,86.7901 188.4549,86.7901 C187.9599,86.7901 187.4799,86.7311 187.0169,86.6271 C184.0809,85.9691 181.8789,83.3461 181.8789,80.2151 C181.8789,79.9011 181.9089,79.5951 181.9509,79.2931 L181.9509,79.2931 Z M186.2749,103.8461 C186.3099,111.3371 186.7969,118.6351 187.7089,125.5111 C183.9359,126.3331 180.5969,127.3191 177.6599,128.4021 C176.2179,125.9851 173.5839,124.3581 170.5719,124.3581 C170.0719,124.3581 169.5849,124.4101 169.1089,124.4961 C167.5649,118.0081 166.7069,111.0641 166.6439,103.8461 L186.2749,103.8461 Z M164.5839,135.3161 C164.2099,134.4911 163.9969,133.5781 163.9969,132.6141 C163.9969,129.9361 165.6079,127.6301 167.9109,126.6061 C168.4159,126.3821 168.9539,126.2231 169.5159,126.1321 C169.8599,126.0761 170.2109,126.0391 170.5719,126.0391 C172.8669,126.0391 174.8889,127.2241 176.0659,129.0121 C176.3869,129.4991 176.6439,130.0311 176.8269,130.5971 C177.0329,131.2331 177.1469,131.9101 177.1469,132.6141 C177.1469,135.0951 175.7649,137.2591 173.7299,138.3781 C173.2489,138.6431 172.7279,138.8431 172.1819,138.9811 C171.6659,139.1121 171.1279,139.1891 170.5719,139.1891 C168.5419,139.1891 166.7259,138.2641 165.5189,136.8151 C165.1429,136.3631 164.8299,135.8581 164.5839,135.3161 L164.5839,135.3161 Z M159.4789,142.7821 C160.1119,141.8751 161.5629,140.0341 164.1979,137.8551 C165.7129,139.6951 168.0079,140.8701 170.5719,140.8701 C171.3749,140.8701 172.1489,140.7491 172.8839,140.5341 C178.7219,153.0641 187.3939,162.6561 197.5729,167.4091 C182.1359,163.9181 168.7329,155.0041 159.4789,142.7821 L159.4789,142.7821 Z M212.1439,170.7131 C249.4769,170.7131 279.8509,140.3391 279.8509,103.0061 C279.8509,65.6721 249.4769,35.2981 212.1439,35.2981 C174.8099,35.2981 144.4359,65.6721 144.4359,103.0061 C144.4359,140.3391 174.8099,170.7131 212.1439,170.7131 L212.1439,170.7131 Z" id="Fill-20" fill="#FFFFFF" opacity="0.8"></path>
                <g id="Group-52" opacity="0.6" transform="translate(116.000000, 7.596000)" fill="#FFFFFF">
                    <path d="M83.7388,2.312 L83.5188,0.646 C80.7708,1.009 78.0098,1.497 75.3128,2.096 L75.6778,3.737 C78.3268,3.148 81.0388,2.668 83.7388,2.312" id="Fill-22"></path>
                    <path d="M38.8945,20.9643 L37.8685,19.6323 C35.6765,21.3213 33.5315,23.1263 31.4935,24.9983 L32.6305,26.2363 C34.6325,24.3973 36.7395,22.6233 38.8945,20.9643" id="Fill-24"></path>
                    <path d="M52.6732,12.1465 L51.8932,10.6575 C49.4412,11.9415 47.0162,13.3475 44.6862,14.8385 L45.5912,16.2545 C47.8802,14.7895 50.2632,13.4075 52.6732,12.1465" id="Fill-26"></path>
                    <path d="M67.7725,5.8623 L67.2655,4.2593 C64.6285,5.0943 61.9955,6.0573 59.4395,7.1213 L60.0855,8.6723 C62.5965,7.6273 65.1825,6.6813 67.7725,5.8623" id="Fill-28"></path>
                    <path d="M4.9583,124.1759 C5.7923,126.8199 6.7523,129.4539 7.8103,132.0059 L9.3623,131.3619 C8.3233,128.8549 7.3803,126.2679 6.5613,123.6699 L4.9583,124.1759 Z" id="Fill-30"></path>
                    <path d="M1.3662,107.9163 C1.7242,110.6623 2.2082,113.4233 2.8052,116.1243 L4.4462,115.7613 C3.8602,113.1093 3.3842,110.3963 3.0322,107.6993 L1.3662,107.9163 Z" id="Fill-32"></path>
                    <path d="M75.3922,188.7407 C78.0922,189.3387 80.8542,189.8237 83.5992,190.1837 L83.8182,188.5177 C81.1202,188.1647 78.4082,187.6867 75.7562,187.0997 L75.3922,188.7407 Z" id="Fill-34"></path>
                    <path d="M2.3242,99.543 C2.2642,98.174 2.2342,96.784 2.2352,95.41 C2.2352,94.068 2.2642,92.703 2.3212,91.354 L0.6422,91.283 C0.5842,92.656 0.5542,94.044 0.5542,95.409 C0.5542,96.808 0.5842,98.223 0.6452,99.615 L2.3242,99.543 Z" id="Fill-36"></path>
                    <path d="M59.5114,183.7283 C62.0664,184.7893 64.7024,185.7503 67.3424,186.5843 L67.8484,184.9813 C65.2544,184.1623 62.6664,183.2193 60.1554,182.1763 L59.5114,183.7283 Z" id="Fill-38"></path>
                    <path d="M26.8457,32.0317 L25.6057,30.8977 C23.7367,32.9397 21.9357,35.0887 20.2517,37.2837 L21.5847,38.3067 C23.2397,36.1507 25.0097,34.0387 26.8457,32.0317" id="Fill-40"></path>
                    <path d="M4.4297,75.1337 L2.7887,74.7727 C2.1947,77.4727 1.7127,80.2347 1.3557,82.9817 L3.0227,83.1977 C3.3727,80.4997 3.8457,77.7867 4.4297,75.1337" id="Fill-42"></path>
                    <path d="M11.3369,139.5562 C12.6159,142.0092 14.0199,144.4362 15.5099,146.7702 L16.9269,145.8662 C15.4629,143.5732 14.0839,141.1882 12.8279,138.7792 L11.3369,139.5562 Z" id="Fill-44"></path>
                    <path d="M31.5476,165.8699 C33.5856,167.7399 35.7326,169.5449 37.9276,171.2319 L38.9516,169.8999 C36.7956,168.2419 34.6866,166.4699 32.6836,164.6319 L31.5476,165.8699 Z" id="Fill-46"></path>
                    <path d="M20.2969,153.5935 C21.9829,155.7885 23.7859,157.9365 25.6549,159.9755 L26.8939,158.8405 C25.0579,156.8365 23.2869,154.7265 21.6289,152.5695 L20.2969,153.5935 Z" id="Fill-48"></path>
                    <path d="M9.3333,59.5271 L7.7813,58.8841 C6.7213,61.4461 5.7633,64.0831 4.9353,66.7201 L6.5383,67.2231 C7.3523,64.6331 8.2923,62.0431 9.3333,59.5271" id="Fill-50"></path>
                </g>
                <path d="M307.5053,109.5499 C307.3033,109.5689 307.0993,109.5809 306.8933,109.5809 C306.5283,109.5809 306.1733,109.5439 305.8253,109.4859 C302.7073,108.9739 300.3183,106.2669 300.3183,103.0059 C300.3183,99.7439 302.7083,97.0369 305.8283,96.5249 C306.1753,96.4679 306.5303,96.4309 306.8933,96.4309 C307.1013,96.4309 307.3053,96.4429 307.5083,96.4619 C310.8463,96.7729 313.4693,99.5879 313.4693,103.0059 C313.4693,106.4249 310.8443,109.2399 307.5053,109.5499 M212.1433,14.8319 C208.5183,14.8319 205.5683,11.8819 205.5683,8.2569 C205.5683,4.6309 208.5183,1.6809 212.1433,1.6809 C215.5633,1.6809 218.3773,4.3049 218.6873,7.6449 C218.7063,7.8459 218.7183,8.0499 218.7183,8.2569 C218.7183,8.6209 218.6813,8.9759 218.6243,9.3249 C218.1113,12.4429 215.4053,14.8319 212.1433,14.8319 M307.3753,94.7739 C303.4193,48.6199 266.5303,11.7299 220.3753,7.7749 C220.1233,3.4459 216.5333,-0.0001 212.1433,-0.0001 C207.5913,-0.0001 203.8873,3.7039 203.8873,8.2569 C203.8873,12.8089 207.5913,16.5119 212.1433,16.5119 C216.2873,16.5119 219.7183,13.4399 220.3023,9.4549 C265.5883,13.3709 301.7783,49.5619 305.6953,94.8469 C301.7103,95.4299 298.6373,98.8609 298.6373,103.0059 C298.6373,107.1499 301.7103,110.5809 305.6943,111.1649 C301.5453,159.1399 261.1773,196.9149 212.1443,196.9149 L212.1443,196.9149 C210.7603,196.9149 209.3593,196.8849 207.9803,196.8239 L207.9063,198.5039 C209.3103,198.5649 210.7353,198.5959 212.1443,198.5959 L212.1443,198.5949 C262.0793,198.5949 303.1873,160.1059 307.3753,111.2369 C311.7033,110.9859 315.1493,107.3959 315.1493,103.0059 C315.1493,98.6159 311.7033,95.0259 307.3753,94.7739" id="Fill-53" fill="#FFFFFF" opacity="0.3"></path>
                <path d="M164.7694,191.4139 C161.1434,191.4139 158.1944,188.4649 158.1944,184.8389 C158.1944,181.2139 161.1434,178.2639 164.7694,178.2639 C168.3954,178.2639 171.3454,181.2139 171.3454,184.8389 C171.3454,188.4649 168.3954,191.4139 164.7694,191.4139 M164.7694,176.5829 C160.2174,176.5829 156.5134,180.2859 156.5134,184.8389 C156.5134,189.3909 160.2174,193.0949 164.7694,193.0949 C169.3224,193.0949 173.0254,189.3909 173.0254,184.8389 C173.0254,180.2859 169.3224,176.5829 164.7694,176.5829" id="Fill-56" fill="#FFFFFF"></path>
                <path d="M306.8933,109.6206 C303.2673,109.6206 300.3183,106.6716 300.3183,103.0456 C300.3183,99.4206 303.2673,96.4706 306.8933,96.4706 C310.5193,96.4706 313.4693,99.4206 313.4693,103.0456 C313.4693,106.6716 310.5193,109.6206 306.8933,109.6206 M306.8933,94.7896 C302.3413,94.7896 298.6373,98.4926 298.6373,103.0456 C298.6373,107.5976 302.3413,111.3016 306.8933,111.3016 C311.4463,111.3016 315.1493,107.5976 315.1493,103.0456 C315.1493,98.4926 311.4463,94.7896 306.8933,94.7896" id="Fill-58" fill="#FFFFFF"></path>
                <path d="M130.1316,62.2803 C126.5056,62.2803 123.5566,59.3313 123.5566,55.7053 C123.5566,52.0803 126.5056,49.1303 130.1316,49.1303 C133.7576,49.1303 136.7076,52.0803 136.7076,55.7053 C136.7076,59.3313 133.7576,62.2803 130.1316,62.2803 M130.1316,47.4493 C125.5796,47.4493 121.8756,51.1523 121.8756,55.7053 C121.8756,60.2573 125.5796,63.9613 130.1316,63.9613 C134.6846,63.9613 138.3876,60.2573 138.3876,55.7053 C138.3876,51.1523 134.6846,47.4493 130.1316,47.4493" id="Fill-60" fill="#FFFFFF"></path>
                <polygon id="Fill-62" fill="#FFFFFF" opacity="0.6" points="95.9165 169.225 94.8455 170.52 114.9605 187.152 148.4735 187.152 148.4735 185.471 115.5655 185.471"></polygon>
                <path d="M72.7695,148.9185 L102.2615,148.9185 C102.6245,148.9185 102.9185,149.2135 102.9185,149.5755 C102.9185,149.9385 102.6245,150.2325 102.2615,150.2325 L72.7695,150.2325 C72.4075,150.2325 72.1125,149.9385 72.1125,149.5755 C72.1125,149.2135 72.4075,148.9185 72.7695,148.9185 M72.7695,151.9135 L102.2615,151.9135 C103.5505,151.9135 104.5995,150.8645 104.5995,149.5755 C104.5995,148.2865 103.5505,147.2375 102.2615,147.2375 L72.7695,147.2375 C71.4805,147.2375 70.4315,148.2865 70.4315,149.5755 C70.4315,150.8645 71.4805,151.9135 72.7695,151.9135" id="Fill-64" fill="#FFFFFF" opacity="0.6"></path>
                <path d="M64.762,140.1801 C63.953,140.1801 63.295,139.5211 63.295,138.7121 C63.295,137.9031 63.953,137.2441 64.762,137.2441 C65.572,137.2441 66.23,137.9031 66.23,138.7121 C66.23,139.5211 65.572,140.1801 64.762,140.1801 M64.762,135.5641 C63.026,135.5641 61.614,136.9761 61.614,138.7121 C61.614,140.4481 63.026,141.8611 64.762,141.8611 C66.498,141.8611 67.911,140.4481 67.911,138.7121 C67.911,136.9761 66.498,135.5641 64.762,135.5641" id="Fill-66" fill="#FFFFFF" opacity="0.6"></path>
                <path d="M64.762,151.0438 C63.953,151.0438 63.295,150.3848 63.295,149.5758 C63.295,148.7658 63.953,148.1078 64.762,148.1078 C65.572,148.1078 66.23,148.7658 66.23,149.5758 C66.23,150.3848 65.572,151.0438 64.762,151.0438 M64.762,146.4268 C63.026,146.4268 61.614,147.8398 61.614,149.5758 C61.614,151.3118 63.026,152.7248 64.762,152.7248 C66.498,152.7248 67.911,151.3118 67.911,149.5758 C67.911,147.8398 66.498,146.4268 64.762,146.4268" id="Fill-68" fill="#FFFFFF" opacity="0.6"></path>
                <path d="M64.762,161.8521 C63.953,161.8521 63.295,161.1931 63.295,160.3841 C63.295,159.5751 63.953,158.9161 64.762,158.9161 C65.572,158.9161 66.23,159.5751 66.23,160.3841 C66.23,161.1931 65.572,161.8521 64.762,161.8521 M64.762,157.2361 C63.026,157.2361 61.614,158.6481 61.614,160.3841 C61.614,162.1201 63.026,163.5331 64.762,163.5331 C66.498,163.5331 67.911,162.1201 67.911,160.3841 C67.911,158.6481 66.498,157.2361 64.762,157.2361" id="Fill-70" fill="#FFFFFF" opacity="0.6"></path>
                <path d="M72.7695,138.0555 L102.2615,138.0555 C102.6245,138.0555 102.9185,138.3505 102.9185,138.7115 C102.9185,139.0745 102.6245,139.3695 102.2615,139.3695 L72.7695,139.3695 C72.4075,139.3695 72.1125,139.0745 72.1125,138.7115 C72.1125,138.3505 72.4075,138.0555 72.7695,138.0555 M72.7695,141.0495 L102.2615,141.0495 C103.5505,141.0495 104.5995,140.0005 104.5995,138.7115 C104.5995,137.4225 103.5505,136.3745 102.2615,136.3745 L72.7695,136.3745 C71.4805,136.3745 70.4315,137.4225 70.4315,138.7115 C70.4315,140.0005 71.4805,141.0495 72.7695,141.0495" id="Fill-72" fill="#FFFFFF" opacity="0.6"></path>
                <path d="M72.1123,160.384 C72.1123,160.022 72.4073,159.728 72.7693,159.728 L102.2613,159.728 C102.6243,159.728 102.9183,160.022 102.9183,160.384 C102.9183,160.746 102.6243,161.041 102.2613,161.041 L72.7693,161.041 C72.4073,161.041 72.1123,160.746 72.1123,160.384 M104.5993,160.384 C104.5993,159.095 103.5503,158.047 102.2613,158.047 L72.7693,158.047 C71.4803,158.047 70.4313,159.095 70.4313,160.384 C70.4313,161.673 71.4803,162.722 72.7693,162.722 L102.2613,162.722 C103.5503,162.722 104.5993,161.673 104.5993,160.384" id="Fill-74" fill="#FFFFFF" opacity="0.6"></path>
                <path d="M352.2218,80.9757 C352.2218,82.5207 350.9658,83.7767 349.4208,83.7767 L326.0728,83.7767 L320.3418,89.7407 L320.3418,83.7767 L316.3078,83.7767 C314.7628,83.7767 313.5068,82.5207 313.5068,80.9757 L313.5068,61.5437 C313.5068,59.9987 314.7628,58.7427 316.3078,58.7427 L349.4208,58.7427 C350.9658,58.7427 352.2218,59.9987 352.2218,61.5437 L352.2218,80.9757 Z M349.4208,57.3427 L316.3078,57.3427 C313.9908,57.3427 312.1058,59.2267 312.1058,61.5437 L312.1058,80.9757 C312.1058,83.2927 313.9908,85.1767 316.3078,85.1767 L318.9418,85.1767 L318.9418,93.2197 L326.6688,85.1767 L349.4208,85.1767 C351.7378,85.1767 353.6218,83.2927 353.6218,80.9757 L353.6218,61.5437 C353.6218,59.2267 351.7378,57.3427 349.4208,57.3427 L349.4208,57.3427 Z" id="Fill-76" fill="#FFFFFF"></path>
                <polygon id="Fill-78" fill="#FFFFFF" points="324.9357 70.3657 321.2237 70.3657 321.2237 66.7267 319.6407 66.7267 319.6407 76.1067 321.2237 76.1067 321.2237 71.9117 324.9357 71.9117 324.9357 76.1067 326.5067 76.1067 326.5067 66.7267 324.9357 66.7267"></polygon>
                <path d="M327.6826,66.8222 C327.5016,67.0082 327.4066,67.2412 327.4066,67.4972 C327.4066,67.7452 327.5016,67.9752 327.6826,68.1622 C327.8666,68.3522 328.1026,68.4522 328.3656,68.4522 C328.6266,68.4522 328.8616,68.3552 329.0446,68.1722 C329.2286,67.9882 329.3256,67.7532 329.3256,67.4922 C329.3256,67.2302 329.2276,66.9942 329.0456,66.8142 C328.6806,66.4452 328.0516,66.4432 327.6826,66.8222" id="Fill-80" fill="#FFFFFF"></path>
                <polygon id="Fill-82" fill="#FFFFFF" points="327.643 76.107 329.089 76.107 329.089 69.674 327.643 69.674"></polygon>
                <polygon id="Fill-84" fill="#FFFFFF" points="331.5454 75.6926 332.6894 76.1836 334.0834 73.5776 332.7064 72.9316"></polygon>
                <path d="M338.5401,66.1425 C338.8151,66.1425 339.0601,66.0415 339.2521,65.8505 C339.4421,65.6595 339.5421,65.4165 339.5421,65.1505 C339.5421,64.8845 339.4431,64.6415 339.2551,64.4465 C338.8731,64.0555 338.2261,64.0525 337.8321,64.4435 C337.6391,64.6385 337.5361,64.8825 337.5361,65.1505 C337.5361,65.4165 337.6371,65.6595 337.8281,65.8515 C338.0191,66.0415 338.2651,66.1425 338.5401,66.1425" id="Fill-85" fill="#FFFFFF"></path>
                <path d="M343.2686,66.1425 C343.5436,66.1425 343.7886,66.0415 343.9806,65.8505 C344.1706,65.6595 344.2706,65.4165 344.2706,65.1505 C344.2706,64.8815 344.1686,64.6375 343.9746,64.4435 C343.5876,64.0555 342.9426,64.0555 342.5556,64.4375 C342.3656,64.6285 342.2646,64.8745 342.2646,65.1505 C342.2646,65.4255 342.3666,65.6715 342.5606,65.8615 C342.7516,66.0455 342.9966,66.1425 343.2686,66.1425" id="Fill-86" fill="#FFFFFF"></path>
                <polygon id="Fill-87" fill="#FFFFFF" points="340.279 70.093 341.627 70.093 341.627 66.5 340.279 66.5"></polygon>
                <path d="M338.2221,72.1231 L343.7831,72.1231 L343.7831,72.3231 C343.7831,73.2241 343.7371,73.9101 343.6451,74.3641 C343.5581,74.7921 343.3941,75.1511 343.1481,75.4631 C342.9031,75.7691 342.5871,76.0091 342.2101,76.1761 C341.4391,76.5161 340.4141,76.5041 339.7131,76.2111 C339.3691,76.0661 339.0721,75.8541 338.8321,75.5801 C338.5951,75.3091 338.4351,74.9891 338.3551,74.6271 C338.2661,74.2351 338.2221,73.5761 338.2221,72.6691 L338.2221,72.1231 Z M336.7871,73.5001 C336.7871,74.5781 336.9501,75.3921 337.2861,75.9871 C337.6201,76.5811 338.1201,77.0561 338.7721,77.3991 C339.4131,77.7371 340.1071,77.9091 340.8361,77.9091 C341.5511,77.9091 342.1891,77.7991 342.7301,77.5811 C343.2811,77.3621 343.7531,77.0421 344.1361,76.6321 C344.5191,76.2201 344.8041,75.7271 344.9801,75.1651 C345.1541,74.6121 345.2391,73.7851 345.2391,72.6371 L345.2391,70.6771 L336.7871,70.6771 L336.7871,73.5001 Z" id="Fill-88" fill="#FFFFFF"></path>
                <path d="M33.82,58.949 L49.529,58.949 L49.529,43.24 L33.82,43.24 L33.82,58.949 Z M32.139,60.63 L51.209,60.63 L51.209,41.56 L32.139,41.56 L32.139,60.63 Z" id="Fill-90" fill="#FFFFFF" opacity="0.4"></path>
                <path d="M12.212,27.04 L13.893,27.04 L13.893,25.642 L12.212,25.642 L12.212,27.04 Z M13.081,39.055 L12.212,39.055 L12.212,32.642 L13.893,32.642 L13.893,38.215 L13.067,38.215 L13.081,39.055 Z M18.683,39.055 L24.285,39.055 L24.285,37.374 L18.683,37.374 L18.683,39.055 Z" id="Fill-91" fill="#A7BFED" opacity="0.4"></path>
                <polygon id="Fill-92" fill="#A7BFED" points="24.2849 47.6035 2.9989 47.6035 2.9989 35.5575 4.6789 35.5575 4.6789 45.9225 24.2849 45.9225"></polygon>
                <polygon id="Fill-93" fill="#A7BFED" points="13.893 76.5472 12.212 76.5472 12.212 63.1352 24.285 63.1352 24.285 64.8162 13.893 64.8162"></polygon>
                <path d="M7.479,56.267 L13.081,56.267 L13.081,54.586 L7.479,54.586 L7.479,56.267 Z M18.683,56.267 L24.285,56.267 L24.285,54.586 L18.683,54.586 L18.683,56.267 Z M2.998,62.99 L4.679,62.99 L4.679,57.388 L2.998,57.388 L2.998,62.99 Z" id="Fill-94" fill="#A7BFED" opacity="0.4"></path>
                <path d="M13.0526,20.4863 C11.8626,20.4863 10.8946,21.4543 10.8946,22.6443 C10.8946,23.8343 11.8626,24.8023 13.0526,24.8023 C14.2426,24.8023 15.2106,23.8343 15.2106,22.6443 C15.2106,21.4543 14.2426,20.4863 13.0526,20.4863 M13.0526,26.4823 C10.9366,26.4823 9.2136,24.7603 9.2136,22.6443 C9.2136,20.5283 10.9366,18.8053 13.0526,18.8053 C15.1686,18.8053 16.8916,20.5283 16.8916,22.6443 C16.8916,24.7603 15.1686,26.4823 13.0526,26.4823" id="Fill-95" fill="#A7BFED"></path>
                <path d="M3.8389,30.4009 C2.6489,30.4009 1.6809,31.3689 1.6809,32.5589 C1.6809,33.7489 2.6489,34.7169 3.8389,34.7169 C5.0289,34.7169 5.9969,33.7489 5.9969,32.5589 C5.9969,31.3689 5.0289,30.4009 3.8389,30.4009 M3.8389,36.3979 C1.7229,36.3979 -0.0001,34.6759 -0.0001,32.5589 C-0.0001,30.4429 1.7229,28.7199 3.8389,28.7199 C5.9549,28.7199 7.6779,30.4429 7.6779,32.5589 C7.6779,34.6759 5.9549,36.3979 3.8389,36.3979" id="Fill-96" fill="#A7BFED"></path>
                <polygon id="Fill-97" fill="#A7BFED" points="71.1362 38.9103 59.0632 38.9103 59.0632 37.2293 69.4552 37.2293 69.4552 25.4983 71.1362 25.4983"></polygon>
                <path d="M78.669,44.658 L80.35,44.658 L80.35,39.056 L78.669,39.056 L78.669,44.658 Z M59.063,47.459 L64.665,47.459 L64.665,45.778 L59.063,45.778 L59.063,47.459 Z M70.267,47.459 L75.869,47.459 L75.869,45.778 L70.267,45.778 L70.267,47.459 Z" id="Fill-98" fill="#A7BFED" opacity="0.4"></path>
                <path d="M70.2958,20.342 C69.1058,20.342 68.1378,21.31 68.1378,22.499 C68.1378,23.689 69.1058,24.658 70.2958,24.658 C71.4858,24.658 72.4538,23.689 72.4538,22.499 C72.4538,21.31 71.4858,20.342 70.2958,20.342 M70.2958,26.338 C68.1798,26.338 66.4568,24.616 66.4568,22.499 C66.4568,20.383 68.1798,18.661 70.2958,18.661 C72.4118,18.661 74.1348,20.383 74.1348,22.499 C74.1348,24.616 72.4118,26.338 70.2958,26.338" id="Fill-99" fill="#A7BFED"></path>
                <path d="M79.5094,30.2566 C78.3194,30.2566 77.3514,31.2246 77.3514,32.4146 C77.3514,33.6046 78.3194,34.5726 79.5094,34.5726 C80.6994,34.5726 81.6674,33.6046 81.6674,32.4146 C81.6674,31.2246 80.6994,30.2566 79.5094,30.2566 M79.5094,36.2536 C77.3934,36.2536 75.6704,34.5316 75.6704,32.4146 C75.6704,30.2986 77.3934,28.5756 79.5094,28.5756 C81.6254,28.5756 83.3484,30.2986 83.3484,32.4146 C83.3484,34.5316 81.6254,36.2536 79.5094,36.2536" id="Fill-100" fill="#A7BFED"></path>
                <path d="M3.8389,67.473 C2.6489,67.473 1.6809,68.441 1.6809,69.631 C1.6809,70.821 2.6489,71.789 3.8389,71.789 C5.0289,71.789 5.9969,70.821 5.9969,69.631 C5.9969,68.441 5.0289,67.473 3.8389,67.473 M3.8389,73.469 C1.7229,73.469 -0.0001,71.748 -0.0001,69.631 C-0.0001,67.515 1.7229,65.792 3.8389,65.792 C5.9549,65.792 7.6779,67.515 7.6779,69.631 C7.6779,71.748 5.9549,73.469 3.8389,73.469" id="Fill-101" fill="#A7BFED"></path>
                <path d="M13.0526,77.3876 C11.8626,77.3876 10.8946,78.3556 10.8946,79.5456 C10.8946,80.7356 11.8626,81.7036 13.0526,81.7036 C14.2426,81.7036 15.2106,80.7356 15.2106,79.5456 C15.2106,78.3556 14.2426,77.3876 13.0526,77.3876 M13.0526,83.3846 C10.9366,83.3846 9.2136,81.6626 9.2136,79.5456 C9.2136,77.4296 10.9366,75.7066 13.0526,75.7066 C15.1686,75.7066 16.8916,77.4296 16.8916,79.5456 C16.8916,81.6626 15.1686,83.3846 13.0526,83.3846" id="Fill-102" fill="#A7BFED"></path>
                <polygon id="Fill-103" fill="#A7BFED" points="37.332 33.706 39.013 33.706 39.013 26.738 37.332 26.738"></polygon>
                <polygon id="Fill-104" fill="#A7BFED" points="30.329 33.706 32.01 33.706 32.01 26.738 30.329 26.738"></polygon>
                <polygon id="Fill-105" fill="#A7BFED" points="51.338 33.706 53.019 33.706 53.019 26.738 51.338 26.738"></polygon>
                <polygon id="Fill-106" fill="#A7BFED" points="44.335 33.706 46.016 33.706 46.016 26.738 44.335 26.738"></polygon>
                <polygon id="Fill-107" fill="#A7BFED" points="37.332 75.452 39.013 75.452 39.013 68.484 37.332 68.484"></polygon>
                <polygon id="Fill-108" fill="#A7BFED" points="30.329 75.452 32.01 75.452 32.01 68.484 30.329 68.484"></polygon>
                <polygon id="Fill-109" fill="#A7BFED" points="51.338 75.452 53.019 75.452 53.019 68.484 51.338 68.484"></polygon>
                <polygon id="Fill-110" fill="#A7BFED" points="44.335 75.452 46.016 75.452 46.016 68.484 44.335 68.484"></polygon>
                <polygon id="Fill-111" fill="#A7BFED" points="71.1362 76.5472 69.4552 76.5472 69.4552 64.8162 59.0632 64.8162 59.0632 63.1352 71.1362 63.1352"></polygon>
                <polygon id="Fill-112" fill="#FFFFFF" points="85.3129 68.4953 80.3259 56.2673 59.0639 56.2673 59.0639 54.5863 81.4559 54.5863 85.2089 63.7893 92.4329 43.5503 98.9089 59.4173 102.9389 54.5863 122.3869 54.5863 122.3869 56.2673 103.7249 56.2673 98.4099 62.6413 92.5379 48.2553"></polygon>
                <path d="M70.2958,77.3876 C69.1058,77.3876 68.1378,78.3556 68.1378,79.5456 C68.1378,80.7356 69.1058,81.7036 70.2958,81.7036 C71.4858,81.7036 72.4538,80.7356 72.4538,79.5456 C72.4538,78.3556 71.4858,77.3876 70.2958,77.3876 M70.2958,83.3846 C68.1798,83.3846 66.4568,81.6626 66.4568,79.5456 C66.4568,77.4296 68.1798,75.7066 70.2958,75.7066 C72.4118,75.7066 74.1348,77.4296 74.1348,79.5456 C74.1348,81.6626 72.4118,83.3846 70.2958,83.3846" id="Fill-113" fill="#A7BFED"></path>
                <path d="M25.125,67.644 L58.223,67.644 L58.223,34.546 L25.125,34.546 L25.125,67.644 Z M23.445,69.325 L59.904,69.325 L59.904,32.866 L23.445,32.866 L23.445,69.325 Z" id="Fill-89" fill="#FFFFFF" opacity="0.8"></path>
            </g>
        </g>
    </g>
</svg>