<?xml version="1.0" encoding="utf-8"?>
<!-- Generator: Adobe Illustrator 17.0.0, SVG Export Plug-In . SVG Version: 6.00 Build 0)  -->
<!DOCTYPE svg PUBLIC "-//W3C//DTD SVG 1.1//EN" "http://www.w3.org/Graphics/SVG/1.1/DTD/svg11.dtd">
<svg version="1.1" id="图层_1" xmlns="http://www.w3.org/2000/svg" xmlns:xlink="http://www.w3.org/1999/xlink" x="0px" y="0px"
	 width="630.829px" height="189.94px" viewBox="0 0 630.829 189.94" enable-background="new 0 0 630.829 189.94"
	 xml:space="preserve">
<g>
	<g>
		<path fill="#FFFFFF" d="M169.017,129.196h-25.042v-2.2h25.042c15.074,0,27.337-12.263,27.337-27.336s-12.263-27.336-27.337-27.336
			c-0.8,0-1.616,0.039-2.495,0.119l-1.226,0.111l0.039-1.65c0.007-0.213,0.015-0.426,0.015-0.641
			c0-26.062-21.203-47.266-47.266-47.266c-18.029,0-34.746,10.498-42.589,26.743l-0.45,0.932l-0.958-0.392
			c-3.457-1.417-7.109-2.135-10.857-2.135c-15.322,0-27.895,11.979-28.622,27.272l-0.047,0.993l-0.993,0.053
			c-13.408,0.719-23.91,11.809-23.91,25.247c0,13.943,11.343,25.286,25.286,25.286H64.21v2.2H34.945
			c-15.156,0-27.486-12.331-27.486-27.486c0-14.28,10.909-26.12,25.014-27.375c1.26-15.999,14.586-28.391,30.758-28.391
			c3.692,0,7.299,0.647,10.736,1.926c8.386-16.481,25.589-27.074,44.118-27.074c27.242,0,49.412,22.137,49.466,49.366
			c0.499-0.026,0.985-0.039,1.467-0.039c16.287,0,29.537,13.25,29.537,29.537S185.304,129.196,169.017,129.196z"/>
	</g>
	<g opacity="0.4">
		<path fill="#FFFFFF" d="M9.768,89.85c-1.234-3.153-1.859-6.483-1.859-9.898c0-14.979,12.186-27.165,27.165-27.165
			c0.411,0,0.827,0.01,1.253,0.031C36.428,27.853,56.77,7.575,81.759,7.575c12.227,0,23.697,4.787,32.296,13.48l-1.563,1.547
			C104.308,14.33,93.393,9.775,81.759,9.775c-23.838,0-43.232,19.394-43.232,43.232c0,0.196,0.007,0.391,0.014,0.586l0.039,1.614
			l-1.226-0.11c-0.807-0.073-1.552-0.108-2.279-0.108c-13.766,0-24.965,11.199-24.965,24.965c0,3.139,0.575,6.199,1.708,9.096
			L9.768,89.85z"/>
	</g>
	<g>
		<path fill="#FFFFFF" d="M120.337,76.622c-5.925,0-10.746-4.821-10.746-10.746s4.821-10.746,10.746-10.746
			s10.746,4.82,10.746,10.746S126.262,76.622,120.337,76.622z M120.337,57.33c-4.712,0-8.546,3.833-8.546,8.545
			c0,4.712,3.833,8.546,8.546,8.546c4.712,0,8.545-3.833,8.545-8.546C128.882,61.164,125.049,57.33,120.337,57.33z"/>
	</g>
	<g>
		<path fill="#FFFFFF" d="M66.577,101.397c-5.925,0-10.746-4.821-10.746-10.746s4.821-10.746,10.746-10.746
			s10.746,4.82,10.746,10.746S72.503,101.397,66.577,101.397z M66.577,82.105c-4.712,0-8.546,3.833-8.546,8.545
			c0,4.712,3.833,8.546,8.546,8.546c4.712,0,8.545-3.833,8.545-8.546C75.123,85.939,71.289,82.105,66.577,82.105z"/>
	</g>
	<g>
		<path fill="#FFFFFF" d="M98.262,101.397c-5.925,0-10.746-4.821-10.746-10.746s4.82-10.746,10.746-10.746
			s10.746,4.82,10.746,10.746S104.187,101.397,98.262,101.397z M98.262,82.105c-4.712,0-8.545,3.833-8.545,8.545
			c0,4.712,3.833,8.546,8.545,8.546c4.712,0,8.546-3.833,8.546-8.546C106.808,85.939,102.974,82.105,98.262,82.105z"/>
	</g>
	<g>
		<path fill="#FFFFFF" d="M120.337,125.965c-5.925,0-10.746-4.821-10.746-10.746s4.821-10.746,10.746-10.746
			s10.746,4.821,10.746,10.746S126.262,125.965,120.337,125.965z M120.337,106.673c-4.712,0-8.546,3.833-8.546,8.546
			s3.833,8.546,8.546,8.546c4.712,0,8.545-3.833,8.545-8.546S125.049,106.673,120.337,106.673z"/>
	</g>
	<g>
		<path fill="#FFFFFF" d="M57.012,173.095c-5.925,0-10.746-4.821-10.746-10.746s4.82-10.746,10.746-10.746
			s10.746,4.821,10.746,10.746S62.937,173.095,57.012,173.095z M57.012,153.803c-4.712,0-8.545,3.833-8.545,8.546
			s3.833,8.546,8.545,8.546c4.712,0,8.546-3.833,8.546-8.546S61.724,153.803,57.012,153.803z"/>
	</g>
	<g>
		<path fill="#FFFFFF" d="M142.411,101.397c-5.925,0-10.746-4.821-10.746-10.746s4.821-10.746,10.746-10.746
			s10.746,4.82,10.746,10.746S148.336,101.397,142.411,101.397z M142.411,82.105c-4.712,0-8.546,3.833-8.546,8.545
			c0,4.712,3.833,8.546,8.546,8.546c4.712,0,8.545-3.833,8.545-8.546C150.956,85.939,147.123,82.105,142.411,82.105z"/>
	</g>
	<g>
		<path fill="#FFFFFF" d="M120.337,173.095c-5.925,0-10.746-4.821-10.746-10.746s4.821-10.746,10.746-10.746
			s10.746,4.821,10.746,10.746S126.262,173.095,120.337,173.095z M120.337,153.803c-4.712,0-8.546,3.833-8.546,8.546
			s3.833,8.546,8.546,8.546c4.712,0,8.545-3.833,8.545-8.546S125.049,153.803,120.337,153.803z"/>
	</g>
	<g opacity="0.4">
		<path fill="#FFFFFF" d="M398.062,59.445c-2.612,0-4.737-2.125-4.737-4.737c0-2.612,2.125-4.737,4.737-4.737
			c2.612,0,4.737,2.125,4.737,4.737C402.799,57.32,400.674,59.445,398.062,59.445z M398.062,51.571c-1.73,0-3.137,1.408-3.137,3.138
			s1.407,3.137,3.137,3.137s3.138-1.407,3.138-3.137S399.792,51.571,398.062,51.571z"/>
	</g>
	<g opacity="0.4">
		<path fill="#FFFFFF" d="M415.772,59.445c-2.612,0-4.737-2.125-4.737-4.737c0-2.612,2.125-4.737,4.737-4.737
			c2.612,0,4.737,2.125,4.737,4.737C420.51,57.32,418.385,59.445,415.772,59.445z M415.772,51.571c-1.73,0-3.137,1.408-3.137,3.138
			s1.407,3.137,3.137,3.137s3.138-1.407,3.138-3.137S417.502,51.571,415.772,51.571z"/>
	</g>
	<g opacity="0.4">
		<path fill="#FFFFFF" d="M415.773,78.459c-2.612,0-4.737-2.125-4.737-4.737s2.125-4.737,4.737-4.737
			c2.612,0,4.737,2.125,4.737,4.737S418.385,78.459,415.773,78.459z M415.773,70.585c-1.73,0-3.138,1.407-3.138,3.137
			s1.408,3.137,3.138,3.137s3.137-1.407,3.137-3.137S417.503,70.585,415.773,70.585z"/>
	</g>
	<g opacity="0.4">
		<path fill="#FFFFFF" d="M415.773,95.196c-2.612,0-4.737-2.125-4.737-4.737c0-2.612,2.125-4.737,4.737-4.737
			c2.612,0,4.737,2.125,4.737,4.737C420.51,93.071,418.385,95.196,415.773,95.196z M415.773,87.321c-1.73,0-3.138,1.408-3.138,3.138
			s1.408,3.137,3.138,3.137s3.137-1.407,3.137-3.137S417.503,87.321,415.773,87.321z"/>
	</g>
	<g opacity="0.4">
		<path fill="#FFFFFF" d="M431.526,95.196c-2.612,0-4.737-2.125-4.737-4.737c0-2.612,2.125-4.737,4.737-4.737
			s4.737,2.125,4.737,4.737C436.263,93.071,434.138,95.196,431.526,95.196z M431.526,87.321c-1.73,0-3.137,1.408-3.137,3.138
			s1.407,3.137,3.137,3.137s3.137-1.407,3.137-3.137S433.256,87.321,431.526,87.321z"/>
	</g>
	<g opacity="0.6">
		<rect x="107.908" y="89.551" fill="#FFFFFF" width="24.857" height="2.2"/>
	</g>
	<g opacity="0.6">
		<rect x="97.162" y="100.297" fill="#FFFFFF" width="2.2" height="62.052"/>
	</g>
	<g opacity="0.6">
		<rect x="66.658" y="161.249" fill="#FFFFFF" width="31.604" height="2.2"/>
	</g>
	<g opacity="0.6">
		<polygon fill="#FFFFFF" points="233.364,182.365 32.149,182.365 32.149,141.918 83.594,141.918 83.594,112.219 71.648,100.274 
			73.203,98.718 85.794,111.308 85.794,144.118 34.349,144.118 34.349,180.165 231.163,180.165 231.163,61.192 253.809,61.192 
			253.809,63.392 233.364,63.392 		"/>
	</g>
	<g opacity="0.6">
		<rect x="119.237" y="124.865" fill="#FFFFFF" width="2.2" height="18.153"/>
	</g>
	<g opacity="0.6">
		<rect x="120.337" y="141.918" fill="#FFFFFF" width="92.797" height="2.2"/>
	</g>
	<g opacity="0.6">
		<polygon fill="#FFFFFF" points="173.819,163.449 129.982,163.449 129.982,161.249 193.111,161.249 212.047,160.939 212.034,45.4 
			253.01,45.4 253.01,47.6 214.234,47.6 214.247,163.103 193.129,163.449 		"/>
	</g>
	<g opacity="0.8">
		<path fill="#FFFFFF" d="M463.118,181.956h-22.481V32.451h22.481V181.956z M442.236,180.357h19.282V34.051h-19.282V180.357z"/>
	</g>
	<g opacity="0.8">
		<rect x="441.968" y="72.556" fill="#FFFFFF" width="20.124" height="1.6"/>
	</g>
	<g opacity="0.8">
		<rect x="441.968" y="128.385" fill="#FFFFFF" width="20.124" height="1.6"/>
	</g>
	<g opacity="0.5">
		<circle fill="#FFFFFF" cx="451.656" cy="149.198" r="4.487"/>
	</g>
	<g opacity="0.5">
		<circle fill="#FFFFFF" cx="451.656" cy="166.26" r="4.487"/>
	</g>
	<g opacity="0.4">
		<polygon fill="#FFFFFF" points="462.852,164.753 461.784,163.562 468.628,157.432 468.628,56.976 461.784,50.847 462.852,49.656 
			470.228,56.262 470.228,158.147 		"/>
	</g>
	<g opacity="0.8">
		<g>
			<g>
				<g>
					<path fill="#FFFFFF" d="M600.655,133.429l-0.437-1.234c-0.346-0.978-0.48-1.941-0.398-2.864
						c0.569-6.503,6.152-9.425,10.761-9.95c1.343-0.152,2.793-0.152,4.196,0.001l-0.131,1.193c-1.315-0.145-2.675-0.146-3.93-0.002
						c-4.158,0.474-9.195,3.08-9.701,8.863c-0.03,0.339-0.023,0.688,0.02,1.042c2.4-3.437,6.059-5.777,10.23-6.5
						c3.804-0.656,7.634,0.077,10.897,2.072c-0.165-3.076-2.911-4.446-5.208-5.055l0.307-1.16c3.863,1.024,6.032,3.277,6.107,6.344
						c0.009,0.356-0.02,0.71-0.084,1.05l-0.174,0.916l-0.762-0.537c-3.181-2.242-7.046-3.11-10.879-2.447
						c-4.295,0.744-8,3.343-10.166,7.131L600.655,133.429z"/>
				</g>
				<g>
					<path fill="#FFFFFF" d="M604.976,138.226l-0.733-0.628c-1.984-1.701-3.377-3.57-4.024-5.404l-0.092-0.259l0.137-0.239
						c2.344-4.1,6.354-6.913,11.002-7.718c4.127-0.714,8.359,0.24,11.775,2.649l0.315,0.222l-0.071,0.379
						c-0.297,1.569-1.34,2.64-2.349,3.676c-0.344,0.353-0.695,0.713-1.029,1.104l-0.353,0.413l-0.446-0.31
						c-1.947-1.356-4.346-1.893-6.691-1.485c-3.497,0.605-6.324,3.221-7.202,6.664L604.976,138.226z M601.446,132.051
						c0.531,1.341,1.52,2.713,2.89,4.016c1.234-3.438,4.234-5.992,7.876-6.623c2.478-0.427,5.02,0.07,7.135,1.389
						c0.242-0.264,0.488-0.517,0.73-0.765c0.864-0.887,1.622-1.667,1.937-2.69c-3.092-2.056-6.864-2.854-10.543-2.217
						C607.267,125.888,603.628,128.393,601.446,132.051z"/>
				</g>
			</g>
			<g>
				<path fill="#FFFFFF" d="M606.769,139.581c-0.896-0.562-1.746-1.186-2.526-1.854c-1.984-1.701-3.376-3.57-4.024-5.405
					c-0.346-0.977-0.48-1.94-0.398-2.863c0.541-6.176,5.794-9.512,10.761-10.079l0.137,1.192c-4.482,0.511-9.221,3.49-9.702,8.992
					c-0.066,0.751,0.046,1.544,0.334,2.358c0.579,1.637,1.85,3.329,3.675,4.894c0.735,0.63,1.536,1.218,2.382,1.749L606.769,139.581
					z"/>
			</g>
			<g>
				<path fill="#FFFFFF" d="M613.874,142.091c-1.629,0-3.589-0.646-5.303-1.499l0.533-1.074c3.052,1.515,5.757,1.806,6.577,0.703
					c0.98-1.314,1.129-2.539,1.286-3.834c0.14-1.155,0.284-2.349,1.013-3.613c0.268-0.466,0.599-0.929,1.014-1.415
					c0.352-0.412,0.721-0.792,1.082-1.163c0.966-0.991,1.8-1.848,2.028-3.061c0.05-0.261,0.07-0.521,0.064-0.798l1.199-0.028
					c0.009,0.357-0.02,0.71-0.084,1.05c-0.297,1.568-1.339,2.639-2.348,3.675c-0.344,0.353-0.695,0.713-1.03,1.105
					c-0.37,0.435-0.652,0.826-0.886,1.233c-0.606,1.053-0.73,2.077-0.862,3.16c-0.169,1.395-0.344,2.837-1.514,4.407
					C616.032,141.761,615.037,142.091,613.874,142.091z"/>
			</g>
		</g>
		<g>
			<path fill="#FFFFFF" d="M607.411,143.077l-0.967-0.71c1.142-1.557,1.687-2.514,1.906-3.017c-0.722,0.238-2.085,0.929-3.226,1.507
				c-0.755,0.383-1.56,0.791-2.368,1.176l-0.074,0.055l-0.652-1.008l0.143-0.092c0.867-0.418,1.663-0.822,2.41-1.201
				c3.08-1.561,4.178-2.073,4.816-1.497C609.865,138.707,610.094,139.42,607.411,143.077z"/>
		</g>
		<g>
			<path fill="#FFFFFF" d="M616.273,122.388c-0.832,0-1.391-1.047-2.575-3.417c-0.217-0.433-0.443-0.887-0.68-1.343l-0.349-0.673
				l0.736-0.185c2.005-0.502,3.564-0.934,3.564-0.934l0.639-0.177l0.201,1.165l-0.002,0.06c-0.15,5.435-1.056,5.481-1.49,5.503
				L616.273,122.388z M614.427,117.748c0.117,0.232,0.232,0.461,0.344,0.685c0.44,0.881,1.011,2.023,1.386,2.533
				c0.212-0.712,0.384-2.323,0.44-3.786C616.084,117.318,615.322,117.52,614.427,117.748z"/>
		</g>
		<g>
			<path fill="#FFFFFF" d="M551.595,104.69l-0.205-0.002c-1.383-0.019-3.98-0.236-8.513-1.161l-1.102-0.225l0.8-0.79
				c10.564-10.431,28.589-17.086,28.77-17.152l0.169-0.062l18.172,4.283l-4.706,0.104c-9.247,0.204-20.424,5.211-33.221,14.881
				L551.595,104.69z M544.243,102.575c3.546,0.68,5.708,0.876,6.959,0.909c11.258-8.481,21.319-13.403,29.979-14.674l-9.59-2.26
				C569.806,87.224,554.152,93.305,544.243,102.575z"/>
		</g>
		<g>
			<path fill="#FFFFFF" d="M584.706,153.122c-1.136,0-2.289-0.048-3.475-0.132c-7.564-0.534-15.803-3.771-23.197-9.115
				c-9.045-6.537-16.424-16.027-21.337-27.444l-0.165-0.383l0.301-0.288c3.207-3.071,8.274-7.671,14.203-12.151l0.723,0.957
				c-5.698,4.307-10.599,8.729-13.794,11.772c7.319,16.703,23.487,34.052,43.351,35.454c8.315,0.589,14.988-0.626,25.775-8.548
				c-5.153-0.538-9.528-2.708-12.726-6.331c-4.284-4.855-6.157-11.865-5.417-20.271l0.063-0.724l0.699,0.2
				c11.409,3.266,19.847,1.843,27.236-0.276c-1.038-3.845-8.25-26.687-31.968-26.157l-0.027-1.2c0.28-0.006,0.558-0.009,0.833-0.009
				c26.073,0,32.411,27.372,32.473,27.651l0.121,0.547l-0.538,0.158c-7.544,2.213-16.123,3.809-27.755,0.637
				c-0.545,7.749,1.24,14.187,5.18,18.651c3.306,3.747,7.974,5.835,13.499,6.04l1.676,0.062l-1.335,1.015
				C598.824,151.055,592.127,153.122,584.706,153.122z"/>
		</g>
		<g>
			<path fill="#FFFFFF" d="M531.291,123.131l0.054-1.619c0.009-0.258,0.243-6.393,2.97-11.854l0.646-1.292l0.46,1.369
				c0.708,2.105,1.509,4.199,2.379,6.222l0.165,0.383l-0.301,0.288c-3.276,3.136-5.257,5.289-5.276,5.31L531.291,123.131z
				 M534.775,111.537c-1.323,3.168-1.868,6.434-2.088,8.341c0.866-0.896,2.181-2.227,3.847-3.83
				C535.908,114.572,535.319,113.061,534.775,111.537z"/>
		</g>
		<g>
			<path fill="#FFFFFF" d="M557.77,131.115l0.12-0.82c1.553-10.599,7.814-17.135,8.08-17.408l0.3-0.308l17.107,8.141l-0.945,0.578
				c-0.126,0.078-12.778,7.756-23.846,9.676L557.77,131.115z M566.544,114.039c-1.202,1.37-5.854,7.119-7.333,15.597
				c8.876-1.757,18.583-7.046,21.628-8.795L566.544,114.039z"/>
		</g>
		<g>
			<path fill="#FFFFFF" d="M597.556,113.488c-3.073,0-5.573-2.5-5.573-5.574s2.5-5.574,5.573-5.574c3.074,0,5.574,2.5,5.574,5.574
				S600.63,113.488,597.556,113.488z M597.556,103.539c-2.412,0-4.374,1.962-4.374,4.374s1.962,4.374,4.374,4.374
				s4.375-1.962,4.375-4.374S599.968,103.539,597.556,103.539z"/>
		</g>
		<g>
			<path fill="#FFFFFF" d="M571.641,120.202c-3.514-0.501-7.049-3.253-7.198-3.371l0.741-0.944c0.034,0.027,3.436,2.671,6.627,3.127
				L571.641,120.202z"/>
		</g>
		<g>
			<path fill="#FFFFFF" d="M568.984,122.741c-3.758-0.394-7.444-1.492-7.6-1.538l0.346-1.149c0.036,0.011,3.736,1.113,7.379,1.494
				L568.984,122.741z"/>
		</g>
		<g>
			<path fill="#FFFFFF" d="M560.025,126.252c-0.221,0-0.356-0.002-0.386-0.003l0.023-1.2c0.045,0.003,4.644,0.081,8.135-0.874
				l0.316,1.157C565.017,126.179,561.236,126.252,560.025,126.252z"/>
		</g>
		<g>
			<path fill="#FFFFFF" d="M598.172,105.467c-1.41,0-2.554,1.095-2.554,2.446s1.144,2.446,2.554,2.446
				c1.411,0,2.554-1.095,2.554-2.446S599.582,105.467,598.172,105.467z M598.712,108.5c-0.501,0-0.908-0.406-0.908-0.908
				s0.406-0.908,0.908-0.908c0.501,0,0.908,0.406,0.908,0.908S599.213,108.5,598.712,108.5z"/>
		</g>
	</g>
	<g opacity="0.8">
		<rect x="479.862" y="105.891" fill="#FFFFFF" width="20.994" height="1.4"/>
	</g>
	<g opacity="0.8">
		<rect x="503.921" y="105.891" fill="#FFFFFF" width="3.979" height="1.4"/>
	</g>
	<g opacity="0.8">
		
			<rect x="492.156" y="67.192" transform="matrix(0.4561 0.8899 -0.8899 0.4561 340.8426 -394.1171)" fill="#FFFFFF" width="1.4" height="29.199"/>
	</g>
	<g opacity="0.8">
		
			<rect x="511.45" y="69.438" transform="matrix(0.4561 0.8899 -0.8899 0.4561 342.5407 -416.6632)" fill="#FFFFFF" width="1.4" height="4.939"/>
	</g>
	<g opacity="0.8">
		
			<rect x="522.02" y="61.577" transform="matrix(0.4561 0.8899 -0.8899 0.4561 343.4708 -429.015)" fill="#FFFFFF" width="1.4" height="9.83"/>
	</g>
	<g opacity="0.8">
		
			<rect x="479.108" y="127.162" transform="matrix(0.89 0.4559 -0.4559 0.89 111.7409 -207.4997)" fill="#FFFFFF" width="13.719" height="1.4"/>
	</g>
	<g opacity="0.8">
		
			<rect x="495.76" y="133.259" transform="matrix(0.89 0.4559 -0.4559 0.89 115.8208 -212.2456)" fill="#FFFFFF" width="4.219" height="1.4"/>
	</g>
	<g opacity="0.8">
		
			<rect x="502.437" y="142.176" transform="matrix(0.89 0.4559 -0.4559 0.89 121.8178 -219.2196)" fill="#FFFFFF" width="25.677" height="1.4"/>
	</g>
	<g opacity="0.4">
		<path fill="#FFFFFF" d="M489.517,154.014l-8.6-5.905l5.904-8.599l8.6,5.904L489.517,154.014z M482.864,147.748l6.292,4.32
			l4.319-6.292l-6.292-4.319L482.864,147.748z"/>
	</g>
	<g opacity="0.4">
		<path fill="#FFFFFF" d="M495.995,66.874l-5.26-9.008l9.008-5.26l5.26,9.008L495.995,66.874z M492.65,58.369l3.848,6.59l6.59-3.848
			l-3.848-6.59L492.65,58.369z"/>
	</g>
	<g opacity="0.2">
		<path fill="#FFFFFF" d="M553.537,71.716l-10.112-2.56l2.561-10.113l10.112,2.561L553.537,71.716z M545.126,68.142l7.397,1.873
			l1.873-7.397l-7.397-1.873L545.126,68.142z"/>
	</g>
	<g opacity="0.2">
		<path fill="#FFFFFF" d="M511.82,129.306l-10.01-2.936l2.936-10.01l10.01,2.936L511.82,129.306z M503.547,125.42l7.323,2.148
			l2.147-7.323l-7.323-2.148L503.547,125.42z"/>
	</g>
	<g opacity="0.3">
		<g>
			<rect x="544.381" y="151.802" fill="#FFFFFF" width="5.381" height="1.4"/>
		</g>
		<g>
			<rect x="540.586" y="144.072" fill="#FFFFFF" width="1.4" height="5.38"/>
		</g>
		<g>
			<rect x="532.857" y="151.847" fill="#FFFFFF" width="5.38" height="1.4"/>
		</g>
		<g>
			<rect x="540.631" y="155.597" fill="#FFFFFF" width="1.4" height="5.38"/>
		</g>
	</g>
	<g opacity="0.4">
		<g>
			<rect x="519.807" y="86.122" fill="#FFFFFF" width="5.381" height="1.4"/>
		</g>
		<g>
			<rect x="516.012" y="78.392" fill="#FFFFFF" width="1.4" height="5.38"/>
		</g>
		<g>
			<rect x="508.283" y="86.167" fill="#FFFFFF" width="5.38" height="1.4"/>
		</g>
		<g>
			<rect x="516.057" y="89.917" fill="#FFFFFF" width="1.4" height="5.38"/>
		</g>
	</g>
	<g opacity="0.5">
		<rect x="448.645" y="45.798" fill="#FFFFFF" width="5.935" height="15.462"/>
	</g>
	<g opacity="0.8">
		<path fill="#FFFFFF" d="M389.547,83.517H251.709V32.143h137.838V83.517z M253.709,81.517h133.838V34.143H253.709V81.517z"/>
	</g>
	<g opacity="0.8">
		<path fill="#FFFFFF" d="M335.852,83.517h-30.448V63.723h30.448V83.517z M307.404,81.517h26.448V65.723h-26.448V81.517z"/>
	</g>
	<g opacity="0.8">
		<path fill="#FFFFFF" d="M335.852,132.891h-30.448v-19.794h30.448V132.891z M307.404,130.891h26.448v-15.794h-26.448V130.891z"/>
	</g>
	<g opacity="0.8">
		<path fill="#FFFFFF" d="M335.852,182.265h-30.448v-19.794h30.448V182.265z M307.404,180.265h26.448v-15.794h-26.448V180.265z"/>
	</g>
	<g opacity="0.8">
		<path fill="#FFFFFF" d="M389.547,132.891H251.709V81.517h137.838V132.891z M253.709,130.891h133.838V83.517H253.709V130.891z"/>
	</g>
	<g opacity="0.8">
		<path fill="#FFFFFF" d="M389.547,182.265H251.709v-51.374h137.838V182.265z M253.709,180.265h133.838v-47.374H253.709V180.265z"/>
	</g>
	<g opacity="0.6">
		<circle fill="#FFFFFF" cx="349.454" cy="57.83" r="3.122"/>
	</g>
	<g opacity="0.6">
		<circle fill="#FFFFFF" cx="360.981" cy="57.83" r="3.122"/>
	</g>
	<g opacity="0.6">
		<circle fill="#FFFFFF" cx="372.507" cy="57.83" r="3.122"/>
	</g>
	<g opacity="0.6">
		<rect x="268.267" y="48.182" fill="#FFFFFF" width="3.703" height="19.295"/>
	</g>
	<g opacity="0.6">
		<rect x="277.253" y="48.182" fill="#FFFFFF" width="3.703" height="19.295"/>
	</g>
	<g opacity="0.6">
		<rect x="286.239" y="48.182" fill="#FFFFFF" width="3.703" height="19.295"/>
	</g>
	<g opacity="0.6">
		<circle fill="#FFFFFF" cx="349.454" cy="107.204" r="3.122"/>
	</g>
	<g opacity="0.6">
		<circle fill="#FFFFFF" cx="360.981" cy="107.204" r="3.122"/>
	</g>
	<g opacity="0.6">
		<circle fill="#FFFFFF" cx="372.507" cy="107.204" r="3.122"/>
	</g>
	<g opacity="0.6">
		<rect x="268.267" y="97.556" fill="#FFFFFF" width="3.703" height="19.295"/>
	</g>
	<g opacity="0.6">
		<rect x="277.253" y="97.557" fill="#FFFFFF" width="3.703" height="19.295"/>
	</g>
	<g opacity="0.6">
		<rect x="286.239" y="97.557" fill="#FFFFFF" width="3.703" height="19.295"/>
	</g>
	<g opacity="0.6">
		<circle fill="#FFFFFF" cx="349.454" cy="156.578" r="3.122"/>
	</g>
	<g opacity="0.6">
		<circle fill="#FFFFFF" cx="360.981" cy="156.578" r="3.122"/>
	</g>
	<g opacity="0.6">
		<circle fill="#FFFFFF" cx="372.507" cy="156.578" r="3.122"/>
	</g>
	<g opacity="0.6">
		<rect x="268.267" y="146.93" fill="#FFFFFF" width="3.703" height="19.295"/>
	</g>
	<g opacity="0.6">
		<rect x="277.253" y="146.931" fill="#FFFFFF" width="3.703" height="19.295"/>
	</g>
	<g opacity="0.6">
		<rect x="286.239" y="146.931" fill="#FFFFFF" width="3.703" height="19.295"/>
	</g>
	<g opacity="0.8">
		<polygon fill="#FFFFFF" points="441.436,83.151 423.782,83.151 423.782,47.3 388.609,47.3 388.609,45.7 425.382,45.7 
			425.382,81.552 441.436,81.552 		"/>
	</g>
	<g opacity="0.8">
		<polygon fill="#FFFFFF" points="441.436,98.943 406.173,98.943 406.173,63.092 388.609,63.092 388.609,61.492 407.773,61.492 
			407.773,97.344 441.436,97.344 		"/>
	</g>
	<g opacity="0.4">
		<path fill="#FFFFFF" d="M398.062,163.521c-2.612,0-4.737-2.125-4.737-4.737s2.125-4.737,4.737-4.737
			c2.612,0,4.737,2.125,4.737,4.737S400.674,163.521,398.062,163.521z M398.062,155.647c-1.73,0-3.137,1.407-3.137,3.137
			s1.407,3.137,3.137,3.137s3.138-1.407,3.138-3.137S399.792,155.647,398.062,155.647z"/>
	</g>
	<g opacity="0.4">
		<path fill="#FFFFFF" d="M415.772,163.521c-2.612,0-4.737-2.125-4.737-4.737s2.125-4.737,4.737-4.737
			c2.612,0,4.737,2.125,4.737,4.737S418.385,163.521,415.772,163.521z M415.772,155.647c-1.73,0-3.137,1.407-3.137,3.137
			s1.407,3.137,3.137,3.137s3.138-1.407,3.138-3.137S417.502,155.647,415.772,155.647z"/>
	</g>
	<g opacity="0.4">
		<path fill="#FFFFFF" d="M415.773,144.508c-2.612,0-4.737-2.125-4.737-4.737s2.125-4.737,4.737-4.737
			c2.612,0,4.737,2.125,4.737,4.737S418.385,144.508,415.773,144.508z M415.773,136.634c-1.73,0-3.138,1.407-3.138,3.137
			s1.408,3.137,3.138,3.137s3.137-1.407,3.137-3.137S417.503,136.634,415.773,136.634z"/>
	</g>
	<g opacity="0.4">
		<path fill="#FFFFFF" d="M415.773,127.771c-2.612,0-4.737-2.125-4.737-4.737c0-2.612,2.125-4.737,4.737-4.737
			c2.612,0,4.737,2.125,4.737,4.737C420.51,125.646,418.385,127.771,415.773,127.771z M415.773,119.897
			c-1.73,0-3.138,1.407-3.138,3.137s1.408,3.138,3.138,3.138s3.137-1.408,3.137-3.138S417.503,119.897,415.773,119.897z"/>
	</g>
	<g opacity="0.4">
		<path fill="#FFFFFF" d="M431.526,127.771c-2.612,0-4.737-2.125-4.737-4.737c0-2.612,2.125-4.737,4.737-4.737
			s4.737,2.125,4.737,4.737C436.263,125.646,434.138,127.771,431.526,127.771z M431.526,119.897c-1.73,0-3.137,1.407-3.137,3.137
			s1.407,3.138,3.137,3.138s3.137-1.408,3.137-3.138S433.256,119.897,431.526,119.897z"/>
	</g>
	<g opacity="0.8">
		<polygon fill="#FFFFFF" points="425.382,167.793 388.609,167.793 388.609,166.193 423.782,166.193 423.782,130.342 
			441.436,130.342 441.436,131.941 425.382,131.941 		"/>
	</g>
	<g opacity="0.8">
		<polygon fill="#FFFFFF" points="407.773,152.001 388.609,152.001 388.609,150.401 406.173,150.401 406.173,114.55 441.436,114.55 
			441.436,116.149 407.773,116.149 		"/>
	</g>
</g>
<g>
</g>
<g>
</g>
<g>
</g>
<g>
</g>
<g>
</g>
<g>
</g>
</svg>
