<?xml version="1.0" encoding="UTF-8"?>
<svg width="75px" height="71px" viewBox="0 0 75 71" version="1.1" xmlns="http://www.w3.org/2000/svg" xmlns:xlink="http://www.w3.org/1999/xlink">
    <!-- Generator: Sketch 47 (45396) - http://www.bohemiancoding.com/sketch -->
    <title>Page 1</title>
    <desc>Created with Sketch.</desc>
    <defs>
        <polygon id="path-1" points="0.0821 0.99 36.2861 0.99 36.2861 39.0367 0.0821 39.0367"></polygon>
    </defs>
    <g id="文档页优化" stroke="none" stroke-width="1" fill="none" fill-rule="evenodd">
        <g id="文档-门户" transform="translate(-432.000000, -499.000000)">
            <g id="Page-1" transform="translate(432.000000, 498.000000)">
                <polygon id="Fill-1" fill="#3670E3" points="0 71.0104 74.369 71.0104 74.369 62.7474 0 62.7474"></polygon>
                <polygon id="Fill-2" fill="#3670E3" points="27.629 46.3044 46.739 46.3044 46.739 39.0474 27.629 39.0474"></polygon>
                <polygon id="Fill-3" fill="#6694EF" points="27.629 49.9334 46.739 49.9334 46.739 46.3044 27.629 46.3044"></polygon>
                <g id="Group-11" transform="translate(4.000000, 0.010400)">
                    <g id="Group-6" transform="translate(15.000000, 0.000000)">
                        <mask id="mask-2" fill="white">
                            <use xlink:href="#path-1"></use>
                        </mask>
                        <g id="Clip-5"></g>
                        <path d="M18.1841,0.9897 C8.1871,0.9897 0.0821,9.0937 0.0821,19.0917 C0.0821,25.5817 3.4981,31.2727 8.6291,34.4677 L8.6291,39.0367 L16.0051,39.0367 L16.0051,24.4627 L10.3781,18.8357 L13.4591,15.7537 L18.1841,20.4787 L22.9091,15.7537 L25.9901,18.8357 L20.3631,24.4627 L20.3631,39.0367 L27.7391,39.0367 L27.7391,34.4677 C32.8701,31.2727 36.2861,25.5817 36.2861,19.0917 C36.2861,9.0937 28.1811,0.9897 18.1841,0.9897" id="Fill-4" fill="#9FEBF2" mask="url(#mask-2)"></path>
                    </g>
                    <polygon id="Fill-7" fill="#3670E3" points="39.1392 16.9842 39.1392 16.9842 37.9092 15.7542 37.9092 15.7542 37.9092 15.7542 37.1442 16.5182 36.6782 16.9842 33.1842 20.4782 29.6902 16.9842 29.6902 16.9842 28.4602 15.7542 28.4592 15.7542 28.4592 15.7542 25.3782 18.8352 31.0052 24.4622 31.0052 39.0362 35.3632 39.0362 35.3632 24.4622 40.9902 18.8352"></polygon>
                    <path d="M55.1834,16.9842 C55.2494,17.6782 55.2864,18.3802 55.2864,19.0912 C55.2864,26.0062 52.1294,32.3802 46.7394,36.5512 L46.7394,39.0362 L46.7394,43.0362 L46.7394,53.3622 L42.7394,53.3622 L35.3634,53.3622 L34.0054,53.3622 L31.0054,53.3622 L23.6294,53.3622 L19.6294,53.3622 L19.6294,43.0362 L19.6294,39.0362 L19.6294,36.5512 C14.2394,32.3802 11.0824,26.0062 11.0824,19.0912 C11.0824,18.3802 11.1194,17.6782 11.1854,16.9842 L0.3614,16.9842 L0.3614,59.2812 L66.0074,59.2812 L66.0074,16.9842 L55.1834,16.9842 Z" id="Fill-9" fill="#6694EF"></path>
                </g>
            </g>
        </g>
    </g>
</svg>