<?xml version="1.0" encoding="UTF-8"?>
<svg width="71px" height="71px" viewBox="0 0 71 71" version="1.1" xmlns="http://www.w3.org/2000/svg" xmlns:xlink="http://www.w3.org/1999/xlink">
    <!-- Generator: Sketch 47 (45396) - http://www.bohemiancoding.com/sketch -->
    <title>Page 1</title>
    <desc>Created with Sketch.</desc>
    <defs></defs>
    <g id="文档页优化" stroke="none" stroke-width="1" fill="none" fill-rule="evenodd">
        <g id="文档-门户" transform="translate(-733.000000, -502.000000)">
            <g id="Page-1" transform="translate(733.000000, 501.000000)">
                <path d="M0,17.6014 L70.777,17.6014 L70.777,0.9994 L0,0.9994 L0,17.6014 Z M58.326,11.3724 L62.476,11.3724 L62.476,7.2254 L58.326,7.2254 L58.326,11.3724 Z M50.026,11.3724 L54.176,11.3724 L54.176,7.2254 L50.026,7.2254 L50.026,11.3724 Z M16.6,11.3724 L20.75,11.3724 L20.75,7.2254 L16.6,7.2254 L16.6,11.3724 Z M8.299,11.3724 L12.45,11.3724 L12.45,7.2254 L8.299,7.2254 L8.299,11.3724 Z" id="Fill-1" fill="#6694EF"></path>
                <path d="M0,21.7482 L0,38.3502 L33.315,38.3502 L37.462,38.3502 L70.777,38.3502 L70.777,21.7482 L0,21.7482 Z M58.326,32.1242 L62.476,32.1242 L62.476,27.9782 L58.326,27.9782 L58.326,32.1242 Z M50.026,32.1242 L54.176,32.1242 L54.176,27.9782 L50.026,27.9782 L50.026,32.1242 Z M16.6,32.1242 L20.75,32.1242 L20.75,27.9782 L16.6,27.9782 L16.6,32.1242 Z M8.299,32.1242 L12.45,32.1242 L12.45,27.9782 L8.299,27.9782 L8.299,32.1242 Z" id="Fill-2" fill="#3670E3"></path>
                <polygon id="Fill-3" fill="#34D2DF" points="9.3933 57.1371 5.2473 57.1371 0.0003 57.1371 0.0003 71.7771 14.6403 71.7771 14.6403 57.1371"></polygon>
                <polygon id="Fill-4" fill="#6694EF" points="9.3936 49.8174 33.3156 49.8174 33.3156 57.1374 37.4626 57.1374 37.4626 49.8174 61.3836 49.8174 61.3836 57.1374 65.5306 57.1374 65.5306 45.6704 37.4626 45.6704 37.4626 38.3504 33.3156 38.3504 33.3156 45.6704 5.2466 45.6704 5.2466 57.1374 9.3936 57.1374"></polygon>
                <polygon id="Fill-5" fill="#34D2DF" points="37.4625 57.1371 33.3155 57.1371 28.0695 57.1371 28.0695 71.7771 42.7085 71.7771 42.7085 57.1371"></polygon>
                <polygon id="Fill-6" fill="#34D2DF" points="65.5308 57.1371 61.3838 57.1371 56.1378 57.1371 56.1378 71.7771 70.7768 71.7771 70.7768 57.1371"></polygon>
            </g>
        </g>
    </g>
</svg>