<?xml version="1.0" encoding="UTF-8"?>
<svg width="71px" height="71px" viewBox="0 0 71 71" version="1.1" xmlns="http://www.w3.org/2000/svg" xmlns:xlink="http://www.w3.org/1999/xlink">
    <!-- Generator: Sketch 47 (45396) - http://www.bohemiancoding.com/sketch -->
    <title>Page 1</title>
    <desc>Created with Sketch.</desc>
    <defs></defs>
    <g id="文档页优化" stroke="none" stroke-width="1" fill="none" fill-rule="evenodd">
        <g id="文档-门户" transform="translate(-1034.000000, -502.000000)">
            <g id="Page-1" transform="translate(1034.000000, 501.000000)">
                <polygon id="Fill-1" fill="#3670E3" points="7.8373 47.9428 23.8343 63.9398 30.5553 59.5548 12.2223 41.2208"></polygon>
                <polygon id="Fill-2" fill="#3670E3" points="30.1992 14.2335 17.2032 14.8635 3.4902 28.5775 12.8682 31.5645"></polygon>
                <polygon id="Fill-3" fill="#3670E3" points="43.1998 68.2868 56.9128 54.5738 57.5438 41.5778 40.2128 58.9088"></polygon>
                <polygon id="Fill-4" fill="#34D2DF" points="0 55.8166 3.225 59.0416 8.393 53.8726 5.168 50.6476"></polygon>
                <polygon id="Fill-5" fill="#34D2DF" points="12.735 68.5525 15.96 71.7775 21.128 66.6085 17.903 63.3845"></polygon>
                <polygon id="Fill-6" fill="#34D2DF" points="3.8033 64.5212 11.4223 56.9022 14.6473 60.1272 7.0283 67.7462"></polygon>
                <g id="Group-11" transform="translate(14.000000, 0.777200)">
                    <path d="M41.4741,17.8057 C42.7331,17.8057 43.7541,16.7847 43.7541,15.5257 C43.7541,14.2667 42.7331,13.2457 41.4741,13.2457 C40.2151,13.2457 39.1941,14.2667 39.1941,15.5257 C39.1941,16.7847 40.2151,17.8057 41.4741,17.8057" id="Fill-7" fill="#B2C9F7"></path>
                    <path d="M46.3111,20.3625 C43.6401,23.0335 39.3091,23.0335 36.6371,20.3625 C33.9661,17.6915 33.9661,13.3605 36.6371,10.6885 C39.3091,8.0175 43.6401,8.0175 46.3111,10.6885 C48.9821,13.3605 48.9821,17.6915 46.3111,20.3625 M55.1591,1.8405 C46.2161,-1.5365 35.7311,0.3745 28.5311,7.5725 L0.1661,35.9385 L21.0611,56.8335 L49.4261,28.4685 C56.6261,21.2695 58.5361,10.7835 55.1591,1.8405" id="Fill-9" fill="#6694EF"></path>
                </g>
            </g>
        </g>
    </g>
</svg>