<?xml version="1.0" encoding="UTF-8"?>
<svg width="71px" height="63px" viewBox="0 0 71 63" version="1.1" xmlns="http://www.w3.org/2000/svg" xmlns:xlink="http://www.w3.org/1999/xlink">
    <!-- Generator: Sketch 47 (45396) - http://www.bohemiancoding.com/sketch -->
    <title>Page 1</title>
    <desc>Created with Sketch.</desc>
    <defs>
        <polygon id="path-1" points="0 25.21225 0 0.594 32.847 0.594 32.847 49.8305 0 49.8305"></polygon>
        <polygon id="path-3" points="0 13.9995 0 0.2085 32.8468 0.2085 32.8468 13.9995"></polygon>
        <polygon id="path-5" points="33.331 0.2082 33.331 14 0.4844 14 0.4844 0.2082 33.331 0.2082"></polygon>
    </defs>
    <g id="文档页优化" stroke="none" stroke-width="1" fill="none" fill-rule="evenodd">
        <g id="文档-门户" transform="translate(-434.000000, -740.000000)">
            <g id="Page-1" transform="translate(434.000000, 739.000000)">
                <path d="M56.6127,21.3799 L56.6127,2.5059 C54.1227,1.7599 51.5297,1.1639 48.8837,1.0309 L48.8837,21.3799 L52.7487,19.3099 L56.6127,21.3799 Z" id="Fill-1" fill="#34D2DF"></path>
                <g id="Group-5" transform="translate(0.000000, 0.406500)">
                    <mask id="mask-2" fill="white">
                        <use xlink:href="#path-1"></use>
                    </mask>
                    <g id="Clip-4"></g>
                    <path d="M0,5.8455 L0,49.8305 C2.285,49.8305 5.285,48.7935 8.46,47.6955 C12.687,46.2345 17.476,44.5785 22.537,44.5785 C25.995,44.5785 29.858,45.4695 32.847,46.8145 L32.847,3.0845 C30.202,1.6895 26.197,0.5935 22.537,0.5935 C13.988,0.5935 5.897,5.8455 0,5.8455" id="Fill-3" fill="#6694EF" mask="url(#mask-2)"></path>
                </g>
                <path d="M61.2499,4.0373 L61.2499,29.1173 L52.7479,24.5643 L44.2469,29.1173 L44.2469,1.3093 C41.7199,1.7293 39.2869,2.5403 37.4839,3.4913 L37.4839,47.2213 C40.4739,45.8763 44.3359,44.9853 47.7939,44.9853 C52.8549,44.9853 57.6449,46.6413 61.8709,48.1023 C65.0459,49.2003 68.0459,50.2373 70.3309,50.2373 L70.3309,6.2523 C67.6919,6.2523 64.6119,5.1993 61.2499,4.0373" id="Fill-6" fill="#6694EF"></path>
                <g id="Group-10" transform="translate(0.000000, 49.406500)">
                    <mask id="mask-4" fill="white">
                        <use xlink:href="#path-3"></use>
                    </mask>
                    <g id="Clip-9"></g>
                    <path d="M9.9778,3.0705 C6.4228,4.2995 3.0658,5.4605 -0.0002,5.4605 L-0.0002,13.9995 C5.8968,13.9995 13.9878,8.7475 22.5368,8.7475 C27.5748,8.7475 30.7318,10.8225 32.6298,12.8975 L32.8468,12.8975 L32.8468,3.0835 C31.0168,1.7655 26.7328,0.2085 22.5368,0.2085 C18.2568,0.2085 14.0478,1.6635 9.9778,3.0705" id="Fill-8" fill="#3670E3" mask="url(#mask-4)"></path>
                </g>
                <g id="Group-13" transform="translate(37.000000, 49.406500)">
                    <mask id="mask-6" fill="white">
                        <use xlink:href="#path-5"></use>
                    </mask>
                    <g id="Clip-12"></g>
                    <path d="M10.7944,0.2082 C6.5984,0.2082 2.3144,1.7662 0.4844,3.0832 L0.4844,12.8982 L0.7014,12.8982 C2.5994,10.8232 5.7564,8.7482 10.7944,8.7482 C19.3434,8.7482 27.4344,14.0002 33.3314,14.0002 L33.3314,5.4602 C30.2654,5.4602 26.9084,4.2992 23.3534,3.0702 C19.2834,1.6632 15.0744,0.2082 10.7944,0.2082" id="Fill-11" fill="#3670E3" mask="url(#mask-6)"></path>
                </g>
            </g>
        </g>
    </g>
</svg>