<?xml version="1.0" encoding="UTF-8"?>
<svg xmlns="http://www.w3.org/2000/svg" xmlns:xlink="http://www.w3.org/1999/xlink" width="845px" height="532px" viewBox="0 0 845 532" version="1.1">
  <title>主要亮点</title>
  <defs>
    <polygon id="path-1" points="91.6449269 0 811 0 811 498 5.68434189e-14 498"></polygon>
    <filter x="-3.5%" y="-5.3%" width="106.5%" height="110.6%" id="filter-3">
      <feOffset dx="-2" dy="0" in="SourceAlpha" result="shadowOffsetOuter1"></feOffset>
      <feGaussianBlur stdDeviation="8.5" in="shadowOffsetOuter1" result="shadowBlurOuter1"></feGaussianBlur>
      <feColorMatrix values="0 0 0 0 0   0 0 0 0 0.088871381   0 0 0 0 0.282297328  0 0 0 0.333096591 0" type="matrix" in="shadowBlurOuter1"></feColorMatrix>
    </filter>
  </defs>
  <g id="首页" stroke="none" stroke-width="1" fill="none" fill-rule="evenodd">
    <g id="官网首页" transform="translate(-611.000000, -1792.000000)">
      <g id="编组-8" transform="translate(0.000000, 1736.000000)">
        <g id="主要亮点" transform="translate(630.000000, 73.000000)">
          <mask id="mask-2" fill="white">
            <use xlink:href="#path-1"></use>
          </mask>
          <g id="蒙版">
            <use fill="black" fill-opacity="1" filter="url(#filter-3)" xlink:href="#path-1"></use>
            <use fill="#27385C" fill-rule="evenodd" xlink:href="#path-1"></use>
          </g>
          <g id="资源-1" mask="url(#mask-2)" opacity="0.558116824" stroke="#27385C">
            <g transform="translate(449.000000, -84.000000)" id="路径">
              <path d="M386.690697,136.110255 C358.91912,243.169246 261.374792,140.634897 185.049469,232.684337 C123.042729,307.417545 0,206.673696 0,133.142219 C0,59.6107429 78.8735444,0 176.175185,0 C273.476825,0 413.313552,33.4710571 386.690697,136.110255 Z"></path>
              <path d="M185.399031,226.397079 C125.575747,297.005137 9.19506567,200.302972 9,129.009713 C8.75745292,57.9663505 86.1662869,0.32876509 179.791105,1.00590595 C273.415922,1.68304682 406.855397,35.0080508 380.655359,133.443373 C353.482849,235.949602 259.055741,139.481213 185.399031,226.397079 Z"></path>
              <path d="M185.326378,222.022919 C127.846138,288.756187 18.4952637,195.709788 18,126.379989 C17.6129448,57.5516998 93.3223775,1.65753162 183.003208,3.02455253 C272.684038,4.39157343 399.325124,37.7015857 373.624552,132.30105 C347.138797,230.669932 256.089968,139.88842 185.326378,222.022919 Z"></path>
              <path d="M185.232174,215.739656 C130.087838,278.306421 27.7231314,189.338745 27.0035059,122.245185 C26.4132513,55.959982 100.43765,2.02646048 186.186284,4.05543439 C271.934918,6.0844083 391.797035,39.2674278 366.585886,129.625477 C340.76831,223.435207 253.119541,138.735651 185.232174,215.739656 Z"></path>
              <path d="M185.652067,210.449272 C132.654022,268.853887 36.978861,183.932559 36.0067171,119.114824 C35.1965972,55.3067119 107.783341,3.38790851 189.856589,6.10177254 C271.929837,8.81563656 385.160297,41.7777767 360.581259,127.951036 C335.143494,217.145085 250.826214,138.580337 185.652067,210.449272 Z"></path>
              <path d="M186.529056,205.151566 C135.904982,259.385354 47.2157485,178.522865 46.0100281,115.977696 C45.030886,54.6832677 115.901352,4.76655752 194.038509,8.16373421 C272.175666,11.5609109 378.594655,44.3303516 354.536891,126.282196 C329.750839,210.888841 248.862374,138.418428 186.529056,205.151566 Z"></path>
              <path d="M186.872731,199.841651 C138.445684,249.893419 56.3394204,173.135555 55.017872,112.857462 C53.7206466,54.094381 123.243823,6.18619135 197.712671,10.2396513 C272.18152,14.2931112 372.051664,46.9061379 348.482699,124.606855 C324.224583,204.604265 246.520779,138.250012 186.872731,199.841651 Z"></path>
              <path d="M186.776399,194.443063 C140.690841,240.549965 65.5710577,167.515014 64.0246168,109.218093 C62.5186586,52.6926476 130.351547,6.55338904 200.856298,11.3420358 C271.361048,16.1306825 364.447073,48.6481825 341.428584,122.47585 C317.802854,198.269127 243.541305,137.691127 186.776399,194.443063 Z"></path>
              <path d="M187.706224,188.103953 C143.966944,230.019067 75.8112807,161.107778 74.0326039,105.097173 C72.3186062,51.1290426 138.469215,7.03421381 205.007899,12.4512094 C271.546583,17.8682051 357.81241,50.2571566 335.368742,119.82236 C312.415726,190.969875 241.583963,136.533509 187.706224,188.103953 Z"></path>
              <path d="M188.006805,182.741822 C146.464839,220.469808 85.0592032,155.674691 83.0420524,101.991683 C81.1140126,50.5488244 145.816758,8.50975906 208.656272,14.5855603 C271.495786,20.6613616 351.274507,52.8614968 329.26407,118.132041 C306.83238,184.643531 239.188969,136.327212 188.006805,182.741822 Z"></path>
              <path d="M187.88956,177.297425 C148.701542,211.02892 94.253971,150.017928 92.0543959,98.3615229 C89.8871675,49.235789 152.866178,8.97144479 211.777593,15.7468505 C270.689007,22.5222562 343.630799,54.6852203 322.160682,116.00345 C300.383271,178.25148 236.175086,135.83647 187.88956,177.297425 Z"></path>
              <path d="M188.202202,171.875386 C151.217477,201.416156 103.536031,144.544327 101.064441,95.2613217 C98.7306104,48.7122292 160.220551,10.4939082 215.43022,17.9295047 C270.639888,25.3651013 337.032493,57.2607459 316.019919,114.301933 C294.812858,171.875386 233.792925,135.552255 188.202202,171.875386 Z"></path>
              <path d="M189.099954,166.367542 C154.478176,191.869594 113.777581,138.876428 111.07768,91.5917103 C108.547534,47.387615 168.309103,11.0104017 219.526377,19.1445374 C270.74365,27.2786731 330.335465,59.1602805 309.867956,112.193875 C289.335779,165.405353 231.772931,135.043843 189.099954,166.367542 Z"></path>
              <path d="M189.360915,160.854589 C156.954862,182.144651 123.033826,133.32406 120.092977,88.4651591 C117.354665,46.891563 175.645053,12.6052233 223.144225,21.3821398 C270.643397,30.1590562 323.675902,61.7559555 303.657063,110.439659 C283.703036,158.922057 229.317578,134.676832 189.360915,160.854589 Z"></path>
              <path d="M189.231641,156.230627 C159.210352,173.445525 132.288868,128.520611 129.108339,85.7818446 C126.194199,46.5844742 182.668773,14.1794862 226.162913,23.666234 C269.657052,33.1529818 315.879667,64.6302691 296.425161,109.272839 C277.164393,153.358789 226.251709,135.087119 189.231641,156.230627 Z"></path>
              <path d="M189.447233,150.508063 C161.651941,163.622081 141.555549,122.64885 138.126627,82.0632262 C135.013101,45.2890655 189.98098,14.7973592 229.720889,24.9881784 C269.460797,35.1789977 309.119834,66.5428185 290.082849,107.071916 C271.41787,146.680449 223.704101,134.414321 189.447233,150.508063 Z"></path>
              <path d="M189.610568,144.633823 C164.061894,153.630625 150.830028,116.675153 147.145513,78.3237639 C143.849693,44.0310221 197.271122,15.5075298 233.225517,26.3278984 C269.179912,37.1482671 302.259575,68.3990409 283.642648,104.741278 C265.681646,139.857046 221.143544,133.603664 189.610568,144.633823 Z"></path>
              <path d="M190.724588,139.526533 C167.448157,144.352894 161.11256,111.525591 157.166991,75.4968012 C153.683223,43.7554292 205.510347,17.2587035 237.64203,28.7213125 C269.773713,40.1839215 296.250349,71.2013393 278.06184,103.288601 C260.748323,133.823382 219.49403,133.598152 190.724588,139.526533 Z"></path>
              <path d="M190.792149,133.983611 C169.821313,134.789049 170.395746,105.79331 166.188634,71.9649481 C162.539773,42.6067626 212.701495,18.0248197 240.913418,30.1788668 C269.125341,42.332914 289.028218,73.2697563 271.26935,101.24259 C254.69171,127.346809 216.68207,133.073467 190.792149,133.983611 Z"></path>
              <path d="M190.964837,128.163277 C172.197644,124.843228 179.7159,99.9388476 175.213074,68.3139819 C171.384859,41.4802753 220.095033,18.8830466 244.61674,31.6809079 C269.138448,44.4787691 282.533136,75.2756325 265.05827,99.014379 C249.152078,120.638906 214.169834,132.335444 190.964837,128.163277 Z"></path>
              <path d="M191.122672,123.440185 C174.671438,115.953713 189.118997,94.832615 184.332888,65.1462798 C180.366096,40.5293325 227.326744,19.7245648 247.955683,33.2861911 C268.584622,46.8478175 275.406854,77.8968041 258.314769,97.590362 C243.226359,114.98039 211.46769,132.743525 191.122672,123.440185 Z"></path>
              <path d="M191.93612,117.529057 C177.738112,105.966972 199.20589,88.9145111 194.099161,61.5837444 C189.976372,39.5253531 235.383974,20.7288908 252.208531,34.9392747 C269.033088,49.1496585 269.382753,80.0733916 252.5338,95.3414802 C238.213817,108.308455 209.516928,131.852478 191.93612,117.529057 Z"></path>
            </g>
          </g>
        </g>
      </g>
    </g>
  </g>
</svg>
