<?xml version="1.0" encoding="UTF-8"?>
<svg xmlns="http://www.w3.org/2000/svg" xmlns:xlink="http://www.w3.org/1999/xlink" width="20px" height="15px" viewBox="0 0 20 15" version="1.1">
  <title>形状</title>
  <g id="首页" stroke="none" stroke-width="1" fill="none" fill-rule="evenodd">
    <g id="官网首页" transform="translate(-242.000000, -3569.000000)" fill="#FFFFFF" fill-rule="nonzero">
      <g id="编组-4" transform="translate(160.000000, 3439.000000)">
        <path d="M91.5131424,130.01826 L91.3067391,132.223426 C87.7361441,133.01066 85.947614,134.479854 85.947614,136.633825 C85.947614,137.249137 86.5213384,137.915804 87.6662196,138.633802 C88.7938375,139.351846 89.3586208,140.24156 89.3586208,141.300629 C89.3586208,142.241606 89.0591607,142.992916 88.4604468,143.558364 C87.8630398,144.121221 87.0764469,144.403212 86.1027546,144.403212 C84.9564978,144.403212 83.9866341,144.005789 83.191742,143.210897 C82.396208,142.416027 82,141.377523 82,140.09543 C82,137.567145 82.8128661,135.413265 84.4353428,133.633676 C86.0591263,131.856746 88.4187673,130.65157 91.5131424,130.01826 M102,130.01826 L101.795454,132.223426 C98.22291,133.028543 96.4363286,134.497851 96.4363286,136.633825 C96.4363286,137.249137 97.0087692,137.915804 98.1530773,138.633802 C99.2825521,139.351846 99.8453638,140.24156 99.8453638,141.300629 C99.8453638,142.241606 99.5511308,142.992916 98.9608079,143.558364 C98.3710352,144.121221 97.5818517,144.403212 96.5895205,144.403212 C95.4279721,144.403212 94.4574435,144.005789 93.6792645,143.210897 C92.9016358,142.416027 92.511847,141.377523 92.511847,140.09543 C92.511847,137.531242 93.3247131,135.364501 94.9484966,133.595183 C96.5729221,131.82598 98.922957,130.633573 102,130.01826" id="形状"></path>
      </g>
    </g>
  </g>
</svg>
