<?xml version="1.0" encoding="UTF-8"?>
<svg xmlns="http://www.w3.org/2000/svg" xmlns:xlink="http://www.w3.org/1999/xlink" width="20px" height="15px" viewBox="0 0 20 15" version="1.1">
  <title>形状</title>
  <g id="首页" stroke="none" stroke-width="1" fill="none" fill-rule="evenodd">
    <g id="官网首页" transform="translate(-689.000000, -3608.000000)" fill="#FFFFFF" fill-rule="nonzero">
      <g id="编组-4" transform="translate(160.000000, 3439.000000)">
        <path d="M538.513142,169.01826 L538.306739,171.223426 C534.736144,172.01066 532.947614,173.479854 532.947614,175.633825 C532.947614,176.249137 533.521338,176.915804 534.66622,177.633802 C535.793837,178.351846 536.358621,179.24156 536.358621,180.300629 C536.358621,181.241606 536.059161,181.992916 535.460447,182.558364 C534.86304,183.121221 534.076447,183.403212 533.102755,183.403212 C531.956498,183.403212 530.986634,183.005789 530.191742,182.210897 C529.396208,181.416027 529,180.377523 529,179.09543 C529,176.567145 529.812866,174.413265 531.435343,172.633676 C533.059126,170.856746 535.418767,169.65157 538.513142,169.01826 M549,169.01826 L548.795454,171.223426 C545.22291,172.028543 543.436329,173.497851 543.436329,175.633825 C543.436329,176.249137 544.008769,176.915804 545.153077,177.633802 C546.282552,178.351846 546.845364,179.24156 546.845364,180.300629 C546.845364,181.241606 546.551131,181.992916 545.960808,182.558364 C545.371035,183.121221 544.581852,183.403212 543.58952,183.403212 C542.427972,183.403212 541.457444,183.005789 540.679265,182.210897 C539.901636,181.416027 539.511847,180.377523 539.511847,179.09543 C539.511847,176.531242 540.324713,174.364501 541.948497,172.595183 C543.572922,170.82598 545.922957,169.633573 549,169.01826" id="形状" transform="translate(539.000000, 176.210736) scale(-1, -1) translate(-539.000000, -176.210736) "></path>
      </g>
    </g>
  </g>
</svg>
