<?xml version="1.0" encoding="UTF-8"?>
<svg xmlns="http://www.w3.org/2000/svg" xmlns:xlink="http://www.w3.org/1999/xlink" width="28px" height="21px" viewBox="0 0 28 21" version="1.1">
  <title>形状</title>
  <g id="首页" stroke="none" stroke-width="1" fill="none" fill-rule="evenodd">
    <g id="官网首页" transform="translate(-232.000000, -3669.000000)" fill="#FFFFFF" fill-rule="nonzero">
      <g id="编组-4" transform="translate(160.000000, 3545.000000)">
        <path d="M85.2990568,124.01826 L85.0105119,127.101008 C80.0189387,128.201536 77.5186331,130.255419 77.5186331,133.2666 C77.5186331,134.126786 78.3206808,135.058764 79.9211867,136.062501 C81.4975589,137.066303 82.2871072,138.310094 82.2871072,139.790637 C82.2871072,141.106091 81.868472,142.156397 81.0314899,142.946875 C80.1963347,143.733731 79.096704,144.127944 77.7355145,144.127944 C76.1330857,144.127944 74.7772484,143.57236 73.6660158,142.461127 C72.5538857,141.349927 72,139.898132 72,138.105808 C72,134.571349 73.1363598,131.560297 75.4045283,129.072491 C77.6745236,126.588403 80.9732233,124.903606 85.2990568,124.01826 M99.9593351,124.01826 L99.6733863,127.101008 C94.6790888,128.226535 92.1815075,130.280578 92.1815075,133.2666 C92.1815075,134.126786 92.9817604,135.058764 94.581465,136.062501 C96.1604333,137.066303 96.9472253,138.310094 96.9472253,139.790637 C96.9472253,141.106091 96.5358974,142.156397 95.7106456,142.946875 C94.886163,143.733731 93.7829107,144.127944 92.3956646,144.127944 C90.7718585,144.127944 89.4150919,143.57236 88.3272235,142.461127 C87.2401244,141.349927 86.6952127,139.898132 86.6952127,138.105808 C86.6952127,134.521159 87.8315725,131.492127 90.1015678,129.018679 C92.3724606,126.545392 95.6577313,124.878447 99.9593351,124.01826" id="形状"></path>
      </g>
    </g>
  </g>
</svg>
