<?xml version="1.0" encoding="UTF-8" standalone="no"?>
<svg width="1385px" height="304px" viewBox="0 0 1385 304" version="1.1" xmlns="http://www.w3.org/2000/svg" xmlns:xlink="http://www.w3.org/1999/xlink">
    <!-- Generator: Sketch 49 (51002) - http://www.bohemiancoding.com/sketch -->
    <title>615 [转换]</title>
    <desc>Created with Sketch.</desc>
    <defs></defs>
    <g id="Page-1" stroke="none" stroke-width="1" fill="none" fill-rule="evenodd" opacity="0.08">
        <g id="案例详情页-汉得信息" transform="translate(-29.000000, 0.000000)" fill="#FFFFFF" fill-rule="nonzero">
            <g id="banner" transform="translate(0.000000, -843.000000)">
                <g id="615-[转换]" transform="translate(1.000000, 0.000000)">
                    <path d="M175.335586,832.171172 L140.308946,797.144289 L140.308946,659.599002 L171.098608,659.599002 L171.098608,406.423491 L168.235785,406.423491 L168.235785,656.73616 L137.388867,656.73616 L137.388867,798.360998 L172.415507,833.38788 L172.415507,880.037905 L146.263618,880.037905 C145.608333,877.659507 143.4487,876.009044 140.98171,876.001297 C137.960379,876.009053 135.508622,878.448056 135.485089,881.469327 C135.49298,884.507361 137.958,886.965995 140.996024,886.965985 C143.465799,886.948276 145.620495,885.285402 146.263618,882.900748 L175.335586,882.900748 L175.335586,832.171172 Z" id="Shape" style="mix-blend-mode: color-dodge;"></path>
                    <path d="M152.246918,671.494115 L183.036581,671.494115 L183.036581,400.425835 L180.173757,400.425835 L180.173757,668.574015 L149.255268,668.574015 L149.255268,792.363342 L184.281909,827.390224 L184.281909,896.971621 L167.677535,896.971621 C167.037621,894.60501 164.904279,892.950928 162.452883,892.920698 C160.99261,892.916895 159.590843,893.494327 158.556929,894.525563 C157.523014,895.556798 156.941943,896.957069 156.941948,898.417357 C156.941948,901.460983 159.409278,903.928329 162.452883,903.928329 C164.919873,903.920582 167.079506,902.270119 167.734791,899.891721 L187.273559,899.891721 L187.273559,826.173516 L152.246918,791.146633 L152.246918,671.494115 Z" id="Shape" style="mix-blend-mode: color-dodge;"></path>
                    <path d="M200.6,914.39202 L200.6,821.349626 L165.57336,786.308429 L165.57336,685.278703 L196.348708,685.278703 L196.348708,395.544688 L193.485885,395.544688 L193.485885,682.344289 L162.638966,682.344289 L162.638966,787.482195 L197.665606,822.509077 L197.665606,914.39202 C195.282112,915.048731 193.630348,917.215955 193.629026,919.688279 C193.636917,922.726314 196.101936,925.184948 199.13996,925.184938 C202.17566,925.184938 204.636581,922.724 204.636581,919.688279 C204.635258,917.215955 202.983494,915.048731 200.6,914.39202 Z" id="Shape" style="mix-blend-mode: color-dodge;"></path>
                    <path d="M250.355865,760.099102 L219.566203,760.099102 L219.566203,869.159102 L253.275944,869.159102 L253.275944,782.787132 L235.79841,782.787132 L235.79841,832.013716 C233.406331,832.660726 231.74567,834.831924 231.747515,837.309975 C231.743679,838.775232 232.325031,840.181374 233.362463,841.216126 C234.399896,842.250878 235.807531,842.828584 237.272763,842.820948 C240.027396,842.828616 242.359978,840.791043 242.722617,838.060355 C243.085256,835.329668 241.365329,832.753909 238.704175,832.042344 L238.704175,785.721546 L250.355865,785.721546 L250.355865,866.224688 L222.486282,866.224688 L222.486282,763.019202 L253.275944,763.019202 L253.275944,515.798404 L250.413121,515.798404 L250.355865,760.099102 Z" id="Shape" style="mix-blend-mode: color-dodge;"></path>
                    <path d="M38.3924453,993.535312 L38.3924453,848.961746 L3.36580517,813.934863 L3.36580517,676.518404 L34.1554672,676.518404 L34.1554672,423.185436 L31.2926441,423.185436 L31.2926441,673.498105 L0.388469185,673.498105 L0.388469185,815.122943 L35.4151093,850.149825 L35.4151093,993.535312 C33.0367274,994.190602 31.3862759,996.35025 31.3785288,998.817257 C31.3785239,1000.27754 31.9595949,1001.67781 32.9935091,1002.70905 C34.0274234,1003.74029 35.4291904,1004.31772 36.8894632,1004.31392 C38.3497361,1004.31772 39.7515031,1003.74029 40.7854173,1002.70905 C41.8193315,1001.67781 42.4004026,1000.27754 42.4003976,998.817257 C42.4011028,996.356677 40.7623604,994.197034 38.3924453,993.535312 Z" id="Shape" style="mix-blend-mode: color-dodge;"></path>
                    <path d="M50.3304175,961.328329 L50.3304175,842.935461 L15.3037773,807.908579 L15.3037773,688.227431 L46.0934394,688.227431 L46.0934394,417.173466 L43.2306163,417.173466 L43.2306163,685.364589 L12.4409543,685.364589 L12.4409543,809.139601 L47.4675944,844.180798 L47.4675944,961.356958 C45.0892125,962.012247 43.438761,964.171896 43.4310139,966.638903 C43.4389049,969.676937 45.9039245,972.135571 48.9419483,972.135561 C51.9776479,972.135561 54.4385686,969.674623 54.4385686,966.638903 C54.4400467,964.139133 52.7503715,961.954903 50.3304175,961.328329 Z" id="Shape" style="mix-blend-mode: color-dodge;"></path>
                    <path d="M63.6425447,933.000499 L63.6425447,838.054314 L28.6159046,803.013117 L28.6159046,702.026334 L59.4055666,702.026334 L59.4055666,412.292319 L56.5427435,412.292319 L56.5427435,699.106234 L25.7530815,699.106234 L25.7530815,804.172569 L60.7797217,839.199451 L60.7797217,933.000499 C58.398452,933.651504 56.7459959,935.813776 56.7431412,938.282444 C56.7431309,941.320489 59.2017479,943.785525 62.2397614,943.793416 C63.7013521,943.793416 65.1030798,943.212798 66.1365805,942.17929 C67.1700812,941.145782 67.7506958,939.744045 67.7506958,938.282444 C67.7341844,935.795061 66.0493115,933.628781 63.6425447,933.000499 Z" id="Shape" style="mix-blend-mode: color-dodge;"></path>
                    <path d="M497.360239,1038.32449 L497.360239,938.124988 L462.333598,903.098105 L462.333598,706.091571 L375.289463,706.091571 L375.289463,338.960599 L372.42664,338.960599 L372.42664,709.011671 L459.442147,709.011671 L459.442147,904.37207 L494.483101,939.413267 L494.483101,1038.39606 C491.821571,1039.11394 490.103437,1041.69225 490.465512,1044.42503 C490.827587,1047.15781 493.157868,1049.19972 495.914513,1049.19972 C498.671158,1049.19972 501.001439,1047.15781 501.363514,1044.42503 C501.725589,1041.69225 500.007455,1039.11394 497.345924,1038.39606 L497.360239,1038.32449 Z" id="Shape" style="mix-blend-mode: color-dodge;"></path>
                    <path d="M803.410338,1135.87586 L803.410338,1030.15107 L768.412326,995.12419 L768.412326,861.629825 L795.151093,861.629825 L795.151093,671.408229 L766.794831,645.070075 L766.794831,563.836908 L797.856461,563.836908 L797.856461,431.158454 C800.517992,430.440573 802.236125,427.862267 801.87405,425.129485 C801.511975,422.396703 799.181695,420.354792 796.42505,420.354792 C793.668405,420.354792 791.338124,422.396703 790.976049,425.129485 C790.613974,427.862267 792.332107,430.440573 794.993638,431.158454 L794.993638,560.830923 L763.932008,560.830923 L763.932008,646.272469 L792.28827,672.624938 L792.28827,858.709726 L765.492247,858.709726 L765.492247,996.340898 L800.547515,1031.36778 L800.547515,1135.86155 C797.87784,1136.57962 796.153328,1139.16455 796.515483,1141.90531 C796.877637,1144.64606 799.214368,1146.69435 801.978926,1146.69435 C804.743485,1146.69435 807.080216,1144.64606 807.44237,1141.90531 C807.804525,1139.16455 806.080013,1136.57962 803.410338,1135.86155 L803.410338,1135.87586 Z" id="Shape" style="mix-blend-mode: color-dodge;"></path>
                    <path d="M815.391252,1117.15287 L815.391252,1029.83616 L780.350298,994.837905 L780.350298,875.199701 L811.13996,875.199701 L811.13996,663.893267 L780.350298,632.788479 L780.350298,578.136808 L811.197217,578.136808 L811.197217,382.890923 C813.575599,382.235633 815.22605,380.075985 815.233797,377.608978 C815.225931,374.576521 812.769612,372.120186 809.737177,372.112319 C806.699153,372.112309 804.234134,374.570943 804.226243,377.608978 C804.23399,380.075985 805.884441,382.235633 808.262823,382.890923 L808.262823,575.145137 L777.415905,575.145137 L777.415905,633.933616 L808.205567,665.038404 L808.205567,872.265287 L777.415905,872.265287 L777.415905,995.983042 L812.456859,1031.02424 L812.456859,1116.90953 C809.742324,1117.47473 807.863797,1119.95987 808.060426,1122.72566 C808.257055,1125.49145 810.468265,1127.68583 813.235457,1127.86132 C816.002649,1128.0368 818.473342,1126.13931 819.017771,1123.42052 C819.5622,1120.70172 818.012645,1117.99919 815.391252,1117.09561 L815.391252,1117.15287 Z" id="Shape" style="mix-blend-mode: color-dodge;"></path>
                    <path d="M509.283897,1013.80424 L509.283897,932.127332 L474.185686,897.086135 L474.185686,692.664838 L387.227435,692.664838 L387.227435,338.960599 L384.364612,338.960599 L384.364612,695.584938 L471.322863,695.584938 L471.322863,898.302843 L506.363817,933.34404 L506.363817,1013.80424 C503.702286,1014.52212 501.984153,1017.10043 502.346228,1019.83321 C502.708303,1022.56599 505.038584,1024.6079 507.795229,1024.6079 C510.551874,1024.6079 512.882154,1022.56599 513.244229,1019.83321 C513.606304,1017.10043 511.888171,1014.52212 509.22664,1013.80424 L509.283897,1013.80424 Z" id="Shape" style="mix-blend-mode: color-dodge;"></path>
                    <path d="M526.718489,918.056459 L526.718489,817.856958 L491.691849,782.830075 L491.691849,645.284788 L522.481511,645.284788 L522.481511,392.109277 L519.618688,392.109277 L519.618688,642.421945 L488.757455,642.421945 L488.757455,784.046783 L523.784095,819.073666 L523.784095,918.056459 C521.122565,918.77434 519.404431,921.352646 519.766506,924.085428 C520.128581,926.81821 522.458862,928.860121 525.215507,928.860121 C527.972152,928.860121 530.302433,926.81821 530.664508,924.085428 C531.026583,921.352646 529.308449,918.77434 526.646918,918.056459 L526.718489,918.056459 Z" id="Shape" style="mix-blend-mode: color-dodge;"></path>
                    <path d="M538.599205,893.521895 L538.599205,811.859302 L503.572565,776.818105 L503.572565,657.165586 L534.362227,657.165586 L534.362227,386.097307 L531.499404,386.097307 L531.499404,654.245486 L500.681113,654.245486 L500.681113,778.020499 L535.736382,813.061696 L535.736382,893.521895 C533.074851,894.239777 531.356718,896.818082 531.718793,899.550864 C532.080868,902.283646 534.411148,904.325557 537.167793,904.325557 C539.924438,904.325557 542.254719,902.283646 542.616794,899.550864 C542.978869,896.818082 541.260735,894.239777 538.599205,893.521895 Z" id="Shape" style="mix-blend-mode: color-dodge;"></path>
                    <path d="M551.968588,888.626434 L551.968588,807.035411 L516.941948,772.008529 L516.941948,670.950175 L547.73161,670.950175 L547.73161,381.21616 L544.868787,381.21616 L544.868787,668.030075 L514.007555,668.030075 L514.007555,773.153666 L549.034195,808.180549 L549.034195,888.626434 C546.372664,889.344315 544.654531,891.922621 545.016606,894.655403 C545.378681,897.388185 547.708961,899.430096 550.465606,899.430096 C553.222251,899.430096 555.552532,897.388185 555.914607,894.655403 C556.276682,891.922621 554.558549,889.344315 551.897018,888.626434 L551.968588,888.626434 Z" id="Shape" style="mix-blend-mode: color-dodge;"></path>
                    <path d="M307.225845,774.885686 L333.907356,774.885686 L333.907356,584.66409 L305.60835,558.311621 L305.60835,477.078454 L336.66998,477.078454 L336.66998,344.414314 C339.053474,343.757603 340.705238,341.59038 340.706561,339.118055 C340.706561,336.082334 338.24564,333.621397 335.20994,333.621397 C332.174241,333.621397 329.71332,336.082334 329.71332,339.118055 C329.714642,341.59038 331.366407,343.757603 333.749901,344.414314 L333.749901,474.158354 L302.673956,474.158354 L302.673956,559.585586 L331.044533,585.938055 L331.044533,772.022843 L304.291451,772.022843 L304.291451,909.654015 L339.318091,944.680898 L339.318091,1054.38504 L342.180915,1054.38504 L342.180915,943.406933 L307.225845,908.38005 L307.225845,774.885686 Z" id="Shape" style="mix-blend-mode: color-dodge;"></path>
                    <path d="M319.163817,788.426933 L349.953479,788.426933 L349.953479,577.149127 L319.163817,546.058653 L319.163817,491.392668 L349.996421,491.392668 L349.996421,296.146783 C352.374803,295.491493 354.025255,293.331845 354.033002,290.864838 C354.033002,287.821212 351.565673,285.353865 348.522068,285.353865 C347.06179,285.35386 345.661529,285.934935 344.630301,286.968857 C343.599072,288.002778 343.021645,289.404555 343.025447,290.864838 C343.028302,293.333506 344.680758,295.495778 347.062028,296.146783 L347.062028,488.458254 L316.229423,488.458254 L316.229423,547.246733 L347.019085,578.351521 L347.019085,785.56409 L316.229423,785.56409 L316.229423,909.339102 L351.256064,944.380299 L351.256064,1035.63342 L354.118887,1035.63342 L354.118887,943.163591 L319.163817,908.093766 L319.163817,788.426933 Z" id="Shape" style="mix-blend-mode: color-dodge;"></path>
                    <path d="M365.885089,1014.36249 L365.885089,932.685586 L330.858449,897.658703 L330.858449,796.67192 L361.648111,796.67192 L361.648111,338.960599 L358.785288,338.960599 L358.785288,793.737506 L327.924056,793.737506 L327.924056,898.861097 L362.96501,933.902294 L362.96501,1014.36249 C360.303479,1015.08038 358.585346,1017.65868 358.947421,1020.39146 C359.309496,1023.12424 361.639776,1025.16616 364.396421,1025.16616 C367.153067,1025.16616 369.483347,1023.12424 369.845422,1020.39146 C370.207497,1017.65868 368.489364,1015.08038 365.827833,1014.36249 L365.885089,1014.36249 Z" id="Shape" style="mix-blend-mode: color-dodge;"></path>
                    <path d="M687.7666,1004.44274 L687.7666,904.243242 L652.73996,869.216359 L652.73996,731.7999 L683.529622,731.7999 L683.529622,402.98808 L680.666799,402.98808 L680.666799,728.808229 L649.805567,728.808229 L649.805567,870.433067 L684.832207,905.474264 L684.832207,1004.45706 C682.170676,1005.17494 680.452543,1007.75324 680.814618,1010.48603 C681.176693,1013.21881 683.506973,1015.26072 686.263618,1015.26072 C689.020263,1015.26072 691.350544,1013.21881 691.712619,1010.48603 C692.074694,1007.75324 690.356561,1005.17494 687.69503,1004.45706 L687.7666,1004.44274 Z" id="Shape" style="mix-blend-mode: color-dodge;"></path>
                    <path d="M699.690258,979.922494 L699.690258,898.245586 L664.663618,863.204389 L664.663618,743.566185 L695.45328,743.566185 L695.45328,396.990424 L692.590457,396.990424 L692.590457,740.646085 L661.700596,740.646085 L661.700596,864.435411 L696.727237,899.462294 L696.727237,979.922494 C694.065706,980.640375 692.347573,983.218681 692.709648,985.951463 C693.071722,988.684245 695.402003,990.726156 698.158648,990.726156 C700.915293,990.726156 703.245574,988.684245 703.607649,985.951463 C703.969724,983.218681 702.25159,980.640375 699.59006,979.922494 L699.690258,979.922494 Z" id="Shape" style="mix-blend-mode: color-dodge;"></path>
                    <path d="M713.0167,975.041347 L713.0167,893.364439 L677.99006,858.323242 L677.99006,757.350773 L708.779722,757.350773 L708.779722,392.109277 L705.916899,392.109277 L705.916899,754.416359 L675.055666,754.416359 L675.055666,859.554264 L710.082306,894.581147 L710.082306,975.041347 C707.412632,975.759419 705.688119,978.344353 706.050274,981.085106 C706.412428,983.82586 708.749159,985.874147 711.513718,985.874147 C714.278276,985.874147 716.615007,983.82586 716.977162,981.085106 C717.339316,978.344353 715.614804,975.759419 712.945129,975.041347 L713.0167,975.041347 Z" id="Shape" style="mix-blend-mode: color-dodge;"></path>
                    <path d="M958.54672,1125.06863 L958.54672,1024.86913 L923.52008,989.842244 L923.52008,792.835711 L836.490258,792.835711 L836.490258,425.661796 L833.627435,425.661796 L833.627435,795.75581 L920.642942,795.75581 L920.642942,991.058953 L955.62664,1026.04289 L955.62664,1125.02569 C952.956966,1125.74376 951.232453,1128.32869 951.594608,1131.06945 C951.956762,1133.8102 954.293493,1135.85849 957.058052,1135.85849 C959.82261,1135.85849 962.159341,1133.8102 962.521496,1131.06945 C962.88365,1128.32869 961.159138,1125.74376 958.489463,1125.02569 L958.54672,1125.06863 Z" id="Shape" style="mix-blend-mode: color-dodge;"></path>
                    <path d="M970.484692,1100.47681 L970.484692,1018.88579 L935.443738,983.858903 L935.443738,779.408978 L848.413917,779.408978 L848.413917,425.661796 L845.551093,425.661796 L845.551093,782.343392 L932.523658,782.343392 L932.523658,985.046983 L967.564612,1020.07387 L967.564612,1100.47681 C964.903082,1101.19469 963.184948,1103.77299 963.547023,1106.50578 C963.909098,1109.23856 966.239379,1111.28047 968.996024,1111.28047 C971.752669,1111.28047 974.082949,1109.23856 974.445024,1106.50578 C974.807099,1103.77299 973.088966,1101.19469 970.427435,1100.47681 L970.484692,1100.47681 Z" id="Shape" style="mix-blend-mode: color-dodge;"></path>
                    <path d="M827.085885,1101.10663 L827.085885,1019.42973 L792.04493,984.402843 L792.04493,883.401746 L822.834592,883.401746 L822.834592,425.661796 L819.971769,425.661796 L819.971769,880.481646 L789.096223,880.481646 L789.096223,985.619551 L824.122863,1020.64643 L824.122863,1101.10663 C821.461332,1101.82451 819.743199,1104.40282 820.105274,1107.1356 C820.467349,1109.86838 822.797629,1111.9103 825.554274,1111.9103 C828.310919,1111.9103 830.6412,1109.86838 831.003275,1107.1356 C831.36535,1104.40282 829.647217,1101.82451 826.985686,1101.10663 L827.085885,1101.10663 Z" id="Shape" style="mix-blend-mode: color-dodge;"></path>
                    <path d="M759.036581,839.12788 L759.036581,694.554314 L724.00994,659.527431 L724.00994,522.110973 L754.799602,522.110973 L754.799602,268.820948 L751.936779,268.820948 L751.936779,519.090673 L721.104175,519.090673 L721.104175,660.715511 L756.173757,695.756708 L756.173757,839.12788 C753.504083,839.845952 751.779571,842.430886 752.141725,845.17164 C752.503879,847.912394 754.840611,849.960681 757.605169,849.960681 C760.369727,849.960681 762.706458,847.912394 763.068613,845.17164 C763.430767,842.430886 761.706255,839.845952 759.036581,839.12788 Z" id="Shape" style="mix-blend-mode: color-dodge;"></path>
                    <path d="M1218.01869,883.931372 L1218.01869,783.73187 L1182.99205,748.704988 L1182.99205,551.698454 L1095.96223,551.698454 L1095.96223,184.524539 L1093.0994,184.524539 L1093.0994,554.618554 L1180.11491,554.618554 L1180.11491,749.907382 L1215.15586,784.948579 L1215.15586,883.931372 C1212.48619,884.649444 1210.76168,887.234378 1211.12383,889.975131 C1211.48599,892.715885 1213.82272,894.764172 1216.58728,894.764172 C1219.35183,894.764172 1221.68857,892.715885 1222.05072,889.975131 C1222.41287,887.234378 1220.68836,884.649444 1218.01869,883.931372 Z" id="Shape" style="mix-blend-mode: color-dodge;"></path>
                    <path d="M1229.97097,859.396808 L1229.97097,777.734214 L1194.94433,742.693017 L1194.94433,538.271721 L1107.9002,538.271721 L1107.9002,184.524539 L1105.03738,184.524539 L1105.03738,541.19182 L1192.0672,541.19182 L1192.0672,743.909726 L1227.09384,778.936608 L1227.09384,859.396808 C1224.43231,860.114689 1222.71417,862.692995 1223.07625,865.425777 C1223.43832,868.158559 1225.7686,870.20047 1228.52525,870.20047 C1231.28189,870.20047 1233.61217,868.158559 1233.97425,865.425777 C1234.33632,862.692995 1232.61819,860.114689 1229.95666,859.396808 L1229.97097,859.396808 Z" id="Shape" style="mix-blend-mode: color-dodge;"></path>
                    <path d="M1027.88429,620.492569 L1054.62306,620.492569 L1054.62306,430.270973 L1026.2668,403.918504 L1026.2668,322.685337 L1057.32843,322.685337 L1057.32843,190.021197 C1059.71192,189.364486 1061.36369,187.197262 1061.36501,184.724938 C1061.36501,181.689217 1058.90409,179.228279 1055.86839,179.228279 C1054.40812,179.224476 1053.00635,179.801908 1051.97244,180.833144 C1050.93852,181.86438 1050.35745,183.26465 1050.35746,184.724938 C1050.35878,187.197262 1052.01054,189.364486 1054.39404,190.021197 L1054.39404,319.765237 L1023.33241,319.765237 L1023.33241,405.206783 L1051.68867,431.544938 L1051.68867,617.629726 L1024.96421,617.629726 L1024.96421,755.260898 L1059.99085,790.287781 L1059.99085,895.053516 C1058.55944,895.282544 1055.69662,898.045187 1059.00318,901.022544 C1059.70009,901.517736 1060.52522,901.801064 1061.37932,901.838454 C1062.3097,901.750742 1063.20671,901.446835 1063.99881,900.950973 C1064.93045,900.188062 1065.40975,899.003439 1065.27074,897.807332 C1065.13172,896.611224 1064.39351,895.568106 1063.31173,895.039202 C1063.17787,895.000021 1063.04837,894.947261 1062.92525,894.881746 L1062.92525,789.013815 L1027.89861,753.986933 L1027.88429,620.492569 Z" id="Shape" style="mix-blend-mode: color-dodge;"></path>
                    <path d="M1039.82227,634.04813 L1070.61193,634.04813 L1070.61193,422.75601 L1039.82227,391.651222 L1039.82227,336.999551 L1070.65487,336.999551 L1070.65487,141.753666 C1073.03325,141.098376 1074.6837,138.938728 1074.69145,136.471721 C1074.69145,133.428095 1072.22412,130.960748 1069.18052,130.960748 C1067.72024,130.960743 1066.31998,131.541818 1065.28875,132.57574 C1064.25752,133.609661 1063.68009,135.011438 1063.6839,136.471721 C1063.68675,138.940389 1065.33921,141.102661 1067.72048,141.753666 L1067.72048,334.065137 L1036.88787,334.065137 L1036.88787,392.853616 L1067.69185,423.958404 L1067.69185,631.12803 L1036.88787,631.12803 L1036.88787,754.917357 L1071.92883,789.944239 L1071.92883,881.183042 L1074.79165,881.183042 L1074.79165,788.713217 L1039.76501,753.686334 L1039.82227,634.04813 Z" id="Shape" style="mix-blend-mode: color-dodge;"></path>
                    <path d="M1086.55785,859.998005 L1086.55785,778.292469 L1051.53121,743.265586 L1051.53121,642.264489 L1082.32087,642.264489 L1082.32087,184.524539 L1079.45805,184.524539 L1079.45805,639.344389 L1048.59682,639.344389 L1048.59682,744.482294 L1083.62346,779.509177 L1083.62346,859.998005 C1080.96193,860.715886 1079.2438,863.294192 1079.60587,866.026974 C1079.96795,868.759756 1082.29823,870.801667 1085.05487,870.801667 C1087.81152,870.801667 1090.1418,868.759756 1090.50387,866.026974 C1090.86595,863.294192 1089.14781,860.715886 1086.48628,859.998005 L1086.55785,859.998005 Z" id="Shape" style="mix-blend-mode: color-dodge;"></path>
                    <path d="M1018.53718,598.04788 L1018.53718,453.474314 L983.496223,418.361546 L983.496223,280.945087 L1014.28588,280.945087 L1014.28588,27.6407481 L1011.42306,27.6407481 L1011.42306,277.953416 L980.576143,277.953416 L980.576143,419.578254 L980.747913,419.750025 L980.747913,729.166085 L949.95825,729.166085 L949.95825,870.790923 L984.970577,905.803491 L984.970577,1004.78628 C982.300902,1005.50436 980.57639,1008.08929 980.938544,1010.83004 C981.300699,1013.5708 983.63743,1015.61908 986.401988,1015.61908 C989.166546,1015.61908 991.503278,1013.5708 991.865432,1010.83004 C992.227586,1008.08929 990.503074,1005.50436 987.8334,1004.78628 L987.8334,904.586783 L952.792445,869.5599 L952.792445,732.143441 L983.582107,732.143441 L983.582107,422.670125 L992.585686,431.673766 L992.585686,740.989626 L961.881909,740.989626 L961.881909,864.764638 L996.922863,899.805835 L996.922863,980.237406 C994.261332,980.955288 992.543199,983.533593 992.905274,986.266375 C993.267349,988.999157 995.597629,991.041068 998.354274,991.041068 C1001.11092,991.041068 1003.4412,988.999157 1003.80327,986.266375 C1004.16535,983.533593 1002.44722,980.955288 999.785686,980.237406 L999.785686,898.646384 L964.759046,863.605187 L964.759046,743.92404 L995.534394,743.92404 L995.534394,434.60818 L1005.92644,445.000299 L1005.92644,754.7599 L975.179722,754.7599 L975.179722,859.897805 L1010.20636,894.939002 L1010.20636,975.399202 C1007.53669,976.117274 1005.81218,978.702208 1006.17433,981.442962 C1006.53648,984.183715 1008.87322,986.232002 1011.63777,986.232002 C1014.40233,986.232002 1016.73906,984.183715 1017.10122,981.442962 C1017.46337,978.702208 1015.73886,976.117274 1013.06918,975.399202 L1013.06918,893.722294 L978.042545,858.695411 L978.042545,757.694314 L1008.83221,757.694314 L1008.83221,447.920399 L1015.5169,454.605137 L1015.5169,598.04788 C1012.85537,598.765762 1011.13723,601.344067 1011.49931,604.076849 C1011.86138,606.809631 1014.19167,608.851542 1016.94831,608.851542 C1019.70496,608.851542 1022.03524,606.809631 1022.39731,604.076849 C1022.75939,601.344067 1021.04125,598.765762 1018.37972,598.04788 L1018.53718,598.04788 Z" id="Shape" style="mix-blend-mode: color-dodge;"></path>
                    <path d="M1408.43936,850.06394 L1408.43936,749.864439 L1373.39841,714.837556 L1373.39841,577.421097 L1404.18807,577.421097 L1404.18807,324.102444 L1401.32525,324.102444 L1401.32525,574.415112 L1370.47833,574.415112 L1370.47833,770.51985 C1367.80866,771.237922 1366.08414,773.822856 1366.4463,776.56361 C1366.80845,779.304364 1369.14518,781.352651 1371.90974,781.352651 C1374.6743,781.352651 1377.01103,779.304364 1377.37319,776.56361 C1377.73534,773.822856 1376.01083,771.237922 1373.34115,770.51985 L1373.34115,718.96005 L1382.34473,727.963691 L1382.34473,816.71182 C1379.6832,817.429702 1377.96507,820.008007 1378.32714,822.740789 C1378.68922,825.473571 1381.0195,827.515482 1383.77614,827.515482 C1386.53279,827.515482 1388.86307,825.473571 1389.22514,822.740789 C1389.58722,820.008007 1387.86909,817.429702 1385.20755,816.71182 L1385.20755,730.898105 L1405.37614,751.066833 L1405.37614,850.049626 C1402.72632,850.783571 1401.02646,853.362644 1401.39681,856.087197 C1401.76715,858.811751 1404.09375,860.843506 1406.84334,860.843506 C1409.59293,860.843506 1411.91953,858.811751 1412.28987,856.087197 C1412.66022,853.362644 1410.96036,850.783571 1408.31054,850.049626 L1408.43936,850.06394 Z" id="Shape" style="mix-blend-mode: color-dodge;"></path>
                </g>
            </g>
        </g>
    </g>
</svg>