<?xml version="1.0" encoding="UTF-8"?>
<svg xmlns="http://www.w3.org/2000/svg" xmlns:xlink="http://www.w3.org/1999/xlink" width="80px" height="98px" viewBox="0 0 80 98" version="1.1">
  <title>基础服务</title>
  <defs>
    <linearGradient x1="1.79368595e-05%" y1="49.9999598%" x2="100.000176%" y2="49.9999598%" id="linearGradient-1">
      <stop stop-color="#D2DEFF" stop-opacity="0" offset="0%"></stop>
      <stop stop-color="#B7C5FF" offset="100%"></stop>
    </linearGradient>
  </defs>
  <g id="服务与资源" stroke="none" stroke-width="1" fill="none" fill-rule="evenodd">
    <g id="服务与资源最终稿" transform="translate(-219.000000, -950.000000)" fill-rule="nonzero">
      <g id="编组-5" transform="translate(0.000000, 850.000000)">
        <g id="编组-4" transform="translate(218.000000, 100.000000)">
          <g id="基础服务" transform="translate(1.000000, 0.000000)">
            <path d="M9.88530806,7.24777251 C-15.7692891,29.9090047 17.2466351,51.8750711 14.1019905,76.6369668 C12.7038863,87.6458768 17.1454028,98.170237 31.6763981,96.9675829 C49.3850237,95.5018009 42.9567773,78.5393365 46.6652133,67.2466351 C53.0462559,47.8151659 92.3012322,52.3537441 76.0291943,22.4223697 C65.6447393,3.32132701 27.5425592,-8.34938389 9.88530806,7.24777251 Z" id="路径" fill="url(#linearGradient-1)"></path>
            <path d="M63.4820853,26.3581043 C62.9584834,26.3581043 62.534218,25.9336493 62.534218,25.410237 C62.534218,22.5802844 60.2318483,20.2779147 57.4018957,20.2779147 L38.4341232,20.2779147 C34.5588626,20.2779147 31.4060664,17.1251185 31.4060664,13.2498578 L31.4060664,8.0214218 C31.4060664,7.49800948 31.8305213,7.0735545 32.3539336,7.0735545 C32.877346,7.0735545 33.3018009,7.49800948 33.3018009,8.0214218 L33.3018009,13.2498578 C33.3018009,16.0798104 35.6041706,18.3821801 38.4341232,18.3821801 L57.4018957,18.3821801 C61.2771564,18.3821801 64.4299526,21.5349763 64.4299526,25.410237 C64.4299526,25.9336493 64.0056872,26.3581043 63.4820853,26.3581043 Z" id="路径" fill="#326DE6"></path>
            <path d="M67.6119431,27.1050237 L59.3522275,27.1050237 L59.3522275,22.7562085 C59.3522275,21.7091943 60.2009479,20.8604739 61.2479621,20.8604739 L65.7162085,20.8604739 C66.7632227,20.8604739 67.6119431,21.7091943 67.6119431,22.7562085 L67.6119431,27.1050237 Z" id="路径" fill="#FFFFFF"></path>
            <g id="编组" opacity="0.1" transform="translate(2.843602, 24.644550)" fill="#2626BC">
              <path d="M72.3651185,5.74616114 L28.374218,5.74616114 L28.374218,3.90597156 C28.374218,1.81194313 26.6767773,0.11450237 24.5827488,0.11450237 L11.6887204,0.11450237 C9.59469194,0.11450237 7.89725118,1.81194313 7.89725118,3.90597156 L7.89725118,5.74616114 L1.94767773,5.74616114 C0.900663507,5.74616114 0.051943128,6.59488152 0.051943128,7.64189573 L0.051943128,57.8163033 C0.051943128,58.8633175 0.900663507,59.7120379 1.94767773,59.7120379 L7.89744076,59.7120379 L7.89744076,61.5522275 C7.89744076,63.6462559 9.59488152,65.3436967 11.68891,65.3436967 L24.5829384,65.3436967 C26.6769668,65.3436967 28.3744076,63.6462559 28.3744076,61.5522275 L28.3744076,59.7120379 L72.3653081,59.7120379 C73.4123223,59.7120379 74.2610427,58.8633175 74.2610427,57.8163033 L74.2610427,7.64189573 C74.2610427,6.59488152 73.4121327,5.74616114 72.3651185,5.74616114 Z" id="路径"></path>
            </g>
            <path d="M75.2087204,79.8066351 L4.79127962,79.8066351 C3.7442654,79.8066351 2.89554502,78.9579147 2.89554502,77.9109005 L2.89554502,27.7364929 C2.89554502,26.6894787 3.7442654,25.8407583 4.79127962,25.8407583 L75.2087204,25.8407583 C76.2557346,25.8407583 77.104455,26.6894787 77.104455,27.7364929 L77.104455,77.9109005 C77.104455,78.9579147 76.2557346,79.8066351 75.2087204,79.8066351 Z" id="路径" fill="#FFFFFF"></path>
            <path d="M31.2178199,33.6957346 L31.2178199,24.0005687 C31.2178199,21.9065403 29.5203791,20.2090995 27.4263507,20.2090995 L14.5323223,20.2090995 C12.4382938,20.2090995 10.7408531,21.9065403 10.7408531,24.0005687 L10.7408531,33.6957346 C10.7408531,34.6602844 11.4616114,35.4547867 12.3937441,35.574218 L12.3937441,70.0733649 C11.4618009,70.1927962 10.7408531,70.9872986 10.7408531,71.9518483 L10.7408531,81.6470142 C10.7408531,83.7410427 12.4382938,85.4384834 14.5323223,85.4384834 L27.4263507,85.4384834 C29.5203791,85.4384834 31.2178199,83.7410427 31.2178199,81.6470142 L31.2178199,71.9518483 C31.2178199,70.9872986 30.4970616,70.1927962 29.5649289,70.0733649 L29.5649289,35.574218 C30.4970616,35.4547867 31.2178199,34.6602844 31.2178199,33.6957346 Z" id="路径" fill="#FFFFFF"></path>
            <path d="M70.2047393,32.4181991 L70.2047393,38.8314692 C70.2047393,39.8779147 69.357346,40.7272038 68.3090047,40.7272038 L40,40.7272038 C38.9535545,40.7272038 38.1042654,39.8779147 38.1042654,38.8314692 L38.1042654,32.4181991 C38.1042654,31.3698578 38.9535545,30.5224645 40,30.5224645 L68.3090047,30.5224645 C69.357346,30.5224645 70.2047393,31.3698578 70.2047393,32.4181991 L70.2047393,32.4181991 Z" id="路径" fill="#658DFE"></path>
            <path d="M38.549763,47.71109 C38.4606635,47.7774408 38.4094787,47.8058768 38.3962085,47.7926066 C38.3620853,47.7584834 38.4189573,47.7319431 38.549763,47.71109 Z" id="路径" fill="#97FFD2"></path>
            <circle id="椭圆形" fill="#658DFE" cx="41.1531754" cy="47.4999052" r="3.04890995"></circle>
            <circle id="椭圆形" fill="#658DFE" cx="50.2527014" cy="47.4999052" r="3.04890995"></circle>
            <circle id="椭圆形" fill="#658DFE" cx="59.3522275" cy="47.4999052" r="3.04890995"></circle>
            <circle id="椭圆形" fill="#658DFE" cx="41.1562085" cy="55.397346" r="3.04909953"></circle>
            <circle id="椭圆形" fill="#658DFE" cx="50.2938389" cy="55.3876777" r="3.05042654"></circle>
            <circle id="椭圆形" fill="#658DFE" cx="59.3349763" cy="55.3948815" r="3.04853081"></circle>
            <circle id="椭圆形" fill="#658DFE" cx="41.1719431" cy="63.2519431" r="3.04872038"></circle>
            <circle id="椭圆形" fill="#658DFE" cx="50.2758294" cy="63.3118483" r="3.04985782"></circle>
            <circle id="椭圆形" fill="#658DFE" cx="59.3804739" cy="63.283981" r="3.04966825"></circle>
            <path d="M68.5636019,48.1450237 L67.3287204,48.1450237 C66.4219905,48.1450237 65.6870142,47.4100474 65.6870142,46.5033175 C65.6870142,45.5965877 66.4219905,44.8616114 67.3287204,44.8616114 L68.5636019,44.8616114 C69.4703318,44.8616114 70.2053081,45.5965877 70.2053081,46.5033175 C70.2053081,47.4100474 69.4703318,48.1450237 68.5636019,48.1450237 Z" id="路径" fill="#658DFE"></path>
            <path d="M68.5636019,54.1279621 L67.3287204,54.1279621 C66.4219905,54.1279621 65.6870142,53.3929858 65.6870142,52.4862559 C65.6870142,51.5795261 66.4219905,50.8445498 67.3287204,50.8445498 L68.5636019,50.8445498 C69.4703318,50.8445498 70.2053081,51.5795261 70.2053081,52.4862559 C70.2053081,53.3929858 69.4703318,54.1279621 68.5636019,54.1279621 Z" id="路径" fill="#658DFE"></path>
            <path d="M68.5636019,60.11109 L67.3287204,60.11109 C66.4219905,60.11109 65.6870142,59.3761137 65.6870142,58.4693839 C65.6870142,57.562654 66.4219905,56.8276777 67.3287204,56.8276777 L68.5636019,56.8276777 C69.4703318,56.8276777 70.2053081,57.562654 70.2053081,58.4693839 C70.2053081,59.3759242 69.4703318,60.11109 68.5636019,60.11109 Z" id="路径" fill="#6583FE"></path>
            <path d="M68.5636019,66.0940284 L67.3287204,66.0940284 C66.4219905,66.0940284 65.6870142,65.3590521 65.6870142,64.4523223 C65.6870142,63.5455924 66.4219905,62.8106161 67.3287204,62.8106161 L68.5636019,62.8106161 C69.4703318,62.8106161 70.2053081,63.5455924 70.2053081,64.4523223 C70.2053081,65.3590521 69.4703318,66.0940284 68.5636019,66.0940284 Z" id="路径" fill="#658DFE"></path>
            <path d="M39.4303318,72.0674882 C38.9067299,72.0674882 38.4824645,71.6430332 38.4824645,71.1196209 L38.4824645,71.0978199 C38.4824645,70.5744076 38.9067299,70.1499526 39.4303318,70.1499526 C39.9539336,70.1499526 40.3781991,70.5744076 40.3781991,71.0978199 L40.3781991,71.1196209 C40.3781991,71.6430332 39.9539336,72.0674882 39.4303318,72.0674882 Z" id="路径" fill="#2643BC"></path>
            <path d="M43.411564,72.0674882 C42.8879621,72.0674882 42.4636967,71.6430332 42.4636967,71.1196209 L42.4636967,71.0978199 C42.4636967,70.5744076 42.8879621,70.1499526 43.411564,70.1499526 C43.9351659,70.1499526 44.3594313,70.5744076 44.3594313,71.0978199 L44.3594313,71.1196209 C44.3594313,71.6430332 43.9351659,72.0674882 43.411564,72.0674882 Z" id="路径" fill="#2643BC"></path>
            <path d="M47.3927962,72.0674882 C46.8691943,72.0674882 46.4449289,71.6430332 46.4449289,71.1196209 L46.4449289,71.0978199 C46.4449289,70.5744076 46.8691943,70.1499526 47.3927962,70.1499526 C47.9163981,70.1499526 48.3406635,70.5744076 48.3406635,71.0978199 L48.3406635,71.1196209 C48.3406635,71.6430332 47.9163981,72.0674882 47.3927962,72.0674882 Z" id="路径" fill="#2643BC"></path>
            <path d="M51.374218,72.0674882 C50.8506161,72.0674882 50.4263507,71.6430332 50.4263507,71.1196209 L50.4263507,71.0978199 C50.4263507,70.5744076 50.8506161,70.1499526 51.374218,70.1499526 C51.8978199,70.1499526 52.3220853,70.5744076 52.3220853,71.0978199 L52.3220853,71.1196209 C52.3220853,71.6430332 51.8976303,72.0674882 51.374218,72.0674882 Z" id="路径" fill="#2643BC"></path>
            <path d="M39.4303318,75.0987678 C38.9067299,75.0987678 38.4824645,74.6743128 38.4824645,74.1509005 L38.4824645,74.1290995 C38.4824645,73.6056872 38.9067299,73.1812322 39.4303318,73.1812322 C39.9539336,73.1812322 40.3781991,73.6056872 40.3781991,74.1290995 L40.3781991,74.1509005 C40.3781991,74.6743128 39.9539336,75.0987678 39.4303318,75.0987678 Z" id="路径" fill="#2643BC"></path>
            <path d="M43.411564,75.0987678 C42.8879621,75.0987678 42.4636967,74.6743128 42.4636967,74.1509005 L42.4636967,74.1290995 C42.4636967,73.6056872 42.8879621,73.1812322 43.411564,73.1812322 C43.9351659,73.1812322 44.3594313,73.6056872 44.3594313,74.1290995 L44.3594313,74.1509005 C44.3594313,74.6743128 43.9351659,75.0987678 43.411564,75.0987678 Z" id="路径" fill="#2643BC"></path>
            <path d="M47.3927962,75.0987678 C46.8691943,75.0987678 46.4449289,74.6743128 46.4449289,74.1509005 L46.4449289,74.1290995 C46.4449289,73.6056872 46.8691943,73.1812322 47.3927962,73.1812322 C47.9163981,73.1812322 48.3406635,73.6056872 48.3406635,74.1290995 L48.3406635,74.1509005 C48.3406635,74.6743128 47.9163981,75.0987678 47.3927962,75.0987678 Z" id="路径" fill="#2643BC"></path>
            <path d="M51.374218,75.0987678 C50.8506161,75.0987678 50.4263507,74.6743128 50.4263507,74.1509005 L50.4263507,74.1290995 C50.4263507,73.6056872 50.8506161,73.1812322 51.374218,73.1812322 C51.8978199,73.1812322 52.3220853,73.6056872 52.3220853,74.1290995 L52.3220853,74.1509005 C52.3220853,74.6743128 51.8976303,75.0987678 51.374218,75.0987678 Z" id="路径" fill="#2643BC"></path>
            <path d="M57.2511848,72.0674882 C56.7275829,72.0674882 56.3033175,71.6430332 56.3033175,71.1196209 L56.3033175,71.0978199 C56.3033175,70.5744076 56.7275829,70.1499526 57.2511848,70.1499526 C57.7747867,70.1499526 58.1990521,70.5744076 58.1990521,71.0978199 L58.1990521,71.1196209 C58.1990521,71.6430332 57.7747867,72.0674882 57.2511848,72.0674882 Z" id="路径" fill="#2643BC"></path>
            <path d="M61.2324171,72.0674882 C60.7088152,72.0674882 60.2845498,71.6430332 60.2845498,71.1196209 L60.2845498,71.0978199 C60.2845498,70.5744076 60.7088152,70.1499526 61.2324171,70.1499526 C61.756019,70.1499526 62.1802844,70.5744076 62.1802844,71.0978199 L62.1802844,71.1196209 C62.1802844,71.6430332 61.756019,72.0674882 61.2324171,72.0674882 Z" id="路径" fill="#2643BC"></path>
            <path d="M65.2136493,72.0674882 C64.6900474,72.0674882 64.265782,71.6430332 64.265782,71.1196209 L64.265782,71.0978199 C64.265782,70.5744076 64.6900474,70.1499526 65.2136493,70.1499526 C65.7372512,70.1499526 66.1615166,70.5744076 66.1615166,71.0978199 L66.1615166,71.1196209 C66.1615166,71.6430332 65.7372512,72.0674882 65.2136493,72.0674882 Z" id="路径" fill="#2643BC"></path>
            <path d="M69.1948815,72.0674882 C68.6712796,72.0674882 68.2470142,71.6430332 68.2470142,71.1196209 L68.2470142,71.0978199 C68.2470142,70.5744076 68.6712796,70.1499526 69.1948815,70.1499526 C69.7184834,70.1499526 70.1427488,70.5744076 70.1427488,71.0978199 L70.1427488,71.1196209 C70.1427488,71.6430332 69.7184834,72.0674882 69.1948815,72.0674882 Z" id="路径" fill="#2643BC"></path>
            <path d="M57.2511848,75.0987678 C56.7275829,75.0987678 56.3033175,74.6743128 56.3033175,74.1509005 L56.3033175,74.1290995 C56.3033175,73.6056872 56.7275829,73.1812322 57.2511848,73.1812322 C57.7747867,73.1812322 58.1990521,73.6056872 58.1990521,74.1290995 L58.1990521,74.1509005 C58.1990521,74.6743128 57.7747867,75.0987678 57.2511848,75.0987678 Z" id="路径" fill="#2643BC"></path>
            <path d="M61.2324171,75.0987678 C60.7088152,75.0987678 60.2845498,74.6743128 60.2845498,74.1509005 L60.2845498,74.1290995 C60.2845498,73.6056872 60.7088152,73.1812322 61.2324171,73.1812322 C61.756019,73.1812322 62.1802844,73.6056872 62.1802844,74.1290995 L62.1802844,74.1509005 C62.1802844,74.6743128 61.756019,75.0987678 61.2324171,75.0987678 Z" id="路径" fill="#2643BC"></path>
            <path d="M65.2136493,75.0987678 C64.6900474,75.0987678 64.265782,74.6743128 64.265782,74.1509005 L64.265782,74.1290995 C64.265782,73.6056872 64.6900474,73.1812322 65.2136493,73.1812322 C65.7372512,73.1812322 66.1615166,73.6056872 66.1615166,74.1290995 L66.1615166,74.1509005 C66.1615166,74.6743128 65.7372512,75.0987678 65.2136493,75.0987678 Z" id="路径" fill="#2643BC"></path>
            <path d="M69.1948815,75.0987678 C68.6712796,75.0987678 68.2470142,74.6743128 68.2470142,74.1509005 L68.2470142,74.1290995 C68.2470142,73.6056872 68.6712796,73.1812322 69.1948815,73.1812322 C69.7184834,73.1812322 70.1427488,73.6056872 70.1427488,74.1290995 L70.1427488,74.1509005 C70.1427488,74.6743128 69.7184834,75.0987678 69.1948815,75.0987678 Z" id="路径" fill="#2643BC"></path>
            <path d="M23.3806635,62.2472038 L18.5781991,62.2472038 C17.5311848,62.2472038 16.6824645,61.3984834 16.6824645,60.3514692 L16.6824645,45.2961137 C16.6824645,44.2490995 17.5311848,43.4003791 18.5781991,43.4003791 L23.3806635,43.4003791 C24.4276777,43.4003791 25.2763981,44.2490995 25.2763981,45.2961137 L25.2763981,60.3514692 C25.2763981,61.3984834 24.4276777,62.2472038 23.3806635,62.2472038 Z" id="路径" fill="#FFFFFF"></path>
            <path d="M25.2763981,48.2108057 L25.2763981,45.2961137 C25.2763981,44.2490995 24.4276777,43.4003791 23.3806635,43.4003791 L18.5781991,43.4003791 C17.5311848,43.4003791 16.6824645,44.2490995 16.6824645,45.2961137 L16.6824645,48.2108057 L25.2763981,48.2108057 Z" id="路径" fill="#658DFE"></path>
            <path d="M23.3806635,63.1950711 L18.5781991,63.1950711 C17.010237,63.1950711 15.7345972,61.9194313 15.7345972,60.3514692 L15.7345972,45.2961137 C15.7345972,43.7281517 17.010237,42.4525118 18.5781991,42.4525118 L23.3806635,42.4525118 C24.9486256,42.4525118 26.2242654,43.7281517 26.2242654,45.2961137 L26.2242654,60.3514692 C26.2242654,61.9194313 24.9486256,63.1950711 23.3806635,63.1950711 Z M18.5781991,44.3482464 C18.055545,44.3482464 17.6303318,44.7734597 17.6303318,45.2961137 L17.6303318,60.3514692 C17.6303318,60.8741232 18.055545,61.2993365 18.5781991,61.2993365 L23.3806635,61.2993365 C23.9033175,61.2993365 24.3285308,60.8741232 24.3285308,60.3514692 L24.3285308,45.2961137 C24.3285308,44.7734597 23.9033175,44.3482464 23.3806635,44.3482464 L18.5781991,44.3482464 Z" id="形状" fill="#326DE6"></path>
            <path d="M48.3408531,93.0212322 C47.8172512,93.0212322 47.3929858,92.5967773 47.3929858,92.0733649 C47.3929858,91.4460664 46.882654,90.9359242 46.2553555,90.9359242 C45.7317536,90.9359242 45.3074882,90.5114692 45.3074882,89.9880569 C45.3074882,89.4646445 45.7317536,89.0401896 46.2553555,89.0401896 C46.882654,89.0401896 47.3929858,88.5300474 47.3929858,87.9027488 C47.3929858,87.3793365 47.8172512,86.9548815 48.3408531,86.9548815 C48.864455,86.9548815 49.2887204,87.3793365 49.2887204,87.9027488 C49.2887204,88.5300474 49.7988626,89.0401896 50.4259716,89.0401896 C50.9495735,89.0401896 51.3738389,89.4646445 51.3738389,89.9880569 C51.3738389,90.5114692 50.9495735,90.9359242 50.4259716,90.9359242 C49.7988626,90.9359242 49.2887204,91.4460664 49.2887204,92.0733649 C49.2887204,92.5969668 48.864455,93.0212322 48.3408531,93.0212322 Z" id="路径" fill="#6589FE"></path>
            <path d="M59.3522275,92.7014218 C58.8286256,92.7014218 58.4043602,92.2769668 58.4043602,91.7535545 C58.4043602,91.1262559 57.894218,90.6161137 57.2669194,90.6161137 C56.7433175,90.6161137 56.3190521,90.1916588 56.3190521,89.6682464 C56.3190521,89.1448341 56.7433175,88.7203791 57.2669194,88.7203791 C57.894218,88.7203791 58.4043602,88.210237 58.4043602,87.5829384 C58.4043602,87.0595261 58.8286256,86.6350711 59.3522275,86.6350711 C59.8758294,86.6350711 60.3000948,87.0595261 60.3000948,87.5829384 C60.3000948,88.210237 60.810237,88.7203791 61.4375355,88.7203791 C61.9611374,88.7203791 62.3854028,89.1448341 62.3854028,89.6682464 C62.3854028,90.1916588 61.9611374,90.6161137 61.4375355,90.6161137 C60.810237,90.6161137 60.3000948,91.1262559 60.3000948,91.7535545 C60.3000948,92.2769668 59.8758294,92.7014218 59.3522275,92.7014218 Z" id="路径" fill="#6589FE"></path>
            <path d="M73.5545024,13.1397156 C73.0309005,13.1397156 72.6066351,12.7152607 72.6066351,12.1918483 C72.6066351,11.5645498 72.0964929,11.0544076 71.4691943,11.0544076 C70.9455924,11.0544076 70.521327,10.6299526 70.521327,10.1065403 C70.521327,9.58312796 70.9455924,9.15867299 71.4691943,9.15867299 C72.0964929,9.15867299 72.6066351,8.64853081 72.6066351,8.02123223 C72.6066351,7.49781991 73.0309005,7.07336493 73.5545024,7.07336493 C74.0781043,7.07336493 74.5023697,7.49781991 74.5023697,8.02123223 C74.5023697,8.64853081 75.0125118,9.15867299 75.6398104,9.15867299 C76.1634123,9.15867299 76.5876777,9.58312796 76.5876777,10.1065403 C76.5876777,10.6299526 76.1634123,11.0544076 75.6398104,11.0544076 C75.0125118,11.0544076 74.5023697,11.5645498 74.5023697,12.1918483 C74.5023697,12.7154502 74.0781043,13.1397156 73.5545024,13.1397156 Z" id="路径" fill="#6589FE"></path>
            <path d="M22.3732701,14.5336493 C22.1306161,14.5336493 21.8881517,14.4411374 21.7029384,14.2561137 L19.6176303,12.1708057 C19.2473934,11.8005687 19.2473934,11.2003791 19.6176303,10.8303318 L21.7029384,8.7450237 C22.0731754,8.3749763 22.6731754,8.3749763 23.0434123,8.7450237 L25.1287204,10.8303318 C25.4989573,11.2005687 25.4989573,11.8007583 25.1287204,12.1708057 L23.0434123,14.2561137 C22.8583886,14.4409479 22.6157346,14.5336493 22.3732701,14.5336493 Z M21.628436,11.5004739 L22.3732701,12.2453081 L23.1181043,11.5004739 L22.3732701,10.7556398 L21.628436,11.5004739 Z" id="形状" fill="#6589FE"></path>
            <path d="M61.2324171,11.0544076 C60.9899526,11.0544076 60.747109,10.9618957 60.5622749,10.776872 L58.4769668,8.69156398 C58.1067299,8.32132701 58.1067299,7.72113744 58.4769668,7.35109005 L60.5622749,5.26578199 C60.9321327,4.8957346 61.5327014,4.8957346 61.9025592,5.26578199 L63.9878673,7.35109005 C64.3581043,7.72132701 64.3581043,8.32151659 63.9878673,8.69156398 L61.9025592,10.776872 C61.7177251,10.9618957 61.4748815,11.0544076 61.2324171,11.0544076 L61.2324171,11.0544076 Z M60.4875829,8.02123223 L61.2324171,8.76606635 L61.9772512,8.02123223 L61.2324171,7.2763981 L60.4875829,8.02123223 Z" id="形状" fill="#6589FE"></path>
            <path d="M9.79317536,24.0005687 L9.79317536,24.892891 L4.79127962,24.892891 C3.22331754,24.892891 1.94767773,26.1685308 1.94767773,27.7364929 L1.94767773,77.9109005 C1.94767773,79.4788626 3.22331754,80.7545024 4.79127962,80.7545024 L9.79317536,80.7545024 L9.79317536,81.6468246 C9.79317536,84.2600948 11.9192417,86.3861611 14.5325118,86.3861611 L27.4265403,86.3861611 C30.0398104,86.3861611 32.1658768,84.2600948 32.1658768,81.6468246 L32.1658768,80.7545024 L75.20891,80.7545024 C76.776872,80.7545024 78.0525118,79.4788626 78.0525118,77.9109005 L78.0525118,27.7366825 C78.0525118,26.1687204 76.776872,24.8930806 75.20891,24.8930806 L68.56,24.8930806 L68.56,22.7562085 C68.56,21.1882464 67.2845498,19.9126066 65.7163981,19.9126066 L64.3643602,19.9126066 C63.8999052,16.4841706 60.9556398,13.8324171 57.4018957,13.8324171 L38.4341232,13.8324171 C35.6041706,13.8324171 33.3018009,11.5300474 33.3018009,8.70009479 L33.3018009,8.0214218 C33.3018009,7.49800948 32.877346,7.0735545 32.3539336,7.0735545 C31.8305213,7.0735545 31.4060664,7.49800948 31.4060664,8.0214218 L31.4060664,8.70009479 C31.4060664,12.5753555 34.5588626,15.7281517 38.4341232,15.7281517 L57.4018957,15.7281517 C59.9080569,15.7281517 61.9990521,17.5340284 62.4451185,19.9126066 L61.2479621,19.9126066 C59.6798104,19.9126066 58.4043602,21.1882464 58.4043602,22.7562085 L58.4043602,24.8930806 L37.5990521,24.8930806 C37.0756398,24.8930806 36.6511848,25.3175355 36.6511848,25.8409479 C36.6511848,26.3643602 37.0756398,26.7888152 37.5990521,26.7888152 L75.20891,26.7888152 C75.731564,26.7888152 76.1567773,27.2140284 76.1567773,27.7366825 L76.1567773,77.9109005 C76.1567773,78.4335545 75.731564,78.8587678 75.20891,78.8587678 L32.1656872,78.8587678 L32.1656872,71.9516588 C32.1656872,70.8214218 31.4953555,69.8254028 30.5127962,69.3709953 L30.5127962,63.0324171 C30.5127962,62.5090047 30.0883412,62.0845498 29.5649289,62.0845498 C29.0415166,62.0845498 28.6170616,62.5090047 28.6170616,63.0324171 L28.6170616,70.0731754 C28.6170616,70.5501422 28.9713744,70.9527962 29.4443602,71.0134597 C29.9148815,71.0737441 30.2699526,71.4771564 30.2699526,71.9516588 L30.2699526,81.6468246 C30.2699526,83.2147867 28.9943128,84.4904265 27.4263507,84.4904265 L14.5323223,84.4904265 C12.9643602,84.4904265 11.6887204,83.2147867 11.6887204,81.6468246 L11.6887204,71.9516588 C11.6887204,71.4771564 12.0436019,71.0737441 12.5141232,71.0134597 C12.987109,70.9527962 13.3414218,70.5501422 13.3414218,70.0731754 L13.3414218,35.574218 C13.3414218,35.0972512 12.987109,34.6945972 12.5141232,34.6339336 C12.0436019,34.5736493 11.6887204,34.170237 11.6887204,33.695545 L11.6887204,24.0003791 C11.6887204,22.4324171 12.9643602,21.1567773 14.5323223,21.1567773 L27.4263507,21.1567773 C28.9943128,21.1567773 30.2699526,22.4324171 30.2699526,24.0003791 L30.2699526,33.695545 C30.2699526,34.1700474 29.9150711,34.5734597 29.4443602,34.6339336 C28.9713744,34.6945972 28.6170616,35.0972512 28.6170616,35.574218 L28.6170616,56.6513744 C28.6170616,57.1747867 29.0415166,57.5992417 29.5649289,57.5992417 C30.0883412,57.5992417 30.5127962,57.1747867 30.5127962,56.6513744 L30.5127962,36.2763981 C31.4953555,35.8219905 32.1656872,34.8261611 32.1656872,33.6957346 L32.1656872,24.0005687 C32.1656872,21.3872986 30.0396209,19.2612322 27.4263507,19.2612322 L14.5323223,19.2612322 C11.9190521,19.2612322 9.79317536,21.3872986 9.79317536,24.0005687 Z M60.3000948,22.7562085 C60.3000948,22.2335545 60.7253081,21.8083412 61.2479621,21.8083412 L65.7162085,21.8083412 C66.2388626,21.8083412 66.6640758,22.2335545 66.6640758,22.7562085 L66.6640758,24.8930806 L60.3000948,24.8930806 L60.3000948,22.7562085 Z M11.4458768,69.3711848 C10.4633175,69.8255924 9.79298578,70.8214218 9.79298578,71.9518483 L9.79298578,78.8589573 L4.79127962,78.8589573 C4.26862559,78.8589573 3.84341232,78.4337441 3.84341232,77.91109 L3.84341232,27.7366825 C3.84341232,27.2140284 4.26862559,26.7888152 4.79127962,26.7888152 L9.79317536,26.7888152 L9.79317536,33.6957346 C9.79317536,34.8261611 10.4635071,35.8219905 11.4460664,36.2763981 L11.4458768,69.3711848 Z" id="形状" fill="#326DE6"></path>
          </g>
        </g>
      </g>
    </g>
  </g>
</svg>
