<?xml version="1.0" encoding="UTF-8"?>
<svg xmlns="http://www.w3.org/2000/svg" xmlns:xlink="http://www.w3.org/1999/xlink" width="80px" height="69px" viewBox="0 0 80 69" version="1.1">
  <title>技术认证</title>
  <defs>
    <linearGradient x1="7.11582657%" y1="32.3463919%" x2="101.444702%" y2="70.7117461%" id="linearGradient-1">
      <stop stop-color="#D2DEFF" stop-opacity="0" offset="0%"></stop>
      <stop stop-color="#B7C5FF" offset="100%"></stop>
    </linearGradient>
  </defs>
  <g id="服务与资源" stroke="none" stroke-width="1" fill="none" fill-rule="evenodd">
    <g id="服务与资源最终稿" transform="translate(-219.000000, -1814.000000)" fill-rule="nonzero">
      <g id="编组-5" transform="translate(0.000000, 850.000000)">
        <g id="编组-4" transform="translate(218.000000, 100.000000)">
          <g id="编组-3备份-5" transform="translate(1.000000, 855.000000)">
            <g id="技术认证" transform="translate(0.000000, 9.000000)">
              <path d="M63.7857812,18.0098437 C60.083125,16.5667187 56.955,13.9334375 55.041875,10.4503125 C51.8246875,4.59296875 45.5996875,0.6225 38.4448438,0.6225 C31.0182812,0.6225 24.5939062,4.90015625 21.4953125,11.1254687 C19.5975,14.938125 16.368125,17.9317187 12.41875,19.525625 C6.58296875,21.8809375 1.68390625,27.26375 0.12921875,35.6790625 C-0.04140625,36.6025 -0.04390625,37.551875 0.12671875,38.4753125 C2.54046875,51.5334375 13.0015625,57.2932812 22.5226562,55.7659375 C27.8548437,54.910625 33.2526563,56.6892188 37.205,60.369375 C45.2415625,67.8525 58.124375,70.1985937 70.6304687,62.1771875 C72.095625,61.2375 74.06125,59.265625 75.0001563,57.7998438 C85.7760938,40.9764063 77.79375,23.4695313 63.7857812,18.0098437 Z" id="路径" fill="url(#linearGradient-1)"></path>
              <path d="M70.3889063,9.87359375 L57.6665625,9.87359375 L57.6665625,3.9315625 C57.6665625,2.3790625 56.4076562,1.12015625 54.8551562,1.12015625 L23.1167187,1.12015625 C21.5642187,1.12015625 20.3053125,2.3790625 20.3053125,3.9315625 L20.3053125,13.0303125 L7.185,13.0303125 C6.53921875,13.0303125 6.01578125,13.559375 6.01578125,14.2121875 L6.01578125,25.2960937 C6.01578125,25.94875 6.53921875,26.4779687 7.185,26.4779687 L20.3053125,26.4779687 L20.3053125,32.7042187 L7.185,32.7042187 C6.53921875,32.7042187 6.01578125,33.2332812 6.01578125,33.8860937 L6.01578125,54.4020312 C6.01578125,55.0546875 6.53921875,55.5839062 7.185,55.5839062 L20.3053125,55.5839062 L20.3053125,60.8748437 C20.3053125,62.4273437 21.5642187,63.68625 23.1167187,63.68625 L54.8551562,63.68625 C56.4076562,63.68625 57.6665625,62.4273437 57.6665625,60.8748437 L57.6665625,47.06125 L63.41375,47.06125 C64.2732812,47.06125 64.97,46.3570312 64.97,45.488125 L64.97,37.97 C64.97,37.10125 64.2732812,36.396875 63.41375,36.396875 L57.6665625,36.396875 L57.6665625,28.3173438 L70.3889063,28.3173438 C71.2545312,28.3173438 71.95625,27.615625 71.95625,26.75 L71.95625,11.4409375 C71.95625,10.5753125 71.2545312,9.87359375 70.3889063,9.87359375 Z" id="路径" fill="#2626BC" opacity="0.1"></path>
              <path d="M57.6665625,7.2115625 L57.6665625,64.1548437 C57.6665625,65.7073437 56.4076563,66.96625 54.8551563,66.96625 L23.1167188,66.96625 C21.5642187,66.96625 20.3053125,65.7073437 20.3053125,64.1548437 L20.3053125,7.2115625 C20.3053125,5.6590625 21.5642187,4.40015625 23.1167188,4.40015625 L54.8551563,4.40015625 C56.4076563,4.40015625 57.6665625,5.6590625 57.6665625,7.2115625 Z" id="路径" fill="#FFFFFF"></path>
              <path d="M57.6667188,20.5915625 L57.6667188,7.22640625 C57.6667188,5.6653125 56.4146875,4.39984375 54.8704688,4.39984375 L23.1015625,4.39984375 C21.5571875,4.39984375 20.3053125,5.6653125 20.3053125,7.22640625 L20.3053125,20.5915625 L57.6667188,20.5915625 Z" id="路径" fill="#658DFE"></path>
              <path d="M50.1234375,8.2759375 L51.3723438,4.3996875 L26.5996875,4.3996875 L27.8485938,8.2759375 C28.029375,8.8371875 28.5470313,9.2171875 29.1310938,9.2171875 L48.8410938,9.2171875 C49.425,9.2171875 49.9426563,8.83734375 50.1234375,8.2759375 L50.1234375,8.2759375 Z" id="路径" fill="#FFFFFF"></path>
              <g id="编组" transform="translate(19.375000, 3.593750)" fill="#326DE6">
                <path d="M29.4660937,6.4046875 L9.75609375,6.4046875 C8.83,6.4046875 8.01578125,5.80875 7.73,4.921875 L6.48109375,1.045625 C6.34875,0.635 6.57453125,0.19484375 6.98515625,0.0625 C7.3959375,-0.07 7.83609375,0.1559375 7.96828125,0.5665625 L9.2171875,4.4428125 C9.29421875,4.68171875 9.51078125,4.84234375 9.75609375,4.84234375 L29.4660937,4.84234375 C29.7114062,4.84234375 29.9279687,4.68171875 30.005,4.44265625 L31.25375,0.5665625 C31.3860937,0.1559375 31.8260937,-0.06984375 32.236875,0.0625 C32.6475,0.19484375 32.8732812,0.635 32.7409375,1.045625 L31.4920312,4.921875 C31.20625,5.80875 30.3920312,6.4046875 29.4660937,6.4046875 Z" id="路径"></path>
                <path d="M35.4803125,64.1534375 L3.74171875,64.1534375 C1.760625,64.1534375 0.1490625,62.5417187 0.1490625,60.5607812 L0.1490625,55.6773437 C0.1490625,55.2459375 0.49890625,54.8960937 0.9303125,54.8960937 C1.36171875,54.8960937 1.7115625,55.2459375 1.7115625,55.6773437 L1.7115625,60.5607812 C1.7115625,61.6803125 2.62234375,62.5909375 3.74171875,62.5909375 L35.4803125,62.5909375 C36.5998438,62.5909375 37.5104688,61.6801562 37.5104688,60.5607812 L37.5104688,46.9875 C37.5104688,46.5560938 37.8603125,46.20625 38.2917188,46.20625 C38.723125,46.20625 39.0729688,46.5560938 39.0729688,46.9875 L39.0729688,60.5607812 C39.0729688,62.5417187 37.4614062,64.1534375 35.4803125,64.1534375 L35.4803125,64.1534375 Z" id="路径"></path>
                <path d="M38.2917188,36.6148437 C37.8603125,36.6148437 37.5104688,36.265 37.5104688,35.8335937 L37.5104688,28.3335937 C37.5104688,27.9021875 37.8603125,27.5523437 38.2917188,27.5523437 C38.723125,27.5523437 39.0729688,27.9021875 39.0729688,28.3335937 L39.0729688,35.8335937 C39.0729688,36.265 38.7232812,36.6148437 38.2917188,36.6148437 Z" id="路径"></path>
                <path d="M0.9303125,13.0290625 C0.49890625,13.0290625 0.1490625,12.6792187 0.1490625,12.2478125 L0.1490625,3.6175 C0.1490625,1.63640625 1.760625,0.02484375 3.74171875,0.02484375 L35.4803125,0.02484375 C37.4614062,0.02484375 39.0729688,1.63640625 39.0729688,3.6175 L39.0729688,9.2190625 C39.0729688,9.65046875 38.723125,10.0003125 38.2917188,10.0003125 C37.8603125,10.0003125 37.5104688,9.65046875 37.5104688,9.2190625 L37.5104688,3.6175 C37.5104688,2.49796875 36.5996875,1.58734375 35.4803125,1.58734375 L3.74171875,1.58734375 C2.6221875,1.58734375 1.7115625,2.498125 1.7115625,3.6175 L1.7115625,12.2479688 C1.7115625,12.679375 1.36171875,13.0290625 0.9303125,13.0290625 Z" id="路径"></path>
                <path d="M0.9303125,33.171875 C0.49890625,33.171875 0.1490625,32.8220313 0.1490625,32.390625 L0.1490625,26.6148437 C0.1490625,26.1834375 0.49890625,25.8335937 0.9303125,25.8335937 C1.36171875,25.8335937 1.7115625,26.1834375 1.7115625,26.6148437 L1.7115625,32.390625 C1.7115625,32.8220313 1.36171875,33.171875 0.9303125,33.171875 Z" id="路径"></path>
              </g>
              <ellipse id="椭圆形" fill="#658DFE" cx="38.9859375" cy="31.7378125" rx="6.99828125" ry="7.0740625"></ellipse>
              <path d="M40.9167187,32.7610938 C41.454375,32.245625 41.7917188,31.5196875 41.7917188,30.7145313 C41.7917188,29.1553125 40.5329688,27.8867188 38.9857812,27.8867188 C37.43875,27.8867188 36.18,29.1553125 36.18,30.7145313 C36.18,31.5196875 36.5173437,32.245625 37.055,32.7610938 C36.5173437,33.2765625 36.18,34.0025 36.18,34.8076563 C36.18,35.2390625 36.5298437,35.5889063 36.96125,35.5889063 C37.3926563,35.5889063 37.7425,35.2390625 37.7425,34.8076563 C37.7425,34.11 38.3001563,33.5423438 38.9857812,33.5423438 C39.6714062,33.5423438 40.2292188,34.11 40.2292188,34.8076563 C40.2292188,35.2390625 40.5790625,35.5889063 41.0104687,35.5889063 C41.441875,35.5889063 41.7917188,35.2390625 41.7917188,34.8076563 C41.791875,34.0025 41.4545312,33.2765625 40.9167187,32.7610938 Z M37.7426562,30.7145313 C37.7426562,30.016875 38.3003125,29.4492188 38.9859375,29.4492188 C39.6715625,29.4492188 40.229375,30.016875 40.229375,30.7145313 C40.229375,31.4121875 39.6715625,31.9798438 38.9859375,31.9798438 C38.3003125,31.9798438 37.7426562,31.4121875 37.7426562,30.7145313 Z" id="形状" fill="#326DE6"></path>
              <path d="M44.1635938,44.9059375 L33.8084375,44.9059375 C33.3684375,44.9059375 33.0117188,44.5453125 33.0117188,44.100625 C33.0117188,43.6559375 33.3682813,43.2953125 33.8084375,43.2953125 L44.1635938,43.2953125 C44.6035938,43.2953125 44.9603125,43.6559375 44.9603125,44.100625 C44.9603125,44.5453125 44.6035938,44.9059375 44.1635938,44.9059375 Z" id="路径" fill="#326DE6"></path>
              <path d="M41.364375,47.8928125 L36.6078125,47.8928125 C36.1678125,47.8928125 35.8110937,47.5321875 35.8110937,47.0875 C35.8110937,46.6428125 36.1676563,46.2821875 36.6078125,46.2821875 L41.364375,46.2821875 C41.804375,46.2821875 42.1610938,46.6428125 42.1610938,47.0875 C42.1609375,47.5321875 41.804375,47.8928125 41.364375,47.8928125 Z" id="路径" fill="#326DE6"></path>
              <ellipse id="椭圆形" fill="#326DE6" cx="41.6157812" cy="56.8689062" rx="1" ry="1"></ellipse>
              <path d="M38.9860937,55.9901562 C39.46625,55.9901562 39.8554687,56.3835937 39.8554687,56.8689062 C39.8554687,57.3542188 39.46625,57.7476563 38.9860937,57.7476563 C38.5059375,57.7476563 38.1167187,57.3542188 38.1167187,56.8689062 C38.1167187,56.3835937 38.5059375,55.9901562 38.9860937,55.9901562 Z" id="路径" fill="#326DE6"></path>
              <ellipse id="椭圆形" fill="#326DE6" cx="36.35625" cy="56.8689062" rx="1" ry="1"></ellipse>
              <path d="M63.41375,50.34125 L54.68625,50.34125 C53.8267188,50.34125 53.13,49.6370313 53.13,48.768125 L53.13,41.25 C53.13,40.38125 53.8267188,39.676875 54.68625,39.676875 L63.41375,39.676875 C64.2732812,39.676875 64.97,40.3810938 64.97,41.25 L64.97,48.768125 C64.97,49.636875 64.2732812,50.34125 63.41375,50.34125 Z" id="路径" fill="#FFFFFF"></path>
              <path d="M63.41375,51.1225 L54.68625,51.1225 C53.3973437,51.1225 52.34875,50.0664062 52.34875,48.768125 L52.34875,41.25 C52.34875,39.951875 53.3973438,38.8957812 54.68625,38.8957812 L63.41375,38.8957812 C64.7026563,38.8957812 65.7510937,39.951875 65.7510937,41.25 L65.7510937,48.768125 C65.75125,50.0664063 64.7026563,51.1225 63.41375,51.1225 Z M54.68625,40.458125 C54.2589062,40.458125 53.91125,40.8132812 53.91125,41.2498437 L53.91125,48.7679687 C53.91125,49.2045312 54.2589063,49.5598437 54.68625,49.5598437 L63.41375,49.5598437 C63.8410938,49.5598437 64.1885937,49.2046875 64.1885937,48.7679687 L64.1885937,41.25 C64.1885937,40.8134375 63.8409375,40.4582812 63.41375,40.4582812 L54.68625,40.458125 Z" id="形状" fill="#326DE6"></path>
              <path d="M57.9915625,47.6889063 C57.861875,47.6889063 57.730625,47.6560938 57.6098438,47.5871875 C57.2354688,47.3735937 57.1034375,46.89375 57.3148438,46.5154688 L59.43,42.7290625 C59.64125,42.3507813 60.1159375,42.2173438 60.49,42.4309375 C60.864375,42.6445312 60.9964063,43.124375 60.785,43.5026563 L58.6698438,47.2890625 C58.526875,47.545 58.263125,47.6889063 57.9915625,47.6889063 Z" id="路径" fill="#326DE6"></path>
              <path d="M24.0298437,29.7579687 L7.185,29.7579687 C6.53921875,29.7579687 6.01578125,29.22875 6.01578125,28.5760937 L6.01578125,17.4921875 C6.01578125,16.839375 6.53921875,16.3103125 7.185,16.3103125 L24.0298437,16.3103125 C24.675625,16.3103125 25.1990625,16.8395313 25.1990625,17.4921875 L25.1990625,28.5760937 C25.1990625,29.2289063 24.675625,29.7579687 24.0298437,29.7579687 Z" id="路径" fill="#FFFFFF"></path>
              <path d="M24.03,30.5392187 L7.185,30.5392187 C6.10953125,30.5392187 5.23453125,29.6585938 5.23453125,28.5760937 L5.23453125,17.4921875 C5.23453125,16.4096875 6.10953125,15.5290625 7.185,15.5290625 L24.03,15.5290625 C25.1054688,15.5290625 25.9804688,16.4096875 25.9804688,17.4921875 L25.9804688,28.5760937 C25.9804688,29.6585938 25.1054688,30.5392187 24.03,30.5392187 Z M7.185,17.0915625 C6.97109375,17.0915625 6.79703125,17.27125 6.79703125,17.4921875 L6.79703125,28.5760937 C6.79703125,28.7970312 6.97109375,28.9767187 7.185,28.9767187 L24.03,28.9767187 C24.2439062,28.9767187 24.4179688,28.7970312 24.4179688,28.5760937 L24.4179688,17.4921875 C24.4179688,17.27125 24.2439062,17.0915625 24.03,17.0915625 L7.185,17.0915625 Z" id="形状" fill="#326DE6"></path>
              <path d="M11.9728125,25.7110937 C11.7739063,25.7110937 11.5748438,25.634375 11.4232813,25.4809375 L9.55234375,23.5896875 C9.24875,23.2828125 9.24875,22.7853125 9.55234375,22.4785938 L11.4232813,20.5873438 C11.7265625,20.280625 12.2190625,20.280625 12.5223438,20.5873438 C12.8259375,20.8942188 12.8259375,21.3917188 12.5223438,21.6984375 L11.2010938,23.0340625 L12.5223438,24.3696875 C12.8259375,24.6765625 12.8259375,25.1740625 12.5223438,25.4807812 C12.3707813,25.634375 12.1717188,25.7110937 11.9728125,25.7110937 L11.9728125,25.7110937 Z" id="路径" fill="#326DE6"></path>
              <path d="M19.2420312,20.3573437 C19.4409375,20.3573437 19.64,20.4340625 19.7915625,20.5875 L21.6625,22.47875 C21.9660937,22.785625 21.9660937,23.283125 21.6625,23.5898438 L19.7915625,25.4810937 C19.4882812,25.7878125 18.9957812,25.7878125 18.6925,25.4810937 C18.3889062,25.1742187 18.3889062,24.6767187 18.6925,24.37 L20.01375,23.034375 L18.6925,21.69875 C18.3889062,21.391875 18.3889062,20.894375 18.6925,20.5876563 C18.8442187,20.4340625 19.0432812,20.3573437 19.2420312,20.3573437 L19.2420312,20.3573437 Z" id="路径" fill="#326DE6"></path>
              <path d="M14.5503125,25.71125 C14.4207813,25.71125 14.2896875,25.6784375 14.1689062,25.6095312 C13.795,25.3960937 13.663125,24.916875 13.8742187,24.5390625 L15.9870313,20.7567187 C16.1979688,20.3789062 16.6723437,20.245625 17.0459375,20.4589062 C17.4198438,20.6723437 17.5517187,21.1515625 17.340625,21.529375 L15.2278125,25.3117187 C15.085,25.5673437 14.8215625,25.71125 14.5503125,25.71125 L14.5503125,25.71125 Z" id="路径" fill="#326DE6"></path>
              <path d="M24.0298437,58.8640625 L7.185,58.8640625 C6.53921875,58.8640625 6.01578125,58.3348438 6.01578125,57.6821875 L6.01578125,37.16625 C6.01578125,36.5134375 6.53921875,35.984375 7.185,35.984375 L24.0298437,35.984375 C24.675625,35.984375 25.1990625,36.5135937 25.1990625,37.16625 L25.1990625,57.6821875 C25.1990625,58.3348438 24.675625,58.8640625 24.0298437,58.8640625 L24.0298437,58.8640625 Z" id="路径" fill="#FFFFFF"></path>
              <path d="M24.03,59.6453125 L7.185,59.6453125 C6.10953125,59.6453125 5.23453125,58.7646875 5.23453125,57.6821875 L5.23453125,37.16625 C5.23453125,36.08375 6.10953125,35.203125 7.185,35.203125 L16.0223437,35.203125 C16.45375,35.203125 16.8035937,35.5529687 16.8035937,35.984375 C16.8035937,36.4157813 16.45375,36.765625 16.0223437,36.765625 L7.185,36.765625 C6.97109375,36.765625 6.79703125,36.9453125 6.79703125,37.16625 L6.79703125,57.6821875 C6.79703125,57.903125 6.97109375,58.0828125 7.185,58.0828125 L24.03,58.0828125 C24.2439063,58.0828125 24.4179688,57.903125 24.4179688,57.6821875 L24.4179688,37.16625 C24.4179688,36.9453125 24.2439063,36.765625 24.03,36.765625 L20.3053125,36.765625 C19.8739063,36.765625 19.5240625,36.4157813 19.5240625,35.984375 C19.5240625,35.5529687 19.8739063,35.203125 20.3053125,35.203125 L24.03,35.203125 C25.1054688,35.203125 25.9804688,36.08375 25.9804688,37.16625 L25.9804688,57.6821875 C25.9804688,58.7646875 25.1054688,59.6453125 24.03,59.6453125 L24.03,59.6453125 Z" id="路径" fill="#326DE6"></path>
              <path d="M70.3889062,31.5973438 L51.3826562,31.5973438 C50.5170312,31.5973438 49.8153125,30.895625 49.8153125,30.03 L49.8153125,14.7209375 C49.8153125,13.8553125 50.5170312,13.1535938 51.3826562,13.1535938 L70.3889062,13.1535938 C71.2545312,13.1535938 71.95625,13.8553125 71.95625,14.7209375 L71.95625,30.03 C71.95625,30.895625 71.2545312,31.5973438 70.3889062,31.5973438 Z" id="路径" fill="#FFFFFF"></path>
              <path d="M70.3973438,13.1535938 L65.0848438,13.1535938 L65.0848438,31.5973438 L70.3973438,31.5973438 C71.2582812,31.5973438 71.95625,30.891875 71.95625,30.0215625 L71.95625,14.729375 C71.95625,13.8590625 71.2582812,13.1535938 70.3973438,13.1535938 Z" id="路径" fill="#FFFFFF"></path>
              <path d="M71.95625,18.30125 L71.95625,14.729375 C71.95625,13.8590625 71.2582812,13.1535938 70.3973437,13.1535938 L51.3742187,13.1535938 C50.5132812,13.1535938 49.8153125,13.8590625 49.8153125,14.729375 L49.8153125,18.30125 L71.95625,18.30125 Z" id="路径" fill="#FFFFFF"></path>
              <g id="编组" transform="translate(10.156250, 12.343750)" fill="#326DE6">
                <path d="M60.2410937,20.0348438 L41.2179687,20.0348438 C39.9276562,20.0348438 38.8778125,18.9775 38.8778125,17.6778125 L38.8778125,2.385625 C38.8778125,1.0859375 39.9276562,0.02859375 41.2179687,0.02859375 L60.2410937,0.02859375 C61.5314062,0.02859375 62.58125,1.0859375 62.58125,2.385625 L62.58125,5.95734375 C62.58125,6.38875 62.2314062,6.73859375 61.8,6.73859375 C61.3685937,6.73859375 61.01875,6.38875 61.01875,5.95734375 L61.01875,2.385625 C61.01875,1.9475 60.6698437,1.59109375 60.2410937,1.59109375 L41.2179687,1.59109375 C40.7892187,1.59109375 40.4403125,1.9475 40.4403125,2.385625 L40.4403125,17.6778125 C40.4403125,18.1159375 40.7892187,18.4723438 41.2179687,18.4723438 L60.2410937,18.4723438 C60.6698437,18.4723438 61.01875,18.1159375 61.01875,17.6778125 L61.01875,10.286875 C61.01875,9.85546875 61.3685937,9.505625 61.8,9.505625 C62.2314062,9.505625 62.58125,9.85546875 62.58125,10.286875 L62.58125,17.6778125 C62.58125,18.9775 61.5314062,20.0348438 60.2410937,20.0348438 Z" id="路径"></path>
                <path d="M61.8,6.73875 L39.6590625,6.73875 C39.2276562,6.73875 38.8778125,6.38890625 38.8778125,5.9575 C38.8778125,5.52609375 39.2276562,5.17625 39.6590625,5.17625 L61.8,5.17625 C62.2314062,5.17625 62.58125,5.52609375 62.58125,5.9575 C62.58125,6.38890625 62.2314062,6.73875 61.8,6.73875 Z" id="路径"></path>
                <path d="M51.7960938,15.574375 L44.0645313,15.574375 C43.6340625,15.574375 43.2853125,15.2217187 43.2853125,14.7867187 C43.2853125,14.3517188 43.6342188,13.9990625 44.0645313,13.9990625 L51.7960938,13.9990625 C52.2265625,13.9990625 52.5753125,14.3517188 52.5753125,14.7867187 C52.5753125,15.2217187 52.2264063,15.574375 51.7960938,15.574375 Z" id="路径"></path>
                <path d="M47.5871875,12.3039062 L44.0645313,12.3039062 C43.6340625,12.3039062 43.2853125,11.95125 43.2853125,11.51625 C43.2853125,11.08125 43.6342188,10.7285937 44.0645313,10.7285937 L47.5871875,10.7285937 C48.0176563,10.7285937 48.3664063,11.08125 48.3664063,11.51625 C48.3664063,11.95125 48.0175,12.3039062 47.5871875,12.3039062 Z" id="路径"></path>
                <path d="M10.0067187,35.4417188 L0.895625,35.4417188 C0.46546875,35.4417188 0.116875,35.0892188 0.116875,34.6545313 C0.116875,34.2198437 0.46546875,33.8673438 0.895625,33.8673438 L10.0067187,33.8673438 C10.436875,33.8673438 10.7854687,34.2198437 10.7854687,34.6545313 C10.7854687,35.0892188 10.436875,35.4417188 10.0067187,35.4417188 Z" id="路径"></path>
                <path d="M8.14046875,31.23125 L2.761875,31.23125 C2.33171875,31.23125 1.983125,30.87875 1.983125,30.4440625 C1.983125,30.009375 2.33171875,29.656875 2.761875,29.656875 L8.14046875,29.656875 C8.570625,29.656875 8.91921875,30.009375 8.91921875,30.4440625 C8.91921875,30.87875 8.570625,31.23125 8.14046875,31.23125 Z" id="路径"></path>
                <path d="M10.0067187,38.2375 L0.895625,38.2375 C0.46546875,38.2375 0.116875,37.885 0.116875,37.4503125 C0.116875,37.015625 0.46546875,36.663125 0.895625,36.663125 L10.0067187,36.663125 C10.436875,36.663125 10.7854687,37.015625 10.7854687,37.4503125 C10.7854687,37.8851563 10.436875,38.2375 10.0067187,38.2375 Z" id="路径"></path>
                <path d="M10.0067187,41.0334375 L0.895625,41.0334375 C0.46546875,41.0334375 0.116875,40.6809375 0.116875,40.24625 C0.116875,39.8115625 0.46546875,39.4590625 0.895625,39.4590625 L10.0067187,39.4590625 C10.436875,39.4590625 10.7854687,39.8115625 10.7854687,40.24625 C10.7854687,40.6809375 10.436875,41.0334375 10.0067187,41.0334375 Z" id="路径"></path>
              </g>
              <path d="M72.2701563,54.3171875 C72.0615625,54.3171875 71.8615625,54.23375 71.7146875,54.0854688 L70.0003125,52.3525 C69.6992188,52.048125 69.6992188,51.5579688 70.0003125,51.2535938 L71.7146875,49.520625 C71.8614063,49.3723437 72.0614063,49.2889062 72.2701563,49.2889062 C72.4789063,49.2889062 72.67875,49.3723437 72.825625,49.520625 L74.54,51.2535938 C74.8410938,51.5579687 74.8410938,52.048125 74.54,52.3525 L72.825625,54.0854688 C72.67875,54.2335937 72.47875,54.3171875 72.2701563,54.3171875 Z M71.6546875,51.8029688 L72.27,52.425 L72.8854688,51.8029688 L72.27,51.1809375 L71.6546875,51.8029688 Z" id="形状" fill="#6591FE"></path>
              <path d="M64.4010938,58.72375 C64.1925,58.72375 63.9925,58.6403125 63.845625,58.4920313 L62.13125,56.7590625 C61.8301563,56.4546875 61.8301563,55.9645313 62.13125,55.6601562 L63.845625,53.9271875 C63.9923437,53.7789062 64.1923437,53.6954688 64.4010938,53.6954688 C64.6096875,53.6954688 64.8096875,53.7789062 64.9565625,53.9271875 L66.6709375,55.6601562 C66.9720313,55.9645313 66.9720313,56.4546875 66.6709375,56.7590625 L64.9565625,58.4920313 C64.8096875,58.6403125 64.6096875,58.72375 64.4010938,58.72375 Z M63.785625,56.2095313 L64.4010938,56.8315625 L65.0164062,56.2095313 L64.4010938,55.5875 L63.785625,56.2095313 Z" id="形状" fill="#6591FE"></path>
              <path d="M13.953125,13.0675 C13.5217188,13.0675 13.171875,12.7176563 13.171875,12.28625 C13.171875,11.7634375 12.755,11.3382812 12.2423437,11.3382812 C11.8109375,11.3382812 11.4610937,10.9884375 11.4610937,10.5570312 C11.4610937,10.125625 11.8109375,9.77578125 12.2423437,9.77578125 C12.7548438,9.77578125 13.171875,9.35046875 13.171875,8.8278125 C13.171875,8.39640625 13.5217188,8.0465625 13.953125,8.0465625 C14.3845312,8.0465625 14.734375,8.39640625 14.734375,8.8278125 C14.734375,9.350625 15.15125,9.77578125 15.6639063,9.77578125 C16.0953125,9.77578125 16.4451563,10.125625 16.4451563,10.5570312 C16.4451563,10.9884375 16.0953125,11.3382812 15.6639063,11.3382812 C15.1514063,11.3382812 14.734375,11.7635937 14.734375,12.28625 C14.734375,12.7176563 14.3845312,13.0675 13.953125,13.0675 Z" id="路径" fill="#6591FE"></path>
              <path d="M16.8104687,5.08625 C16.3790625,5.08625 16.0292187,4.73640625 16.0292187,4.305 C16.0292187,3.7821875 15.6123437,3.35703125 15.0996875,3.35703125 C14.6682813,3.35703125 14.3184375,3.0071875 14.3184375,2.57578125 C14.3184375,2.144375 14.6682813,1.79453125 15.0996875,1.79453125 C15.6121875,1.79453125 16.0292187,1.36921875 16.0292187,0.8465625 C16.0292187,0.41515625 16.3790625,0.0653125 16.8104687,0.0653125 C17.241875,0.0653125 17.5917187,0.41515625 17.5917187,0.8465625 C17.5917187,1.369375 18.0085938,1.79453125 18.52125,1.79453125 C18.9526563,1.79453125 19.3025,2.144375 19.3025,2.57578125 C19.3025,3.0071875 18.9526563,3.35703125 18.52125,3.35703125 C18.00875,3.35703125 17.5917187,3.78234375 17.5917187,4.305 C17.5917187,4.7365625 17.241875,5.08625 16.8104687,5.08625 Z" id="路径" fill="#6591FE"></path>
            </g>
          </g>
        </g>
      </g>
    </g>
  </g>
</svg>
