<?xml version="1.0" encoding="UTF-8"?>
<svg xmlns="http://www.w3.org/2000/svg" xmlns:xlink="http://www.w3.org/1999/xlink" width="80px" height="84px" viewBox="0 0 80 84" version="1.1">
  <title>专业咨询服务</title>
  <defs>
    <linearGradient x1="-8.37531998e-05%" y1="50.000034%" x2="99.9999873%" y2="50.000034%" id="linearGradient-1">
      <stop stop-color="#D2DEFF" stop-opacity="0" offset="0%"></stop>
      <stop stop-color="#B7C5FF" offset="100%"></stop>
    </linearGradient>
  </defs>
  <g id="服务与资源" stroke="none" stroke-width="1" fill="none" fill-rule="evenodd">
    <g id="服务与资源最终稿" transform="translate(-219.000000, -1640.000000)" fill-rule="nonzero">
      <g id="编组-5" transform="translate(0.000000, 850.000000)">
        <g id="编组-4" transform="translate(218.000000, 100.000000)">
          <g id="编组-3备份-4" transform="translate(1.000000, 688.000000)">
            <g id="专业咨询服务" transform="translate(0.000000, 2.000000)">
              <g id="编组">
                <path d="M45.0152459,0.797868852 C29.5478689,5.34639344 32.6501639,16.1396721 30.9201639,28.0993443 C28.7609836,43.0259016 19.4291803,35.3722951 8.70770492,43.4332787 C-9.8257377,57.3678689 3.63704918,88.1277049 26.6532787,83.4562295 C38.874918,80.9757377 41.3722951,71.9652459 46.3570492,62.337541 C52.805082,49.8831148 63.4977049,53.2786885 73.0891803,45.1480328 C92.5408197,28.6591803 66.957541,-5.6547541 45.0152459,0.797868852 Z" id="路径" fill="url(#linearGradient-1)"></path>
                <g transform="translate(6.885246, 5.081967)">
                  <g>
                    <path d="M54.1316393,5.1 C51.8995082,5.1 49.822623,5.7595082 48.0803279,6.89098361 C43.0118033,4.98245902 37.5218033,3.93442623 31.7862295,3.93442623 C24.8665574,3.93442623 18.302623,5.4557377 12.407541,8.17868852 C11.8272131,8.44754098 11.455082,9.0295082 11.455082,9.66885246 L11.455082,72.1311475 C11.455082,73.0360656 12.1895082,73.7704918 13.0944262,73.7704918 L50.4780328,73.7704918 C51.3829508,73.7704918 52.117377,73.0360656 52.117377,72.1311475 L52.117377,27.3590164 L54.1316393,27.3590164 C60.2781967,27.3590164 65.2611475,22.3762295 65.2611475,16.2295082 C65.2611475,10.0827869 60.2781967,5.1 54.1316393,5.1 Z" id="路径" fill="#2626BC" opacity="0.1"></path>
                    <g transform="translate(11.311475, 0.000000)" id="路径">
                      <g>
                        <path d="M40.8059016,5.73442623 L40.8059016,68.1967213 C40.8059016,69.1016393 40.0714754,69.8360656 39.1665574,69.8360656 L1.78295082,69.8360656 C0.878032787,69.8360656 0.143606557,69.1016393 0.143606557,68.1967213 L0.143606557,5.73442623 C0.143606557,5.09508197 0.515737705,4.51311475 1.09606557,4.2442623 C6.99114754,1.52131148 13.555082,2.32964831e-15 20.4747541,2.32964831e-15 C27.3944262,2.32964831e-15 33.9583607,1.52131148 39.8534426,4.2442623 C40.4337705,4.51311475 40.8059016,5.09508197 40.8059016,5.73442623 Z" fill="#FFFFFF"></path>
                        <path d="M36.707541,11.4754098 L36.707541,7.88655738 C36.707541,7.55377049 36.5070492,7.25147541 36.1983607,7.12704918 C31.2131148,5.11590164 25.937377,4.09836066 20.4747541,4.09836066 C15.0121311,4.09836066 9.73639344,5.11590164 4.75098361,7.12704918 C4.44229508,7.25163934 4.24196721,7.55377049 4.24196721,7.88655738 L4.24196721,11.4754098 C4.24196721,11.9281967 4.60901639,12.295082 5.06163934,12.295082 L35.8878689,12.295082 C36.3404918,12.295082 36.707541,11.9280328 36.707541,11.4754098 Z" fill="#658EFE"></path>
                        <g transform="translate(4.098361, 16.393443)" fill="#658DFE">
                          <path d="M8.86557377,38.4729508 L8.86557377,32.1827869 C8.86557377,31.73 8.49852459,31.3631148 8.04590164,31.3631148 L0.963114754,31.3631148 C0.510491803,31.3631148 0.143442623,31.73 0.143442623,32.1827869 L0.143442623,38.4729508 C0.143442623,38.9255738 0.510491803,39.292623 0.963114754,39.292623 L8.04590164,39.292623 C8.49868852,39.292623 8.86557377,38.9255738 8.86557377,38.4729508 L8.86557377,38.4729508 Z"></path>
                          <path d="M20.0131148,20.3795082 L12.7393443,20.3795082 C12.2865574,20.3795082 11.9196721,20.7465574 11.9196721,21.1991803 L11.9196721,27.4893443 C11.9196721,27.9419672 12.2865574,28.3090164 12.7393443,28.3090164 L20.0131148,28.3090164 C20.4657377,28.3090164 20.8327869,27.9419672 20.8327869,27.4893443 L20.8327869,21.1991803 C20.8327869,20.7465574 20.4659016,20.3795082 20.0131148,20.3795082 Z"></path>
                          <path d="M12.7395082,39.292623 L20.0132787,39.292623 C20.4659016,39.292623 20.8329508,38.9255738 20.8329508,38.4729508 L20.8329508,32.1827869 C20.8329508,31.73 20.4659016,31.3631148 20.0132787,31.3631148 L12.7395082,31.3631148 C12.2867213,31.3631148 11.9198361,31.73 11.9198361,32.1827869 L11.9198361,38.4729508 C11.9198361,38.9255738 12.2867213,39.292623 12.7395082,39.292623 Z"></path>
                          <path d="M20.0131148,9.39590164 L12.7393443,9.39590164 C12.2865574,9.39590164 11.9196721,9.76295082 11.9196721,10.2155738 L11.9196721,16.5057377 C11.9196721,16.9583607 12.2865574,17.3254098 12.7393443,17.3254098 L20.0131148,17.3254098 C20.4657377,17.3254098 20.8327869,16.9583607 20.8327869,16.5057377 L20.8327869,10.2155738 C20.8327869,9.76295082 20.4659016,9.39590164 20.0131148,9.39590164 Z"></path>
                          <path d="M24.7067213,6.34180328 L31.7895082,6.34180328 C32.2421311,6.34180328 32.6091803,5.9747541 32.6091803,5.52213115 L32.6091803,0.819672131 C32.6091803,0.36704918 32.2421311,0 31.7895082,0 L24.7067213,0 C24.2540984,0 23.8870492,0.36704918 23.8870492,0.819672131 L23.8870492,5.52213115 C23.8870492,5.9747541 24.2539344,6.34180328 24.7067213,6.34180328 Z"></path>
                          <path d="M8.86491803,10.2163934 L8.86491803,16.504918 C8.86491803,16.9590164 8.49934426,17.3245902 8.0452459,17.3245902 L0.963278689,17.3245902 C0.510819672,17.3245902 0.143606557,16.9590164 0.143606557,16.504918 L0.143606557,10.2163934 C0.143606557,9.76229508 0.510819672,9.39672131 0.963278689,9.39672131 L8.0452459,9.39672131 C8.49934426,9.39672131 8.86491803,9.76229508 8.86491803,10.2163934 L8.86491803,10.2163934 Z"></path>
                          <path d="M8.86557377,27.4893443 L8.86557377,21.1991803 C8.86557377,20.7465574 8.49852459,20.3795082 8.04590164,20.3795082 L0.963114754,20.3795082 C0.510491803,20.3795082 0.143442623,20.7465574 0.143442623,21.1991803 L0.143442623,27.4893443 C0.143442623,27.9419672 0.510491803,28.3090164 0.963114754,28.3090164 L8.04590164,28.3090164 C8.49868852,28.3090164 8.86557377,27.9419672 8.86557377,27.4893443 L8.86557377,27.4893443 Z"></path>
                          <path d="M23.8870492,21.1991803 L23.8870492,27.4893443 C23.8870492,27.9419672 24.2540984,28.3090164 24.7067213,28.3090164 L31.7895082,28.3090164 C32.2421311,28.3090164 32.6091803,27.9419672 32.6091803,27.4893443 L32.6091803,21.1991803 C32.6091803,20.7465574 32.2421311,20.3795082 31.7895082,20.3795082 L24.7067213,20.3795082 C24.2539344,20.3795082 23.8870492,20.7465574 23.8870492,21.1991803 Z"></path>
                          <path d="M20.8327869,47.8688525 L20.8327869,43.1663934 C20.8327869,42.7136066 20.4657377,42.3467213 20.0131148,42.3467213 L12.7393443,42.3467213 C12.2865574,42.3467213 11.9196721,42.7136066 11.9196721,43.1663934 L11.9196721,47.8688525 C11.9196721,48.3216393 12.2865574,48.6885246 12.7393443,48.6885246 L20.0131148,48.6885246 C20.4659016,48.6885246 20.8327869,48.3214754 20.8327869,47.8688525 Z"></path>
                          <path d="M8.04590164,42.3467213 L0.963114754,42.3467213 C0.510491803,42.3467213 0.143442623,42.7136066 0.143442623,43.1663934 L0.143442623,47.8688525 C0.143442623,48.3216393 0.510491803,48.6885246 0.963114754,48.6885246 L8.04590164,48.6885246 C8.49852459,48.6885246 8.86557377,48.3216393 8.86557377,47.8688525 L8.86557377,43.1663934 C8.86557377,42.7137705 8.49868852,42.3467213 8.04590164,42.3467213 L8.04590164,42.3467213 Z"></path>
                          <path d="M23.8870492,43.1663934 L23.8870492,47.8688525 C23.8870492,48.3216393 24.2540984,48.6885246 24.7067213,48.6885246 L31.7895082,48.6885246 C32.2421311,48.6885246 32.6091803,48.3216393 32.6091803,47.8688525 L32.6091803,43.1663934 C32.6091803,42.7136066 32.2421311,42.3467213 31.7895082,42.3467213 L24.7067213,42.3467213 C24.2539344,42.3467213 23.8870492,42.7137705 23.8870492,43.1663934 Z"></path>
                          <path d="M8.86557377,5.52213115 L8.86557377,0.819672131 C8.86557377,0.36704918 8.49852459,0 8.04590164,0 L0.963114754,0 C0.510491803,0 0.143442623,0.36704918 0.143442623,0.819672131 L0.143442623,5.52213115 C0.143442623,5.9747541 0.510491803,6.34180328 0.963114754,6.34180328 L8.04590164,6.34180328 C8.49868852,6.34180328 8.86557377,5.9747541 8.86557377,5.52213115 L8.86557377,5.52213115 Z"></path>
                          <path d="M20.8321311,0.819672131 L20.8321311,5.52131148 C20.8321311,5.97540984 20.4665574,6.34098361 20.012459,6.34098361 L12.7403279,6.34098361 C12.2862295,6.34098361 11.9206557,5.97540984 11.9206557,5.52131148 L11.9206557,0.819672131 C11.9206557,0.367213115 12.2862295,0 12.7403279,0 L20.012459,0 C20.4665574,0 20.8321311,0.367213115 20.8321311,0.819672131 Z"></path>
                          <path d="M31.7895082,31.3631148 L24.7067213,31.3631148 C24.2540984,31.3631148 23.8870492,31.73 23.8870492,32.1827869 L23.8870492,38.4729508 C23.8870492,38.9255738 24.2540984,39.292623 24.7067213,39.292623 L31.7895082,39.292623 C32.2421311,39.292623 32.6091803,38.9255738 32.6091803,38.4729508 L32.6091803,32.1827869 C32.6091803,31.7301639 32.2421311,31.3631148 31.7895082,31.3631148 Z"></path>
                          <path d="M23.8870492,10.2155738 L23.8870492,16.5057377 C23.8870492,16.9583607 24.2540984,17.3254098 24.7067213,17.3254098 L31.7895082,17.3254098 C32.2421311,17.3254098 32.6091803,16.9583607 32.6091803,16.5057377 L32.6091803,10.2155738 C32.6091803,9.76295082 32.2421311,9.39590164 31.7895082,9.39590164 L24.7067213,9.39590164 C24.2539344,9.39590164 23.8870492,9.76295082 23.8870492,10.2155738 Z"></path>
                        </g>
                        <path d="M36.707541,20.3803279 L36.707541,21.9147541 C36.707541,22.3688525 36.3403279,22.7344262 35.8878689,22.7344262 L34.3534426,22.7344262 L36.707541,20.3803279 Z" fill="#D2DEFF"></path>
                        <path d="M8.94688525,30.2737705 L8.94688525,51.2016393 C8.94688525,51.9409836 8.34688525,52.5409836 7.60754098,52.5409836 C6.86819672,52.5409836 6.26819672,51.9409836 6.26819672,51.2016393 L6.26819672,30.2737705 C6.26819672,29.5344262 6.86819672,28.9344262 7.60754098,28.9344262 C7.97639344,28.9344262 8.31245902,29.0852459 8.55508197,29.3262295 C8.79606557,29.5688525 8.94688525,29.904918 8.94688525,30.2737705 Z" fill="#326DE6"></path>
                      </g>
                      <path d="M33.33,23.4245902 L42.8201639,23.4245902 C48.9667213,23.4245902 53.9496721,18.4418033 53.9496721,12.295082 C53.9496721,6.14852459 48.9668852,1.16557377 42.8201639,1.16557377 C36.6736066,1.16557377 31.6906557,6.14836066 31.6906557,12.295082 L31.6906557,21.7852459 C31.6906557,22.6904918 32.4245902,23.4245902 33.33,23.4245902 Z" fill="#FFFFFF"></path>
                      <path d="M40.01,17.7698361 C39.5967213,17.7698361 39.1834426,17.6121311 38.8680328,17.2968852 L37.7913115,16.2201639 C37.1606557,15.5895082 37.1606557,14.5668852 37.7913115,13.9362295 L44.4344262,7.29311475 C45.0652459,6.66262295 46.087541,6.66262295 46.7183607,7.29311475 L47.8488525,8.42360656 C48.4795082,9.0542623 48.4795082,10.0768852 47.8488525,10.707541 C47.2219672,11.3342623 46.2080328,11.3385246 45.5763934,10.7188525 L41.2154098,15.08 C41.7819672,15.7140984 41.7608197,16.6880328 41.1519672,17.2967213 C40.8365574,17.6121311 40.4234426,17.7698361 40.01,17.7698361 L40.01,17.7698361 Z" fill="#658DFE"></path>
                    </g>
                    <g transform="translate(0.000000, 7.213115)" fill="#6591FE">
                      <path d="M2.77163934,5.29163934 C2.31885246,5.29163934 1.95196721,4.92459016 1.95196721,4.47196721 C1.95196721,3.9295082 1.51081967,3.48836066 0.968360656,3.48836066 C0.51557377,3.48836066 0.148688525,3.12131148 0.148688525,2.66868852 C0.148688525,2.21606557 0.51557377,1.84901639 0.968360656,1.84901639 C1.51081967,1.84901639 1.95196721,1.40786885 1.95196721,0.865409836 C1.95196721,0.412786885 2.31885246,0.0457377049 2.77163934,0.0457377049 C3.22442623,0.0457377049 3.59131148,0.412786885 3.59131148,0.865409836 C3.59131148,1.40786885 4.03245902,1.84901639 4.57491803,1.84901639 C5.02770492,1.84901639 5.39459016,2.21606557 5.39459016,2.66868852 C5.39459016,3.12131148 5.02770492,3.48836066 4.57491803,3.48836066 C4.03245902,3.48836066 3.59131148,3.9295082 3.59131148,4.47196721 C3.59131148,4.92459016 3.22442623,5.29163934 2.77163934,5.29163934 Z" id="路径"></path>
                      <path d="M57.8301639,45.9901639 C57.377377,45.9901639 57.0104918,45.6231148 57.0104918,45.1704918 C57.0104918,44.6280328 56.5693443,44.1868852 56.0268852,44.1868852 C55.5740984,44.1868852 55.2072131,43.8198361 55.2072131,43.3672131 C55.2072131,42.9145902 55.5740984,42.547541 56.0268852,42.547541 C56.5693443,42.547541 57.0104918,42.1063934 57.0104918,41.5639344 C57.0104918,41.1113115 57.377377,40.7442623 57.8301639,40.7442623 C58.2829508,40.7442623 58.6498361,41.1113115 58.6498361,41.5639344 C58.6498361,42.1063934 59.0909836,42.547541 59.6334426,42.547541 C60.0862295,42.547541 60.4531148,42.9145902 60.4531148,43.3672131 C60.4531148,43.8198361 60.0862295,44.1868852 59.6334426,44.1868852 C59.0909836,44.1868852 58.6498361,44.6280328 58.6498361,45.1704918 C58.6498361,45.6231148 58.2827869,45.9901639 57.8301639,45.9901639 Z" id="路径"></path>
                      <path d="M6.37819672,13.8942623 C5.92540984,13.8942623 5.55852459,13.5272131 5.55852459,13.0745902 C5.55852459,12.5321311 5.11737705,12.0909836 4.57491803,12.0909836 C4.12213115,12.0909836 3.7552459,11.7239344 3.7552459,11.2713115 C3.7552459,10.8186885 4.12213115,10.4516393 4.57491803,10.4516393 C5.11737705,10.4516393 5.55852459,10.0104918 5.55852459,9.46803279 C5.55852459,9.01540984 5.92540984,8.64836066 6.37819672,8.64836066 C6.83098361,8.64836066 7.19786885,9.01540984 7.19786885,9.46803279 C7.19786885,10.0104918 7.63901639,10.4516393 8.18147541,10.4516393 C8.6342623,10.4516393 9.00114754,10.8186885 9.00114754,11.2713115 C9.00114754,11.7239344 8.6342623,12.0909836 8.18147541,12.0909836 C7.63901639,12.0909836 7.19786885,12.5321311 7.19786885,13.0745902 C7.19786885,13.5272131 6.83098361,13.8942623 6.37819672,13.8942623 Z" id="路径"></path>
                      <path d="M2.77163934,37.7965574 C2.56196721,37.7965574 2.35196721,37.7165574 2.19213115,37.5565574 L0.388852459,35.7532787 C0.0686885246,35.4331148 0.0686885246,34.9140984 0.388852459,34.5940984 L2.19213115,32.7908197 C2.51196721,32.4708197 3.03131148,32.4708197 3.35114754,32.7908197 L5.15442623,34.5940984 C5.47459016,34.9142623 5.47459016,35.4332787 5.15442623,35.7532787 L3.35114754,37.5565574 C3.19131148,37.7163934 2.98131148,37.7965574 2.77163934,37.7965574 L2.77163934,37.7965574 Z M2.12754098,35.1736066 L2.77163934,35.8177049 L3.4157377,35.1736066 L2.77163934,34.5295082 L2.12754098,35.1736066 Z" id="形状"></path>
                      <path d="M58.507377,33.3213115 C58.2977049,33.3213115 58.0877049,33.2413115 57.9278689,33.0813115 L56.1245902,31.2780328 C55.8044262,30.9578689 55.8044262,30.4388525 56.1245902,30.1188525 L57.9278689,28.3155738 C58.2477049,27.9955738 58.7670492,27.9955738 59.0868852,28.3155738 L60.8901639,30.1188525 C61.2103279,30.4390164 61.2103279,30.9580328 60.8901639,31.2780328 L59.0868852,33.0813115 C58.9270492,33.2413115 58.7172131,33.3213115 58.507377,33.3213115 L58.507377,33.3213115 Z M57.8634426,30.6983607 L58.507541,31.342459 L59.1516393,30.6983607 L58.507541,30.0542623 L57.8634426,30.6983607 Z" id="形状"></path>
                    </g>
                  </g>
                  <path d="M37.5663934,9.71786885 L26.0057377,9.71786885 C25.5529508,9.71786885 25.1860656,9.35081967 25.1860656,8.89819672 C25.1860656,8.44557377 25.5529508,8.07852459 26.0057377,8.07852459 L37.5663934,8.07852459 C38.0191803,8.07852459 38.3860656,8.44557377 38.3860656,8.89819672 C38.3860656,9.35098361 38.0191803,9.71786885 37.5663934,9.71786885 Z" id="路径" fill="#326DE6"></path>
                </g>
              </g>
              <g id="编组" transform="translate(17.377049, 4.262295)" fill="#326DE6">
                <path d="M39.9862295,71.4754098 C41.3422951,71.4754098 42.4452459,70.3722951 42.4452459,69.0163934 L42.4452459,29.7622951 C42.4452459,29.3096721 42.0783607,28.942623 41.6255738,28.942623 C41.1727869,28.942623 40.8059016,29.3096721 40.8059016,29.7622951 L40.8059016,69.0163934 C40.8059016,69.4683607 40.4381967,69.8360656 39.9862295,69.8360656 L18.8793443,69.8360656 C18.4265574,69.8360656 18.0596721,70.2031148 18.0596721,70.6557377 C18.0596721,71.1083607 18.4265574,71.4754098 18.8793443,71.4754098 L39.9862295,71.4754098 Z" id="路径"></path>
                <path d="M43.6398361,1.16557377 C41.3962295,1.16557377 39.2955738,1.78819672 37.5,2.86836066 C32.3154098,0.966557377 26.8654098,0 21.2942623,0 C14.412459,0 7.77704918,1.45344262 1.57196721,4.32016393 C0.704098361,4.72114754 0.143278689,5.59803279 0.143278689,6.55442623 L0.143278689,69.0163934 C0.143278689,70.3722951 1.24639344,71.4754098 2.60229508,71.4754098 L13.3609836,71.4754098 C13.8137705,71.4754098 14.1806557,71.1083607 14.1806557,70.6557377 C14.1806557,70.2031148 13.8137705,69.8360656 13.3609836,69.8360656 L2.60229508,69.8360656 C2.15032787,69.8360656 1.78262295,69.4683607 1.78262295,69.0163934 L1.78262295,6.5542623 C1.78262295,6.23491803 1.96983607,5.94213115 2.25934426,5.80819672 C8.24754098,3.04196721 14.6518033,1.63934426 21.2942623,1.63934426 C26.2963934,1.63934426 31.1965574,2.44688525 35.8834426,4.03639344 C33.32,6.22967213 31.6906557,9.48459016 31.6906557,13.1147541 L31.6906557,22.604918 C31.6906557,23.9608197 32.7936066,25.0639344 34.1496721,25.0639344 L43.6398361,25.0639344 C50.2285246,25.0639344 55.5890164,19.7036066 55.5890164,13.1147541 C55.5890164,6.52606557 50.2285246,1.16557377 43.6398361,1.16557377 L43.6398361,1.16557377 Z M43.6398361,23.4245902 L34.1496721,23.4245902 C33.6977049,23.4245902 33.33,23.0568852 33.33,22.604918 L33.33,13.1147541 C33.33,7.43 37.954918,2.80491803 43.6398361,2.80491803 C49.3247541,2.80491803 53.9496721,7.42983607 53.9496721,13.1147541 C53.9496721,18.7995082 49.3247541,23.4245902 43.6398361,23.4245902 Z" id="形状"></path>
              </g>
            </g>
          </g>
        </g>
      </g>
    </g>
  </g>
</svg>
