<?xml version="1.0" encoding="UTF-8"?>
<svg xmlns="http://www.w3.org/2000/svg" xmlns:xlink="http://www.w3.org/1999/xlink" width="81px" height="82px" viewBox="0 0 81 82" version="1.1">
  <title>客户成功经理</title>
  <defs>
    <linearGradient x1="0.000108137616%" y1="50.000048%" x2="100.000064%" y2="50.000048%" id="linearGradient-1">
      <stop stop-color="#D2DEFF" stop-opacity="0" offset="0%"></stop>
      <stop stop-color="#B7C5FF" offset="100%"></stop>
    </linearGradient>
  </defs>
  <g id="服务与资源" stroke="none" stroke-width="1" fill="none" fill-rule="evenodd">
    <g id="服务与资源最终稿" transform="translate(-218.000000, -1972.000000)" fill-rule="nonzero">
      <g id="编组-5" transform="translate(0.000000, 850.000000)">
        <g id="编组-4" transform="translate(218.000000, 100.000000)">
          <g id="客户成功经理" transform="translate(0.000000, 1022.000000)">
            <g id="编组" transform="translate(0.637450, 0.000000)">
              <path d="M1.86916335,28.6156175 C6.05322709,42.1625498 19.0444622,42.7996813 30.8940239,43.5244622 C69.9166534,45.9113944 20.8538645,78.2951394 54.2720319,81.5011952 C66.5646215,82.6804781 79.4173705,72.4245418 77.4734661,59.1440637 C75.7035857,47.0519522 58.1663745,39.8495618 58.1576096,28.5498008 C58.150757,19.6342629 74.709004,13.1858167 63.938008,3.60111554 C54.3367331,-4.94262948 -6.63888446,1.06916335 1.86916335,28.6156175 Z" id="路径" fill="url(#linearGradient-1)"></path>
              <g transform="translate(0.000000, 8.605578)">
                <g transform="translate(0.000000, 6.215139)">
                  <g opacity="0.1" transform="translate(0.000000, 3.824701)" fill="#2626BC" id="路径">
                    <g transform="translate(24.541833, 34.900398)">
                      <path d="M28.7023108,7.90358566 C27.0801594,7.90358566 26.2380876,7.3625498 25.4952988,6.88541833 C24.8296414,6.45768924 24.3039044,6.12 23.1496414,6.12 C21.9953785,6.12 21.4696414,6.45768924 20.8039841,6.88541833 C20.0611952,7.3625498 19.2191235,7.90358566 17.5969721,7.90358566 C15.9749801,7.90358566 15.1330677,7.3625498 14.3902789,6.88525896 C13.7247809,6.45768924 13.1992032,6.12 12.045259,6.12 C10.8911554,6.12 10.3654183,6.45768924 9.69976096,6.88541833 C8.95697211,7.3625498 8.11505976,7.90358566 6.49322709,7.90358566 C4.87123506,7.90358566 4.02948207,7.3625498 3.28653386,6.88541833 C2.62103586,6.45768924 2.0952988,6.12 0.941354582,6.12 C0.501195219,6.12 0.144541833,5.76334661 0.144541833,5.32318725 C0.144541833,4.88302789 0.501195219,4.5263745 0.941354582,4.5263745 C2.56334661,4.5263745 3.4050996,5.06741036 4.14804781,5.54454183 C4.81354582,5.97227092 5.33928287,6.30996016 6.49322709,6.30996016 C7.64717131,6.30996016 8.17290837,5.97227092 8.83840637,5.5447012 C9.58135458,5.06741036 10.4232669,4.5263745 12.045259,4.5263745 C13.6670916,4.5263745 14.509004,5.06741036 15.2517928,5.54454183 C15.9172908,5.97227092 16.4428685,6.30996016 17.5969721,6.30996016 C18.7512351,6.30996016 19.2771315,5.97227092 19.9427888,5.54454183 C20.6855777,5.06741036 21.5276494,4.5263745 23.1496414,4.5263745 C24.7716335,4.5263745 25.6137052,5.06741036 26.356494,5.54454183 C27.0221514,5.97227092 27.5480478,6.30996016 28.7023108,6.30996016 C29.1424701,6.30996016 29.4991235,6.66661355 29.4991235,7.10677291 C29.4991235,7.54677291 29.1423108,7.90358566 28.7023108,7.90358566 Z"></path>
                      <g>
                        <path d="M28.7023108,3.44462151 C27.0801594,3.44462151 26.2380876,2.90358566 25.4952988,2.42645418 C24.8296414,1.9987251 24.3039044,1.66103586 23.1496414,1.66103586 C21.9953785,1.66103586 21.4696414,1.9987251 20.8039841,2.42645418 C20.0611952,2.90358566 19.2191235,3.44462151 17.5969721,3.44462151 C15.9749801,3.44462151 15.1330677,2.90358566 14.3902789,2.42629482 C13.7247809,1.9987251 13.1992032,1.66103586 12.045259,1.66103586 C10.8911554,1.66103586 10.3654183,1.9987251 9.69976096,2.42645418 C8.95697211,2.90358566 8.11505976,3.44462151 6.49322709,3.44462151 C4.87123506,3.44462151 4.02948207,2.90358566 3.28653386,2.42645418 C2.62103586,1.9987251 2.0952988,1.66103586 0.941354582,1.66103586 C0.501195219,1.66103586 0.144541833,1.30438247 0.144541833,0.864223108 C0.144541833,0.424063745 0.501195219,0.0674103586 0.941354582,0.0674103586 C2.56334661,0.0674103586 3.4050996,0.608446215 4.14804781,1.08557769 C4.81354582,1.51330677 5.33928287,1.85099602 6.49322709,1.85099602 C7.64717131,1.85099602 8.17290837,1.51330677 8.83840637,1.08573705 C9.58135458,0.608446215 10.4232669,0.0674103586 12.045259,0.0674103586 C13.6670916,0.0674103586 14.509004,0.608446215 15.2517928,1.08557769 C15.9172908,1.51330677 16.4428685,1.85099602 17.5969721,1.85099602 C18.7512351,1.85099602 19.2771315,1.51330677 19.9427888,1.08557769 C20.6855777,0.608446215 21.5276494,0.0674103586 23.1496414,0.0674103586 C24.7716335,0.0674103586 25.6137052,0.608446215 26.356494,1.08557769 C27.0221514,1.51330677 27.5480478,1.85099602 28.7023108,1.85099602 C29.1424701,1.85099602 29.4991235,2.2076494 29.4991235,2.64780876 C29.4991235,3.08796813 29.1423108,3.44462151 28.7023108,3.44462151 Z"></path>
                        <path d="M28.7023108,12.3622311 C27.0801594,12.3622311 26.2380876,11.8211952 25.4952988,11.3440637 C24.8296414,10.9163347 24.3039044,10.5786454 23.1496414,10.5786454 C21.9953785,10.5786454 21.4696414,10.9163347 20.8039841,11.3440637 C20.0611952,11.8211952 19.2191235,12.3622311 17.5969721,12.3622311 C15.9749801,12.3622311 15.1330677,11.8211952 14.3902789,11.3439044 C13.7247809,10.9163347 13.1992032,10.5786454 12.045259,10.5786454 C10.8911554,10.5786454 10.3654183,10.9163347 9.69976096,11.3440637 C8.95697211,11.8211952 8.11505976,12.3622311 6.49322709,12.3622311 C4.87123506,12.3622311 4.02948207,11.8211952 3.28653386,11.3440637 C2.62103586,10.9163347 2.0952988,10.5786454 0.941354582,10.5786454 C0.501195219,10.5786454 0.144541833,10.221992 0.144541833,9.78183267 C0.144541833,9.34167331 0.501195219,8.98501992 0.941354582,8.98501992 C2.56334661,8.98501992 3.4050996,9.52605578 4.14804781,10.0031873 C4.81354582,10.4309163 5.33928287,10.7686056 6.49322709,10.7686056 C7.64717131,10.7686056 8.17290837,10.4309163 8.83840637,10.0033466 C9.58135458,9.52605578 10.4232669,8.98501992 12.045259,8.98501992 C13.6670916,8.98501992 14.509004,9.52605578 15.2517928,10.0031873 C15.9172908,10.4309163 16.4428685,10.7686056 17.5969721,10.7686056 C18.7512351,10.7686056 19.2771315,10.4309163 19.9427888,10.0031873 C20.6855777,9.52605578 21.5276494,8.98501992 23.1496414,8.98501992 C24.7716335,8.98501992 25.6137052,9.52605578 26.356494,10.0031873 C27.0221514,10.4309163 27.5480478,10.7686056 28.7023108,10.7686056 C29.1424701,10.7686056 29.4991235,11.125259 29.4991235,11.5654183 C29.4991235,12.0055777 29.1423108,12.3622311 28.7023108,12.3622311 Z"></path>
                      </g>
                    </g>
                    <path d="M77.4078088,37.71251 L68.2097211,28.5144223 C68.1684462,27.2838247 67.6865339,26.0521116 66.7115538,25.0769721 L65.9834263,24.3488446 L67.6605578,24.3488446 C73.1885259,24.3488446 77.6698008,19.8675697 77.6698008,14.3396016 C77.6698008,8.81163347 73.1885259,4.33035857 67.6605578,4.33035857 C62.1325896,4.33035857 57.6513147,8.81163347 57.6513147,14.3396016 L57.6513147,16.0167331 L46.8414343,5.20685259 C45.8428685,4.20828685 44.223745,4.20828685 43.2250199,5.20685259 C42.9721116,5.45976096 42.783745,5.75266932 42.6589641,6.06501992 C41.7866135,5.80286853 40.801753,6.01577689 40.11251,6.70517928 C39.7117131,7.1059761 39.474741,7.60685259 39.3955378,8.12733068 L39.3314741,8.12733068 C39.2524303,7.60701195 39.0152988,7.1059761 38.614502,6.70517928 C37.925259,6.01593625 36.9403984,5.80286853 36.0680478,6.06501992 C35.9432669,5.75266932 35.7549004,5.45976096 35.501992,5.20685259 C35.0895618,4.79442231 34.5708367,4.55505976 34.0341036,4.48334661 C33.3796016,1.92956175 31.0626295,0.041752988 28.3047012,0.041752988 L13.492749,0.041752988 C10.2262948,0.041752988 7.57832669,2.68972112 7.57832669,5.9561753 C7.57832669,9.22262948 10.2262948,11.8705976 13.492749,11.8705976 L25.221992,11.8705976 L12.0157769,25.0768127 C11.0406375,26.0519522 10.5587251,27.283506 10.5174502,28.5142629 L1.31952191,37.71251 C-0.228685259,39.2607171 -0.228685259,41.7706773 1.31952191,43.3188845 L4.33338645,46.3329084 C6.12573705,48.1250996 9.11649402,47.798247 10.4792032,45.6610359 L17.9912351,33.8793625 C21.2062151,33.3878884 24.3847012,31.2828685 25.867251,28.5193625 C25.9069323,28.4454183 25.9435857,28.3725896 25.981992,28.2989641 L35.8203984,26.992988 C37.010996,26.8653386 37.9137849,25.8607171 37.9137849,24.6632669 C37.9137849,23.4659761 37.010996,22.4611952 35.8203984,22.3335458 L28.0121116,22.2640637 C28.0521116,22.0001594 28.0849402,21.7431076 28.1109163,21.4941833 C28.1376892,21.2368127 28.1714741,20.9810359 28.2101992,20.7263745 L38.6148207,10.321753 C39.0023904,9.93418327 39.7250996,9.93418327 40.1126693,10.321753 L50.5172908,20.7263745 C50.5560159,20.9810359 50.5898008,21.2369721 50.6165737,21.4941833 C50.6425498,21.7431076 50.6752191,22 50.7153785,22.2640637 L42.9070916,22.3335458 C41.716494,22.4611952 40.8137052,23.4658167 40.8137052,24.6632669 C40.8137052,25.8607171 41.716494,26.8653386 42.9070916,26.992988 L52.745498,28.2989641 C52.7839044,28.3724303 52.8205578,28.4454183 52.860239,28.5193625 C54.3427888,31.2828685 57.5214343,33.3878884 60.736255,33.8793625 L68.2482869,45.6610359 C69.610996,47.798247 72.601753,48.125259 74.3941036,46.3329084 L77.4079681,43.3188845 C78.9558566,41.7706773 78.9558566,39.2607171 77.4078088,37.71251 L77.4078088,37.71251 Z"></path>
                  </g>
                  <g transform="translate(7.490040, 0.000000)" id="路径">
                    <path d="M25.1356175,11.8709163 L6.00270916,11.8709163 C2.73625498,11.8709163 0.0882868526,9.22294821 0.0882868526,5.95649402 C0.0882868526,2.69003984 2.73625498,0.0420717131 6.00270916,0.0420717131 L20.8148207,0.0420717131 C24.0812749,0.0420717131 26.729243,2.69003984 26.729243,5.95649402 L26.729243,10.2772908 C26.729243,11.1572908 26.0157769,11.8709163 25.1356175,11.8709163 Z" fill="#FFFFFF"></path>
                    <g transform="translate(3.824701, 3.665339)" fill="#326DE6">
                      <path d="M12.5236653,1.6012749 L0.807330677,1.6012749 C0.367171315,1.6012749 0.0105179283,1.24446215 0.0105179283,0.804462151 C0.0105179283,0.364462151 0.367171315,0.00764940239 0.807330677,0.00764940239 L12.5236653,0.00764940239 C12.9638247,0.00764940239 13.3204781,0.364462151 13.3204781,0.804462151 C13.3204781,1.24446215 12.9636653,1.6012749 12.5236653,1.6012749 Z"></path>
                      <path d="M17.3045418,4.57450199 L0.807330677,4.57450199 C0.367171315,4.57450199 0.0105179283,4.21768924 0.0105179283,3.77768924 C0.0105179283,3.33768924 0.367171315,2.98087649 0.807330677,2.98087649 L17.3043825,2.98087649 C17.7445418,2.98087649 18.1011953,3.33768924 18.1011953,3.77768924 C18.1011953,4.21768924 17.7445418,4.57450199 17.3045418,4.57450199 L17.3045418,4.57450199 Z"></path>
                    </g>
                  </g>
                  <g transform="translate(0.000000, 4.302789)" id="路径">
                    <g>
                      <path d="M34.998247,2.4025498 L20.4031873,16.9976096 L23.4119522,21.2215139 L23.4178486,21.2156175 L23.4178486,24.3364143 L35.820239,22.6900398 C37.0108367,22.5623904 37.9136255,21.5577689 37.9136255,20.3603187 C37.9136255,19.1628685 37.0108367,18.158247 35.820239,18.0305976 L26.6843028,17.9493227 L38.6146614,6.01896414 C39.6132271,5.02039841 39.6132271,3.4012749 38.6146614,2.4025498 C37.6160956,1.40398406 35.9969721,1.40398406 34.998247,2.4025498 L34.998247,2.4025498 Z" fill="#658DFE"></path>
                      <path d="M35.5021514,0.904223108 C34.5035857,-0.0943426295 32.8844622,-0.0943426295 31.8857371,0.904223108 L12.0157769,20.7741833 C11.0406375,21.7491633 10.5587251,22.9808765 10.5174502,24.2116335 L1.31952191,33.4097211 C-0.228685259,34.9579283 -0.228685259,37.4678884 1.31952191,39.0160956 L4.33338645,42.0299602 C6.12573705,43.8223108 9.11649402,43.4952988 10.4792032,41.3580876 L17.9912351,29.5764143 C21.2062151,29.0849402 24.3847012,26.9799203 25.867251,24.2164143 C27.3051793,21.5360956 27.9091633,19.1298805 28.110757,17.1913944 C28.5121912,13.3311554 30.2815936,9.74135458 33.0258167,6.99697211 L35.501992,4.52079681 C36.5008765,3.52207171 36.5008765,1.90294821 35.5021514,0.904223108 Z" fill="#FFFFFF"></path>
                    </g>
                    <g transform="translate(39.362550, 0.000000)">
                      <path d="M4.3663745,2.4025498 L18.9614343,16.9976096 L15.9526693,21.2215139 L15.9467729,21.2156175 L15.9467729,24.3364143 L3.54438247,22.6900398 C2.35378486,22.5623904 1.45099602,21.5577689 1.45099602,20.3603187 C1.45099602,19.1628685 2.35378486,18.158247 3.54438247,18.0305976 L12.6803187,17.9493227 L0.749960159,6.01896414 C-0.248605578,5.02039841 -0.248605578,3.4012749 0.749960159,2.4025498 C1.74868526,1.40398406 3.36780876,1.40398406 4.3663745,2.4025498 L4.3663745,2.4025498 Z" fill="#658DFE"></path>
                      <path d="M38.045259,33.4097211 L28.8471713,24.2116335 C28.8058964,22.9810359 28.3239841,21.7493227 27.349004,20.7741833 L7.47888446,0.904223108 C6.48031873,-0.0943426295 4.86119522,-0.0943426295 3.86247012,0.904223108 C2.86390438,1.90294821 2.86390438,3.52191235 3.86247012,4.52063745 L6.33864542,6.99681275 C9.08302789,9.74119522 10.8524303,13.330996 11.2537052,17.1912351 C11.4552988,19.1297211 12.0592829,21.5359363 13.4972112,24.216255 C14.979761,26.979761 18.1584064,29.0847809 21.3732271,29.576255 L28.885259,41.3579283 C30.2479681,43.4951394 33.2387251,43.8221514 35.0310757,42.0298008 L38.0449402,39.0159363 C39.5933068,37.4678884 39.5933068,34.9579283 38.045259,33.4097211 L38.045259,33.4097211 Z" fill="#FFFFFF"></path>
                    </g>
                  </g>
                  <g transform="translate(57.529880, 4.302789)">
                    <path d="M1.37625498,20.0462151 L10.1305179,20.0462151 C15.6584861,20.0462151 20.139761,15.5649402 20.139761,10.0369721 C20.139761,4.50900398 15.6584861,0.0277290837 10.1305179,0.0277290837 C4.6025498,0.0277290837 0.1212749,4.50900398 0.1212749,10.0369721 L0.1212749,18.7913944 C0.1212749,19.4843028 0.683346614,20.0462151 1.37625498,20.0462151 Z" id="路径" fill="#FFFFFF"></path>
                    <g transform="translate(3.346614, 7.808765)" fill="#326DE6" id="椭圆形">
                      <circle transform="translate(2.195178, 2.232001) rotate(-45.000000) translate(-2.195178, -2.232001) " cx="2.19517769" cy="2.23200127" r="1.48662806"></circle>
                      <circle transform="translate(6.773588, 2.232396) rotate(-45.000000) translate(-6.773588, -2.232396) " cx="6.77358789" cy="2.23239586" r="1.48662806"></circle>
                      <circle transform="translate(11.373660, 2.253703) rotate(-76.700416) translate(-11.373660, -2.253703) " cx="11.3736599" cy="2.25370311" r="1.48657675"></circle>
                    </g>
                  </g>
                </g>
                <g transform="translate(13.545817, 0.000000)" fill="#6591FE">
                  <path d="M2.58820717,58.1638247 C2.14804781,58.1638247 1.79139442,57.8071713 1.79139442,57.367012 C1.79139442,56.8396813 1.3625498,56.4108367 0.835219124,56.4108367 C0.395059761,56.4108367 0.0384063745,56.0541833 0.0384063745,55.6140239 C0.0384063745,55.1738645 0.395059761,54.8172112 0.835219124,54.8172112 C1.3625498,54.8172112 1.79139442,54.3883665 1.79139442,53.8610359 C1.79139442,53.4208765 2.14804781,53.0642231 2.58820717,53.0642231 C3.02836653,53.0642231 3.38501992,53.4208765 3.38501992,53.8610359 C3.38501992,54.3883665 3.81386454,54.8172112 4.34119522,54.8172112 C4.78135458,54.8172112 5.13800797,55.1738645 5.13800797,55.6140239 C5.13800797,56.0541833 4.78135458,56.4108367 4.34119522,56.4108367 C3.81386454,56.4108367 3.38501992,56.8396813 3.38501992,57.367012 C3.38501992,57.807012 3.02836653,58.1638247 2.58820717,58.1638247 Z" id="路径"></path>
                  <path d="M36.4788845,5.1987251 C36.0387251,5.1987251 35.6820717,4.84207171 35.6820717,4.40191235 C35.6820717,3.87458167 35.2530677,3.44573705 34.7257371,3.44573705 C34.2855777,3.44573705 33.9289243,3.08908367 33.9289243,2.6489243 C33.9289243,2.20876494 34.2855777,1.85211155 34.7257371,1.85211155 C35.2530677,1.85211155 35.6820717,1.42326693 35.6820717,0.895936255 C35.6820717,0.455776892 36.0387251,0.099123506 36.4788845,0.099123506 C36.9190438,0.099123506 37.2756972,0.455776892 37.2756972,0.895936255 C37.2756972,1.42326693 37.7045418,1.85211155 38.2317131,1.85211155 C38.6718725,1.85211155 39.0285259,2.20876494 39.0285259,2.6489243 C39.0285259,3.08908367 38.6718725,3.44573705 38.2317131,3.44573705 C37.7045418,3.44573705 37.2756972,3.87458167 37.2756972,4.40191235 C37.2756972,4.84207171 36.9190438,5.1987251 36.4788845,5.1987251 Z" id="路径"></path>
                  <path d="M23.6623108,6.88111554 C23.2221514,6.88111554 22.865498,6.52446215 22.865498,6.08430279 C22.865498,5.55697211 22.4366534,5.12812749 21.9093227,5.12812749 C21.4691633,5.12812749 21.11251,4.7714741 21.11251,4.33131474 C21.11251,3.89115538 21.4691633,3.53450199 21.9093227,3.53450199 C22.4366534,3.53450199 22.865498,3.10565737 22.865498,2.57832669 C22.865498,2.13816733 23.2221514,1.78151394 23.6623108,1.78151394 C24.1024701,1.78151394 24.4591235,2.13816733 24.4591235,2.57832669 C24.4591235,3.10565737 24.8879681,3.53450199 25.4152988,3.53450199 C25.8554582,3.53450199 26.2121116,3.89115538 26.2121116,4.33131474 C26.2121116,4.7714741 25.8554582,5.12812749 25.4152988,5.12812749 C24.8879681,5.12812749 24.4591235,5.55697211 24.4591235,6.08430279 C24.4591235,6.52430279 24.1023108,6.88111554 23.6623108,6.88111554 Z" id="路径"></path>
                  <path d="M49.2911554,61.8366534 C48.850996,61.8366534 48.4943426,61.48 48.4943426,61.0398406 C48.4943426,60.51251 48.065498,60.0836653 47.5381673,60.0836653 C47.098008,60.0836653 46.7413546,59.727012 46.7413546,59.2868526 C46.7413546,58.8466932 47.098008,58.4900398 47.5381673,58.4900398 C48.065498,58.4900398 48.4943426,58.0611952 48.4943426,57.5338645 C48.4943426,57.0937052 48.850996,56.7370518 49.2911554,56.7370518 C49.7313147,56.7370518 50.0879681,57.0937052 50.0879681,57.5338645 C50.0879681,58.0611952 50.5168127,58.4900398 51.0441434,58.4900398 C51.4843028,58.4900398 51.8409562,58.8466932 51.8409562,59.2868526 C51.8409562,59.727012 51.4843028,60.0836653 51.0441434,60.0836653 C50.5168127,60.0836653 50.0879681,60.51251 50.0879681,61.0398406 C50.0879681,61.48 49.7313147,61.8366534 49.2911554,61.8366534 Z" id="路径"></path>
                  <path d="M43.3743426,10.2983267 C43.1705179,10.2983267 42.9663745,10.2205578 42.810996,10.0648606 L41.058008,8.31187251 C40.7467729,8.00079681 40.7467729,7.49625498 41.058008,7.18517928 L42.810996,5.43219124 C43.1219124,5.12095618 43.6267729,5.12095618 43.9376892,5.43219124 L45.6906773,7.18517928 C46.0019124,7.49625498 46.0019124,8.00079681 45.6906773,8.31187251 L43.9376892,10.0648606 C43.7823108,10.2205578 43.5781673,10.2983267 43.3743426,10.2983267 L43.3743426,10.2983267 Z M42.7482072,7.7485259 L43.3743426,8.37466135 L44.0004781,7.7485259 L43.3743426,7.12239044 L42.7482072,7.7485259 Z" id="形状"></path>
                </g>
              </g>
            </g>
            <g id="编组" transform="translate(0.000000, 14.023904)" fill="#326DE6">
              <path d="M26.1206375,41.8172112 C27.2745817,41.8172112 27.8003187,42.1549004 28.4658167,42.5826295 C29.2087649,43.059761 30.0505179,43.6007968 31.67251,43.6007968 C33.2943426,43.6007968 34.136255,43.059761 34.8790438,42.5826295 C35.5447012,42.1549004 36.0704382,41.8172112 37.2245418,41.8172112 C38.3784861,41.8172112 38.9040637,42.1549004 39.5695618,42.5824701 C40.3123506,43.059761 41.1542629,43.6007968 42.776255,43.6007968 C44.3984064,43.6007968 45.2404781,43.059761 45.9832669,42.5826295 C46.6489243,42.1549004 47.1746614,41.8172112 48.3289243,41.8172112 C49.4831873,41.8172112 50.0089243,42.1549004 50.6745817,42.5826295 C51.4173705,43.059761 52.2594422,43.6007968 53.8815936,43.6007968 C54.321753,43.6007968 54.6784064,43.2441434 54.6784064,42.8039841 C54.6784064,42.3638247 54.321753,42.0071713 53.8815936,42.0071713 C52.7273307,42.0071713 52.2014343,41.6694821 51.5357769,41.241753 C50.792988,40.7646215 49.9509163,40.2235857 48.3289243,40.2235857 C46.7069323,40.2235857 45.8648606,40.7646215 45.1220717,41.241753 C44.4564143,41.6694821 43.9305179,42.0071713 42.776255,42.0071713 C41.6221514,42.0071713 41.0965737,41.6694821 40.4310757,41.241753 C39.6882869,40.7646215 38.8463745,40.2235857 37.2245418,40.2235857 C35.6025498,40.2235857 34.7606375,40.7646215 34.0176892,41.2419124 C33.3521912,41.6694821 32.8264542,42.0071713 31.67251,42.0071713 C30.5185657,42.0071713 29.9928287,41.6694821 29.3273307,41.241753 C28.5843825,40.7646215 27.7426295,40.2235857 26.1206375,40.2235857 C25.6804781,40.2235857 25.3238247,40.580239 25.3238247,41.0203984 C25.3238247,41.4605578 25.6806375,41.8172112 26.1206375,41.8172112 Z" id="路径"></path>
              <path d="M26.1206375,37.3584064 C27.2745817,37.3584064 27.8003187,37.6960956 28.4658167,38.1238247 C29.2087649,38.6009562 30.0505179,39.141992 31.67251,39.141992 C33.2943426,39.141992 34.136255,38.6009562 34.8790438,38.1238247 C35.5447012,37.6960956 36.0704382,37.3584064 37.2245418,37.3584064 C38.3784861,37.3584064 38.9040637,37.6960956 39.5695618,38.1236653 C40.3123506,38.6009562 41.1542629,39.141992 42.776255,39.141992 C44.3984064,39.141992 45.2404781,38.6009562 45.9832669,38.1238247 C46.6489243,37.6960956 47.1746614,37.3584064 48.3289243,37.3584064 C49.4831873,37.3584064 50.0089243,37.6960956 50.6745817,38.1238247 C51.4173705,38.6009562 52.2594422,39.141992 53.8815936,39.141992 C54.321753,39.141992 54.6784064,38.7853386 54.6784064,38.3451793 C54.6784064,37.9050199 54.321753,37.5483665 53.8815936,37.5483665 C52.7273307,37.5483665 52.2014343,37.2106773 51.5357769,36.7829482 C50.792988,36.3058167 49.9509163,35.7647809 48.3289243,35.7647809 C46.7069323,35.7647809 45.8648606,36.3058167 45.1220717,36.7829482 C44.4564143,37.2106773 43.9305179,37.5483665 42.776255,37.5483665 C41.6221514,37.5483665 41.0965737,37.2106773 40.4310757,36.7829482 C39.6882869,36.3058167 38.8463745,35.7647809 37.2245418,35.7647809 C35.6025498,35.7647809 34.7606375,36.3058167 34.0176892,36.7831076 C33.3521912,37.2106773 32.8264542,37.5483665 31.67251,37.5483665 C30.5185657,37.5483665 29.9928287,37.2106773 29.3273307,36.7829482 C28.5843825,36.3058167 27.7426295,35.7647809 26.1206375,35.7647809 C25.6804781,35.7647809 25.3238247,36.1214343 25.3238247,36.5615936 C25.3238247,37.001753 25.6806375,37.3584064 26.1206375,37.3584064 Z" id="路径"></path>
              <path d="M26.1206375,46.2760159 C27.2745817,46.2760159 27.8003187,46.6137052 28.4658167,47.0414343 C29.2087649,47.5185657 30.0505179,48.0596016 31.67251,48.0596016 C33.2943426,48.0596016 34.136255,47.5185657 34.8790438,47.0414343 C35.5447012,46.6137052 36.0704382,46.2760159 37.2245418,46.2760159 C38.3784861,46.2760159 38.9040637,46.6137052 39.5695618,47.0412749 C40.3123506,47.5185657 41.1542629,48.0596016 42.776255,48.0596016 C44.3984064,48.0596016 45.2404781,47.5185657 45.9832669,47.0414343 C46.6489243,46.6137052 47.1746614,46.2760159 48.3289243,46.2760159 C49.4831873,46.2760159 50.0089243,46.6137052 50.6745817,47.0414343 C51.4173705,47.5185657 52.2594422,48.0596016 53.8815936,48.0596016 C54.321753,48.0596016 54.6784064,47.7029482 54.6784064,47.2627888 C54.6784064,46.8226295 54.321753,46.4659761 53.8815936,46.4659761 C52.7273307,46.4659761 52.2014343,46.1282869 51.5357769,45.7005578 C50.792988,45.2234263 49.9509163,44.6823904 48.3289243,44.6823904 C46.7069323,44.6823904 45.8648606,45.2234263 45.1220717,45.7005578 C44.4564143,46.1282869 43.9305179,46.4659761 42.776255,46.4659761 C41.6221514,46.4659761 41.0965737,46.1282869 40.4310757,45.7005578 C39.6882869,45.2234263 38.8463745,44.6823904 37.2245418,44.6823904 C35.6025498,44.6823904 34.7606375,45.2234263 34.0176892,45.7007171 C33.3521912,46.1282869 32.8264542,46.4659761 31.67251,46.4659761 C30.5185657,46.4659761 29.9928287,46.1282869 29.3273307,45.7005578 C28.5843825,45.2234263 27.7426295,44.6823904 26.1206375,44.6823904 C25.6804781,44.6823904 25.3238247,45.0390438 25.3238247,45.4792032 C25.3238247,45.9193625 25.6806375,46.2760159 26.1206375,46.2760159 Z" id="路径"></path>
              <path d="M69.6247012,28.9627092 C69.5271713,27.8639044 69.1238247,26.8215139 68.4607171,25.9413546 C74.3442231,25.8537052 79.1039044,21.0404781 79.1039044,15.1365737 C79.1039044,9.17800797 74.2564143,4.33051793 68.2978486,4.33051793 C62.4200797,4.33051793 57.6267729,9.04844622 57.498008,14.8957769 L48.0879681,5.48589641 C46.7662151,4.16414343 44.6275697,4.13466135 43.3201594,5.41976096 C43.1475697,5.58932271 42.9974502,5.77498008 42.8674104,5.97195219 C41.878247,5.88063745 40.8964143,6.22868526 40.1867729,6.93864542 C40.1211155,7.00414343 40.0605578,7.07330677 40.0011155,7.14326693 C39.9416733,7.07346614 39.8811155,7.00430279 39.8156175,6.93864542 C39.1058167,6.2285259 38.1231873,5.88063745 37.1348207,5.97179283 C37.0047809,5.77498008 36.8546614,5.58932271 36.6820717,5.41960159 C36.2843028,5.0285259 35.8089243,4.76079681 35.3035857,4.61258964 C34.3842231,1.87155378 31.8501992,0.0415936255 28.9423108,0.0415936255 L14.1301992,0.0415936255 C10.4294821,0.0415936255 7.41896414,3.05227092 7.41896414,6.75282869 C7.41896414,10.4533865 10.4296414,13.4640637 14.1301992,13.4640637 L23.9356175,13.4640637 L21.356494,16.0431873 C21.045259,16.3542629 21.045259,16.8588048 21.356494,17.1698805 C21.6674104,17.4811155 22.1722709,17.4811155 22.4831873,17.1698805 L33.0407968,6.61243028 C33.7466135,5.90677291 34.8785657,5.88143426 35.5644622,6.55585657 C35.9048606,6.89051793 36.0922709,7.33641434 36.0922709,7.81179283 C36.0922709,8.2812749 35.9086853,8.72366534 35.5754582,9.05689243 L33.0996016,11.5325896 C30.1961753,14.4360159 28.3694024,18.2270916 27.9560159,22.2076494 C27.7231873,24.4438247 26.9985657,26.7085259 25.8025498,28.9383267 C24.4608765,31.4377689 21.5290837,33.4270916 18.5070916,33.8889243 C17.4978486,34.0430279 16.5356175,34.0194422 15.6468526,33.8191235 C15.2184861,33.721753 14.7910757,33.9915538 14.6941833,34.4208765 C14.5972908,34.8500398 14.8667729,35.2766534 15.2959363,35.3735458 C15.878247,35.5050199 16.4838247,35.5722709 17.1061355,35.5799203 L10.4446215,46.0288446 C9.92557769,46.8427092 9.07776892,47.3697211 8.11808765,47.474741 C7.15888446,47.5789641 6.21657371,47.2482869 5.5340239,46.5658964 L2.52079681,43.5526693 C1.9225498,42.9542629 1.59314741,42.1588845 1.59314741,41.3128287 C1.59314741,40.4667729 1.9225498,39.6713944 2.52079681,39.072988 L11.7174502,29.8763347 C11.860239,29.7333865 11.9435857,29.5416733 11.9504382,29.3399203 C11.987251,28.2487649 12.4372908,27.2176892 13.2167331,26.4366534 L18.4460558,21.2073307 C18.7572908,20.896255 18.7572908,20.3917131 18.4460558,20.0806375 C18.1351394,19.7694024 17.6302789,19.7694024 17.3193625,20.0806375 L12.0895618,25.3104382 C11.1003984,26.3010359 10.4996016,27.5877291 10.3775299,28.9627092 L1.39410359,37.9462948 C0.494661355,38.8455777 -0.000478087649,40.0409562 -0.000478087649,41.3128287 C-0.000478087649,42.5845418 0.494661355,43.7800797 1.39410359,44.6793625 L4.40733068,47.692749 C5.30836653,48.5937849 6.51011952,49.08749 7.76653386,49.08749 C7.94055777,49.08749 8.11569721,49.0779283 8.29131474,49.0588048 C9.73370518,48.9011952 11.0082869,48.109004 11.7882072,46.8855777 L19.1099602,35.4022311 C22.4178486,34.7796016 25.5858167,32.5843825 27.1289243,29.8315538 L36.5534661,28.5803984 C38.147251,28.4039841 39.3478884,27.0643825 39.3478884,25.4596016 C39.3478884,23.8513147 38.141992,22.5091633 36.5426295,22.3376892 C36.5168127,22.3348207 36.4908367,22.3335458 36.4648606,22.3332271 L29.5539442,22.2717131 C29.5678088,22.1459761 29.5845418,22.0207171 29.6015936,21.8954582 L39.8154582,11.6815936 C39.8811155,11.6159363 39.9416733,11.5469323 40.0011155,11.4769721 C40.0605578,11.5469323 40.1211155,11.6159363 40.1867729,11.6815936 L50.4007968,21.8956175 C50.4178486,22.0208765 50.4344223,22.1461355 50.4482869,22.2717131 L43.5372112,22.3332271 C43.5112351,22.3335458 43.485259,22.3349801 43.4594422,22.3376892 C41.860239,22.5091633 40.6541833,23.8513147 40.6541833,25.4596016 C40.6541833,27.0643825 41.8548207,28.4041434 43.4486056,28.5803984 L52.8658167,29.8305976 C52.8682072,29.8309163 52.8704382,29.830757 52.8728287,29.8310757 C54.4154582,32.5839044 57.5839044,34.7794422 60.8919522,35.4022311 L68.2137052,46.8855777 C68.9937849,48.109004 70.2683665,48.9010359 71.7105976,49.0588048 C71.8862151,49.0779283 72.0611952,49.08749 72.2353785,49.08749 C73.4917928,49.08749 74.6935458,48.5936255 75.5945817,47.6925896 L78.6078088,44.6793625 C80.4642231,42.8229482 80.4642231,39.8025498 78.6078088,37.9462948 L69.6247012,28.9627092 Z M31.9142629,5.48605578 L25.5294024,11.8709163 L14.1301992,11.8709163 C11.3083665,11.8709163 9.01258964,9.57513944 9.01258964,6.75330677 C9.01258964,3.9314741 11.3083665,1.63569721 14.1301992,1.63569721 L28.9421514,1.63569721 C30.9576096,1.63569721 32.7354582,2.78948207 33.5695618,4.56828685 C32.9638247,4.70932271 32.3866135,5.01354582 31.9142629,5.48605578 Z M37.7542629,25.4599203 C37.7542629,26.2521116 37.1603187,26.912988 36.372749,26.9974502 C36.3662151,26.998247 36.3595219,26.9990438 36.3528287,27 L27.9773705,28.1118725 C28.5985657,26.7029482 29.04749,25.2825498 29.3193625,23.863745 L36.40749,23.9266932 C37.1778486,24.0266135 37.7542629,24.6795219 37.7542629,25.4599203 L37.7542629,25.4599203 Z M38.6887649,10.5550598 L30.2992829,18.9445418 C31.0952988,16.612749 32.4349004,14.4516335 34.2266135,12.6599203 L36.7024701,10.1840637 C37.3367331,9.54964143 37.6862151,8.70741036 37.6862151,7.81211155 C37.6862151,7.73003984 37.68,7.6489243 37.6742629,7.56780876 C38.0533865,7.61784861 38.4111554,7.78772908 38.6887649,8.06549801 C39.0211952,8.39808765 39.2043028,8.84 39.2043028,9.31027888 C39.2043028,9.78055777 39.0211952,10.2224701 38.6887649,10.5550598 L38.6887649,10.5550598 Z M41.3134661,10.5550598 C40.9810359,10.2224701 40.7979283,9.78055777 40.7979283,9.31011952 C40.7979283,8.84 40.9810359,8.39792829 41.3136255,8.06533865 C41.5912351,7.78772908 41.9493227,7.61784861 42.3281275,7.5676494 C42.3223904,7.64876494 42.3161753,7.72988048 42.3161753,7.81195219 C42.3161753,8.707251 42.665498,9.54948207 43.2999203,10.1839044 L45.7757769,12.659761 C47.56749,14.4514741 48.9070916,16.6125896 49.7031076,18.9443825 L41.3134661,10.5550598 Z M43.6294821,26.9972908 C42.8419124,26.912988 42.2479681,26.2519522 42.2479681,25.459761 C42.2479681,24.6795219 42.8243825,24.0264542 43.5945817,23.9265339 L50.6828685,23.8635857 C50.954741,25.2822311 51.4036653,26.7026295 52.0248606,28.1117131 L43.6494024,26.9998406 C43.6427092,26.9988845 43.6360159,26.9980876 43.6294821,26.9972908 Z M77.4812749,43.5526693 L74.4680478,46.5657371 C73.785498,47.2481275 72.843506,47.580239 71.8839841,47.474741 C70.9244622,47.3697211 70.076494,46.8427092 69.5574502,46.0288446 L62.8956175,35.5805578 C63.5179283,35.572749 64.123506,35.5056574 64.7059761,35.3741833 C65.1351394,35.2774502 65.4047809,34.8508367 65.3077291,34.4215139 C65.2111554,33.9923506 64.7840637,33.7219124 64.3550598,33.819761 C63.4664542,34.0203984 62.5042231,34.043506 61.4948207,33.8895618 C58.4728287,33.4277291 55.5410359,31.4384064 54.1995219,28.9394422 C53.0033466,26.7093227 52.2787251,24.4446215 52.0460558,22.2086056 C51.6323506,18.2278884 49.8055777,14.4368127 46.9023108,11.5335458 L44.4264542,9.05768924 C44.0932271,8.72430279 43.9096414,8.28207171 43.9096414,7.81258964 C43.9096414,7.33737052 44.0972112,6.89131474 44.4374502,6.55665339 C45.123506,5.88207171 46.2552988,5.90772908 46.9611155,6.61322709 L57.4917928,17.143745 L57.4917928,23.8914741 C57.4917928,25.0227888 58.4121116,25.9431076 59.5434263,25.9431076 L61.2702789,25.9431076 C61.7104382,25.9431076 62.0670916,25.5864542 62.0670916,25.1462948 C62.0670916,24.7061355 61.7104382,24.3494821 61.2702789,24.3494821 L59.5434263,24.3494821 C59.2908367,24.3494821 59.0854183,24.1440637 59.0854183,23.8914741 L59.0854183,15.1370518 C59.0854183,10.0573705 63.2181673,5.92462151 68.2978486,5.92462151 C73.3775299,5.92462151 77.5102789,10.0573705 77.5102789,15.1370518 C77.5102789,20.2167331 73.3775299,24.3494821 68.2978486,24.3494821 L66.6208765,24.3494821 C66.2986454,24.3494821 66.0079681,24.543745 65.8847809,24.8414343 C65.7614343,25.1392829 65.8296414,25.4820717 66.0575299,25.7098008 L66.7848606,26.4366534 C67.5649402,27.218008 68.0148207,28.249243 68.0516335,29.3403984 C68.0584861,29.5423108 68.1416733,29.7340239 68.2846215,29.8768127 L77.4812749,39.0734661 C78.7161753,40.3082072 78.7161753,42.3176096 77.4812749,43.5526693 L77.4812749,43.5526693 Z" id="形状"></path>
            </g>
          </g>
        </g>
      </g>
    </g>
  </g>
</svg>
