<?xml version="1.0" encoding="UTF-8"?>
<svg xmlns="http://www.w3.org/2000/svg" xmlns:xlink="http://www.w3.org/1999/xlink" width="80px" height="84px" viewBox="0 0 80 84" version="1.1">
  <title>个性化技术服务</title>
  <defs>
    <linearGradient x1="-8.37531998e-05%" y1="49.9999363%" x2="99.9999873%" y2="49.9999363%" id="linearGradient-1">
      <stop stop-color="#D2DEFF" stop-opacity="0" offset="0%"></stop>
      <stop stop-color="#B7C5FF" offset="100%"></stop>
    </linearGradient>
  </defs>
  <g id="服务与资源" stroke="none" stroke-width="1" fill="none" fill-rule="evenodd">
    <g id="服务与资源最终稿" transform="translate(-219.000000, -1473.000000)" fill-rule="nonzero">
      <g id="编组-5" transform="translate(0.000000, 850.000000)">
        <g id="编组-4" transform="translate(218.000000, 100.000000)">
          <g id="编组-3备份-3" transform="translate(1.000000, 521.000000)">
            <g id="个性化技术服务" transform="translate(0.000000, 2.000000)">
              <g id="编组">
                <path d="M45.0152459,0.797868852 C29.5478689,5.34639344 32.6501639,16.1396721 30.9201639,28.0993443 C28.7609836,43.0259016 19.4291803,35.3722951 8.70770492,43.4334426 C-9.8257377,57.3680328 3.63704918,88.1278689 26.6532787,83.4563934 C38.874918,80.9759016 41.3722951,71.9654098 46.3570492,62.3377049 C52.805082,49.8831148 63.4977049,53.2786885 73.0891803,45.1480328 C92.5408197,28.6591803 66.957541,-5.6547541 45.0152459,0.797868852 Z" id="路径" fill="url(#linearGradient-1)"></path>
                <g transform="translate(3.606557, 5.081967)">
                  <path d="M71.0229508,38.0983607 L47.0885246,38.0983607 L47.0885246,38.0806557 C47.4147541,38.0336066 47.7355738,37.885082 48.0059016,37.6147541 L55.6518033,29.9688525 C56.2919672,29.3286885 56.2919672,28.2906557 55.6518033,27.6504918 L48.0059016,20.0045902 C47.7354098,19.7340984 47.4145902,19.5857377 47.0885246,19.5386885 L47.0885246,15.0278689 C47.0885246,14.1229508 46.3557377,13.3885246 45.4491803,13.3885246 L1.76393443,13.3885246 C0.857377049,13.3885246 0.124590164,14.1229508 0.124590164,15.0278689 L0.124590164,41.9016393 C0.124590164,42.8065574 0.857377049,43.5409836 1.76393443,43.5409836 L25.6983607,43.5409836 L25.6983607,43.5586885 C25.3721311,43.6057377 25.0513115,43.7542623 24.7809836,44.0245902 L17.135082,51.6704918 C16.494918,52.3106557 16.494918,53.3486885 17.135082,53.9888525 L24.7809836,61.6347541 C25.0514754,61.9052459 25.3722951,62.0536066 25.6983607,62.1006557 L25.6983607,66.6113115 C25.6983607,67.5162295 26.4311475,68.2506557 27.3377049,68.2506557 L71.0229508,68.2506557 C71.9295082,68.2506557 72.6622951,67.5162295 72.6622951,66.6113115 L72.6622951,39.7377049 C72.6622951,38.8327869 71.9295082,38.0983607 71.0229508,38.0983607 Z" id="路径" fill="#2626BC" opacity="0.1"></path>
                  <g transform="translate(0.000000, 9.344262)">
                    <g transform="translate(16.557377, 24.754098)" id="路径">
                      <g transform="translate(9.016393, 0.000000)">
                        <g>
                          <path d="M47.0885246,1.70491803 L47.0885246,28.5786885 C47.0885246,29.4836066 46.3557377,30.2180328 45.4491803,30.2180328 L1.76393443,30.2180328 C0.857377049,30.2180328 0.124590164,29.4836066 0.124590164,28.5786885 L0.124590164,1.70491803 C0.124590164,0.8 0.857377049,0.0655737705 1.76393443,0.0655737705 L45.4491803,0.0655737705 C46.3557377,0.0655737705 47.0885246,0.8 47.0885246,1.70491803 Z" fill="#FFFFFF"></path>
                          <path d="M47.0885246,1.70491803 L24.5377049,17.2803279 C23.9770492,17.6672131 23.2360656,17.6672131 22.6754098,17.2803279 L11.2081967,9.36065574 L0.124590164,1.70491803 C0.124590164,0.8 0.857377049,0.0655737705 1.76393443,0.0655737705 L45.4491803,0.0655737705 C45.9016393,0.0655737705 46.3114754,0.249180328 46.6081967,0.545901639 C46.904918,0.842622951 47.0885246,1.25245902 47.0885246,1.70491803 L47.0885246,1.70491803 Z" fill="#658DFE"></path>
                          <g transform="translate(25.081967, 20.983607)" fill="#326DE6">
                            <path d="M8.32114754,2.41245902 C7.59639344,2.41245902 7.18901639,2.12491803 6.91934426,1.9347541 C6.72557377,1.79803279 6.66721311,1.75672131 6.46262295,1.75672131 C6.25803279,1.75672131 6.1995082,1.79803279 6.00590164,1.9347541 C5.73622951,2.12508197 5.32868852,2.41245902 4.60393443,2.41245902 C3.8795082,2.41245902 3.47213115,2.12491803 3.20262295,1.93459016 C3.00918033,1.79803279 2.95081967,1.75672131 2.74672131,1.75672131 C2.54245902,1.75672131 2.48393443,1.79803279 2.2904918,1.93459016 C2.02081967,2.12491803 1.61360656,2.41245902 0.888852459,2.41245902 C0.436229508,2.41245902 0.0691803279,2.04540984 0.0691803279,1.59278689 C0.0691803279,1.14016393 0.436229508,0.773114754 0.888852459,0.773114754 C1.09311475,0.773114754 1.15147541,0.731967213 1.34508197,0.595245902 C1.6147541,0.404918033 2.02196721,0.117377049 2.74672131,0.117377049 C3.47131148,0.117377049 3.87868852,0.404918033 4.14819672,0.595245902 C4.34147541,0.731803279 4.4,0.773114754 4.60393443,0.773114754 C4.80852459,0.773114754 4.86688525,0.731967213 5.06065574,0.595245902 C5.33032787,0.404918033 5.73786885,0.117377049 6.46245902,0.117377049 C7.18721311,0.117377049 7.5947541,0.404918033 7.86442623,0.595245902 C8.05803279,0.731967213 8.11655738,0.773114754 8.32114754,0.773114754 C8.77377049,0.773114754 9.14081967,1.14016393 9.14081967,1.59278689 C9.14081967,2.04540984 8.77393443,2.41245902 8.32114754,2.41245902 L8.32114754,2.41245902 Z"></path>
                            <path d="M8.32114754,5.36327869 C7.59639344,5.36327869 7.18901639,5.0757377 6.91934426,4.88557377 C6.72557377,4.74885246 6.66721311,4.70754098 6.46262295,4.70754098 C6.25803279,4.70754098 6.1995082,4.74885246 6.00590164,4.88557377 C5.73622951,5.07590164 5.32868852,5.36327869 4.60393443,5.36327869 C3.8795082,5.36327869 3.47213115,5.0757377 3.20262295,4.88540984 C3.00918033,4.74885246 2.95081967,4.70754098 2.74672131,4.70754098 C2.54245902,4.70754098 2.48393443,4.74885246 2.2904918,4.88540984 C2.02081967,5.0757377 1.61360656,5.36327869 0.888852459,5.36327869 C0.436229508,5.36327869 0.0691803279,4.99622951 0.0691803279,4.54360656 C0.0691803279,4.09098361 0.436229508,3.72393443 0.888852459,3.72393443 C1.09311475,3.72393443 1.15147541,3.68278689 1.34508197,3.54606557 C1.6147541,3.3557377 2.02196721,3.06819672 2.74672131,3.06819672 C3.47131148,3.06819672 3.87868852,3.3557377 4.14819672,3.54606557 C4.34147541,3.68262295 4.4,3.72393443 4.60393443,3.72393443 C4.80852459,3.72393443 4.86688525,3.68278689 5.06065574,3.54606557 C5.33032787,3.3557377 5.73786885,3.06819672 6.46245902,3.06819672 C7.18721311,3.06819672 7.5947541,3.3557377 7.86442623,3.54606557 C8.05803279,3.68278689 8.11655738,3.72393443 8.32114754,3.72393443 C8.77377049,3.72393443 9.14081967,4.09098361 9.14081967,4.54360656 C9.14081967,4.99622951 8.77393443,5.36327869 8.32114754,5.36327869 L8.32114754,5.36327869 Z"></path>
                          </g>
                        </g>
                        <path d="M41.7213115,26.5719672 L36.8852459,26.5719672 C36.3419672,26.5719672 35.9016393,26.1316393 35.9016393,25.5883607 L35.9016393,20.7522951 C35.9016393,20.2090164 36.3419672,19.7686885 36.8852459,19.7686885 L41.7213115,19.7686885 C42.2645902,19.7686885 42.704918,20.2090164 42.704918,20.7522951 L42.704918,25.5883607 C42.704918,26.1316393 42.2645902,26.5719672 41.7213115,26.5719672 Z" fill="#658DFE"></path>
                      </g>
                      <path d="M0.577704918,15.9562295 L8.22360656,23.6021311 C9.25639344,24.634918 11.0221311,23.9034426 11.0221311,22.4429508 L11.0221311,20.2218033 L20.444918,20.2218033 C21.3503279,20.2218033 22.0842623,19.4878689 22.0842623,18.582459 L22.0842623,11.0114754 C22.0842623,10.1060656 21.3503279,9.37213115 20.444918,9.37213115 L11.0221311,9.37213115 L11.0221311,7.15098361 C11.0221311,5.6904918 9.25639344,4.95901639 8.22360656,5.99180328 L0.577704918,13.6377049 C-0.0626229508,14.2780328 -0.0626229508,15.3160656 0.577704918,15.9562295 L0.577704918,15.9562295 Z" fill="#FFFFFF"></path>
                    </g>
                    <g>
                      <g>
                        <path d="M47.0885246,1.74918033 L47.0885246,28.6557377 C47.0704918,29.5459016 46.3442623,30.2622951 45.4491803,30.2622951 L1.76393443,30.2622951 C0.857377049,30.2622951 0.124590164,29.5278689 0.124590164,28.6229508 L0.124590164,1.74918033 C0.124590164,0.844262295 0.857377049,0.109836066 1.76393443,0.109836066 L45.4491803,0.109836066 C46.3557377,0.109836066 47.0885246,0.844262295 47.0885246,1.74918033 Z" id="路径" fill="#FFFFFF"></path>
                        <path d="M0.124098361,1.74918033 L22.674918,17.3240984 C23.2355738,17.7113115 23.977377,17.7113115 24.5381967,17.3240984 L47.0890164,1.74918033 C47.0890164,0.843770492 46.355082,0.109836066 45.4496721,0.109836066 L1.76344262,0.109836066 C0.858032787,0.109836066 0.124098361,0.843770492 0.124098361,1.74918033 Z" id="路径" fill="#658DFE"></path>
                        <g transform="translate(2.622951, 17.213115)">
                          <circle id="椭圆形" fill="#658DFE" transform="translate(5.330147, 5.422858) rotate(-45.000000) translate(-5.330147, -5.422858) " cx="5.33014656" cy="5.42285836" r="3.73173146"></circle>
                          <g transform="translate(5.245902, 3.770492)" fill="#326DE6" id="路径">
                            <path d="M8.32131148,2.45688525 C7.59655738,2.45688525 7.18918033,2.16934426 6.9195082,1.97901639 C6.7257377,1.84229508 6.66737705,1.80114754 6.46278689,1.80114754 C6.25819672,1.80114754 6.19983607,1.84229508 6.00606557,1.97901639 C5.73639344,2.16934426 5.32885246,2.45688525 4.60409836,2.45688525 C3.8795082,2.45688525 3.47229508,2.16934426 3.20278689,1.97901639 C3.00934426,1.84245902 2.95098361,1.80114754 2.74688525,1.80114754 C2.54262295,1.80114754 2.48409836,1.84229508 2.29065574,1.97901639 C2.02098361,2.16934426 1.61377049,2.45688525 0.889016393,2.45688525 C0.436393443,2.45688525 0.0693442623,2.08983607 0.0693442623,1.63721311 C0.0693442623,1.18459016 0.436393443,0.817540984 0.889016393,0.817540984 C1.09327869,0.817540984 1.15180328,0.776393443 1.3452459,0.639672131 C1.61491803,0.449344262 2.02213115,0.161803279 2.74688525,0.161803279 C3.47147541,0.161803279 3.87885246,0.449344262 4.14836066,0.639672131 C4.34163934,0.776229508 4.40016393,0.817540984 4.60409836,0.817540984 C4.80868852,0.817540984 4.86704918,0.776393443 5.06081967,0.639672131 C5.3304918,0.449344262 5.73803279,0.161803279 6.46262295,0.161803279 C7.18737705,0.161803279 7.59491803,0.449344262 7.86459016,0.639672131 C8.05819672,0.776393443 8.11672131,0.817540984 8.32131148,0.817540984 C8.77393443,0.817540984 9.14098361,1.18459016 9.14098361,1.63721311 C9.14098361,2.08983607 8.77393443,2.45688525 8.32131148,2.45688525 Z"></path>
                            <path d="M8.32131148,5.40770492 C7.59655738,5.40770492 7.18918033,5.12016393 6.9195082,4.93 C6.7257377,4.79327869 6.66737705,4.75196721 6.46278689,4.75196721 C6.25819672,4.75196721 6.19983607,4.79311475 6.00606557,4.93 C5.73639344,5.12032787 5.32885246,5.40770492 4.60409836,5.40770492 C3.8795082,5.40770492 3.47229508,5.12016393 3.20278689,4.92983607 C3.00934426,4.79327869 2.95098361,4.75196721 2.74688525,4.75196721 C2.54262295,4.75196721 2.48409836,4.79311475 2.29065574,4.92983607 C2.02098361,5.12016393 1.61377049,5.40770492 0.889016393,5.40770492 C0.436393443,5.40770492 0.0693442623,5.04065574 0.0693442623,4.58803279 C0.0693442623,4.13540984 0.436393443,3.76836066 0.889016393,3.76836066 C1.09327869,3.76836066 1.15180328,3.72721311 1.3452459,3.5904918 C1.61491803,3.40016393 2.02213115,3.11262295 2.74688525,3.11262295 C3.47147541,3.11262295 3.87885246,3.40016393 4.14836066,3.5904918 C4.34163934,3.72704918 4.40016393,3.76836066 4.60409836,3.76836066 C4.80868852,3.76836066 4.86704918,3.72721311 5.06081967,3.5904918 C5.3304918,3.40016393 5.73803279,3.11262295 6.46262295,3.11262295 C7.18737705,3.11262295 7.59491803,3.40016393 7.86459016,3.5904918 C8.05819672,3.72721311 8.11672131,3.76836066 8.32131148,3.76836066 C8.77393443,3.76836066 9.14098361,4.13540984 9.14098361,4.58803279 C9.14098361,5.04065574 8.77393443,5.40770492 8.32131148,5.40770492 Z"></path>
                          </g>
                        </g>
                      </g>
                      <path d="M55.6518033,14.3716393 L48.0059016,6.7257377 C46.9731148,5.69295082 45.207377,6.42442623 45.207377,7.88491803 L45.207377,10.1060656 L35.7845902,10.1060656 C34.8791803,10.1060656 34.1452459,10.84 34.1452459,11.7454098 L34.1452459,19.3163934 C34.1452459,20.2218033 34.8791803,20.9557377 35.7845902,20.9557377 L45.207377,20.9557377 L45.207377,23.1768852 C45.207377,24.637377 46.9731148,25.3688525 48.0059016,24.3360656 L55.6518033,16.6901639 C56.2921311,16.0498361 56.2921311,15.0118033 55.6518033,14.3716393 Z" id="路径" fill="#FFFFFF"></path>
                    </g>
                  </g>
                  <g transform="translate(6.229508, 0.000000)">
                    <path d="M44.4954098,73.6590164 C44.0427869,73.6590164 43.6757377,73.2919672 43.6757377,72.8393443 C43.6757377,72.2968852 43.2345902,71.8557377 42.6921311,71.8557377 C42.2395082,71.8557377 41.872459,71.4886885 41.872459,71.0360656 C41.872459,70.5834426 42.2395082,70.2163934 42.6921311,70.2163934 C43.2345902,70.2163934 43.6757377,69.7752459 43.6757377,69.2327869 C43.6757377,68.7801639 44.0427869,68.4131148 44.4954098,68.4131148 C44.9480328,68.4131148 45.315082,68.7801639 45.315082,69.2327869 C45.315082,69.7752459 45.7562295,70.2163934 46.2986885,70.2163934 C46.7513115,70.2163934 47.1183607,70.5834426 47.1183607,71.0360656 C47.1183607,71.4886885 46.7513115,71.8557377 46.2986885,71.8557377 C45.7562295,71.8557377 45.315082,72.2968852 45.315082,72.8393443 C45.315082,73.2919672 44.9480328,73.6590164 44.4954098,73.6590164 Z" id="路径" fill="#6583FE"></path>
                    <path d="M17.3770492,5.35737705 C17.1672131,5.35737705 16.957541,5.27737705 16.797377,5.11737705 L14.9940984,3.31409836 C14.6739344,2.99393443 14.6739344,2.47491803 14.9940984,2.15491803 L16.797377,0.351639344 C17.117541,0.0316393443 17.6363934,0.0316393443 17.9565574,0.351639344 L19.7598361,2.15491803 C20.08,2.47508197 20.08,2.99409836 19.7598361,3.31409836 L17.9565574,5.11737705 C17.7965574,5.27721311 17.5868852,5.35737705 17.3770492,5.35737705 Z M16.7329508,2.73442623 L17.3770492,3.37836066 L18.0211475,2.7342623 L17.3770492,2.09032787 L16.7329508,2.73442623 Z" id="形状" fill="#6590FE"></path>
                    <path d="M55.2459016,18.6308197 C55.0360656,18.6308197 54.8263934,18.5508197 54.6662295,18.3908197 L52.8629508,16.587541 C52.5427869,16.267377 52.5427869,15.7483607 52.8629508,15.4283607 L54.6662295,13.625082 C54.9863934,13.305082 55.5052459,13.305082 55.8254098,13.625082 L57.6286885,15.4283607 C57.9488525,15.7485246 57.9488525,16.267541 57.6286885,16.587541 L55.8254098,18.3908197 C55.6654098,18.5508197 55.4557377,18.6308197 55.2459016,18.6308197 Z M54.6018033,16.0078689 L55.2459016,16.6519672 L55.89,16.0078689 L55.2459016,15.3637705 L54.6018033,16.0078689 Z" id="形状" fill="#6590FE"></path>
                    <path d="M8.5395082,65.502459 C8.32967213,65.502459 8.12,65.422459 7.95983607,65.262459 L6.15655738,63.4591803 C5.83639344,63.1390164 5.83639344,62.62 6.15655738,62.3 L7.95983607,60.4967213 C8.28,60.1767213 8.79885246,60.1767213 9.11901639,60.4967213 L10.9222951,62.3 C11.242459,62.6201639 11.242459,63.1391803 10.9222951,63.4591803 L9.11901639,65.262459 C8.95901639,65.422459 8.74934426,65.502459 8.5395082,65.502459 L8.5395082,65.502459 Z M7.89540984,62.8795082 L8.5395082,63.5236066 L9.18360656,62.8795082 L8.5395082,62.2354098 L7.89540984,62.8795082 Z" id="形状" fill="#6590FE"></path>
                    <path d="M2.62295082,58.2809836 C2.17032787,58.2809836 1.80327869,57.9139344 1.80327869,57.4613115 C1.80327869,56.9188525 1.36213115,56.4777049 0.819672131,56.4777049 C0.36704918,56.4777049 0,56.1106557 0,55.6580328 C0,55.2054098 0.36704918,54.8383607 0.819672131,54.8383607 C1.36213115,54.8383607 1.80327869,54.3972131 1.80327869,53.8547541 C1.80327869,53.4021311 2.17032787,53.035082 2.62295082,53.035082 C3.07557377,53.035082 3.44262295,53.4021311 3.44262295,53.8547541 C3.44262295,54.3972131 3.88377049,54.8383607 4.42622951,54.8383607 C4.87885246,54.8383607 5.24590164,55.2054098 5.24590164,55.6580328 C5.24590164,56.1106557 4.87885246,56.4777049 4.42622951,56.4777049 C3.88377049,56.4777049 3.44262295,56.9188525 3.44262295,57.4613115 C3.44262295,57.9139344 3.07557377,58.2809836 2.62295082,58.2809836 Z" id="路径" fill="#6590FE"></path>
                  </g>
                </g>
              </g>
              <path d="M5.37,45.5085246 L26.8921311,45.5085246 L20.1619672,52.2386885 C19.2032787,53.197541 19.2032787,54.757541 20.1619672,55.7162295 L27.8078689,63.3621311 C28.0113115,63.5655738 28.2406557,63.724918 28.4847541,63.8439344 L28.4847541,67.7591803 C28.4847541,69.115082 29.5878689,70.2181967 30.9437705,70.2181967 L74.63,70.2181967 C75.9859016,70.2181967 77.0891803,69.115082 77.0891803,67.7591803 L77.0891803,58.8247541 C77.0891803,58.3721311 76.7219672,58.005082 76.2693443,58.005082 C75.8167213,58.005082 75.4496721,58.3721311 75.4496721,58.8247541 L75.4496721,67.7591803 C75.4496721,68.2111475 75.0819672,68.5788525 74.63,68.5788525 L30.9437705,68.5788525 C30.4918033,68.5788525 30.1240984,68.2111475 30.1240984,67.7591803 L30.1240984,64.0122951 C30.2460656,63.9818033 30.3677049,63.944918 30.4877049,63.8952459 C31.4240984,63.507377 32.0057377,62.6368852 32.0057377,61.6234426 L32.0057377,60.2219672 L40.6086885,60.2219672 C41.9645902,60.2219672 43.0677049,59.1188525 43.0677049,57.7629508 L43.0677049,50.1918033 C43.0677049,48.8359016 41.9645902,47.7327869 40.6086885,47.7327869 L32.0057377,47.7327869 L32.0057377,46.3313115 C32.0057377,46.042459 31.9570492,45.7660656 31.8678689,45.5083607 L37.0770492,45.5083607 C37.5296721,45.5083607 37.8967213,45.1413115 37.8967213,44.6886885 C37.8967213,44.2360656 37.5296721,43.8690164 37.0770492,43.8690164 L5.37,43.8690164 C4.91803279,43.8690164 4.55032787,43.5013115 4.55032787,43.0493443 L4.55032787,16.1754098 C4.55032787,15.7234426 4.91803279,15.3557377 5.37,15.3557377 L49.0562295,15.3557377 C49.5081967,15.3557377 49.8759016,15.7234426 49.8759016,16.1754098 L49.8759016,19.9195082 C49.7537705,19.95 49.6322951,19.9896721 49.5122951,20.0393443 C48.5759016,20.4272131 47.9942623,21.2977049 47.9942623,22.3111475 L47.9942623,23.712623 L39.3913115,23.712623 C38.0354098,23.712623 36.9322951,24.8157377 36.9322951,26.1716393 L36.9322951,33.742623 C36.9322951,35.0985246 38.0354098,36.2016393 39.3913115,36.2016393 L47.9942623,36.2016393 L47.9942623,37.6031148 C47.9942623,38.6165574 48.5759016,39.4870492 49.5122951,39.874918 C49.6322951,39.9245902 49.7537705,39.9614754 49.8759016,39.9919672 L49.8759016,43.0495082 C49.8759016,43.5014754 49.5081967,43.8691803 49.0562295,43.8691803 L42.595082,43.8691803 C42.142459,43.8691803 41.7754098,44.2362295 41.7754098,44.6888525 C41.7754098,45.1414754 42.142459,45.5085246 42.595082,45.5085246 L49.0562295,45.5085246 C50.4121311,45.5085246 51.5152459,44.4054098 51.5152459,43.0495082 L51.5152459,40.0654098 L74.6301639,40.0654098 C75.0821311,40.0654098 75.4498361,40.4331148 75.4498361,40.885082 L75.4498361,53.3065574 C75.4498361,53.7591803 75.8168852,54.1262295 76.2695082,54.1262295 C76.7221311,54.1262295 77.0891803,53.7591803 77.0891803,53.3065574 L77.0891803,40.885082 C77.0891803,39.5291803 75.9860656,38.4260656 74.6301639,38.4260656 L53.1078689,38.4260656 L59.8380328,31.6959016 C60.7967213,30.7370492 60.7967213,29.1770492 59.8380328,28.2183607 L52.1921311,20.572459 C51.9885246,20.3690164 51.7595082,20.2083607 51.5152459,20.0893443 L51.5152459,16.1754098 C51.5152459,14.8195082 50.4121311,13.7163934 49.0562295,13.7163934 L5.37,13.7163934 C4.01409836,13.7163934 2.91098361,14.8195082 2.91098361,16.1754098 L2.91098361,43.0495082 C2.91098361,44.4054098 4.01409836,45.5085246 5.37,45.5085246 L5.37,45.5085246 Z M40.6086885,49.3721311 C41.0606557,49.3721311 41.4283607,49.7398361 41.4283607,50.1918033 L41.4283607,57.7627869 C41.4283607,58.2147541 41.0606557,58.582459 40.6086885,58.582459 L31.1860656,58.582459 C30.7334426,58.582459 30.3663934,58.9495082 30.3663934,59.4021311 L30.3663934,61.6232787 C30.3663934,62.1314754 29.9791803,62.3313115 29.8603279,62.3804918 C29.7416393,62.4296721 29.3263934,62.5621311 28.9670492,62.2027869 L21.3211475,54.5568852 C21.0014754,54.237377 21.0014754,53.7172131 21.3211475,53.3977049 L28.9670492,45.7518033 C29.3262295,45.392459 29.7416393,45.525082 29.8603279,45.5740984 C29.9790164,45.6232787 30.3663934,45.8232787 30.3663934,46.3313115 L30.3663934,48.552459 C30.3663934,49.005082 30.7334426,49.3721311 31.1860656,49.3721311 L40.6086885,49.3721311 Z M58.6788525,29.377541 C58.9985246,29.6970492 58.9985246,30.2172131 58.6788525,30.5367213 L51.0329508,38.182623 C50.6737705,38.5419672 50.2585246,38.4095082 50.1396721,38.3603279 C50.0209836,38.3111475 49.6336066,38.1111475 49.6336066,37.6031148 L49.6336066,35.3819672 C49.6336066,34.9293443 49.2665574,34.5622951 48.8139344,34.5622951 L39.3913115,34.5622951 C38.9393443,34.5622951 38.5716393,34.1945902 38.5716393,33.742623 L38.5716393,26.1716393 C38.5716393,25.7196721 38.9393443,25.3519672 39.3913115,25.3519672 L48.8139344,25.3519672 C49.2665574,25.3519672 49.6336066,24.984918 49.6336066,24.5322951 L49.6336066,22.3111475 C49.6336066,21.8029508 50.0208197,21.6031148 50.1396721,21.5539344 C50.2583607,21.5047541 50.6736066,21.3722951 51.0329508,21.7316393 L58.6788525,29.377541 Z" id="形状" fill="#326DE6"></path>
            </g>
          </g>
        </g>
      </g>
    </g>
  </g>
</svg>
