<?xml version="1.0" encoding="UTF-8"?>
<svg xmlns="http://www.w3.org/2000/svg" xmlns:xlink="http://www.w3.org/1999/xlink" width="80px" height="92px" viewBox="0 0 80 92" version="1.1">
  <title>产品资源</title>
  <defs>
    <linearGradient x1="19.0591758%" y1="3.88589796%" x2="75.6020013%" y2="95.415031%" id="linearGradient-1">
      <stop stop-color="#D2DEFF" stop-opacity="0" offset="0%"></stop>
      <stop stop-color="#B7C5FF" offset="100%"></stop>
    </linearGradient>
  </defs>
  <g id="服务与资源" stroke="none" stroke-width="1" fill="none" fill-rule="evenodd">
    <g id="服务与资源最终稿" transform="translate(-219.000000, -1128.000000)" fill-rule="nonzero">
      <g id="编组-5" transform="translate(0.000000, 850.000000)">
        <g id="编组-4" transform="translate(218.000000, 100.000000)">
          <g id="产品资源" transform="translate(1.000000, 178.000000)">
            <path d="M49.6995516,16.0274439 C45.8556054,6.58008969 36.5567713,-0.066367713 25.7128251,3.75404386e-05 C11.8789238,0.0857399103 0.504573991,11.2443049 0.16896861,25.0742601 C0.00340807175,31.8975785 2.49686099,38.1363229 6.68627803,42.8290583 C10.026009,46.5700448 11.7020628,51.4972197 11.5330942,56.509417 C11.5106726,57.1756054 11.5072646,57.8466368 11.5237668,58.5219731 C11.9657399,76.7103139 27.5034978,91.8495067 45.6972197,91.8385709 C64.555157,91.8272646 79.8389238,76.5363229 79.8389238,57.6758744 C79.8389238,43.8509417 71.6265471,31.9452915 59.8143498,26.5686099 C55.2104036,24.4730045 51.6059193,20.7126457 49.6995516,16.0274439 Z" id="路径" fill="url(#linearGradient-1)"></path>
            <path d="M75.6932735,13.7623318 L65.1296861,13.7623318 L65.1296861,11.0699552 C65.1296861,9.58367713 63.9234081,8.37757848 62.4373094,8.37757848 L17.56287,8.37757848 C16.0765919,8.37757848 14.8704933,9.5838565 14.8704933,11.0699552 L14.8704933,13.7623318 L4.30654709,13.7623318 C2.82026906,13.7623318 1.6141704,14.9686099 1.6141704,16.4547085 L1.6141704,72.8618834 C1.6141704,74.3481614 2.82044843,75.5542601 4.30654709,75.5542601 L14.8701345,75.5542601 L14.8701345,78.2466368 C14.8701345,79.7329148 16.0764126,80.9390135 17.5625112,80.9390135 L62.4369507,80.9390135 C63.9232287,80.9390135 65.1293274,79.7327354 65.1293274,78.2466368 L65.1293274,75.5542601 L75.6929148,75.5542601 C77.1791928,75.5542601 78.3852916,74.3479821 78.3852916,72.8618834 L78.3852916,16.4547085 C78.3852916,14.9684305 77.1793722,13.7623318 75.6932735,13.7623318 Z" id="路径" fill="#2626BC" opacity="0.1"></path>
            <path d="M75.6932735,17.529148 L58.6678027,17.529148 L58.6678027,79.3212556 L75.6932735,79.3212556 C77.1795516,79.3212556 78.3856502,78.1149776 78.3856502,76.6288789 L78.3856502,20.221704 C78.3856502,18.7352466 77.1793722,17.529148 75.6932735,17.529148 Z" id="路径" fill="#FFFFFF"></path>
            <path d="M71.5915695,58.4769507 L58.6678027,58.4769507 L58.6678027,79.3210762 L71.5915695,79.3210762 C71.8889686,79.3210762 72.1300448,79.08 72.1300448,78.7826009 L72.1300448,59.015426 C72.1300448,58.7180269 71.8889686,58.4769507 71.5915695,58.4769507 Z" id="路径" fill="#658DFE"></path>
            <path d="M71.5915695,32.9243049 L58.6678027,32.9243049 L58.6678027,53.7684305 L71.5915695,53.7684305 C71.8889686,53.7684305 72.1300448,53.5273543 72.1300448,53.2299552 L72.1300448,33.4627803 C72.1300448,33.1653812 71.8889686,32.9243049 71.5915695,32.9243049 Z" id="路径" fill="#658DFE"></path>
            <path d="M75.6932735,17.529148 L58.6678027,17.529148 L58.6678027,26.1757848 L78.3856502,26.1757848 L78.3856502,20.2215247 C78.3856502,18.7345291 77.1800897,17.529148 75.6932735,17.529148 L75.6932735,17.529148 Z" id="路径" fill="#FFFFFF"></path>
            <path d="M20.793722,17.529148 L4.30654709,17.529148 C2.82026906,17.529148 1.6141704,18.735426 1.6141704,20.2215247 L1.6141704,76.6286996 C1.6141704,78.1149776 2.82044843,79.3210762 4.30654709,79.3210762 L20.793722,79.3210762 L20.793722,17.529148 L20.793722,17.529148 Z" id="路径" fill="#FFFFFF"></path>
            <path d="M20.793722,71.7128251 L20.793722,48.0191928 L6.97237668,48.0191928 C6.67497758,48.0191928 6.43390135,48.2602691 6.43390135,48.5576682 L6.43390135,71.1743498 C6.43390135,71.4717489 6.67497758,71.7128251 6.97237668,71.7128251 L20.793722,71.7128251 Z" id="路径" fill="#658DFE"></path>
            <path d="M20.793722,43.376861 L20.793722,35.8380269 L6.97237668,35.8380269 C6.67497758,35.8380269 6.43390135,36.0791031 6.43390135,36.3765022 L6.43390135,42.8383857 C6.43390135,43.1357848 6.67497758,43.376861 6.97237668,43.376861 L20.793722,43.376861 Z" id="路径" fill="#658DFE"></path>
            <path d="M20.793722,17.529148 L4.30672646,17.529148 C2.81973094,17.529148 1.61434978,18.7345291 1.61434978,20.2215247 L1.61434978,26.1757848 L20.793722,26.1757848 L20.793722,17.529148 Z" id="路径" fill="#FFFFFF"></path>
            <path d="M65.1296861,14.8365919 L65.1296861,82.0136323 C65.1296861,83.4999103 63.9234081,84.706009 62.4373094,84.706009 L17.56287,84.706009 C16.0765919,84.706009 14.8704933,83.4997309 14.8704933,82.0136323 L14.8704933,14.8365919 C14.8704933,13.3503139 16.0767713,12.1442152 17.56287,12.1442152 L62.4373094,12.1442152 C63.9234081,12.1442152 65.1296861,13.3503139 65.1296861,14.8365919 Z" id="路径" fill="#FFFFFF"></path>
            <path d="M65.1296861,26.1942601 L65.1296861,45.095426 C63.0511211,45.9605381 60.7696861,46.4362332 58.3788341,46.4362332 C48.64287,46.4362332 40.7503139,38.5418834 40.7503139,28.8059193 C40.7503139,27.9192825 40.8166816,27.0468161 40.9424215,26.1942601 L65.1296861,26.1942601 Z" id="路径" fill="#658DFE"></path>
            <polygon id="路径" fill="#326DE6" points="65.1296861 49.5172768 65.1296861 51.3354586 14.8703139 51.3354586 14.8703139 49.5172768"></polygon>
            <polygon id="路径" fill="#326DE6" points="65.1296861 25.2851692 65.1296861 27.103351 14.8703139 27.103351 14.8703139 25.2851692"></polygon>
            <path d="M65.1296861,20.790852 L65.1296861,14.8365919 C65.1296861,13.3495964 63.9243049,12.1442152 62.4373094,12.1442152 L17.56287,12.1442152 C16.0758744,12.1442152 14.8704933,13.3495964 14.8704933,14.8365919 L14.8704933,20.790852 L65.1296861,20.790852 Z" id="路径" fill="#FFFFFF"></path>
            <g id="编组" transform="translate(0.717489, 11.121076)">
              <g>
                <path d="M74.9757848,5.51121076 L65.3090583,5.51121076 L65.3090583,3.7155157 C65.3090583,1.73650224 63.6988341,0.126278027 61.7198206,0.126278027 L16.8453812,0.126278027 C14.8661883,0.126278027 13.2561435,1.73650224 13.2561435,3.7155157 L13.2561435,5.51121076 L3.58923767,5.51121076 C1.61004484,5.51121076 -0.000179372197,7.12125561 -0.000179372197,9.10044843 L-0.000179372197,65.5070852 C-0.000179372197,67.486278 1.61004484,69.0965022 3.58923767,69.0965022 L9.21273543,69.0965022 C9.70798206,69.0965022 10.1095964,68.6950673 10.1095964,68.1996413 C10.1095964,67.7042152 9.70798206,67.3027803 9.21273543,67.3027803 L3.58923767,67.3027803 C2.59910314,67.3027803 1.7935426,66.4972197 1.7935426,65.5070852 L1.7935426,15.9515695 L13.2557848,15.9515695 L13.2557848,70.8920179 C13.2557848,72.8712108 14.866009,74.481435 16.8450224,74.481435 L61.7194619,74.481435 C63.6986547,74.481435 65.3086996,72.8712108 65.3086996,70.8920179 L65.3086996,69.0965022 L74.975426,69.0965022 C76.9546188,69.0965022 78.5646637,67.486278 78.5646637,65.5070852 L78.5646637,9.10044843 C78.5646637,7.12125561 76.9547982,5.51121076 74.9757848,5.51121076 Z M74.9757848,7.30493274 C75.9659193,7.30493274 76.7713004,8.11049327 76.7713004,9.1006278 L76.7713004,14.1578475 L65.3090583,14.1578475 L65.3090583,7.30493274 L74.9757848,7.30493274 Z M16.8453812,1.92 L61.7198206,1.92 C62.7099552,1.92 63.5153363,2.72538117 63.5153363,3.7155157 L63.5153363,8.7729148 L15.0496861,8.7729148 L15.0496861,3.7155157 C15.0496861,2.72538117 15.8552466,1.92 16.8453812,1.92 Z M1.7935426,14.1578475 L1.7935426,9.1006278 C1.7935426,8.11049327 2.59910314,7.30493274 3.58923767,7.30493274 L13.2559641,7.30493274 L13.2559641,14.1578475 L1.7935426,14.1578475 Z M74.9757848,67.3027803 L65.3090583,67.3027803 L65.3090583,19.9946188 C65.3090583,19.4991928 64.9074439,19.0977578 64.4121973,19.0977578 C63.9169507,19.0977578 63.5153363,19.4991928 63.5153363,19.9946188 L63.5153363,70.8920179 C63.5153363,71.8821525 62.7097758,72.687713 61.7198206,72.687713 L16.8453812,72.687713 C15.8552466,72.687713 15.0498655,71.8821525 15.0498655,70.8920179 L15.0498655,10.5666368 L63.5153363,10.5666368 L63.5153363,15.0547085 C63.5153363,15.5501345 63.9169507,15.9515695 64.4121973,15.9515695 L76.7713004,15.9515695 L76.7713004,65.5070852 C76.7713004,66.4972197 75.9657399,67.3027803 74.9757848,67.3027803 Z" id="形状" fill="#326DE6"></path>
                <path d="M7.73237668,9.82152466 C7.23713004,9.82152466 6.8355157,10.2229596 6.8355157,10.7183857 L6.8355157,10.7443946 C6.8355157,11.2398206 7.23713004,11.6412556 7.73237668,11.6412556 C8.22762332,11.6412556 8.62923767,11.2398206 8.62923767,10.7443946 L8.62923767,10.7183857 C8.62923767,10.2229596 8.22780269,9.82152466 7.73237668,9.82152466 Z" id="路径" fill="#2643BC"></path>
                <path d="M11.2012556,9.82152466 C10.706009,9.82152466 10.3043946,10.2229596 10.3043946,10.7183857 L10.3043946,10.7443946 C10.3043946,11.2398206 10.706009,11.6412556 11.2012556,11.6412556 C11.6965022,11.6412556 12.0981166,11.2398206 12.0981166,10.7443946 L12.0981166,10.7183857 C12.0981166,10.2229596 11.6965022,9.82152466 11.2012556,9.82152466 Z" id="路径" fill="#2643BC"></path>
                <path d="M20.9885202,6.25632287 C21.4837668,6.25632287 21.8853812,5.85488789 21.8853812,5.35946188 L21.8853812,5.33327354 C21.8853812,4.83784753 21.4837668,4.43641256 20.9885202,4.43641256 C20.4932735,4.43641256 20.0916592,4.83784753 20.0916592,5.33327354 L20.0916592,5.35946188 C20.0916592,5.85488789 20.4932735,6.25632287 20.9885202,6.25632287 Z" id="路径" fill="#2643BC"></path>
                <path d="M24.4572197,6.25632287 C24.9524664,6.25632287 25.3540807,5.85488789 25.3540807,5.35946188 L25.3540807,5.33327354 C25.3540807,4.83784753 24.9524664,4.43641256 24.4572197,4.43641256 C23.9619731,4.43641256 23.5603587,4.83784753 23.5603587,5.33327354 L23.5603587,5.35946188 C23.5603587,5.85488789 23.9619731,6.25632287 24.4572197,6.25632287 Z" id="路径" fill="#2643BC"></path>
                <path d="M27.9260987,6.25632287 C28.4213453,6.25632287 28.8229596,5.85488789 28.8229596,5.35946188 L28.8229596,5.33327354 C28.8229596,4.83784753 28.4213453,4.43641256 27.9260987,4.43641256 C27.430852,4.43641256 27.0292377,4.83784753 27.0292377,5.33327354 L27.0292377,5.35946188 C27.0292377,5.85488789 27.4306726,6.25632287 27.9260987,6.25632287 Z" id="路径" fill="#2643BC"></path>
                <path d="M58.295426,24.4713901 C57.9451121,24.1212556 57.3773991,24.121435 57.0270852,24.4712108 C56.6767713,24.8215247 56.6767713,25.389417 57.0270852,25.7395516 L57.4417937,26.1544395 L57.0270852,26.5693274 C56.6767713,26.9194619 56.6767713,27.4873543 57.0270852,27.8376682 C57.2021525,28.0127354 57.4315695,28.1002691 57.6611659,28.1002691 C57.8907623,28.1002691 58.1203587,28.0127354 58.295426,27.8374888 L59.3442152,26.7885202 C59.6945291,26.4383857 59.6945291,25.8704933 59.3442152,25.5203587 L58.295426,24.4713901 Z" id="路径" fill="#326DE6"></path>
                <path d="M21.5379372,24.4712108 C21.1878027,24.1212556 20.6197309,24.1210762 20.2695964,24.4713901 L19.2208072,25.5203587 C18.8704933,25.8704933 18.8704933,26.4383857 19.2208072,26.7885202 L20.2695964,27.8374888 C20.444843,28.0127354 20.6742601,28.1002691 20.9038565,28.1002691 C21.1332735,28.1002691 21.36287,28.0127354 21.5379372,27.8376682 C21.8882511,27.4873543 21.8882511,26.9194619 21.5379372,26.5693274 L21.1232287,26.1544395 L21.5379372,25.7395516 C21.8882511,25.389417 21.8882511,24.8215247 21.5379372,24.4712108 L21.5379372,24.4712108 Z" id="路径" fill="#326DE6"></path>
              </g>
              <circle id="椭圆形" fill="#326DE6" cx="36.2471749" cy="36.0252915" r="1.00340807"></circle>
              <circle id="椭圆形" fill="#326DE6" cx="39.2825112" cy="36.0252915" r="1.00340807"></circle>
              <circle id="椭圆形" fill="#326DE6" cx="42.3178475" cy="36.0252915" r="1.00340807"></circle>
            </g>
            <path d="M29.8486099,64.4132735 L18.6001794,64.4132735 C18.3027803,64.4132735 18.061704,64.1721973 18.061704,63.8747982 L18.061704,55.8572197 C18.061704,55.5598206 18.3027803,55.3187444 18.6001794,55.3187444 L29.8486099,55.3187444 C30.146009,55.3187444 30.3870852,55.5598206 30.3870852,55.8572197 L30.3870852,63.8747982 C30.3870852,64.1721973 30.146009,64.4132735 29.8486099,64.4132735 Z" id="路径" fill="#658DFE"></path>
            <path d="M27.9790135,64.4130942 L23.6710314,64.4130942 L23.6710314,59.135426 C23.6710314,58.8380269 23.9121076,58.5969507 24.2095067,58.5969507 L27.4405381,58.5969507 C27.7379372,58.5969507 27.9790135,58.8380269 27.9790135,59.135426 L27.9790135,64.4130942 Z" id="路径" fill="#658DFE"></path>
            <path d="M27.3424215,68.9982063 L21.1061883,68.9982063 C20.6096861,68.9982063 20.2071749,68.5956951 20.2071749,68.0991928 C20.2071749,67.6026906 20.6095067,67.2001794 21.1061883,67.2001794 L27.3424215,67.2001794 C27.8389238,67.2001794 28.241435,67.6026906 28.241435,68.0991928 C28.241435,68.5956951 27.8389238,68.9982063 27.3424215,68.9982063 Z" id="路径" fill="#326DE6"></path>
            <path d="M29.9375785,75.4523767 L18.9605381,75.4523767 C18.4640359,75.4523767 18.0615247,75.0498655 18.0615247,74.5533632 C18.0615247,74.056861 18.4638565,73.6543498 18.9605381,73.6543498 L29.9375785,73.6543498 C30.4340807,73.6543498 30.8365919,74.056861 30.8365919,74.5533632 C30.8365919,75.0498655 30.4340807,75.4523767 29.9375785,75.4523767 Z" id="路径" fill="#326DE6"></path>
            <path d="M29.9375785,78.9524664 L18.9605381,78.9524664 C18.4640359,78.9524664 18.0615247,78.5499552 18.0615247,78.0534529 C18.0615247,77.5569507 18.4638565,77.1544395 18.9605381,77.1544395 L29.9375785,77.1544395 C30.4340807,77.1544395 30.8365919,77.5569507 30.8365919,78.0534529 C30.8365919,78.5499552 30.4340807,78.9524664 29.9375785,78.9524664 Z" id="路径" fill="#326DE6"></path>
            <path d="M45.3994619,64.4132735 L34.1510314,64.4132735 C33.8536323,64.4132735 33.6125561,64.1721973 33.6125561,63.8747982 L33.6125561,55.8572197 C33.6125561,55.5598206 33.8536323,55.3187444 34.1510314,55.3187444 L45.3994619,55.3187444 C45.696861,55.3187444 45.9379372,55.5598206 45.9379372,55.8572197 L45.9379372,63.8747982 C45.9379372,64.1721973 45.696861,64.4132735 45.3994619,64.4132735 Z" id="路径" fill="#658DFE"></path>
            <path d="M43.5300448,64.4130942 L39.2220628,64.4130942 L39.2220628,59.135426 C39.2220628,58.8380269 39.463139,58.5969507 39.7605381,58.5969507 L42.9915695,58.5969507 C43.2889686,58.5969507 43.5300448,58.8380269 43.5300448,59.135426 L43.5300448,64.4130942 Z" id="路径" fill="#658DFE"></path>
            <path d="M42.8932735,68.9982063 L36.6570404,68.9982063 C36.1605381,68.9982063 35.7580269,68.5956951 35.7580269,68.0991928 C35.7580269,67.6026906 36.1603587,67.2001794 36.6570404,67.2001794 L42.8932735,67.2001794 C43.3897758,67.2001794 43.792287,67.6026906 43.792287,68.0991928 C43.792287,68.5956951 43.3899552,68.9982063 42.8932735,68.9982063 Z" id="路径" fill="#326DE6"></path>
            <path d="M45.4886099,75.4523767 L34.5115695,75.4523767 C34.0150673,75.4523767 33.6125561,75.0498655 33.6125561,74.5533632 C33.6125561,74.056861 34.0148879,73.6543498 34.5115695,73.6543498 L45.4886099,73.6543498 C45.9851121,73.6543498 46.3876233,74.056861 46.3876233,74.5533632 C46.3876233,75.0498655 45.9851121,75.4523767 45.4886099,75.4523767 Z" id="路径" fill="#326DE6"></path>
            <path d="M45.4886099,78.9524664 L34.5115695,78.9524664 C34.0150673,78.9524664 33.6125561,78.5499552 33.6125561,78.0534529 C33.6125561,77.5569507 34.0148879,77.1544395 34.5115695,77.1544395 L45.4886099,77.1544395 C45.9851121,77.1544395 46.3876233,77.5569507 46.3876233,78.0534529 C46.3876233,78.5499552 45.9851121,78.9524664 45.4886099,78.9524664 Z" id="路径" fill="#326DE6"></path>
            <path d="M60.9504933,64.4132735 L49.7020628,64.4132735 C49.4046637,64.4132735 49.1635874,64.1721973 49.1635874,63.8747982 L49.1635874,55.8572197 C49.1635874,55.5598206 49.4046637,55.3187444 49.7020628,55.3187444 L60.9504933,55.3187444 C61.2478924,55.3187444 61.4889686,55.5598206 61.4889686,55.8572197 L61.4889686,63.8747982 C61.4889686,64.1721973 61.2478924,64.4132735 60.9504933,64.4132735 Z" id="路径" fill="#658DFE"></path>
            <path d="M58.4443049,68.9982063 L52.2080717,68.9982063 C51.7115695,68.9982063 51.3090583,68.5956951 51.3090583,68.0991928 C51.3090583,67.6026906 51.7113901,67.2001794 52.2080717,67.2001794 L58.4443049,67.2001794 C58.9408072,67.2001794 59.3433184,67.6026906 59.3433184,68.0991928 C59.3433184,68.5956951 58.9408072,68.9982063 58.4443049,68.9982063 Z" id="路径" fill="#326DE6"></path>
            <path d="M61.0394619,75.4523767 L50.0624215,75.4523767 C49.5659193,75.4523767 49.1634081,75.0498655 49.1634081,74.5533632 C49.1634081,74.056861 49.5657399,73.6543498 50.0624215,73.6543498 L61.0394619,73.6543498 C61.5359641,73.6543498 61.9384753,74.056861 61.9384753,74.5533632 C61.9384753,75.0498655 61.5359641,75.4523767 61.0394619,75.4523767 Z" id="路径" fill="#326DE6"></path>
            <path d="M61.0394619,78.9524664 L50.0624215,78.9524664 C49.5659193,78.9524664 49.1634081,78.5499552 49.1634081,78.0534529 C49.1634081,77.5569507 49.5657399,77.1544395 50.0624215,77.1544395 L61.0394619,77.1544395 C61.5359641,77.1544395 61.9384753,77.5569507 61.9384753,78.0534529 C61.9384753,78.5499552 61.5359641,78.9524664 61.0394619,78.9524664 Z" id="路径" fill="#326DE6"></path>
            <path d="M69.9343498,14.1173094 C69.6965022,14.1173094 69.4683408,14.0229596 69.3000897,13.8545291 L67.3237668,11.8780269 C67.1555157,11.7097758 67.0611659,11.4817937 67.0611659,11.2439462 C67.0611659,11.0060987 67.1556951,10.7779372 67.3237668,10.6098655 L69.3000897,8.6335426 C69.6504036,8.2832287 70.2181166,8.2832287 70.5684305,8.6335426 L72.5447534,10.6098655 C72.7130045,10.7781166 72.8073543,11.0060987 72.8073543,11.2439462 C72.8073543,11.4817937 72.7128251,11.7099552 72.5447534,11.8780269 L70.5686099,13.8545291 C70.4003587,14.0229596 70.1721973,14.1173094 69.9343498,14.1173094 L69.9343498,14.1173094 Z M69.2265471,11.2441256 L69.9345291,11.9521076 L70.6425112,11.2441256 L69.9345291,10.5363229 L69.2265471,11.2441256 Z" id="形状" fill="#6589FE"></path>
            <path d="M9.45130045,88.3434978 C9.21345291,88.3434978 8.98529148,88.249148 8.81704036,88.0807175 L6.84071749,86.1042152 C6.67246637,85.9359641 6.57811659,85.7079821 6.57811659,85.4701345 C6.57811659,85.232287 6.67264574,85.0041256 6.84071749,84.8360538 L8.81704036,82.8597309 C9.16735426,82.509417 9.73506726,82.509417 10.0853812,82.8597309 L12.061704,84.8360538 C12.2299552,85.0043049 12.3243049,85.232287 12.3243049,85.4701345 C12.3243049,85.7079821 12.2297758,85.9361435 12.061704,86.1042152 L10.0855605,88.0807175 C9.91748879,88.2489686 9.68932735,88.3434978 9.45130045,88.3434978 L9.45130045,88.3434978 Z M8.74349776,85.4701345 L9.45147982,86.1781166 L10.1594619,85.4701345 L9.45147982,84.7623318 L8.74349776,85.4701345 Z" id="形状" fill="#6589FE"></path>
            <path d="M61.4889686,9.06529148 C61.2593722,9.06529148 61.0299552,8.97775785 60.8547085,8.80251121 L58.8783857,6.82618834 C58.7101345,6.65793722 58.6157848,6.42995516 58.6157848,6.19210762 C58.6157848,5.95426009 58.7103139,5.72609865 58.8783857,5.55802691 L60.8547085,3.58170404 C61.2052018,3.23139013 61.7729148,3.23156951 62.1230493,3.58170404 L64.0993722,5.55802691 C64.4496861,5.90816143 64.4496861,6.47605381 64.0993722,6.82618834 L62.1230493,8.80251121 C61.9479821,8.97775785 61.718565,9.06529148 61.4889686,9.06529148 Z M60.7809865,6.19210762 L61.4889686,6.89991031 L62.1967713,6.19210762 L61.4889686,5.48430493 L60.7809865,6.19210762 Z" id="形状" fill="#6589FE"></path>
            <path d="M73.3720179,88.5194619 C72.8767713,88.5194619 72.475157,88.1180269 72.475157,87.6226009 C72.475157,87.0274439 71.990852,86.543139 71.3956951,86.543139 C70.9004484,86.543139 70.4988341,86.141704 70.4988341,85.646278 C70.4988341,85.150852 70.9004484,84.749417 71.3956951,84.749417 C71.990852,84.749417 72.475157,84.2652915 72.475157,83.6699552 C72.475157,83.1745291 72.8767713,82.7730942 73.3720179,82.7730942 C73.8672646,82.7730942 74.2688789,83.1745291 74.2688789,83.6699552 C74.2688789,84.2651121 74.7531839,84.749417 75.3483408,84.749417 C75.8435874,84.749417 76.2452018,85.150852 76.2452018,85.646278 C76.2452018,86.141704 75.8435874,86.543139 75.3483408,86.543139 C74.7531839,86.543139 74.2688789,87.0272646 74.2688789,87.6226009 C74.2688789,88.1180269 73.8672646,88.5194619 73.3720179,88.5194619 Z" id="路径" fill="#6589FE"></path>
          </g>
        </g>
      </g>
    </g>
  </g>
</svg>
