<?xml version="1.0" encoding="UTF-8"?>
<svg xmlns="http://www.w3.org/2000/svg" xmlns:xlink="http://www.w3.org/1999/xlink" width="80px" height="91px" viewBox="0 0 80 91" version="1.1">
  <title>技术工单</title>
  <defs>
    <linearGradient x1="-1.63788955e-05%" y1="50.0000314%" x2="100.000003%" y2="50.0000314%" id="linearGradient-1">
      <stop stop-color="#D2DEFF" stop-opacity="0" offset="0%"></stop>
      <stop stop-color="#B7C5FF" offset="100%"></stop>
    </linearGradient>
  </defs>
  <g id="服务与资源" stroke="none" stroke-width="1" fill="none" fill-rule="evenodd">
    <g id="服务与资源最终稿" transform="translate(-219.000000, -1300.000000)" fill-rule="nonzero">
      <g id="编组-5" transform="translate(0.000000, 850.000000)">
        <g id="编组-4" transform="translate(218.000000, 100.000000)">
          <g id="技术工单" transform="translate(1.000000, 350.000000)">
            <g id="编组">
              <path d="M27.6540397,0.0688741722 C15.6346137,0.85209713 3.95108168,10.8639294 7.94701987,23.9228256 C11.1726269,34.4642826 22.9054305,39.4159823 31.7299779,44.3512583 C40.1940839,49.0850331 49.1427815,54.9877263 51.5157616,65.0474172 C53.1487859,71.9699779 51.1477263,80.0436203 55.4030905,85.7426932 C62.8787638,95.7548786 77.3151435,88.1504636 78.4166004,77.3969095 C79.3306843,68.47117 72.8519205,60.6726711 66.7913466,54.0565121 C60.9163797,47.6429139 54.3477263,41.4518322 49.1327152,34.4815894 C44.3035762,28.0268433 41.7792494,20.0030022 48.1827815,13.6095364 C49.6211921,12.1734216 51.3347461,10.6947461 50.8091832,8.3584989 C49.0837969,0.695099338 33.5348344,-0.314172185 27.6540397,0.0688741722 Z" id="路径" fill="url(#linearGradient-1)"></path>
              <g transform="translate(0.000000, 4.415011)">
                <path d="M77.194702,30.812362 L58.0671082,30.812362 L58.0671082,9.54437086 C58.0671082,6.61810155 55.6953642,4.24635762 52.7690949,4.24635762 L17.2618102,4.24635762 C14.3355408,4.24635762 11.9637969,6.61810155 11.9637969,9.54437086 L11.9637969,22.2486534 C8.72847682,25.1343046 6.69068433,29.3342163 6.69068433,34.010596 C6.69068433,38.6869757 8.72865342,42.8867108 11.9637969,45.772362 L11.9637969,76.2850331 C11.9637969,79.2113024 14.3355408,81.5830464 17.2618102,81.5830464 L52.7690949,81.5830464 C55.6953642,81.5830464 58.0671082,79.2113024 58.0671082,76.2850331 L58.0671082,69.2824724 L64.9654746,69.2824724 C68.3943488,69.2824724 71.2065342,66.64883 71.4938631,63.2943046 L77.194702,63.2943046 C78.1713024,63.2943046 78.9607064,62.5031347 78.9607064,61.5283002 L78.9607064,32.5781898 C78.9607064,31.603532 78.1713024,30.812362 77.194702,30.812362 Z" id="路径" fill="#2626BC" opacity="0.1"></path>
                <g>
                  <g transform="translate(11.832230, 0.000000)" id="路径">
                    <path d="M46.2348786,5.30596026 L46.2348786,72.0467991 C46.2348786,74.9730684 43.8631347,77.3448124 40.9368653,77.3448124 L5.42958057,77.3448124 C2.50331126,77.3448124 0.131567329,74.9730684 0.131567329,72.0467991 L0.131567329,5.30596026 C0.131567329,2.37969095 2.50331126,0.00794701987 5.42958057,0.00794701987 L40.9368653,0.00794701987 C43.8631347,0.00794701987 46.2348786,2.37969095 46.2348786,5.30596026 Z" fill="#FFFFFF"></path>
                    <path d="M46.2348786,49.5584989 L46.2348786,72.0467991 C46.2348786,74.9730684 43.8631347,77.3448124 40.9368653,77.3448124 L5.42958057,77.3448124 C2.50331126,77.3448124 0.131567329,74.9730684 0.131567329,72.0467991 L0.131567329,49.5584989 L46.2348786,49.5584989 Z" fill="#658DFE"></path>
                    <path d="M33.0007947,4.05827815 L34.2647241,0.0072406181 L12.1013687,0.0072406181 L13.365298,4.05827815 C13.5954084,4.79593819 14.2784989,5.29836645 15.0511258,5.29836645 L31.3147903,5.29836645 C32.0877704,5.29836645 32.7706843,4.79593819 33.0007947,4.05827815 Z" fill="#658DFE"></path>
                    <path d="M32.5887859,71.2427373 L13.7773068,71.2427373 C13.2895364,71.2427373 12.8943046,70.8473289 12.8943046,70.3597351 C12.8943046,69.8721413 13.2895364,69.4767329 13.7773068,69.4767329 L32.5887859,69.4767329 C33.0765563,69.4767329 33.4717881,69.8721413 33.4717881,70.3597351 C33.4717881,70.8473289 33.0765563,71.2427373 32.5887859,71.2427373 Z" fill="#326DE6"></path>
                    <g transform="translate(5.474614, 2.295806)" fill="#326DE6">
                      <path d="M4.25748344,2.71452539 L0.902075055,2.71452539 C0.414481236,2.71452539 0.0190728477,2.319117 0.0190728477,1.83152318 L0.0190728477,0.95205298 C0.0190728477,0.464282561 0.414481236,0.0690507726 0.902075055,0.0690507726 L4.25748344,0.0690507726 C4.74507726,0.0690507726 5.14048565,0.464282561 5.14048565,0.95205298 L5.14048565,1.83152318 C5.14048565,2.3192936 4.74507726,2.71452539 4.25748344,2.71452539 L4.25748344,2.71452539 Z"></path>
                      <g transform="translate(30.905077, 0.176600)">
                        <path d="M0.916732892,2.40724062 C0.429139073,2.40724062 0.0337306843,2.01183223 0.0337306843,1.52423841 L0.0337306843,0.906136865 C0.0337306843,0.418543046 0.429139073,0.0231346578 0.916732892,0.0231346578 C1.40432671,0.0231346578 1.7997351,0.418543046 1.7997351,0.906136865 L1.7997351,1.52423841 C1.7997351,2.01183223 1.40432671,2.40724062 0.916732892,2.40724062 Z"></path>
                        <path d="M3.60988962,2.40724062 C3.12229581,2.40724062 2.72688742,2.01183223 2.72688742,1.52423841 L2.72688742,0.906136865 C2.72688742,0.418543046 3.12229581,0.0231346578 3.60988962,0.0231346578 C4.09748344,0.0231346578 4.49289183,0.418543046 4.49289183,0.906136865 L4.49289183,1.52423841 C4.49289183,2.01183223 4.09748344,2.40724062 3.60988962,2.40724062 Z"></path>
                      </g>
                    </g>
                  </g>
                  <g transform="translate(28.256071, 26.490066)" id="路径">
                    <path d="M50.7046358,1.84988962 L50.7046358,30.8 C50.7046358,31.7748344 49.9152318,32.5660044 48.9386313,32.5660044 L1.8781457,32.5660044 C0.901545254,32.5660044 0.11214128,31.7748344 0.11214128,30.8 L0.11214128,1.84988962 C0.11214128,0.875055188 0.901545254,0.0838852097 1.8781457,0.0838852097 L48.9386313,0.0838852097 C49.9152318,0.0838852097 50.7046358,0.875055188 50.7046358,1.84988962 Z" fill="#FFFFFF"></path>
                    <path d="M50.7042826,1.84918322 L26.4111258,18.6279912 C25.8071523,19.0447682 25.0089183,19.0447682 24.4049448,18.6279912 L12.0517439,10.0964238 L0.111788079,1.84918322 C0.111788079,0.874348786 0.901192053,0.0831788079 1.87779249,0.0831788079 L48.9382781,0.0831788079 C49.4256954,0.0831788079 49.8671965,0.280971302 50.1868433,0.600618102 C50.5064901,0.920264901 50.7042826,1.361766 50.7042826,1.84918322 Z" fill="#658DFE"></path>
                  </g>
                  <g transform="translate(0.000000, 7.417219)">
                    <circle id="椭圆形" fill="#FFFFFF" transform="translate(22.440786, 22.354126) rotate(-45.000000) translate(-22.440786, -22.354126) " cx="22.440786" cy="22.3541261" r="15.7544417"></circle>
                    <path d="M22.4473289,33.6406181 C16.2244592,33.6406181 11.1616777,28.5780132 11.1616777,22.3549669 C11.1616777,19.344106 12.333245,16.5124945 14.4603974,14.3816336 C16.5873731,12.2511258 19.4165121,11.0747903 22.4266667,11.0694923 L22.4467991,11.0694923 C25.4202208,11.0694923 28.2331126,12.2431788 30.3694481,14.3758057 C32.5382781,16.5407506 33.7328035,19.4055629 33.7328035,22.4423841 L33.7328035,24.083532 C33.7328035,26.3417219 31.8956291,28.1790728 29.6372627,28.1790728 C28.7346578,28.1790728 27.8991611,27.8855629 27.2215453,27.3889625 C25.9535541,28.56 24.3189404,29.2001766 22.5841943,29.2001766 C22.5677704,29.2001766 22.5516998,29.2001766 22.5350993,29.2 C20.6889183,29.1871082 18.9628256,28.4506843 17.674702,27.126181 C16.4303753,25.8467108 15.7451656,24.1524062 15.7451656,22.3553201 C15.7451656,20.558234 16.4303753,18.8639294 17.674702,17.5844592 C18.9628256,16.2599558 20.6889183,15.523532 22.5350993,15.5106402 C24.3826932,15.4968653 26.1174393,16.2098013 27.4228698,17.5152318 C27.6294923,17.7218543 27.7456954,18.0022958 27.7456954,18.2945695 L27.7456954,24.083532 C27.7456954,25.1265342 28.5942605,25.9749227 29.6370861,25.9749227 C30.6800883,25.9749227 31.5284768,25.1265342 31.5284768,24.083532 L31.5284768,22.4423841 C31.5284768,19.9950552 30.5637086,17.6842384 28.8120088,15.9357174 C27.0919205,14.2186313 24.8317881,13.2736424 22.4464459,13.2736424 C22.4411479,13.2736424 22.4356733,13.2736424 22.4303753,13.2736424 C17.432053,13.282649 13.3654746,17.356468 13.3654746,22.3551435 C13.3654746,27.362649 17.4394702,31.4366446 22.4469757,31.4366446 C23.0555408,31.4366446 23.5489625,31.9300662 23.5489625,32.5386313 C23.5493157,33.1471965 23.055894,33.6406181 22.4473289,33.6406181 L22.4473289,33.6406181 Z M22.5840177,17.7144371 C22.5728918,17.7144371 22.5619426,17.7144371 22.5508168,17.7146137 C21.2992494,17.7232671 20.1289183,18.2228698 19.2552759,19.1210596 C17.5210596,20.9043709 17.5210596,23.8060927 19.2552759,25.589404 C20.1289183,26.4875938 21.2992494,26.9871965 22.5508168,26.9959351 C23.7958499,27.0032671 24.9690066,26.5260927 25.8528918,25.6485651 C25.6528035,25.1662693 25.5420751,24.6375276 25.5420751,24.083532 L25.5420751,18.7793377 C24.71117,18.0891832 23.6768212,17.7144371 22.5840177,17.7144371 L22.5840177,17.7144371 Z" id="形状" fill="#326DE6"></path>
                  </g>
                  <g transform="translate(41.854305, 51.920530)" id="路径">
                    <path d="M1.90869757,13.1237086 L23.11117,13.1237086 C26.7309492,13.1237086 29.6653422,10.1893157 29.6653422,6.56953642 C29.6653422,2.94975717 26.7309492,0.0153642384 23.11117,0.0153642384 L6.69686534,0.0153642384 C3.07708609,0.0153642384 0.142693157,2.94975717 0.142693157,6.56953642 L0.142693157,11.3577042 C0.142693157,12.3330684 0.933333333,13.1237086 1.90869757,13.1237086 L1.90869757,13.1237086 Z" fill="#FFFFFF"></path>
                    <g transform="translate(5.298013, 3.885210)" fill="#326DE6">
                      <path d="M6.34843267,1.9198234 L19.3320971,1.9198234 C19.8198675,1.9198234 20.2150993,1.52441501 20.2150993,1.03682119 C20.2150993,0.549227373 19.8198675,0.153818985 19.3320971,0.153818985 L6.34843267,0.153818985 C5.86066225,0.153818985 5.46543046,0.549227373 5.46543046,1.03682119 C5.46543046,1.52459161 5.86083885,1.9198234 6.34843267,1.9198234 Z"></path>
                      <path d="M1.05041943,5.21465784 L19.3319205,5.21465784 C19.8196909,5.21465784 20.2149227,4.81924945 20.2149227,4.33165563 C20.2149227,3.84406181 19.8196909,3.44865342 19.3319205,3.44865342 L1.05041943,3.44865342 C0.562649007,3.44865342 0.167417219,3.84406181 0.167417219,4.33165563 C0.167417219,4.81924945 0.562825607,5.21465784 1.05041943,5.21465784 Z"></path>
                    </g>
                  </g>
                  <g transform="translate(39.735099, 8.300221)">
                    <circle id="椭圆形" fill="#6583FE" cx="6.99602649" cy="7.09368653" r="6.93298013"></circle>
                    <path d="M9.92988962,6.06816777 C9.92988962,4.45033113 8.61368653,3.13430464 6.99602649,3.13430464 C5.37818985,3.13430464 4.06216336,4.45050773 4.06216336,6.06816777 C4.06216336,6.86604857 4.38322296,7.58958057 4.90172185,8.1190287 C4.38322296,8.64847682 4.06216336,9.37200883 4.06216336,10.1698896 C4.06216336,10.6574834 4.45757174,11.0528918 4.94516556,11.0528918 C5.43275938,11.0528918 5.82816777,10.6574834 5.82816777,10.1698896 C5.82816777,9.52600442 6.35214128,9.00203091 6.99602649,9.00203091 C7.6399117,9.00203091 8.16388521,9.52600442 8.16388521,10.1698896 C8.16388521,10.6574834 8.5592936,11.0528918 9.04688742,11.0528918 C9.53448124,11.0528918 9.92988962,10.6574834 9.92988962,10.1698896 C9.92988962,9.37200883 9.60883002,8.64847682 9.09033113,8.1190287 C9.60883002,7.58975717 9.92988962,6.86604857 9.92988962,6.06816777 L9.92988962,6.06816777 Z M6.99602649,4.90030905 C7.6399117,4.90030905 8.16388521,5.42428256 8.16388521,6.06816777 C8.16388521,6.71205298 7.6399117,7.23602649 6.99602649,7.23602649 C6.35196468,7.23602649 5.82816777,6.71205298 5.82816777,6.06816777 C5.82816777,5.42428256 6.35214128,4.90030905 6.99602649,4.90030905 Z" id="形状" fill="#263ABC"></path>
                  </g>
                </g>
                <g transform="translate(2.295806, 7.947020)" fill="#6584FE">
                  <path d="M64.0697572,13.9558499 C63.5819868,13.9558499 63.186755,13.5606181 63.186755,13.0728477 C63.186755,12.4884768 62.7115232,12.013245 62.1271523,12.013245 C61.6393819,12.013245 61.2441501,11.6180132 61.2441501,11.1302428 C61.2441501,10.6424724 61.6393819,10.2472406 62.1271523,10.2472406 C62.7115232,10.2472406 63.186755,9.77200883 63.186755,9.18763797 C63.186755,8.69986755 63.5819868,8.30463576 64.0697572,8.30463576 C64.5575276,8.30463576 64.9527594,8.69986755 64.9527594,9.18763797 C64.9527594,9.77200883 65.4279912,10.2472406 66.012362,10.2472406 C66.5001325,10.2472406 66.8953642,10.6424724 66.8953642,11.1302428 C66.8953642,11.6180132 66.5001325,12.013245 66.012362,12.013245 C65.4279912,12.013245 64.9527594,12.4884768 64.9527594,13.0728477 C64.9527594,13.5606181 64.5575276,13.9558499 64.0697572,13.9558499 Z" id="路径"></path>
                  <path d="M67.6346137,5.78331126 C67.1468433,5.78331126 66.7516115,5.38807947 66.7516115,4.90030905 C66.7516115,4.31611479 66.2763797,3.8407064 65.6920088,3.8407064 C65.2042384,3.8407064 64.8090066,3.44547461 64.8090066,2.95770419 C64.8090066,2.46993377 65.2042384,2.07470199 65.6920088,2.07470199 C66.2763797,2.07470199 66.7516115,1.5994702 66.7516115,1.01509934 C66.7516115,0.527328918 67.1468433,0.13209713 67.6346137,0.13209713 C68.1223841,0.13209713 68.5176159,0.527328918 68.5176159,1.01509934 C68.5176159,1.5994702 68.9928477,2.07470199 69.5772185,2.07470199 C70.064989,2.07470199 70.4602208,2.46993377 70.4602208,2.95770419 C70.4602208,3.44547461 70.064989,3.8407064 69.5772185,3.8407064 C68.9928477,3.8407064 68.5176159,4.31611479 68.5176159,4.90030905 C68.5176159,5.38807947 68.1223841,5.78331126 67.6346137,5.78331126 Z" id="路径"></path>
                  <path d="M62.6557174,69.7116115 C62.4298455,69.7116115 62.2036203,69.6254305 62.0314349,69.4528918 L60.08883,67.510287 C59.7439294,67.1655629 59.7439294,66.6064459 60.08883,66.2617219 L62.0314349,64.319117 C62.3759823,63.9742163 62.9354525,63.9742163 63.28,64.319117 L65.2226049,66.2617219 C65.5675055,66.6064459 65.5675055,67.1655629 65.2226049,67.510287 L63.28,69.4528918 C63.107638,69.6254305 62.8815894,69.7116115 62.6557174,69.7116115 L62.6557174,69.7116115 Z M61.9618543,66.8860044 L62.6557174,67.5798675 L63.3495806,66.8860044 L62.6557174,66.1921413 L61.9618543,66.8860044 Z" id="形状"></path>
                  <path d="M73.5074614,13.9558499 C73.2815894,13.9558499 73.0553642,13.8696689 72.8831788,13.6971302 L70.940574,11.7545254 C70.5956733,11.4098013 70.5956733,10.8506843 70.940574,10.5059603 L72.8831788,8.56335541 C73.2277263,8.21845475 73.7871965,8.21845475 74.1317439,8.56335541 L76.0743488,10.5059603 C76.4192494,10.8506843 76.4192494,11.4098013 76.0743488,11.7545254 L74.1317439,13.6971302 C73.9593819,13.8696689 73.7333333,13.9558499 73.5074614,13.9558499 L73.5074614,13.9558499 Z M72.8135982,11.1302428 L73.5074614,11.824106 L74.2013245,11.1302428 L73.5074614,10.4363797 L72.8135982,11.1302428 Z" id="形状"></path>
                  <path d="M2.98172185,42.3503753 C2.75584989,42.3503753 2.52962472,42.2641943 2.35743929,42.0916556 L0.414834437,40.1490508 C0.0699337748,39.8043267 0.0699337748,39.2452097 0.414834437,38.9004857 L2.35743929,36.9578808 C2.70198675,36.6129801 3.26145695,36.6129801 3.60600442,36.9578808 L5.54860927,38.9004857 C5.89350993,39.2452097 5.89350993,39.8043267 5.54860927,40.1490508 L3.60600442,42.0916556 C3.43381898,42.2640177 3.20777042,42.3503753 2.98172185,42.3503753 L2.98172185,42.3503753 Z M2.28803532,39.5247682 L2.98189845,40.2186313 L3.67576159,39.5247682 L2.98189845,38.8309051 L2.28803532,39.5247682 Z" id="形状"></path>
                </g>
              </g>
            </g>
            <path d="M77.1948786,30.1050773 L58.950287,30.1050773 L58.950287,9.7199117 C58.950287,6.31169978 56.1774834,3.53889625 52.7692715,3.53889625 L17.2616336,3.53889625 C13.8534216,3.53889625 11.0806181,6.31169978 11.0806181,9.7199117 L11.0806181,22.0469757 C7.83770419,25.0852097 5.80768212,29.4032671 5.80768212,34.1871965 C5.80768212,43.3624724 13.2724062,50.8271965 22.4475055,50.8271965 C24.2027373,50.8271965 25.8949227,50.5531126 27.4845033,50.0471523 L27.4845033,61.7045475 C27.4845033,63.1652097 28.6728477,64.3535541 30.1335099,64.3535541 L41.1141722,64.3535541 L41.1141722,67.6934216 C41.1141722,69.1540839 42.3025166,70.3424283 43.7631788,70.3424283 L57.1844592,70.3424283 L57.1844592,76.4611038 C57.1844592,78.8955408 55.2038852,80.8761148 52.7694481,80.8761148 L17.2616336,80.8761148 C14.8271965,80.8761148 12.8466225,78.8955408 12.8466225,76.4611038 L12.8466225,52.1112583 C12.8466225,51.6234879 12.4513907,51.2282561 11.9636203,51.2282561 C11.4758499,51.2282561 11.0806181,51.6234879 11.0806181,52.1112583 L11.0806181,76.4611038 C11.0806181,79.8693157 13.8534216,82.6421192 17.2616336,82.6421192 L52.7692715,82.6421192 C56.1774834,82.6421192 58.950287,79.8693157 58.950287,76.4611038 L58.950287,70.3424283 L64.9656512,70.3424283 C68.5709492,70.3424283 71.5842826,67.7633554 72.2601325,64.3535541 L77.1948786,64.3535541 C78.6555408,64.3535541 79.8438852,63.1652097 79.8438852,61.7045475 L79.8438852,32.7540839 C79.8438852,31.293245 78.6555408,30.1050773 77.1948786,30.1050773 Z M7.57350993,34.1871965 C7.57350993,25.985872 14.2458278,19.3133775 22.4473289,19.3133775 C30.6486534,19.3133775 37.3211479,25.9856954 37.3211479,34.1871965 C37.3211479,42.3886976 30.64883,49.0611921 22.4473289,49.0611921 C14.2458278,49.0611921 7.57350993,42.3886976 7.57350993,34.1871965 L7.57350993,34.1871965 Z M64.9656512,68.5762472 L43.7630022,68.5762472 C43.2761148,68.5762472 42.88,68.1801325 42.88,67.693245 L42.88,62.9050773 C42.88,59.7780132 45.424106,57.2339073 48.55117,57.2339073 L64.9654746,57.2339073 C68.0925386,57.2339073 70.6366446,59.7780132 70.6366446,62.9050773 C70.6366446,66.0321413 68.0927152,68.5762472 64.9656512,68.5762472 L64.9656512,68.5762472 Z M78.0778808,61.7043709 C78.0778808,62.1912583 77.681766,62.5873731 77.1948786,62.5873731 L72.3948786,62.5873731 C72.227638,58.6332892 68.9601766,55.4677263 64.9656512,55.4677263 L48.5513466,55.4677263 C44.5569978,55.4677263 41.2893598,58.6332892 41.1221192,62.5873731 L30.1333333,62.5873731 C29.6464459,62.5873731 29.2503311,62.1912583 29.2503311,61.7043709 L29.2503311,49.3716556 C35.0433554,46.7659161 39.0869757,40.9400442 39.0869757,34.1870199 C39.0869757,25.0119205 31.6222517,17.5471965 22.4471523,17.5471965 C18.8741722,17.5471965 15.5607947,18.6795585 12.8464459,20.6036203 L12.8464459,9.7197351 C12.8464459,7.28529801 14.8270199,5.30472406 17.261457,5.30472406 L52.7690949,5.30472406 C55.203532,5.30472406 57.184106,7.28529801 57.184106,9.7197351 L57.184106,30.1050773 L43.7969095,30.1050773 C43.3091391,30.1050773 42.9139073,30.5003091 42.9139073,30.9880795 C42.9139073,31.4758499 43.3091391,31.8710817 43.7969095,31.8710817 L77.1945254,31.8710817 C77.6814128,31.8710817 78.0778808,32.2671965 78.0778808,32.7540839 L78.0778808,61.7043709 L78.0778808,61.7043709 Z" id="形状" fill="#326DE6"></path>
          </g>
        </g>
      </g>
    </g>
  </g>
</svg>
