<svg xmlns="http://www.w3.org/2000/svg" viewBox="0 0 49.84 37.58"><defs><style>.cls-1{fill:#3f51b5;}.cls-2{fill:#fff;}</style></defs><title>资源 1</title><g id="图层_2" data-name="图层 2"><g id="图层_1-2" data-name="图层 1"><rect class="cls-1" width="49.84" height="37.58"/><path class="cls-2" d="M38.48,32.48l-.11,0-1.85-.61c-2-.66-2-.66-2-.87l0-.18h.27a.9.9,0,0,0,.24,0,11.49,11.49,0,0,0,3.78-1.44c1.44-.73,2.07-1,2.36-.78.12.11.44.4-1.19,2.54l0,0Z"/><path class="cls-2" d="M44.77,20.32c-.37,0-.66-.55-1.23-1.69s-1.28-2.58-2-3a.24.24,0,0,1-.15-.27c0-.19.26-.19.38-.19.7,0,3.14.3,3.24.31l.16,0,.35,2v0c-.08,2.69-.51,2.71-.68,2.72Z"/><path class="cls-2" d="M28.8,3.42,22,1.8S12.79,5.15,7.39,10.49c3.75.76,4.84.56,4.84.56Z"/><path class="cls-2" d="M11.77,11.43h0a23.48,23.48,0,0,1-4.45-.59.36.36,0,0,1-.27-.25.34.34,0,0,1,.09-.36c5.4-5.33,14.6-8.73,14.69-8.76a.3.3,0,0,1,.21,0l6.84,1.61a.35.35,0,0,1,.07.67L12.38,11.37a.11.11,0,0,1-.08,0A2.68,2.68,0,0,1,11.77,11.43ZM8.14,10.27a20.84,20.84,0,0,0,3.63.44h.36L27.71,3.53,22,2.18C21,2.55,13.16,5.61,8.14,10.27Z"/><path class="cls-2" d="M35.23,10.84A2.18,2.18,0,1,0,37.4,13,2.18,2.18,0,0,0,35.23,10.84Zm.31,3.43A1.25,1.25,0,1,1,36.84,13,1.27,1.27,0,0,1,35.54,14.27Z"/><path class="cls-2" d="M21.56,18.86h0a9.28,9.28,0,0,1-3.7-1.73.36.36,0,0,1,.44-.57,8.77,8.77,0,0,0,3.36,1.59.36.36,0,0,1-.05.71Z"/><path class="cls-2" d="M20.41,20.47h0a24.09,24.09,0,0,1-3.89-.79A.36.36,0,1,1,16.7,19a22.5,22.5,0,0,0,3.75.76.36.36,0,0,1,0,.72Z"/><path class="cls-2" d="M15.64,22.8h-.2a.35.35,0,0,1-.35-.36.36.36,0,0,1,.35-.36h0a16.65,16.65,0,0,0,4.14-.44.36.36,0,0,1,.44.25.36.36,0,0,1-.25.44A17.13,17.13,0,0,1,15.64,22.8Z"/><path class="cls-2" d="M42.93,18.83a9.2,9.2,0,0,0-1.07.06c-2.55.29-5.26,2-5.53,5.12a3.49,3.49,0,0,0,.2,1.48,6.83,6.83,0,0,0,2.07,2.78,8.66,8.66,0,0,0,4.94,2.24h0A1.71,1.71,0,0,0,45,29.9a4.29,4.29,0,0,0,.78-2.27A3.86,3.86,0,0,1,46.22,26a3.46,3.46,0,0,1,.45-.62c.17-.2.35-.38.52-.56A3.77,3.77,0,0,0,48.4,23a2.47,2.47,0,0,0,.05-.54C48.38,19.77,45.43,18.83,42.93,18.83ZM46.12,25l-.13.17h0L45.8,25l-.23-.12-.17-.07-.24-.09L45,24.67l-.26-.07-.17,0-.26,0-.18,0-.26,0h-.63l-.44.05-.33.07-.11,0-.22.07-.12,0-.19.07-.12.06-.18.08-.13.06-.17.1-.12.07-.15.1-.12.09-.15.11-.11.09-.14.12-.11.1a.8.8,0,0,1-.13.13L40.1,26a1.49,1.49,0,0,0-.12.14l-.1.12-.11.14-.08.13-.1.15s-.05.08-.07.13l-.09.16a.83.83,0,0,0-.07.13l-.08.17-.05.14c0,.06,0,.12-.07.17a.88.88,0,0,1,0,.15h0l0,0-.14-.12-.17-.16,0,0a1.8,1.8,0,0,1,.08-.21.59.59,0,0,1,.06-.14,1.63,1.63,0,0,1,.09-.19.91.91,0,0,1,.07-.14,1.62,1.62,0,0,1,.1-.18l.08-.13a1.63,1.63,0,0,1,.11-.17l.09-.13.12-.15a1.47,1.47,0,0,1,.1-.13.86.86,0,0,1,.13-.14l.11-.12.14-.14.11-.11.15-.12.13-.1L40.6,25l.13-.09.17-.11.13-.08.18-.09.14-.08.18-.08.14-.06.21-.08.13-.05.23-.06.12,0,.36-.07A3.93,3.93,0,0,1,43.2,24h.49l.21,0,.28,0,.21,0,.27.05.2.05.27.07.19.07.26.1.19.09.25.12a1.18,1.18,0,0,1,.19.11l.06,0a1.07,1.07,0,0,0-.14.16Zm1.58-2.13v0l-.08-.05-.23-.14-.27-.15-.23-.12-.28-.13-.23-.1-.3-.1L45.83,22l-.3-.08-.24-.07L45,21.75l-.22,0-.38-.05-.19,0-.57,0a8,8,0,0,0-1.29.11c-.14,0-.28.05-.41.09l-.13,0-.27.07-.15,0-.25.08L41,22.1l-.23.09-.16.07-.21.1a.8.8,0,0,0-.16.08l-.21.1-.15.09-.2.12-.15.1-.19.12-.15.11-.18.13-.14.12-.17.14-.14.13-.16.15a1.59,1.59,0,0,0-.13.13c0,.06-.11.11-.16.16l-.12.15-.15.16-.11.15-.14.18-.11.15c0,.07-.09.13-.13.19l-.1.16v0c0-.1-.06-.19-.08-.28s0-.2,0-.3a.21.21,0,0,1,0-.06l.07-.11.26-.34,0-.05.23-.27.1-.1.19-.2.12-.12.19-.17.13-.11.19-.16.14-.11.19-.14.15-.11.2-.13.16-.1.2-.12.16-.08.22-.11.16-.08.22-.1.17-.07.23-.09.16-.06.25-.08.16-.05.28-.07.13,0,.42-.08a8,8,0,0,1,1.37-.12l.59,0,.19,0,.4.05.22,0,.35.07.24.06.33.09.23.08.32.11.24.1L47,22l.23.11.29.16.2.11v.07a1,1,0,0,1,0,.18A1.5,1.5,0,0,1,47.7,22.82Z"/><circle class="cls-2" cx="35.9" cy="12.56" r="0.46"/><path class="cls-2" d="M45.84,17.2a21.36,21.36,0,0,0-4-8.1,15.54,15.54,0,0,0-12.61-6h-.43c-3.79.08-12,2-24.21,13.57-.36-.87-.7-1.78-1-2.69a.35.35,0,0,0-.31-.25.38.38,0,0,0-.35.2A16.75,16.75,0,0,0,1.39,20a.36.36,0,0,0,.63.25s.87-.94,2.31-2.35A33.27,33.27,0,0,0,15,31.41a23.33,23.33,0,0,0,11.86,4.66c.64,0,1.21.07,1.75.07,3.52,0,7-.86,12.51-5.05a.36.36,0,0,0,.12-.4.35.35,0,0,0-.32-.25,9.29,9.29,0,0,1-6.85-3.06c-2-2.26-2.9-5.5-2.64-9.41a24.55,24.55,0,0,0,6.44.9,27,27,0,0,0,7.69-1.25A.35.35,0,0,0,45.84,17.2Zm-18.3,2.7c-.27.16-6.53,4-12.19,4.94h-.06a.35.35,0,0,1-.35-.41,17.26,17.26,0,0,1,4.13-8.91.35.35,0,0,1,.41-.07l8,3.82a.35.35,0,0,1,.21.3A.39.39,0,0,1,27.54,19.9Zm7.69-4A2.9,2.9,0,1,1,38.12,13,2.9,2.9,0,0,1,35.23,15.92Z"/></g></g></svg>