<?xml version="1.0" encoding="UTF-8"?>
<svg xmlns="http://www.w3.org/2000/svg" xmlns:xlink="http://www.w3.org/1999/xlink" width="60px" height="48px" viewBox="0 0 60 48" version="1.1">
  <title>任务流转</title>
  <g id="首页" stroke="none" stroke-width="1" fill="none" fill-rule="evenodd">
    <g id="官网首页" transform="translate(-946.000000, -436.000000)">
      <g id="热门信息" transform="translate(0.000000, 413.000000)">
        <g id="任务流转" transform="translate(946.000000, 23.000000)">
          <g id="编组-6">
            <rect id="矩形" x="0" y="0" width="60" height="48"></rect>
            <rect id="矩形" fill="#FFFFFF" x="4" y="3" width="52" height="42" rx="2"></rect>
            <path d="M54,3 C55.1045695,3 56,3.8954305 56,5 L56,43 C56,44.1045695 55.1045695,45 54,45 L6,45 C4.8954305,45 4,44.1045695 4,43 L4,5 C4,3.8954305 4.8954305,3 6,3 L54,3 Z M54,3.8 L6,3.8 C5.37867966,3.8 4.86764746,4.27219968 4.80619546,4.87730697 L4.8,5 L4.8,43 C4.8,43.6213203 5.27219968,44.1323525 5.87730697,44.1938045 L6,44.2 L54,44.2 C54.6213203,44.2 55.1323525,43.7278003 55.1938045,43.122693 L55.2,43 L55.2,5 C55.2,4.37867966 54.7278003,3.86764746 54.122693,3.80619546 L54,3.8 Z" id="矩形" fill="#979797" fill-rule="nonzero"></path>
          </g>
          <g id="编组-9" transform="translate(10.000000, 7.000000)">
            <rect id="矩形" fill="#F5F5F5" x="0" y="0" width="18" height="30"></rect>
            <path d="M18,0 L18,30 L0,30 L0,0 L18,0 Z M17.2,0.8 L0.8,0.8 L0.8,29.2 L17.2,29.2 L17.2,0.8 Z" id="矩形" fill="#979797" fill-rule="nonzero"></path>
            <g id="编组-7" transform="translate(2.000000, 3.000000)">
              <rect id="矩形" fill="#FFFFFF" x="0" y="0" width="14" height="8" rx="1"></rect>
              <rect id="矩形" fill="#D8D8D8" x="5" y="2" width="8" height="1"></rect>
              <rect id="矩形备份-3" fill="#F5F5F5" x="5" y="4" width="6" height="1"></rect>
              <circle id="椭圆形" fill="#D8D8D8" cx="2.5" cy="3.5" r="1.5"></circle>
            </g>
            <rect id="矩形" fill="#FFFFFF" x="2" y="13" width="14" height="8" rx="1"></rect>
            <rect id="矩形备份-2" fill="#F5F5F5" x="22" y="0" width="18" height="34"></rect>
            <path d="M40,0 L40,34 L22,34 L22,0 L40,0 Z M39.2,0.8 L22.8,0.8 L22.8,33.2 L39.2,33.2 L39.2,0.8 Z" id="矩形备份-2" fill="#979797" fill-rule="nonzero"></path>
            <g id="编组-7备份" transform="translate(24.000000, 3.000000)">
              <rect id="矩形" fill="#FFFFFF" x="0" y="0" width="14" height="8" rx="1"></rect>
              <rect id="矩形" fill="#D8D8D8" x="5" y="2" width="8" height="1"></rect>
              <rect id="矩形备份-3" fill="#F5F5F5" x="5" y="4" width="6" height="1"></rect>
              <circle id="椭圆形" fill="#D8D8D8" cx="2.5" cy="3.5" r="1.5"></circle>
            </g>
            <g id="编组-7备份-2" transform="translate(24.000000, 13.000000)">
              <rect id="矩形" fill="#FFFFFF" x="0" y="0" width="14" height="8" rx="1"></rect>
              <rect id="矩形" fill="#D8D8D8" x="5" y="2" width="8" height="1"></rect>
              <rect id="矩形备份-3" fill="#F5F5F5" x="5" y="4" width="6" height="1"></rect>
              <circle id="椭圆形" fill="#D8D8D8" cx="2.5" cy="3.5" r="1.5"></circle>
            </g>
            <rect id="矩形" fill="#C2D7FF" x="24" y="23" width="14" height="8" rx="1"></rect>
            <path d="M4.31075693,18.2518534 C4.51906067,17.9948315 4.73280097,17.7602487 4.95190972,17.5480178 C5.11059007,17.3943184 5.11462794,17.1410846 4.96092855,16.9824043 C4.80722917,16.8237239 4.55399537,16.819686 4.39531503,16.9733854 C4.1527127,17.2083725 3.91737808,17.4666553 3.68924307,17.7481466 C3.55014828,17.9197729 3.5765203,18.1716621 3.74814661,18.3107569 C3.91977293,18.4498517 4.17166215,18.4234797 4.31075693,18.2518534 Z M5.6758269,16.9418244 C5.93560389,16.7566199 6.20222117,16.5995599 6.47581133,16.4703907 C6.67557979,16.3760747 6.76106589,16.1376721 6.66674986,15.9379036 C6.57243384,15.7381352 6.33403126,15.6526491 6.1342628,15.7469651 C5.817133,15.8966905 5.50947404,16.0779275 5.21141852,16.2904221 C5.03153876,16.418665 4.98967877,16.6684477 5.1179216,16.8483274 C5.24616444,17.0282072 5.49594715,17.0700672 5.6758269,16.9418244 Z M7.40329932,16.1451846 C7.69978355,16.0752078 8.00457932,16.0340066 8.31803913,16.0216311 C8.53878106,16.0129161 8.71066286,15.8269045 8.70194787,15.6061626 C8.69323289,15.3854207 8.5072213,15.2135389 8.28647937,15.2222538 C7.92206689,15.236641 7.56629983,15.2847323 7.2195307,15.3665775 C7.00452428,15.4173238 6.87136513,15.6327589 6.92211143,15.8477654 C6.97285774,16.0627718 7.18829289,16.1959309 7.40329932,16.1451846 Z M9.23849209,16.0649104 C9.53922588,16.1037638 9.84752808,16.1666172 10.1634365,16.253621 C10.3764206,16.3122786 10.5966298,16.1871723 10.6552874,15.9741881 C10.713945,15.761204 10.5888386,15.5409949 10.3758545,15.4823373 C10.0244908,15.3855688 9.67952561,15.315241 9.34099661,15.2715045 C9.12190364,15.2431987 8.92134728,15.3978622 8.89304143,15.6169552 C8.86473559,15.8360482 9.01939912,16.0366045 9.23849209,16.0649104 Z M11.1332936,16.5869535 C11.4195373,16.7040254 11.711338,16.839208 12.0086579,16.9925473 C12.2049978,17.0938073 12.4462502,17.0167298 12.5475102,16.8203899 C12.6487702,16.62405 12.5716927,16.3827976 12.3753528,16.2815376 C12.0575649,16.1176421 11.7445059,15.9726112 11.4361382,15.8464907 C11.2316651,15.7628625 10.9981128,15.8608266 10.9144845,16.0652997 C10.8308563,16.2697729 10.9288204,16.5033252 11.1332936,16.5869535 Z M12.8729667,17.4800063 L13.1476478,17.6516462 L13.6173399,17.9598113 C13.8021477,18.0808443 14.0500808,18.0291446 14.1711139,17.8443368 C14.2921469,17.6595289 14.2404472,17.4115958 14.0556394,17.2905628 L13.8689113,17.1671799 C13.6742379,17.0373976 13.4812374,16.9140844 13.2899023,16.7972437 C13.1013626,16.6821102 12.8551868,16.7416176 12.7400532,16.9301573 C12.6249196,17.1186969 12.684427,17.3648728 12.8729667,17.4800063 Z M14.4761712,18.5009315 C14.7630853,18.674875 15.0544244,18.8449529 15.3511358,19.0119833 C15.5436429,19.120353 15.7875516,19.0521462 15.8959214,18.8596392 C16.0042911,18.6671322 15.9360843,18.4232234 15.7435773,18.3148537 C15.4542649,18.1519884 15.1703554,17.9862479 14.8909106,17.8168327 C14.702002,17.7023055 14.4560187,17.7626037 14.3414915,17.9515123 C14.2269644,18.140421 14.2872625,18.3864043 14.4761712,18.5009315 Z M16.2402707,19.495261 C16.5338287,19.6494314 16.8331794,19.8016158 17.1409158,19.9534336 C17.3390324,20.0511718 17.5788702,19.9697991 17.6766084,19.7716825 C17.7743466,19.5735659 17.6929739,19.3337282 17.4948573,19.2359899 C17.1930281,19.0870864 16.8996738,18.9379504 16.612237,18.7869948 C16.4166546,18.6842791 16.1748364,18.7595624 16.0721207,18.9551447 C15.969405,19.1507271 16.0446884,19.3925454 16.2402707,19.495261 Z M18.0524624,20.3909979 L18.347489,20.5280271 L18.966945,20.8099496 C19.1684263,20.900549 19.4052044,20.8106615 19.4958039,20.6091803 C19.5864033,20.407699 19.4965158,20.1709209 19.2950346,20.0803214 L18.6827441,19.8016635 C18.5843042,19.7562665 18.4873693,19.7112472 18.3914905,19.6663877 C18.1913949,19.5727677 17.9532914,19.6590832 17.8596713,19.8591788 C17.7660513,20.0592744 17.8523668,20.2973779 18.0524624,20.3909979 Z M19.8887324,21.2191391 L20.8043879,21.6208079 C21.0066326,21.70969 21.2426375,21.6177916 21.3315197,21.4155469 C21.4204018,21.2133022 21.3285033,20.9772972 21.1262586,20.8884151 L20.2107079,20.4867923 C20.008476,20.3978812 19.7724579,20.489746 19.6835468,20.6919779 C19.5946357,20.8942099 19.6865004,21.130228 19.8887324,21.2191391 Z M21.717684,22.0265973 L22.4067242,22.3437458 C22.4781269,22.3773657 22.5480705,22.4105743 22.6168152,22.4435 C22.8160551,22.5389274 23.0549302,22.4547706 23.1503576,22.2555306 C23.2457849,22.0562906 23.1616281,21.8174155 22.9623881,21.7219882 L22.2917971,21.4086997 C22.2121978,21.372317 22.1306365,21.3352786 22.0468478,21.2974531 C21.8455002,21.2065571 21.6085899,21.2960957 21.5176938,21.4974433 C21.4267978,21.6987909 21.5163364,21.9357012 21.717684,22.0265973 Z M23.4927698,22.8823035 C23.7980433,23.0432467 24.0801563,23.2018845 24.3435006,23.3613282 C24.5324762,23.4757449 24.7784242,23.4153029 24.8928409,23.2263273 C25.0072575,23.0373517 24.9468156,22.7914037 24.75784,22.6769871 C24.4803528,22.5089804 24.1845675,22.3426543 23.8658622,22.1746298 C23.6704435,22.0716032 23.4285058,22.1465018 23.3254791,22.3419205 C23.2224525,22.5373392 23.2973511,22.7792769 23.4927698,22.8823035 Z M25.1592767,23.9017336 C25.4274239,24.0975476 25.6728622,24.2980816 25.8974957,24.5057084 C26.0597258,24.6556563 26.312796,24.6456996 26.4627439,24.4834695 C26.6126917,24.3212395 26.602735,24.0681693 26.4405049,23.9182214 C26.192584,23.6890702 25.923383,23.469121 25.6310704,23.2556603 C25.4526621,23.1253781 25.2024191,23.1643919 25.0721369,23.3428001 C24.9418546,23.5212083 24.9808684,23.7714514 25.1592767,23.9017336 Z M26.5475823,25.1975554 C26.7454026,25.4425393 26.9208654,25.6992191 27.0747503,25.9699095 C27.1839286,26.1619591 27.428122,26.2291396 27.6201716,26.1199613 C27.8122212,26.0107829 27.8794017,25.7665895 27.7702234,25.5745399 C27.5947252,25.2658306 27.3947841,24.9733421 27.169999,24.6949647 C27.0312124,24.523089 26.7793709,24.4962651 26.6074953,24.6350517 C26.4356197,24.7738383 26.4087957,25.0256798 26.5475823,25.1975554 Z" id="路径-3" fill="#6694EF" fill-rule="nonzero"></path>
            <g id="编组-7备份-4" transform="translate(13.000000, 17.000000)">
              <rect id="矩形" fill="#D9D9D9" x="0" y="0" width="18" height="9" rx="1"></rect>
              <rect id="矩形" fill="#FFFFFF" x="6" y="2" width="10" height="1"></rect>
              <rect id="矩形备份-3" fill="#FFFFFF" x="6" y="4" width="6" height="1"></rect>
              <rect id="矩形备份-4" fill="#FFFFFF" x="6" y="6" width="8" height="1"></rect>
              <circle id="椭圆形" fill="#FFFFFF" cx="3.5" cy="3.5" r="1.5"></circle>
            </g>
          </g>
        </g>
      </g>
    </g>
  </g>
</svg>
