<?xml version="1.0" encoding="UTF-8"?>
<svg xmlns="http://www.w3.org/2000/svg" xmlns:xlink="http://www.w3.org/1999/xlink" width="61px" height="45px" viewBox="0 0 61 45" version="1.1">
  <title>发布</title>
  <g id="首页" stroke="none" stroke-width="1" fill="none" fill-rule="evenodd">
    <g id="官网首页" transform="translate(-161.000000, -439.000000)">
      <g id="热门信息" transform="translate(0.000000, 413.000000)">
        <g id="发布" transform="translate(161.000000, 26.000000)">
          <path d="M53.2733333,8.13333333 L53.2733333,39.8533333 L2.03333333,39.8533333 L2.03333333,8.13333333 L53.2733333,8.13333333 Z M52.46,8.94666667 L2.84666667,8.94666667 L2.84666667,39.04 L52.46,39.04 L52.46,8.94666667 Z" id="Rectangle-3-Copy" fill="#979797" fill-rule="nonzero"></path>
          <rect id="Rectangle-37" fill="#F5F5F5" x="2.84666667" y="8.94666667" width="25.2133333" height="30.0933333"></rect>
          <path d="M40.26,11.7933333 L40.26,28.8733333 L15.0466667,28.8733333 L15.0466667,11.7933333 L40.26,11.7933333 Z M39.4466667,12.6066667 L15.86,12.6066667 L15.86,28.06 L39.4466667,28.06 L39.4466667,12.6066667 Z" id="Rectangle-3-Copy-2" fill="#979797" fill-rule="nonzero"></path>
          <rect id="Rectangle-40" fill="#6694EF" x="19.9266667" y="16.2666667" width="2.44" height="2.44"></rect>
          <polygon id="Rectangle-40-Copy-4" fill="#6694EF" points="24.4 16.2666667 34.9733333 16.2666667 34.9733333 18.7066667 24.4 18.7066667"></polygon>
          <rect id="Rectangle-40-Copy" fill="#6694EF" x="19.9266667" y="21.1466667" width="2.44" height="2.44"></rect>
          <rect id="Rectangle-40-Copy-5" fill="#6694EF" x="24.4" y="21.1466667" width="5.28666667" height="2.44"></rect>
          <path d="M55.3066667,0 L55.3066667,8.94666667 L0,8.94666667 L0,0 L55.3066667,0 Z M54.4933333,0.813333333 L0.813333333,0.813333333 L0.813333333,8.13333333 L54.4933333,8.13333333 L54.4933333,0.813333333 Z" id="Rectangle-3-Copy" fill="#979797" fill-rule="nonzero"></path>
          <path d="M32.7366667,2.03333333 C33.9719436,2.03333333 34.9733333,3.03472311 34.9733333,4.27 L34.9733333,4.67666667 C34.9733333,5.91194356 33.9719436,6.91333333 32.7366667,6.91333333 L22.57,6.91333333 C21.3347231,6.91333333 20.3333333,5.91194356 20.3333333,4.67666667 L20.3333333,4.27 C20.3333333,3.03472311 21.3347231,2.03333333 22.57,2.03333333 L32.7366667,2.03333333 Z M32.7366667,2.84666667 L22.57,2.84666667 C21.8101175,2.84666667 21.1893152,3.44213956 21.1487727,4.19190568 L21.1466667,4.27 L21.1466667,4.67666667 C21.1466667,5.43654912 21.7421396,6.05735142 22.4919057,6.09789393 L22.57,6.1 L32.7366667,6.1 C33.4965491,6.1 34.1173514,5.50452711 34.1578939,4.75476098 L34.16,4.67666667 L34.16,4.27 C34.16,3.51011755 33.5645271,2.88931524 32.814761,2.84877274 L32.7366667,2.84666667 Z" id="Rectangle-5" fill="#979797" fill-rule="nonzero"></path>
          <polygon id="Star" fill="#FFD666" points="49.0274994 42.3081975 44.9939419 44.0221083 43.0057381 40.1164557 38.8141732 38.8366667 39.8016259 34.5667704 37.4133333 30.8921092 40.9144024 28.2559012 41.4468909 23.9057825 45.8233872 24.1367739 49.0274994 21.1466667 52.2316117 24.1367739 56.608108 23.9057825 57.1405965 28.2559012 60.6416655 30.8921092 58.253373 34.5667704 59.2408257 38.8366667 55.0492607 40.1164557 53.061057 44.0221083"></polygon>
          <path d="M42.7,35.3880311 L42.7,30.9066667 L43.7962478,30.9066667 L44.9105655,33.0509755 L45.3502693,34.0448265 L45.380386,34.0448265 C45.3201526,33.5689826 45.2358259,32.9244853 45.2358259,32.3884081 L45.2358259,30.9066667 L46.2597935,30.9066667 L46.2597935,35.3880311 L45.1635458,35.3880311 L44.0552513,33.2256523 L43.6155476,32.243848 L43.5854309,32.243848 C43.6336176,32.7437852 43.7239677,33.3581658 43.7239677,33.9002663 L43.7239677,35.3880311 L42.7,35.3880311 Z M47.3018312,35.3880311 L47.3018312,30.9066667 L50.1448474,30.9066667 L50.1448474,31.7981209 L48.380009,31.7981209 L48.380009,32.6293417 L49.8798205,32.6293417 L49.8798205,33.5328426 L48.380009,33.5328426 L48.380009,34.4845302 L50.2111041,34.4845302 L50.2111041,35.3880311 L47.3018312,35.3880311 Z M51.4820287,35.3880311 L50.6628546,30.9066667 L51.7651257,30.9066667 L52.0482226,32.9485787 L52.2289228,34.3700868 L52.2530162,34.3700868 C52.3373429,33.894243 52.427693,33.4123758 52.5180431,32.9485787 L52.9758169,30.9066667 L53.8793178,30.9066667 L54.3491382,32.9485787 C54.4394883,33.4063525 54.5177917,33.8882196 54.6081418,34.3700868 L54.6382585,34.3700868 C54.6924686,33.8882196 54.752702,33.4123758 54.806912,32.9485787 L55.0960323,30.9066667 L56.12,30.9066667 L55.3429892,35.3880311 L53.9877379,35.3880311 L53.5841741,33.4364692 C53.5118941,33.0931388 53.4516607,32.7317385 53.4094973,32.3944315 L53.3793806,32.3944315 C53.3251706,32.7317385 53.2709605,33.0931388 53.2047038,33.4364692 L52.8131867,35.3880311 L51.4820287,35.3880311 Z" id="NEW" fill="#FFFFFF"></path>
        </g>
      </g>
    </g>
  </g>
</svg>
