<?xml version="1.0" encoding="UTF-8"?>
<svg width="150px" height="120px" viewBox="0 0 150 120" version="1.1" xmlns="http://www.w3.org/2000/svg" xmlns:xlink="http://www.w3.org/1999/xlink">
    <!-- Generator: Sketch 51 (57462) - http://www.bohemiancoding.com/sketch -->
    <title>Group 9</title>
    <desc>Created with Sketch.</desc>
    <defs></defs>
    <g id="社区页" stroke="none" stroke-width="1" fill="#FFFFFF" fill-rule="evenodd">
        <g id="社区页面" transform="translate(-330.000000, -1327.000000)">
            <rect fill="transparent" x="0" y="0" width="1440" height="3373"></rect>
            <g id="Group-9" transform="translate(330.000000, 1328.000000)">
                <rect id="Rectangle-3" stroke="#979797" stroke-width="2" fill="#FFFFFF" x="1" y="40" width="118" height="78"></rect>
                <rect id="Rectangle-3-Copy" stroke="#979797" stroke-width="2" fill="#FFFFFF" x="19" y="24" width="118" height="78"></rect>
                <rect id="Rectangle-37" fill="#F5F5F5" x="20" y="25" width="59" height="76"></rect>
                <circle id="Oval-3" stroke="#979797" stroke-width="2" fill="#FFFFFF" cx="79" cy="6" r="6"></circle>
                <path d="M79.25,12.5 L79.25,23.5" id="Line-2" stroke="#979797" stroke-width="2" stroke-linecap="square"></path>
                <path d="M98,71 L148,71 C149.104569,71 150,71.8954305 150,73 L150,103 C150,104.104569 149.104569,105 148,105 L122.420893,105 L108.236512,113.600118 L108.236512,105 L98,105 C96.8954305,105 96,104.104569 96,103 L96,73 C96,71.8954305 96.8954305,71 98,71 Z" id="Rectangle-38" fill="#D9D9D9"></path>
                <path d="M112,86 C110.35,86 109,87.35 109,89 C109,90.65 110.35,92 112,92 C113.65,92 115,90.65 115,89 C115,87.35 113.65,86 112,86 L112,86 Z M136,86 C134.35,86 133,87.35 133,89 C133,90.65 134.35,92 136,92 C137.65,92 139,90.65 139,89 C139,87.35 137.65,86 136,86 L136,86 Z M124,86 C122.35,86 121,87.35 121,89 C121,90.65 122.35,92 124,92 C125.65,92 127,90.65 127,89 C127,87.35 125.65,86 124,86 L124,86 Z" id="Fill-199" fill="#FFFFFF"></path>
                <rect id="Rectangle-40" fill="#6694EF" x="31" y="36" width="27" height="6"></rect>
                <rect id="Rectangle-40-Copy" fill="#6694EF" x="31" y="48" width="12" height="6"></rect>
                <rect id="Rectangle-40-Copy-2" fill="#6694EF" x="31" y="60" width="27" height="6"></rect>
                <rect id="Rectangle-40-Copy-3" fill="#6694EF" x="31" y="72" width="19" height="6"></rect>
            </g>
        </g>
    </g>
</svg>