<?xml version="1.0" encoding="UTF-8"?>
<svg width="60px" height="50px" viewBox="0 0 60 50" version="1.1" xmlns="http://www.w3.org/2000/svg" xmlns:xlink="http://www.w3.org/1999/xlink">
    <!-- Generator: Sketch 51 (57462) - http://www.bohemiancoding.com/sketch -->
    <title>activity-4-g</title>
    <desc>Created with Sketch.</desc>
    <defs></defs>
    <g id="activity-4-g" stroke="none" stroke-width="1" fill="none" fill-rule="evenodd">
        <g id="Group-7" transform="translate(0.000000, 3.000000)">
            <path d="M2.8,38.4 L51.6,38.4 L51.6,8.8 L2.8,8.8 L2.8,38.4 Z M2,8 L52.4,8 L52.4,39.2 L2,39.2 L2,8 Z" id="Rectangle-3-Copy" fill="#979797" fill-rule="nonzero"></path>
            <rect id="Rectangle-37" fill="#F5F5F5" x="2.8" y="8.8" width="24.8" height="29.6"></rect>
            <path d="M15.6,12.4 L15.6,27.6 L38.8,27.6 L38.8,12.4 L15.6,12.4 Z M14.8,11.6 L39.6,11.6 L39.6,28.4 L14.8,28.4 L14.8,11.6 Z" id="Rectangle-3-Copy-2" fill="#979797" fill-rule="nonzero"></path>
            <rect id="Rectangle-40" fill="#6694EF" x="19.6" y="16" width="2.4" height="2.4"></rect>
            <rect id="Rectangle-40-Copy-4" fill="#6694EF" x="24" y="16" width="10.4" height="2.4"></rect>
            <rect id="Rectangle-40-Copy" fill="#6694EF" x="19.6" y="20.8" width="2.4" height="2.4"></rect>
            <rect id="Rectangle-40-Copy-5" fill="#6694EF" x="24" y="20.8" width="5.2" height="2.4"></rect>
            <path d="M0.8,0.8 L0.8,8 L53.6,8 L53.6,0.8 L0.8,0.8 Z M0,0 L54.4,0 L54.4,8.8 L0,8.8 L0,0 Z" id="Rectangle-3-Copy" fill="#979797" fill-rule="nonzero"></path>
            <path d="M22.2,2.8 C21.4268014,2.8 20.8,3.42680135 20.8,4.2 L20.8,4.6 C20.8,5.37319865 21.4268014,6 22.2,6 L32.2,6 C32.9731986,6 33.6,5.37319865 33.6,4.6 L33.6,4.2 C33.6,3.42680135 32.9731986,2.8 32.2,2.8 L22.2,2.8 Z M22.2,2 L32.2,2 C33.4150264,2 34.4,2.98497355 34.4,4.2 L34.4,4.6 C34.4,5.81502645 33.4150264,6.8 32.2,6.8 L22.2,6.8 C20.9849736,6.8 20,5.81502645 20,4.6 L20,4.2 C20,2.98497355 20.9849736,2 22.2,2 Z" id="Rectangle-5" fill="#979797" fill-rule="nonzero"></path>
            <polygon id="Star" fill="#D9D9D9" points="48.2237699 41.6146205 44.2563363 43.3004344 42.300726 39.4588089 38.1778753 38.2 39.1491402 34.0001021 36.8 30.3856811 40.2436745 27.7926897 40.7674337 23.5138845 45.0721841 23.7410891 48.2237699 20.8 51.3753558 23.7410891 55.6801062 23.5138845 56.2038654 27.7926897 59.6475399 30.3856811 57.2983997 34.0001021 58.2696646 38.2 54.1468138 39.4588089 52.1912036 43.3004344"></polygon>
            <path d="M42,34.8078995 L42,30.4 L43.0782765,30.4 L44.1743268,32.5091562 L44.6068223,33.4867145 L44.6364452,33.4867145 C44.5771993,33.0186715 44.4942549,32.3847397 44.4942549,31.8574506 L44.4942549,30.4 L45.5014363,30.4 L45.5014363,34.8078995 L44.4231598,34.8078995 L43.3330341,32.6809695 L42.9005386,31.7152603 L42.8709156,31.7152603 C42.9183124,32.2070018 43.0071813,32.8113106 43.0071813,33.3445242 L43.0071813,34.8078995 L42,34.8078995 Z M46.5263914,34.8078995 L46.5263914,30.4 L49.3228007,30.4 L49.3228007,31.2768402 L47.5868941,31.2768402 L47.5868941,32.0944345 L49.0621185,32.0944345 L49.0621185,32.9831239 L47.5868941,32.9831239 L47.5868941,33.9192101 L49.3879713,33.9192101 L49.3879713,34.8078995 L46.5263914,34.8078995 Z M50.638061,34.8078995 L49.832316,30.4 L50.9165171,30.4 L51.1949731,32.4084381 L51.372711,33.8066427 L51.3964093,33.8066427 C51.4793537,33.3385996 51.5682226,32.864632 51.6570916,32.4084381 L52.1073609,30.4 L52.9960503,30.4 L53.4581688,32.4084381 C53.5470377,32.8587074 53.6240575,33.332675 53.7129264,33.8066427 L53.7425494,33.8066427 C53.7958707,33.332675 53.8551167,32.864632 53.9084381,32.4084381 L54.1928187,30.4 L55.2,30.4 L54.4357271,34.8078995 L53.102693,34.8078995 L52.7057451,32.8883303 C52.6346499,32.5506284 52.5754039,32.1951526 52.5339318,31.8633752 L52.5043088,31.8633752 C52.4509874,32.1951526 52.3976661,32.5506284 52.3324955,32.8883303 L51.9473968,34.8078995 L50.638061,34.8078995 Z" id="NEW" fill="#FFFFFF"></path>
        </g>
    </g>
</svg>