<?xml version="1.0" encoding="utf-8"?>
<!-- Generator: Adobe Illustrator 19.2.1, SVG Export Plug-In . SVG Version: 6.00 Build 0)  -->
<svg version="1.1" xmlns="http://www.w3.org/2000/svg" xmlns:xlink="http://www.w3.org/1999/xlink" x="0px" y="0px"
	 viewBox="0 0 728.3 728.3" style="enable-background:new 0 0 728.3 728.3;" xml:space="preserve">
<style type="text/css">
	.st0{display:none;}
	.st1{display:inline;}
	.st2{fill:#3371E3;}
	.st3{display:inline;fill:#FFFFFF;}
	.st4{display:inline;fill:#3371E3;}
	.st5{fill:#FFFFFF;}
</style>
<g id="图层_1">
</g>
<g id="图层_2_2_">
	<g>
		<path class="st2" d="M590.4,126.7c0-19.2-14.8-34.8-33-34.8H244.5c-17.9,0-32.3,15-32.9,33.7c0.3,0,0.7-0.1,1-0.1h312.9
			c18.2,0,33,15.6,33,34.8V395c11,0.9,21.7,3,31.9,6.3V126.7z"/>
		<path class="st5" d="M558.4,532.8c17.7-0.6,32-15.8,32-34.7v-96.7c-10.2-3.4-20.9-5.5-31.9-6.3v136.7
			C558.5,532.1,558.4,532.4,558.4,532.8z"/>
		<g>
			<path class="st2" d="M526.7,237.2v-43.4c0-19.2-14.8-34.8-33-34.8H180.8c-18.2,0-33,15.6-33,34.8v43.4H526.7z"/>
			<path class="st2" d="M147.8,273.8v291.5c0,19.2,14.8,34.8,33,34.8h235.4c-6.6-17.3-10.4-36.2-10.4-56
				c0-75.1,52.5-137.1,120.9-147.8V273.8H147.8z"/>
		</g>
		<g>
			<path class="st5" d="M398.7,207.7H229.3c-3.4,0-6.1-2.7-6.1-6.1v-0.3c0-3.4,2.7-6.1,6.1-6.1h169.3c3.4,0,6.1,2.7,6.1,6.1v0.3
				C404.8,205,402,207.7,398.7,207.7z"/>
			<path class="st5" d="M445.3,208.9L445.3,208.9c-3.9,0-7.1-3.2-7.1-7.1V201c0-3.9,3.2-7.1,7.1-7.1l0,0c3.9,0,7.1,3.2,7.1,7.1v0.8
				C452.4,205.7,449.2,208.9,445.3,208.9z"/>
		</g>
		<g>
			<path class="st2" d="M469.1,567.2l17.2,16.6l18.5,17.8c1.5-0.8,2.8-1.8,3.9-3.1l52.7-59.6l0.3-0.3l27.3-30.8l-19.2-18.5
				L551.9,472l-80.2,90.7C470.6,564,469.7,565.5,469.1,567.2z"/>
			<path class="st2" d="M460.1,579.2c-0.5,1.4-0.9,2.9-1,4.5l-3.3,27.8l-1,8.5c0,0.5,0.1,1,0.4,1.5c0.5,1,1.5,1.6,2.7,1.4l6.9-1.6
				l27-6.2c1.5-0.2,2.9-0.8,4.2-1.5l-18.5-17.8L460.1,579.2z"/>
			<path class="st2" d="M579.8,477.5l18.6,17.9l0.5,0.5l19.7-22.7c1.9-2.2,1.7-5.6-0.5-7.7l-15.3-14.7l-8.7-8.4h0l-5.3-5.1
				c-2.1-2.1-5.4-2-7.3,0.2l-19.7,22.7l0.5,0.5L579.8,477.5z"/>
		</g>
		<path class="st5" d="M203.6,382.5v-0.7c0-7.3,5.9-13.1,13.1-13.1h131.1c7.3,0,13.1,5.9,13.1,13.1v0.7c0,7.3-5.9,13.1-13.1,13.1
			H216.7C209.5,395.6,203.6,389.8,203.6,382.5z"/>
		<path class="st5" d="M203.6,434.8v-0.7c0-7.3,5.9-13.1,13.1-13.1h131.1c7.3,0,13.1,5.9,13.1,13.1v0.7c0,7.3-5.9,13.1-13.1,13.1
			H216.7C209.5,447.9,203.6,442,203.6,434.8z"/>
		<path class="st5" d="M203.6,489.6v-0.7c0-7.3,5.9-13.1,13.1-13.1h131.1c7.3,0,13.1,5.9,13.1,13.1v0.7c0,7.3-5.9,13.1-13.1,13.1
			H216.7C209.5,502.8,203.6,496.9,203.6,489.6z"/>
	</g>
</g>
</svg>
