<?xml version="1.0" encoding="utf-8"?>
<!-- Generator: Adobe Illustrator 19.2.1, SVG Export Plug-In . SVG Version: 6.00 Build 0)  -->
<svg version="1.1" id="图层_1" xmlns="http://www.w3.org/2000/svg" xmlns:xlink="http://www.w3.org/1999/xlink" x="0px" y="0px"
	 viewBox="0 0 800 800" style="enable-background:new 0 0 800 800;" xml:space="preserve">
<style type="text/css">
	.st0{display:none;}
	.st1{display:inline;}
	.st2{fill:#3371E3;}
	.st3{display:inline;fill:#3371E3;}
</style>
<g>
	<path class="st2" d="M642.4,487.7L642.4,487.7l-70.4,79.6l-28.8,32.7c0,0,0,0,0,0.1c-1.4,1.6-2.5,3.5-3.2,5.4l7.9,7.7l13.4,12.9
		l22.9,22c1.9-1,3.5-2.2,4.8-3.8l65.2-73.7l0.4-0.4l2.5-2.8l31.3-35.3l-23.8-22.9L642.4,487.7z"/>
	<path class="st2" d="M536.2,627.4l-7.4-7.1c-0.6,1.7-1.1,3.6-1.2,5.6l-0.2,2l-3.8,32.4l-1.2,10.5c0,0.6,0.1,1.2,0.5,1.9
		c0.6,1.2,1.9,2,3.3,1.7l8.5-2l33.4-7.7c1.9-0.2,3.6-1,5.2-1.9l-22.9-22L536.2,627.4z"/>
	<path class="st2" d="M724.3,479.6l-18.9-18.2l-10.8-10.4l-6.6-6.3c-2.6-2.6-6.7-2.5-9,0.2l-24.4,28.1l0.6,0.6l21.6,20.8l23,22.1
		l0.6,0.6l24.4-28.1C727.3,486.5,727.1,482.2,724.3,479.6z"/>
</g>
<path class="st2" d="M570.1,423h-27h-0.3h-0.3l-1.1-0.1c-16.7-1.7-29.9-17.7-29.9-36.5c0-15.7,9-29.5,21.9-34.5c0-0.2,0-0.4,0-0.8
	c0-15.7,12.8-28.4,28.4-28.4c7.6,0,14.6,3,19.8,8c7.3-13,20.9-21.1,36.2-21.1c22.7,0,41,18.2,41.5,40.5
	c15.8,2.6,27.9,18.2,27.9,36.3c0,10.5-4.1,20.2-10.8,27c19.1,4.2,37.2,11.7,53.5,21.7V217.8H70v312.6c0,27.1,20.8,47.9,47.9,47.9
	h345.6C465.7,508.3,509.2,448.9,570.1,423z M196.1,304.8c52,0,70.2,5.2,71.5,9.1c0,1.2-4,5.2-19.5,7.8c-13,2.6-32.5,4-52,4
	s-37.7-1.3-52-4c-15.5-3.9-19.5-6.4-19.5-7.8C125.9,311.4,144,304.8,196.1,304.8z M271.6,452c0,9-33.9,15.5-75.5,15.5
	s-75.5-6.4-75.5-15.5v-28.7c0,9,33.9,15.5,75.5,15.5s75.4-6.6,75.5-15.5V452z M271.6,403.8c0,2.6-2.6,4-6.6,6.6
	c-11.8,5.2-37.7,9.1-69,9.1s-57.2-4-69-9.1c-4-2.6-6.6-4-6.6-6.6v-28.7c0,9,33.9,15.5,75.5,15.5s75.4-7.8,75.5-15.5v28.7H271.6z
	 M271.6,355.8c0,2.6-2.6,4-6.6,6.6c-11.8,5.2-37.7,9.1-69,9.1s-57.2-4-69-9.1c-4-2.6-6.6-4-6.6-6.6V327c0,9,33.9,15.5,75.5,15.5
	s75.4-7.9,75.5-15.5v28.7H271.6z M477.3,456.4c0,4.3-3.4,7.8-7.8,7.8h-32.6c-4.3,0-7.8-3.4-7.8-7.8v-26.1c0-4.3,3.4-7.8,7.8-7.8
	h11.7v-25.7H346.1v25.7h13c4.3,0,7.8,3.4,7.8,7.8v26.1c0,4.3-3.4,7.8-7.8,7.8h-32.6c-4.3,0-7.8-3.4-7.8-7.8v-26.1
	c0-4.3,3.4-7.8,7.8-7.8h11.8v-26c0-4.3,3.4-7.8,7.8-7.8h48.1v-23.4h-19.4c-4.3,0-7.8-3.4-7.8-7.8V316c-0.1-2,0.7-4,2.1-5.4
	c1.4-1.7,3.6-2.4,5.8-2.4h48c4.3,0,7.8,3.4,7.8,7.8v41.6c0,4.3-3.4,7.8-7.8,7.8H402v23.4h46.9c4.3,0,7.8,3.4,7.8,7.8v26h13.1
	c4.3,0,7.8,3.4,7.8,7.8v26.1h-0.3V456.4z"/>
<polygon class="st2" points="558.2,383.7 572.9,383.7 565.5,364.7 "/>
<path class="st2" d="M611.2,362.2c-0.9-0.4-2-0.8-3.2-0.8h-9v13.8h6.7c1.4,0,2.9-0.2,3.9-0.4c1.1-0.3,1.9-0.8,2.6-1.3
	c0.7-0.4,1.1-1.2,1.4-2.1c0.3-0.9,0.4-1.9,0.4-3.1c-0.1-1.3-0.3-2.6-0.9-3.6C612.7,363.6,612.1,362.8,611.2,362.2z"/>
<rect x="437" y="430.6" class="st2" width="32.2" height="25.7"/>
<rect x="326.5" y="430.6" class="st2" width="32.2" height="25.7"/>
<path class="st2" d="M207.9,447.9h-23.4c-2.6,0-4,1.3-4,4c0,2.6,1.3,4,4,4h23.4c1.2,0,4-1.3,4-4
	C211.8,449.3,210.5,447.9,207.9,447.9z"/>
<rect x="374.6" y="316" class="st2" width="47.9" height="41.3"/>
<path class="st2" d="M207.9,350.4h-23.4c-2.6,0-4,1.3-4,4c0,2.6,1.3,4,4,4h23.4c1.2,0,3.9-1.3,4-4
	C211.8,351.7,210.5,350.4,207.9,350.4z"/>
<path class="st2" d="M207.9,399.8h-23.4c-2.6,0-4,1.3-4,4c0,2.6,1.3,4,4,4h23.4c1.2,0,4-1.3,4-4
	C211.8,401.1,210.5,399.8,207.9,399.8z"/>
<path class="st2" d="M729.9,184.2c0-27.1-20.8-47.9-47.9-47.9H117.9c-27.1,0-47.9,20.8-47.9,47.9v17.6h660v-17.6H729.9z"/>
<path class="st2" d="M666.4,411.3c7.7-5,12.9-14.4,12.9-25.1c0-14.9-10-27.3-22.8-28.5l-2.2-0.1h-3.6l0.3-3.4
	c0.1-1.1,0.1-2.1,0.1-3.2c0-18.4-15-33.4-33.4-33.4c-14.7,0-27.5,9.4-32,23.3l-2.3,7.4l-3.6-6.8c-3.6-6.7-10.5-10.9-18-10.9
	c-11.2,0-20.4,9.1-20.4,20.4c0,1.2,0.1,2.3,0.3,3.6l0.4,3l-3,0.8c-11.4,2.8-19.8,14.4-19.8,28.1c0,14.9,10,27.3,22.8,28.5l1.1,0.1
	h50.3c14.3-3.9,29.4-5.8,44.9-5.8C648,409.1,657.4,410,666.4,411.3z M580.2,401.7l-5.2-12.3h-18.7l-4.7,12.3h-6.6l17.4-46.6h5.4
	l19.1,46.6H580.2z M619.1,374.2c-0.7,1.4-1.7,2.9-3,4.1c-1.3,1.2-3,2.1-4.7,2.6c-1.9,0.4-3.7,0.8-5.8,0.8H599v20h-6.1v-46.6l0,0
	h14.2c1.8,0,3.4,0.2,5.2,0.7c1.8,0.4,3.1,1.2,4.2,2.4c1.1,1.2,1.9,2.4,2.3,3.9c0.4,1.3,0.9,2.6,1,3.6c0.1,1,0.2,2.1,0.2,3.1
	C620,370.8,619.8,372.8,619.1,374.2z M632.4,355h6.1v46.9h-6.1V355z"/>
<path class="st2" d="M275.6,606.8c-9.5,0-16,6.4-16,16s6.4,16,16,16h196.1c-3.3-10.2-5.8-20.9-7.2-31.9H275.6L275.6,606.8z"/>
</svg>
