<?xml version="1.0" encoding="utf-8"?>
<!-- Generator: Adobe Illustrator 19.2.1, SVG Export Plug-In . SVG Version: 6.00 Build 0)  -->
<svg version="1.1" xmlns="http://www.w3.org/2000/svg" xmlns:xlink="http://www.w3.org/1999/xlink" x="0px" y="0px"
	 viewBox="0 0 728.3 728.3" style="enable-background:new 0 0 728.3 728.3;" xml:space="preserve">
<style type="text/css">
	.st0{display:none;}
	.st1{display:inline;}
	.st2{fill:#3371E3;}
	.st3{display:inline;fill:#FFFFFF;}
	.st4{display:inline;fill:#3371E3;}
	.st5{fill:#FFFFFF;}
</style>
<g id="图层_1">
</g>
<g id="图层_2_2_">
	<g>
		<path class="st2" d="M653.6,336L522.8,109.4c-5.3-9.2-15.1-14.8-25.6-14.8H235.5c-10.6,0-20.3,5.6-25.6,14.8L79.1,336
			c-5.3,9.2-5.3,20.4,0,29.6l130.8,226.6c5.3,9.2,15.1,14.8,25.6,14.8h130.6c-9.8-18.5-15.4-39.5-15.4-61.9
			c0-72.8,59-131.7,131.7-131.7c45.8,0,86.1,23.3,109.7,58.8l61.5-106.5C658.9,356.5,658.9,345.2,653.6,336z"/>
		<path class="st2" d="M561.1,521.4c3.2-2.7,4-7.3,1.9-11l-10.5-18.3c-2.1-3.7-6.5-5.3-10.4-3.8l-13.9,5.1c-2.7,1-5.7,0.5-8-1.2
			c-3.5-2.5-7.2-4.7-11.2-6.5c-2.6-1.2-4.5-3.6-5-6.4l-2.6-14.7c-0.7-4.2-4.3-7.2-8.5-7.2h-21c-4.2,0-7.8,3-8.5,7.2l-2.6,14.7
			c-0.5,2.9-2.4,5.2-5,6.4c-4,1.8-7.7,4-11.2,6.5c-2.3,1.7-5.4,2.2-8,1.2l-13.9-5.1c-3.9-1.4-8.3,0.2-10.4,3.8l-10.5,18.3
			c-2.1,3.7-1.3,8.3,1.9,11l11.3,9.6c2.2,1.9,3.3,4.7,3,7.6c-0.2,2.1-0.3,4.3-0.3,6.5c0,2.2,0.1,4.4,0.3,6.6c0.3,2.9-0.8,5.7-3,7.6
			l-11.4,9.6c-3.2,2.7-4,7.4-1.9,11l10.5,18.3c2.1,3.7,6.5,5.3,10.4,3.8l13.8-5.1c2.7-1,5.7-0.5,8.1,1.2c3.5,2.6,7.3,4.8,11.3,6.6
			c2.6,1.2,4.5,3.6,5,6.4l2.5,14.6c0.7,4.2,4.3,7.2,8.5,7.2h20.9c4.2,0,7.8-3,8.5-7.2l2.5-14.6c0.5-2.9,2.4-5.3,5-6.4
			c4-1.8,7.8-4,11.3-6.6c2.3-1.7,5.4-2.2,8.1-1.2l13.8,5.1c3.9,1.4,8.3-0.2,10.4-3.8l10.5-18.3c2.1-3.7,1.3-8.3-1.9-11l-11.3-9.6
			c-2.2-1.9-3.3-4.7-3-7.6c0.2-2.2,0.3-4.4,0.3-6.6c0-2.2-0.1-4.4-0.3-6.5c-0.3-2.9,0.8-5.7,3-7.6L561.1,521.4z M482.4,587.1
			c-24.2,0-43.9-19.9-43.9-44.3c0-17.1,9.6-31.9,23.7-39.3V543l20,7.9l20-7.9v-39.7c14.3,7.3,24,22.3,24,39.5
			C526.3,567.2,506.7,587.1,482.4,587.1z"/>
		<g>
			<path class="st5" d="M245.2,408.8H229c-2.1,0-3.7-1.7-3.7-3.7v-42.6c0-2.1,1.7-3.7,3.7-3.7h16.3c2.1,0,3.7,1.7,3.7,3.7v42.6
				C249,407.1,247.3,408.8,245.2,408.8z"/>
			<path class="st5" d="M311,408.8h-16.3c-2.1,0-3.7-1.7-3.7-3.7v-96.8c0-2.1,1.7-3.7,3.7-3.7H311c2.1,0,3.7,1.7,3.7,3.7v96.8
				C314.7,407.1,313,408.8,311,408.8z"/>
			<path class="st5" d="M376.7,408.8h-16.3c-2.1,0-3.7-1.7-3.7-3.7v-79c0-2.1,1.7-3.7,3.7-3.7h16.3c2.1,0,3.7,1.7,3.7,3.7v79
				C380.4,407.1,378.7,408.8,376.7,408.8z"/>
			<path class="st5" d="M442.4,408.8h-16.3c-2.1,0-3.7-1.7-3.7-3.7V266.5c0-2.1,1.7-3.7,3.7-3.7h16.3c2.1,0,3.7,1.7,3.7,3.7v138.6
				C446.1,407.1,444.4,408.8,442.4,408.8z"/>
			<path class="st5" d="M236.5,313.4l-12-7.1l53.6-90.2c1-1.7,3.3-2.3,5-1.3l80.3,45.7c1.7,1,3.8,0.5,4.9-1.1l56-81l11.4,7.9
				l-63.2,91.5c-1.1,1.6-3.2,2.1-4.9,1.1l-79.6-45.2c-1.8-1-4-0.4-5,1.3L236.5,313.4z"/>
			<path class="st5" d="M433,203.6l-24.8-16.4c-2.4-1.6-2.2-5.2,0.4-6.4l26.6-13.2c2.6-1.3,5.6,0.7,5.4,3.6l-1.8,29.7
				C438.6,203.6,435.4,205.2,433,203.6z"/>
		</g>
	</g>
</g>
</svg>
