<?xml version="1.0" encoding="utf-8"?>
<!-- Generator: Adobe Illustrator 19.2.1, SVG Export Plug-In . SVG Version: 6.00 Build 0)  -->
<svg version="1.1" id="图层_1" xmlns="http://www.w3.org/2000/svg" xmlns:xlink="http://www.w3.org/1999/xlink" x="0px" y="0px"
	 viewBox="0 0 800 800" style="enable-background:new 0 0 800 800;" xml:space="preserve">
<style type="text/css">
	.st0{display:none;}
	.st1{display:inline;}
	.st2{fill:#3371E3;}
	.st3{display:inline;fill:#3371E3;}
</style>
<g id="图层_20" class="st0">
	<g class="st1">
		<path class="st2" d="M396.4,154.6h-23c-0.8,0-1.4,0.6-1.4,1.4v1.9h25.8V156C397.9,155.2,397.2,154.6,396.4,154.6z M374.7,156.9
			c-0.3,0-0.6-0.3-0.6-0.6c0-0.3,0.3-0.6,0.6-0.6c0.3,0,0.6,0.3,0.6,0.6C375.2,156.7,375,156.9,374.7,156.9z M377.3,156.9
			c-0.3,0-0.6-0.3-0.6-0.6c0-0.3,0.3-0.6,0.6-0.6s0.6,0.3,0.6,0.6C377.9,156.7,377.6,156.9,377.3,156.9z"/>
		<path class="st2" d="M372,165.5h25.8v-7H372V165.5z M374.4,160.1h8.5c0.1,0,0.3,0.1,0.3,0.3s-0.1,0.3-0.3,0.3h-8.5
			c-0.1,0-0.3-0.1-0.3-0.3S374.3,160.1,374.4,160.1z M374.4,161.8h6.6c0.1,0,0.3,0.1,0.3,0.3s-0.1,0.3-0.3,0.3h-6.6
			c-0.1,0-0.3-0.1-0.3-0.3S374.3,161.8,374.4,161.8z M374.4,163.4h8.5c0.1,0,0.3,0.1,0.3,0.3s-0.1,0.3-0.3,0.3h-8.5
			c-0.1,0-0.3-0.1-0.3-0.3S374.3,163.4,374.4,163.4z"/>
		<path class="st2" d="M372,171.6c0,0.8,0.6,1.4,1.4,1.4h23c0.8,0,1.4-0.6,1.4-1.4V166H372V171.6z M386.6,167.3h8.5
			c0.1,0,0.3,0.1,0.3,0.3s-0.1,0.3-0.3,0.3h-8.5c-0.1,0-0.3-0.1-0.3-0.3S386.5,167.3,386.6,167.3z M386.6,169h6.6
			c0.1,0,0.3,0.1,0.3,0.3s-0.1,0.3-0.3,0.3h-6.6c-0.1,0-0.3-0.1-0.3-0.3S386.5,169,386.6,169z M386.6,170.7h8.5
			c0.1,0,0.3,0.1,0.3,0.3s-0.1,0.3-0.3,0.3h-8.5c-0.1,0-0.3-0.1-0.3-0.3S386.5,170.7,386.6,170.7z"/>
	</g>
</g>
<g id="图层_21" class="st0">
	<g class="st1">
		<path class="st2" d="M645.3,155.7c0-0.8-0.6-1.4-1.4-1.4h-23c-0.8,0-1.4,0.6-1.4,1.4v1.9h25.8L645.3,155.7L645.3,155.7z
			 M622.2,156.6c-0.3,0-0.6-0.3-0.6-0.6c0-0.3,0.3-0.6,0.6-0.6s0.6,0.3,0.6,0.6C622.7,156.4,622.5,156.6,622.2,156.6z M624.8,156.6
			c-0.3,0-0.6-0.3-0.6-0.6c0-0.3,0.3-0.6,0.6-0.6s0.6,0.3,0.6,0.6C625.3,156.4,625.1,156.6,624.8,156.6z"/>
		<path class="st2" d="M645.3,158.2h-25.8v7h25.8V158.2z M621.8,164C621.8,164.1,621.7,164.1,621.8,164l-0.6,0.1
			c-0.1,0-0.1-0.1-0.1-0.1v-1c0-0.1,0.1-0.1,0.1-0.1h0.5c0.1,0,0.1,0.1,0.1,0.1V164z M623.6,164C623.6,164.1,623.5,164.1,623.6,164
			l-0.6,0.1c-0.1,0-0.1-0.1-0.1-0.1v-1.7c0-0.1,0.1-0.1,0.1-0.1h0.5c0.1,0,0.1,0.1,0.1,0.1V164z M625.5,164
			C625.5,164.1,625.4,164.1,625.5,164l-0.6,0.1c-0.1,0-0.1-0.1-0.1-0.1v-2.8c0-0.1,0.1-0.1,0.1-0.1h0.5c0.1,0,0.1,0.1,0.1,0.1V164z
			 M627.3,164C627.3,164.1,627.2,164.1,627.3,164l-0.6,0.1c-0.1,0-0.1-0.1-0.1-0.1v-1c0-0.1,0.1-0.1,0.1-0.1h0.5
			c0.1,0,0.1,0.1,0.1,0.1V164z M629.2,164C629.2,164.1,629.1,164.1,629.2,164l-0.6,0.1c-0.1,0-0.1-0.1-0.1-0.1v-1.7
			c0-0.1,0.1-0.1,0.1-0.1h0.5c0.1,0,0.1,0.1,0.1,0.1V164z M631,164C631,164.1,630.9,164.1,631,164l-0.6,0.1c-0.1,0-0.1-0.1-0.1-0.1
			v-2.8c0-0.1,0.1-0.1,0.1-0.1h0.5c0.1,0,0.1,0.1,0.1,0.1V164z M631.2,159.5l-0.5,0.7h-0.1l-0.1-0.3l-2.8,1.2h-0.1l-2.4-1l-3.5,1.9
			c0,0,0,0-0.1,0s-0.1,0-0.1-0.1s0-0.2,0.1-0.2l3.6-1.9h0.1l2.4,1l2.7-1.1l-0.1-0.2c0-0.1,0-0.1,0.1-0.1l0.9,0.1
			C631.2,159.4,631.2,159.5,631.2,159.5z"/>
		<path class="st2" d="M619.5,171.3c0,0.8,0.6,1.4,1.4,1.4h23c0.8,0,1.4-0.6,1.4-1.4v-5.6h-25.8L619.5,171.3L619.5,171.3z
			 M634.5,167.2c0.4,0,0.7,0.3,0.7,0.7c0,0.1,0,0.2-0.1,0.3l1.5,1.3c0.1-0.1,0.3-0.2,0.4-0.2c0.2,0,0.4,0.1,0.6,0.3l1.7-0.9
			c0-0.1,0-0.1,0-0.2c0-0.4,0.3-0.7,0.7-0.7s0.7,0.3,0.7,0.7c0,0.1,0,0.2,0,0.2l1.3,0.8c0.1-0.1,0.3-0.2,0.4-0.2
			c0.3,0,0.6,0.3,0.6,0.6s-0.3,0.6-0.6,0.6s-0.6-0.3-0.6-0.6c0-0.1,0-0.1,0-0.2l-1.3-0.8c-0.1,0.1-0.3,0.2-0.5,0.2s-0.4-0.1-0.5-0.2
			l-1.7,0.9c0,0.1,0,0.1,0,0.2c0,0.4-0.3,0.7-0.7,0.7s-0.7-0.3-0.7-0.7c0-0.1,0-0.3,0.1-0.4l-1.5-1.3c-0.1,0.1-0.2,0.1-0.4,0.1
			c-0.4,0-0.7-0.3-0.7-0.7S634.2,167.2,634.5,167.2z"/>
	</g>
</g>
<g>
	<path class="st2" d="M730.9,196.3c0-27.2-20.8-48-48-48H117.1c-27.2,0-48,20.8-48,48v17.6h661.6 M730.8,229.7h-433V591h385.2
		c25.6,0,47.9-22.3,48-48 M357.6,340.1c0-24.2,19.7-43.9,43.9-43.9c24.2,0,43.9,19.7,43.9,43.9c0,7.4-1.9,14.5-5.2,20.7l18.2,13.4
		c3.2,2.4,3.8,6.8,1.5,10c-1.4,1.9-3.6,3-5.8,3c-1.5,0-3-0.5-4.2-1.4l-18.5-13.6c-7.8,7.3-18.4,11.8-29.9,11.8
		C377.4,383.9,357.6,364.3,357.6,340.1z M634.9,514.3H379.2c-4.5,0-7.9-3.6-7.9-7.9c0-4.3,3.6-7.9,7.9-7.9h255.7
		c4.5,0,7.9,3.6,7.9,7.9C642.8,510.7,639.3,514.3,634.9,514.3z M634.9,452H379.2c-4.5,0-7.9-3.6-7.9-7.9c0-4.3,3.6-7.9,7.9-7.9
		h255.7c4.5,0,7.9,3.6,7.9,7.9C642.8,448.4,639.3,452,634.9,452z M634.9,388H521.4c-4.5,0-7.9-3.6-7.9-7.9c0-4.3,3.6-7.9,7.9-7.9
		h113.5c4.5,0,7.9,3.6,7.9,7.9C642.8,384.4,639.3,388,634.9,388z M634.9,325.8H521.4c-4.5,0-7.9-3.6-7.9-7.9c0-4.3,3.6-7.9,7.9-7.9
		h113.5c4.5,0,7.9,3.6,7.9,7.9C642.8,322.2,639.3,325.8,634.9,325.8z"/>
	<path class="st2" d="M69.1,229.7V543c0,27.2,20.8,48,48,48h164.6V229.7H69.1z M226.2,451.7l-62.4,52.7c-1.5,1.2-3.2,1.9-5.2,1.9
		h-3.2c-2.5,0-4.7-1.1-6.2-3l-25.6-32c-2.7-3.5-2.2-8.4,1.2-11.3c3.5-2.7,8.4-2.2,11.3,1.2l21.7,27.2l58.1-49
		c3.3-2.9,8.4-2.5,11.3,1C229.9,443.7,229.5,448.8,226.2,451.7z M225.8,348.1h-83.7l17.6,18.5c3,3.2,2.9,8.3-0.2,11.3
		c-1.5,1.5-3.5,2.2-5.5,2.2c-2.1,0-4.2-0.9-5.8-2.5l-30.4-32c-0.1-0.1-0.1-0.1-0.1-0.2c-0.1-0.1-0.1-0.2-0.2-0.2
		c-0.1-0.1-0.1-0.2-0.2-0.4c-0.1-0.1-0.1-0.2-0.2-0.2c-0.1-0.1-0.1-0.2-0.2-0.4c0-0.1-0.1-0.2-0.1-0.4c-0.1-0.1-0.1-0.2-0.1-0.4
		c0-0.1-0.1-0.2-0.1-0.4c0-0.1-0.1-0.2-0.1-0.4c0-0.1-0.1-0.2-0.1-0.4c0-0.1-0.1-0.2-0.1-0.4c0-0.1,0-0.2-0.1-0.4
		c0-0.1,0-0.2-0.1-0.4c0-0.1,0-0.2,0-0.4c0-0.1,0-0.4,0-0.5s0-0.1,0-0.2l0,0c0-0.2,0-0.4,0-0.6c0-0.1,0-0.1,0-0.2
		c0-0.2,0-0.5,0.1-0.6c0-0.1,0-0.2,0.1-0.4c0-0.1,0.1-0.2,0.1-0.5c0-0.1,0.1-0.2,0.1-0.4c0-0.1,0.1-0.2,0.1-0.4
		c0-0.1,0.1-0.2,0.1-0.2c0.1-0.1,0.1-0.2,0.2-0.4c0-0.1,0.1-0.1,0.1-0.2c0.1-0.1,0.1-0.2,0.2-0.4c0-0.1,0.1-0.1,0.2-0.2
		c0.1-0.1,0.1-0.2,0.2-0.4c0.1-0.1,0.2-0.2,0.4-0.4c0,0,0.1-0.1,0.1-0.2l30.4-30.4c3.1-3.1,8.2-3.1,11.3,0c3.1,3.1,3.1,8.2,0,11.3
		l-16.7,16.7h83c4.5,0,7.9,3.6,7.9,7.9C233.8,344.4,230.2,348.1,225.8,348.1z"/>
	<path class="st2" d="M425.9,356.8c3.2-4.7,5.2-10.5,5.2-16.6c0-16.2-13.3-29.5-29.5-29.5c-16.2,0-29.5,13.3-29.5,29.5
		c0,16.2,13.3,29.5,29.5,29.5c8.8,0,16.7-4,22.2-10c0.2-0.5,0.5-1,0.7-1.4C425,357.6,425.4,357.1,425.9,356.8z"/>
	<path class="st2" d="M529.4,619.7H281.7c-9.6,0-16,6.5-16,16s6.5,16,16,16h247.7c9.6,0,16-6.5,16-16S539,619.7,529.4,619.7z"/>
</g>
</svg>
