<?xml version="1.0" encoding="utf-8"?>
<!-- Generator: Adobe Illustrator 19.2.1, SVG Export Plug-In . SVG Version: 6.00 Build 0)  -->
<svg version="1.1" id="图层_1" xmlns="http://www.w3.org/2000/svg" xmlns:xlink="http://www.w3.org/1999/xlink" x="0px" y="0px"
	 viewBox="0 0 800 800" style="enable-background:new 0 0 800 800;" xml:space="preserve">
<style type="text/css">
	.st0{display:none;}
	.st1{display:inline;}
	.st2{fill:#3371E3;}
	.st3{display:inline;fill:#3371E3;}
</style>
<g>
	<rect x="326.5" y="443" class="st2" width="32.2" height="25.7"/>
	<path class="st2" d="M184.5,370.6h23.3c1.3,0,4-1.3,4-4s-1.3-4-4-4h-23.3c-2.6,0-4,1.3-4,4C180.5,369.2,182,370.6,184.5,370.6z"/>
	<rect x="436.9" y="443" class="st2" width="32.2" height="25.7"/>
	<path class="st2" d="M184.5,420h23.3c1.3,0,4-1.3,4-4s-1.3-4-4-4h-23.3c-2.6,0-4,1.3-4,4C180.5,418.7,182,420,184.5,420z"/>
	<polygon class="st2" points="565.4,377 557.9,396 572.8,396 	"/>
	<path class="st2" d="M609.2,387c1.1-0.3,1.9-0.8,2.6-1.3c0.7-0.4,1.1-1.2,1.4-2.1c0.3-0.9,0.4-1.9,0.4-3.1
		c-0.1-1.3-0.3-2.6-0.9-3.6c-0.4-1.1-1.1-1.9-2-2.3c-0.9-0.4-2-0.8-3.2-0.8h-9v13.7h6.7C606.9,387.6,608.2,387.4,609.2,387z"/>
	<path class="st2" d="M542.3,427.2l1.1,0.1h112l1.1-0.1c12.8-1.1,22.8-13.7,22.8-28.5c0-14.8-10-27.3-22.8-28.5l-2.2-0.1h-3.6
		l0.3-3.4c0.1-1.1,0.1-2.1,0.1-3.2c0-18.4-15-33.4-33.4-33.4c-14.8,0-27.7,9.3-32,23.3l-2.3,7.4l-3.6-6.8
		c-3.6-6.7-10.4-10.9-18-10.9c-11.2,0-20.3,9.1-20.3,20.3c0,1.2,0.1,2.3,0.3,3.6l0.4,3l-3,0.8c-11.4,2.7-19.8,14.4-19.8,28
		C519.5,413.4,529.6,425.9,542.3,427.2z M632.1,367.5h6v46.7h-6V367.5z M592.7,367.5L592.7,367.5h14.2c1.8,0,3.4,0.2,5.2,0.7
		c1.8,0.4,3.1,1.2,4.2,2.4c1.1,1.2,1.9,2.4,2.3,3.8c0.4,1.3,0.9,2.6,1,3.6c0.1,1,0.2,2.1,0.2,3.1c0,2.2-0.3,4.2-1,5.7
		c-0.7,1.4-1.6,2.9-3,4.1c-1.3,1.2-3,2.1-4.7,2.6c-1.9,0.4-3.7,0.8-5.8,0.8h-6.7v20h-6v-46.8H592.7z M562.6,367.5h5.4l19.1,46.6
		h-6.9l-5.2-12.3h-18.7l-4.7,12.3H545L562.6,367.5z"/>
	<rect x="374.5" y="328.5" class="st2" width="47.8" height="41.2"/>
	<path class="st2" d="M729.7,196.9c0-27-20.8-47.8-47.8-47.8h-564c-27,0-47.8,20.8-47.8,47.8v17.4h659.7V196.9z"/>
	<path class="st2" d="M184.5,468.1h23.3c1.3,0,4-1.3,4-4s-1.3-4-4-4h-23.3c-2.6,0-4,1.3-4,4C180.5,466.6,182,468.1,184.5,468.1z"/>
	<path class="st2" d="M70.3,542.6c0,27,20.8,47.8,47.8,47.8h563.9c27.2,0,47.9-22.3,47.9-47.8V230.2H70.3V542.6z M673.2,475.1H525.6
		c-2.2,0-4-1.8-4-4s1.8-4,4-4h147.5c2.2,0,4,1.8,4,4S675.2,475.1,673.2,475.1z M533.3,364c0-0.2,0-0.4,0-0.8
		c0-15.7,12.8-28.4,28.4-28.4c7.6,0,14.6,3,19.8,8c7.3-13,20.9-21.1,36.2-21.1c22.4,0,40.9,18.1,41.6,40.5
		c15.8,2.6,27.9,18.1,27.9,36.3c0,18.9-13.2,35-30,36.5l-1.1,0.1h-0.3h-0.3H543.2h-0.4h-0.3l-1.1-0.1c-16.7-1.6-29.9-17.7-29.9-36.5
		C511.4,383,520.6,369.1,533.3,364z M318.5,442.9c-0.1-2,0.7-4,2.1-5.4c1.4-1.6,3.6-2.4,5.8-2.4H338v-25.9c0-4.3,3.4-7.8,7.8-7.8
		H394v-23.4h-19.5c-4.3,0-7.8-3.4-7.8-7.8v-41.7c0-4.3,3.4-7.8,7.8-7.8h48.2c4.3,0,7.8,3.4,7.8,7.8V370c0,4.3-3.4,7.8-7.8,7.8h-20.8
		v23.4h46.6c4.3,0,7.8,3.4,7.8,7.8V435h13.1c4.3,0,7.8,3.4,7.8,7.8v26.1c0,4.3-3.4,7.8-7.8,7.8h-32.5c-4.3,0-7.8-3.4-7.8-7.8v-26.1
		c0-4.3,3.4-7.8,7.8-7.8h11.7v-25.7H346V435H359c4.3,0,7.8,3.4,7.8,7.8v26.1c0,4.3-3.4,7.8-7.8,7.8h-32.5c-4.3,0-7.8-3.4-7.8-7.8
		v-25.9H318.5z M196.2,317.3c52.1,0,70.3,5.2,71.5,9.1c0,1.2-4,5.2-19.5,7.8c-13,2.6-32.4,4-52,4s-37.7-1.3-52-4
		c-15.5-3.8-19.5-6.4-19.5-7.8C126,323.8,144.1,317.3,196.2,317.3z M120.7,339.4c0,9,33.9,15.5,75.4,15.5s75.4-7.8,75.4-15.5V368
		c0,2.6-2.6,4-6.6,6.6c-11.8,5.2-37.7,9.1-68.9,9.1s-57.2-4-68.9-9.1c-4-2.6-6.6-4-6.6-6.6v-28.6H120.7z M120.7,387.6
		c0,9,33.9,15.5,75.4,15.5s75.4-7.8,75.4-15.5v28.7c0,2.6-2.6,4-6.6,6.6c-11.8,5.2-37.7,9.1-68.9,9.1s-57.2-4-68.9-9.1
		c-4-2.6-6.6-4-6.6-6.6v-28.7H120.7z M120.7,435.7c0,9,33.9,15.5,75.4,15.5s75.4-6.6,75.4-15.7v28.8c0,9-33.9,15.5-75.4,15.5
		s-75.4-6.4-75.4-15.5L120.7,435.7L120.7,435.7z"/>
	<path class="st2" d="M522.5,619H275.6c-9.5,0-15.9,6.4-15.9,15.9c0,9.5,6.4,15.9,15.9,15.9h246.9c8,0,15.9-6.4,15.9-15.9
		C538.6,625.6,532.1,619,522.5,619z"/>
</g>
</svg>
