<?xml version="1.0" encoding="utf-8"?>
<!-- Generator: Adobe Illustrator 19.2.1, SVG Export Plug-In . SVG Version: 6.00 Build 0)  -->
<svg version="1.1" id="图层_1" xmlns="http://www.w3.org/2000/svg" xmlns:xlink="http://www.w3.org/1999/xlink" x="0px" y="0px"
	 viewBox="0 0 728.3 728.3" style="enable-background:new 0 0 728.3 728.3;" xml:space="preserve">
<style type="text/css">
	.st0{display:none;}
	.st1{display:inline;}
	.st2{fill:#3371E3;}
	.st3{display:inline;fill:#3371E3;}
</style>
<g id="图层_1_1_" class="st0">
	<g class="st1">
		<g>
			<path class="st2" d="M4.1,380.3c0.7-6.3,1.4-12.5,2.3-18.8c3.3-24.1,9.3-47.4,19.6-69.4c1.5-3.2,2.5-7.1,7.3-6.8
				c4.6,0.4,4.9,4.3,6.1,7.5c4.5,12.2,9,24.4,13.5,36.5c30.8-26.7,61.2-53.1,91.6-79.4c-4.4-0.6-9.3-1.1-14.1-1.9
				c-11.3-1.9-22.6-3.8-33.8-6c-2-0.4-4.3-2.1-5.3-3.9c-1.3-2.3,0.1-4.7,2.1-6.6c20.8-20.3,43.7-37.8,67.9-53.7
				c48.2-31.6,99.5-57.2,153.1-78.1c2.6-1,5.9-1.2,8.6-0.6c32.6,7.5,65.2,15.5,97.9,22.7c7,1.6,14.6,0.9,21.9,1.2
				c60.9,2.7,113.7,24.4,157.4,67.2c40.9,40.5,67.6,89.4,82.9,144.7c0.2,0.6,0.3,1.2,0.5,1.8c1.3,5.8,0.6,7.1-5.1,9.5
				c-0.2,3.6-0.5,7.3-0.7,11c-0.3,3.6-0.6,7.2-0.9,11.1c3.4,1.2,6.9,2.4,10.4,3.7c13.4,5.4,25.2,12.9,31.7,26.4
				c8.1,16.9,6.9,33.1-5.3,47.8c-3.8,4.6-7.9,9-12.2,13.1C689.2,471,684,485.5,682.9,502c-0.6,8.8-3.3,17-7.3,24.9
				c-6.4,12.5-17,16.4-30.1,15.4c-11.3-0.8-21.9-4.3-32.3-8.8c-1.2-0.5-2.5-1.1-3.9-1.7c-1.9,3-3.7,5.8-5.8,9
				c1.8,0.1,3.1,0.4,4.4,0.3c3-0.1,5.5,0.8,6.5,3.8c1.1,3.3-0.5,5.5-3.1,7.3c-16.3,11.2-32.3,22.9-49.1,33.5
				c-25.2,15.9-52,28.4-81,35.7c-14.8,3.7-29.8,5.9-45,6.6c-1.1,0-2.1,0.4-3.2,0.6c-8,0-16,0-23.9,0c-1.1-0.2-2.1-0.6-3.2-0.6
				c-24.4-0.8-48.3-4.8-71.7-11.7c-65.4-19.2-121.3-54.4-170-101.3C119,471.5,83.9,420.7,56.8,364.2c-2.3-4.9-4.6-9.8-6.6-14
				c-11.4,11.1-22.9,22-34.1,33.1c-5,5-8.5,4.7-11.7-1.7C4.1,381.3,4.1,380.8,4.1,380.3z M587.6,519.4c-1.6-1.2-2.6-1.9-3.6-2.7
				c-10.9-8-21-16.9-29.2-27.7c-9.2-12-16.3-25-16.3-40.5c0-23.3,9-42.9,26.4-58.4c22-19.6,48.4-26.8,77.3-26.4c2.5,0,5.1,0,8,0
				c-0.5-1.1-0.7-1.8-1-2.4c-3.2-6.7-3.2-6.7-10.6-5.1c-49.9,10.7-99.9,11.2-149.8,0.4c-8-1.7-16-3.6-24.1-5.5
				c-0.1,1.1-0.3,2.1-0.3,3.1c0.3,14.4-0.2,28.9,1,43.3c2.1,24.8,8.7,48.5,20.8,70.4c16.4,29.8,40.3,51.3,72.2,63.5
				c1.4,0.5,3.4,1.1,4.6,0.5C571,527.9,579,523.8,587.6,519.4z M216.3,424.6c-1.5,8.2-3.1,16.2-4.4,24.3c-0.7,4.8,2.2,7.5,6.9,6.5
				c10.9-2.4,21.9-4.6,32.7-7.6c43.4-12.1,84.2-30.4,123.8-51.5c9.4-5,18.7-10.4,28-15.8c4.8-2.8,4.5-7.5-0.3-10.1
				c-0.9-0.5-1.8-0.9-2.7-1.3c-21.8-10.4-43.6-20.8-65.4-31.1c-17.5-8.3-35.1-16.6-52.6-25c-2.6-1.2-5.1-1.8-7.2,0.5
				c-4.5,5-8.8,10.1-13.3,15.4c15.7,11.1,31.4,20.6,49.9,24.2c5,1,7.2,3.3,6.6,6.8c-0.6,3.6-3.5,5-8.5,4.2
				c-10.8-1.9-20.9-5.8-30.4-11c-8.1-4.5-16-9.5-24.5-14.6c-5.4,9.1-10.9,18.3-16.5,27.8c1.5,0.5,2.1,0.7,2.7,0.8
				c17.9,3.6,35.8,7.2,53.8,10.8c4.1,0.8,6.4,3,6,6.2c-0.4,3.4-3.3,5.4-7.5,4.8c-6.7-0.9-13.4-1.6-19.9-3
				c-13.3-2.7-26.5-5.8-40.5-8.9c-4.4,11.7-9,23.8-13.8,36.4c21.7,0.2,42-1.4,61.9-6.3c4.5-1.1,7.4,0.1,8.4,3.7
				c0.9,3.4-1.1,5.9-5.7,7.1C261.9,423.5,239.6,424.8,216.3,424.6z M521.7,319.4c24.1,0.1,44.2-19.9,44.2-43.9
				c0.1-24.4-19.5-44.3-43.9-44.6c-24-0.3-44.3,19.8-44.4,44.1C477.5,299.3,497.3,319.3,521.7,319.4z M711.8,424.6
				c1.9-5.3,1.5-6.5-2.8-8.9c-20.1-11.2-41.6-16.7-64.5-15.4c-37.9,2.1-68.4,18.3-91.9,48.2c-3.2,4.1-2.4,7.6-0.6,12
				c17.6-26.8,41.5-44.2,72.5-51.1C655.5,402.4,684.7,407.9,711.8,424.6z M581,499.8c7.8-21.8,21.8-37.3,43.3-45.4
				c21.4-8.1,42.2-5.6,62,5.2c1.5-1.8,2.7-3.2,3.9-4.7c-1.6-0.9-2.8-1.7-4.1-2.4c-39.8-21.3-90-3.8-108.1,37.7
				C575.6,495.8,575.6,495.8,581,499.8z"/>
			<path class="st2" d="M555.1,276.3c-1.3,19.6-16.6,33.4-35.8,32.2c-18.2-1.1-32.3-17.5-31-35.9c1.4-18.5,17.4-31.9,36.5-30.6
				C542,243.1,556.2,259.2,555.1,276.3z M506.8,275.3c0.1,10.3,9,18.9,19.7,18.8c10.8,0,20.1-9,19.9-19.2
				c-0.2-10.2-9.2-18.8-19.9-18.8C515.6,256.2,506.7,264.8,506.8,275.3z"/>
			<path class="st2" d="M539.2,268.1c0,4-3,7.1-7,7.1c-3.9,0-7.2-3.1-7.3-7c-0.1-4,3.3-7.5,7.3-7.4
				C536.1,260.9,539.2,264.1,539.2,268.1z"/>
		</g>
	</g>
</g>
<g id="图层_2" class="st0">
	<g class="st1">
		<path class="st2" d="M580.7,53.6H320.3c-12.3,0-22.3,9.9-22.3,22.1v575.7c0,12.2,10,22.1,22.3,22.1h260.4
			c30.2,0,54.6-24.3,54.6-54.3V108C635.4,78,610.9,53.6,580.7,53.6z M582.9,351.8H357.3c-5,0-9-5.1-9-11.5c0-6.4,4.1-11.5,9-11.5
			h225.6c5,0,9,5.1,9,11.5C591.9,346.7,587.9,351.8,582.9,351.8z M582.9,425.9H357.3c-5,0-9-5.1-9-11.5c0-6.4,4.1-11.5,9-11.5h225.6
			c5,0,9,5.1,9,11.5C591.9,420.8,587.9,425.9,582.9,425.9z M582.9,500H357.3c-5,0-9-5.1-9-11.5c0-6.4,4.1-11.5,9-11.5h225.6
			c5,0,9,5.1,9,11.5C591.9,494.9,587.9,500,582.9,500z M582.9,574.1H357.3c-5,0-9-5.1-9-11.5s4.1-11.5,9-11.5h225.6
			c5,0,9,5.1,9,11.5C591.9,569,587.9,574.1,582.9,574.1z M578.4,207.6c0,20.3-16.6,36.7-36.9,36.7H398.7
			c-20.4,0-36.9-16.5-36.9-36.7v-43.9c0-20.3,16.6-36.7,36.9-36.7h142.7c20.4,0,36.9,16.5,36.9,36.7L578.4,207.6L578.4,207.6z"/>
		<path class="st2" d="M231.5,53.6h-53.1c-29.5,0-53.5,23.8-53.5,53.2v9.7v3.9h38.5c24.7,0,44.8,20,44.8,44.5s-20.1,44.5-44.8,44.5
			H125v3.9v38.1h38.5c24.7,0,44.8,20,44.8,44.5s-20.1,44.7-44.7,44.7H125v42h38.5c24.7,0,44.8,20,44.8,44.5s-20.1,44.5-44.8,44.5
			H125v42h38.5c24.7,0,44.8,20,44.8,44.5c0,24.5-20.1,44.5-44.8,44.5H125v18.1c0,29.4,23.9,53.2,53.5,53.2h53.1
			c11.6,0,21-9.4,21-20.9V74.6C252.6,63,243.1,53.6,231.5,53.6z"/>
		<path class="st2" d="M112.5,315.4H125h38.5c10.8,0,19.6-8.7,19.6-19.5c0-10.8-8.8-19.5-19.6-19.5H125h-12.5
			c-10.8,0-19.6,8.7-19.6,19.5C92.9,306.7,101.7,315.4,112.5,315.4z"/>
		<path class="st2" d="M112.5,184.4H125h38.5c10.8,0,19.6-8.7,19.6-19.5s-8.8-19.5-19.6-19.5H125h-12.5c-10.8,0-19.6,8.7-19.6,19.5
			S101.7,184.4,112.5,184.4z"/>
		<path class="st2" d="M163.5,577.3c10.8,0,19.6-8.7,19.6-19.5c0-10.8-8.8-19.5-19.6-19.5H125h-12.5c-10.8,0-19.6,8.7-19.6,19.5
			c0,10.8,8.8,19.5,19.6,19.5H125H163.5z"/>
		<path class="st2" d="M112.5,446.4H125h38.5c10.8,0,19.6-8.7,19.6-19.5s-8.8-19.5-19.6-19.5H125h-12.5c-10.8,0-19.6,8.7-19.6,19.5
			S101.7,446.4,112.5,446.4z"/>
	</g>
</g>
<g id="图层_3" class="st0">
	<g class="st1">
		<path class="st2" d="M202.2,495.4H92.8c-7.5,0-14.1,4.1-16.7,10.2l-40.9,97c-4.3,10.2,4.3,21,16.7,21h109.4
			c7.5,0,14.1-4.1,16.7-10.2l40.9-97.1C223.2,506.2,214.6,495.4,202.2,495.4z"/>
		<path class="st2" d="M439.3,495.4H329.9c-7.5,0-14.1,4.1-16.7,10.2l-41,97c-4.3,10.2,4.3,21,16.7,21h109.4
			c7.5,0,14.1-4.1,16.7-10.2l40.9-97.1C460.2,506.2,451.6,495.4,439.3,495.4z"/>
		<path class="st2" d="M676.3,495.4H566.9c-7.5,0-14.1,4.1-16.7,10.2l-40.9,97c-4.3,10.2,4.3,21,16.7,21h109.4
			c7.5,0,14.1-4.1,16.7-10.2l40.9-97.1C697.3,506.2,688.7,495.4,676.3,495.4z"/>
		<path class="st2" d="M154.4,462.1L154.4,462.1c9.1,0,16.4-7.5,16.4-16.6l-0.1-25.8c0-3.4,8.2-10,21-10l172-1.2l0.1,33.3
			c0,9.1,7.4,16.5,16.4,16.5c0,0,0,0,0.1,0c9,0,16.3-7.5,16.3-16.6l-0.1-33.3l172.1-1.2c10.1-0.1,16,3.2,19.1,6.3
			c0.7,0.7,1.9,2.1,1.9,3.3l0.1,25.8c0,9.1,7.4,16.5,16.4,16.5l0,0c9,0,16.3-7.4,16.3-16.6l-0.1-25.8c0-9.8-4.2-19.3-11.6-26.7
			c-10.2-10.2-25.2-15.8-42.3-15.8l-172,1.2l-0.1-31c0-9.1-7.4-16.5-16.4-16.5c0,0,0,0-0.1,0c-9,0-16.3,7.5-16.3,16.6l0.1,31.1
			l-172.1,1.2c-30.1,0.2-53.6,19.2-53.6,43.2l0.1,25.8C138,454.8,145.3,462.1,154.4,462.1z"/>
		<path class="st2" d="M227.7,282.3h273.7c10.3,0,19.4-5.3,22.5-13.1l56.6-140.9c4.9-12.2-6.5-24.6-22.5-24.6H284.2
			c-10.3,0-19.4,5.3-22.5,13.1l-56.5,140.8C200.3,269.8,211.7,282.3,227.7,282.3z M462.3,170.9c12.1,0,21.8,9.9,21.8,22
			c0,12.2-9.8,22-21.8,22s-21.8-9.9-21.8-22C440.5,180.8,450.3,170.9,462.3,170.9z M386.6,170.9c12.1,0,21.8,9.9,21.8,22
			c0,12.2-9.8,22-21.8,22s-21.8-9.9-21.8-22S374.6,170.9,386.6,170.9z M310.9,170.9c12.1,0,21.8,9.9,21.8,22c0,12.2-9.8,22-21.8,22
			s-21.8-9.9-21.8-22S298.9,170.9,310.9,170.9z"/>
	</g>
</g>
<g id="图层_4" class="st0">
	<g class="st1">
		<path class="st2" d="M574.7,232.5c0-45.3-37.7-82.1-84.3-82.1s-84.3,36.7-84.3,82.1c0,28.5,15,53.6,37.6,68.3h-135v142.3
			c-15-22.5-41-37.3-70.6-37.3c-46.6,0-84.3,36.7-84.3,82.1s37.7,82.1,84.3,82.1c29.6,0,55.6-14.9,70.6-37.3v131h370.4V532.6
			c-15,22.5-41,37.3-70.6,37.3c-46.5,0-84.3-36.7-84.3-82.1s37.7-82.1,84.3-82.1c29.6,0,55.6,14.9,70.6,37.3V300.8h-142
			C559.8,286.1,574.7,261,574.7,232.5z M418,587.8c-9.7,9.7-25.3,9.7-35,0s-9.7-25.4,0-35c9.7-9.7,25.3-9.7,35,0
			C427.6,562.4,427.6,578.1,418,587.8z M418,509.9c-9.7,9.7-25.3,9.7-35,0s-9.7-25.4,0-35c9.7-9.7,25.3-9.7,35,0
			C427.6,484.6,427.6,500.3,418,509.9z M418,423c-9.7,9.7-25.3,9.7-35,0s-9.7-25.4,0-35c9.7-9.7,25.3-9.7,35,0
			C427.6,397.6,427.6,413.3,418,423z"/>
		<path class="st2" d="M574.7,232.5c0-45.3-37.7-82.1-84.3-82.1s-84.3,36.7-84.3,82.1c0,28.5,15,53.6,37.6,68.3h-135v142.3
			c-15-22.5-41-37.3-70.6-37.3c-46.6,0-84.3,36.7-84.3,82.1s37.7,82.1,84.3,82.1c29.6,0,55.6-14.9,70.6-37.3v131h370.4V532.6
			c-15,22.5-41,37.3-70.6,37.3c-46.5,0-84.3-36.7-84.3-82.1s37.7-82.1,84.3-82.1c29.6,0,55.6,14.9,70.6,37.3V300.8h-142
			C559.8,286.1,574.7,261,574.7,232.5z M418,587.8c-9.7,9.7-25.3,9.7-35,0s-9.7-25.4,0-35c9.7-9.7,25.3-9.7,35,0
			C427.6,562.4,427.6,578.1,418,587.8z M418,509.9c-9.7,9.7-25.3,9.7-35,0s-9.7-25.4,0-35c9.7-9.7,25.3-9.7,35,0
			C427.6,484.6,427.6,500.3,418,509.9z M418,423c-9.7,9.7-25.3,9.7-35,0s-9.7-25.4,0-35c9.7-9.7,25.3-9.7,35,0
			C427.6,397.6,427.6,413.3,418,423z"/>
		<path class="st2" d="M114.5,389.4c23,0,43.2-11.6,54.8-29v25.3c16.8-16.2,39.8-26.2,65.1-26.2c14,0,27.6,3.1,39.8,8.7v-98.8h91.9
			c-5.4-11.7-8.4-24.5-8.4-37.8c0-19,6-36.6,16.1-51.2h-27.3c17.6-11.4,29.2-30.9,29.2-53.1c0-35.2-29.3-63.7-65.4-63.7
			s-65.4,28.5-65.4,63.7c0,22.2,11.6,41.6,29.2,53.1H169.4v110.5c-11.7-17.4-31.9-29-54.8-29c-36.2,0-65.4,28.5-65.4,63.7
			S78.4,389.4,114.5,389.4z"/>
		<path class="st2" d="M114.5,389.4c23,0,43.2-11.6,54.8-29v25.3c16.8-16.2,39.8-26.2,65.1-26.2c14,0,27.6,3.1,39.8,8.7v-98.8h91.9
			c-5.4-11.7-8.4-24.5-8.4-37.8c0-19,6-36.6,16.1-51.2h-27.3c17.6-11.4,29.2-30.9,29.2-53.1c0-35.2-29.3-63.7-65.4-63.7
			s-65.4,28.5-65.4,63.7c0,22.2,11.6,41.6,29.2,53.1H169.4v110.5c-11.7-17.4-31.9-29-54.8-29c-36.2,0-65.4,28.5-65.4,63.7
			S78.4,389.4,114.5,389.4z"/>
	</g>
</g>
<g id="图层_5">
	<g>
		<path class="st2" d="M672.3,345.3l-43.9-22.4l-79.9,40.7l-163.8,83.5c-12.8,6.5-28.4,6.5-41.3,0l-163.7-83.5l-79.9-40.7
			l-43.9,22.4c-15.7,8-15.7,28.7,0,36.7l43.9,22.4l243.7,124.2c12.8,6.5,28.4,6.5,41.3,0l243.7-124.2l43.9-22.4
			C688,373.9,688,353.3,672.3,345.3z"/>
		<path class="st2" d="M672.3,475.5l-43.9-22.4L384.7,577.3c-12.8,6.5-28.4,6.5-41.3,0L99.8,453.1l-43.9,22.4
			c-15.7,8-15.7,28.7,0,36.7l287.6,146.5c12.8,6.5,28.4,6.5,41.3,0l287.6-146.5C688,504.1,688,483.5,672.3,475.5z"/>
		<path class="st2" d="M55.9,251.7l287.6,146.5c12.8,6.5,28.4,6.5,41.3,0l287.6-146.5c15.7-8,15.7-28.7,0-36.7L384.7,68.5
			c-12.8-6.5-28.4-6.5-41.3,0L55.9,215C40.2,223.1,40.2,243.7,55.9,251.7z M230.8,231.6c9.4-4.8,21.1-4.8,30.5,0l94.1,47.9
			c5.4,2.8,12.1,2.8,17.4,0l94.1-47.9c9.6-4.9,21-4.9,30.5,0l34.8,17.8l-135.6,69.1c-10,5.1-21.3,7.8-32.6,7.8
			c-11.3,0-22.6-2.7-32.5-7.8l-135.6-69.1L230.8,231.6z"/>
	</g>
</g>
<g id="图层_6" class="st0">
	<g class="st1">
		<path class="st2" d="M370.3,49.5c-4-1.2-8.3-1.2-12.3,0l-43,12.3l-199.6,57.3c-9.6,2.8-16.2,11.6-16.2,21.6v163.7
			c0,153.2,86.7,292.7,222.4,360.7c5.7,2.8,11.4,5.6,17.2,8.2c8.1,3.6,16.8,5.4,25.5,5.4s17.4-1.8,25.5-5.4l0,0
			c5.8-2.6,11.5-5.3,17.2-8.2C542.4,597,629.1,457.5,629.1,304.3V140.7c0-10-6.6-18.8-16.2-21.6L413.3,61.8L370.3,49.5z M571,169.8
			v19.5v118.3c0,14.2-1,28.8-2.8,43.4c-14.8,114.3-88.9,215.2-193.3,263.3l-10.8,5l-10.8-5C248.9,566.2,174.8,465.3,160,351
			c-1.9-14.6-2.9-29.2-2.9-43.5V189.3v-19.5l18.7-5.4l181.1-52l7.1-2l7.1,2l181.1,52L571,169.8z"/>
		<path class="st2" d="M358,150.2l-149.9,43c-9.6,2.8-16.2,11.6-16.2,21.6v45.1l172.2-49.4l172.2,49.4v-45.1
			c0-10-6.6-18.8-16.2-21.6l-149.9-43C366.2,149.1,362,149.1,358,150.2z"/>
		<path class="st2" d="M191.9,292.2v18.1c0,12.4,0.8,25.3,2.5,38.1c0.1,0.8,0.4,1.7,0.5,2.5l163-46.8c4-1.2,8.3-1.2,12.3,0l163,46.8
			c0.1-0.9,0.4-1.7,0.5-2.5c1.6-12.8,2.5-25.6,2.5-38.1v-18.1l-166-47.6c-4-1.2-8.3-1.2-12.3,0L191.9,292.2z"/>
		<path class="st2" d="M200.9,381.5c20.7,82.9,76.6,154.1,152.9,193c6.4,3.3,14.2,3.3,20.6,0c76.3-38.9,132.2-110.1,152.9-193
			l-157-45.1c-4-1.2-8.3-1.2-12.3,0L200.9,381.5z"/>
	</g>
</g>
<g id="图层_7" class="st0">
	<path class="st3" d="M603.3,277.1c52-4.1,89.6-48.5,85.5-100.9s-48.2-90.3-100.2-86.1c-52,4.1-89.6,48.5-85.5,100.9
		c1.8,22.4,10.6,40.6,23,54.6l-30.8,36.3c-27.8-20.4-62.3-32.7-99.5-29.7c-37.1,3-69.4,20.6-93.6,45.1L261,262.8
		c14.1-20.1,22.4-44.5,22.4-71c0-68-54.7-123.1-122.2-123.1S39.1,123.8,39.1,191.8s54.7,123.1,122.2,123.1
		c27.9,0,53.5-9.5,74.1-25.4l43,36c-16.5,27.7-25.3,58.5-22.7,92.2c1.6,19.9,7.3,38,15.7,54.7l-30.1,20.5
		c-13.2-10.2-27.1-16.8-45.4-20.3c-51.2-10-99.2,22.7-109.1,74.3s22.6,100,73.8,109.9c51.2,10,99.2-22.7,109.1-74.3
		c4.2-22.1,0.5-42-7.7-58.8l29.5-20.1c0.4,0.5,0.7,1,1.1,1.5l28.1,24.1c27.8,20.4,62.3,32.7,99.5,29.7c37.1-3,69.4-20.6,93.6-45.1
		l34.2,29.4c-3.7,8.1-6,17-6,26.5c0,34.6,27.7,62.7,61.9,62.7s61.9-28.1,61.9-62.7c0-34.6-27.7-62.7-61.9-62.7
		c-12.3,0-23.8,3.8-33.4,10.1l-32.4-27.9c16.5-27.7,25.3-58.5,22.7-92.2s-16.1-62.7-36.7-87.4l30.8-36.3
		C569.6,276,584.7,278.6,603.3,277.1z M236.6,576.2c-6.4,33.2-36.9,54-69.8,47.6s-53.6-37.2-47.2-70.4s36.9-54,69.8-47.6
		C222.3,512.2,243,543,236.6,576.2z M416.4,514.1c-59.4,4.7-111.5-40.1-116.2-99.9c-4.7-59.9,39.8-112.3,99.2-117.1
		c59.4-4.7,111.5,40.1,116.2,99.9C520.3,456.9,475.8,509.4,416.4,514.1z M591.3,123.7c33.4-2.7,61.5,21.5,64.1,55.1
		c2.6,33.7-21.3,61.9-54.7,64.6s-61.5-21.5-64.1-55.1C533.9,154.6,557.9,126.3,591.3,123.7z"/>
</g>
<g id="图层_8" class="st0">
	<g class="st1">
		<path class="st2" d="M593.6,334.1c-17,0-30.9,15.4-30.9,34.5v109.7h-40.6V368.6c0-19-13.8-34.5-30.9-34.5
			c-17,0-30.9,15.4-30.9,34.5v109.7h-40.6V368.6c0-19-13.8-34.5-30.9-34.5c-15.7,0-28.5,13.1-30.4,30v114.2h-40.6V190.8
			c0-19-13.8-34.5-30.9-34.5c-17,0-30.9,15.4-30.9,34.5v325.1c-0.1,9.9-5.5,18.8-13.7,22.7c-8.2,3.8-17.6,1.9-24.1-5l-50.3-55.8
			c-14.8-15.8-38-15.8-52.8,0c-14.6,16.3-14.6,42.7,0,59l152.6,170.5c3.7,4,8.6,6.3,13.8,6.3h322.7c5.3,0,10.3-2.3,14.1-6.5
			c3.7-4.2,5.8-9.8,5.8-15.7V570.9V368.6C624.5,349.6,610.7,334.1,593.6,334.1z"/>
		<path class="st2" d="M192.9,315.4v-55.1c-31.3-36.8-38.6-88.9-18.6-133.2c19.9-44.3,63.4-72.6,111.2-72.3
			c45.4-0.6,87.4,24.7,109,65.5c21.5,40.9,19,90.6-6.5,129v58.1c53.9-43.9,74.5-117.9,51.4-184.2c-23.2-66.3-85-110.3-153.9-109.5
			c-70.9,0-133.6,47.1-154.7,116.2C109.5,199,134.7,274.1,192.9,315.4z"/>
	</g>
</g>
<g id="图层_9" class="st0">
	<g class="st1">
		<path class="st2" d="M403.3,156c-25.1-48.2-67.4-85.2-120.1-97.5c-87.6-20.3-167.9,25.3-205.8,99.1
			c-10.7,20.6-17.5,43.6-20.7,67.9h368.8C421.7,200.9,414.4,177.4,403.3,156z"/>
		<path class="st2" d="M403.3,156c-25.1-48.2-67.4-85.2-120.1-97.5c-87.6-20.3-167.9,25.3-205.8,99.1
			c-10.7,20.6-17.5,43.6-20.7,67.9h368.8C421.7,200.9,414.4,177.4,403.3,156z"/>
		<path class="st2" d="M403.3,156c-25.1-48.2-67.4-85.2-120.1-97.5c-87.6-20.3-167.9,25.3-205.8,99.1
			c-10.7,20.6-17.5,43.6-20.7,67.9h368.8C421.7,200.9,414.4,177.4,403.3,156z"/>
		<path class="st2" d="M319.1,559.4c24,54,68.9,96.1,125.7,109.4c92.2,21.5,176.5-30.2,211.6-110.9c7-16.1,11.5-33.5,14.2-51.6
			H303.6C306.7,524.7,311.7,542.7,319.1,559.4z"/>
		<path class="st2" d="M319.1,559.4c24,54,68.9,96.1,125.7,109.4c92.2,21.5,176.5-30.2,211.6-110.9c7-16.1,11.5-33.5,14.2-51.6
			H303.6C306.7,524.7,311.7,542.7,319.1,559.4z"/>
		<path class="st2" d="M319.1,559.4c24,54,68.9,96.1,125.7,109.4c92.2,21.5,176.5-30.2,211.6-110.9c7-16.1,11.5-33.5,14.2-51.6
			H303.6C306.7,524.7,311.7,542.7,319.1,559.4z"/>
		<g>
			<path class="st2" d="M299.3,479.9h129.5V251.7H299.3V479.9z M335.4,382.3h15.2v-84.9v-2.4v-2.4c0-4.1,3.3-7.4,7.4-7.4h12.2
				c4.1,0,7.4,3.3,7.4,7.4v2.4v2.4v84.9h15.2c3.6,0,5.8,3.9,4,7l-28.7,50.1c-1.7,3.1-6.2,3.1-8,0l-28.7-50.1
				C329.7,386.2,331.8,382.3,335.4,382.3z"/>
			<path class="st2" d="M54.1,466.9c0,12.1,9.8,21.9,21.9,21.9h93.4c12.1,0,21.9-9.8,21.9-21.9V251.7H54.1V466.9z M90.1,388.1
				c-0.2-0.9-0.2-1.6,0-2.4c0.2-0.9,0.5-1.3,1.1-1.9c0.6-0.6,1.3-1,2-1.2c0.2,0,0.3-0.3,0.6-0.3h0.6h15.3v-84.9v-2.4v-2.4v-7.4h7.4
				l0,0h12.2l0,0h7.4v7.4v2.4v2.4v84.9h15.2h0.6c0.2,0,0.3,0.3,0.6,0.3c0.9,0.2,1.5,0.6,2,1.2c0.6,0.6,0.9,1.1,1.1,1.9
				c0.2,0.8,0.2,1.5,0,2.4c-0.1,0.2,0.1,0.4,0,0.6l-0.3,0.5l0,0l-14.3,25l-14.6,25.7c-1.6,2.9-5.7,2.9-7.4,0l-0.3-0.5l-28.7-50.1
				l0,0l-0.3-0.5C90,388.5,90.2,388.3,90.1,388.1z"/>
			<path class="st2" d="M653.5,239.1h-87.7c-11.3,0-20.5,9.8-20.5,21.9V480h128.8V260.9C674,248.8,664.8,239.1,653.5,239.1z
				 M641.7,389.3L613,439.4c-1.7,3.1-6.2,3.1-8,0l-28.7-50.1c-1.7-3.1,0.5-7,4-7h15.3v-84.9v-2.4v-2.4c0-4.1,3.3-7.4,7.4-7.4h12.2
				c4.1,0,7.4,3.3,7.4,7.4v2.4v2.4v84.9h15.2C641.2,382.3,643.4,386.2,641.7,389.3z"/>
		</g>
	</g>
</g>
<g id="图层_10" class="st0">
	<path class="st3" d="M615.5,416c-8.3-6.9-12.4-17.5-11.3-28.3c0.8-8,1.3-16,1.3-24.3c0-8.2-0.4-16.1-1.2-24.1
		c-1.1-10.7,3.1-21.3,11.3-28.2l42.3-35.5c12-10,15-27.2,7.2-40.8L625.9,167c-7.8-13.5-24.2-19.5-38.9-14.2l-52,18.9
		c-10.1,3.6-21.4,2-30-4.3c-13-9.4-27-17.5-41.7-24.1c-9.7-4.4-16.8-13.3-18.7-23.8l-9.6-54.2c-2.7-15.4-16-26.6-31.7-26.6H325
		c-15.7,0-28.9,11.2-31.7,26.6l-9.6,54.4c-1.9,10.5-9,19.4-18.7,23.8c-14.8,6.7-28.7,14.8-41.7,24.1c-8.8,6.3-20,8-30,4.3l-52-18.9
		c-14.7-5.3-31,0.6-38.9,14.2l-39.2,67.8c-7.8,13.5-4.8,30.7,7.2,40.8l42.3,35.5c8.3,6.9,12.4,17.4,11.3,28.2
		c-0.8,8-1.2,15.9-1.2,24.1s0.4,16.3,1.2,24.3c1.1,10.7-3.1,21.3-11.3,28.3l-42.2,35.3c-12,10-15.1,27.3-7.3,40.8l39.1,67.7
		c7.8,13.6,24.2,19.5,38.9,14.1l51.7-19c10.1-3.7,21.4-2,30.1,4.3c13.1,9.5,27.2,17.6,42,24.3c9.8,4.4,16.9,13.3,18.7,23.9l9.5,54.2
		c2.7,15.5,16,26.7,31.7,26.7H403c15.7,0,29-11.2,31.7-26.7l9.5-54.2c1.9-10.6,9-19.5,18.7-23.9c14.9-6.7,28.9-14.9,42-24.3
		c8.8-6.3,20-8,30.1-4.3l51.7,19c14.7,5.4,31.1-0.6,38.9-14.1l39.1-67.7c7.8-13.6,4.7-30.7-7.3-40.8L615.5,416z M364.1,518.6
		c-90.5,0-163.8-73.3-163.8-163.9c0-63.3,35.8-118.1,88.4-145.4v146.1l74.8,29.3l74.8-29.3V208.6c53.2,27.1,89.7,82.3,89.7,146.1
		C528,445.2,454.6,518.6,364.1,518.6z"/>
</g>
<g id="图层_11" class="st0">
	<g class="st1">
		<path class="st2" d="M309.7,106.5H198.9c-20.7,0-37.5,16.1-37.5,36.1v175c0,19.9,16.8,36.1,37.5,36.1h110.7
			c20.7,0,37.5-16.1,37.5-36.1v-175C347.2,122.6,330.4,106.5,309.7,106.5z M298.8,286.8c0,3.9-2,7.3-4.8,8.7
			c-0.8,0.3-1.6,0.5-2.5,0.5c-2.1,0-4.2-1.2-5.7-3.3l-59.7-90.9c-0.6-0.9-1.8-0.4-1.8,0.9v84.2c0,5.1-3.3,9.2-7.3,9.2
			s-7.3-4.1-7.3-9.2V173.4c0-3.9,2-7.3,4.8-8.7c2.9-1.3,6.2-0.2,8.1,2.8l59.7,90.8c0.6,0.9,1.8,0.4,1.8-0.9v-84.2
			c0-5.1,3.3-9.2,7.3-9.2c4,0,7.3,4.1,7.3,9.2V286.8L298.8,286.8z"/>
		<path class="st2" d="M419.5,373.6H308.8c-20.7,0-37.5,16.1-37.5,36.1v175c0,19.9,16.8,36.1,37.5,36.1h110.7
			c20.7,0,37.5-16.1,37.5-36.1v-175C457,389.8,440.3,373.6,419.5,373.6z M415.7,553.9c0,3.9-2,7.3-4.9,8.7c-0.8,0.3-1.6,0.5-2.5,0.5
			c-2.1,0-4.2-1.2-5.7-3.3l-59.8-90.9c-0.6-0.9-1.8-0.3-1.8,0.8v84.3c0,5.1-3.3,9.2-7.3,9.2c-4,0-7.3-4.1-7.3-9.2V440.5
			c0-3.9,2-7.3,4.9-8.7c2.9-1.3,6.2-0.2,8.1,2.8l59.7,90.9c0.6,0.9,1.8,0.3,1.8-0.8v-84.3c0-5.1,3.3-9.2,7.3-9.2
			c4,0,7.3,4.1,7.3,9.2L415.7,553.9L415.7,553.9z"/>
		<path class="st2" d="M518.1,106.5H407.3c-20.7,0-37.5,16.1-37.5,36.1v175c0,19.9,16.8,36.1,37.5,36.1H518
			c20.7,0,37.5-16.1,37.5-36.1v-175C555.5,122.6,538.7,106.5,518.1,106.5z M436.8,279.6h51.7c2.2,0,4.1-2.3,4.1-5.1v-35.1h-29.9
			c-4,0-7.3-4.1-7.3-9.2c0-5.1,3.3-9.2,7.3-9.2H500c4,0,7.3,4.1,7.3,9.2v58.6c0,5.1-3.3,9.2-7.3,9.2h-74.5c-4,0-7.3-4.1-7.3-9.2
			V171.5c0-5.1,3.3-9.2,7.3-9.2H500c4,0,7.3,4.1,7.3,9.2c0,5.1-3.3,9.2-7.3,9.2h-63.1c-2.2,0-4.1,2.3-4.1,5.1v88.5
			C432.7,277.2,434.6,279.6,436.8,279.6z"/>
		<path class="st2" d="M212.3,373.6H101.6c-20.7,0-37.5,16.1-37.5,36.1v175c0,19.9,16.8,36.1,37.5,36.1h110.7
			c20.7,0,37.5-16.1,37.5-36.1v-175C249.9,389.8,233.1,373.6,212.3,373.6z M166.1,553.9c0,5.1-4.1,9.2-9.1,9.2
			c-5.1,0-9.2-4.1-9.2-9.2V440.5c0-5.1,4.1-9.2,9.2-9.2c5.1,0,9.1,4.1,9.1,9.2V553.9z"/>
		<path class="st2" d="M626.7,373.6H515.9c-20.7,0-37.5,16.1-37.5,36.1v175c0,19.9,16.8,36.1,37.5,36.1h110.7
			c20.7,0,37.5-16.1,37.5-36.1v-175C664.1,389.8,647.3,373.6,626.7,373.6z M616.7,549c2.8,4.4,1.5,10-3,12.9
			c-1.6,0.9-3.4,1.5-5.1,1.5c-3.2,0-6.3-1.5-8.1-4.3l-29.1-44.3L542.2,559c-1.8,2.8-5,4.3-8.1,4.3c-1.8,0-3.5-0.4-5.1-1.5
			c-4.5-2.7-5.8-8.5-3-12.9l34-51.7l-34-51.7c-2.8-4.4-1.5-10,3-12.9c4.5-2.7,10.5-1.5,13.3,2.9l29.1,44.3l29.1-44.3
			c2.8-4.4,8.8-5.6,13.3-2.9c4.5,2.7,5.8,8.5,3,12.9l-34,51.6L616.7,549z"/>
	</g>
</g>
<g id="图层_12" class="st0">
	<g class="st1">
		<path class="st2" d="M439.6,141.8L439.6,141.8L378,90.6c-3.5-2.9-7.9-4.4-12.4-4.4c-4.6,0-9.4,1.5-12.9,4.6
			c-6.9,6.1-6.7,15.9,0.5,21.8l29.5,24.5h-51.1h-1.9h-4.7h-26.7c-10.8,0-19.7,8.8-19.7,19.6s8.8,19.6,19.7,19.6h26.7h4.7h1.9h50.9
			L353.1,201c-7.1,5.9-7.3,15.6-0.5,21.8c3.5,3.1,8.2,4.6,12.9,4.6c4.5,0,9-1.5,12.4-4.4l61.5-51.1l0.1-0.1l4.8-4.1
			c3.5-2.9,5.4-6.9,5.4-11c0-4.2-1.9-8.1-5.4-11L439.6,141.8z"/>
		<path class="st2" d="M202.1,63.6h-99.7C78.5,63.6,59.1,83,59.1,107v99.9c0,23.9,19.4,43.3,43.3,43.3h99.7
			c23.9,0,43.3-19.4,43.3-43.3V107C245.3,83,226,63.6,202.1,63.6z M197,161.2l-2.7,1.5c0,0,0,0-0.1,0l-34.4,19.7
			c-1.9,1.2-4.5,1.6-7,1.6c-2.6,0-5.2-0.6-7.2-1.8c-3.8-2.3-3.7-6.1,0.3-8.4l16.5-9.5h-28.6h-1.1h-2.6h-14.9c-6,0-10.9-3.4-10.9-7.5
			c0-4.2,4.9-7.5,10.9-7.5h14.9h2.6h1.1h28.6l-16.5-9.5c-4-2.3-4.1-6-0.3-8.4c1.9-1.2,4.6-1.8,7.2-1.8c2.5,0,5,0.6,7,1.6l34.4,19.7
			l0,0l2.7,1.5c1.9,1.2,3,2.6,3,4.3C200.1,158.5,199,160,197,161.2z"/>
		<path class="st2" d="M439.6,348.5L439.6,348.5L378,297.3c-3.5-2.9-7.9-4.4-12.4-4.4c-4.6,0-9.4,1.5-12.9,4.6
			c-6.9,6.1-6.7,15.9,0.5,21.8l29.5,24.5h-51.1h-1.9h-4.7h-26.7c-10.8,0-19.7,8.8-19.7,19.6s8.8,19.6,19.7,19.6h26.7h4.7h1.9h50.9
			L353,407.6c-7.1,5.9-7.3,15.6-0.5,21.8c3.5,3.1,8.2,4.6,12.9,4.6c4.5,0,9-1.5,12.4-4.4l61.5-51.1l0.1-0.1l4.8-4.1
			c3.5-2.9,5.4-6.9,5.4-11s-1.9-8.1-5.4-11L439.6,348.5z"/>
		<path class="st2" d="M439.6,555.2L439.6,555.2L378,504c-3.5-2.9-7.9-4.4-12.4-4.4c-4.6,0-9.4,1.5-12.9,4.6
			c-6.9,6.1-6.7,15.9,0.5,21.8l29.5,24.5h-51.1h-1.9h-4.7h-26.7c-10.8,0-19.7,8.8-19.7,19.6s8.8,19.6,19.7,19.6h26.7h4.7h1.9h50.9
			L353,614.3c-7.1,5.9-7.3,15.6-0.5,21.8c3.5,3.1,8.2,4.6,12.9,4.6c4.5,0,9-1.5,12.4-4.4l61.5-51.1l0.1-0.1l4.8-4.1
			c3.5-2.9,5.4-6.9,5.4-11s-1.9-8.1-5.4-11L439.6,555.2z"/>
		<path class="st2" d="M202.1,270.3h-99.7c-23.9,0-43.3,19.4-43.3,43.3v99.9c0,23.9,19.4,43.3,43.3,43.3h99.7
			c23.9,0,43.3-19.4,43.3-43.3v-99.9C245.3,289.8,226,270.3,202.1,270.3z M197,367.8l-2.7,1.5c0,0,0,0-0.1,0l-34.4,19.7
			c-1.9,1.2-4.5,1.6-7,1.6c-2.6,0-5.2-0.6-7.2-1.8c-3.8-2.3-3.7-6.1,0.3-8.4l16.5-9.5h-28.6h-1.1h-2.6h-14.9c-6,0-10.9-3.4-10.9-7.5
			c0-4.2,4.9-7.5,10.9-7.5h14.9h2.6h1.1h28.6l-16.5-9.5c-4-2.3-4.1-6-0.3-8.4c1.9-1.2,4.6-1.8,7.2-1.8c2.5,0,5,0.6,7,1.6l34.4,19.7
			l0,0l2.7,1.5c1.9,1.2,3,2.6,3,4.3C199.9,365,199,366.8,197,367.8z"/>
		<path class="st2" d="M202.1,477.1h-99.7c-23.9,0-43.3,19.4-43.3,43.3v99.9c0,23.9,19.4,43.3,43.3,43.3h99.7
			c23.9,0,43.3-19.4,43.3-43.3v-100C245.3,496.4,226,477.1,202.1,477.1z M197,574.6l-2.7,1.5c0,0,0,0-0.1,0l-34.4,19.7
			c-1.9,1.2-4.5,1.6-7,1.6c-2.6,0-5.2-0.6-7.2-1.8c-3.8-2.3-3.7-6.1,0.3-8.4l16.5-9.5h-28.6h-1.1h-2.6h-14.9c-6,0-10.9-3.4-10.9-7.5
			c0-4.2,4.9-7.5,10.9-7.5h14.9h2.6h1.1h28.6l-16.5-9.5c-4-2.3-4.1-6-0.3-8.4c1.9-1.2,4.6-1.8,7.2-1.8c2.5,0,5,0.6,7,1.6l34.4,19.7
			l0,0l2.7,1.5c1.9,1.2,3,2.6,3,4.3C200.1,571.9,199,573.5,197,574.6z"/>
		<path class="st2" d="M625.9,63.6h-99.7c-23.9,0-43.3,19.4-43.3,43.3v99.9c0,23.9,19.4,43.3,43.3,43.3h99.7
			c23.9,0,43.3-19.4,43.3-43.3V107C669.1,83,649.8,63.6,625.9,63.6z M620.8,161.2l-2.7,1.5c0,0,0,0-0.1,0l-34.4,19.7
			c-1.9,1.2-4.5,1.6-7,1.6c-2.6,0-5.2-0.6-7.2-1.8c-3.8-2.3-3.7-6.1,0.3-8.4l16.5-9.5h-28.5h-1.1h-2.6h-14.9c-6,0-10.9-3.4-10.9-7.5
			c0-4.2,4.9-7.5,10.9-7.5h14.9h2.6h1.1h28.6l-16.5-9.5c-4-2.3-4.1-6-0.3-8.4c1.9-1.2,4.6-1.8,7.2-1.8c2.5,0,5,0.6,7,1.6l34.4,19.7
			l0,0l2.7,1.5c1.9,1.2,3.1,2.6,3.1,4.3C623.9,158.5,622.8,160,620.8,161.2z"/>
		<path class="st2" d="M625.9,270.3h-99.7c-23.9,0-43.3,19.4-43.3,43.3v99.9c0,23.9,19.4,43.3,43.3,43.3h99.7
			c23.9,0,43.3-19.4,43.3-43.3v-99.9C669.1,289.8,649.8,270.3,625.9,270.3z M620.8,367.8l-2.7,1.5c0,0,0,0-0.1,0l-34.4,19.7
			c-1.9,1.2-4.5,1.6-7,1.6c-2.6,0-5.2-0.6-7.2-1.8c-3.8-2.3-3.7-6.1,0.3-8.4l16.5-9.5h-28.5h-1.1h-2.6h-14.9c-6,0-10.9-3.4-10.9-7.5
			c0-4.2,4.9-7.5,10.9-7.5h14.9h2.6h1.1h28.6l-16.5-9.5c-4-2.3-4.1-6-0.3-8.4c1.9-1.2,4.6-1.8,7.2-1.8c2.5,0,5,0.6,7,1.6l34.4,19.7
			l0,0l2.7,1.5c1.9,1.2,3.1,2.6,3.1,4.3C623.9,365,622.8,366.8,620.8,367.8z"/>
		<path class="st2" d="M625.9,477.1h-99.7c-23.9,0-43.3,19.4-43.3,43.3v99.9c0,23.9,19.4,43.3,43.3,43.3h99.7
			c23.9,0,43.3-19.4,43.3-43.3v-100C669.1,496.4,649.8,477.1,625.9,477.1z M620.8,574.6l-2.7,1.5c0,0,0,0-0.1,0l-34.4,19.7
			c-1.9,1.2-4.5,1.6-7,1.6c-2.6,0-5.2-0.6-7.2-1.8c-3.8-2.3-3.7-6.1,0.3-8.4l16.5-9.5h-28.5h-1.1h-2.6h-14.9c-6,0-10.9-3.4-10.9-7.5
			c0-4.2,4.9-7.5,10.9-7.5h14.9h2.6h1.1h28.6l-16.5-9.5c-4-2.3-4.1-6-0.3-8.4c1.9-1.2,4.6-1.8,7.2-1.8c2.5,0,5,0.6,7,1.6l34.4,19.7
			c0,0,0,0,0.1,0l2.7,1.5c1.9,1.2,3.1,2.6,3.1,4.3C623.9,571.9,622.8,573.5,620.8,574.6z"/>
	</g>
</g>
<g id="图层_13" class="st0">
	<g class="st1">
		<g>
			<g>
				<path class="st2" d="M9.1,380c0.7-6.1,1.4-12.3,2.2-18.4c3.2-23.6,9.1-46.5,19.3-68.1c1.5-3.1,2.5-7,7.2-6.6
					c4.5,0.4,4.9,4.2,6,7.3c4.4,12,8.9,24,13.3,35.8c30.3-26.2,60.3-52.1,90.3-77.9c-4.3-0.6-9.1-1.1-13.9-1.9
					c-11.1-1.9-22.3-3.7-33.4-5.9c-2-0.4-4.3-2.1-5.2-3.8c-1.3-2.3,0.1-4.6,2.1-6.5c20.5-19.9,43.1-37.1,67-52.7
					c47.5-31,98.1-56.1,151-76.7c2.5-1,5.8-1.2,8.5-0.6c32.2,7.4,64.3,15.2,96.5,22.3c6.9,1.5,14.4,0.9,21.6,1.2
					c60,2.6,112.2,23.9,155.2,66c40.6,39.7,66.9,87.6,81.9,142c0.2,0.6,0.3,1.2,0.4,1.8c1.3,5.7,0.6,7-5,9.3
					c-0.2,3.5-0.5,7.2-0.7,10.8c-0.3,3.5-0.6,7-0.9,10.9c3.4,1.2,6.9,2.3,10.2,3.7c13.2,5.3,24.9,12.6,31.3,25.9
					c8,16.6,6.8,32.5-5.2,46.9c-3.8,4.5-7.8,8.8-12.1,12.9c-12.1,11.4-17.3,25.7-18.4,41.9c-0.6,8.6-3.2,16.7-7.2,24.4
					c-6.3,12.3-16.8,16-29.7,15.1c-11.2-0.8-21.6-4.3-31.8-8.7c-1.2-0.5-2.4-1.1-3.8-1.7c-1.9,2.9-3.7,5.6-5.8,8.8
					c1.7,0.1,3,0.4,4.3,0.3c3-0.1,5.4,0.8,6.5,3.8c1.1,3.2-0.5,5.4-3.1,7.1c-16.1,11-31.9,22.5-48.4,32.9
					c-24.8,15.6-51.2,27.9-79.9,35c-14.6,3.7-29.4,5.8-44.4,6.5c-1.1,0-2.1,0.4-3.1,0.6c-7.9,0-15.7,0-23.6,0
					c-1-0.2-2.1-0.6-3.1-0.6c-24.1-0.8-47.6-4.7-70.7-11.5c-64.4-18.8-119.6-53.3-167.7-99.4c-44.6-42.7-79.2-92.6-106-147.9
					c-2.3-4.8-4.6-9.6-6.5-13.8C43,361.4,31.8,372.1,20.7,383c-5,4.9-8.3,4.6-11.5-1.6C9.1,381,9.1,380.5,9.1,380z M584.5,516.5
					c-1.6-1.2-2.6-1.9-3.6-2.6c-10.8-7.8-20.7-16.6-28.8-27.1c-9.1-11.7-16.1-24.5-16.1-39.7c0-22.9,8.9-42.1,26-57.3
					c21.7-19.3,47.7-26.3,76.2-25.9c2.5,0,5,0,7.9,0c-0.5-1.1-0.7-1.7-1-2.4c-3.2-6.6-3.2-6.6-10.4-5
					c-49.2,10.5-98.5,10.9-147.8,0.4c-7.9-1.7-15.8-3.6-23.8-5.4c-0.1,1.1-0.3,2.1-0.3,3c0.3,14.2-0.2,28.4,1,42.5
					c2,24.3,8.6,47.5,20.5,69.1c16.2,29.3,39.7,50.3,71.2,62.3c1.4,0.5,3.4,1.1,4.5,0.5C568.1,524.8,576,520.7,584.5,516.5z
					 M218.4,423.4c-1.5,8-3.1,15.9-4.3,23.9c-0.7,4.7,2.2,7.4,6.8,6.4c10.8-2.3,21.6-4.5,32.3-7.5c42.8-11.9,83-29.9,122.1-50.6
					c9.3-4.9,18.5-10.2,27.6-15.5c4.7-2.7,4.5-7.3-0.3-9.9c-0.9-0.5-1.8-0.9-2.6-1.3c-21.5-10.2-43-20.4-64.5-30.6
					c-17.3-8.2-34.6-16.3-51.9-24.5c-2.5-1.2-5.1-1.8-7.1,0.5c-4.4,4.9-8.6,9.9-13.1,15.1c15.5,10.9,30.9,20.2,49.2,23.7
					c5,1,7.1,3.2,6.5,6.7s-3.5,4.9-8.4,4.1c-10.6-1.8-20.6-5.7-30-10.8c-8-4.4-15.7-9.3-24.1-14.3c-5.3,8.9-10.7,17.9-16.3,27.3
					c1.5,0.4,2,0.7,2.6,0.8c17.7,3.5,35.3,7.1,53,10.6c4,0.8,6.3,2.9,6,6.1c-0.4,3.3-3.2,5.3-7.4,4.8c-6.6-0.9-13.2-1.6-19.7-2.9
					c-13.1-2.7-26.1-5.7-39.9-8.7c-4.4,11.5-8.9,23.3-13.6,35.7c21.4,0.2,41.4-1.3,61.1-6.1c4.5-1.1,7.3,0.1,8.3,3.6
					c0.9,3.4-1.1,5.8-5.7,7C263.3,422.3,241.3,423.6,218.4,423.4z M519.5,320.2c23.7,0.1,43.6-19.5,43.6-43
					c0.1-23.9-19.3-43.5-43.3-43.8c-23.7-0.3-43.7,19.4-43.8,43.3C476,300.6,495.5,320.1,519.5,320.2z M707,423.4
					c1.8-5.2,1.5-6.4-2.8-8.7c-19.8-11-41-16.4-63.6-15.1c-37.3,2-67.5,18-90.6,47.3c-3.2,4-2.3,7.5-0.6,11.8
					c17.4-26.3,40.9-43.4,71.5-50.2C651.5,401.6,680.2,407.1,707,423.4z M578,497.2c7.7-21.4,21.5-36.6,42.7-44.6
					c21.1-7.9,41.6-5.5,61.1,5.1c1.5-1.7,2.6-3.1,3.9-4.6c-1.5-0.9-2.8-1.7-4.1-2.4c-39.3-20.9-88.8-3.7-106.6,37
					C572.6,493.3,572.6,493.3,578,497.2z"/>
				<path class="st2" d="M552.5,277.9c-1.2,19.2-16.4,32.8-35.3,31.6c-17.9-1.1-31.9-17.2-30.5-35.3c1.4-18.1,17.2-31.3,36-30
					C539.5,245.4,553.5,261.2,552.5,277.9z M504.8,277c0.1,10.1,8.9,18.5,19.5,18.5s19.8-8.8,19.6-18.9s-9.1-18.4-19.6-18.4
					C513.4,258.2,504.7,266.6,504.8,277z"/>
				<path class="st2" d="M536.8,269.9c0,3.9-3,7-6.9,7s-7.1-3.1-7.2-6.9c-0.1-3.9,3.3-7.3,7.2-7.3
					C533.7,262.8,536.8,265.9,536.8,269.9z"/>
			</g>
		</g>
	</g>
</g>
<g id="图层_14" class="st0">
	<g class="st1">
		<path class="st2" d="M462,238.6c8.2-7,10.3-18.9,5-28.4L440,163c-5.4-9.4-16.7-13.6-26.8-9.8l-35.8,13.2c-7,2.6-14.7,1.4-20.7-3
			c-9-6.5-18.6-12.2-28.8-16.8c-6.7-3.1-11.6-9.2-12.9-16.6l-6.6-37.9c-1.9-10.7-11.1-18.5-21.8-18.5h-54c-10.8,0-20,7.8-21.8,18.5
			l-6.6,37.9c-1.3,7.4-6.1,13.5-12.9,16.6c-10.2,4.6-19.8,10.3-28.8,16.8c-6,4.4-13.8,5.6-20.7,3L106,153.2
			c-10.1-3.7-21.4,0.4-26.8,9.8l-27,47.2c-5.4,9.4-3.3,21.4,5,28.4l29.2,24.7c5.7,4.8,8.5,12.2,7.8,19.6c-0.5,5.5-0.8,11.1-0.8,16.8
			c0,5.7,0.3,11.3,0.8,16.9c0.7,7.5-2.1,14.8-7.8,19.6l-29.3,24.6c-8.3,7-10.4,19-5,28.4l27,47.1c5.4,9.4,16.7,13.6,26.8,9.8
			l35.6-13.2c7-2.6,14.8-1.4,20.8,3c9,6.6,18.7,12.3,29,16.9c6.8,3.1,11.6,9.3,12.9,16.6l6.5,37.7c1.8,10.7,11.1,18.5,21.8,18.5
			h53.9c10.8,0,20-7.8,21.9-18.5l6.5-37.7c1.3-7.4,6.1-13.6,12.9-16.6c10.3-4.7,20-10.3,29-16.9c6-4.4,13.8-5.6,20.8-3l35.6,13.2
			c10.1,3.7,21.4-0.4,26.8-9.8l27-47.1c5.4-9.4,3.3-21.4-5-28.4l-29.1-24.6c-5.7-4.8-8.6-12.2-7.8-19.6c0.6-5.6,0.8-11.2,0.8-16.9
			c0-5.7-0.3-11.3-0.8-16.8c-0.7-7.4,2.1-14.8,7.8-19.6L462,238.6z M259.5,407.6c-62.4,0-113-51.1-113-114.1
			c0-44,24.7-82.2,60.9-101.2V294l51.6,20.4l51.6-20.4V191.8c36.7,18.8,61.8,57.3,61.8,101.7C372.5,356.5,321.9,407.6,259.5,407.6z"
			/>
		<path class="st2" d="M661.2,398.5c-2.8-2.4-4.1-6-3.8-9.6c0.5-5.1,0.4-10.3-0.1-15.5c-0.4-3.7,0.9-7.3,3.7-9.7l13.9-11.9
			c3.9-3.4,4.9-9.1,2.3-13.6l-13-22.5c-2.6-4.5-8-6.5-12.9-4.6l-17.1,6.4c-3.4,1.3-7.2,0.6-10.1-1.5c-4.2-3-8.7-5.6-13.4-7.7
			c-3.3-1.5-5.8-4.4-6.5-8l-3.3-18.1c-0.9-5.1-5.4-8.8-10.5-8.8l-25.8,0.1c-5.2,0-9.5,3.8-10.4,8.9l-3.1,18.2
			c-0.6,3.6-3.1,6.6-6.4,8.1c-2.3,1.1-4.6,2.3-6.8,3.6c-2.3,1.3-4.4,2.8-6.5,4.3c-3,2.2-6.7,2.9-10.1,1.6l-17.1-6.2
			c-4.9-1.8-10.3,0.2-12.8,4.8l-12.8,22.6c-2.6,4.5-1.5,10.3,2.5,13.6l14,11.7c2.8,2.4,4.1,6,3.8,9.7c-0.5,5.2-0.5,10.4,0.1,15.6
			c0.4,3.7-0.9,7.3-3.7,9.7l-13.9,11.8c-3.9,3.4-4.9,9.1-2.3,13.6l13,22.5c2.6,4.5,8,6.5,12.9,4.6l17-6.4c3.4-1.3,7.2-0.6,10.2,1.5
			c4.2,3,8.8,5.6,13.5,7.7c3.3,1.5,5.8,4.4,6.5,8.1l3.2,18.1c0.9,5.1,5.3,8.9,10.5,8.8l25.8-0.1c5.2,0,9.6-3.8,10.4-8.9l3-18.1
			c0.6-3.7,3.1-6.6,6.4-8.1c2.3-1.1,4.6-2.3,6.9-3.6c2.2-1.3,4.4-2.7,6.5-4.3c3-2.2,6.7-2.9,10.1-1.6l17.2,6.2
			c4.9,1.8,10.3-0.3,12.8-4.8l12.8-22.7c2.6-4.5,1.5-10.2-2.4-13.6L661.2,398.5z M608,427.1c-29.1,17.2-67.5,3.8-78.8-30.4
			c-6.8-20.4-0.4-43.6,15.7-57.7c19.4-17,45.5-17.5,64.7-5.3L568,358.3l4.1,26.5l20.8,16.6l41.8-24.7
			C635.8,396.6,626.2,416.4,608,427.1z"/>
		<path class="st2" d="M446.1,569.6l-12.7-4.6c-2.5-0.9-4.3-3.1-5-5.7c-1-3.7-2.3-7.3-4-10.8c-1.2-2.5-1.2-5.3,0.1-7.7l6.7-11.9
			c1.9-3.3,1.1-7.6-1.8-10l-14.7-12.3c-2.9-2.5-7.2-2.4-10.1,0.1l-10.3,8.8c-2.1,1.8-4.8,2.3-7.4,1.5c-1.8-0.5-3.7-0.9-5.6-1.2
			s-3.8-0.6-5.7-0.7c-2.7-0.2-5.1-1.6-6.5-3.9l-6.8-11.7c-1.9-3.3-5.9-4.8-9.5-3.4l-17.9,6.7c-3.6,1.3-5.7,5.1-5,8.9l2.4,13.4
			c0.5,2.7-0.5,5.4-2.4,7.3c-2.7,2.7-5.2,5.7-7.3,8.9c-1.5,2.3-3.9,3.7-6.6,3.7l-13.4,0.1c-3.8,0-7.1,2.8-7.7,6.6l-3.2,19
			c-0.6,3.8,1.5,7.5,5.1,8.8l12.6,4.5c2.5,0.9,4.3,3.1,5,5.7c1,3.8,2.3,7.4,4,10.9c1.2,2.5,1.2,5.3-0.1,7.7l-6.7,11.8
			c-1.9,3.4-1.1,7.6,1.8,10.1l14.7,12.3c2.9,2.5,7.2,2.4,10.1-0.1l10.2-8.8c2.1-1.8,4.8-2.3,7.5-1.5c1.8,0.5,3.7,0.9,5.6,1.2
			s3.8,0.6,5.7,0.7c2.7,0.2,5.1,1.6,6.5,3.9l6.8,11.8c1.9,3.3,5.9,4.8,9.5,3.4l17.9-6.7c3.6-1.3,5.7-5.1,5-8.9l-2.4-13.4
			c-0.5-2.7,0.5-5.4,2.4-7.3c2.7-2.7,5.1-5.7,7.3-8.9c1.5-2.3,3.9-3.7,6.6-3.7l13.5-0.1c3.8,0,7-2.8,7.7-6.6l3.2-19.1
			C451.8,574.6,449.7,570.9,446.1,569.6z M376.6,556.5l-10.1,17l4,19.4l35.3,6.1c-8.7,11.8-23.4,18.4-38.8,15.8
			c-24.5-4.2-40-30.2-30.3-55.1c5.7-14.8,20.3-25,36-25.3c18.9-0.3,34,11.9,39.1,28.1L376.6,556.5z"/>
	</g>
</g>
<g id="图层_15" class="st0">
	<g class="st1">
		<path class="st2" d="M644.8,138.6H83.4c-18.9,0-34.3,15.4-34.3,34.4v47.2h630V173C679.1,154,663.7,138.6,644.8,138.6z
			 M113.8,195.5c-7.7,0-13.9-6.2-13.9-14c0-7.6,6.2-13.9,13.9-13.9s13.9,6.2,13.9,13.9C127.7,189.2,121.5,195.5,113.8,195.5z
			 M177.5,195.5c-7.7,0-13.9-6.2-13.9-14c0-7.6,6.2-13.9,13.9-13.9c7.6,0,13.9,6.2,13.9,13.9C191.4,189.2,185.1,195.5,177.5,195.5z"
			/>
		<path class="st2" d="M49.1,404.4h415.2l60.1-64.7l23.8,21.8l25.5,23.3l-18.2,19.6h123.7V233.9h-630V404.4z M563.9,296.1
			c2.5-2.7,6.8-2.9,9.6-0.3l18.6,17.1l20.2,18.6c2.9,2.6,3.2,6.9,0.6,9.6L587,369.9l-0.7-0.6l-24.8-22.7l-23-21.1l-0.7-0.6
			L563.9,296.1z M160.7,383.3c0,1.5-1.3,2.8-2.8,2.8h-10.8c-1.5,0-2.8-1.3-2.8-2.8v-36.1c0-1.5,1.3-2.8,2.8-2.8h10.8
			c1.5,0,2.8,1.3,2.8,2.8V383.3z M200.5,383.3c0,1.5-1.3,2.8-2.8,2.8h-10.8c-1.5,0-2.8-1.3-2.8-2.8v-59.8c0-1.5,1.3-2.8,2.8-2.8
			h10.8c1.5,0,2.8,1.3,2.8,2.8V383.3z M240.4,383.3c0,1.5-1.3,2.8-2.8,2.8h-10.8c-1.5,0-2.8-1.3-2.8-2.8v-19.9
			c0-1.5,1.3-2.8,2.8-2.8h10.8c1.5,0,2.8,1.3,2.8,2.8V383.3z M280.2,383.3c0,1.5-1.3,2.8-2.8,2.8h-10.8c-1.5,0-2.8-1.3-2.8-2.8
			v-36.1c0-1.5,1.3-2.8,2.8-2.8h10.8c1.5,0,2.8,1.3,2.8,2.8V383.3z M319.9,383.3c0,1.5-1.3,2.8-2.8,2.8h-10.8
			c-1.5,0-2.8-1.3-2.8-2.8v-59.8c0-1.5,1.3-2.8,2.8-2.8h10.8c1.5,0,2.8,1.3,2.8,2.8V383.3z M108.5,333.8l77.4-41.9
			c1-0.4,2.2-0.5,3.2-0.2l52.4,21.9l58.4-24.4l-2.1-4.7c-0.6-1.4,0.5-2.9,2-2.7l17.7,1.9c1.5,0.2,2.2,1.9,1.4,3.1l-10.5,14.4
			c-0.9,1.3-2.8,1-3.3-0.4l-2.2-5l-59.9,25c-0.9,0.4-1.9,0.4-2.8,0l-52.2-21.8l-75.9,41c-0.5,0.3-1.2,0.4-1.7,0.4
			c-1.3,0-2.5-0.7-3.2-1.9C106.1,337.1,106.8,334.8,108.5,333.8z M106.6,363.5c0-1.5,1.3-2.8,2.8-2.8h10.8c1.5,0,2.8,1.3,2.8,2.8
			v19.9c0,1.5-1.3,2.8-2.8,2.8h-10.8c-1.5,0-2.8-1.3-2.8-2.8V363.5z"/>
		<path class="st2" d="M467.2,499.3c-1.5,1.6-3.2,2.9-5.2,3.9l-24.5-22.5l-22.9-20.9c0.8-2.1,1.9-4,3.4-5.6l33.2-35.7h-402v135.8
			c0,19,15.4,34.4,34.4,34.4h561.3c19,0,34.3-15.4,34.3-34.4V418.4H542.3L467.2,499.3z M309.4,552c-8.2,0-14.9-6.7-14.9-14.9
			c0-1.9,0.4-3.6,1.1-5.2l-31.1-20.7c-2.9,2.8-6.8,4.6-11.1,4.6c-4.9,0-9.1-2.3-12-5.8l-40.9,21.9c0.5,1.7,1.1,3.4,1.1,5.2
			c0,9.8-8,17.8-17.8,17.8c-9.8,0-17.8-8-17.8-17.8c0-3.3,1.2-6.2,2.7-8.8l-36.4-31.9c-2.7,2.1-5.9,3.4-9.5,3.4
			c-8.9,0-16.2-7.3-16.2-16.2s7.2-16.2,16.2-16.2c8.9,0,16.2,7.3,16.2,16.2c0,2.9-1,5.5-2.2,7.8l36.3,31.8c3.1-2.3,6.7-4,10.8-4
			c5.6,0,10.4,2.8,13.7,6.8l40.9-21.9c-0.4-1.4-0.9-2.8-0.9-4.3c0-8.8,7.1-15.9,15.8-15.9s15.8,7.1,15.8,15.9c0,2.1-0.4,4-1.2,5.8
			l31.1,20.7c2.7-2.5,6.2-4.1,10.2-4.1c8.2,0,14.9,6.7,14.9,14.8C324.2,545.3,317.6,552,309.4,552z M444.4,520.2l-35.8,7.8l-9.2,2
			c-1.5,0.3-2.9-0.6-3.5-1.8c-0.3-0.5-0.5-1.2-0.4-1.8l1.4-10.7l4.4-35c0.1-2,0.6-3.9,1.4-5.7l22.9,21l24.5,22.5
			C448.2,519.3,446.4,520,444.4,520.2z"/>
	</g>
</g>
<g id="图层_16" class="st0">
	<g class="st1">
		<path class="st2" d="M657.8,128.2H70.5c-19.8,0-35.9,16.1-35.9,36v49.3h659.1v-49.3C693.7,144.3,677.6,128.2,657.8,128.2z
			 M102.3,187.7c-8,0-14.5-6.5-14.5-14.6c0-8.1,6.5-14.6,14.5-14.6s14.5,6.5,14.5,14.6C116.8,181.3,110.3,187.7,102.3,187.7z
			 M168.9,187.7c-8,0-14.5-6.5-14.5-14.6c0-8.1,6.5-14.6,14.5-14.6c8,0,14.5,6.5,14.5,14.6C183.4,181.3,176.9,187.7,168.9,187.7z"/>
		<path class="st2" d="M34.6,406.3h434.4l62.9-67.7l24.9,22.8l26.6,24.4l-19,20.5h129.4V228H34.6V406.3z M573.2,293
			c2.6-2.8,7.2-3,10.1-0.3l19.5,17.9l21.2,19.5c3,2.7,3.3,7.3,0.7,10.1l-27.3,30l-0.8-0.7l-25.9-23.7l-24.1-22.1l-0.8-0.7L573.2,293
			z M95.1,268h217.4c3.5,0,6.4,2.9,6.4,6.4c0,3.5-2.9,6.4-6.4,6.4H95.1c-3.5,0-6.4-2.9-6.4-6.4C88.7,270.8,91.6,268,95.1,268z
			 M95.1,310.9H264c3.5,0,6.4,2.9,6.4,6.4s-2.9,6.4-6.4,6.4H95.1c-3.5,0-6.4-2.9-6.4-6.4S91.6,310.9,95.1,310.9z M95.1,353.8h217.4
			c3.5,0,6.4,2.9,6.4,6.4c0,3.5-2.9,6.4-6.4,6.4H95.1c-3.5,0-6.4-2.9-6.4-6.4C88.7,356.7,91.6,353.8,95.1,353.8z"/>
		<path class="st2" d="M466.5,509.7l-25.6-23.5l-24-21.9c0.8-2.2,2-4.1,3.6-5.8l34.7-37.4H34.6v142.1c0,19.9,16.1,36,35.9,36h587.3
			c19.9,0,35.9-16.1,35.9-36V421h-143l-78.6,84.6C470.3,507.3,468.5,508.6,466.5,509.7z M312.5,552H95.1c-3.5,0-6.4-2.9-6.4-6.4
			s2.9-6.4,6.4-6.4h217.4c3.5,0,6.4,2.9,6.4,6.4C318.9,549.1,316.1,552,312.5,552z M88.7,502.6c0-3.5,2.9-6.4,6.4-6.4H264
			c3.5,0,6.4,2.9,6.4,6.4s-2.9,6.4-6.4,6.4H95.1C91.6,509,88.7,506.2,88.7,502.6z M312.5,466.1H95.1c-3.5,0-6.4-2.9-6.4-6.4
			s2.9-6.4,6.4-6.4h217.4c3.5,0,6.4,2.9,6.4,6.4S316.1,466.1,312.5,466.1z M448.1,527.5l-37.5,8.2l-9.6,2.1c-1.6,0.3-3-0.7-3.7-1.9
			c-0.3-0.6-0.6-1.2-0.5-1.9l1.4-11.2l4.6-36.6c0.1-2.1,0.7-4,1.4-5.9l23.9,21.9l25.6,23.5C452.1,526.5,450.2,527.2,448.1,527.5z"/>
	</g>
</g>
<g id="图层_17" class="st0">
	<g class="st1">
		<path class="st2" d="M425.3,19.1c0.1,0.4,7.8,38.3-13.7,77.3c-8.9,16.1-28.4,29.8-51,45.7c-32.4,22.8-69.1,48.6-88.8,91.4
			c-34.2,74.6,69.9,155.9,74.4,159.3c1,0.8,2.3,1.2,3.5,1.2c1.3,0,2.6-0.4,3.7-1.3c2.1-1.7,2.7-4.7,1.4-7.1
			c-0.4-0.7-37.7-73.3-36.4-125.4c0.5-18.1,25.9-38.7,52.7-60.5c24.6-20,52.5-42.6,68.8-69c35.8-58.2-4-115.5-4.4-116.1
			c-0.4-0.5-0.9-0.6-1.4-1h-6.6C425.9,14.9,424.9,16.9,425.3,19.1z"/>
		<path class="st2" d="M398.4,365.8c4.1,13.3-5.6,37.5-9.6,45.6c-1.2,2.3-0.6,5.2,1.4,6.9c1.1,0.9,2.4,1.4,3.8,1.4
			c1.1,0,2.3-0.3,3.3-1c2.2-1.5,54.3-38.4,45-82.8c-3.5-16.9-11.8-29.2-19.1-40.1c-11.3-16.9-19.5-29-7.1-51.5
			c14.5-26.2,80.4-76,81.1-76.5c2.3-1.7,3-4.9,1.6-7.4s-4.4-3.6-7.1-2.6c-5.5,2.1-134.8,51.9-134.8,112.2
			c0,41.5,17.7,63.5,30.7,79.5C392.6,355.8,397,361.2,398.4,365.8z"/>
		<path class="st2" d="M303.4,470L303.4,470c10.3,0,21.2-0.2,32.4-0.6c121.7-4.4,166.9-42.3,168.7-43.9c2-1.8,2.6-4.7,1.3-7.1
			s-4-3.6-6.6-2.8c-42.9,11.7-122.9,15.9-178.4,15.9c-62.1,0-93.8-4.5-101.5-7.8c4-5.5,28.5-15.2,58.9-21.2c2.9-0.6,4.9-3.3,4.6-6.2
			c-0.3-2.9-2.8-5.2-5.7-5.2c-17.8,0-107.1,1.4-116.4,29.7c-2.2,6.6-1.2,13.2,3,19C177.7,459.3,227.3,470,303.4,470z"/>
		<path class="st2" d="M567.9,381.7c-25.1,0-48.9,12.6-49.9,13.1c-2.3,1.2-3.5,3.9-2.9,6.5s2.9,4.4,5.6,4.4
			c0.5,0,53.5,0.4,58.3,30.7c4.3,26.1-50.2,68.5-71.5,82.6c-2.3,1.5-3.2,4.5-2.1,7c0.9,2.2,3,3.5,5.3,3.5c0.4,0,0.8,0,1.2-0.1
			c5.1-1.1,123.8-27.3,111.2-96.4C615.5,390.6,588.9,381.7,567.9,381.7z"/>
		<path class="st2" d="M486.5,510.5c0.4-2.2-0.5-4.5-2.4-5.8l-28.5-20c-1.4-1-3.1-1.3-4.8-0.8c-0.3,0.1-30.1,7.9-73.3,12.7
			c-17.2,1.9-36.4,2.9-55.6,2.9c-43.2,0-71.5-5.1-75.6-8.8c-0.5-1-0.4-1.5-0.3-1.8c0.7-2.1,4.8-4.6,7.3-5.5c2.9-1.1,4.4-4.2,3.5-7.1
			c-0.9-2.9-3.9-4.6-6.8-3.9c-28.6,6.9-42.5,16.5-41.5,28.7c1.8,21.5,51.6,32.5,93.6,35.4c6.1,0.4,12.6,0.6,19.4,0.6l0,0
			c69.9,0,159.6-22,160.5-22.2C484.4,514.5,486,512.7,486.5,510.5z"/>
		<path class="st2" d="M274.1,550.1c-0.8-2.5-3.1-4.1-5.6-4c-3.8,0.1-37.5,1.6-39.8,23c-0.7,6.4,1.1,12.2,5.4,17.4
			c12.1,14.3,44.7,22.8,99.6,26c6.5,0.4,13.1,0.6,19.6,0.6c69.9,0,116.9-21.9,118.9-22.8c1.9-0.9,3.2-2.8,3.3-4.9
			c0.1-2.1-0.9-4.1-2.7-5.2l-36-22c-1.2-0.8-2.7-1-4.2-0.7c-0.2,0-23.1,4.8-57.6,9.5c-6.5,0.9-14.7,1.3-24.3,1.3
			c-34.4,0-72.7-5.6-80.1-9.3c-0.1-0.7,0-1.6,1.1-2.3C274,555.2,274.9,552.6,274.1,550.1z"/>
		<path class="st2" d="M320.8,679.1c160-0.1,245.9-28.6,262.5-46.5c5.9-6.3,6.5-12.3,6-16.3c-1.2-9.6-10-15.6-11-16.2
			c-2.4-1.5-5.6-1.1-7.5,1c-1.9,2.2-1.9,5.3,0,7.5c1,1.3,1.6,3.5-1.4,6.4c-6.6,6.2-73.3,24.9-184.4,30.6
			c-15.2,0.8-31.2,1.2-47.4,1.2c-99.5,0-172.2-13.6-181.8-21.6c3.7-5.3,29.4-13.8,56.8-18.5c3.1-0.5,5.2-3.4,4.7-6.5
			s-3.3-5.2-6.4-4.8c-0.8,0.1-3.4,0.3-6.4,0.4c-45.2,2.8-97.4,8.9-100.1,32.2c-0.8,7.1,1.3,13.5,6.3,19.1
			C122.7,660.9,157.8,679.1,320.8,679.1L320.8,679.1z"/>
		<path class="st2" d="M614.7,637.7c-2.3-1-4.9-0.5-6.6,1.3c-0.2,0.3-24.3,25.4-96.6,40.2c-27.7,5.6-79.7,8.4-154.5,8.4
			c-75,0-146.3-3-147-3c-3-0.1-5.5,2-5.9,5c-0.4,2.9,1.5,5.7,4.4,6.4c0.6,0.1,75.4,17.6,177.6,17.6c49,0,96.7-4,141.8-11.8
			c84-14.7,89.9-56.4,90.1-58.2C618.3,641.1,617,638.7,614.7,637.7z"/>
	</g>
</g>
<g id="图层_18" class="st0">
	<g class="st1">
		<path class="st2" d="M476.5,587.3c-21.5-20.2-46.8-30.7-73.7-36.7c-5.6-1.3-11.4-1.2-16.8-3.1c-19.6-7.2-31.2-25.8-43.9-42.5
			c-19.8-26.1-41.1-50.1-67.8-66.7c-35.4-22.1-72.6-20.6-109.3-6.2c-30,11.7-59.3,25.5-91.2,28.2c-6.8,0.6-7.9,3.6-7.8,10.5
			c0.3,38.3,0.1,76.5,0.1,114.8c0,3.4,0,6.8,0,10.9c36-4.7,70.5-9.6,105.1-13.6c7.6-0.9,16-0.1,23.2,2.7
			c52.6,20.8,104.9,53.4,157.5,74.3c6.2,2.5,13.4,4.3,19.8,3.4c17.4-2.4,34.7-6.1,51.9-9.8c9.6-2,19-4.8,28.6-7.2
			c-34.6-11.4-68.9-21-103.2-30.4c-9-2.5-15.4-18.7-18.2-30.7c54.5,15,108.2,29.8,162.5,44.7C495.1,613.6,489.6,599.6,476.5,587.3z"
			/>
		<path class="st2" d="M637.4,503.5c-11.9,2.2-23.6,7.7-34.5,13.9c-24.5,13.8-48.4,29.2-72.8,43.4c-4.3,2.5-9.9,2.5-14.9,2.7
			c-4.9,0.2-9.8-0.5-14.7-1.1c-4.8-0.5-9.6-1.3-14.4-1.9c20.1,15.5,36,33.3,40.3,61.1c14.3-4.1,98.6-65.2,136.5-98.7
			C657.2,505.8,652.3,500.7,637.4,503.5z"/>
		<path class="st2" d="M370.4,479.5c-10.9-9.6-23.4-17-35.1-25.4c-0.3,0.4-0.7,0.7-1,1c12.2,14.9,23.8,30.7,37,44.3
			c7,7.2,16.6,13.1,25.8,14.8c25.1,4.9,50.7,6.6,75.9,10.9c21.1,3.6,40.4,1.2,59-12.1c18.2-13.1,37.4-24.5,56.7-35.3
			c16.5-9.2,33.7-18.5,52.4-5.6c3.5-19.8-3-29.4-19.7-29.1c-6.4,0.1-12.9,1.1-19,3.1c-31.9,10.6-60.2,29.8-88.4,49.3
			c-7.5,5.1-14.7,7.7-23.4,7.1c-23.7-1.8-47.5-1.9-71.1-4.7C402.4,495.8,385.2,492.5,370.4,479.5z"/>
		<path class="st2" d="M557.1,145.5c-7.1,0.9-14.9-0.6-21.6-3.3c-50.6-20.1-101-51.7-151.3-72.4c-11.9-4.9-23.8-7.6-36.4-5.1
			c-10.1,2-20.2,3.8-30.2,6c-14.5,3.3-28.8,6.9-45.6,10.9c38.1,10.5,73.5,20.3,108.9,30.2c10.9,3.1,13.7,17.7,16.4,30.2
			c-54.4-15-108.4-29.8-163.9-45.1c-0.4,15.1,3.4,25.4,10.2,34c22.7,28.5,52.4,41,84.6,46.1c14.2,2.3,26.4,7.5,36.2,18.8
			c13.7,15.9,26.2,33.3,39.9,49.3c21,24.6,44,46.5,73.5,56.1c33.5,10.9,66.4,5,98.5-8.5c18.8-7.9,36.8-18.5,57.3-20.7
			c10.3-1.1,20.6-3.6,30.5-5.4c0-45.8,0-90.5,0-135.3c-1.7-0.1-2.6-0.4-3.5-0.3C626,136.1,591.6,141.3,557.1,145.5z"/>
		<path class="st2" d="M91.6,224.9c10.7-2.9,21.3-7.4,31.2-13c23-13.2,45.2-28,68.3-41c7.1-4,15.8-5.3,23.8-5.9
			c8.5-0.5,17.2,1.4,25.7,2.2c-19.2-15.8-35.1-33.1-39.2-60.5c-11,1.6-121.8,82.1-137.3,99.4C69.4,222.7,77.1,228.8,91.6,224.9z"/>
		<path class="st2" d="M106,285.7c10.6-0.7,21.9-2.9,31.4-8c27.1-14.7,53.4-31.4,80.1-47.1c4.2-2.5,9.2-4.9,13.7-4.7
			c24.8,0.9,49.7,1.4,74.4,4.3c19,2.2,37.9,5.7,54,20.1c9.7,8.7,20.8,15.1,31.3,22.5c0.5-0.5,1-1,1.4-1.5
			c-11.3-13.7-21.8-28.4-34.1-40.6c-7.8-7.7-18.1-14.6-28-16.6c-23.7-4.9-48.4-4.2-71.8-10.5c-29.8-8-53.6,5.1-77.8,20.8
			c-17.8,11.5-35.9,22.4-54.3,32.4c-13.2,7.2-27.2,8.8-40.7-0.5C82,276.8,88.5,286.9,106,285.7z"/>
		<path class="st2" d="M455.8,354.6l-77.4-45.1c-8.7-5.1-19.4-5.1-28.2,0l-77.4,45.1c-7.1,4.2-7.1,14.8,0,18.9l77.4,45.1
			c8.7,5.1,19.4,5.1,28.2,0l77.4-45.1C462.9,369.3,462.9,358.7,455.8,354.6z"/>
	</g>
</g>
<g id="图层_19" class="st0">
	<g class="st1">
		<path class="st2" d="M658.8,133.6H455c-0.2,0.2-0.4,0.3-0.6,0.6v-0.5c-38.2,0.4-69.1,36.4-69.1,80.9v355.7v18.9
			c2.5,2.7,6.1,4.4,10.1,4.4c1.8,0,3.4-0.4,5-1c2.6-3.8,5.4-7.3,8.5-10.5c12.1-12.6,28-20.5,45.5-20.7l0,0c0.2,0,0.4-0.1,0.6-0.1
			h226.1c12.7,0,23-10.2,23-22.8v-360C704.1,153.7,683.8,133.6,658.8,133.6z M647.2,440.7h-136c-6.2,0-11.3-5-11.3-11.2
			s5.1-11.2,11.3-11.2h136c6.2,0,11.3,5,11.3,11.2C658.5,435.6,653.4,440.7,647.2,440.7z M647.2,381.7h-136c-6.2,0-11.3-5-11.3-11.2
			s5.1-11.2,11.3-11.2h136c6.2,0,11.3,5,11.3,11.2C658.5,376.6,653.4,381.7,647.2,381.7z M500,311.5c0-6.2,5.1-11.2,11.3-11.2h110.6
			c6.2,0,11.3,5,11.3,11.2s-5.1,11.2-11.3,11.2H511.3C505.1,322.7,500,317.6,500,311.5z M647.2,263.7h-136c-6.2,0-11.3-5-11.3-11.2
			c0-6.2,5.1-11.2,11.3-11.2h136c6.2,0,11.3,5,11.3,11.2C658.5,258.6,653.4,263.7,647.2,263.7z"/>
		<path class="st2" d="M343,571.6v-357c0-42.2-27.9-76.5-63.4-80.2v-0.8H70.3c-25.5,0-46.2,20.5-46.2,45.8v359.3
			c0,12.5,10.2,22.6,22.8,22.6h226.3c2.2,0,4.2,0.5,6.3,0.7c14.8,1.6,28.1,8.6,38.8,19.2c3.5,3.5,6.7,7.4,9.5,11.5
			c1.3,0.4,2.7,0.8,4.1,0.8c4.6,0,8.4-2.3,11-5.7v-16.2H343z M215.7,440.7H79.8c-6.2,0-11.3-5-11.3-11.2s5.1-11.2,11.3-11.2h135.9
			c6.2,0,11.3,5,11.3,11.2C227.1,435.6,222,440.7,215.7,440.7z M215.7,381.7H79.8c-6.2,0-11.3-5-11.3-11.2s5.1-11.2,11.3-11.2h135.9
			c6.2,0,11.3,5,11.3,11.2C227.1,376.6,222,381.7,215.7,381.7z M68.5,311.5c0-6.2,5.1-11.2,11.3-11.2h110.6c6.2,0,11.3,5,11.3,11.2
			s-5.1,11.2-11.3,11.2H79.8C73.6,322.7,68.5,317.6,68.5,311.5z M215.7,263.7H79.8c-6.2,0-11.3-5-11.3-11.2
			c0-6.2,5.1-11.2,11.3-11.2h135.9c6.2,0,11.3,5,11.3,11.2C227.1,258.6,222,263.7,215.7,263.7z"/>
	</g>
</g>
<g id="图层_20" class="st0">
	<g class="st1">
		<path class="st2" d="M645.3,137.7H82.9c-19.6,0-34.2,14.7-34.2,34.4v46.7h630.9V172C679.6,152.4,664.9,137.7,645.3,137.7z
			 M112.3,194.1c-7.3,0-14.7-7.4-14.7-14.7c0-7.4,7.3-14.7,14.7-14.7c7.3,0,14.7,7.4,14.7,14.7C127,189.2,119.6,194.1,112.3,194.1z
			 M175.9,194.1c-7.3,0-14.7-7.4-14.7-14.7c0-7.4,7.3-14.7,14.7-14.7c7.3,0,14.7,7.4,14.7,14.7C190.5,189.2,183.2,194.1,175.9,194.1
			z"/>
		<path class="st2" d="M48.7,405.4h630.9V233.5H48.7V405.4z M104.9,272.8h207.8c2.4,0,7.3,2.5,7.3,7.4c0,4.9-2.4,7.4-7.3,7.4H104.9
			c-2.4,0-7.3-2.5-7.3-7.4C97.6,275.2,102.5,272.8,104.9,272.8z M104.9,314.5h161.4c2.4,0,7.3,2.5,7.3,7.4c0,4.9-2.4,7.4-7.3,7.4
			H104.9c-2.4,0-7.3-2.5-7.3-7.4C97.6,317,102.5,314.5,104.9,314.5z M104.9,353.8h207.8c2.4,0,7.3,2.5,7.3,7.4
			c0,2.5-2.4,7.4-7.3,7.4H104.9c-2.4,0-7.3-2.5-7.3-7.4C100.1,356.3,102.5,353.8,104.9,353.8z"/>
		<path class="st2" d="M48.7,555.2c0,19.7,14.7,34.4,34.2,34.4h562.4c19.6,0,34.2-14.7,34.2-34.4V417.7H48.7V555.2z M405.7,449.6
			h207.8c2.4,0,7.3,2.5,7.3,7.4s-2.4,7.4-7.3,7.4H405.7c-2.4,0-7.3-2.5-7.3-7.4S400.8,449.6,405.7,449.6z M405.7,491.4h161.4
			c2.4,0,7.3,2.5,7.3,7.4s-2.4,7.4-7.3,7.4H405.7c-2.4,0-7.3-2.5-7.3-7.4S400.8,491.4,405.7,491.4z M405.7,533.1h207.8
			c2.4,0,7.3,2.5,7.3,7.4c0,2.5-2.4,7.4-7.3,7.4H405.7c-2.4,0-7.3-2.5-7.3-7.4C398.4,535.6,400.8,533.1,405.7,533.1z"/>
	</g>
</g>
<g id="图层_21" class="st0">
	<g class="st1">
		<path class="st2" d="M682.2,172c0-19.7-14.7-34.4-34.4-34.4h-565c-19.7,0-34.4,14.7-34.4,34.4v46.7h633.7V172z M112.4,194.1
			c-7.4,0-14.7-7.4-14.7-14.7c0-7.4,7.4-14.7,14.7-14.7c7.4,0,14.7,7.4,14.7,14.7C127.1,186.8,119.7,194.1,112.4,194.1z
			 M176.2,194.1c-7.4,0-14.7-7.4-14.7-14.7c0-7.4,7.4-14.7,14.7-14.7c7.4,0,14.7,7.4,14.7,14.7C191,186.8,183.6,194.1,176.2,194.1z"
			/>
		<path class="st2" d="M682.2,233.5H48.5v171.9h633.7V233.5z M102.5,375.9c0,2.5-2.5,2.5-2.5,2.5H87.8c-2.5,0-2.5-2.5-2.5-2.5v-24.6
			c0-2.5,2.5-2.5,2.5-2.5h12.3c2.5,0,2.5,2.5,2.5,2.5V375.9z M149.2,375.9c0,2.5-2.5,2.5-2.5,2.5h-12.3c-2.5,0-2.5-2.5-2.5-2.5
			v-41.8c0-2.5,2.5-2.5,2.5-2.5h12.3c2.5,0,2.5,2.5,2.5,2.5V375.9z M193.4,375.9c0,2.5-2.5,2.5-2.5,2.5h-12.3
			c-2.5,0-2.5-2.5-2.5-2.5v-68.8c0-2.5,2.5-2.5,2.5-2.5H191c2.5,0,2.5,2.5,2.5,2.5V375.9z M240.1,375.9c0,2.5-2.5,2.5-2.5,2.5h-12.3
			c-2.5,0-2.5-2.5-2.5-2.5v-24.6c0-2.5,2.5-2.5,2.5-2.5h12.3c2.5,0,2.5,2.5,2.5,2.5V375.9z M284.3,375.9c0,2.5-2.5,2.5-2.5,2.5
			h-12.3c-2.5,0-2.5-2.5-2.5-2.5v-41.8c0-2.5,2.5-2.5,2.5-2.5h12.3c2.5,0,2.5,2.5,2.5,2.5V375.9z M328.5,375.9
			c0,2.5-2.5,2.5-2.5,2.5h-12.3c-2.5,0-2.5-2.5-2.5-2.5v-68.8c0-2.5,2.5-2.5,2.5-2.5h12.3c2.5,0,2.5,2.5,2.5,2.5V375.9z
			 M333.4,265.4l-12.3,17.2h-2.5l-2.5-7.4l-68.8,29.5H245l-59-24.6l-86,46.7c0,0,0,0-2.5,0s-2.5,0-2.5-2.5c0-2.5,0-4.9,2.5-4.9
			l88.4-46.7h2.5l59,24.6l66.3-27l-2.5-4.9c0-2.5,0-2.5,2.5-2.5l22.1,2.5C333.4,262.9,335.9,265.4,333.4,265.4z"/>
		<path class="st2" d="M46,555.2c0,19.7,14.7,34.4,34.4,34.4h565c19.7,0,34.4-14.7,34.4-34.4V417.7H46L46,555.2L46,555.2z
			 M416.9,454.5c9.8,0,17.2,7.4,17.2,17.2c0,2.5,0,4.9-2.5,7.4l36.8,31.9c2.5-2.5,7.4-4.9,9.8-4.9c4.9,0,9.8,2.5,14.7,7.4l41.8-22.1
			c0-2.5,0-2.5,0-4.9c0-9.8,7.4-17.2,17.2-17.2s17.2,7.4,17.2,17.2c0,2.5,0,4.9,0,4.9l31.9,19.7c2.5-2.5,7.4-4.9,9.8-4.9
			c7.4,0,14.7,7.4,14.7,14.7c0,7.4-7.4,14.7-14.7,14.7c-7.4,0-14.7-7.4-14.7-14.7c0-2.5,0-2.5,0-4.9l-31.9-19.7
			c-2.5,2.5-7.4,4.9-12.3,4.9c-4.9,0-9.8-2.5-12.3-4.9L498,518.4c0,2.5,0,2.5,0,4.9c0,9.8-7.4,17.2-17.2,17.2
			c-9.8,0-17.2-7.4-17.2-17.2c0-2.5,0-7.4,2.5-9.8l-36.8-31.9c-2.5,2.5-4.9,2.5-9.8,2.5c-9.8,0-17.2-7.4-17.2-17.2
			C402.2,457,407.1,454.5,416.9,454.5z"/>
	</g>
</g>
<g id="图层_22" class="st0">
	<g class="st1">
		<path class="st2" d="M255.7,142.6H128.8c-9.9,0-18.4,7-19.8,16.4L56.4,489.3h45.7l44.3-224.9c0.9-4.7,5.9-8.1,11.6-8.1h54.9
			l-31.6-25c-4.7-3.7-4.8-9.9-0.3-13.7c4.5-3.9,12-3.9,16.7-0.3l49.2,39c2.3,1.8,3.6,4.4,3.6,7s-1.3,5.2-3.6,7l-3.2,2.5
			c0,0,0,0-0.1,0.1L203.1,305c-2.3,1.8-5.2,2.7-8.2,2.7c-3.1,0-6.2-1-8.5-3c-4.5-3.9-4.4-10,0.3-13.7l19.5-15.5h-38.1l-44.3,224.9
			c-0.9,4.7-5.9,8.1-11.6,8.1H53.3L49.6,532l-5.3,34.6c-1.8,11.6,7.6,22,19.8,22h127c9.9,0,18.4-7,19.8-16.4l64.6-407.6
			C277.3,153,267.9,142.6,255.7,142.6z"/>
		<path class="st2" d="M456.8,142.6H329.9c-9.9,0-18.4,7-19.8,16.4l-52.5,330.2h45.7l44.3-224.9c0.9-4.7,5.9-8.1,11.6-8.1h54.9
			l-31.6-25c-4.7-3.7-4.8-9.9-0.3-13.7c4.5-3.9,12-3.9,16.7-0.3l49.2,39c2.3,1.8,3.6,4.4,3.6,7s-1.3,5.2-3.6,7l-3.2,2.5
			c0,0,0,0-0.1,0.1L404.2,305c-2.3,1.8-5.2,2.7-8.2,2.7c-3.1,0-6.2-1-8.5-3c-4.5-3.9-4.4-10,0.3-13.7l19.5-15.5h-38.1l-44.3,224.9
			c-0.9,4.7-5.9,8.1-11.6,8.1h-58.8l-3.7,23.5l-5.3,34.5c-1.8,11.6,7.6,22,19.8,22h126.9c9.9,0,18.4-7,19.8-16.4l64.6-407.5
			C478.4,153,469,142.6,456.8,142.6z"/>
		<path class="st2" d="M664,138.6H537.1c-9.9,0-18.4,7-19.8,16.4l-53.2,334.3h46.3l44.3-224.9c0.9-4.7,5.9-8.1,11.6-8.1h54.9
			l-31.6-25c-4.7-3.7-4.8-9.9-0.3-13.7c4.5-3.9,12-3.9,16.7-0.3l49.2,39c2.3,1.8,3.6,4.4,3.6,7s-1.3,5.2-3.6,7l-3.2,2.5
			c0,0,0,0-0.1,0.1l-40.6,32.2c-2.3,1.8-5.2,2.7-8.2,2.7c-3.1,0-6.2-1-8.5-3c-4.5-3.9-4.4-10,0.3-13.7l19.5-15.5h-38.1L532,500.5
			c-0.9,4.7-5.9,8.1-11.6,8.1h-59.5l-3.1,19.5l-5.3,34.5c-1.8,11.6,7.6,22,19.8,22h126.9c9.9,0,18.4-7,19.8-16.4l64.9-407.6
			C685.7,149,676.3,138.6,664,138.6z"/>
	</g>
</g>
</svg>
