<?xml version="1.0" encoding="utf-8"?>
<!-- Generator: Adobe Illustrator 19.2.1, SVG Export Plug-In . SVG Version: 6.00 Build 0)  -->
<svg version="1.1" id="图层_1" xmlns="http://www.w3.org/2000/svg" xmlns:xlink="http://www.w3.org/1999/xlink" x="0px" y="0px"
	 viewBox="0 0 800 800" style="enable-background:new 0 0 800 800;" xml:space="preserve">
<style type="text/css">
	.st0{fill:#3371E3;}
	.st1{fill:#FFFFFF;}
	.st2{display:none;fill:#FFFFFF;}
	.st3{display:none;fill:#3371E3;}
</style>
<g>
	<path class="st0" d="M195.5,696.3L45.6,436.6c-11.2-19.4-11.2-43.5,0-63L195.5,114c11.2-19.4,32-31.5,54.5-31.5h299.9
		c22.5,0,43.3,12,54.5,31.5l149.9,259.6c11.2,19.4,11.2,43.5,0,63L604.5,696.3c-11.2,19.4-32,31.5-54.5,31.5H250.1
		C227.5,727.8,206.7,715.7,195.5,696.3z"/>
	<path class="st1" d="M435.2,246.7v23.8c0,0.7,0.6,1.5,1.2,1.5c58.1,12.3,101.9,64.2,101.9,125.8c0,15.9-3.1,32.6-8.3,46.8h-63.8
		c10-12.5,16-29.7,16-46.8c0-30.1-18.5-56-44.9-67c-1-0.5-2.2,0.2-2.2,1.5v20.9c0,1.5-1.7,2.1-2.7,1.1l-53.3-53.3
		c-0.6-0.6-0.6-1.6,0-2.3l53.3-53.3C433.5,244.6,435.2,245.2,435.2,246.7z M217.5,526.6v-56.2h30.9c0.6,0,1,0.2,1.3,0.7
		c12.2,21.5,27.3,39.6,48,52.6c1.3,0.9,0.7,2.9-0.9,2.9H217.5L217.5,526.6z M546.3,551.9v-23.7c0-0.9-0.6-1.6-1.6-1.6H402.1h-15.9
		c-44,0-83.1-22.2-106.2-56.2c-14.2-20.7-22.4-45.6-22.4-72.5c0-65,48.5-118.9,111.2-127.4c1.5-0.2,2.3,1.6,1.3,2.7L344.4,299
		c-0.6,0.6-0.6,1.6,0,2.3l24.2,24.2c0.9,0.9,0.5,2.3-0.6,2.7c-31.2,8.2-54.3,36.7-54,70.5c0.2,40,33.5,72,73.5,72h14.8h106.2h36.4
		c0.9,0,1.6-0.6,1.6-1.6v-27.5l56,56c0.6,0.6,0.6,1.6,0,2.3L549,553.4C548,554,546.3,553.2,546.3,551.9z"/>
</g>
<circle class="st2" cx="586.5" cy="610.1" r="175.2"/>
<path class="st3" d="M676.7,536.5c-0.8-2.2-3.7-2.8-5.4-1.2c-3.1,3.1-7.3,6.9-12.8,12c-8.4,8.4-20.1,8.4-28.5,0s-8.4-20.1,0-27.9
	c4.8-4.8,9.7-10.1,12.6-13.5c1.5-1.7,0.8-4.4-1.3-5.2c-21.2-8-46.2-3.5-63.1,13.5c-16.9,16.9-21.4,40.2-14.3,61.6l-69.6,69.6
	c-10.6,10.6-10.8,28.1,0,38.4c10.4,10,26.9,9.9,37.2-0.4l70.7-70c20.8,7.1,44.7,1.9,61.6-14.3C679.9,581.7,684.4,557.5,676.7,536.5z
	"/>
</svg>
