<?xml version="1.0" encoding="utf-8"?>
<!-- Generator: Adobe Illustrator 19.2.1, SVG Export Plug-In . SVG Version: 6.00 Build 0)  -->
<svg version="1.1" id="图层_1" xmlns="http://www.w3.org/2000/svg" xmlns:xlink="http://www.w3.org/1999/xlink" x="0px" y="0px"
	 viewBox="0 0 800 800" style="enable-background:new 0 0 800 800;" xml:space="preserve">
<style type="text/css">
	.st0{fill:#3371E3;}
	.st1{fill:#FFFFFF;}
	.st2{clip-path:url(#SVGID_2_);}
	.st3{clip-path:url(#SVGID_4_);}
	.st4{clip-path:url(#SVGID_6_);}
	.st5{clip-path:url(#SVGID_8_);}
	.st6{clip-path:url(#SVGID_10_);}
	.st7{clip-path:url(#SVGID_12_);}
	.st8{fill:#FFFFFF;stroke:#FFFFFF;stroke-width:10.2766;stroke-miterlimit:10;}
	.st9{clip-path:url(#SVGID_14_);}
	.st10{fill:#3371E3;stroke:#FFFFFF;stroke-width:8;stroke-miterlimit:10;}
	.st11{clip-path:url(#SVGID_14_);fill:#FFFFFF;}
	.st12{clip-path:url(#SVGID_16_);}
	.st13{clip-path:url(#SVGID_18_);}
	.st14{clip-path:url(#SVGID_20_);}
	.st15{clip-path:url(#SVGID_22_);}
	.st16{clip-path:url(#SVGID_22_);fill:#FFFFFF;}
	.st17{clip-path:url(#SVGID_24_);}
	.st18{clip-path:url(#SVGID_26_);}
	.st19{clip-path:url(#SVGID_28_);}
	.st20{clip-path:url(#SVGID_30_);}
	.st21{clip-path:url(#SVGID_32_);}
	.st22{clip-path:url(#SVGID_34_);}
	.st23{fill:none;stroke:#FFFFFF;stroke-width:30.5101;stroke-miterlimit:10;}
	.st24{fill:none;stroke:#3371E3;stroke-width:102.9131;stroke-miterlimit:10;}
	.st25{clip-path:url(#SVGID_36_);}
	.st26{fill:none;stroke:#FFFFFF;stroke-width:19.7703;stroke-linejoin:round;stroke-miterlimit:10;}
	.st27{fill:none;stroke:#FFFFFF;stroke-width:19.7703;stroke-linecap:round;stroke-linejoin:round;stroke-miterlimit:10;}
	.st28{clip-path:url(#SVGID_38_);}
	.st29{fill:#FFFFFF;stroke:#FFFFFF;stroke-width:24.7895;stroke-miterlimit:10;}
	.st30{fill:none;stroke:#FFFFFF;stroke-width:22.8826;stroke-miterlimit:10;}
	.st31{clip-path:url(#SVGID_40_);}
	.st32{clip-path:url(#SVGID_42_);}
	.st33{clip-path:url(#SVGID_42_);fill:#FFFFFF;}
	.st34{clip-path:url(#SVGID_42_);fill:#3371E3;}
	.st35{clip-path:url(#SVGID_44_);}
	.st36{clip-path:url(#SVGID_46_);}
	.st37{clip-path:url(#SVGID_48_);}
	.st38{clip-path:url(#SVGID_50_);}
	.st39{fill:none;stroke:#FFFFFF;stroke-width:28;stroke-linecap:round;stroke-linejoin:round;stroke-miterlimit:10;}
	.st40{clip-path:url(#SVGID_50_);fill:#FFFFFF;}
	.st41{clip-path:url(#SVGID_52_);fill:none;stroke:#3371E3;stroke-width:36;stroke-miterlimit:10;}
	.st42{clip-path:url(#SVGID_52_);fill:#3371E3;}
	.st43{clip-path:url(#SVGID_52_);}
	
		.st44{clip-path:url(#SVGID_52_);fill:none;stroke:#3371E3;stroke-width:28;stroke-linecap:round;stroke-linejoin:round;stroke-miterlimit:10;}
	.st45{clip-path:url(#SVGID_52_);fill:#FFFFFF;}
	.st46{clip-path:url(#SVGID_54_);}
	.st47{fill:none;stroke:#FFFFFF;stroke-width:36;stroke-miterlimit:10;}
	.st48{fill:none;stroke:#FFFFFF;stroke-width:36;stroke-linecap:round;stroke-linejoin:round;stroke-miterlimit:10;}
	.st49{clip-path:url(#SVGID_54_);fill:#FFFFFF;}
	.st50{clip-path:url(#SVGID_56_);fill:none;stroke:#3371E3;stroke-width:50;stroke-miterlimit:10;}
	.st51{clip-path:url(#SVGID_56_);fill:none;stroke:#3371E3;stroke-width:36;stroke-miterlimit:10;}
	
		.st52{clip-path:url(#SVGID_56_);fill:none;stroke:#3371E3;stroke-width:36;stroke-linecap:round;stroke-linejoin:round;stroke-miterlimit:10;}
	.st53{clip-path:url(#SVGID_56_);fill:#3371E3;}
	.st54{clip-path:url(#SVGID_56_);fill:#FFFFFF;}
	.st55{clip-path:url(#SVGID_56_);}
	.st56{clip-path:url(#SVGID_58_);}
	.st57{fill:#3371E3;stroke:#3371E3;stroke-width:24;stroke-miterlimit:10;}
	.st58{clip-path:url(#SVGID_60_);fill:#3371E3;}
	.st59{clip-path:url(#SVGID_62_);fill:none;stroke:#3371E3;stroke-width:60;stroke-miterlimit:10;}
	.st60{clip-path:url(#SVGID_62_);fill:#3371E3;}
	.st61{clip-path:url(#SVGID_62_);fill:#3371E3;stroke:#3371E3;stroke-width:5;stroke-miterlimit:10;}
	.st62{clip-path:url(#SVGID_64_);fill:none;stroke:#3371E3;stroke-width:60;stroke-miterlimit:10;}
	.st63{clip-path:url(#SVGID_64_);fill:#3371E3;}
	.st64{clip-path:url(#SVGID_64_);}
	.st65{clip-path:url(#SVGID_66_);fill:#3371E3;}
	.st66{clip-path:url(#SVGID_66_);fill:none;stroke:#3371E3;stroke-width:48;stroke-miterlimit:10;}
	.st67{clip-path:url(#SVGID_66_);fill:#FFFFFF;}
	.st68{clip-path:url(#SVGID_66_);}
</style>
<g>
	<defs>
		<rect id="SVGID_53_" width="800" height="800"/>
	</defs>
	<clipPath id="SVGID_2_">
		<use xlink:href="#SVGID_53_"  style="overflow:visible;"/>
	</clipPath>
	<g class="st2">
		<path class="st0" d="M446.7,81H188.6c-35.6,0-64.4,28.8-64.4,64.4v514.9c0,35.6,28.8,64.4,64.4,64.4h394.3
			c35.6,0,64.4-28.8,64.4-64.4v-380c0-17.1-6.6-33.5-18.5-45.8l-124-128.7C489.6,89.9,468.6,81,446.7,81z"/>
		<path class="st47" d="M450.5,21v200.9c0,29,23.5,52.6,52.6,52.6h190.4"/>
		<g>
			<line class="st48" x1="328" y1="372.4" x2="511.8" y2="372.4"/>
			<line class="st48" x1="223.9" y1="231.2" x2="355.8" y2="231.2"/>
			<line class="st48" x1="328" y1="482.7" x2="511.8" y2="482.7"/>
			<line class="st48" x1="328" y1="593.1" x2="511.8" y2="593.1"/>
			<line class="st48" x1="223.9" y1="372.4" x2="255.9" y2="372.4"/>
			<line class="st48" x1="223.9" y1="482.7" x2="255.9" y2="482.7"/>
			<line class="st48" x1="223.9" y1="593.1" x2="255.9" y2="593.1"/>
		</g>
	</g>
	<circle style="clip-path:url(#SVGID_2_);fill:#FFFFFF;" cx="579.9" cy="648.6" r="181.8"/>
	<g class="st2">
		<path class="st0" d="M582.2,657.4l59-56.9l2.4,2.5c2.1,2.2,5.2,3.2,8.5,2.8c3.3-0.4,6.4-2.2,8.3-4.9l31.5-45
			c1.4-1.9,3.9-7-1.5-12.7l-17.4-18c-5.1-5.2-9.5-4-12.4-2.2l-46.8,30.5c-2.7,1.7-4.4,4.5-4.9,7.6c-0.5,3.2,0.5,6.4,2.7,8.7l3,3.1
			l-59,56.9L542.2,616l-78.6,75.9c-16.8,16.2-18.6,39.7-4.3,54.6l0.3,0.3c15.1,15.6,41.3,15.8,57.3,0.4l78.6-75.9L582.2,657.4z"/>
		<polygon class="st1" points="594.2,679.9 603.1,669.4 544.6,610.5 536.1,619.7 		"/>
		<polygon class="st1" points="641.2,600.5 636.1,613.6 602.2,579.5 614.5,572.8 		"/>
	</g>
</g>
</svg>
