<?xml version="1.0" encoding="utf-8"?>
<!-- Generator: Adobe Illustrator 19.2.1, SVG Export Plug-In . SVG Version: 6.00 Build 0)  -->
<svg version="1.1" id="图层_1" xmlns="http://www.w3.org/2000/svg" xmlns:xlink="http://www.w3.org/1999/xlink" x="0px" y="0px"
	 viewBox="0 0 800 800" style="enable-background:new 0 0 800 800;" xml:space="preserve">
<style type="text/css">
	.st0{fill:#3371E3;}
	.st1{fill:#FFFFFF;}
	.st2{clip-path:url(#SVGID_2_);}
	.st3{clip-path:url(#SVGID_4_);}
	.st4{clip-path:url(#SVGID_6_);}
	.st5{clip-path:url(#SVGID_8_);}
	.st6{clip-path:url(#SVGID_10_);}
	.st7{clip-path:url(#SVGID_12_);}
	.st8{fill:#FFFFFF;stroke:#FFFFFF;stroke-width:10.2766;stroke-miterlimit:10;}
	.st9{clip-path:url(#SVGID_14_);}
	.st10{fill:#3371E3;stroke:#FFFFFF;stroke-width:8;stroke-miterlimit:10;}
	.st11{clip-path:url(#SVGID_14_);fill:#FFFFFF;}
	.st12{clip-path:url(#SVGID_16_);}
	.st13{clip-path:url(#SVGID_18_);}
	.st14{clip-path:url(#SVGID_20_);}
	.st15{clip-path:url(#SVGID_22_);}
	.st16{clip-path:url(#SVGID_22_);fill:#FFFFFF;}
	.st17{clip-path:url(#SVGID_24_);}
	.st18{clip-path:url(#SVGID_26_);}
	.st19{clip-path:url(#SVGID_28_);}
	.st20{clip-path:url(#SVGID_30_);}
	.st21{clip-path:url(#SVGID_32_);}
	.st22{clip-path:url(#SVGID_34_);}
	.st23{fill:none;stroke:#FFFFFF;stroke-width:30.5101;stroke-miterlimit:10;}
	.st24{fill:none;stroke:#3371E3;stroke-width:102.9131;stroke-miterlimit:10;}
	.st25{clip-path:url(#SVGID_36_);}
	.st26{fill:none;stroke:#FFFFFF;stroke-width:19.7703;stroke-linejoin:round;stroke-miterlimit:10;}
	.st27{fill:none;stroke:#FFFFFF;stroke-width:19.7703;stroke-linecap:round;stroke-linejoin:round;stroke-miterlimit:10;}
	.st28{clip-path:url(#SVGID_38_);}
	.st29{fill:#FFFFFF;stroke:#FFFFFF;stroke-width:24.7895;stroke-miterlimit:10;}
	.st30{fill:none;stroke:#FFFFFF;stroke-width:22.8826;stroke-miterlimit:10;}
	.st31{clip-path:url(#SVGID_40_);}
	.st32{clip-path:url(#SVGID_42_);}
	.st33{clip-path:url(#SVGID_42_);fill:#FFFFFF;}
	.st34{clip-path:url(#SVGID_42_);fill:#3371E3;}
	.st35{clip-path:url(#SVGID_44_);}
	.st36{clip-path:url(#SVGID_46_);}
	.st37{clip-path:url(#SVGID_48_);}
	.st38{clip-path:url(#SVGID_50_);}
	.st39{fill:none;stroke:#FFFFFF;stroke-width:28;stroke-linecap:round;stroke-linejoin:round;stroke-miterlimit:10;}
	.st40{clip-path:url(#SVGID_50_);fill:#FFFFFF;}
	.st41{clip-path:url(#SVGID_52_);fill:none;stroke:#3371E3;stroke-width:36;stroke-miterlimit:10;}
	.st42{clip-path:url(#SVGID_52_);fill:#3371E3;}
	.st43{clip-path:url(#SVGID_52_);}
	
		.st44{clip-path:url(#SVGID_52_);fill:none;stroke:#3371E3;stroke-width:28;stroke-linecap:round;stroke-linejoin:round;stroke-miterlimit:10;}
	.st45{clip-path:url(#SVGID_52_);fill:#FFFFFF;}
	.st46{clip-path:url(#SVGID_54_);}
	.st47{fill:none;stroke:#FFFFFF;stroke-width:36;stroke-miterlimit:10;}
	.st48{fill:none;stroke:#FFFFFF;stroke-width:36;stroke-linecap:round;stroke-linejoin:round;stroke-miterlimit:10;}
	.st49{clip-path:url(#SVGID_54_);fill:#FFFFFF;}
	.st50{clip-path:url(#SVGID_56_);fill:none;stroke:#3371E3;stroke-width:50;stroke-miterlimit:10;}
	.st51{clip-path:url(#SVGID_56_);fill:none;stroke:#3371E3;stroke-width:36;stroke-miterlimit:10;}
	
		.st52{clip-path:url(#SVGID_56_);fill:none;stroke:#3371E3;stroke-width:36;stroke-linecap:round;stroke-linejoin:round;stroke-miterlimit:10;}
	.st53{clip-path:url(#SVGID_56_);fill:#3371E3;}
	.st54{clip-path:url(#SVGID_56_);fill:#FFFFFF;}
	.st55{clip-path:url(#SVGID_56_);}
	.st56{clip-path:url(#SVGID_58_);}
	.st57{fill:#3371E3;stroke:#3371E3;stroke-width:24;stroke-miterlimit:10;}
	.st58{clip-path:url(#SVGID_60_);fill:#3371E3;}
	.st59{clip-path:url(#SVGID_62_);fill:none;stroke:#3371E3;stroke-width:60;stroke-miterlimit:10;}
	.st60{clip-path:url(#SVGID_62_);fill:#3371E3;}
	.st61{clip-path:url(#SVGID_62_);fill:#3371E3;stroke:#3371E3;stroke-width:5;stroke-miterlimit:10;}
	.st62{clip-path:url(#SVGID_64_);fill:none;stroke:#3371E3;stroke-width:60;stroke-miterlimit:10;}
	.st63{clip-path:url(#SVGID_64_);fill:#3371E3;}
	.st64{clip-path:url(#SVGID_64_);}
	.st65{clip-path:url(#SVGID_66_);fill:#3371E3;}
	.st66{clip-path:url(#SVGID_66_);fill:none;stroke:#3371E3;stroke-width:48;stroke-miterlimit:10;}
	.st67{clip-path:url(#SVGID_66_);fill:#FFFFFF;}
	.st68{clip-path:url(#SVGID_66_);}
</style>
<g>
	<defs>
		<rect id="SVGID_49_" width="800" height="800"/>
	</defs>
	<clipPath id="SVGID_2_">
		<use xlink:href="#SVGID_49_"  style="overflow:visible;"/>
	</clipPath>
	<g class="st2">
		<path class="st0" d="M577.6,729H211.3c-36.9,0-66.9-29.9-66.9-66.9V223.6c0-36.9,29.9-66.9,66.9-66.9h366.3
			c36.9,0,66.9,29.9,66.9,66.9v438.5C644.4,699,614.5,729,577.6,729z"/>
		<g>
			<path class="st0" d="M287.1,247.5c-20.7,0-37.6-16.9-37.6-37.6v-30.1c0-34.1,27.7-61.8,61.8-61.8h166.1
				c34.1,0,61.8,27.7,61.8,61.8v30.1c0,20.7-16.9,37.6-37.6,37.6H287.1z"/>
			<path class="st1" d="M477.5,133c25.9,0,46.8,21,46.8,46.8v30.1c0,12.5-10.1,22.6-22.6,22.6H287.1c-12.5,0-22.6-10.1-22.6-22.6
				v-30.1c0-25.9,21-46.8,46.8-46.8H477.5 M477.5,103H311.4c-42.4,0-76.8,34.5-76.8,76.8v30.1c0,29,23.6,52.6,52.6,52.6h214.6
				c29,0,52.6-23.6,52.6-52.6v-30.1C554.3,137.5,519.8,103,477.5,103L477.5,103z"/>
		</g>
		<g>
			<path class="st1" d="M394.4,179.4c-30.9,0-56-25.1-56-56s25.1-56,56-56s56,25.1,56,56S425.3,179.4,394.4,179.4z"/>
			<path class="st0" d="M394.4,87.4c19.9,0,36,16.2,36,36s-16.2,36-36,36s-36-16.2-36-36S374.6,87.4,394.4,87.4 M394.4,47.4
				c-42,0-76,34-76,76c0,42,34,76,76,76c42,0,76-34,76-76C470.4,81.4,436.4,47.4,394.4,47.4L394.4,47.4z"/>
		</g>
		<line class="st39" x1="413.4" y1="345.1" x2="513.7" y2="345.1"/>
		<line class="st39" x1="413.4" y1="438.7" x2="513.7" y2="438.7"/>
		<line class="st39" x1="243.1" y1="534.9" x2="540.5" y2="534.9"/>
		<line class="st39" x1="243.1" y1="620.1" x2="540.5" y2="620.1"/>
		<g>
			<path class="st1" d="M300.8,434.4c-4.3,0-8-3.2-8.5-7.6l-12.1-85.4c-1.9-12.6,8-24,20.7-24c12.8,0,22.6,11.4,20.7,24l-12.1,85.4
				C308.7,431.2,305.1,434.4,300.8,434.4L300.8,434.4z"/>
			<path class="st1" d="M289.2,455.2c0,6.4,5.2,11.7,11.7,11.7c6.4,0,11.7-5.2,11.7-11.7c0,0,0,0,0,0c0-6.4-5.2-11.7-11.7-11.7
				C294.4,443.5,289.2,448.8,289.2,455.2C289.2,455.2,289.2,455.2,289.2,455.2z"/>
		</g>
	</g>
	<circle style="clip-path:url(#SVGID_2_);fill:#FFFFFF;" cx="569.2" cy="643.7" r="180.6"/>
	<g class="st2">
		<path class="st0" d="M566.2,649l58.6-56.5l2.4,2.5c2.1,2.2,5.2,3.2,8.4,2.8c3.3-0.4,6.4-2.2,8.3-4.9l31.2-44.7
			c1.4-1.9,3.9-7-1.5-12.6l-17.3-17.9c-5-5.2-9.5-4-12.3-2.2l-46.5,30.3c-2.6,1.7-4.4,4.5-4.9,7.5c-0.5,3.2,0.5,6.3,2.7,8.6l2.9,3.1
			l-58.6,56.6l-13.2-13.7l-78.1,75.4c-16.7,16.1-18.5,39.4-4.2,54.2l0.3,0.3c15,15.5,41,15.7,56.9,0.4l78.1-75.4L566.2,649z"/>
		<polygon class="st1" points="578.1,671.4 587,661 528.9,602.5 520.4,611.6 		"/>
		<polygon class="st1" points="624.8,592.5 619.8,605.6 586.1,571.7 598.3,565.1 		"/>
	</g>
</g>
</svg>
