<?xml version="1.0" encoding="utf-8"?>
<!-- Generator: Adobe Illustrator 19.2.1, SVG Export Plug-In . SVG Version: 6.00 Build 0)  -->
<svg version="1.1" id="图层_1" xmlns="http://www.w3.org/2000/svg" xmlns:xlink="http://www.w3.org/1999/xlink" x="0px" y="0px"
	 viewBox="0 0 800 800" style="enable-background:new 0 0 800 800;" xml:space="preserve">
<style type="text/css">
	.st0{clip-path:url(#SVGID_2_);}
	.st1{fill:#3371E3;}
	.st2{clip-path:url(#SVGID_4_);}
	.st3{fill:#FFFFFF;}
	.st4{clip-path:url(#SVGID_6_);}
	.st5{clip-path:url(#SVGID_8_);}
	.st6{clip-path:url(#SVGID_10_);}
	.st7{clip-path:url(#SVGID_12_);}
	.st8{fill:#FFFFFF;stroke:#FFFFFF;stroke-width:10.2766;stroke-miterlimit:10;}
	.st9{clip-path:url(#SVGID_14_);}
	.st10{fill:#3371E3;stroke:#FFFFFF;stroke-width:8;stroke-miterlimit:10;}
	.st11{clip-path:url(#SVGID_14_);fill:#FFFFFF;}
	.st12{clip-path:url(#SVGID_16_);}
	.st13{clip-path:url(#SVGID_18_);}
	.st14{clip-path:url(#SVGID_20_);}
	.st15{clip-path:url(#SVGID_22_);}
	.st16{clip-path:url(#SVGID_22_);fill:#FFFFFF;}
	.st17{clip-path:url(#SVGID_24_);}
	.st18{clip-path:url(#SVGID_26_);}
	.st19{clip-path:url(#SVGID_28_);}
	.st20{clip-path:url(#SVGID_30_);}
	.st21{clip-path:url(#SVGID_32_);}
	.st22{clip-path:url(#SVGID_34_);}
	.st23{fill:none;stroke:#FFFFFF;stroke-width:30.5101;stroke-miterlimit:10;}
	.st24{fill:none;stroke:#3371E3;stroke-width:102.9131;stroke-miterlimit:10;}
	.st25{clip-path:url(#SVGID_36_);}
	.st26{fill:none;stroke:#FFFFFF;stroke-width:19.7703;stroke-linejoin:round;stroke-miterlimit:10;}
	.st27{fill:none;stroke:#FFFFFF;stroke-width:19.7703;stroke-linecap:round;stroke-linejoin:round;stroke-miterlimit:10;}
	.st28{clip-path:url(#SVGID_38_);}
	.st29{fill:#FFFFFF;stroke:#FFFFFF;stroke-width:24.7895;stroke-miterlimit:10;}
	.st30{fill:none;stroke:#FFFFFF;stroke-width:22.8826;stroke-miterlimit:10;}
	.st31{clip-path:url(#SVGID_40_);}
	.st32{clip-path:url(#SVGID_42_);}
	.st33{clip-path:url(#SVGID_42_);fill:#FFFFFF;}
	.st34{clip-path:url(#SVGID_42_);fill:#3371E3;}
	.st35{clip-path:url(#SVGID_44_);}
	.st36{clip-path:url(#SVGID_46_);}
	.st37{clip-path:url(#SVGID_48_);}
	.st38{clip-path:url(#SVGID_50_);}
	.st39{fill:none;stroke:#FFFFFF;stroke-width:28;stroke-linecap:round;stroke-linejoin:round;stroke-miterlimit:10;}
	.st40{clip-path:url(#SVGID_50_);fill:#FFFFFF;}
	.st41{clip-path:url(#SVGID_52_);}
	.st42{fill:none;stroke:#FFFFFF;stroke-width:36;stroke-miterlimit:10;}
	.st43{fill:none;stroke:#FFFFFF;stroke-width:36;stroke-linecap:round;stroke-linejoin:round;stroke-miterlimit:10;}
	.st44{clip-path:url(#SVGID_52_);fill:#FFFFFF;}
	.st45{clip-path:url(#SVGID_54_);}
	.st46{fill:#3371E3;stroke:#3371E3;stroke-width:24;stroke-miterlimit:10;}
	.st47{clip-path:url(#SVGID_56_);fill:#3371E3;}
	.st48{clip-path:url(#SVGID_58_);fill:none;stroke:#3371E3;stroke-width:60;stroke-miterlimit:10;}
	.st49{clip-path:url(#SVGID_58_);fill:#3371E3;}
	.st50{clip-path:url(#SVGID_58_);fill:#3371E3;stroke:#3371E3;stroke-width:5;stroke-miterlimit:10;}
	.st51{clip-path:url(#SVGID_60_);fill:none;stroke:#3371E3;stroke-width:60;stroke-miterlimit:10;}
	.st52{clip-path:url(#SVGID_60_);fill:#3371E3;}
	.st53{clip-path:url(#SVGID_60_);}
	.st54{display:none;fill:#3371E3;}
	.st55{clip-path:url(#SVGID_62_);}
	.st56{clip-path:url(#SVGID_64_);fill:#3371E3;}
	.st57{clip-path:url(#SVGID_66_);fill:#3371E3;}
	.st58{clip-path:url(#SVGID_68_);fill:#3371E3;}
	.st59{clip-path:url(#SVGID_70_);fill:#3371E3;}
	.st60{clip-path:url(#SVGID_72_);}
	.st61{clip-path:url(#SVGID_74_);}
	.st62{fill:none;stroke:#3371E3;stroke-width:14;stroke-miterlimit:10;}
	.st63{fill:none;stroke:#3371E3;stroke-width:14;stroke-miterlimit:10;stroke-dasharray:8.6604,8.6604;}
	.st64{clip-path:url(#SVGID_76_);}
	.st65{fill:none;stroke:#3371E3;stroke-width:14;stroke-miterlimit:10;stroke-dasharray:8.8853,8.8853;}
	.st66{clip-path:url(#SVGID_78_);}
	.st67{fill:none;stroke:#3371E3;stroke-width:14;stroke-miterlimit:10;stroke-dasharray:9.163,9.163;}
	.st68{fill:none;stroke:#3371E3;stroke-width:14;stroke-miterlimit:10;stroke-dasharray:9.2296,9.2296;}
	.st69{clip-path:url(#SVGID_80_);fill:#FFFFFF;}
	.st70{clip-path:url(#SVGID_82_);fill:#3371E3;}
	.st71{clip-path:url(#SVGID_84_);}
	.st72{clip-path:url(#SVGID_86_);fill:none;stroke:#3371E3;stroke-miterlimit:10;}
	.st73{clip-path:url(#SVGID_88_);fill:none;stroke:#3371E3;stroke-miterlimit:10;}
	.st74{display:none;}
	.st75{display:inline;fill:none;stroke:#3371E3;stroke-width:60;stroke-miterlimit:10;}
	.st76{clip-path:url(#SVGID_90_);}
	.st77{clip-path:url(#SVGID_92_);fill:#3974EA;}
	.st78{clip-path:url(#SVGID_92_);}
	.st79{clip-path:url(#SVGID_92_);fill:#FFFFFF;}
</style>
<g>
	<defs>
		<rect id="SVGID_89_" x="0" width="800" height="800"/>
	</defs>
	<clipPath id="SVGID_2_">
		<use xlink:href="#SVGID_89_"  style="overflow:visible;"/>
	</clipPath>
	<g class="st0">
		<path class="st1" d="M629.2,522.8C583.8,607.4,495.9,660,400,660c-69.4,0-134.7-27-183.8-76.2c-43.4-43.4-69.5-99.4-75-159.7
			l31.3,27.9c12.4,11,31.3,10,42.4-2.4l0,0c11-12.4,10-31.3-2.4-42.4l-67-59.8l-18.7-16.7c-14.8-13.2-38.6-5.1-42,14.5
			c-1.5,8.4-2.6,16.9-3.4,25.5c-0.9,9.7-1.3,19.4-1.3,29.2c0,85.5,33.3,165.8,93.7,226.3C234.2,686.7,314.5,720,400,720
			c118.1,0,226.2-64.7,282.1-168.8L629.2,522.8z"/>
		<path class="st1" d="M626.3,173.7C565.8,113.3,485.5,80,400,80c-56.3,0-111.8,14.9-160.2,43c-47,27.3-86.6,66.3-114.5,113
			l51.5,30.8c22.7-37.9,54.9-69.7,93.1-91.9C309.2,152.1,354.2,140,400,140c69.4,0,134.7,27,183.8,76.2
			c37.9,37.9,62.6,85.4,72,137.1l-23-21c-12.2-11.2-31.2-10.3-42.4,1.9l0,0c-11.2,12.2-10.3,31.2,1.9,42.4l65.1,59.4l25.7,23.4
			c11.8,10.7,30.9,4.1,33.2-11.7c1.8-12,2.9-24,3.4-36.1c0.1-3.9,0.2-7.7,0.2-11.6C720,314.5,686.7,234.2,626.3,173.7z"/>
	</g>
	<g class="st0">
		<g>
			<rect x="264.7" y="278.3" class="st1" width="68.3" height="52.5"/>
			<rect x="371.6" y="278.3" class="st1" width="163.7" height="52.5"/>
		</g>
		<g>
			<rect x="264.7" y="373.8" class="st1" width="68.3" height="52.5"/>
			<rect x="371.6" y="373.8" class="st1" width="163.7" height="52.5"/>
		</g>
		<g>
			<rect x="264.7" y="469.2" class="st1" width="68.3" height="52.5"/>
			<rect x="371.6" y="469.2" class="st1" width="163.7" height="52.5"/>
		</g>
	</g>
</g>
</svg>
