<?xml version="1.0" encoding="utf-8"?>
<!-- Generator: Adobe Illustrator 19.2.1, SVG Export Plug-In . SVG Version: 6.00 Build 0)  -->
<svg version="1.1" id="图层_1" xmlns="http://www.w3.org/2000/svg" xmlns:xlink="http://www.w3.org/1999/xlink" x="0px" y="0px"
	 viewBox="0 0 800 800" style="enable-background:new 0 0 800 800;" xml:space="preserve">
<style type="text/css">
	.st0{fill:#3371E3;}
	.st1{fill:#FFFFFF;}
	.st2{clip-path:url(#SVGID_2_);}
	.st3{clip-path:url(#SVGID_4_);}
	.st4{clip-path:url(#SVGID_6_);}
	.st5{clip-path:url(#SVGID_8_);}
	.st6{clip-path:url(#SVGID_10_);}
	.st7{clip-path:url(#SVGID_12_);}
	.st8{fill:#FFFFFF;stroke:#FFFFFF;stroke-width:6.0055;stroke-miterlimit:10;}
	.st9{clip-path:url(#SVGID_14_);}
	.st10{fill:#FFFFFF;stroke:#FFFFFF;stroke-width:10.2766;stroke-miterlimit:10;}
	.st11{clip-path:url(#SVGID_16_);}
	.st12{fill:#3371E3;stroke:#FFFFFF;stroke-width:8;stroke-miterlimit:10;}
	.st13{clip-path:url(#SVGID_16_);fill:#FFFFFF;}
	.st14{clip-path:url(#SVGID_18_);}
	.st15{clip-path:url(#SVGID_20_);}
	.st16{clip-path:url(#SVGID_22_);}
	.st17{clip-path:url(#SVGID_24_);}
	.st18{clip-path:url(#SVGID_24_);fill:#FFFFFF;}
	.st19{clip-path:url(#SVGID_26_);}
	.st20{clip-path:url(#SVGID_28_);}
	.st21{clip-path:url(#SVGID_30_);}
	.st22{clip-path:url(#SVGID_32_);}
	.st23{clip-path:url(#SVGID_34_);}
	.st24{clip-path:url(#SVGID_36_);}
	.st25{fill:none;stroke:#FFFFFF;stroke-width:30.5101;stroke-miterlimit:10;}
	.st26{fill:none;stroke:#3371E3;stroke-width:102.9131;stroke-miterlimit:10;}
	.st27{clip-path:url(#SVGID_38_);}
	.st28{fill:none;stroke:#FFFFFF;stroke-width:19.7703;stroke-linejoin:round;stroke-miterlimit:10;}
	.st29{fill:none;stroke:#FFFFFF;stroke-width:19.7703;stroke-linecap:round;stroke-linejoin:round;stroke-miterlimit:10;}
	.st30{clip-path:url(#SVGID_40_);}
	.st31{fill:#FFFFFF;stroke:#FFFFFF;stroke-width:24.7895;stroke-miterlimit:10;}
	.st32{fill:none;stroke:#FFFFFF;stroke-width:22.8826;stroke-miterlimit:10;}
	.st33{clip-path:url(#SVGID_42_);}
	.st34{clip-path:url(#SVGID_44_);}
	.st35{clip-path:url(#SVGID_44_);fill:#FFFFFF;}
	.st36{clip-path:url(#SVGID_44_);fill:#3371E3;}
	.st37{clip-path:url(#SVGID_46_);}
	.st38{clip-path:url(#SVGID_48_);}
	.st39{clip-path:url(#SVGID_50_);}
	.st40{fill:none;stroke:#3371E3;stroke-width:60;stroke-miterlimit:10;}
	.st41{fill:#3371E3;stroke:#3371E3;stroke-width:5;stroke-miterlimit:10;}
	.st42{fill:#3371E3;stroke:#3371E3;stroke-width:24;stroke-miterlimit:10;}
	.st43{fill:none;stroke:#3371E3;stroke-width:51;stroke-linecap:round;stroke-linejoin:round;stroke-miterlimit:10;}
	.st44{fill:none;stroke:#3371E3;stroke-width:37;stroke-linecap:round;stroke-linejoin:round;stroke-miterlimit:10;}
	.st45{fill:none;stroke:#3371E3;stroke-width:50;stroke-miterlimit:10;}
	.st46{fill:none;stroke:#3371E3;stroke-width:36;stroke-miterlimit:10;}
	.st47{fill:none;stroke:#3371E3;stroke-width:36;stroke-linecap:round;stroke-linejoin:round;stroke-miterlimit:10;}
</style>
<path class="st42" d="M170.2,640.8l-26.9-30.6c-8.7-9.9-7.8-25.1,2.1-33.8l166.3-146.6l58.6,66.5L204,642.9
	C194.1,651.6,178.9,650.7,170.2,640.8z"/>
<path class="st42" d="M660.4,201.9l-23.6-26.8c-2.4-2.7-6.3-3.2-9.3-1.3l-45.1,28.8c-3.2,2-5.6,5-7,8.5l-3.8,9.5
	c-1.5,3.8-3.9,7.1-6.9,9.8L431.5,347.7l31.8,36.1l132.8-117c3.3-2.9,7.2-4.9,11.4-5.8l9.5-2.1c3.9-0.9,7.5-3.1,10-6.2l33.6-41.4
	C662.8,208.5,662.7,204.5,660.4,201.9z"/>
<path class="st0" d="M501.5,609.9c0-0.6,0-1.1,0-1.7c-0.2-17.8,7.3-35.8,21.9-48.7c14.6-12.9,33.4-18,51-15.6
	c0.6,0.1,1.1,0.2,1.7,0.3l50.7,57.5l5.6,6.4c9.1-30,2.9-63.8-19.3-89c-26.8-30.4-69-39.2-104.6-25.1L331.2,293
	c18.5-33.6,15.1-76.5-11.7-106.9c-22.2-25.2-55-35.6-85.9-30.3l1.9,2.2l53.5,60.7c0,0.6,0.1,1.2,0.1,1.7
	c0.7,18.4-6.5,36.7-21.1,49.6c-14.6,12.9-33.7,17.7-51.8,14.7c-0.6-0.1-1.1-0.2-1.7-0.3L161,223.6l-1.4-1.6
	c-8.5,29.6-2.2,62.8,19.7,87.6c26.2,29.8,67.2,38.8,102.3,25.9L460,538c-17.2,33.2-13.3,75,12.9,104.7c21.9,24.8,54,35.2,84.4,30.5
	l-5.1-5.8L501.5,609.9z"/>
</svg>
