<?xml version="1.0" encoding="utf-8"?>
<!-- Generator: Adobe Illustrator 19.2.1, SVG Export Plug-In . SVG Version: 6.00 Build 0)  -->
<svg version="1.1" id="图层_1" xmlns="http://www.w3.org/2000/svg" xmlns:xlink="http://www.w3.org/1999/xlink" x="0px" y="0px"
	 viewBox="0 0 800 800" style="enable-background:new 0 0 800 800;" xml:space="preserve">
<style type="text/css">
	.st0{fill:#3371E3;}
	.st1{fill:#FFFFFF;}
	.st2{clip-path:url(#SVGID_2_);}
	.st3{clip-path:url(#SVGID_4_);}
	.st4{clip-path:url(#SVGID_6_);}
	.st5{clip-path:url(#SVGID_8_);}
	.st6{clip-path:url(#SVGID_10_);}
	.st7{clip-path:url(#SVGID_12_);}
	.st8{fill:#FFFFFF;stroke:#FFFFFF;stroke-width:6.0055;stroke-miterlimit:10;}
	.st9{clip-path:url(#SVGID_14_);}
	.st10{fill:#FFFFFF;stroke:#FFFFFF;stroke-width:10.2766;stroke-miterlimit:10;}
	.st11{clip-path:url(#SVGID_16_);}
	.st12{fill:#3371E3;stroke:#FFFFFF;stroke-width:8;stroke-miterlimit:10;}
	.st13{clip-path:url(#SVGID_16_);fill:#FFFFFF;}
	.st14{clip-path:url(#SVGID_18_);}
	.st15{clip-path:url(#SVGID_20_);}
	.st16{clip-path:url(#SVGID_22_);}
	.st17{clip-path:url(#SVGID_24_);}
	.st18{clip-path:url(#SVGID_24_);fill:#FFFFFF;}
	.st19{clip-path:url(#SVGID_26_);}
	.st20{clip-path:url(#SVGID_28_);}
	.st21{clip-path:url(#SVGID_30_);}
	.st22{clip-path:url(#SVGID_32_);}
	.st23{clip-path:url(#SVGID_34_);}
	.st24{clip-path:url(#SVGID_36_);}
	.st25{fill:none;stroke:#FFFFFF;stroke-width:30.5101;stroke-miterlimit:10;}
	.st26{fill:none;stroke:#3371E3;stroke-width:102.9131;stroke-miterlimit:10;}
	.st27{clip-path:url(#SVGID_38_);}
	.st28{fill:none;stroke:#FFFFFF;stroke-width:19.7703;stroke-linejoin:round;stroke-miterlimit:10;}
	.st29{fill:none;stroke:#FFFFFF;stroke-width:19.7703;stroke-linecap:round;stroke-linejoin:round;stroke-miterlimit:10;}
	.st30{clip-path:url(#SVGID_40_);}
	.st31{fill:#FFFFFF;stroke:#FFFFFF;stroke-width:24.7895;stroke-miterlimit:10;}
	.st32{fill:none;stroke:#FFFFFF;stroke-width:22.8826;stroke-miterlimit:10;}
	.st33{clip-path:url(#SVGID_42_);}
	.st34{clip-path:url(#SVGID_44_);}
	.st35{clip-path:url(#SVGID_44_);fill:#FFFFFF;}
	.st36{clip-path:url(#SVGID_44_);fill:#3371E3;}
	.st37{clip-path:url(#SVGID_46_);}
	.st38{clip-path:url(#SVGID_48_);}
	.st39{clip-path:url(#SVGID_50_);}
	.st40{fill:none;stroke:#3371E3;stroke-width:60;stroke-miterlimit:10;}
	.st41{fill:#3371E3;stroke:#3371E3;stroke-width:5;stroke-miterlimit:10;}
	.st42{fill:#3371E3;stroke:#3371E3;stroke-width:24;stroke-miterlimit:10;}
	.st43{fill:none;stroke:#3371E3;stroke-width:51;stroke-linecap:round;stroke-linejoin:round;stroke-miterlimit:10;}
	.st44{fill:none;stroke:#3371E3;stroke-width:37;stroke-linecap:round;stroke-linejoin:round;stroke-miterlimit:10;}
	.st45{fill:none;stroke:#3371E3;stroke-width:50;stroke-miterlimit:10;}
	.st46{fill:none;stroke:#3371E3;stroke-width:36;stroke-miterlimit:10;}
	.st47{fill:none;stroke:#3371E3;stroke-width:36;stroke-linecap:round;stroke-linejoin:round;stroke-miterlimit:10;}
</style>
<path class="st0" d="M256.3,160.2c15.9-28.8,53.7-40.1,84.4-25.1l274.8,134.1c30.7,15,42.6,50.5,26.7,79.3L256.3,160.2z"/>
<path class="st0" d="M421.9,158.7c7.4-13.5,21.6-20.4,31.7-15.5l90,43.9c10,4.9,12.2,19.8,4.7,33.3L421.9,158.7z"/>
<path class="st0" d="M205.1,342.9v304.3c0,33.9,29.3,61.4,65.3,61.4h250.5c36.1,0,65.3-27.5,65.3-61.4V342.9H205.1z M304.1,630.8
	c0,10.8-9.3,19.6-20.8,19.6s-20.8-8.8-20.8-19.6v-219c0-10.8,9.3-19.6,20.8-19.6s20.8,8.8,20.8,19.6V630.8z M416.6,630.8
	c0,10.8-9.3,19.6-20.8,19.6c-11.5,0-20.8-8.8-20.8-19.6v-219c0-10.8,9.3-19.6,20.8-19.6c11.5,0,20.8,8.8,20.8,19.6V630.8z
	 M529.2,635.7c0,10.8-9.3,19.6-20.8,19.6c-11.5,0-20.8-8.8-20.8-19.6v-219c0-10.8,9.3-19.6,20.8-19.6c11.5,0,20.8,8.8,20.8,19.6
	V635.7z"/>
<path class="st0" d="M161.3,352.9c3.3-46.5,28.6-98.1,92-68.2c1.8,0.8,2.5,3.6,1.5,6.1l-11,24.2c-3.7,8.1,2,15.9,9.1,12.4l73.1-35.5
	c2.2-1,3.6-4,2.9-6.4l-21-80.1c-2.1-7.8-11.5-7.2-15.1,0.9l-8.3,18.4c-2.3,5.1-7.3,7.5-11.3,5.8c-76.6-33.2-125,45.4-114.4,121.1
	L161.3,352.9z"/>
</svg>
