<?xml version="1.0" encoding="utf-8"?>
<!-- Generator: Adobe Illustrator 19.2.1, SVG Export Plug-In . SVG Version: 6.00 Build 0)  -->
<svg version="1.1" id="图层_1" xmlns="http://www.w3.org/2000/svg" xmlns:xlink="http://www.w3.org/1999/xlink" x="0px" y="0px"
	 viewBox="0 0 800 800" style="enable-background:new 0 0 800 800;" xml:space="preserve">
<style type="text/css">
	.st0{display:none;}
	.st1{display:inline;fill:#3371E3;}
	.st2{display:inline;fill:none;stroke:#FFFFFF;stroke-width:36;stroke-miterlimit:10;}
	.st3{display:none;fill:#FFFFFF;}
	.st4{display:inline;fill:#FFFFFF;}
	.st5{fill:#3371E3;}
	.st6{fill:#FFFFFF;}
	.st7{display:none;fill:none;stroke:#FFFFFF;stroke-width:16;stroke-linecap:round;stroke-miterlimit:10;}
	.st8{display:none;fill:none;}
	.st9{fill:none;stroke:#3371E3;stroke-width:60;stroke-miterlimit:10;}
	.st10{display:inline;}
	.st11{display:inline;clip-path:url(#SVGID_2_);}
	.st12{display:inline;clip-path:url(#SVGID_2_);fill:#FFFFFF;}
	.st13{display:inline;clip-path:url(#SVGID_2_);fill:#3371E3;}
</style>
<g class="st0">
	<path class="st1" d="M-483.9,83.3h-254.6c-35.1,0-63.5,28.4-63.5,63.5v508c0,35.1,28.4,63.5,63.5,63.5h389
		c35.1,0,63.5-28.4,63.5-63.5V279.8c0-16.9-6.5-33.1-18.2-45.2l-122.4-127C-441.6,92.1-462.3,83.3-483.9,83.3z"/>
	<path class="st2" d="M-480.1,24.1v198.2c0,28.6,23.2,51.9,51.9,51.9h187.8"/>
</g>
<circle class="st3" cx="-364.7" cy="622.3" r="181.7"/>
<g class="st0">
	<path class="st4" d="M-639.1,456.9c-8-4-17.3-6-27.8-6c-11.3,0-21.2,2.4-29.6,7.2c-8.5,4.8-14.9,10.9-19.3,18.2
		c-4.4,7.3-6.6,14.5-6.6,21.7c0,3.4,1.4,6.7,4.2,9.6c2.8,3,6.2,4.4,10.3,4.4c6.9,0,11.5-4.2,14-12.7c2.6-8.1,5.8-14.2,9.5-18.4
		c3.8-4.2,9.6-6.2,17.6-6.2c6.8,0,12.3,2.1,16.7,6.2c4.3,4.1,6.5,9.2,6.5,15.2c0,3.1-0.7,5.9-2.1,8.6c-1.4,2.6-3.1,5-5.2,7.1
		c-2.1,2.1-5.4,5.3-10,9.5c-5.3,4.8-9.5,9-12.6,12.4c-3.1,3.5-5.6,7.5-7.5,12.2c-1.9,4.6-2.8,10.1-2.8,16.4c0,5,1.3,8.8,3.8,11.4
		c2.6,2.5,5.7,3.8,9.5,3.8c7.2,0,11.5-3.9,12.9-11.7c0.8-3.7,1.4-6.2,1.8-7.7c0.4-1.5,1-2.9,1.7-4.4c0.7-1.5,1.8-3.1,3.3-4.8
		c1.5-1.8,3.5-3.8,5.9-6.1c8.9-8.3,15.1-14.1,18.5-17.6c3.4-3.5,6.4-7.6,8.9-12.4c2.5-4.8,3.7-10.4,3.7-16.8
		c0-8.1-2.2-15.6-6.6-22.5C-624.9,466.4-631.1,460.9-639.1,456.9z"/>
	<path class="st4" d="M-668.2,592.2c-10,0-18.1,8.3-18.1,18.6c0,10.3,8.1,18.6,18.1,18.6c10,0,18.1-8.3,18.1-18.6
		C-650.1,600.5-658.2,592.2-668.2,592.2z"/>
</g>
<path class="st5" d="M498.5,688.1L498.5,688.1c-51.6-48-54.5-128.8-6.5-180.4l0,0c48-51.6,128.8-54.5,180.4-6.5l0,0
	c51.6,48,54.5,128.8,6.5,180.4l0,0C630.9,733.2,550.1,736.1,498.5,688.1z"/>
<g>
	<path class="st6" d="M612.6,516.9c-7.5-3.7-16.1-5.6-25.9-5.6c-10.5,0-19.8,2.2-27.6,6.7c-7.9,4.5-13.9,10.1-18,17
		c-4.1,6.8-6.2,13.6-6.2,20.2c0,3.2,1.3,6.2,3.9,9c2.6,2.8,5.8,4.1,9.6,4.1c6.4,0,10.8-4,13.1-11.9c2.4-7.6,5.4-13.3,8.9-17.2
		c3.5-3.9,9-5.8,16.4-5.8c6.3,0,11.5,1.9,15.6,5.8c4,3.9,6,8.6,6,14.2c0,2.9-0.7,5.5-2,8c-1.3,2.5-2.9,4.7-4.9,6.7
		c-1.9,2-5,5-9.4,8.9c-4.9,4.5-8.8,8.4-11.7,11.6c-2.9,3.3-5.2,7-7,11.3c-1.8,4.3-2.6,9.4-2.6,15.3c0,4.7,1.2,8.2,3.6,10.6
		c2.4,2.4,5.4,3.6,8.9,3.6c6.8,0,10.8-3.6,12.1-10.9c0.7-3.4,1.3-5.8,1.7-7.2c0.4-1.4,0.9-2.7,1.6-4.1c0.7-1.4,1.7-2.9,3.1-4.5
		c1.4-1.6,3.2-3.6,5.5-5.7c8.3-7.7,14.1-13.2,17.3-16.4c3.2-3.3,6-7.1,8.3-11.6c2.3-4.5,3.5-9.7,3.5-15.7c0-7.6-2-14.6-6.1-21
		C625.9,525.7,620.1,520.6,612.6,516.9z"/>
	<path class="st6" d="M585.5,643.2c-9.3,0-16.9,7.8-16.9,17.4c0,9.6,7.6,17.4,16.9,17.4c9.3,0,16.9-7.8,16.9-17.4
		C602.4,651,594.8,643.2,585.5,643.2z"/>
</g>
<g>
	<g>
		<path class="st5" d="M435.7,507.5h-84.8c-4.4,0-7.9-3.6-7.9-7.9V349.9c0-4.4,3.6-7.9,7.9-7.9h84.8c4.4,0,7.9,3.6,7.9,7.9v149.7
			C443.6,503.9,440.1,507.5,435.7,507.5z"/>
		<path class="st5" d="M264.5,361.1l123.2-123.2c3.1-3.1,8.1-3.1,11.2,0l123.2,123.2c5,5,1.5,13.6-5.6,13.6H270.1
			C263.1,374.7,259.5,366.1,264.5,361.1z"/>
	</g>
	<path class="st5" d="M483.2,570.5H303.4c-2.5,0-4.6-2.1-4.6-4.6v-23.1c0-2.5,2.1-4.6,4.6-4.6h179.7c2.5,0,4.6,2.1,4.6,4.6v23.1
		C487.8,568.4,485.7,570.5,483.2,570.5z"/>
</g>
<line class="st7" x1="-718.6" y1="191.4" x2="-591.1" y2="191.4"/>
<line class="st7" x1="-718.6" y1="251.5" x2="-591.1" y2="251.5"/>
<line class="st7" x1="-718.6" y1="311.6" x2="-591.1" y2="311.6"/>
<line class="st7" x1="-717.4" y1="371.7" x2="-364.7" y2="371.7"/>
<rect x="-950.6" class="st8" width="800" height="800"/>
<path class="st9" d="M385.5,684.3C227.4,680,102.7,548.4,107,390.3s136-282.8,294.1-278.5s282.8,136,278.5,294.1"/>
<rect y="0" class="st8" width="800" height="800"/>
<g class="st0">
	<defs>
		<rect id="SVGID_1_" x="1002.3" width="800" height="800"/>
	</defs>
	<clipPath id="SVGID_2_" class="st10">
		<use xlink:href="#SVGID_1_"  style="overflow:visible;"/>
	</clipPath>
	<g class="st11">
		<g>
			<path class="st5" d="M1449.2,583.1h-152.8c-7.9,0-14.3-6.4-14.3-14.3V299.1c0-7.9,6.4-14.3,14.3-14.3h152.8
				c7.9,0,14.3,6.4,14.3,14.3v269.7C1463.5,576.7,1457.1,583.1,1449.2,583.1z"/>
			<path class="st5" d="M1140.8,319.3l222-222c5.6-5.6,14.7-5.6,20.2,0l222,222c9,9,2.6,24.4-10.1,24.4h-443.9
				C1138.1,343.8,1131.7,328.4,1140.8,319.3z"/>
		</g>
		<path class="st5" d="M1534.8,696.7h-324c-4.6,0-8.3-3.7-8.3-8.3v-41.5c0-4.6,3.7-8.3,8.3-8.3h324c4.6,0,8.3,3.7,8.3,8.3v41.5
			C1543.1,693,1539.4,696.7,1534.8,696.7z"/>
	</g>
	<path class="st12" d="M1434.1,733.4L1434.1,733.4c-80.9-75.3-85.5-202-10.2-282.9l0,0c75.3-80.9,202-85.5,282.9-10.2l0,0
		c80.9,75.3,85.5,202,10.2,282.9l0,0C1641.7,804.1,1515.1,808.7,1434.1,733.4z"/>
	<path class="st13" d="M1483.5,680.3L1483.5,680.3c-51.6-48-54.5-128.8-6.5-180.4l0,0c48-51.6,128.8-54.5,180.4-6.5l0,0
		c51.6,48,54.5,128.8,6.5,180.4l0,0C1615.9,725.4,1535.1,728.3,1483.5,680.3z"/>
	<g class="st11">
		<path class="st6" d="M1602.1,496.3c-8.7-4.4-18.8-6.5-30.2-6.5c-12.3,0-23,2.6-32.2,7.8c-9.2,5.2-16.2,11.8-21,19.8
			c-4.8,8-7.2,15.8-7.2,23.5c0,3.7,1.5,7.2,4.5,10.5c3,3.2,6.7,4.8,11.1,4.8c7.5,0,12.5-4.6,15.2-13.8c2.8-8.8,6.3-15.5,10.4-20
			c4.1-4.5,10.5-6.8,19.1-6.8c7.4,0,13.4,2.2,18.1,6.7c4.7,4.5,7,10,7,16.5c0,3.4-0.8,6.4-2.3,9.3c-1.5,2.9-3.4,5.4-5.7,7.8
			c-2.2,2.3-5.9,5.8-10.9,10.3c-5.7,5.2-10.3,9.7-13.7,13.5c-3.4,3.8-6.1,8.2-8.1,13.2c-2,5-3.1,10.9-3.1,17.8
			c0,5.5,1.4,9.6,4.2,12.4c2.8,2.8,6.2,4.2,10.3,4.2c7.9,0,12.5-4.2,14-12.7c0.9-4,1.5-6.8,2-8.4c0.4-1.6,1-3.2,1.8-4.8
			c0.8-1.6,2-3.3,3.6-5.3c1.6-1.9,3.8-4.1,6.4-6.7c9.7-9,16.4-15.4,20.1-19.2c3.7-3.8,7-8.3,9.7-13.5c2.7-5.2,4.1-11.3,4.1-18.2
			c0-8.8-2.4-17-7.1-24.5C1617.6,506.6,1610.9,500.6,1602.1,496.3z"/>
		<path class="st6" d="M1570.5,643.4c-10.9,0-19.7,9.1-19.7,20.2c0,11.2,8.8,20.2,19.7,20.2c10.9,0,19.7-9.1,19.7-20.2
			C1590.1,652.5,1581.3,643.4,1570.5,643.4z"/>
	</g>
</g>
</svg>
