<?xml version="1.0" encoding="utf-8"?>
<!-- Generator: Adobe Illustrator 19.2.1, SVG Export Plug-In . SVG Version: 6.00 Build 0)  -->
<svg version="1.1" id="图层_1" xmlns="http://www.w3.org/2000/svg" xmlns:xlink="http://www.w3.org/1999/xlink" x="0px" y="0px"
	 viewBox="0 0 800 800" style="enable-background:new 0 0 800 800;" xml:space="preserve">
<style type="text/css">
	.st0{fill:#3371E3;}
	.st1{fill:#FFFFFF;}
</style>
<g>
	<path class="st0" d="M199.6,680.8L53.5,427.8c-11-18.9-11-42.4,0-61.4l146.1-253.1c11-18.9,31.2-30.7,53.1-30.7H545
		c21.9,0,42.2,11.7,53.1,30.7l146.1,253.1c11,18.9,11,42.4,0,61.4l-146,253.1c-11,18.9-31.2,30.7-53.1,30.7H252.8
		C230.8,711.6,210.6,699.8,199.6,680.8z"/>
	<path class="st1" d="M433.2,242.6v23.2c0,0.7,0.6,1.4,1.2,1.4c56.6,12,99.4,62.6,99.4,122.6c0,15.5-3,31.8-8.1,45.6h-62.2
		c9.8-12.2,15.6-29,15.6-45.6c0-29.3-18-54.6-43.7-65.3c-1-0.5-2.1,0.2-2.1,1.4v20.4c0,1.4-1.7,2-2.6,1.1l-51.9-51.9
		c-0.6-0.6-0.6-1.5,0-2.3l51.9-51.9C431.6,240.6,433.2,241.2,433.2,242.6z M221,515.5v-54.8h30.1c0.6,0,1,0.2,1.3,0.7
		c11.9,21,26.6,38.6,46.8,51.2c1.3,0.8,0.7,2.9-0.8,2.9H221L221,515.5z M541.5,540.1V517c0-0.8-0.6-1.5-1.5-1.5h-139h-15.5
		c-42.9,0-81-21.7-103.5-54.8c-13.8-20.1-21.8-44.4-21.8-70.7c0-63.4,47.3-115.9,108.4-124.1c1.4-0.2,2.3,1.5,1.3,2.6l-25.1,25.1
		c-0.6,0.6-0.6,1.5,0,2.3l23.6,23.6c0.8,0.8,0.5,2.3-0.6,2.6c-30.4,8-52.9,35.7-52.7,68.7c0.2,39,32.6,70.2,71.6,70.2h14.4h103.5
		h35.5c0.8,0,1.5-0.6,1.5-1.5v-26.8l54.6,54.6c0.6,0.6,0.6,1.5,0,2.3l-52.1,52.1C543.2,542.1,541.5,541.4,541.5,540.1z"/>
</g>
<circle class="st1" cx="595.4" cy="605.4" r="181.4"/>
<path class="st0" d="M706.1,537.1c-0.9-2.6-4.3-3.2-6.3-1.4c-3.6,3.6-8.5,8-14.8,13.9c-9.7,9.7-23.3,9.7-33,0
	c-9.7-9.7-9.7-23.3,0-32.3c5.6-5.6,11.2-11.7,14.6-15.6c1.7-2,0.9-5.1-1.5-6c-24.6-9.3-53.6-4.1-73.1,15.6
	c-19.6,19.6-24.8,46.6-16.6,71.4l-80.7,80.7c-12.3,12.3-12.5,32.6,0,44.5c12.1,11.6,31.2,11.5,43.1-0.5l82-81.1
	c24.1,8.2,51.8,2.2,71.4-16.6C709.8,589.5,715,561.5,706.1,537.1z"/>
</svg>
