<?xml version="1.0" encoding="UTF-8"?>
<svg xmlns="http://www.w3.org/2000/svg" xmlns:xlink="http://www.w3.org/1999/xlink" width="26px" height="26px" viewBox="0 0 26 26" version="1.1">
  <title>博客</title>
  <g id="首页" stroke="none" stroke-width="1" fill="none" fill-rule="evenodd">
    <g id="官网首页" transform="translate(-722.000000, -5143.000000)" fill="#326DE6" fill-rule="nonzero">
      <g id="获得专业服务" transform="translate(0.000000, 5080.000000)">
        <g id="编组" transform="translate(722.000000, 60.000000)">
          <g id="编组-37" transform="translate(0.000000, 2.000000)">
            <g id="博客" transform="translate(0.000000, 1.000000)">
              <path d="M25.0698745,6.44560669 C23.8514644,5.22719665 22.1108787,5.57531381 20.8924686,6.79372385 L11.9284519,15.8447699 C11.8414226,15.9317992 11.7543933,16.1058577 11.7543933,16.2799163 L10.9711297,19.9351464 C10.8841004,20.1962343 10.9711297,20.3702929 11.1451883,20.6313808 C11.3192469,20.8054393 11.9284519,20.6313808 11.9284519,20.6313808 L15.6707113,19.7610879 C15.8447699,19.7610879 15.9317992,19.6740586 16.1058577,19.5870293 L25.0698745,10.6230126 C26.2882845,9.40460251 26.2882845,7.83807531 25.0698745,6.61966527 L25.0698745,6.44560669 L25.0698745,6.44560669 Z" id="路径"></path>
              <path d="M7.22887029,9.14786611 L4.96610879,11.3235983 C4.61799163,11.6717155 4.18284519,11.6717155 3.83472803,11.3235983 C3.48661088,10.9754812 3.48661088,10.5403347 3.83472803,10.1922176 L6.61966527,7.40728033 C6.96778243,7.05916318 7.40292887,7.05916318 7.75104603,7.40728033 L9.83974895,9.49598326 L14.8874477,4.44828452 C15.2355649,4.18719665 15.6707113,4.18719665 15.9317992,4.53531381 C16.192887,4.79640167 16.2799163,5.31857741 16.0188285,5.57966527 L10.448954,11.236569 C10.2748954,11.4106276 10.1008368,11.4976569 9.83974895,11.4976569 C9.66569038,11.4976569 9.40460251,11.4106276 9.23054393,11.236569 L7.22887029,9.14786611 Z M16.192887,21.0708787 L10.7100418,22.2022594 L10.5359833,22.2022594 C10.1878661,22.2022594 9.92677824,22.0282008 9.66569038,21.767113 C9.4916318,21.5060251 9.40460251,21.1579079 9.4916318,20.8968201 L10.6230126,15.4139749 C10.6230126,15.2399163 10.7970711,14.9788285 10.8841004,14.8917992 L21.8497908,3.8390795 L22.1108787,3.57799163 L22.1108787,3.22987448 C22.1108787,1.40225941 20.6313808,0.00979079498 18.890795,0.00979079498 L3.22552301,0.00979079498 C1.39790795,0.00979079498 0.00543933054,1.4892887 0.00543933054,3.22987448 L0.00543933054,22.7244351 C0.00543933054,24.5520502 1.48493724,25.9445188 3.22552301,25.9445188 L18.8037657,25.9445188 C20.6313808,25.9445188 22.0238494,24.4650209 22.0238494,22.7244351 L22.0238494,15.5880335 L16.8020921,20.8097908 C16.7150628,20.9838494 16.4539749,21.0708787 16.192887,21.0708787 L16.192887,21.0708787 Z" id="形状"></path>
            </g>
          </g>
        </g>
      </g>
    </g>
  </g>
</svg>
