<?xml version="1.0" encoding="UTF-8"?>
<svg xmlns="http://www.w3.org/2000/svg" xmlns:xlink="http://www.w3.org/1999/xlink" width="26px" height="25px" viewBox="0 0 26 25" version="1.1">
  <title>文档</title>
  <g id="首页" stroke="none" stroke-width="1" fill="none" fill-rule="evenodd">
    <g id="官网首页" transform="translate(-392.000000, -5142.000000)" fill="#326DE6" fill-rule="nonzero">
      <g id="获得专业服务" transform="translate(0.000000, 5080.000000)">
        <g id="编组-2" transform="translate(392.000000, 60.000000)">
          <g id="文档" transform="translate(0.000000, 2.000000)">
            <path d="M12.6668277,21.4540716 L13.333085,21.4540716 C19.3287897,18.2416756 23.326566,18.7943065 23.326566,18.7943065 L23.659651,18.4618904 L23.659651,0.175892617 C18.1458188,-0.892434004 12.9999709,3.50051902 12.9999709,3.50051902 C7.75739374,-0.88714094 2.34026174,0.175863535 2.34026174,0.175863535 L2.34026174,18.4618613 L2.67337584,18.7942774 C9.04395749,19.0233043 12.6668277,21.4540716 12.6668277,21.4540716 Z M12.3337136,5.49542282 L12.6668568,5.16300671 L13.3331141,5.16300671 L13.6661991,5.49542282 L13.6661991,19.459226 L13.3331141,19.7917293 L12.6668568,19.7917293 L12.3337136,19.459226 L12.3337136,5.49542282 Z M24.6589933,2.50315436 L24.6589933,19.7917293 C15.3255168,19.267774 13.333085,22.4514653 13.333085,22.4514653 L12.6668277,22.4514653 C9.55037584,19.3633691 1.34083221,19.7917293 1.34083221,19.7917293 L1.34083221,2.50315436 L0.00843400447,2.50315436 L0.00843400447,21.4540425 C8.93041834,21.0909441 11.3343714,23.7813043 11.3343714,23.7813043 L14.6655705,23.7813043 C16.5252103,21.0221342 25.991566,21.4540425 25.991566,21.4540425 L25.991566,2.50315436 L24.6589933,2.50315436 Z" id="形状"></path>
          </g>
        </g>
      </g>
    </g>
  </g>
</svg>
