<?xml version="1.0" encoding="UTF-8"?>
<svg xmlns="http://www.w3.org/2000/svg" xmlns:xlink="http://www.w3.org/1999/xlink" width="26px" height="26px" viewBox="0 0 26 26" version="1.1">
  <title>开源中心</title>
  <g id="首页" stroke="none" stroke-width="1" fill="none" fill-rule="evenodd">
    <g id="官网首页" transform="translate(-1052.000000, -5141.000000)" fill="#326DE6" fill-rule="nonzero">
      <g id="获得专业服务" transform="translate(0.000000, 5080.000000)">
        <g id="编组-3" transform="translate(1052.000000, 60.000000)">
          <g id="开源中心" transform="translate(0.000000, 1.000000)">
            <path d="M7.61059253,25.0344968 L10.354099,18.070211 C8.66578734,17.1205357 7.39955357,15.3267045 7.39955357,13.2163149 C7.39955357,10.15625 9.9320211,7.62378247 12.992086,7.62378247 C16.052151,7.62378247 18.5846185,10.15625 18.5846185,13.2163149 C18.5846185,15.3267045 17.4239042,17.1205357 15.6300731,18.070211 L18.3735795,25.0344968 C22.8053977,22.9241071 25.9709821,18.3867695 25.9709821,13.2163149 C26.1820211,5.93547078 20.2729302,0.0263798701 13.0976055,0.0263798701 C5.92228084,0.0263798701 0.0131899351,5.93547078 0.0131899351,13.1107955 C0.0131899351,18.3867695 3.07325487,22.9241071 7.61059253,25.0344968 Z" id="路径"></path>
          </g>
        </g>
      </g>
    </g>
  </g>
</svg>
