<?xml version="1.0" encoding="UTF-8"?>
<svg xmlns="http://www.w3.org/2000/svg" xmlns:xlink="http://www.w3.org/1999/xlink" width="50px" height="54px" viewBox="0 0 50 54" version="1.1">
  <title>Page 1</title>
  <g id="联系我们" stroke="none" stroke-width="1" fill="none" fill-rule="evenodd">
    <g transform="translate(-288.000000, -820.000000)" fill="#326DE6" id="编组-13">
      <g transform="translate(0.000000, 651.000000)">
        <g id="编组-10" transform="translate(258.000000, 133.000000)">
          <g id="Page-1" transform="translate(30.000000, 36.000000)">
            <path d="M26.3211667,14.6308667 C26.3211667,14.2005333 26.6701667,13.8515333 27.1005,13.8515333 C27.5308333,13.8515333 27.8798333,14.2005333 27.8798333,14.6308667 C27.8798333,15.0612 27.5308333,15.4102 27.1005,15.4102 C26.6701667,15.4102 26.3211667,15.0612 26.3211667,14.6308667 M31.4498333,11.6398667 C32.2991667,9.79853333 32.2135,5.43253333 32.2135,5.43253333 C32.2135,5.43253333 31.0778333,5.84086667 29.9061667,5.84086667 C29.1601667,4.57586667 28.1235,3.27786667 26.7461667,1.96853333 C26.7461667,1.96853333 27.6125,1.44353333 28.5368333,-0.000133333333 L24.7398333,-0.000133333333 L21.3445,-0.000133333333 C22.5171667,1.66553333 23.2975,1.96853333 23.2975,1.96853333 C21.3668333,3.8042 20.1051667,5.61786667 19.3761667,7.34886667 C18.6408333,7.38586667 18.0881667,7.42053333 17.2288333,7.4972 C17.2288333,7.4972 17.4638333,9.07853333 18.5798333,10.9135333 C18.4828333,15.1365333 21.4908333,18.4618667 25.0218333,19.7342 C28.3478333,18.5355333 31.2098333,15.5155333 31.4498333,11.6398667" id="Fill-5"></path>
            <path d="M15.1592,19.5246 C14.7865333,19.3092667 14.6588667,18.8329333 14.8738667,18.4599333 C15.0892,18.0872667 15.5658667,17.9596 15.9385333,18.1749333 C16.3112,18.3899333 16.4388667,18.8666 16.2238667,19.2392667 C16.0085333,19.6122667 15.5318667,19.7399333 15.1592,19.5246 M15.1332,13.5876 C13.9632,11.9312667 10.1395333,9.8226 10.1395333,9.8226 C10.1395333,9.8226 9.9252,11.0102667 9.3392,12.0249333 C7.87086667,12.0386 6.2282,12.2872667 4.40586667,12.8252667 C4.40586667,12.8252667 4.3842,11.8126 3.5962,10.2902667 C3.5962,10.2902667 2.8892,11.5149333 1.69753333,13.5786 C0.5062,15.6426 -0.000133333333,16.5192667 -0.000133333333,16.5192667 C2.02853333,16.3362667 2.68153333,15.8119333 2.68153333,15.8119333 C3.30586667,18.4016 4.24553333,20.4012667 5.3802,21.8982667 C5.04453333,22.5536 4.79853333,23.0492667 4.43486667,23.8319333 C4.43486667,23.8319333 5.92186667,24.4192667 8.0692,24.3702667 C11.6778667,26.5656 16.0618667,25.6232667 18.9292,23.2016 C19.5542,19.7216 18.3695333,15.7332667 15.1332,13.5876" id="Fill-6"></path>
            <path d="M13.8163333,31.638 C13.4436667,31.8533333 12.967,31.7256667 12.7516667,31.3526667 C12.5366667,30.98 12.6643333,30.5033333 13.037,30.2883333 C13.4096667,30.073 13.8863333,30.2006667 14.1016667,30.5733333 C14.3166667,30.9463333 14.189,31.4226667 13.8163333,31.638 M8.66166667,28.692 C6.64233333,28.877 2.90433333,31.1343333 2.90433333,31.1343333 C2.90433333,31.1343333 3.82566667,31.9136667 4.41133333,32.9283333 C3.689,34.207 3.083,35.7536667 2.638,37.601 C2.638,37.601 1.75033333,37.1133333 0.0376666667,37.0346667 C0.0376666667,37.0346667 0.744666667,38.2593333 1.93633333,40.323 C3.12766667,42.387 3.634,43.2636667 3.634,43.2636667 C4.49,41.4153333 4.36233333,40.5876667 4.36233333,40.5876667 C6.91733333,41.342 9.11866667,41.528 10.9826667,41.2936667 C11.3823333,41.912 11.6883333,42.373 12.1843333,43.079 C12.1843333,43.079 13.4366667,42.085 14.468,40.2006667 C18.1733333,38.1733333 19.5493333,33.9056667 18.8856667,30.2113333 C16.1846667,27.9303333 12.138,26.962 8.66166667,28.692" id="Fill-7"></path>
            <path d="M23.6354333,38.8577 C23.6354333,39.2880333 23.2864333,39.6370333 22.8561,39.6370333 C22.4257667,39.6370333 22.0767667,39.2880333 22.0767667,38.8577 C22.0767667,38.4273667 22.4257667,38.0783667 22.8561,38.0783667 C23.2864333,38.0783667 23.6354333,38.4273667 23.6354333,38.8577 M18.5067667,41.8487 C17.6574333,43.6900333 17.7431,48.0560333 17.7431,48.0560333 C17.7431,48.0560333 18.8787667,47.6477 20.0504333,47.6477 C20.7964333,48.9127 21.8331,50.2107 23.2104333,51.5200333 C23.2104333,51.5200333 22.3441,52.0450333 21.4197667,53.4887 C21.4197667,53.4887 22.8337667,53.4887 25.2167667,53.4887 C27.6001,53.4887 28.6121,53.4887 28.6121,53.4887 C27.4394333,51.8230333 26.6591,51.5200333 26.6591,51.5200333 C28.5897667,49.6843667 29.8514333,47.8707 30.5804333,46.1397 C31.3157667,46.1027 31.8684333,46.0680333 32.7277667,45.9913667 C32.7277667,45.9913667 32.4927667,44.4100333 31.3767667,42.5750333 C31.4737667,38.3520333 28.4657667,35.0267 24.9347667,33.7543667 C21.6087667,34.9530333 18.7467667,37.9730333 18.5067667,41.8487" id="Fill-8"></path>
            <path d="M34.7974,33.9639333 C35.1700667,34.1792667 35.2977333,34.6556 35.0827333,35.0286 C34.8674,35.4012667 34.3907333,35.5289333 34.0180667,35.3136 C33.6454,35.0986 33.5177333,34.6219333 33.7327333,34.2492667 C33.9480667,33.8762667 34.4247333,33.7486 34.7974,33.9639333 M34.8234,39.9009333 C35.9934,41.5572667 39.8170667,43.6659333 39.8170667,43.6659333 C39.8170667,43.6659333 40.0314,42.4782667 40.6174,41.4636 C42.0857333,41.4499333 43.7284,41.2012667 45.5507333,40.6632667 C45.5507333,40.6632667 45.5724,41.6759333 46.3604,43.1982667 C46.3604,43.1982667 47.0674,41.9736 48.2590667,39.9099333 C49.4504,37.8459333 49.9567333,36.9692667 49.9567333,36.9692667 C47.9280667,37.1522667 47.2750667,37.6766 47.2750667,37.6766 C46.6507333,35.0869333 45.7110667,33.0872667 44.5764,31.5902667 C44.9120667,30.9349333 45.1580667,30.4392667 45.5217333,29.6566 C45.5217333,29.6566 44.0347333,29.0692667 41.8874,29.1182667 C38.2787333,26.9229333 33.8947333,27.8652667 31.0274,30.2869333 C30.4024,33.7669333 31.5870667,37.7552667 34.8234,39.9009333" id="Fill-9"></path>
            <path d="M36.1402667,21.8505333 C36.5129333,21.6352 36.9896,21.7628667 37.2049333,22.1358667 C37.4199333,22.5085333 37.2922667,22.9852 36.9196,23.2002 C36.5469333,23.4155333 36.0702667,23.2878667 35.8549333,22.9152 C35.6399333,22.5422 35.7676,22.0658667 36.1402667,21.8505333 M41.2949333,24.7965333 C43.3142667,24.6115333 47.0522667,22.3542 47.0522667,22.3542 C47.0522667,22.3542 46.1309333,21.5748667 45.5452667,20.5602 C46.2676,19.2815333 46.8736,17.7348667 47.3186,15.8875333 C47.3186,15.8875333 48.2062667,16.3752 49.9189333,16.4538667 C49.9189333,16.4538667 49.2119333,15.2292 48.0202667,13.1655333 C46.8289333,11.1015333 46.3226,10.2248667 46.3226,10.2248667 C45.4666,12.0732 45.5942667,12.9008667 45.5942667,12.9008667 C43.0392667,12.1465333 40.8379333,11.9605333 38.9739333,12.1948667 C38.5742667,11.5765333 38.2682667,11.1155333 37.7722667,10.4095333 C37.7722667,10.4095333 36.5199333,11.4035333 35.4886,13.2878667 C31.7832667,15.3152 30.4072667,19.5828667 31.0709333,23.2772 C33.7719333,25.5582 37.8186,26.5265333 41.2949333,24.7965333" id="Fill-10"></path>
          </g>
        </g>
      </g>
    </g>
  </g>
</svg>
