<?xml version="1.0" encoding="UTF-8"?>
<svg xmlns="http://www.w3.org/2000/svg" xmlns:xlink="http://www.w3.org/1999/xlink" width="24px" height="24px" viewBox="0 0 24 24" version="1.1">
  <title>email_black_24dp</title>
  <g id="联系我们" stroke="none" stroke-width="1" fill="none" fill-rule="evenodd">
    <g transform="translate(-845.000000, -273.000000)" id="编组-3">
      <g transform="translate(845.000000, 273.000000)" id="email_black_24dp">
        <polygon id="路径" points="0 0 24 0 24 24 0 24"></polygon>
        <g id="编组-7" transform="translate(2.000000, 4.000000)">
          <path d="M18,0 L2,0 C0.9,0 0.01,0.9 0.01,2 L0,14 C0,15.1 0.9,16 2,16 L18,16 C19.1,16 20,15.1 20,14 L20,2 C20,0.9 19.1,0 18,0 Z" id="形状" fill="#326DE6" fill-rule="nonzero"></path>
          <polygon id="路径" fill="#B5CDFF" fill-rule="nonzero" points="18 4 10 9 2 4 2 2 10 7 18 2"></polygon>
          <line x1="6.5" y1="6.5" x2="2.5" y2="10.5" id="路径-2" stroke="#B5CDFF" stroke-width="1.5"></line>
          <line x1="17.5" y1="6.5" x2="13.5" y2="10.5" id="路径-2备份" stroke="#B5CDFF" stroke-width="1.5" transform="translate(15.373348, 8.500000) scale(-1, 1) translate(-15.373348, -8.500000) "></line>
        </g>
      </g>
    </g>
  </g>
</svg>
