<?xml version="1.0" encoding="UTF-8"?>
<svg xmlns="http://www.w3.org/2000/svg" xmlns:xlink="http://www.w3.org/1999/xlink" width="50px" height="50px" viewBox="0 0 50 50" version="1.1">
  <title>gitee</title>
  <g id="联系我们" stroke="none" stroke-width="1" fill="none" fill-rule="evenodd">
    <g transform="translate(-762.000000, -899.000000)" fill="#C71D23" fill-rule="nonzero" id="编组-13">
      <g transform="translate(0.000000, 651.000000)">
        <g id="编组-10备份" transform="translate(732.000000, 211.000000)">
          <g id="gitee" transform="translate(30.000000, 37.000000)">
            <path d="M25,50 C11.1924805,50 0,38.8075195 0,25 C0,11.1924805 11.1924805,0 25,0 C38.8075195,0 50,11.1924805 50,25 C50,38.8075195 38.8075195,50 25,50 Z M37.6537598,22.2225098 L23.4574707,22.2225098 C22.7754127,22.2225367 22.2225098,22.7754615 22.2225098,23.4575195 L22.2212402,26.54375 C22.2212402,27.225 22.7737305,27.7787598 23.4549805,27.7787598 L32.0987305,27.7787598 C32.78125,27.7787598 33.3337402,28.33125 33.3337402,29.0125 L33.3337402,29.6299805 C33.3337402,31.6755105 31.6755105,33.3337402 29.6299805,33.3337402 L17.9,33.3337402 C17.2184188,33.3330396 16.6662594,32.7803121 16.6662598,32.0987305 L16.6662598,20.3712402 C16.6662596,18.3262059 18.3237158,16.6681814 20.36875,16.6674805 L37.6512695,16.6674805 C38.3328317,16.6667799 38.8849832,16.1140821 38.8850098,15.4325195 L38.8887695,12.3462402 C38.8887695,11.6646396 38.3365808,11.1119042 37.6549805,11.1112305 L20.36875,11.1112305 C17.9129549,11.1112305 15.5577607,12.0868748 13.8213658,13.8234986 C12.084971,15.5601224 11.1096372,17.9154452 11.1099609,20.3712402 L11.1099609,37.6538086 C11.1099609,38.3362793 11.6625,38.8888184 12.3450195,38.8888184 L30.5549805,38.8888184 C35.1569039,38.8888184 38.8875,35.1582223 38.8875,30.5562988 L38.8875,23.45625 C38.8867994,22.7746688 38.3340718,22.2225094 37.6524902,22.2225098 L37.6537598,22.2225098 Z" id="形状"></path>
          </g>
        </g>
      </g>
    </g>
  </g>
</svg>
