<?xml version="1.0" encoding="UTF-8"?>
<svg width="50px" height="49px" viewBox="0 0 50 49" version="1.1" xmlns="http://www.w3.org/2000/svg" xmlns:xlink="http://www.w3.org/1999/xlink">
    <title>编组</title>
    <g id="联系我们" stroke="none" stroke-width="1" fill="none" fill-rule="evenodd">
        <g transform="translate(-762.000000, -752.000000)" fill="#4D5255" fill-rule="nonzero" id="编组-13">
            <g transform="translate(0.000000, 651.000000)">
                <g id="编组-10备份-2" transform="translate(732.000000, 63.000000)">
                    <g id="编组" transform="translate(30.000000, 38.000000)">
                        <path d="M49.7912326,24.9023437 C49.8388044,30.168096 48.1659009,35.3054079 45.0267882,39.5334549 C42.0033036,43.7572462 37.7129259,46.9080896 32.7778993,48.5290104 C32.3383323,48.6515941 31.8668423,48.5664639 31.4978993,48.2978993 C31.2312983,48.0445227 31.0884748,47.6874639 31.1067882,47.3201215 L31.1067882,40.4934549 C31.25049,38.7846671 30.6324185,37.099609 29.4178993,35.8890104 C30.532449,35.7797466 31.6375828,35.5896161 32.724566,35.3201215 C33.7914768,35.0339305 34.8142728,34.6032795 35.764566,34.0401215 C36.7602985,33.4970223 37.6464495,32.7736337 38.3778993,31.9067882 C39.181259,30.8918309 39.7845414,29.7335288 40.1556771,28.4934549 C40.6273937,26.9074939 40.855183,25.2590191 40.8312326,23.604566 C40.886729,21.1290098 39.9599448,18.7321541 38.2534549,16.9378993 C39.0554736,14.788429 38.9658753,12.4076745 38.004566,10.324566 C37.117793,10.1628774 36.2025752,10.2873968 35.3912326,10.6801215 C34.3510447,11.0541418 33.3505782,11.5305544 32.404566,12.1023437 L31.1778993,12.8667882 C27.1077754,11.7289726 22.8035788,11.7289726 18.7334549,12.8667882 C18.3778993,12.6178993 17.9334549,12.3512326 17.364566,11.9956771 C16.479005,11.4794873 15.5512309,11.0393894 14.5912326,10.6801215 C13.7304595,10.2430387 12.7540787,10.087564 11.8001215,10.2356771 C10.8415822,12.3392108 10.7584421,14.737481 11.5690104,16.9023437 C9.88633832,18.7245761 8.96962866,21.124573 9.00901042,23.604566 C8.98366183,25.2474342 9.21151855,26.8844049 9.68456597,28.4578993 C10.0703226,29.6919884 10.6722692,30.8477258 11.4623437,31.8712326 C12.1775887,32.7637111 13.066677,33.501594 14.0756771,34.0401215 C15.0384428,34.5781308 16.0580389,35.0074344 17.1156771,35.3201215 C18.2084126,35.59084 19.3195463,35.7809806 20.4401215,35.8890104 C19.5096235,36.7652802 18.9391566,37.9569221 18.8401215,39.2312326 C18.3724355,39.4538837 17.8756956,39.6094889 17.364566,39.6934549 C16.778476,39.8036786 16.1831407,39.8572588 15.5867882,39.8534549 C14.7700562,39.8586742 13.9729336,39.6033459 13.3112326,39.124566 C12.5744472,38.5905565 11.9669218,37.8979776 11.5334549,37.0978993 C11.1411423,36.4277584 10.607224,35.8513693 9.96901042,35.4090104 C9.4934013,35.0438185 8.94931873,34.7778226 8.36901042,34.6267882 L7.72901042,34.6267882 C7.40846684,34.6082299 7.08757298,34.6566667 6.78678819,34.7690104 C6.60901042,34.8756771 6.55567708,35.0001215 6.62678819,35.1423438 C6.71094813,35.301113 6.81229689,35.4501553 6.92901042,35.5867882 C7.05777807,35.736464 7.20065971,35.8733923 7.35567708,35.9956771 L7.58678819,36.1378993 C8.1447549,36.4380193 8.6302063,36.8567212 9.00901042,37.364566 C9.40578729,37.8709111 9.74561219,38.4194005 10.0223437,39.0001215 L10.3423437,39.7467882 C10.5945778,40.5487172 11.092001,41.2513274 11.764566,41.7556771 C12.404278,42.2193544 13.1390177,42.5351103 13.9156771,42.6801215 C14.6523597,42.8343036 15.403033,42.911754 16.1556771,42.9112326 C16.7507768,42.9221342 17.3456775,42.8804911 17.9334549,42.7867882 L18.6801215,42.6623438 L18.6801215,47.3201215 C18.6869697,47.6926084 18.5311934,48.0495957 18.2534549,48.2978993 C17.8769889,48.5646533 17.401087,48.649403 16.9556771,48.5290104 C12.0359429,46.8873156 7.7693008,43.7169203 4.77789931,39.4801215 C1.62262197,35.2807884 -0.0527791435,30.1545611 0.0134548608,24.9023438 C-0.0125072772,20.5290301 1.14215606,16.2297517 3.35567708,12.4578993 C5.52961696,8.67088986 8.67088986,5.52961696 12.4578993,3.35567708 C16.2297517,1.14215606 20.5290301,-0.0125072772 24.9023438,0.0130265153 C29.2756574,-0.0125072772 33.5749358,1.14215606 37.3467882,3.35567708 C41.1337976,5.52961696 44.2750705,8.67088986 46.4490104,12.4578993 C48.6641714,16.2290649 49.8189582,20.528803 49.7912326,24.9023437 Z" id="路径"></path>
                    </g>
                </g>
            </g>
        </g>
    </g>
</svg>