<?xml version="1.0" encoding="UTF-8"?>
<svg xmlns="http://www.w3.org/2000/svg" xmlns:xlink="http://www.w3.org/1999/xlink" width="24px" height="24px" viewBox="0 0 24 24" version="1.1">
  <title>微信</title>
  <g id="联系我们" stroke="none" stroke-width="1" fill="none" fill-rule="evenodd">
    <g transform="translate(-845.000000, -545.000000)" id="编组-2备份">
      <g transform="translate(845.000000, 545.000000)" id="微信">
        <rect id="矩形" x="0" y="0" width="24" height="24"></rect>
        <g id="编组" transform="translate(1.000000, 3.000000)" fill-rule="nonzero">
          <path d="M14.7382789,5.26294935 C14.8422405,5.26294935 14.9455647,5.26526276 15.0483932,5.26911057 C14.3935343,2.27053627 11.3028488,3.90798505e-14 7.5883936,3.90798505e-14 C3.39742421,3.90798505e-14 3.77771888e-13,2.89029277 3.77771888e-13,6.4556041 C3.77771888e-13,8.53866015 1.16003102,10.3909186 2.96014344,11.5713218 L2.20198394,13.8076291 L4.71250058,12.4309642 C5.59950257,12.7402523 6.57040092,12.9112082 7.58836998,12.9112082 C7.78460809,12.9112082 7.97909937,12.9048817 8.17156052,12.8924177 C7.95919937,12.3300006 7.84414288,11.7306634 7.84414288,11.1084991 C7.84419011,7.8801187 10.9307682,5.26294935 14.7382789,5.26294935 Z M10.2071681,3.19127149 C10.8260512,3.19127149 11.3277769,3.69297352 11.3277769,4.31188021 C11.3277769,4.93076329 10.8260748,5.43248892 10.2071681,5.43248892 C9.58826147,5.43248892 9.08655944,4.93078689 9.08655944,4.31188021 C9.08658306,3.69297352 9.58828509,3.19127149 10.2071681,3.19127149 Z M4.993957,5.4324653 C4.37507392,5.4324653 3.87334829,4.93076326 3.87334829,4.31185658 C3.87334829,3.6929735 4.37505032,3.19124787 4.993957,3.19124787 C5.61286368,3.19124787 6.11456571,3.6929499 6.11456571,4.31185658 C6.11456571,4.93073967 5.61286368,5.4324653 4.993957,5.4324653 Z" id="Shape" fill="#326DE6"></path>
          <path d="M21.1451835,11.1085227 C21.1451835,8.10824877 18.2767264,5.67605742 14.7382789,5.67605742 C11.1998314,5.67605742 8.33139795,8.10824877 8.33139795,11.1085227 C8.33139795,14.1087967 11.199855,16.540988 14.7383025,16.540988 C15.4812597,16.540988 16.194473,16.4333911 16.8580189,16.2362087 L19.0486011,17.4374089 L18.4119426,15.5594669 C20.06454,14.5769779 21.1451835,12.9498515 21.1451835,11.1085227 Z M12.7365698,10.328976 C12.2410526,10.328976 11.8393699,9.92729335 11.8393699,9.43177613 C11.8393699,8.93625894 12.2410525,8.53457626 12.7365698,8.53457626 C13.2320869,8.53457626 13.6337696,8.93625891 13.6337696,9.43177613 C13.6337696,9.92729335 13.2320869,10.328976 12.7365698,10.328976 Z M16.9105427,10.328976 C16.4150255,10.328976 16.0133428,9.92729335 16.0133428,9.43177613 C16.0133428,8.93625894 16.4150255,8.53457626 16.9105427,8.53457626 C17.4060599,8.53457626 17.8077426,8.93625891 17.8077426,9.43177613 C17.8077426,9.92729335 17.4060363,10.328976 16.9105427,10.328976 Z" id="Shape" fill="#B5CDFF"></path>
        </g>
      </g>
    </g>
  </g>
</svg>
