<?xml version="1.0" encoding="UTF-8"?>
<svg xmlns="http://www.w3.org/2000/svg" xmlns:xlink="http://www.w3.org/1999/xlink" width="50px" height="49px" viewBox="0 0 50 49" version="1.1">
  <title>开源中国</title>
  <g id="联系我们" stroke="none" stroke-width="1" fill="none" fill-rule="evenodd">
    <g transform="translate(-762.000000, -1048.000000)" fill-rule="nonzero" id="编组-13">
      <g transform="translate(0.000000, 651.000000)">
        <g id="编组-10备份-4" transform="translate(732.000000, 359.000000)">
          <g id="开源中国" transform="translate(30.000000, 38.000000)">
            <ellipse id="椭圆形" fill="#22B350" cx="25" cy="24.137931" rx="25" ry="24.137931"></ellipse>
            <g id="编组" transform="translate(11.000000, 9.000000)" fill="#FFFFFF">
              <path d="M14.1521739,20.0869565 C17.6521739,20.0869565 19.326087,17.1956522 19.326087,17.1956522 L28,20.0869565 C28,20.0869565 24.6521739,28.7608696 14.7608696,29.2173913 C5.7826087,29.5217391 0,22.0652174 0,14.6086957 C0,6.23913043 6.08695652,0 14.9130435,0 C24.3478261,0 27.8478261,9.13043478 27.8478261,9.13043478 L19.326087,12.326087 C19.326087,12.326087 17.3478261,8.52173913 14,8.67391304 C11.1086957,8.67391304 8.06521739,11.1086957 8.2173913,14.4565217 C8.67391304,18.1086957 11.1086957,20.0869565 14.1521739,20.0869565 L14.1521739,20.0869565 Z" id="形状"></path>
            </g>
          </g>
        </g>
      </g>
    </g>
  </g>
</svg>
